<svg width="312" height="311" viewBox="0 0 312 311" fill="none" xmlns="http://www.w3.org/2000/svg">
<circle cx="156" cy="150.5" r="149.5" fill="url(#paint0_linear_2706_18739)"/>
<path d="M264.68 50.0957H117.328V252.625H264.68V50.0957Z" fill="#F5F5F5"/>
<path d="M264.68 50.0957H117.328V61.1051H264.68V50.0957Z" fill="#E0E0E0"/>
<path d="M124.011 55.6003C124.01 55.8929 123.922 56.1785 123.759 56.4211C123.596 56.6637 123.364 56.8525 123.093 56.9636C122.823 57.0747 122.525 57.1031 122.239 57.0453C121.952 56.9875 121.689 56.846 121.482 56.6387C121.276 56.4314 121.135 56.1676 121.079 55.8807C121.022 55.5937 121.052 55.2963 121.164 55.0262C121.276 54.7561 121.466 54.5252 121.709 54.3628C121.953 54.2004 122.239 54.1138 122.531 54.1138C122.726 54.1138 122.919 54.1523 123.099 54.227C123.279 54.3018 123.443 54.4114 123.58 54.5496C123.718 54.6877 123.827 54.8516 123.901 55.0319C123.975 55.2123 124.012 55.4054 124.011 55.6003Z" fill="#F5F5F5"/>
<path d="M135.101 55.2835C135.1 55.5755 135.013 55.8606 134.85 56.1029C134.687 56.3453 134.456 56.5341 134.186 56.6455C133.916 56.757 133.619 56.7861 133.333 56.7293C133.047 56.6725 132.783 56.5322 132.576 56.3262C132.37 56.1202 132.228 55.8575 132.17 55.5714C132.112 55.2852 132.14 54.9883 132.25 54.7179C132.361 54.4476 132.548 54.2159 132.79 54.052C133.032 53.8881 133.317 53.7994 133.609 53.7969C133.805 53.7953 133.999 53.8326 134.18 53.9066C134.362 53.9807 134.527 54.09 134.666 54.2283C134.804 54.3666 134.914 54.5311 134.989 54.7122C135.064 54.8933 135.102 55.0875 135.101 55.2835Z" fill="#F5F5F5"/>
<path d="M129.828 55.2835C129.827 55.576 129.739 55.8616 129.575 56.1042C129.412 56.3468 129.18 56.5356 128.91 56.6467C128.639 56.7578 128.342 56.7862 128.055 56.7284C127.768 56.6706 127.505 56.5291 127.299 56.3218C127.092 56.1145 126.952 55.8508 126.895 55.5638C126.839 55.2768 126.868 54.9794 126.98 54.7093C127.093 54.4392 127.282 54.2083 127.526 54.0459C127.769 53.8835 128.055 53.7969 128.348 53.7969C128.542 53.7969 128.735 53.8354 128.915 53.9102C129.095 53.9849 129.259 54.0945 129.397 54.2327C129.534 54.3708 129.643 54.5347 129.717 54.715C129.791 54.8954 129.829 55.0885 129.828 55.2835Z" fill="#F5F5F5"/>
<path d="M280.541 71.1011C280.541 71.1011 274.67 68.6691 270.733 82.3406C266.795 96.0122 265.788 103.663 265.788 103.663C265.788 103.663 264.612 106.592 262.491 105.236C260.37 103.88 256.98 99.514 254.106 100.976C251.121 102.487 250.76 106.213 252.365 111.276C253.97 116.339 257.08 127.56 257.341 128.574C257.602 129.588 257.341 131.174 255.73 130.483C254.119 129.793 244.304 122.341 241.051 127.224C237.798 132.107 244.584 145.467 245.299 146.948C246.014 148.428 245.834 149.143 245.168 149.672C244.503 150.201 241.436 147.383 238.55 145.38C235.664 143.377 231.976 141.561 230.334 144.534C228.692 147.508 230.06 158.256 243.501 173.551L250.2 180.231L259.406 177.911C278.812 171.747 285.53 163.25 285.667 159.873C285.804 156.495 281.692 156.141 278.203 156.359C274.713 156.576 270.621 157.41 270.322 156.62C270.023 155.83 270.247 155.115 271.622 154.219C272.997 153.323 285.71 145.374 285.437 139.515C285.163 133.656 272.903 134.962 271.18 134.732C269.457 134.502 270.036 132.978 270.782 132.244C271.529 131.51 279.994 123.505 283.981 119.996C287.968 116.488 289.579 113.117 287.813 110.275C286.102 107.544 280.971 109.528 278.433 109.597C275.895 109.665 276.424 106.549 276.424 106.549C276.424 106.549 279.497 99.4767 283.185 85.7367C286.873 71.9967 280.398 71.0575 280.398 71.0575" fill="#EBEBEB"/>
<path d="M276.999 83.3481C276.999 83.3481 276.999 83.4477 276.937 83.6405C276.874 83.8333 276.812 84.1256 276.725 84.4864C276.526 85.2515 276.246 86.3524 275.879 87.7457C275.145 90.5758 274.051 94.6623 272.676 99.7005C269.927 109.783 266.021 123.685 261.648 139.017C257.275 154.349 253.332 168.251 250.533 178.309L247.23 190.233C246.838 191.632 246.533 192.721 246.328 193.473C246.222 193.834 246.141 194.095 246.085 194.319L245.992 194.599C245.992 194.599 245.992 194.5 246.048 194.307C246.104 194.114 246.173 193.822 246.26 193.461C246.459 192.702 246.745 191.595 247.106 190.202C247.84 187.371 248.94 183.291 250.315 178.247C253.058 168.164 256.97 154.269 261.337 138.93C265.703 123.592 269.653 109.696 272.452 99.6383L275.761 87.7021C276.147 86.3026 276.452 85.2141 276.663 84.4615C276.763 84.1008 276.843 83.8209 276.906 83.6218C276.962 83.4352 276.999 83.3481 276.999 83.3481Z" fill="#E0E0E0"/>
<path d="M258.629 107.264C258.774 107.442 258.896 107.639 258.99 107.849C259.207 108.234 259.5 108.794 259.86 109.497C260.57 110.897 261.496 112.862 262.485 115.045L264.973 120.643L265.738 122.341C265.85 122.536 265.934 122.745 265.987 122.963C265.848 122.783 265.727 122.589 265.626 122.385C265.409 121.999 265.116 121.433 264.768 120.73C264.071 119.319 263.163 117.347 262.181 115.132L259.649 109.534C259.344 108.869 259.083 108.29 258.871 107.843C258.771 107.659 258.69 107.465 258.629 107.264Z" fill="#E0E0E0"/>
<path d="M266.852 122.976C266.808 122.895 270.771 120.799 275.691 118.292C280.611 115.785 284.635 113.814 284.678 113.894C284.722 113.975 280.76 116.071 275.84 118.578C270.92 121.085 266.889 123.057 266.852 122.976Z" fill="#E0E0E0"/>
<path d="M259.078 146.22C259.297 146.138 259.524 146.082 259.756 146.052L261.622 145.697C263.19 145.393 265.354 144.963 267.736 144.41C270.119 143.856 272.258 143.284 273.801 142.861L275.63 142.357C275.852 142.285 276.081 142.235 276.314 142.208C276.119 142.324 275.91 142.414 275.692 142.475C275.269 142.631 274.653 142.836 273.888 143.097C272.358 143.583 270.224 144.186 267.836 144.74C265.447 145.293 263.27 145.691 261.684 145.94C260.888 146.058 260.247 146.145 259.818 146.195C259.574 146.238 259.325 146.246 259.078 146.22Z" fill="#E0E0E0"/>
<path d="M248.492 133.655C248.663 133.788 248.819 133.938 248.959 134.103C249.245 134.402 249.649 134.843 250.147 135.397C251.136 136.498 252.485 138.034 253.966 139.751C255.446 141.468 256.771 143.023 257.698 144.161C258.17 144.733 258.55 145.2 258.805 145.523C258.954 145.681 259.079 145.859 259.178 146.052C259.006 145.921 258.849 145.771 258.712 145.604C258.426 145.305 258.021 144.864 257.524 144.31C256.535 143.209 255.179 141.673 253.705 139.956C252.23 138.239 250.899 136.684 249.973 135.546C249.5 134.974 249.12 134.514 248.865 134.184C248.714 134.029 248.588 133.85 248.492 133.655Z" fill="#E0E0E0"/>
<path d="M239.016 153.311C239.232 153.482 239.43 153.676 239.607 153.889L241.137 155.537C242.412 156.943 244.16 158.896 246.075 161.073C247.991 163.25 249.714 165.222 250.946 166.671L252.395 168.394C252.582 168.597 252.749 168.818 252.892 169.053C252.666 168.883 252.457 168.689 252.27 168.475L250.747 166.827C249.471 165.421 247.724 163.462 245.808 161.291C243.892 159.12 242.169 157.142 240.938 155.693L239.488 153.97C239.309 153.766 239.151 153.546 239.016 153.311Z" fill="#E0E0E0"/>
<path d="M252.664 168.562C252.943 168.459 253.23 168.38 253.522 168.326L255.867 167.791C257.845 167.337 260.582 166.696 263.58 165.925C266.578 165.153 269.271 164.363 271.225 163.791L273.532 163.113C273.811 163.014 274.098 162.942 274.391 162.896C274.13 163.037 273.854 163.149 273.569 163.231C273.035 163.424 272.257 163.692 271.293 164.009C269.359 164.631 266.665 165.458 263.661 166.242C260.657 167.026 257.908 167.635 255.911 168.033C254.916 168.232 254.107 168.382 253.541 168.469C253.253 168.53 252.959 168.561 252.664 168.562Z" fill="#E0E0E0"/>
<path d="M79.0574 48.2736C79.8895 47.8323 80.802 47.5636 81.7404 47.4834C82.6788 47.4032 83.6238 47.5133 84.5186 47.8071C86.307 48.4058 87.9346 49.4058 89.2769 50.7305C91.939 53.2185 93.6309 57.0314 94.651 60.527C90.7075 61.3916 86.565 59.1959 84.5373 57.9519C81.3277 55.9802 76.7249 50.4879 79.0574 48.2736Z" fill="#EBEBEB"/>
<path d="M101.543 61.2299C100.594 60.7803 99.7802 60.0879 99.1849 59.2228C98.5896 58.3577 98.2335 57.3506 98.1527 56.3036C98.0859 55.2533 98.2292 54.2002 98.5741 53.2059C98.9191 52.2116 99.4588 51.2961 100.162 50.5128C100.45 50.1145 100.822 49.7847 101.252 49.5471C101.682 49.3094 102.159 49.1698 102.65 49.1382C103.103 49.1776 103.537 49.3382 103.907 49.603C104.277 49.8678 104.569 50.2271 104.752 50.6434C105.111 51.4819 105.242 52.4003 105.132 53.3056C104.889 56.4156 104.087 59.3701 101.592 61.2299" fill="#EBEBEB"/>
<path d="M107.726 71.1443C107.726 71.1443 107.521 70.9764 107.197 70.6218C106.874 70.2673 106.407 69.751 105.86 69.0917C104.406 67.3773 103.188 65.4757 102.24 63.4377C101.272 61.3828 100.868 59.1071 101.07 56.8445C101.147 56.1636 101.302 55.4938 101.531 54.8479C101.606 54.6088 101.712 54.3808 101.848 54.1699C101.588 55.0501 101.405 55.9512 101.301 56.8632C101.171 59.0793 101.599 61.2924 102.545 63.3009C103.486 65.316 104.663 67.2119 106.053 68.9486L107.297 70.541C107.462 70.7255 107.606 70.9278 107.726 71.1443Z" fill="#E0E0E0"/>
<path d="M82.9339 52.1548C83.0329 52.1957 83.1268 52.2479 83.2138 52.3103L83.9851 52.8079C84.6506 53.2433 85.6023 53.8964 86.7717 54.7112C89.1042 56.3408 92.2826 58.6671 95.7222 61.3231C99.1619 63.979 102.228 66.4546 104.43 68.2646L107.018 70.4229L107.714 71.0449C107.799 71.109 107.874 71.1843 107.938 71.2688C107.842 71.2225 107.752 71.164 107.671 71.0947L106.937 70.5411L104.281 68.4201C102.048 66.6536 98.9629 64.2091 95.5294 61.5781C92.096 58.947 88.9362 56.6021 86.6348 54.8978L83.9105 52.9136L83.1765 52.3663C83.0086 52.2481 82.9277 52.1672 82.9339 52.1548Z" fill="#E0E0E0"/>
<path d="M100.21 66.9707C98.2587 65.9113 96.0835 65.3316 93.864 65.2797C91.6446 65.2278 89.4446 65.7051 87.4462 66.6722C86.4386 67.1698 85.3688 68.0219 85.4496 69.1602C85.5305 70.2984 86.6936 70.9764 87.8008 71.2998C90.0689 71.9408 92.4759 71.8959 94.7185 71.1709C96.9611 70.4459 98.9389 69.0731 100.403 67.2258" fill="#EBEBEB"/>
<path d="M90.4648 68.4511C90.6564 68.3054 90.8653 68.1842 91.0868 68.0903C91.333 67.9495 91.5911 67.8309 91.8581 67.7358C92.2058 67.5854 92.5632 67.4586 92.928 67.3563C93.3635 67.2159 93.8083 67.1057 94.259 67.0267C94.7751 66.9255 95.2963 66.8528 95.8203 66.809C97.0253 66.7348 98.2349 66.7911 99.4279 66.9769C100.616 67.1852 101.779 67.5166 102.899 67.9659C103.81 68.3357 104.684 68.7897 105.511 69.3219C105.832 69.5137 106.143 69.7212 106.444 69.9439C106.674 70.1065 106.895 70.2831 107.103 70.4726C107.297 70.6189 107.472 70.7881 107.626 70.9764C107.589 71.0324 106.811 70.3544 105.393 69.4898C103.544 68.4012 101.512 67.6592 99.3968 67.3004C98.2308 67.1161 97.0491 67.0515 95.87 67.1075C95.3552 67.1418 94.8424 67.202 94.3337 67.2879C93.8887 67.3563 93.4483 67.4518 93.015 67.574C91.3978 68.0094 90.4897 68.5195 90.4648 68.4511Z" fill="#E0E0E0"/>
<path d="M279.155 282.942C279.155 283.035 224.133 283.103 156.273 283.103C88.4126 283.103 33.3594 283.01 33.3594 282.942C33.3594 282.873 88.369 282.78 156.248 282.78C224.127 282.78 279.155 282.854 279.155 282.942Z" fill="#263238"/>
<path d="M62.6497 95.4333C62.6497 95.4333 62.743 95.5453 62.8985 95.7692L63.5765 96.7457L66.1391 100.478C66.1461 100.485 66.1516 100.493 66.1554 100.502C66.1591 100.511 66.1611 100.521 66.1611 100.531C66.1611 100.54 66.1591 100.55 66.1554 100.559C66.1516 100.568 66.1461 100.577 66.1391 100.583C66.125 100.588 66.1097 100.588 66.0956 100.583H58.9115C58.8878 100.584 58.865 100.575 58.8476 100.558C58.8303 100.542 58.8198 100.52 58.8182 100.496C58.8119 100.48 58.8119 100.463 58.8182 100.447L58.9799 100.583C57.041 102.343 54.6865 103.58 52.1379 104.179C50.6899 104.518 49.1991 104.638 47.7155 104.533C46.1221 104.453 44.5525 104.113 43.0692 103.526C41.4905 102.914 40.0204 102.053 38.7151 100.975C37.3647 99.8501 36.2198 98.4989 35.3315 96.9821C33.4708 93.8285 32.7926 90.1158 33.4183 86.508C34.0439 82.9002 35.9324 79.6326 38.7463 77.2896C41.1489 75.2985 44.0959 74.0779 47.2028 73.7872C50.3096 73.4965 53.432 74.1491 56.1623 75.6599C58.408 76.9255 60.3039 78.7295 61.6794 80.9096C62.8076 82.705 63.5511 84.715 63.8626 86.8124C63.8999 87.0425 63.931 87.2665 63.9621 87.4904C63.9932 87.7143 63.9621 87.9382 64.0057 88.1497C64.0057 88.5851 64.0554 89.0018 64.043 89.3937C64.0299 90.1212 63.9634 90.8467 63.844 91.5645C63.6809 92.5572 63.4162 93.5306 63.054 94.4692C62.9296 94.7864 62.8239 95.0352 62.7492 95.1845C62.7153 95.269 62.6737 95.3503 62.6248 95.4271C62.6489 95.3417 62.6801 95.2585 62.7181 95.1783C62.7803 95.0104 62.8799 94.7678 62.9918 94.4443C63.3233 93.5027 63.567 92.5324 63.7196 91.5458C63.8274 90.8334 63.8835 90.1142 63.8875 89.3937C63.8875 88.9956 63.8502 88.5851 63.8377 88.1497C63.8377 87.9382 63.8377 87.7205 63.788 87.4966L63.6822 86.8248C63.2673 84.1672 62.1546 81.6672 60.4578 79.5801C58.7609 77.493 56.5407 75.8935 54.0237 74.9448C51.5066 73.9962 48.783 73.7324 46.1307 74.1804C43.4784 74.6284 40.9924 75.7721 38.9266 77.4948C36.281 79.735 34.4704 82.8038 33.7889 86.2028C33.0835 89.8288 33.7225 93.5876 35.5865 96.7768C36.4629 98.2912 37.5975 99.6406 38.9391 100.764C40.2147 101.813 41.6486 102.652 43.1873 103.252C44.6481 103.847 46.1968 104.198 47.7715 104.291C49.2311 104.398 50.6986 104.287 52.1255 103.961C54.6412 103.385 56.9697 102.18 58.8928 100.459C58.9022 100.448 58.9137 100.44 58.9265 100.434C58.9394 100.428 58.9534 100.425 58.9675 100.425C58.9816 100.425 58.9955 100.428 59.0084 100.434C59.0213 100.44 59.0328 100.448 59.0421 100.459C59.0574 100.476 59.0659 100.498 59.0659 100.521C59.0659 100.544 59.0574 100.566 59.0421 100.583L58.8804 100.44C58.9874 100.409 59.0986 100.394 59.2101 100.397H60.9765H62.8425L66.0956 100.434L66.0334 100.552C64.9511 98.9041 64.1052 97.6228 63.5454 96.7333L62.9234 95.7381C62.6995 95.5453 62.6497 95.4333 62.6497 95.4333Z" fill="#263238"/>
<path d="M49.8405 88.1248C50.4323 87.8634 50.9346 87.4341 51.285 86.8902C51.6355 86.3463 51.8188 85.7116 51.8122 85.0646C51.8122 84.2398 51.4846 83.4487 50.9013 82.8655C50.3181 82.2823 49.5271 81.9546 48.7022 81.9546C47.8774 81.9546 47.0864 82.2823 46.5031 82.8655C45.9199 83.4487 45.5922 84.2398 45.5922 85.0646C45.5763 85.7207 45.7559 86.3667 46.1081 86.9205C46.4603 87.4743 46.9693 87.9108 47.5702 88.1746C42.7994 88.8899 43.0171 94.0712 43.0171 94.0712L54.294 94.1271C54.294 94.1271 54.5677 88.8339 49.8405 88.1248Z" fill="#2581A2"/>
<path d="M252.766 32.4058H105.414V234.935H252.766V32.4058Z" fill="#FAFAFA"/>
<path d="M227.99 135.409H164.77V145.933H227.99V135.409Z" fill="#EBEBEB"/>
<path d="M170.972 143.197C170.574 143.197 170.184 143.078 169.853 142.857C169.521 142.635 169.263 142.321 169.11 141.953C168.958 141.584 168.918 141.179 168.996 140.788C169.074 140.397 169.265 140.038 169.547 139.756C169.829 139.474 170.188 139.283 170.579 139.205C170.97 139.127 171.375 139.167 171.744 139.319C172.112 139.472 172.427 139.73 172.648 140.062C172.869 140.393 172.988 140.783 172.988 141.181C172.988 141.716 172.775 142.228 172.397 142.606C172.019 142.984 171.507 143.197 170.972 143.197ZM170.972 139.322C170.603 139.322 170.242 139.431 169.936 139.636C169.629 139.841 169.39 140.132 169.248 140.473C169.107 140.814 169.07 141.19 169.142 141.552C169.214 141.914 169.392 142.246 169.653 142.507C169.914 142.768 170.246 142.946 170.608 143.018C170.97 143.09 171.345 143.053 171.686 142.911C172.027 142.77 172.319 142.531 172.524 142.224C172.729 141.917 172.838 141.557 172.838 141.188C172.837 140.694 172.639 140.221 172.29 139.872C171.94 139.523 171.466 139.328 170.972 139.328V139.322Z" fill="#263238"/>
<path d="M214.68 141.356C214.68 141.443 206.283 141.517 195.927 141.517C185.57 141.517 177.148 141.443 177.148 141.356C177.148 141.268 185.545 141.194 195.908 141.194C206.27 141.194 214.68 141.262 214.68 141.356Z" fill="#263238"/>
<path d="M252.766 50.0645H105.414V87.8136H252.766V50.0645Z" fill="#263238"/>
<path d="M252.766 32.4058H105.414V43.4152H252.766V32.4058Z" fill="#455A64"/>
<path d="M110.617 39.3914C111.435 39.3914 112.097 38.7286 112.097 37.911C112.097 37.0934 111.435 36.4307 110.617 36.4307C109.799 36.4307 109.137 37.0934 109.137 37.911C109.137 38.7286 109.799 39.3914 110.617 39.3914Z" fill="#263238"/>
<path d="M123.191 37.5936C123.191 37.8864 123.104 38.1726 122.942 38.4161C122.779 38.6595 122.548 38.8493 122.277 38.9613C122.007 39.0734 121.709 39.1027 121.422 39.0456C121.135 38.9884 120.871 38.8474 120.664 38.6404C120.457 38.4334 120.316 38.1696 120.259 37.8824C120.202 37.5953 120.231 37.2976 120.343 37.0271C120.455 36.7566 120.645 36.5254 120.888 36.3628C121.132 36.2001 121.418 36.1133 121.711 36.1133C122.103 36.1149 122.479 36.2714 122.756 36.5487C123.033 36.8259 123.19 37.2015 123.191 37.5936Z" fill="#263238"/>
<path d="M117.918 37.5936C117.918 37.8864 117.831 38.1726 117.668 38.4161C117.506 38.6595 117.274 38.8493 117.004 38.9613C116.733 39.0734 116.436 39.1027 116.149 39.0456C115.861 38.9884 115.598 38.8474 115.391 38.6404C115.184 38.4334 115.043 38.1696 114.985 37.8824C114.928 37.5953 114.958 37.2976 115.07 37.0271C115.182 36.7566 115.372 36.5254 115.615 36.3628C115.858 36.2001 116.145 36.1133 116.437 36.1133C116.83 36.1149 117.205 36.2714 117.482 36.5487C117.76 36.8259 117.916 37.2015 117.918 37.5936Z" fill="#263238"/>
<path d="M252.766 43.4155H105.414V50.0647H252.766V43.4155Z" fill="#E0E0E0"/>
<path d="M156.057 112.719C156.057 112.806 151.125 112.881 145.041 112.881C138.958 112.881 134.02 112.806 134.02 112.719C134.02 112.632 138.952 112.557 145.041 112.557C151.131 112.557 156.057 112.626 156.057 112.719Z" fill="#263238"/>
<path d="M156.057 117.888C156.057 117.981 151.125 118.056 145.041 118.056C138.958 118.056 134.02 117.981 134.02 117.888C134.02 117.794 138.952 117.726 145.041 117.726C151.131 117.726 156.057 117.801 156.057 117.888Z" fill="#263238"/>
<path d="M146.522 122.167C144.453 122.33 142.377 122.384 140.302 122.329C138.217 122.385 136.13 122.331 134.051 122.167C136.13 122.007 138.217 121.953 140.302 122.005C142.377 121.954 144.453 122.008 146.522 122.167Z" fill="#263238"/>
<path d="M228.274 94.3447H165.402V110.921H228.274V94.3447Z" fill="#EBEBEB"/>
<path d="M174.239 118.895C174.24 119.543 174.049 120.176 173.69 120.715C173.331 121.254 172.82 121.675 172.222 121.923C171.624 122.171 170.966 122.237 170.33 122.111C169.695 121.985 169.112 121.673 168.654 121.215C168.196 120.757 167.884 120.174 167.758 119.538C167.632 118.903 167.697 118.245 167.946 117.647C168.194 117.049 168.614 116.538 169.153 116.179C169.692 115.82 170.326 115.629 170.973 115.63C171.839 115.63 172.67 115.974 173.282 116.586C173.895 117.199 174.239 118.029 174.239 118.895Z" fill="#E0E0E0"/>
<path d="M227.991 116.55C227.991 116.637 217.461 116.712 204.473 116.712C191.486 116.712 180.949 116.637 180.949 116.55C180.949 116.463 191.48 116.388 204.473 116.388C217.467 116.388 227.991 116.457 227.991 116.55Z" fill="#263238"/>
<path d="M205.338 121.215C205.338 121.308 199.877 121.377 193.147 121.377C186.417 121.377 180.949 121.308 180.949 121.215C180.949 121.122 186.41 121.053 193.147 121.053C199.883 121.053 205.338 121.128 205.338 121.215Z" fill="#263238"/>
<path d="M227.991 126.508H215.477V128.231H227.991V126.508Z" fill="#2581A2"/>
<path d="M227.991 166.609H215.477V168.332H227.991V166.609Z" fill="#2581A2"/>
<path d="M215.476 151.195C215.476 151.289 204.523 151.357 191.007 151.357C177.491 151.357 166.531 151.289 166.531 151.195C166.531 151.102 177.491 151.034 191.007 151.034C204.523 151.034 215.476 151.108 215.476 151.195Z" fill="#263238"/>
<path d="M215.476 155.394C215.476 155.487 204.523 155.556 191.007 155.556C177.491 155.556 166.531 155.487 166.531 155.394C166.531 155.301 177.491 155.232 191.007 155.232C204.523 155.232 215.476 155.307 215.476 155.394Z" fill="#263238"/>
<path d="M215.476 159.593C215.476 159.686 204.523 159.755 191.007 159.755C177.491 159.755 166.531 159.686 166.531 159.593C166.531 159.5 177.491 159.431 191.007 159.431C204.523 159.431 215.476 159.506 215.476 159.593Z" fill="#263238"/>
<path d="M182.262 167.156C182.262 167.243 178.847 167.318 174.63 167.318C170.412 167.318 167.004 167.243 167.004 167.156C167.004 167.069 170.419 166.988 174.63 166.988C178.841 166.988 182.262 167.063 182.262 167.156Z" fill="#263238"/>
<path d="M227.99 177.749H164.77V215.604H227.99V177.749Z" fill="#455A64"/>
<path d="M164.77 215.604L191.005 198.436L199.042 204.159L215.475 193.149L227.99 202.834V215.604H164.77Z" fill="#263238"/>
<path d="M200.861 195.246C203.335 195.246 205.34 193.241 205.34 190.767C205.34 188.294 203.335 186.289 200.861 186.289C198.388 186.289 196.383 188.294 196.383 190.767C196.383 193.241 198.388 195.246 200.861 195.246Z" fill="#263238"/>
<path d="M139.294 131.764H132.707V138.351H139.294V131.764Z" fill="#E0E0E0"/>
<path d="M147.31 131.764H140.723V138.351H147.31V131.764Z" fill="#EBEBEB"/>
<path d="M155.384 131.764H148.797V138.351H155.384V131.764Z" fill="#EBEBEB"/>
<path d="M139.294 139.633H132.707V146.22H139.294V139.633Z" fill="#EBEBEB"/>
<path d="M147.31 139.633H140.723V146.22H147.31V139.633Z" fill="#F5F5F5"/>
<path d="M155.384 139.633H148.797V146.22H155.384V139.633Z" fill="#E0E0E0"/>
<path d="M139.294 147.507H132.707V154.094H139.294V147.507Z" fill="#E0E0E0"/>
<path d="M147.31 147.507H140.723V154.094H147.31V147.507Z" fill="#EBEBEB"/>
<path d="M155.384 147.507H148.797V154.094H155.384V147.507Z" fill="#E0E0E0"/>
<path d="M252.621 32.4061L252.764 32.5554H105.431L105.599 32.3937C105.599 108.085 105.599 178.153 105.568 234.923L105.431 234.792L252.783 234.923L105.431 235.06H105.301V234.923C105.301 178.153 105.301 108.085 105.27 32.3937V32.2319H105.45H252.783H252.932V32.375C252.845 152.185 252.789 233.611 252.783 234.904" fill="#263238"/>
<path d="M56.7836 238.319H34.9141V245.28H56.7836V238.319Z" fill="#EBEBEB"/>
<path d="M183.475 127.131H161.605V134.091H183.475V127.131Z" fill="#EBEBEB"/>
<path d="M44.5869 254.056L33.7268 254.236L28.2345 254.311H22.7174H22.4375V254.025V247.064V246.753H22.7485L33.6833 246.797L39.1506 246.847L44.618 246.915H44.7673V247.064L44.5869 254.056ZM44.5869 254.056L44.4376 247.096L44.5869 247.245L39.1195 247.313L33.6522 247.363L22.7174 247.407L23.0284 247.096V254.056L22.7423 253.77L28.1599 253.801L33.6024 253.875L44.5869 254.056Z" fill="#EBEBEB"/>
<path d="M161.014 194.276L150.129 194.443L144.637 194.518H139.12H138.84V194.232V187.272V186.979H139.151L150.086 187.023L155.553 187.073L161.02 187.141H161.17V187.29L161.014 194.276ZM161.014 194.276L160.865 187.315L161.014 187.465L155.547 187.527L150.079 187.583L139.145 187.626L139.456 187.315V194.276L139.17 193.989H144.587L150.03 194.07L161.014 194.276Z" fill="#EBEBEB"/>
<path d="M148.817 203.052L137.957 203.232L132.465 203.307H126.948H126.668V203.021L126.637 196.061V195.75H126.948L137.882 195.793L143.35 195.843L148.817 195.911H148.967V196.061L148.817 203.052ZM148.817 203.052L148.668 196.092L148.817 196.241L143.35 196.303L137.882 196.359L126.948 196.403L127.259 196.092V203.052L126.973 202.766H132.39L137.833 202.847L148.817 203.052Z" fill="#EBEBEB"/>
<path d="M136.67 187.315H114.801V194.276H136.67V187.315Z" fill="#EBEBEB"/>
<path d="M273.807 247.096H251.938V254.056H273.807V247.096Z" fill="#EBEBEB"/>
<path d="M261.608 24.5938H239.738V31.5539H261.608V24.5938Z" fill="#EBEBEB"/>
<path d="M273.806 40.3302L262.945 40.5168L257.453 40.5915H251.936H251.656V40.3054L251.625 33.3452V33.0342H251.936L262.871 33.0777L268.338 33.1337L273.806 33.2021H273.955V33.3452L273.806 40.3302ZM273.806 40.3302L273.656 33.3452L273.806 33.4945L268.338 33.5629L262.871 33.6126L251.936 33.6562L252.247 33.3452V40.3054L251.961 40.0255H257.378L262.821 40.1001L273.806 40.3302Z" fill="#EBEBEB"/>
<path d="M56.7822 31.5539L45.9221 31.7405L40.4299 31.8151H34.9127H34.6328V31.529V24.5688V24.2578H34.9438L45.8786 24.3014L51.346 24.3573L56.8133 24.4258H56.9626V24.5688L56.7822 31.5539ZM56.7822 31.5539L56.633 24.5937L56.7822 24.743L51.3149 24.8114L45.8475 24.8612L34.9127 24.9047L35.2237 24.5937V31.5539L34.9376 31.274H40.3552L45.7977 31.3486L56.7822 31.5539Z" fill="#EBEBEB"/>
<path d="M25.448 265.769H178.298L181.477 203.052H22.2695L25.448 265.769Z" fill="#EBEBEB"/>
<path d="M171.051 231.763H107.153L105.965 209.993H172.45L171.051 231.763ZM107.881 230.992H170.329L171.629 210.764H106.767L107.881 230.992Z" fill="#DBDBDB"/>
<path d="M169.872 256.805H109.656L108.68 237.156H171.104L169.872 256.805ZM110.39 256.022H169.151L170.283 237.915H109.488L110.39 256.022Z" fill="#DBDBDB"/>
<path d="M145.26 223.236H134.518L133.84 217.98H145.932L145.26 223.236ZM135.202 222.465H144.588L145.061 218.733H134.717L135.202 222.465Z" fill="#DBDBDB"/>
<path d="M145.26 249.608H134.518L133.84 244.353H145.932L145.26 249.608ZM135.202 248.837H144.588L145.061 245.105H134.717L135.202 248.837Z" fill="#DBDBDB"/>
<path d="M95.8876 231.763H31.9833L30.7891 209.993H97.2871L95.8876 231.763ZM32.7173 230.986H95.1661L96.4598 210.758H31.6039L32.7173 230.986Z" fill="#DBDBDB"/>
<path d="M94.708 256.805H34.4922L33.5156 237.156H95.9395L94.708 256.805ZM35.2261 256.022H93.9865L95.1185 237.915H34.3242L35.2261 256.022Z" fill="#DBDBDB"/>
<path d="M70.0904 223.236H59.3546L58.6953 217.98H70.787L70.0904 223.236ZM60.0326 222.465H69.4124L69.8913 218.733H59.5537L60.0326 222.465Z" fill="#DBDBDB"/>
<path d="M70.0904 249.608H59.3546L58.6953 244.353H70.787L70.0904 249.608ZM60.0326 248.837H69.4124L69.8913 245.105H59.5537L60.0326 248.837Z" fill="#DBDBDB"/>
<path d="M39.1577 265.769L38.1998 272.598L36.2654 286.326H32.4961V265.769H39.1577Z" fill="#EBEBEB"/>
<path d="M39.1577 265.769L38.1998 272.598H32.4961V265.769H39.1577Z" fill="#DBDBDB"/>
<path d="M164.59 265.769L165.548 272.598L167.482 286.326H171.251V265.769H164.59Z" fill="#EBEBEB"/>
<path d="M164.59 265.769L165.548 272.598H171.251V265.769H164.59Z" fill="#DBDBDB"/>
<path d="M260.497 285.069C258.544 285.821 201.761 286.854 199.541 285.585C199.298 285.442 199.366 282.935 198.533 276.454C198.489 276.143 197.196 274.943 195.174 273.245C187.58 266.881 169.734 253.465 169.734 253.465L198.073 228.846L225.528 255.835L232.675 262.863C232.675 262.863 255.869 275.39 258.177 277.045C260.484 278.699 262.456 284.316 260.497 285.069Z" fill="#AD6359"/>
<path d="M260.495 285.069C258.542 285.828 201.759 286.854 199.539 285.585C199.303 285.442 199.371 282.935 198.531 276.454C198.488 276.143 197.194 274.943 195.166 273.245C192.529 271.03 191.272 270.023 187.348 266.962L223.368 253.714L225.532 255.841L232.667 262.863C232.667 262.863 255.867 275.384 258.169 277.045C260.47 278.706 262.454 284.316 260.495 285.069Z" fill="#EBEBEB"/>
<path d="M264.407 285.877C262.435 286.561 201.94 287.227 199.763 285.877C199.253 285.566 198.78 282.052 198.407 277.238C198.357 276.616 192.23 271.733 191.391 270.831L228.462 258.341L233.145 262.745C233.145 262.745 260.426 275.44 262.659 277.169C264.892 278.898 266.379 285.168 264.407 285.877Z" fill="#2581A2"/>
<path d="M263.569 283.595C254.065 283.47 211.906 283.875 202.501 284.478C202.427 284.478 202.427 284.534 202.501 284.54C211.918 284.864 254.078 284.148 263.575 283.75C263.775 283.744 263.775 283.601 263.569 283.595Z" fill="#263238"/>
<path d="M236.168 263.131C232.436 262.478 227.852 263.1 225.028 265.799C224.922 265.905 225.072 266.061 225.19 266.017C228.75 264.822 232.429 264.012 236.162 263.604C236.216 263.592 236.264 263.563 236.298 263.52C236.333 263.478 236.352 263.425 236.353 263.37C236.354 263.315 236.336 263.261 236.302 263.218C236.269 263.175 236.222 263.144 236.168 263.131Z" fill="#263238"/>
<path d="M238.886 264.729C235.154 264.076 230.57 264.729 227.746 267.398C227.634 267.504 227.789 267.659 227.907 267.622C231.465 266.425 235.142 265.614 238.873 265.202C238.936 265.204 238.997 265.181 239.042 265.137C239.088 265.094 239.114 265.035 239.116 264.972C239.117 264.909 239.094 264.849 239.051 264.803C239.008 264.758 238.948 264.731 238.886 264.729Z" fill="#263238"/>
<path d="M241.604 266.321C237.872 265.662 233.288 266.29 230.464 268.99C230.352 269.096 230.508 269.245 230.626 269.208C234.184 268.013 237.861 267.204 241.592 266.794C241.655 266.796 241.715 266.773 241.761 266.729C241.806 266.686 241.833 266.627 241.835 266.564C241.836 266.501 241.813 266.441 241.77 266.395C241.727 266.35 241.667 266.323 241.604 266.321Z" fill="#263238"/>
<path d="M244.319 267.914C240.587 267.261 236.003 267.914 233.179 270.582C233.067 270.688 233.223 270.844 233.341 270.806C236.899 269.609 240.575 268.798 244.307 268.387C244.37 268.388 244.43 268.365 244.476 268.322C244.521 268.279 244.548 268.219 244.549 268.157C244.551 268.094 244.528 268.033 244.485 267.988C244.441 267.942 244.382 267.916 244.319 267.914Z" fill="#263238"/>
<path d="M242.974 254.404C241.481 252.395 238.757 253.335 237.208 254.666C234.6 256.998 232.65 259.976 231.554 263.299C231.548 263.314 231.546 263.33 231.547 263.345C231.549 263.361 231.554 263.376 231.562 263.39C231.571 263.403 231.583 263.414 231.596 263.422C231.61 263.43 231.625 263.435 231.641 263.436C231.64 263.509 231.655 263.581 231.686 263.646C231.717 263.712 231.764 263.77 231.821 263.815C231.878 263.859 231.945 263.89 232.017 263.904C232.088 263.918 232.162 263.916 232.232 263.896C235.305 262.714 238.738 261.831 241.363 259.747C242.893 258.51 244.386 256.301 242.974 254.404ZM236.53 261.153C235.031 261.775 233.513 262.31 232.039 262.982C233.091 261.266 234.231 259.605 235.454 258.006C236.057 257.242 236.71 256.519 237.407 255.841C238.508 254.815 242.887 252.613 242.277 256.718C241.942 258.995 238.315 260.419 236.53 261.153Z" fill="#263238"/>
<path d="M222.037 262.434C225.147 263.709 228.674 263.604 231.958 263.883C232.3 263.915 232.462 263.554 232.4 263.261C232.414 263.256 232.427 263.248 232.438 263.237C232.448 263.227 232.456 263.213 232.461 263.199C232.466 263.185 232.467 263.169 232.465 263.154C232.463 263.139 232.458 263.125 232.449 263.112C230.472 260.222 227.769 257.903 224.612 256.388C222.746 255.542 219.879 255.393 219.014 257.732C218.174 259.965 220.227 261.688 222.037 262.434ZM220.32 259.791C218.591 256.009 223.43 256.911 224.749 257.589C225.611 258.045 226.443 258.558 227.237 259.125C228.853 260.321 230.408 261.598 231.896 262.95C230.297 262.714 228.686 262.621 227.075 262.44C225.153 262.241 221.272 261.868 220.32 259.791Z" fill="#263238"/>
<path d="M225.915 254.329L190.89 272.479C190.89 272.479 154.403 239.451 151.082 239.209C147.835 238.972 98.6473 272.268 73.9539 272.374C48.3586 272.479 47.0586 245.665 47.0586 245.665L84.3786 237.088C111.299 223.82 139.332 199.998 157.669 202.218C177.567 204.632 225.915 254.329 225.915 254.329Z" fill="#263238"/>
<path d="M217.365 249.708C211.45 252.631 213.111 251.711 207.227 254.684C204.353 256.146 189.867 263.454 187.41 265.258C187.354 265.295 187.41 265.395 187.466 265.37C190.364 264.4 204.683 256.78 207.532 255.269C213.36 252.159 211.655 253.005 217.446 249.851C217.462 249.851 217.478 249.846 217.492 249.838C217.506 249.83 217.517 249.818 217.525 249.804C217.533 249.79 217.538 249.774 217.538 249.758C217.538 249.742 217.534 249.726 217.526 249.712C217.518 249.698 217.506 249.686 217.492 249.678C217.478 249.67 217.463 249.665 217.447 249.665C217.43 249.664 217.414 249.668 217.4 249.676C217.386 249.683 217.374 249.694 217.365 249.708Z" fill="#37474F"/>
<path d="M184.689 264.108C177.847 258.068 155.405 238.413 154.497 237.685C153.79 237.009 153.005 236.421 152.158 235.931C151.809 235.793 151.433 235.737 151.059 235.767C150.684 235.797 150.322 235.913 150 236.105C148.961 236.59 147.947 237.119 146.89 237.623L140.819 240.584C132.976 244.415 125.17 248.346 117.264 252.047C109.657 255.611 104.202 258.964 96.2901 261.7C88.3961 264.489 80.2295 266.437 71.9264 267.51C70.9001 267.634 69.8738 267.746 68.8475 267.84C68.835 267.844 68.8242 267.852 68.8165 267.862C68.8088 267.873 68.8047 267.886 68.8047 267.899C68.8047 267.912 68.8088 267.925 68.8165 267.935C68.8242 267.946 68.835 267.954 68.8475 267.958C77.0056 267.473 85.0711 265.97 92.8567 263.486C100.725 261.066 106.062 257.925 113.538 254.485C121.282 250.921 128.914 247.108 136.552 243.289C140.583 241.286 144.638 239.265 148.644 237.287C149.564 236.839 150.864 235.869 151.916 236.348C152.355 236.59 152.761 236.889 153.122 237.237L154.466 238.357C156.201 239.8 183.7 263.486 184.602 264.17C184.664 264.263 184.757 264.17 184.689 264.108Z" fill="#37474F"/>
<path d="M47.0245 245.665C47.0245 245.665 43.2925 272.958 55.8133 281.928C68.3342 290.897 156.901 285.84 170.156 280.901C183.41 275.963 182.869 254.249 167.947 249.87C153.753 245.702 94.1721 246.007 92.6855 245.485C92.3123 245.354 97.8046 241.722 97.7672 241.516L84.0459 237.983L47.0245 245.665Z" fill="#263238"/>
<path d="M64.7428 247.158C64.7428 247.058 64.5624 247.095 64.5687 247.195C64.6845 250.011 63.8035 252.777 62.0807 255.007C60.1276 257.495 57.1544 258.938 54.4612 260.45C54.2061 260.599 54.4238 261.003 54.6913 260.91C56.3579 260.315 57.9553 259.541 59.4558 258.602C60.8361 257.787 62.0343 256.697 62.9763 255.399C63.8266 254.223 64.4227 252.883 64.7268 251.464C65.0309 250.045 65.0364 248.579 64.7428 247.158Z" fill="#37474F"/>
<path d="M91.5905 242.959C90.9685 242.2 90.2408 241.485 89.5628 240.751C87.9705 239.016 86.3719 237.274 84.705 235.601C84.5495 235.446 84.2633 235.688 84.4126 235.868C85.5384 237.218 86.7327 238.518 87.9082 239.831C88.5054 240.507 89.1087 241.178 89.7183 241.846C90.3465 242.445 90.9152 243.103 91.4163 243.811C91.8642 244.57 91.3479 245.254 90.5455 245.379C89.8352 245.428 89.1328 245.206 88.58 244.757C87.2862 243.849 86.2413 242.518 85.1466 241.392C84.4748 240.699 83.801 240.013 83.1251 239.333C82.4035 238.611 81.6385 237.927 80.917 237.206C80.8734 237.162 80.7926 237.206 80.8299 237.287C81.4519 238.083 82.0739 238.916 82.6959 239.712C83.3179 240.509 83.9772 241.299 84.6303 242.082C85.2834 242.866 85.8743 243.55 86.5523 244.253C87.1005 244.881 87.7502 245.413 88.4743 245.827C89.6498 246.449 91.6589 246.511 92.2063 244.999C92.2968 244.635 92.2873 244.254 92.1789 243.895C92.0705 243.536 91.8672 243.212 91.5905 242.959Z" fill="#37474F"/>
<path d="M168.312 281.057C163.691 281.349 159.076 281.822 154.448 282.127C149.82 282.431 145.267 282.655 140.671 282.817C131.44 283.132 122.208 283.18 112.973 282.96C103.643 282.73 93.573 282.245 84.2741 281.374C79.8268 280.957 75.3235 280.646 70.9135 279.9C66.9522 279.328 63.2376 277.634 60.2089 275.017C53.9889 269.475 51.2645 261.047 49.9521 252.936C49.7717 251.848 49.6224 250.759 49.4856 249.665C49.4856 249.59 49.3612 249.596 49.3674 249.665C50.2818 257.999 51.9612 266.658 57.5156 273.145C59.8653 275.977 62.9205 278.14 66.3729 279.415C70.5838 280.889 75.1991 281.076 79.5904 281.48C88.9204 282.326 99.0341 282.854 108.401 283.165C117.769 283.476 127.248 283.514 136.671 283.24C146.095 282.966 155.505 282.413 164.891 281.536C166.036 281.43 167.18 281.312 168.325 281.156C168.387 281.156 168.381 281.057 168.312 281.057Z" fill="#37474F"/>
<path d="M137.556 246.785C134.621 246.486 131.697 246.2 128.755 246.026C125.813 245.852 122.803 245.715 119.829 245.591C113.945 245.354 108.049 245.168 102.158 245.149C98.8121 245.149 95.472 245.273 92.1318 245.466C92.0199 245.466 92.0385 245.622 92.1318 245.628C98.0284 245.902 103.95 246.014 109.834 246.144C115.718 246.275 121.615 246.53 127.499 246.828C130.839 247.002 134.173 247.096 137.513 247.22C137.774 247.233 137.805 246.81 137.556 246.785Z" fill="#37474F"/>
<path d="M98.4402 241.187C96.1415 242.303 93.9403 243.61 91.8594 245.093C89.7335 246.498 87.709 248.05 85.8011 249.739C85.7514 249.789 85.8011 249.858 85.882 249.826C88.1212 248.67 90.236 247.245 92.3881 245.877C94.5483 244.542 96.6255 243.078 98.6081 241.492C98.7325 241.38 98.633 241.094 98.4402 241.187Z" fill="#37474F"/>
<path d="M75.4041 195.028C78.9308 210.578 86.2642 229.17 89.4053 232.199C93.3799 236.024 119.715 243.09 121.028 243.233C124.281 243.569 130.855 220.157 127.391 219.647C122.116 218.876 102.94 217.781 101.789 216.599C100.639 215.417 92.5277 205.136 84.2302 193.585C78.5016 185.593 73.2146 185.4 75.4041 195.028Z" fill="#AD6359"/>
<path d="M118.406 241.964C118.798 242.163 124.297 244.944 127.699 245.939C130.237 246.679 137.601 248.62 138.696 245.908C139.442 244.042 135.25 242.406 132.308 241.174C130.759 240.552 128.85 238.898 129.31 237.903C130.112 236.161 134.099 237.902 136.724 239.451C141.793 242.412 148.542 247.736 151.652 245.174C152.822 244.197 151.466 242.424 149.481 240.683C152.71 242.717 156.149 244.415 157.493 243.357C158.27 242.773 158.308 241.964 157.878 241.044C158.874 241.373 159.744 241.311 160.366 240.664C161.424 239.569 160.914 237.94 159.744 236.279C159.941 236.259 160.13 236.191 160.295 236.083C160.461 235.975 160.598 235.829 160.696 235.657C162.929 232.273 151.82 222.508 147.97 221.587C136.65 218.869 124.713 219.342 124.713 219.342C120.272 222.881 118.406 241.958 118.406 241.964Z" fill="#AD6359"/>
<path d="M135.097 231.577C137.797 232.002 140.376 232.998 142.66 234.5C145.528 236.403 147.425 238.63 149.832 240.869C149.894 240.925 149.832 241.025 149.745 240.969C148.594 239.899 143.848 235.9 142.623 234.985C140.403 233.31 137.832 232.16 135.103 231.62C135.06 231.614 135.072 231.571 135.097 231.577Z" fill="#263238"/>
<path d="M137.227 226.787C140.2 227.608 143.248 228.435 146.01 229.854C149.027 231.402 151.39 233.915 153.71 236.341C155.104 237.797 156.466 239.283 157.797 240.801C157.853 240.863 157.766 240.962 157.704 240.9C155.352 238.412 152.922 235.98 150.414 233.604C148.107 231.402 145.386 229.679 142.409 228.535C140.71 227.882 138.956 227.359 137.215 226.837L137.227 226.787Z" fill="#263238"/>
<path d="M140.41 222.576C143.302 223.198 145.828 223.69 148.384 225.251C151.768 227.31 155.033 230.774 156.184 231.999C157.428 233.362 158.672 234.755 159.866 236.173C159.91 236.229 159.817 236.316 159.761 236.26C157.019 233.154 154.079 230.228 150.959 227.502C149.493 226.181 147.831 225.094 146.033 224.28C144.218 223.562 142.345 222.998 140.435 222.595L140.41 222.576Z" fill="#263238"/>
<path d="M122.934 218.371L114.767 244.029C114.767 244.029 92.8414 237.709 88.8419 233.38C84.8425 229.051 77.4967 206.696 75.3445 195.874C73.1924 185.051 78.666 185.3 83.6793 192.142C88.6927 198.984 101.176 215.541 101.873 215.902C102.569 216.263 122.934 218.371 122.934 218.371Z" fill="#2581A2"/>
<path d="M106.095 216.53C105.572 216.829 105.05 217.152 104.521 217.42C101.868 219.001 99.0502 220.288 96.1178 221.258C94.6618 221.707 93.1593 221.989 91.6394 222.097C90.1134 222.176 88.5835 222.061 87.0864 221.755C85.5844 221.454 84.1047 221.051 82.6577 220.548L82.5644 220.293C84.0498 220.804 85.5691 221.209 87.1112 221.506C88.5944 221.79 90.1074 221.886 91.6145 221.792C93.1168 221.67 94.6004 221.378 96.0369 220.922C98.9449 219.932 101.739 218.635 104.372 217.053L105.435 216.431L106.095 216.53ZM95.5829 210.708C92.7923 209.327 89.8765 208.215 86.8749 207.387C85.3916 207.005 83.8659 206.813 82.3343 206.815C80.973 206.84 79.6181 207.007 78.2913 207.312C78.2913 207.424 78.3535 207.536 78.3908 207.648C79.6865 207.33 81.0129 207.153 82.3467 207.12C83.8595 207.1 85.3687 207.273 86.8376 207.636C89.8388 208.43 92.7554 209.515 95.5456 210.876C96.7149 211.411 97.8781 211.959 99.0474 212.506L98.8422 212.239L95.5829 210.708ZM118.031 217.855H117.452C115.937 217.82 114.426 217.659 112.937 217.376C112.682 217.333 112.433 217.283 112.184 217.221L110.542 217.04C111.326 217.252 112.122 217.438 112.918 217.594C114.414 217.894 115.933 218.069 117.459 218.116C118.292 218.116 119.126 218.116 119.947 218.054L118.031 217.855ZM110.685 233.841C107.664 234.326 104.67 234.97 101.716 235.769C99.6881 236.291 97.6604 236.839 95.6264 237.336L96.124 237.554C97.99 237.069 99.856 236.553 101.766 236.049C104.708 235.228 107.692 234.562 110.704 234.052C113.159 233.653 115.643 233.457 118.13 233.467V233.387C115.64 233.319 113.149 233.47 110.685 233.841ZM88.1251 198.175C86.2166 198.471 84.2902 198.637 82.3592 198.673C80.8528 198.703 79.3461 198.63 77.8497 198.455C77.1717 198.368 76.4937 198.25 75.8219 198.107C75.8219 198.194 75.8655 198.281 75.8841 198.368C76.5061 198.511 77.1717 198.629 77.8186 198.716C79.3246 198.904 80.8416 198.989 82.3592 198.971C84.3685 198.948 86.3739 198.788 88.3615 198.492L88.1251 198.175ZM85.9916 195.314C82.4504 194.462 78.7703 194.361 75.1875 195.015L75.2621 195.438C78.9468 194.755 82.7364 194.887 86.3648 195.824C86.2467 195.625 86.116 195.457 85.9916 195.289V195.314Z" fill="white"/>
<path d="M112.686 232.616C113.675 229.593 114.689 226.576 115.566 223.516C116.063 221.774 116.573 220.039 117.052 218.291C117.052 218.229 116.959 218.185 116.934 218.247C115.827 221.246 114.713 224.256 113.743 227.304C112.773 230.352 111.771 233.356 110.845 236.404C110.314 238.133 109.837 239.876 109.414 241.635C109.414 241.672 109.464 241.691 109.476 241.635C110.689 238.693 111.691 235.663 112.686 232.616Z" fill="#263238"/>
<path opacity="0.1" d="M106.961 241.585C100.244 239.346 91.2683 235.987 88.8487 233.381C84.8492 229.027 77.5034 206.697 75.3513 195.874C73.8461 188.286 76.079 186.152 79.2761 187.912C88.1023 204.563 100.368 229.07 106.961 241.585Z" fill="black"/>
<path d="M97.3816 243.152L45.2891 249.179C45.2891 248.109 55.6516 195.687 69.1054 187.552C71.6867 185.99 78.6407 186.93 79.5986 187.881C86.8884 194.953 98.0595 242.449 97.3816 243.152Z" fill="#2581A2"/>
<path d="M92.6109 222.004C92.2874 222.046 91.964 222.077 91.6405 222.098C90.1145 222.176 88.5846 222.062 87.0875 221.756C84.061 221.084 81.1071 220.12 78.2675 218.876C75.3815 217.7 72.5203 216.425 69.6031 215.38C67.8643 214.746 66.0933 214.204 64.2974 213.757L63.6194 213.601C62.6553 213.383 61.685 213.203 60.7085 213.072C59.2101 212.871 57.6979 212.79 56.1866 212.83C55.7076 212.83 55.2225 212.88 54.7435 212.929C54.7435 212.836 54.8119 212.743 54.843 212.643C55.2846 212.606 55.7325 212.581 56.1803 212.569C57.7013 212.537 59.2222 212.632 60.7271 212.855C61.7928 213.012 62.8502 213.22 63.8994 213.477L64.5214 213.645C66.2426 214.091 67.939 214.629 69.6031 215.256C72.514 216.325 75.3939 217.545 78.28 218.708C81.1158 219.926 84.0635 220.866 87.0813 221.513C88.5644 221.797 90.0774 221.893 91.5846 221.799C91.8873 221.799 92.1921 221.768 92.4989 221.706C92.5549 221.811 92.5798 221.899 92.6109 222.004ZM88.4621 207.835C87.9334 207.667 87.3985 207.518 86.8636 207.387C85.3803 207.006 83.8546 206.813 82.323 206.815C80.7991 206.851 79.2841 207.059 77.8073 207.437C74.8454 208.252 71.9817 209.389 69.2672 210.827C67.4758 211.723 65.7032 212.631 63.8994 213.47L63.6194 213.601C62.73 214.012 61.8343 214.403 60.9262 214.764C58.5376 215.751 56.0271 216.412 53.4622 216.73C53.4186 216.873 53.3689 217.016 53.3254 217.159C55.9729 216.857 58.5662 216.191 61.0319 215.181C62.1329 214.752 63.2089 214.267 64.2788 213.757L64.5338 213.638C66.1634 212.855 67.7744 212.015 69.3854 211.206C72.0775 209.759 74.9178 208.606 77.857 207.767C79.3149 207.39 80.8113 207.181 82.3168 207.145C83.8296 207.125 85.3387 207.299 86.8076 207.661C87.3861 207.798 87.9583 207.953 88.5305 208.127C88.5492 208.009 88.4932 207.922 88.4621 207.835ZM96.3491 237.156C95.3725 237.399 94.396 237.635 93.4133 237.847C93.2184 237.896 93.0255 237.94 92.8348 237.977C89.8773 238.668 86.8623 239.085 83.8282 239.221C82.3218 239.28 80.813 239.237 79.3125 239.091C77.8108 238.916 76.3256 238.621 74.8714 238.207C73.926 237.942 72.993 237.631 72.0724 237.274C71.8547 237.194 71.637 237.113 71.4504 237.019C69.7333 236.329 68.0555 235.544 66.4247 234.668C63.6817 233.219 61.0319 231.558 58.3387 229.978C55.9103 228.493 53.364 227.209 50.7254 226.141C50.7254 226.221 50.6818 226.302 50.6632 226.377C53.2993 227.417 55.8439 228.676 58.2702 230.14C60.9635 231.701 63.6381 233.318 66.3562 234.793C67.9153 235.647 69.5181 236.42 71.1581 237.106L71.7801 237.361C72.7877 237.76 73.8016 238.114 74.8341 238.419C76.2923 238.853 77.784 239.165 79.2938 239.352C80.8019 239.509 82.3187 239.567 83.8344 239.526C86.8812 239.422 89.9113 239.03 92.8845 238.357L93.4443 238.232L94.0042 238.102C94.819 237.909 95.6338 237.704 96.4486 237.48C96.3988 237.362 96.374 237.268 96.3491 237.156ZM96.8094 239.302L93.973 238.089L93.4133 237.847L92.7228 237.554C91.3086 236.949 89.8537 236.444 88.3688 236.043C86.8987 235.646 85.3956 235.384 83.878 235.259C80.8274 235.032 77.7603 235.303 74.7968 236.062C73.6523 236.335 72.5203 236.684 71.3882 237.007L71.1145 237.094C69.3916 237.641 67.6749 238.245 65.9644 238.817C63.0929 239.866 60.1173 240.604 57.0884 241.019C55.5922 241.19 54.0814 241.19 52.5852 241.019C51.0916 240.818 49.6289 240.432 48.2312 239.868C47.9202 239.744 47.6092 239.619 47.2982 239.476L47.2422 239.719L48.1565 240.111C49.5726 240.695 51.0562 241.101 52.5727 241.317C54.084 241.504 55.6117 241.517 57.1258 241.355C60.1744 240.977 63.172 240.264 66.0639 239.228C67.961 238.606 69.8519 237.946 71.749 237.361L72.0476 237.274C72.9868 236.995 73.9135 236.733 74.8714 236.503C77.8016 235.748 80.8349 235.473 83.8531 235.688C85.3563 235.812 86.8462 236.064 88.3066 236.441C89.7764 236.832 91.2185 237.32 92.6233 237.903L92.8348 237.99L93.4133 238.232L96.8778 239.682C96.8591 239.545 96.8342 239.427 96.8094 239.302ZM85.2028 198.499C84.2574 198.586 83.3368 198.636 82.3603 198.648C80.8539 198.678 79.3473 198.606 77.8508 198.431C76.3531 198.232 74.874 197.912 73.4284 197.473C72.4892 197.187 71.5624 196.851 70.6418 196.484L70.0198 196.229C68.3189 195.503 66.6578 194.687 65.0438 193.784C64.6333 193.56 64.229 193.33 63.7998 193.094C63.7749 193.128 63.752 193.163 63.7314 193.199C64.1419 193.442 64.5587 193.678 64.9754 193.909C66.5207 194.79 68.111 195.589 69.7399 196.303C69.9452 196.403 70.1442 196.49 70.3619 196.571C71.3633 196.987 72.3772 197.367 73.4035 197.684C74.8534 198.142 76.3389 198.479 77.8446 198.692C79.3506 198.879 80.8676 198.964 82.3852 198.947C83.3742 198.947 84.3631 198.891 85.3521 198.81L85.2028 198.499ZM83.7038 194.848C83.3058 194.792 82.9139 194.742 82.5158 194.699C79.471 194.408 76.3992 194.619 73.4222 195.321C72.2715 195.569 71.1332 195.874 69.9949 196.21L69.7275 196.285C67.9921 196.795 66.2692 197.373 64.5462 197.914C63.153 198.356 61.7535 198.779 60.3415 199.127L60.1176 199.575C61.6353 199.214 63.1343 198.766 64.6271 198.331C66.5304 197.709 68.4275 197.118 70.337 196.577L70.6418 196.49C71.5873 196.222 72.5078 195.98 73.4844 195.768C76.4278 195.069 79.4648 194.848 82.4785 195.115C82.9574 195.165 83.4301 195.227 83.9029 195.302L83.7038 194.848Z" fill="white"/>
<path d="M61.3736 193.019C51.6952 200.483 26.187 230.563 31.5176 237.703C36.8481 244.844 73.3968 242.468 84.0641 239.395C87.2363 238.481 79.0881 218.303 75.7107 217.302C72.893 216.468 57.0507 220.766 56.7832 219.846C56.4598 218.813 59.9678 212.139 65.6156 199.942C72.1404 185.884 65.6529 189.728 61.3736 193.019Z" fill="#AD6359"/>
<path d="M91.2969 213.8C98.6054 213.986 100.453 215.162 106.71 212.039C110.815 209.993 113.882 211.735 111.095 215.604C106.53 221.936 97.0504 223.69 93.5858 223.329L91.2969 213.8Z" fill="#AD6359"/>
<path d="M71.1758 217.538C71.1758 217.538 79.946 214.428 87.7521 213.838C93.1573 213.446 105 213.894 114.212 227.179C116.395 230.333 117.272 236.373 111.836 232.522C107.973 229.786 106.35 226.881 103.818 225.68C103.818 225.68 104.017 233.499 100.777 235.564C97.9414 237.368 94.9815 238.969 91.9195 240.353C91.5384 239.849 91.1894 239.322 90.8745 238.774C90.8745 238.774 87.665 240.416 82.3656 239.016L71.1758 217.538Z" fill="#AD6359"/>
<path d="M92.9696 214.285C95.2399 215.989 99.9858 219.684 102.816 224.063C105.963 228.921 110.715 239.128 107.108 241.411C104.458 243.09 102.3 239.352 102.3 239.352C102.3 239.352 103.376 243.986 100.651 244.95C98.1633 245.852 96.6767 242.86 96.6767 242.86C96.6767 242.86 96.8447 245.783 94.2883 246.194C91.2156 246.685 91.3649 240.478 87.8195 238.288C87.0233 237.822 92.9696 214.285 92.9696 214.285Z" fill="#AD6359"/>
<path d="M97.1295 226.526C98.9955 228.485 102.105 233.99 102.361 239.246C102.361 239.364 102.28 239.433 102.249 239.327C101.051 234.877 99.3173 230.589 97.0859 226.557C97.0859 226.557 97.1108 226.507 97.1295 226.526Z" fill="#263238"/>
<path d="M92.3186 229.847C93.7616 231.713 96.7099 237.541 96.7783 242.853C96.7783 242.972 96.6912 243.034 96.6664 242.928C95.7001 238.433 94.2291 234.062 92.2813 229.897C92.2813 229.897 92.2812 229.822 92.3186 229.847Z" fill="#263238"/>
<path d="M103.826 225.655C106.041 226.725 107.365 228.143 109.107 229.81C109.957 230.659 110.854 231.458 111.794 232.205C112.659 232.877 113.928 233.884 115.072 233.244C115.349 233.034 115.564 232.753 115.695 232.431C115.825 232.109 115.866 231.758 115.812 231.415C115.688 230.422 115.405 229.456 114.972 228.554C114.972 228.516 115.016 228.485 115.035 228.554C115.459 229.379 115.796 230.246 116.042 231.141C116.203 231.758 116.171 232.409 115.949 233.007C115.395 234.251 113.853 234.152 112.839 233.629C112.24 233.289 111.675 232.891 111.153 232.441C110.643 232.024 110.152 231.583 109.673 231.129C108.69 230.196 107.764 229.207 106.787 228.268C105.839 227.373 104.833 226.542 103.776 225.78C103.76 225.773 103.747 225.76 103.74 225.744C103.733 225.727 103.733 225.709 103.739 225.692C103.746 225.676 103.759 225.663 103.775 225.656C103.791 225.649 103.81 225.649 103.826 225.655Z" fill="#263238"/>
<path d="M107.343 234.656C106.35 231.595 105.155 228.603 103.767 225.699C103.762 225.691 103.76 225.682 103.762 225.674C103.764 225.665 103.769 225.657 103.776 225.652C103.784 225.647 103.793 225.645 103.802 225.647C103.81 225.649 103.818 225.654 103.823 225.661C105.353 227.683 107.511 232.74 107.953 234.313C108.395 235.887 108.849 237.853 108.575 239.464C108.171 241.896 106.479 242.088 105.863 242.113C105.134 242.118 104.424 241.877 103.848 241.429C103.184 240.851 102.645 240.144 102.262 239.352C102.262 239.314 102.293 239.277 102.318 239.314C103.002 240.415 104.246 241.591 105.602 241.641C105.898 241.659 106.196 241.619 106.477 241.522C106.757 241.424 107.016 241.273 107.238 241.075C107.695 240.548 107.949 239.875 107.953 239.178C108.008 237.647 107.802 236.117 107.343 234.656Z" fill="#263238"/>
<path d="M71.1747 217.538L78.5143 243.096C78.5143 243.096 32.8222 245.703 30.2906 237.405C27.7591 229.108 49.8339 201.908 58.9897 194.444C69.601 185.798 70.1857 189.43 66.7212 198.082C63.1011 207.139 56.8749 220.076 56.8749 220.076L71.1747 217.538Z" fill="#2581A2"/>
<path d="M60.3028 212.798L60.2033 213.01C58.87 212.854 57.5271 212.793 56.1852 212.829C54.6806 212.895 53.1822 213.063 51.7005 213.333C48.7179 213.895 45.7927 214.728 42.9614 215.821L42.4079 216.033C41.282 216.449 40.1624 216.897 39.0428 217.358L39.3974 216.86C40.1998 216.524 41.0021 216.194 41.817 215.871L42.3519 215.666L42.8868 215.46C45.7355 214.374 48.6802 213.557 51.6819 213.022C53.1768 212.764 54.6876 212.608 56.2038 212.556C57.5743 212.532 58.9446 212.614 60.3028 212.798ZM52.1484 216.835C50.6446 216.923 49.136 216.884 47.6389 216.717C46.1229 216.543 44.6205 216.266 43.1418 215.89L42.9179 215.834L42.2959 215.678L40.5294 215.212L40.3179 215.498L41.7548 215.883L42.3394 216.045L43.0672 216.238C44.5494 216.631 46.0558 216.926 47.5767 217.121C49.0895 217.3 50.6151 217.346 52.1359 217.258C54.398 217.117 56.6327 216.687 58.7851 215.977C58.866 215.803 58.9468 215.628 59.0401 215.442C56.8163 216.215 54.498 216.684 52.1484 216.835ZM77.2772 238.767C76.4624 238.605 75.6475 238.412 74.8452 238.188C73.8997 237.923 72.9667 237.612 72.0462 237.255C71.8285 237.174 71.6108 237.094 71.4242 237C69.707 236.309 68.0292 235.525 66.3984 234.649C63.6554 233.2 61.0057 231.539 58.3124 229.959C55.6734 228.332 52.8844 226.961 49.9838 225.866C48.5438 225.355 47.0457 225.025 45.5241 224.884C44.0038 224.776 42.4761 224.843 40.971 225.083C38.2003 225.564 35.4894 226.342 32.885 227.403C32.7938 227.577 32.7067 227.751 32.6238 227.925C35.3313 226.808 38.1474 225.974 41.027 225.437C42.5143 225.188 44.0251 225.109 45.5303 225.201C47.0349 225.323 48.5185 225.632 49.9465 226.122C52.8418 227.189 55.6269 228.535 58.2626 230.14C60.9559 231.701 63.6305 233.318 66.3486 234.792C67.9076 235.647 69.5105 236.419 71.1505 237.106L71.7725 237.361C72.7801 237.759 73.794 238.114 74.8265 238.418C75.6662 238.667 76.5183 238.879 77.3767 239.04L77.2772 238.767ZM76.4002 235.713C75.8715 235.812 75.3365 235.924 74.8078 236.055C73.6634 236.329 72.5313 236.677 71.3993 237L71.1256 237.087C69.4027 237.635 67.6859 238.238 65.9754 238.81C63.104 239.859 60.1283 240.597 57.0995 241.012C55.6033 241.183 54.0924 241.183 52.5962 241.012C51.1026 240.812 49.6399 240.425 48.2422 239.861C45.3855 238.65 42.6526 237.164 40.0816 235.427C37.4505 233.729 34.8381 231.975 32.1635 230.364L31.6162 230.04L31.5664 230.165L32.1075 230.482C34.7946 232.074 37.3759 233.872 40.0069 235.582C42.5788 237.343 45.3111 238.857 48.1676 240.104C49.5837 240.689 51.0672 241.094 52.5838 241.311C54.095 241.497 55.6227 241.51 57.1368 241.348C60.1811 240.972 63.1744 240.26 66.0625 239.227C67.9596 238.605 69.8505 237.946 71.7476 237.361L72.0462 237.274C72.9854 236.994 73.9122 236.733 74.87 236.503C75.4174 236.372 75.971 236.248 76.5246 236.148L76.4002 235.713ZM65.0113 193.778C64.0286 193.23 63.052 192.658 62.0879 192.073L61.976 192.154C62.967 192.751 63.9622 193.334 64.9616 193.902C65.8739 194.42 66.7965 194.91 67.7295 195.37C67.7424 195.315 67.759 195.261 67.7792 195.208C66.8462 194.773 65.9257 194.288 65.0113 193.784V193.778ZM64.5448 197.926C61.6554 198.925 58.6672 199.611 55.6316 199.973C54.8046 200.049 53.974 200.08 53.1436 200.066C53.0503 200.165 52.9508 200.265 52.8575 200.371C53.7947 200.416 54.7339 200.4 55.6689 200.321C58.7274 199.986 61.7395 199.314 64.6506 198.318L66.9395 197.597L67.1324 197.111L64.5448 197.926Z" fill="white"/>
<path d="M42.4397 224.181C44.721 223.11 47.0761 222.204 49.4869 221.469C51.8744 220.755 54.3108 220.217 56.7768 219.858C58.1825 219.641 59.5944 219.491 61.0064 219.33C61.0499 219.33 61.0561 219.392 61.0064 219.398C58.5303 219.771 56.0777 220.287 53.6606 220.941C51.2513 221.567 48.8566 222.238 46.4765 222.956C45.1267 223.36 43.8019 223.827 42.4708 224.274C42.4148 224.299 42.3837 224.212 42.4397 224.181Z" fill="#263238"/>
<path d="M71.0695 217.457C70.8394 217.457 58.1319 219.466 57.7028 219.584C57.7836 219.41 61.0056 213.364 61.4845 212.475C61.5343 212.388 61.5778 212.301 61.6214 212.207C61.9137 211.828 62.206 211.449 62.4797 211.057L63.5247 209.533L62.4237 210.982C62.2558 211.206 62.0879 211.442 61.9324 211.673C62.2496 211.051 62.5544 210.429 62.8778 209.807C63.3816 208.793 63.8481 207.773 64.3084 206.746C64.3084 206.709 64.3084 206.69 64.2586 206.746C63.3132 208.513 62.3056 210.242 61.3539 212.002C60.4022 213.762 56.7822 220.231 56.8009 220.225C56.8195 220.219 70.8518 217.737 71.1069 217.675C71.1357 217.67 71.1614 217.654 71.1784 217.63C71.1953 217.606 71.202 217.576 71.197 217.547C71.1921 217.518 71.1759 217.493 71.152 217.476C71.1281 217.459 71.0984 217.452 71.0695 217.457Z" fill="#263238"/>
<path d="M69.3238 233.044C68.5214 230.196 67.7439 227.334 66.8358 224.517C66.3195 222.912 65.8095 221.307 65.2808 219.709C65.2808 219.647 65.1564 219.678 65.1688 219.74C65.8593 222.632 66.5621 225.531 67.3894 228.392C68.2166 231.253 69.0004 234.089 69.8774 236.926C70.3667 238.535 70.9037 240.129 71.4884 241.709C71.4884 241.74 71.5506 241.709 71.5443 241.709C70.9286 238.773 70.1324 235.912 69.3238 233.044Z" fill="#263238"/>
<path d="M79.0261 243.581C78.7027 242.779 78.3233 241.634 77.9688 240.851C77.8755 240.639 77.7262 240.658 77.7884 240.851C78.0185 241.566 78.174 242.356 78.4104 243.09L76.4946 243.146L74.2741 243.245C72.831 243.303 71.3797 243.345 69.9201 243.37C66.9884 243.424 64.0567 243.424 61.125 243.37C55.24 243.257 49.3647 242.842 43.5224 242.126C41.8928 241.914 40.2631 241.678 38.6397 241.386C37.0163 241.093 35.2249 240.764 33.8876 240.359C33.8441 240.359 33.8254 240.422 33.8876 240.44C35.2103 240.963 36.5727 241.379 37.9617 241.684C39.4234 242.001 40.8851 242.275 42.3592 242.505C45.2951 242.953 48.2558 243.252 51.2103 243.463C57.082 243.892 62.9723 244.085 68.8564 243.998C70.5047 243.998 72.1593 243.942 73.8324 243.886C74.6597 243.855 75.4932 243.83 76.3204 243.787C77.1477 243.743 79.0821 243.7 79.0261 243.581Z" fill="#263238"/>
<path d="M78.3294 197.945C75.2941 198.325 70.6975 193.243 69.0865 189.355C68.9746 189.088 69.6463 186.475 70.3305 183.266C70.7286 181.319 71.1267 179.136 71.3444 177.121C71.3879 176.704 83.66 181.568 83.66 181.568C82.6629 184.009 81.9694 186.564 81.5949 189.175C81.57 189.452 81.57 189.731 81.5949 190.008C81.5981 190.056 81.5981 190.104 81.5949 190.151C81.6696 191.75 81.2715 197.553 78.3294 197.945Z" fill="#AD6359"/>
<path d="M72.1016 177.257C72.3193 180.728 73.5446 189.194 80.2746 190.083C80.7075 190.141 81.1443 190.164 81.5808 190.151C81.5873 190.104 81.5873 190.056 81.5808 190.008C81.5591 189.731 81.5591 189.452 81.5808 189.175C81.9597 186.562 82.6552 184.006 83.6521 181.562C83.6521 181.562 74.7948 178.053 72.1016 177.257Z" fill="#263238"/>
<path d="M74.344 160.233C71.5885 164.065 69.6541 177.164 71.7564 180.946C74.8104 186.432 81.8888 189.262 87.0763 185.12C92.1021 181.101 94.3164 163.972 91.7724 160.327C88.0279 154.953 78.4118 154.586 74.344 160.233Z" fill="#AD6359"/>
<path d="M83.8597 171.878C83.8597 171.846 83.7851 171.915 83.7851 171.952C83.7105 172.842 83.4803 173.818 82.6406 174.048V174.098C83.6358 174.073 83.9344 172.736 83.8597 171.878Z" fill="#263238"/>
<path d="M83.174 170.863C81.762 170.59 81.308 173.438 82.6328 173.687C83.9577 173.936 84.3558 171.087 83.174 170.863Z" fill="#263238"/>
<path d="M88.7896 172.673C88.7896 172.636 88.8518 172.723 88.8456 172.76C88.6839 173.637 88.6465 174.67 89.3929 175.087C89.3929 175.087 89.3929 175.143 89.3929 175.13C88.4288 174.838 88.4973 173.469 88.7896 172.673Z" fill="#263238"/>
<path d="M89.7255 171.865C91.1561 171.977 90.8327 174.838 89.5016 174.732C88.1705 174.626 88.55 171.771 89.7255 171.865Z" fill="#263238"/>
<path d="M82.2103 168.406C82.6039 168.428 82.9985 168.428 83.3921 168.406C83.8081 168.46 84.2301 168.374 84.5926 168.164C84.6924 168.074 84.7609 167.956 84.7878 167.824C84.8147 167.693 84.7986 167.557 84.7419 167.436C84.5852 167.218 84.3738 167.046 84.1291 166.937C83.8843 166.828 83.615 166.785 83.3486 166.814C82.7994 166.785 82.259 166.96 81.8309 167.305C81.7334 167.386 81.6628 167.494 81.6286 167.616C81.5944 167.738 81.5982 167.867 81.6394 167.987C81.6806 168.107 81.7574 168.211 81.8594 168.286C81.9614 168.361 82.0838 168.403 82.2103 168.406Z" fill="#263238"/>
<path d="M91.3485 169.986C90.9777 169.85 90.6144 169.694 90.26 169.52C89.8551 169.408 89.4986 169.165 89.2461 168.829C89.1894 168.708 89.1733 168.572 89.2002 168.441C89.2271 168.31 89.2955 168.191 89.3954 168.102C89.6224 167.96 89.883 167.88 90.1507 167.871C90.4183 167.863 90.6835 167.925 90.9193 168.052C91.4392 168.238 91.8714 168.61 92.1322 169.097C92.2001 169.21 92.2303 169.342 92.2183 169.473C92.2063 169.605 92.1529 169.729 92.0656 169.828C91.9783 169.927 91.8618 169.996 91.7329 170.024C91.6039 170.053 91.4693 170.039 91.3485 169.986Z" fill="#263238"/>
<path d="M81.1284 179.845C81.3087 180.087 81.4767 180.398 81.7877 180.467C82.1173 180.508 82.452 180.481 82.7704 180.386C82.7757 180.388 82.7801 180.392 82.7832 180.397C82.7863 180.402 82.788 180.408 82.788 180.414C82.788 180.42 82.7863 180.426 82.7832 180.43C82.7801 180.435 82.7757 180.439 82.7704 180.442C82.6181 180.595 82.4274 180.704 82.2183 180.757C82.0092 180.811 81.7896 180.807 81.5824 180.747C81.4091 180.672 81.2617 180.548 81.1588 180.389C81.0559 180.231 81.002 180.046 81.004 179.857C81.0288 179.82 81.0848 179.807 81.1284 179.845Z" fill="#263238"/>
<path d="M82.458 177.351C82.629 177.733 82.8768 178.076 83.186 178.359C83.4953 178.641 83.8593 178.857 84.2555 178.993C84.6023 179.116 84.9645 179.189 85.3316 179.211C85.402 179.217 85.4727 179.217 85.5431 179.211H85.7359C85.7846 179.21 85.8316 179.193 85.8698 179.162C85.908 179.132 85.9352 179.09 85.9474 179.043C85.9505 179.014 85.9505 178.985 85.9474 178.956V178.875C86.0656 178.203 86.1589 177.158 86.1589 177.158C86.389 177.32 87.5646 178.085 87.6019 177.724C87.8756 174.764 88.1866 171.467 87.832 168.463C87.832 168.441 87.8235 168.421 87.8084 168.406C87.7932 168.39 87.7726 168.382 87.7512 168.382C87.7297 168.382 87.7092 168.39 87.694 168.406C87.6788 168.421 87.6703 168.441 87.6703 168.463C87.2909 171.299 87.4153 174.185 87.0483 177.04C86.6284 176.773 86.1744 176.564 85.6986 176.418C85.5991 176.418 85.5555 178.44 85.4747 178.738C85.4773 178.748 85.4773 178.759 85.4747 178.769C84.3115 178.738 83.5091 178.259 82.5202 177.326C82.4953 177.22 82.4144 177.27 82.458 177.351Z" fill="#263238"/>
<path d="M84.9848 178.8C84.5371 179.228 83.9866 179.535 83.3863 179.689C83.0571 179.763 82.713 179.73 82.4035 179.596C81.7318 179.304 81.7815 178.657 82.0241 178.122C82.1414 177.84 82.2918 177.572 82.4719 177.326C83.1299 178.074 84.0108 178.591 84.9848 178.8Z" fill="#263238"/>
<path d="M83.3863 179.69C83.0571 179.763 82.713 179.731 82.4035 179.596C81.7318 179.304 81.7815 178.657 82.0241 178.122C82.3945 178.192 82.7306 178.384 82.9778 178.669C83.225 178.953 83.369 179.313 83.3863 179.69Z" fill="#FF98B9"/>
<path opacity="0.2" d="M71.1328 170.652C71.985 170.652 74.8275 168.823 75.4868 166.709C75.9284 165.303 77.9375 158.56 78.2112 157.217C76.6118 157.838 75.2209 158.899 74.1993 160.277C72.9988 161.919 71.7548 167.02 71.1328 170.652Z" fill="#263238"/>
<path d="M87.795 163.661C87.2238 164.127 86.5435 164.441 85.8178 164.573C85.0922 164.704 84.3449 164.649 83.6463 164.413C82.9323 164.171 82.2923 163.75 81.7871 163.19C81.2819 162.631 80.9284 161.951 80.7602 161.216C80.7602 161.173 80.6856 161.185 80.6918 161.216C80.7975 162.005 81.1171 162.749 81.6161 163.369C82.115 163.988 82.7741 164.459 83.5219 164.73C84.2714 164.963 85.0691 164.992 85.8338 164.816C86.5984 164.64 87.303 164.265 87.8759 163.729C87.8801 163.718 87.8809 163.706 87.878 163.695C87.8751 163.684 87.8688 163.673 87.8599 163.666C87.851 163.658 87.8399 163.654 87.8283 163.653C87.8167 163.652 87.805 163.655 87.795 163.661Z" fill="#263238"/>
<path d="M85.268 152.346C82.78 151.961 80.292 152.918 79.048 154.442C78.3711 155.308 78.0111 156.379 78.0279 157.478C78.0279 157.521 78.115 157.527 78.1212 157.478C78.2383 156.528 78.6084 155.628 79.1928 154.871C79.7771 154.114 80.5542 153.527 81.4427 153.173C82.4207 152.755 83.4826 152.569 84.5447 152.631C85.6067 152.692 86.64 152.999 87.5632 153.528C88.4646 154.025 89.161 154.825 89.5287 155.786C89.5287 155.879 89.7588 155.854 89.734 155.755C89.3608 154.1 87.5134 152.701 85.268 152.346Z" fill="#263238"/>
<path d="M98.1214 161.092C97.9136 159.995 97.2924 159.019 96.386 158.367C95.086 157.235 93.4253 157.055 91.777 156.906C91.7334 156.906 91.7272 156.968 91.777 156.974C93.194 157 94.5762 157.417 95.7702 158.181C96.7272 158.876 97.4184 159.876 97.7295 161.017C97.8886 161.527 97.9419 162.064 97.8862 162.596C97.8304 163.127 97.6668 163.641 97.4054 164.107C97.1439 164.573 96.7901 164.98 96.3656 165.305C95.9411 165.629 95.4549 165.863 94.9367 165.993C94.2693 166.203 93.5669 166.279 92.8699 166.218C92.173 166.156 91.4951 165.957 90.8751 165.632C90.8253 165.632 90.7755 165.676 90.8253 165.701C93.0832 166.945 96.0812 166.447 97.5491 164.42C97.8669 163.933 98.0816 163.387 98.18 162.815C98.2785 162.243 98.2585 161.656 98.1214 161.092Z" fill="#263238"/>
<path d="M72.9553 162.584C72.9553 162.584 71.4189 157.739 73.8509 155.543C75.2256 154.299 78.8767 155.164 78.8767 155.164C79.497 154.528 80.2366 154.022 81.0532 153.673C81.8697 153.324 82.7471 153.139 83.635 153.13C86.8507 152.987 92.2248 156.93 92.2248 156.93C92.2248 156.93 94.8434 157.098 96.33 158.666C98.3702 160.811 97.7482 165.029 93.5559 166.192C90.6076 167.013 87.3794 163.94 87.3794 163.94C87.0187 163.94 83.0254 165.439 80.8609 161.713C80.8609 161.713 78.2796 163.281 76.538 161.527C76.1201 162.048 75.5528 162.428 74.9124 162.617C74.2719 162.806 73.589 162.795 72.9553 162.584Z" fill="#263238"/>
<path d="M73.5666 171.193C73.5666 171.193 72.0303 166.286 69.8906 166.708C67.7509 167.131 68.0246 173.619 69.8906 175.099C70.1198 175.304 70.3881 175.461 70.6794 175.56C70.9707 175.659 71.279 175.698 71.5857 175.675C71.8925 175.652 72.1913 175.567 72.4644 175.425C72.7375 175.283 72.9791 175.088 73.1748 174.85L73.5666 171.193Z" fill="#AD6359"/>
<path d="M70.0119 168.568C69.9746 168.568 69.9559 168.599 70.0119 168.618C71.3181 169.7 71.6664 171.342 71.7659 172.972C71.7288 172.792 71.6523 172.623 71.542 172.476C71.4318 172.329 71.2904 172.209 71.1281 172.123C70.9658 172.038 70.7866 171.989 70.6033 171.981C70.42 171.973 70.2372 172.005 70.0679 172.076C70.0243 172.076 70.0679 172.163 70.0679 172.169C70.3578 172.17 70.6404 172.26 70.8775 172.427C71.1145 172.594 71.2944 172.83 71.3927 173.102C71.5509 173.562 71.6593 174.037 71.7162 174.52C71.7162 174.676 72.0085 174.682 72.0085 174.52V174.483C72.643 172.555 72.0023 169.408 70.0119 168.568Z" fill="#263238"/>
<path d="M140.759 248.246H86.8008V250.666H140.759V248.246Z" fill="#C7C7C7"/>
<path d="M140.757 248.246V250.659H104.078L105.925 248.246H140.757Z" fill="#A6A6A6"/>
<path d="M108.258 250.666H160.848L165.227 214.944H112.637L108.258 250.666Z" fill="#C7C7C7"/>
<path d="M133.544 232.809C133.533 233.224 133.604 233.638 133.755 234.025C133.907 234.413 134.134 234.766 134.424 235.064C134.714 235.362 135.06 235.599 135.444 235.761C135.827 235.923 136.238 236.006 136.654 236.006C137.507 236.003 138.325 235.667 138.934 235.07C139.542 234.472 139.894 233.661 139.913 232.809C139.926 232.389 139.854 231.972 139.701 231.581C139.548 231.19 139.317 230.835 139.023 230.535C138.729 230.236 138.378 229.999 137.99 229.84C137.602 229.68 137.186 229.6 136.766 229.605C135.918 229.616 135.108 229.957 134.507 230.555C133.905 231.152 133.56 231.961 133.544 232.809Z" fill="white"/>
<path d="M285.197 239.477C285.197 240.796 284.73 242.072 283.878 243.078C283.026 244.085 281.845 244.757 280.544 244.974C264.533 247.675 248.182 247.675 232.17 244.974C230.875 244.751 229.701 244.077 228.855 243.07C228.009 242.064 227.547 240.791 227.551 239.477V186.021H285.223L285.197 239.477Z" fill="#407BFF"/>
<path opacity="0.3" d="M227.52 186.985V194.488C230.991 195.775 242.388 196.719 256.359 196.719C270.33 196.719 281.747 195.775 285.198 194.488V186.985H227.52Z" fill="black"/>
<path d="M286.278 192.707C286.278 194.403 273.185 195.776 256.356 195.776C239.528 195.776 226.434 194.403 226.434 192.707L225.887 186.042H286.859L286.278 192.707Z" fill="#407BFF"/>
<path d="M256.356 189.104C273.184 189.104 286.826 187.733 286.826 186.042C286.826 184.35 273.184 182.979 256.356 182.979C239.528 182.979 225.887 184.35 225.887 186.042C225.887 187.733 239.528 189.104 256.356 189.104Z" fill="#407BFF"/>
<path opacity="0.3" d="M256.356 189.104C273.184 189.104 286.826 187.733 286.826 186.042C286.826 184.35 273.184 182.979 256.356 182.979C239.528 182.979 225.887 184.35 225.887 186.042C225.887 187.733 239.528 189.104 256.356 189.104Z" fill="black"/>
<path opacity="0.2" d="M235.253 235.715C234.66 235.714 234.092 235.477 233.673 235.058C233.254 234.639 233.017 234.071 233.016 233.478V202.83C233.017 202.238 233.254 201.67 233.673 201.25C234.092 200.831 234.66 200.595 235.253 200.593C235.845 200.597 236.412 200.834 236.831 201.252C237.25 201.671 237.487 202.238 237.49 202.83V233.478C237.487 234.07 237.25 234.637 236.831 235.056C236.412 235.475 235.845 235.712 235.253 235.715Z" fill="black"/>
<path opacity="0.2" d="M277.472 235.715C276.879 235.714 276.311 235.477 275.892 235.058C275.472 234.639 275.236 234.071 275.234 233.478V202.83C275.236 202.238 275.472 201.67 275.892 201.25C276.311 200.831 276.879 200.595 277.472 200.593C278.064 200.597 278.631 200.834 279.05 201.252C279.468 201.671 279.705 202.238 279.709 202.83V233.478C279.705 234.07 279.468 234.637 279.05 235.056C278.631 235.475 278.064 235.712 277.472 235.715Z" fill="black"/>
<path opacity="0.2" d="M263.393 235.715C262.801 235.712 262.234 235.475 261.815 235.056C261.397 234.637 261.16 234.07 261.156 233.478V202.83C261.16 202.238 261.397 201.671 261.815 201.252C262.234 200.834 262.801 200.597 263.393 200.593C263.986 200.595 264.554 200.831 264.973 201.25C265.393 201.67 265.629 202.238 265.631 202.83V233.478C265.629 234.071 265.393 234.639 264.973 235.058C264.554 235.477 263.986 235.714 263.393 235.715Z" fill="black"/>
<path opacity="0.2" d="M249.323 235.715C248.731 235.712 248.164 235.475 247.745 235.056C247.326 234.637 247.089 234.07 247.086 233.478V202.83C247.089 202.238 247.326 201.671 247.745 201.252C248.164 200.834 248.731 200.597 249.323 200.593C249.916 200.595 250.484 200.831 250.903 201.25C251.322 201.67 251.559 202.238 251.56 202.83V233.478C251.559 234.071 251.322 234.639 250.903 235.058C250.484 235.477 249.916 235.714 249.323 235.715Z" fill="black"/>
<path d="M227.156 121.611L201.603 126.891C201.166 126.973 200.715 126.88 200.345 126.634C199.975 126.387 199.716 126.006 199.623 125.571L198.429 120.027L198 117.981L198.752 115.645C198.857 115.31 198.983 114.981 199.128 114.662C199.145 114.611 199.167 114.562 199.194 114.517C199.616 113.555 200.184 112.665 200.877 111.877L202.197 111.6L224.107 107.053C224.544 106.971 224.996 107.063 225.366 107.309C225.736 107.556 225.995 107.938 226.087 108.373L228.417 119.592C228.512 120.026 228.434 120.481 228.198 120.858C227.962 121.236 227.588 121.506 227.156 121.611Z" fill="#407BFF"/>
<path opacity="0.3" d="M225.888 107.779L213.561 120.318L210.921 119.249L200.652 115.084L199.207 114.497C199.629 113.536 200.196 112.645 200.89 111.857L202.21 111.58L224.12 107.033C224.455 106.966 224.803 107.001 225.119 107.134C225.434 107.267 225.702 107.492 225.888 107.779Z" fill="black"/>
<path d="M225.888 107.779L210.921 119.269L209.944 120.021L200.54 115.355L199.141 114.695C199.157 114.644 199.179 114.596 199.207 114.55C199.628 113.589 200.196 112.698 200.889 111.91L202.209 111.633L224.119 107.086C224.45 107.014 224.794 107.041 225.109 107.164C225.424 107.288 225.695 107.501 225.888 107.779Z" fill="#407BFF"/>
<path opacity="0.2" d="M225.888 107.779L210.921 119.269L209.944 120.021L200.54 115.355L199.141 114.695C199.157 114.644 199.179 114.596 199.207 114.55C199.628 113.589 200.196 112.698 200.889 111.91L202.209 111.633L224.119 107.086C224.45 107.014 224.794 107.041 225.109 107.164C225.424 107.288 225.695 107.501 225.888 107.779Z" fill="white"/>
<path d="M258.353 144.755L250.565 153.15C250.258 153.477 249.834 153.67 249.385 153.686C248.936 153.702 248.5 153.54 248.17 153.235L229.071 135.45C228.742 135.144 228.548 134.719 228.532 134.27C228.516 133.821 228.679 133.384 228.985 133.054L236.799 124.66C236.95 124.495 237.133 124.363 237.336 124.269C237.539 124.176 237.759 124.123 237.982 124.115C238.205 124.107 238.428 124.144 238.638 124.223C238.847 124.301 239.038 124.421 239.201 124.574L258.293 142.36C258.541 142.59 258.714 142.889 258.79 143.218C258.867 143.547 258.843 143.892 258.722 144.207C258.639 144.414 258.513 144.601 258.353 144.755Z" fill="#407BFF"/>
<path opacity="0.3" d="M258.695 144.241L241.325 141.41L237.293 124.251C237.601 124.109 237.944 124.062 238.278 124.115C238.613 124.168 238.925 124.318 239.174 124.548L258.266 142.333C258.525 142.568 258.706 142.878 258.783 143.219C258.86 143.561 258.829 143.917 258.695 144.241Z" fill="black"/>
<path d="M258.695 144.241L241.781 139.199L237.293 124.311C237.601 124.169 237.944 124.121 238.278 124.174C238.613 124.227 238.925 124.378 239.174 124.608L258.266 142.393C258.513 142.623 258.686 142.922 258.763 143.251C258.839 143.581 258.816 143.925 258.695 144.241Z" fill="#407BFF"/>
<path opacity="0.2" d="M258.695 144.241L241.781 139.199L237.293 124.311C237.601 124.169 237.944 124.121 238.278 124.174C238.613 124.227 238.925 124.378 239.174 124.608L258.266 142.393C258.513 142.623 258.686 142.922 258.763 143.251C258.839 143.581 258.816 143.925 258.695 144.241Z" fill="white"/>
<path d="M265.143 158.581L273.723 168.599C273.887 168.791 274.01 169.014 274.085 169.255C274.159 169.496 274.184 169.749 274.158 170C274.131 170.251 274.054 170.494 273.93 170.713C273.806 170.933 273.639 171.126 273.439 171.279L254.802 185.797C254.489 185.986 254.117 186.051 253.758 185.98C253.4 185.91 253.08 185.708 252.862 185.415L246.15 177.759C246.024 177.612 245.92 177.448 245.84 177.271C245.716 177.028 245.664 176.755 245.691 176.483C245.717 176.211 245.822 175.953 245.992 175.74L262.49 158.509C262.748 158.23 263.088 158.041 263.461 157.97C263.834 157.898 264.22 157.948 264.563 158.113C264.784 158.231 264.981 158.39 265.143 158.581Z" fill="#407BFF"/>
<path opacity="0.3" d="M264.56 158.132L260.462 176.36L245.864 177.291C245.739 177.048 245.687 176.774 245.714 176.503C245.741 176.231 245.846 175.973 246.015 175.759L262.514 158.528C262.77 158.255 263.105 158.07 263.473 157.999C263.84 157.928 264.221 157.974 264.56 158.132Z" fill="black"/>
<path d="M264.565 158.132L257.695 177.475L245.856 177.29C245.731 177.048 245.679 176.774 245.706 176.503C245.733 176.231 245.838 175.973 246.008 175.759L262.506 158.528C262.763 158.252 263.101 158.065 263.471 157.994C263.841 157.923 264.224 157.971 264.565 158.132Z" fill="#407BFF"/>
<path opacity="0.2" d="M264.565 158.132L257.695 177.475L245.856 177.29C245.731 177.048 245.679 176.774 245.706 176.503C245.733 176.231 245.838 175.973 246.008 175.759L262.506 158.528C262.763 158.252 263.101 158.065 263.471 157.994C263.841 157.923 264.224 157.971 264.565 158.132Z" fill="white"/>
<defs>
<linearGradient id="paint0_linear_2706_18739" x1="156" y1="-124.489" x2="156" y2="208.488" gradientUnits="userSpaceOnUse">
<stop stop-color="#D1EBF5"/>
<stop offset="1" stop-color="white"/>
</linearGradient>
</defs>
</svg>
