<svg width="25" height="24" viewBox="0 0 25 24" fill="none" xmlns="http://www.w3.org/2000/svg">
<path d="M16.8083 4.38394C16.2173 4.38394 15.9217 4.38394 15.6525 4.28405C15.6151 4.27017 15.5783 4.25491 15.542 4.23828C15.281 4.11855 15.0721 3.90959 14.6541 3.49167C13.6922 2.52977 13.2113 2.04882 12.6195 2.00447C12.54 1.99851 12.46 1.99851 12.3805 2.00447C11.7887 2.04882 11.3077 2.52977 10.3458 3.49166C9.92793 3.90959 9.71897 4.11855 9.45797 4.23828C9.42172 4.25491 9.38486 4.27017 9.34747 4.28405C9.07825 4.38394 8.78273 4.38394 8.19171 4.38394H8.08269C6.57478 4.38394 5.82083 4.38394 5.35239 4.85239C4.88394 5.32083 4.88394 6.07478 4.88394 7.58269V7.69171C4.88394 8.28273 4.88394 8.57825 4.78405 8.84747C4.77017 8.88486 4.75491 8.92172 4.73828 8.95797C4.61855 9.21897 4.40959 9.42793 3.99166 9.84585C3.02977 10.8077 2.54882 11.2887 2.50447 11.8805C2.49851 11.96 2.49851 12.04 2.50447 12.1195C2.54882 12.7113 3.02977 13.1922 3.99166 14.1541C4.40959 14.5721 4.61855 14.781 4.73828 15.042C4.75491 15.0783 4.77017 15.1151 4.78405 15.1525C4.88394 15.4217 4.88394 15.7173 4.88394 16.3083V16.4173C4.88394 17.9252 4.88394 18.6792 5.35239 19.1476C5.82083 19.6161 6.57478 19.6161 8.08269 19.6161H8.19171C8.78273 19.6161 9.07825 19.6161 9.34747 19.7159C9.38486 19.7298 9.42172 19.7451 9.45797 19.7617C9.71897 19.8815 9.92793 20.0904 10.3458 20.5083C11.3077 21.4702 11.7887 21.9512 12.3805 21.9955C12.46 22.0015 12.54 22.0015 12.6195 21.9955C13.2113 21.9512 13.6922 21.4702 14.6541 20.5083C15.0721 20.0904 15.281 19.8815 15.542 19.7617C15.5783 19.7451 15.6151 19.7298 15.6525 19.7159C15.9217 19.6161 16.2173 19.6161 16.8083 19.6161H16.9173C18.4252 19.6161 19.1792 19.6161 19.6476 19.1476C20.1161 18.6792 20.1161 17.9252 20.1161 16.4173V16.3083C20.1161 15.7173 20.1161 15.4217 20.2159 15.1525C20.2298 15.1151 20.2451 15.0783 20.2617 15.042C20.3815 14.781 20.5904 14.5721 21.0083 14.1541C21.9702 13.1922 22.4512 12.7113 22.4955 12.1195C22.5015 12.04 22.5015 11.96 22.4955 11.8805C22.4512 11.2887 21.9702 10.8077 21.0083 9.84585C20.5904 9.42793 20.3815 9.21897 20.2617 8.95797C20.2451 8.92172 20.2298 8.88486 20.2159 8.84747C20.1161 8.57825 20.1161 8.28273 20.1161 7.69171V7.58269C20.1161 6.07478 20.1161 5.32083 19.6476 4.85239C19.1792 4.38394 18.4252 4.38394 16.9173 4.38394H16.8083Z" stroke="#61AD29" stroke-width="1.5"/>
<path d="M9 16.5C9.69863 15.2923 11.0044 14.4797 12.5 14.4797C13.9956 14.4797 15.3014 15.2923 16 16.5M14.5 9.99999C14.5 11.1046 13.6046 12 12.5 12C11.3955 12 10.5 11.1046 10.5 9.99999C10.5 8.89543 11.3955 8 12.5 8C13.6046 8 14.5 8.89543 14.5 9.99999Z" stroke="#61AD29" stroke-width="1.5" stroke-linecap="round"/>
</svg>
