<svg width="312" height="311" viewBox="0 0 312 311" fill="none" xmlns="http://www.w3.org/2000/svg">
<g clip-path="url(#clip0_2706_20602)">
<circle cx="162" cy="156.5" r="149.5" fill="url(#paint0_linear_2706_20602)"/>
<path d="M264.688 50.0957H117.336V252.625H264.688V50.0957Z" fill="#F5F5F5"/>
<path d="M264.688 50.0957H117.336V61.1051H264.688V50.0957Z" fill="#E0E0E0"/>
<path d="M124.015 55.6003C124.014 55.8929 123.926 56.1785 123.763 56.4211C123.599 56.6637 123.368 56.8525 123.097 56.9636C122.827 57.0747 122.529 57.1031 122.242 57.0453C121.956 56.9875 121.692 56.846 121.486 56.6387C121.28 56.4314 121.139 56.1676 121.083 55.8807C121.026 55.5937 121.056 55.2963 121.168 55.0262C121.28 54.7561 121.47 54.5252 121.713 54.3628C121.957 54.2004 122.243 54.1138 122.535 54.1138C122.73 54.1138 122.923 54.1523 123.103 54.227C123.283 54.3018 123.446 54.4114 123.584 54.5496C123.722 54.6877 123.83 54.8516 123.904 55.0319C123.979 55.2123 124.016 55.4054 124.015 55.6003Z" fill="#F5F5F5"/>
<path d="M135.101 55.2835C135.1 55.5755 135.013 55.8606 134.85 56.1029C134.687 56.3453 134.456 56.5341 134.186 56.6455C133.916 56.757 133.619 56.7861 133.333 56.7293C133.047 56.6725 132.783 56.5322 132.576 56.3262C132.37 56.1202 132.228 55.8575 132.17 55.5714C132.112 55.2852 132.14 54.9883 132.25 54.7179C132.361 54.4476 132.548 54.2159 132.79 54.052C133.032 53.8881 133.317 53.7994 133.609 53.7969C133.805 53.7953 133.999 53.8326 134.18 53.9066C134.362 53.9807 134.527 54.09 134.666 54.2283C134.804 54.3666 134.914 54.5311 134.989 54.7122C135.064 54.8933 135.102 55.0875 135.101 55.2835Z" fill="#F5F5F5"/>
<path d="M129.828 55.2835C129.827 55.576 129.739 55.8616 129.575 56.1042C129.412 56.3468 129.18 56.5356 128.91 56.6467C128.639 56.7578 128.342 56.7862 128.055 56.7284C127.768 56.6706 127.505 56.5291 127.299 56.3218C127.092 56.1145 126.952 55.8508 126.895 55.5638C126.839 55.2768 126.868 54.9794 126.98 54.7093C127.093 54.4392 127.282 54.2083 127.526 54.0459C127.769 53.8835 128.055 53.7969 128.348 53.7969C128.542 53.7969 128.735 53.8354 128.915 53.9102C129.095 53.9849 129.259 54.0945 129.397 54.2327C129.534 54.3708 129.643 54.5347 129.717 54.715C129.791 54.8954 129.829 55.0885 129.828 55.2835Z" fill="#F5F5F5"/>
<path d="M280.541 71.1011C280.541 71.1011 274.67 68.6691 270.733 82.3406C266.795 96.0122 265.788 103.663 265.788 103.663C265.788 103.663 264.612 106.592 262.491 105.236C260.37 103.88 256.98 99.514 254.106 100.976C251.121 102.487 250.76 106.213 252.365 111.276C253.97 116.339 257.08 127.56 257.341 128.574C257.602 129.588 257.341 131.174 255.73 130.483C254.119 129.793 244.304 122.341 241.051 127.224C237.798 132.107 244.584 145.467 245.299 146.948C246.014 148.428 245.834 149.143 245.168 149.672C244.503 150.201 241.436 147.383 238.55 145.38C235.664 143.377 231.976 141.561 230.334 144.534C228.692 147.508 230.06 158.256 243.501 173.551L250.2 180.231L259.406 177.911C278.812 171.747 285.53 163.25 285.667 159.873C285.804 156.495 281.692 156.141 278.203 156.359C274.713 156.576 270.621 157.41 270.322 156.62C270.023 155.83 270.247 155.115 271.622 154.219C272.997 153.323 285.71 145.374 285.437 139.515C285.163 133.656 272.903 134.962 271.18 134.732C269.457 134.502 270.036 132.978 270.782 132.244C271.529 131.51 279.994 123.505 283.981 119.996C287.968 116.488 289.579 113.117 287.813 110.275C286.102 107.544 280.971 109.528 278.433 109.597C275.895 109.665 276.424 106.549 276.424 106.549C276.424 106.549 279.497 99.4767 283.185 85.7367C286.873 71.9967 280.398 71.0575 280.398 71.0575" fill="#EBEBEB"/>
<path d="M276.999 83.3481C276.999 83.3481 276.999 83.4477 276.937 83.6405C276.874 83.8333 276.812 84.1256 276.725 84.4864C276.526 85.2515 276.246 86.3524 275.879 87.7457C275.145 90.5758 274.051 94.6623 272.676 99.7005C269.927 109.783 266.021 123.685 261.648 139.017C257.275 154.349 253.332 168.251 250.533 178.309L247.23 190.233C246.838 191.632 246.533 192.721 246.328 193.473C246.222 193.834 246.141 194.095 246.085 194.319L245.992 194.599C245.992 194.599 245.992 194.5 246.048 194.307C246.104 194.114 246.173 193.822 246.26 193.461C246.459 192.702 246.745 191.595 247.106 190.202C247.84 187.371 248.94 183.291 250.315 178.247C253.058 168.164 256.97 154.269 261.337 138.93C265.703 123.592 269.653 109.696 272.452 99.6383L275.761 87.7021C276.147 86.3026 276.452 85.2141 276.663 84.4615C276.763 84.1008 276.843 83.8209 276.906 83.6218C276.962 83.4352 276.999 83.3481 276.999 83.3481Z" fill="#E0E0E0"/>
<path d="M258.633 107.264C258.778 107.442 258.9 107.639 258.994 107.849C259.211 108.234 259.504 108.794 259.864 109.497C260.573 110.897 261.5 112.862 262.489 115.045L264.977 120.643L265.742 122.341C265.854 122.536 265.938 122.745 265.991 122.963C265.852 122.783 265.731 122.589 265.63 122.385C265.413 121.999 265.12 121.433 264.772 120.73C264.075 119.319 263.167 117.347 262.184 115.132L259.653 109.534C259.348 108.869 259.087 108.29 258.875 107.843C258.775 107.659 258.694 107.465 258.633 107.264Z" fill="#E0E0E0"/>
<path d="M266.852 122.976C266.808 122.895 270.771 120.799 275.691 118.292C280.611 115.785 284.635 113.814 284.678 113.894C284.722 113.975 280.76 116.071 275.84 118.578C270.92 121.085 266.889 123.057 266.852 122.976Z" fill="#E0E0E0"/>
<path d="M259.078 146.22C259.297 146.138 259.524 146.082 259.756 146.052L261.622 145.697C263.19 145.393 265.354 144.963 267.736 144.41C270.119 143.856 272.258 143.284 273.801 142.861L275.63 142.357C275.852 142.285 276.081 142.235 276.314 142.208C276.119 142.324 275.91 142.414 275.692 142.475C275.269 142.631 274.653 142.836 273.888 143.097C272.358 143.583 270.224 144.186 267.836 144.74C265.447 145.293 263.27 145.691 261.684 145.94C260.888 146.058 260.247 146.145 259.818 146.195C259.574 146.238 259.325 146.246 259.078 146.22Z" fill="#E0E0E0"/>
<path d="M248.492 133.655C248.663 133.788 248.819 133.938 248.959 134.103C249.245 134.402 249.649 134.843 250.147 135.397C251.136 136.498 252.485 138.034 253.966 139.751C255.446 141.468 256.771 143.023 257.698 144.161C258.17 144.733 258.55 145.2 258.805 145.523C258.954 145.681 259.079 145.859 259.178 146.052C259.006 145.921 258.849 145.771 258.712 145.604C258.426 145.305 258.021 144.864 257.524 144.31C256.535 143.209 255.179 141.673 253.705 139.956C252.23 138.239 250.899 136.684 249.973 135.546C249.5 134.974 249.12 134.514 248.865 134.184C248.714 134.029 248.588 133.85 248.492 133.655Z" fill="#E0E0E0"/>
<path d="M239.023 153.311C239.24 153.482 239.438 153.676 239.614 153.889L241.144 155.537C242.42 156.943 244.167 158.896 246.083 161.073C247.999 163.25 249.722 165.222 250.953 166.671L252.403 168.394C252.59 168.597 252.756 168.818 252.9 169.053C252.673 168.883 252.465 168.689 252.278 168.475L250.754 166.827C249.479 165.421 247.731 163.462 245.816 161.291C243.9 159.12 242.177 157.142 240.945 155.693L239.496 153.97C239.317 153.766 239.159 153.546 239.023 153.311Z" fill="#E0E0E0"/>
<path d="M252.664 168.562C252.943 168.459 253.23 168.38 253.522 168.326L255.867 167.791C257.845 167.337 260.582 166.696 263.58 165.925C266.578 165.153 269.271 164.363 271.225 163.791L273.532 163.113C273.811 163.014 274.098 162.942 274.391 162.896C274.13 163.037 273.854 163.149 273.569 163.231C273.035 163.424 272.257 163.692 271.293 164.009C269.359 164.631 266.665 165.458 263.661 166.242C260.657 167.026 257.908 167.635 255.911 168.033C254.916 168.232 254.107 168.382 253.541 168.469C253.253 168.53 252.959 168.561 252.664 168.562Z" fill="#E0E0E0"/>
<path d="M79.0574 48.2736C79.8895 47.8323 80.802 47.5636 81.7404 47.4834C82.6788 47.4032 83.6238 47.5133 84.5186 47.8071C86.307 48.4058 87.9346 49.4058 89.2769 50.7305C91.939 53.2185 93.6309 57.0314 94.651 60.527C90.7075 61.3916 86.565 59.1959 84.5373 57.9519C81.3277 55.9802 76.7249 50.4879 79.0574 48.2736Z" fill="#EBEBEB"/>
<path d="M101.546 61.2299C100.597 60.7803 99.7841 60.0879 99.1888 59.2228C98.5935 58.3577 98.2374 57.3506 98.1566 56.3036C98.0898 55.2533 98.2331 54.2002 98.578 53.2059C98.923 52.2116 99.4627 51.2961 100.166 50.5128C100.453 50.1145 100.826 49.7847 101.256 49.5471C101.686 49.3094 102.163 49.1698 102.654 49.1382C103.107 49.1776 103.541 49.3382 103.911 49.603C104.281 49.8678 104.573 50.2271 104.756 50.6434C105.115 51.4819 105.246 52.4003 105.135 53.3056C104.893 56.4156 104.09 59.3701 101.596 61.2299" fill="#EBEBEB"/>
<path d="M107.73 71.1443C107.73 71.1443 107.524 70.9764 107.201 70.6218C106.878 70.2673 106.411 69.751 105.864 69.0917C104.41 67.3773 103.192 65.4757 102.244 63.4377C101.276 61.3828 100.872 59.1071 101.074 56.8445C101.151 56.1636 101.306 55.4938 101.535 54.8479C101.61 54.6088 101.716 54.3808 101.852 54.1699C101.592 55.0501 101.408 55.9512 101.304 56.8632C101.175 59.0793 101.603 61.2924 102.548 63.3009C103.49 65.316 104.667 67.2119 106.057 68.9486L107.301 70.541C107.466 70.7255 107.61 70.9278 107.73 71.1443Z" fill="#E0E0E0"/>
<path d="M82.9378 52.1548C83.0368 52.1957 83.1307 52.2479 83.2177 52.3103L83.989 52.8079C84.6546 53.2433 85.6062 53.8964 86.7756 54.7112C89.1081 56.3408 92.2865 58.6671 95.7262 61.3231C99.1658 63.979 102.232 66.4546 104.434 68.2646L107.022 70.4229L107.718 71.0449C107.803 71.109 107.878 71.1843 107.942 71.2688C107.846 71.2225 107.756 71.164 107.675 71.0947L106.941 70.5411L104.285 68.4201C102.052 66.6536 98.9668 64.2091 95.5333 61.5781C92.0999 58.947 88.9401 56.6021 86.6387 54.8978L83.9144 52.9136L83.1804 52.3663C83.0125 52.2481 82.9316 52.1672 82.9378 52.1548Z" fill="#E0E0E0"/>
<path d="M100.217 66.9707C98.2665 65.9113 96.0913 65.3316 93.8718 65.2797C91.6524 65.2278 89.4524 65.7051 87.4541 66.6722C86.4464 67.1698 85.3766 68.0219 85.4574 69.1602C85.5383 70.2984 86.7014 70.9764 87.8086 71.2998C90.0767 71.9408 92.4837 71.8959 94.7263 71.1709C96.9689 70.4459 98.9467 69.0731 100.41 67.2258" fill="#EBEBEB"/>
<path d="M90.4688 68.4511C90.6603 68.3054 90.8692 68.1842 91.0908 68.0903C91.3369 67.9495 91.595 67.8309 91.862 67.7358C92.2097 67.5854 92.5671 67.4586 92.9319 67.3563C93.3674 67.2159 93.8122 67.1057 94.263 67.0267C94.779 66.9255 95.3002 66.8528 95.8242 66.809C97.0292 66.7348 98.2388 66.7911 99.4318 66.9769C100.62 67.1852 101.783 67.5166 102.903 67.9659C103.814 68.3357 104.688 68.7897 105.515 69.3219C105.836 69.5137 106.147 69.7212 106.448 69.9439C106.678 70.1065 106.898 70.2831 107.107 70.4726C107.301 70.6189 107.476 70.7881 107.63 70.9764C107.592 71.0324 106.815 70.3544 105.397 69.4898C103.548 68.4012 101.516 67.6592 99.4007 67.3004C98.2347 67.1161 97.053 67.0515 95.8739 67.1075C95.3591 67.1418 94.8463 67.202 94.3376 67.2879C93.8926 67.3563 93.4523 67.4518 93.019 67.574C91.4018 68.0094 90.4936 68.5195 90.4688 68.4511Z" fill="#E0E0E0"/>
<path d="M279.155 282.942C279.155 283.035 224.133 283.103 156.273 283.103C88.4126 283.103 33.3594 283.01 33.3594 282.942C33.3594 282.873 88.369 282.78 156.248 282.78C224.127 282.78 279.155 282.854 279.155 282.942Z" fill="#263238"/>
<path d="M62.6536 95.4333C62.6536 95.4333 62.7469 95.5453 62.9024 95.7692L63.5804 96.7457L66.143 100.478C66.15 100.485 66.1555 100.493 66.1593 100.502C66.1631 100.511 66.165 100.521 66.165 100.531C66.165 100.54 66.1631 100.55 66.1593 100.559C66.1555 100.568 66.15 100.577 66.143 100.583C66.1289 100.588 66.1136 100.588 66.0995 100.583H58.9154C58.8917 100.584 58.8689 100.575 58.8515 100.558C58.8342 100.542 58.8237 100.52 58.8221 100.496C58.8159 100.48 58.8159 100.463 58.8221 100.447L58.9838 100.583C57.0449 102.343 54.6904 103.58 52.1418 104.179C50.6938 104.518 49.203 104.638 47.7194 104.533C46.126 104.453 44.5564 104.113 43.0731 103.526C41.4944 102.914 40.0243 102.053 38.7191 100.975C37.3686 99.8501 36.2237 98.4989 35.3354 96.9821C33.4747 93.8285 32.7966 90.1158 33.4222 86.508C34.0478 82.9002 35.9363 79.6326 38.7502 77.2896C41.1528 75.2985 44.0998 74.0779 47.2067 73.7872C50.3135 73.4965 53.4359 74.1491 56.1662 75.6599C58.4119 76.9255 60.3078 78.7295 61.6833 80.9096C62.8115 82.705 63.555 84.715 63.8665 86.8124C63.9038 87.0425 63.9349 87.2665 63.966 87.4904C63.9971 87.7143 63.966 87.9382 64.0096 88.1497C64.0096 88.5851 64.0593 89.0018 64.0469 89.3937C64.0338 90.1212 63.9673 90.8467 63.8479 91.5645C63.6848 92.5572 63.4201 93.5306 63.0579 94.4692C62.9335 94.7864 62.8278 95.0352 62.7531 95.1845C62.7193 95.269 62.6776 95.3503 62.6287 95.4271C62.6528 95.3417 62.684 95.2585 62.722 95.1783C62.7842 95.0104 62.8838 94.7678 62.9957 94.4443C63.3272 93.5027 63.5709 92.5324 63.7235 91.5458C63.8313 90.8334 63.8874 90.1142 63.8914 89.3937C63.8914 88.9956 63.8541 88.5851 63.8416 88.1497C63.8416 87.9382 63.8416 87.7205 63.7919 87.4966L63.6861 86.8248C63.2712 84.1672 62.1585 81.6672 60.4617 79.5801C58.7649 77.493 56.5446 75.8935 54.0276 74.9448C51.5105 73.9962 48.7869 73.7324 46.1346 74.1804C43.4823 74.6284 40.9964 75.7721 38.9305 77.4948C36.2849 79.735 34.4743 82.8038 33.7928 86.2028C33.0874 89.8288 33.7264 93.5876 35.5904 96.7768C36.4668 98.2912 37.6014 99.6406 38.943 100.764C40.2186 101.813 41.6525 102.652 43.1912 103.252C44.652 103.847 46.2007 104.198 47.7754 104.291C49.235 104.398 50.7025 104.287 52.1294 103.961C54.6451 103.385 56.9736 102.18 58.8967 100.459C58.9061 100.448 58.9176 100.44 58.9304 100.434C58.9433 100.428 58.9573 100.425 58.9714 100.425C58.9855 100.425 58.9995 100.428 59.0123 100.434C59.0252 100.44 59.0367 100.448 59.046 100.459C59.0613 100.476 59.0698 100.498 59.0698 100.521C59.0698 100.544 59.0613 100.566 59.046 100.583L58.8843 100.44C58.9913 100.409 59.1025 100.394 59.214 100.397H60.9804H62.8464L66.0995 100.434L66.0373 100.552C64.955 98.9041 64.1091 97.6228 63.5493 96.7333L62.9273 95.7381C62.7034 95.5453 62.6536 95.4333 62.6536 95.4333Z" fill="#263238"/>
<path d="M49.8405 88.1248C50.4323 87.8634 50.9346 87.4341 51.285 86.8902C51.6355 86.3463 51.8188 85.7116 51.8122 85.0646C51.8122 84.2398 51.4846 83.4487 50.9013 82.8655C50.3181 82.2823 49.5271 81.9546 48.7022 81.9546C47.8774 81.9546 47.0864 82.2823 46.5031 82.8655C45.9199 83.4487 45.5922 84.2398 45.5922 85.0646C45.5763 85.7207 45.7559 86.3667 46.1081 86.9205C46.4603 87.4743 46.9693 87.9108 47.5702 88.1746C42.7994 88.8899 43.0171 94.0712 43.0171 94.0712L54.294 94.1271C54.294 94.1271 54.5677 88.8339 49.8405 88.1248Z" fill="#2581A2"/>
<path d="M252.758 32.4058H105.406V234.935H252.758V32.4058Z" fill="#FAFAFA"/>
<path d="M227.986 135.409H164.766V145.933H227.986V135.409Z" fill="#EBEBEB"/>
<path d="M170.968 143.197C170.57 143.197 170.18 143.078 169.849 142.857C169.517 142.635 169.259 142.321 169.107 141.953C168.954 141.584 168.914 141.179 168.992 140.788C169.07 140.397 169.262 140.038 169.543 139.756C169.825 139.474 170.184 139.283 170.575 139.205C170.966 139.127 171.371 139.167 171.74 139.319C172.108 139.472 172.423 139.73 172.644 140.062C172.865 140.393 172.984 140.783 172.984 141.181C172.984 141.716 172.771 142.228 172.393 142.606C172.015 142.984 171.503 143.197 170.968 143.197ZM170.968 139.322C170.599 139.322 170.239 139.431 169.932 139.636C169.625 139.841 169.386 140.132 169.244 140.473C169.103 140.814 169.066 141.19 169.138 141.552C169.21 141.914 169.388 142.246 169.649 142.507C169.91 142.768 170.242 142.946 170.604 143.018C170.966 143.09 171.342 143.053 171.682 142.911C172.023 142.77 172.315 142.531 172.52 142.224C172.725 141.917 172.834 141.557 172.834 141.188C172.833 140.694 172.635 140.221 172.286 139.872C171.936 139.523 171.462 139.328 170.968 139.328V139.322Z" fill="#263238"/>
<path d="M214.68 141.356C214.68 141.443 206.283 141.517 195.927 141.517C185.57 141.517 177.148 141.443 177.148 141.356C177.148 141.268 185.545 141.194 195.908 141.194C206.27 141.194 214.68 141.262 214.68 141.356Z" fill="#263238"/>
<path d="M252.758 50.0645H105.406V87.8136H252.758V50.0645Z" fill="#263238"/>
<path d="M252.758 32.4058H105.406V43.4152H252.758V32.4058Z" fill="#455A64"/>
<path d="M110.613 39.3914C111.431 39.3914 112.094 38.7286 112.094 37.911C112.094 37.0934 111.431 36.4307 110.613 36.4307C109.796 36.4307 109.133 37.0934 109.133 37.911C109.133 38.7286 109.796 39.3914 110.613 39.3914Z" fill="#263238"/>
<path d="M123.187 37.5936C123.187 37.8864 123.1 38.1726 122.938 38.4161C122.775 38.6595 122.544 38.8493 122.273 38.9613C122.003 39.0734 121.705 39.1027 121.418 39.0456C121.131 38.9884 120.867 38.8474 120.66 38.6404C120.453 38.4334 120.312 38.1696 120.255 37.8824C120.198 37.5953 120.227 37.2976 120.339 37.0271C120.451 36.7566 120.641 36.5254 120.884 36.3628C121.128 36.2001 121.414 36.1133 121.707 36.1133C122.099 36.1149 122.475 36.2714 122.752 36.5487C123.029 36.8259 123.186 37.2015 123.187 37.5936Z" fill="#263238"/>
<path d="M117.914 37.5936C117.914 37.8864 117.827 38.1726 117.664 38.4161C117.502 38.6595 117.27 38.8493 117 38.9613C116.729 39.0734 116.432 39.1027 116.145 39.0456C115.858 38.9884 115.594 38.8474 115.387 38.6404C115.18 38.4334 115.039 38.1696 114.982 37.8824C114.924 37.5953 114.954 37.2976 115.066 37.0271C115.178 36.7566 115.368 36.5254 115.611 36.3628C115.854 36.2001 116.141 36.1133 116.433 36.1133C116.826 36.1149 117.201 36.2714 117.478 36.5487C117.756 36.8259 117.912 37.2015 117.914 37.5936Z" fill="#263238"/>
<path d="M252.758 43.4155H105.406V50.0647H252.758V43.4155Z" fill="#E0E0E0"/>
<path d="M156.053 112.719C156.053 112.806 151.121 112.881 145.037 112.881C138.954 112.881 134.016 112.806 134.016 112.719C134.016 112.632 138.948 112.557 145.037 112.557C151.127 112.557 156.053 112.626 156.053 112.719Z" fill="#263238"/>
<path d="M156.053 117.888C156.053 117.981 151.121 118.056 145.037 118.056C138.954 118.056 134.016 117.981 134.016 117.888C134.016 117.794 138.948 117.726 145.037 117.726C151.127 117.726 156.053 117.801 156.053 117.888Z" fill="#263238"/>
<path d="M146.518 122.167C144.449 122.33 142.373 122.384 140.298 122.329C138.213 122.385 136.126 122.331 134.047 122.167C136.126 122.007 138.213 121.953 140.298 122.005C142.373 121.954 144.449 122.008 146.518 122.167Z" fill="#263238"/>
<path d="M228.27 94.3447H165.398V110.921H228.27V94.3447Z" fill="#EBEBEB"/>
<path d="M174.239 118.895C174.24 119.543 174.049 120.176 173.69 120.715C173.331 121.254 172.82 121.675 172.222 121.923C171.624 122.171 170.966 122.237 170.33 122.111C169.695 121.985 169.112 121.673 168.654 121.215C168.196 120.757 167.884 120.174 167.758 119.538C167.632 118.903 167.697 118.245 167.946 117.647C168.194 117.049 168.614 116.538 169.153 116.179C169.692 115.82 170.326 115.629 170.973 115.63C171.839 115.63 172.67 115.974 173.282 116.586C173.895 117.199 174.239 118.029 174.239 118.895Z" fill="#E0E0E0"/>
<path d="M227.987 116.55C227.987 116.637 217.457 116.712 204.469 116.712C191.482 116.712 180.945 116.637 180.945 116.55C180.945 116.463 191.476 116.388 204.469 116.388C217.463 116.388 227.987 116.457 227.987 116.55Z" fill="#263238"/>
<path d="M205.334 121.215C205.334 121.308 199.873 121.377 193.143 121.377C186.413 121.377 180.945 121.308 180.945 121.215C180.945 121.122 186.406 121.053 193.143 121.053C199.879 121.053 205.334 121.128 205.334 121.215Z" fill="#263238"/>
<path d="M227.991 126.508H215.477V128.231H227.991V126.508Z" fill="#2581A2"/>
<path d="M227.991 166.609H215.477V168.332H227.991V166.609Z" fill="#2581A2"/>
<path d="M215.476 151.195C215.476 151.289 204.523 151.357 191.007 151.357C177.491 151.357 166.531 151.289 166.531 151.195C166.531 151.102 177.491 151.034 191.007 151.034C204.523 151.034 215.476 151.108 215.476 151.195Z" fill="#263238"/>
<path d="M215.476 155.394C215.476 155.487 204.523 155.556 191.007 155.556C177.491 155.556 166.531 155.487 166.531 155.394C166.531 155.301 177.491 155.232 191.007 155.232C204.523 155.232 215.476 155.307 215.476 155.394Z" fill="#263238"/>
<path d="M215.476 159.593C215.476 159.686 204.523 159.755 191.007 159.755C177.491 159.755 166.531 159.686 166.531 159.593C166.531 159.5 177.491 159.431 191.007 159.431C204.523 159.431 215.476 159.506 215.476 159.593Z" fill="#263238"/>
<path d="M182.258 167.156C182.258 167.243 178.843 167.318 174.626 167.318C170.409 167.318 167 167.243 167 167.156C167 167.069 170.415 166.988 174.626 166.988C178.837 166.988 182.258 167.063 182.258 167.156Z" fill="#263238"/>
<path d="M227.986 177.749H164.766V215.604H227.986V177.749Z" fill="#455A64"/>
<path d="M164.766 215.604L191.002 198.436L199.038 204.159L215.471 193.149L227.986 202.834V215.604H164.766Z" fill="#263238"/>
<path d="M200.853 195.246C203.327 195.246 205.332 193.241 205.332 190.767C205.332 188.294 203.327 186.289 200.853 186.289C198.38 186.289 196.375 188.294 196.375 190.767C196.375 193.241 198.38 195.246 200.853 195.246Z" fill="#263238"/>
<path d="M139.29 131.764H132.703V138.351H139.29V131.764Z" fill="#E0E0E0"/>
<path d="M147.306 131.764H140.719V138.351H147.306V131.764Z" fill="#EBEBEB"/>
<path d="M155.384 131.764H148.797V138.351H155.384V131.764Z" fill="#EBEBEB"/>
<path d="M139.29 139.633H132.703V146.22H139.29V139.633Z" fill="#EBEBEB"/>
<path d="M147.306 139.633H140.719V146.22H147.306V139.633Z" fill="#F5F5F5"/>
<path d="M155.384 139.633H148.797V146.22H155.384V139.633Z" fill="#E0E0E0"/>
<path d="M139.29 147.507H132.703V154.094H139.29V147.507Z" fill="#E0E0E0"/>
<path d="M147.306 147.507H140.719V154.094H147.306V147.507Z" fill="#EBEBEB"/>
<path d="M155.384 147.507H148.797V154.094H155.384V147.507Z" fill="#E0E0E0"/>
<path d="M163.151 58.5234L126.609 58.7466L126.833 95.2884L163.374 95.0652L163.151 58.5234Z" fill="#2581A2"/>
<path opacity="0.2" d="M152.731 77.6939C152.613 77.8279 152.553 78.003 152.564 78.1812C152.574 78.3594 152.654 78.5262 152.787 78.6455C152.92 78.7643 153.095 78.8255 153.272 78.8155C153.45 78.8056 153.617 78.7255 153.736 78.5927C153.854 78.4599 153.916 78.2853 153.906 78.1074C153.896 77.9295 153.816 77.7629 153.683 77.6441C153.55 77.5255 153.375 77.4643 153.197 77.4736C153.019 77.4829 152.851 77.562 152.731 77.6939Z" fill="black"/>
<path opacity="0.2" d="M154.338 76.9851C154.068 76.7861 153.741 76.6787 153.405 76.6787C153.069 76.6787 152.743 76.7861 152.472 76.9851C152.273 77.1406 152.199 77.2899 152.236 77.321C152.273 77.3521 152.765 77.066 153.399 77.0722C154.033 77.0784 154.494 77.4205 154.562 77.3397C154.631 77.2588 154.537 77.1282 154.338 76.9851Z" fill="black"/>
<path opacity="0.2" d="M146.832 77.9241C146.679 77.8344 146.497 77.8083 146.325 77.8513C146.153 77.8943 146.005 78.0031 145.912 78.1543C145.866 78.2292 145.835 78.3127 145.821 78.3997C145.807 78.4868 145.811 78.5757 145.831 78.6613C145.852 78.747 145.89 78.8276 145.942 78.8986C145.994 78.9696 146.06 79.0295 146.136 79.0748C146.289 79.167 146.472 79.1952 146.645 79.1533C146.819 79.1114 146.969 79.0027 147.063 78.8509C147.153 78.6969 147.179 78.5138 147.136 78.3407C147.093 78.1676 146.984 78.0181 146.832 77.9241Z" fill="black"/>
<path opacity="0.2" d="M147.426 77.5884C147.16 77.3853 146.834 77.276 146.499 77.2774C146.164 77.2768 145.838 77.3812 145.566 77.5759C145.367 77.7314 145.292 77.8745 145.33 77.9118C145.367 77.9491 145.858 77.6568 146.499 77.663C147.14 77.6692 147.587 78.0051 147.662 77.9242C147.737 77.8434 147.625 77.7501 147.426 77.5884Z" fill="black"/>
<path opacity="0.2" d="M151.279 80.8973C150.91 79.7626 150.427 78.6684 149.836 77.6318C150.09 78.7961 150.461 79.9317 150.943 81.0217C151.117 81.4696 151.291 81.8925 151.453 82.3155C151.539 82.4581 151.582 82.622 151.578 82.7882C151.578 82.8815 151.434 82.9188 151.267 82.9375C150.914 82.9534 150.567 83.0291 150.24 83.1614C150.586 83.2305 150.942 83.2411 151.291 83.1925C151.388 83.1904 151.484 83.1779 151.578 83.1552C151.642 83.1344 151.701 83.0996 151.75 83.0534C151.8 83.0072 151.839 82.9506 151.864 82.8877C151.908 82.6529 151.873 82.41 151.764 82.1973C151.64 81.7744 151.447 81.3452 151.279 80.8973Z" fill="black"/>
<path opacity="0.1" d="M144.633 89.2881C144.633 89.2881 146.076 92.6096 150.685 92.1617V90.9675C148.545 91.0239 146.437 90.439 144.633 89.2881Z" fill="white"/>
<path opacity="0.2" d="M154.607 72.2204L154.544 72.2639H154.507C152.538 73.0295 150.346 72.9826 148.412 72.1333C145.924 71.1319 143.087 70.7711 142.509 71.2998C141.93 71.8285 141.999 74.3103 139.685 75.2184C139.685 75.2184 140.207 79.7901 138.397 79.8834H138.36C138.31 78.8384 138.267 77.8681 138.267 77.8681C138.142 77.831 138.015 77.8019 137.887 77.781C137.437 77.7008 136.975 77.7157 136.531 77.8246C135.81 78.0298 135.15 78.6145 135.206 80.1073C135.3 82.5953 137.278 82.6451 138.111 82.502L138.733 95.2033L150.732 95.1286C150.775 94.1583 150.732 93.4679 150.732 92.6095V92.1492C146.123 92.5971 144.68 89.2756 144.68 89.2756C146.479 90.423 148.58 91.0077 150.713 90.955V91.0172C150.8 91.0172 155.322 90.2273 155.347 85.6493C155.328 82.2159 154.849 75.4423 154.607 72.2204ZM137.334 81.4135C137.262 81.4642 137.181 81.4992 137.096 81.5163C137.01 81.5335 136.921 81.5324 136.836 81.513C136.578 81.3997 136.36 81.2131 136.207 80.9765C136.054 80.7398 135.975 80.4635 135.978 80.182C135.958 79.8767 136.013 79.5713 136.139 79.2925C136.18 79.1673 136.253 79.0547 136.35 78.9654C136.447 78.8761 136.565 78.8131 136.693 78.7825C136.802 78.7645 136.913 78.789 137.004 78.8509C137.067 78.8993 137.113 78.967 137.135 79.0437C137.166 79.1743 137.135 79.2365 137.097 79.2303C137.06 79.2241 137.097 79.1619 137.054 79.0748C137.023 79.0172 136.974 78.972 136.914 78.947C136.853 78.922 136.786 78.9188 136.724 78.938C136.627 78.9719 136.54 79.0295 136.47 79.1055C136.401 79.1815 136.351 79.2735 136.326 79.3734C136.226 79.6261 136.183 79.8982 136.202 80.1695C136.198 80.4109 136.259 80.6489 136.378 80.8588C136.497 81.0688 136.671 81.2431 136.88 81.3638C137.012 81.4157 137.158 81.4157 137.29 81.3638C137.377 81.3202 137.421 81.2705 137.433 81.2767C137.446 81.2829 137.458 81.3327 137.334 81.4135ZM152.884 75.6103C153.792 75.5605 154.426 76.0083 154.345 76.1576C154.265 76.3069 153.655 76.2136 152.921 76.2571C152.187 76.3007 151.577 76.4686 151.49 76.3069C151.403 76.1452 151.957 75.6538 152.884 75.6103ZM144.4 75.7533C144.4 75.5667 145.059 75.4796 145.818 75.4485L146.776 75.3988C147.012 75.3988 147.174 75.3988 147.223 75.4548C147.273 75.5107 147.168 75.6973 146.906 75.8404C146.575 75.9956 146.215 76.0824 145.849 76.0954C144.997 76.1265 144.362 75.9275 144.375 75.7533H144.4ZM147.08 78.8633C146.987 79.0151 146.837 79.1238 146.663 79.1657C146.49 79.2076 146.306 79.1794 146.154 79.0872C146.078 79.0419 146.012 78.982 145.96 78.911C145.908 78.8401 145.87 78.7594 145.849 78.6738C145.828 78.5881 145.825 78.4992 145.839 78.4122C145.852 78.3251 145.883 78.2417 145.93 78.1667C146.023 78.0155 146.171 77.9067 146.343 77.8637C146.515 77.8207 146.697 77.8468 146.85 77.9365C146.994 78.0342 147.096 78.1832 147.134 78.3531C147.172 78.5229 147.144 78.701 147.056 78.8509L147.08 78.8633ZM147.702 77.9365C147.628 78.0174 147.174 77.6753 146.539 77.6753C145.905 77.6753 145.438 78.005 145.37 77.9241C145.302 77.8432 145.407 77.7437 145.606 77.5882C145.878 77.3935 146.205 77.2891 146.539 77.2897C146.874 77.2883 147.2 77.3976 147.466 77.6007C147.622 77.7499 147.69 77.893 147.659 77.9241L147.702 77.9365ZM149.438 84.8159C148.592 84.5297 148.194 83.858 148.293 83.8207C148.393 83.7833 148.803 84.2685 149.537 84.5111C150 84.6163 150.47 84.6891 150.943 84.7288C150.713 84.8727 150.45 84.9552 150.178 84.9683C149.907 84.9813 149.637 84.9246 149.394 84.8034L149.438 84.8159ZM151.926 82.9001C151.901 82.963 151.862 83.0196 151.813 83.0658C151.763 83.112 151.704 83.1468 151.64 83.1676C151.546 83.1903 151.45 83.2028 151.354 83.2049C151.004 83.2534 150.649 83.2429 150.302 83.1738C150.629 83.0415 150.976 82.9658 151.329 82.9499C151.497 82.9499 151.627 82.8939 151.64 82.8006C151.644 82.6344 151.601 82.4705 151.515 82.3279C151.354 81.9049 151.179 81.4819 151.005 81.0341C150.524 79.9441 150.153 78.8084 149.898 77.6442C150.489 78.6808 150.973 79.7749 151.341 80.9097C151.509 81.3575 151.671 81.7867 151.826 82.2097C151.912 82.4257 151.925 82.6636 151.864 82.8877L151.926 82.9001ZM153.792 78.6021C153.674 78.7344 153.508 78.8145 153.331 78.825C153.153 78.8355 152.979 78.7755 152.846 78.6581C152.781 78.5993 152.727 78.5281 152.689 78.4486C152.651 78.3691 152.628 78.2828 152.623 78.1947C152.619 78.1067 152.631 78.0185 152.66 77.9352C152.689 77.852 152.735 77.7753 152.793 77.7095C152.852 77.6438 152.923 77.5902 153.003 77.552C153.082 77.5137 153.169 77.4915 153.257 77.4866C153.345 77.4817 153.433 77.4942 153.516 77.5234C153.6 77.5525 153.676 77.5978 153.742 77.6566C153.861 77.7835 153.927 77.9516 153.924 78.1257C153.922 78.2997 153.852 78.466 153.73 78.5896L153.792 78.6021ZM154.625 77.3581C154.557 77.4389 154.103 77.0906 153.462 77.0906C152.821 77.0906 152.367 77.4203 152.299 77.3394C152.231 77.2586 152.336 77.159 152.535 77.0035C152.806 76.8045 153.133 76.6971 153.468 76.6971C153.804 76.6971 154.131 76.8045 154.401 77.0035C154.532 77.1279 154.6 77.2897 154.563 77.327L154.625 77.3581Z" fill="white"/>
<path opacity="0.1" d="M136.906 81.3634C136.697 81.2427 136.524 81.0684 136.404 80.8584C136.285 80.6485 136.224 80.4105 136.228 80.1692C136.209 79.8978 136.252 79.6258 136.352 79.373C136.377 79.2731 136.427 79.1811 136.496 79.1051C136.566 79.0291 136.653 78.9715 136.75 78.9376C136.813 78.9185 136.88 78.9217 136.94 78.9466C137 78.9716 137.05 79.0168 137.08 79.0744C137.124 79.1615 137.08 79.2237 137.124 79.2299C137.167 79.2362 137.192 79.174 137.161 79.0433C137.139 78.9666 137.094 78.8989 137.03 78.8505C136.939 78.7887 136.828 78.7642 136.719 78.7821C136.591 78.8127 136.473 78.8757 136.376 78.965C136.279 79.0543 136.207 79.1669 136.166 79.2921C136.04 79.5709 135.984 79.8763 136.004 80.1816C136.001 80.4632 136.081 80.7394 136.233 80.9761C136.386 81.2127 136.605 81.3993 136.862 81.5127C136.948 81.532 137.036 81.5331 137.122 81.516C137.207 81.4988 137.289 81.4638 137.36 81.4132C137.459 81.3323 137.472 81.2577 137.459 81.2514C137.447 81.2452 137.403 81.295 137.316 81.3385C137.188 81.3986 137.041 81.4075 136.906 81.3634Z" fill="white"/>
<path opacity="0.2" d="M138.055 68.7121C138.123 68.6623 137.818 68.1896 137.184 67.9968C136.55 67.804 136.027 67.9968 136.064 68.1025C136.102 68.2083 136.556 68.1398 137.091 68.3078C137.626 68.4757 137.961 68.7743 138.055 68.7121Z" fill="black"/>
<path opacity="0.2" d="M138.54 68.8556C138.362 68.4241 138.213 67.9816 138.092 67.5307C138.054 67.0472 137.971 66.5682 137.844 66.1001C137.652 66.5776 137.628 67.1061 137.775 67.5991C137.854 68.098 138.105 68.5537 138.484 68.8867C138.484 68.8867 138.528 68.8867 138.534 68.8867C138.54 68.8867 138.547 68.8742 138.54 68.8556Z" fill="black"/>
<path opacity="0.2" d="M152.887 76.2572C153.621 76.2137 154.237 76.3319 154.311 76.1577C154.386 75.9836 153.758 75.5357 152.85 75.6104C151.941 75.685 151.357 76.1577 151.456 76.307C151.556 76.4563 152.159 76.2883 152.887 76.2572Z" fill="black"/>
<path opacity="0.2" d="M145.832 76.0952C146.198 76.0822 146.558 75.9955 146.89 75.8402C147.151 75.6972 147.256 75.523 147.207 75.4546C147.157 75.3862 146.995 75.3924 146.759 75.3986L145.801 75.4484C145.042 75.4484 144.389 75.5666 144.383 75.7532C144.377 75.9398 145.005 76.1263 145.832 76.0952Z" fill="black"/>
<path opacity="0.2" d="M148.253 83.808C148.172 83.8453 148.551 84.5171 149.397 84.8032C149.637 84.9158 149.9 84.9669 150.164 84.9517C150.428 84.9364 150.684 84.8555 150.909 84.7161C150.436 84.6764 149.966 84.6037 149.503 84.4984C148.763 84.2559 148.327 83.752 148.253 83.808Z" fill="black"/>
<path opacity="0.2" d="M154.86 64.6876C154.064 63.9716 153.07 63.5135 152.009 63.3736C150.947 63.2337 149.868 63.4186 148.914 63.9039C148.043 64.3704 147.303 65.0794 146.364 65.378C145.238 65.7325 144.025 65.4278 142.849 65.3407C141.674 65.2536 140.299 65.49 139.708 66.51C139.329 67.132 139.347 68.0339 138.831 68.5937C138.746 68.6899 138.647 68.7736 138.539 68.8425C138.539 68.8425 138.539 68.8425 138.539 68.8799C138.539 68.9172 138.539 68.8799 138.489 68.8799C137.761 69.3153 136.729 69.1909 135.883 69.5019C135.401 69.6857 134.979 69.999 134.664 70.4073C134.349 70.8156 134.153 71.303 134.098 71.8157C134.054 72.3284 134.131 72.8442 134.321 73.3224C134.511 73.8005 134.809 74.228 135.193 74.5712C135.676 74.9109 136.097 75.3318 136.437 75.8152C136.678 76.4737 136.708 77.1911 136.524 77.8678C136.968 77.7589 137.429 77.744 137.88 77.8242C138.008 77.8451 138.134 77.8742 138.259 77.9113C138.259 77.9113 138.303 78.8816 138.352 79.9266H138.39C140.2 79.8333 139.677 75.2616 139.677 75.2616C141.991 74.3535 141.923 71.8717 142.501 71.343C143.079 70.8143 145.916 71.175 148.404 72.1765C150.338 73.0257 152.53 73.0727 154.499 72.3071H154.537L154.599 72.2635L154.754 72.1516L154.891 72.0769C155.396 71.7026 155.791 71.2001 156.036 70.6215C156.469 69.6307 156.589 68.5309 156.379 67.47C156.169 66.4092 155.639 65.4381 154.86 64.6876Z" fill="black"/>
<path d="M252.617 32.4061L252.76 32.5554H105.427L105.595 32.3937C105.595 108.085 105.595 178.153 105.564 234.923L105.427 234.792L252.779 234.923L105.427 235.06H105.297V234.923C105.297 178.153 105.297 108.085 105.266 32.3937V32.2319H105.446H252.779H252.928V32.375C252.841 152.185 252.785 233.611 252.779 234.904" fill="#263238"/>
<path d="M53.2868 174.228L54.0892 175.939C54.4235 176.946 54.8569 177.916 55.383 178.837C55.6374 179.303 55.9674 179.724 56.3595 180.081C56.8332 180.537 57.3668 180.927 57.9456 181.238C58.0597 181.285 58.1573 181.365 58.2259 181.467C58.2946 181.57 58.3313 181.69 58.3313 181.814C58.3313 181.937 58.2946 182.058 58.2259 182.16C58.1573 182.262 58.0597 182.342 57.9456 182.389C57.4107 182.52 55.8557 181.923 54.5308 180.523C53.206 179.124 53.4112 182.159 53.461 183.272C53.5108 184.386 53.5294 187.838 53.1998 188.13C52.7146 188.553 52.1735 188.13 52.1424 186.998C52.1113 185.866 51.794 182.551 51.2031 182.607C50.6122 182.663 50.9854 188.329 50.9854 188.329C50.9854 188.329 51.2591 189.53 50.5811 189.623C49.3371 189.778 49.4242 183.726 49.4429 183.148C49.4429 182.75 48.8209 182.787 48.8209 183.223C48.8209 183.658 49.306 188.864 48.0683 189.044C47.1166 189.175 48.0683 184.068 47.3778 183.036C46.6874 182.003 47.042 186.992 46.1338 187.079C45.798 187.116 45.5118 187.079 45.7358 184.205C45.9597 181.332 47.8132 173.32 47.8132 173.32L53.3739 174.309" fill="#FFBE9D"/>
<path d="M75.3571 131.814C75.3571 131.814 57.9411 148.814 57.5306 151.015C57.1201 153.217 54.6134 177.618 54.6134 177.618L46.6518 176.828C46.6518 176.828 45.9054 146.749 48.3934 143.682C50.8814 140.616 60.8334 129.121 60.8334 129.121L75.3571 131.814Z" fill="#FFBE9D"/>
<path d="M49.1399 146.873C49.1399 146.873 49.028 146.811 48.9098 146.63C48.7418 146.37 48.6592 146.063 48.6734 145.753C48.6782 145.52 48.7369 145.29 48.8448 145.083C48.9526 144.876 49.1069 144.697 49.2954 144.559C49.5274 144.383 49.8033 144.274 50.0929 144.245C50.3826 144.215 50.6748 144.266 50.9375 144.391C51.219 144.53 51.4402 144.766 51.5595 145.057C51.6688 145.328 51.6688 145.631 51.5595 145.902C51.5093 146.015 51.4363 146.116 51.3451 146.199C51.254 146.282 51.1467 146.346 51.0299 146.386C50.9131 146.425 50.7894 146.44 50.6664 146.43C50.5435 146.42 50.424 146.384 50.3155 146.325C50.176 146.237 50.0698 146.105 50.0135 145.949C49.9572 145.794 49.9541 145.624 50.0045 145.467C50.0854 145.249 50.216 145.193 50.216 145.206C50.216 145.218 50.1414 145.305 50.1103 145.492C50.0785 145.619 50.0878 145.754 50.137 145.875C50.1861 145.997 50.2726 146.1 50.3839 146.17C50.4683 146.209 50.5596 146.231 50.6526 146.235C50.7456 146.238 50.8383 146.223 50.9252 146.19C51.0122 146.156 51.0917 146.106 51.1589 146.042C51.2262 145.978 51.2799 145.901 51.3169 145.815C51.3959 145.616 51.3959 145.393 51.3169 145.193C51.2246 144.965 51.0489 144.781 50.8256 144.677C50.6068 144.571 50.3632 144.526 50.121 144.548C49.8788 144.57 49.6471 144.658 49.4509 144.802C49.2781 144.912 49.1324 145.06 49.0247 145.234C48.917 145.409 48.8501 145.605 48.8289 145.809C48.827 146.186 48.9351 146.556 49.1399 146.873Z" fill="#EB996E"/>
<path d="M111.976 88.4175C111.858 88.7471 110.328 110.729 110.328 110.729L119.148 110.057L121.331 90.9304L111.976 88.4175Z" fill="#455A64"/>
<path d="M110.329 110.729L109.141 110.387L110.845 88.0879L112.12 88.4549L110.329 110.729Z" fill="#263238"/>
<path d="M117.024 94.1771C117.309 94.1771 117.54 93.9459 117.54 93.6608C117.54 93.3757 117.309 93.1445 117.024 93.1445C116.739 93.1445 116.508 93.3757 116.508 93.6608C116.508 93.9459 116.739 94.1771 117.024 94.1771Z" fill="#263238"/>
<path d="M107.36 121.626L122.91 125.663L120.453 107.239L120.136 106.356L114.438 105.479L115.116 101.274C115.2 100.808 115.38 100.365 115.643 99.9722C115.907 99.5793 116.249 99.2453 116.648 98.9911C117.047 98.7369 117.495 98.5681 117.962 98.4954C118.43 98.4226 118.907 98.4474 119.365 98.5683L121.231 99.0659C121.895 99.2384 122.515 99.5492 123.051 99.9779C123.587 100.407 124.026 100.944 124.341 101.554C125.417 103.669 126.474 105.983 126.375 105.783L134.709 128.399C135.436 129.849 135.736 131.476 135.573 133.089C135.41 134.703 134.791 136.237 133.789 137.512C131.102 141.001 124.614 138.575 121.56 137.984L101.656 133.599L107.36 121.626Z" fill="#FFBE9D"/>
<path d="M76.3297 99.1714C76.3912 99.3503 76.4005 99.543 76.3564 99.727C76.3124 99.911 76.2168 100.079 76.0809 100.21C75.9419 100.337 75.7694 100.42 75.584 100.451C75.3987 100.482 75.2084 100.459 75.0359 100.384C74.3766 100.098 74.2522 99.2274 74.3393 98.5183C74.4263 97.8092 74.6254 97.0442 74.2895 96.4097C73.9747 95.9644 73.5829 95.579 73.1326 95.2715C72.7805 94.9485 72.5076 94.5487 72.335 94.1032C72.1624 93.6577 72.0948 93.1785 72.1374 92.7026C72.1922 92.2288 72.3769 91.7795 72.6711 91.4041C72.9652 91.0287 73.3574 90.7419 73.8043 90.5754C74.7249 90.2581 75.8943 90.4821 76.5536 89.773C77.0263 89.2505 77.0139 88.4481 77.3746 87.8386C77.9282 86.8994 79.2033 86.6879 80.2918 86.7749C81.3803 86.862 82.4999 87.1482 83.5511 86.8309C84.4219 86.5635 85.1123 85.9041 85.9209 85.4812C86.8041 85.0155 87.8109 84.838 88.8002 84.9734C89.7894 85.1088 90.7115 85.5504 91.4371 86.2362C92.1628 86.9221 92.6556 87.8178 92.8465 88.7979C93.0374 89.7779 92.9168 90.7931 92.5017 91.7012C92.2306 92.3652 91.7354 92.9133 91.1022 93.25" fill="#263238"/>
<path d="M77.4203 117.732L87.7206 116.936C87.7828 115.735 87.7206 111.083 87.7206 111.083C87.7206 111.083 92.0062 110.417 92.0746 106.107C92.143 101.796 91.3842 91.9874 91.3842 91.9874C88.9487 90.9418 86.2787 90.5636 83.6486 90.8916C81.0185 91.2195 78.5231 92.2418 76.4189 93.8534L75.7969 94.3447L77.4203 117.732Z" fill="#FFBE9D"/>
<path d="M90.3522 99.3395C90.2304 99.2288 90.1574 99.0743 90.1492 98.9099C90.141 98.7455 90.1984 98.5846 90.3086 98.4624C90.3638 98.402 90.4303 98.353 90.5043 98.3182C90.5784 98.2835 90.6586 98.2637 90.7403 98.2599C90.822 98.2562 90.9037 98.2686 90.9806 98.2964C91.0576 98.3242 91.1283 98.3669 91.1887 98.422C91.2492 98.4771 91.2982 98.5436 91.3329 98.6177C91.3677 98.6918 91.3875 98.772 91.3912 98.8537C91.395 98.9354 91.3826 99.0171 91.3548 99.094C91.327 99.171 91.2843 99.2417 91.2292 99.3021C91.1176 99.4231 90.9627 99.4949 90.7984 99.5019C90.634 99.5089 90.4736 99.4505 90.3522 99.3395Z" fill="#263238"/>
<path d="M91.3963 98.363C91.3279 98.4376 90.9111 98.1142 90.3202 98.1142C89.7293 98.1142 89.3001 98.4127 89.2379 98.3381C89.1757 98.2635 89.269 98.1702 89.4556 98.0271C89.7106 97.8479 90.0148 97.7523 90.3264 97.7534C90.6375 97.7566 90.939 97.8614 91.1848 98.052C91.3652 98.195 91.4274 98.3319 91.3963 98.363Z" fill="#263238"/>
<path d="M84.5899 98.8982C84.6943 98.9628 84.7773 99.0569 84.8284 99.1687C84.8794 99.2804 84.8962 99.4048 84.8767 99.526C84.8572 99.6473 84.8022 99.7601 84.7186 99.8502C84.6351 99.9402 84.5268 100.004 84.4073 100.032C84.2878 100.061 84.1625 100.053 84.0473 100.011C83.9321 99.9682 83.832 99.8925 83.7597 99.7932C83.6874 99.6938 83.6462 99.5753 83.6411 99.4526C83.6361 99.3298 83.6676 99.2084 83.7315 99.1035C83.7742 99.0334 83.8303 98.9725 83.8966 98.9242C83.963 98.876 84.0382 98.8413 84.118 98.8222C84.1977 98.8032 84.2805 98.8 84.3615 98.8131C84.4425 98.8261 84.5201 98.8551 84.5899 98.8982Z" fill="#263238"/>
<path d="M84.9902 98.898C84.9218 98.9727 84.4988 98.6492 83.9079 98.643C83.317 98.6368 82.894 98.9478 82.8256 98.8732C82.7572 98.7985 82.8629 98.7052 83.0495 98.5622C83.2994 98.3775 83.6035 98.2812 83.9141 98.2885C84.224 98.2925 84.5246 98.3948 84.7725 98.5808C84.9591 98.7176 85.0213 98.8483 84.9902 98.898Z" fill="#263238"/>
<path d="M87.3483 103.75C87.6523 103.631 87.9739 103.564 88.3 103.551C88.4555 103.551 88.5799 103.501 88.5923 103.414C88.5926 103.26 88.5541 103.108 88.4804 102.972C88.3249 102.58 88.1756 102.189 88.0139 101.772C87.5704 100.76 87.2307 99.7052 87 98.6245C87.5456 99.5855 87.9896 100.601 88.3249 101.654C88.4804 102.07 88.6234 102.468 88.7665 102.867C88.8632 103.059 88.8938 103.277 88.8536 103.489C88.8304 103.547 88.7943 103.599 88.7479 103.641C88.7016 103.683 88.6462 103.714 88.5861 103.731C88.5008 103.754 88.4131 103.767 88.3249 103.768C88.0007 103.819 87.6702 103.813 87.3483 103.75Z" fill="#263238"/>
<path d="M85.4395 104.403C86.3593 104.817 87.333 105.1 88.3318 105.243C88.1317 105.552 87.8331 105.785 87.4843 105.903C87.1355 106.022 86.7569 106.019 86.4098 105.896C85.1285 105.423 85.4395 104.403 85.4395 104.403Z" fill="white"/>
<path d="M87.6996 110.99C85.7172 111.031 83.7679 110.478 82.1016 109.404C82.1016 109.404 83.4202 112.514 87.6996 112.103V110.99Z" fill="#EB996E"/>
<path d="M91.4321 93.0573C91.4321 93.0573 88.9441 94.5066 85.4174 93.0573C83.116 92.1119 80.4849 91.7635 79.95 92.2549C79.4151 92.7463 79.4586 95.0353 77.3065 95.8687C77.3065 95.8687 77.7854 100.223 76.0625 100.223C74.3395 100.223 74.8993 93.3496 74.8993 93.3496L78.9983 90.9549L83.5825 89.7109L88.0049 90.0033L91.4632 90.6813L91.4321 93.0573Z" fill="#263238"/>
<path d="M76.2729 98.7861C76.1982 98.7861 73.3308 97.9153 73.4241 100.845C73.5174 103.775 76.4346 103.078 76.4408 102.991C76.447 102.904 76.2729 98.7861 76.2729 98.7861Z" fill="#FFBE9D"/>
<path d="M75.5119 101.908C75.5119 101.908 75.4621 101.946 75.3813 101.989C75.3202 102.015 75.2547 102.028 75.1885 102.028C75.1222 102.028 75.0567 102.015 74.9956 101.989C74.8011 101.877 74.6406 101.714 74.5311 101.518C74.4216 101.322 74.3672 101.1 74.3736 100.876C74.3694 100.623 74.4203 100.373 74.5229 100.142C74.5461 100.049 74.5917 99.9642 74.6557 99.8936C74.7197 99.8231 74.8002 99.7695 74.8899 99.7375C74.9489 99.7214 75.0115 99.7255 75.0679 99.7492C75.1243 99.7729 75.1711 99.8147 75.2009 99.8681C75.2382 99.949 75.2009 100.011 75.2382 100.011C75.2755 100.011 75.3004 99.9614 75.2755 99.8432C75.2534 99.7719 75.21 99.7089 75.1511 99.6629C75.068 99.6044 74.9656 99.5799 74.865 99.5944C74.7457 99.6224 74.6355 99.6806 74.5451 99.7633C74.4547 99.8461 74.3871 99.9507 74.3488 100.067C74.231 100.324 74.1796 100.606 74.1995 100.888C74.1927 101.15 74.2635 101.408 74.4029 101.629C74.5424 101.85 74.7443 102.025 74.9832 102.132C75.0621 102.151 75.1441 102.152 75.2236 102.136C75.3031 102.12 75.3781 102.087 75.4435 102.039C75.5119 102.008 75.5243 101.915 75.5119 101.908Z" fill="#EB996E"/>
<path d="M74.2827 89.7108C74.2516 89.63 74.7367 89.4185 75.3276 89.6051C75.9185 89.7917 76.1984 90.2271 76.13 90.2831C76.0616 90.339 75.7257 90.0654 75.2281 89.9161C74.7305 89.7668 74.3075 89.7979 74.2827 89.7108Z" fill="#263238"/>
<path d="M75.9492 87.8574C76.0487 87.8574 76.0425 88.4794 76.1793 89.1885C76.3162 89.8976 76.6458 90.4325 76.5712 90.4325C76.4966 90.4325 76.0176 90.022 75.8621 89.2258C75.7298 88.7736 75.7606 88.2892 75.9492 87.8574Z" fill="#263238"/>
<path d="M88.5273 97.3989C88.4278 97.2558 88.9751 96.7769 89.821 96.7458C90.667 96.7147 91.2578 97.1314 91.177 97.2807C91.0961 97.43 90.555 97.3554 89.8521 97.3927C89.1493 97.43 88.6144 97.5606 88.5273 97.3989Z" fill="#263238"/>
<path d="M81.9792 96.8516C81.8859 96.7085 82.427 96.2296 83.2792 96.1923C84.1313 96.1549 84.7097 96.5779 84.6289 96.7334C84.548 96.8889 84.0069 96.8018 83.304 96.8391C82.6012 96.8765 82.0352 97.032 81.9792 96.8516Z" fill="#263238"/>
<path d="M57.7226 277.897L56.6963 282.189C56.6963 282.189 49.6864 291.295 47.5218 290.853C46.1037 290.561 47.8453 288.185 50.5136 281.262L51.0734 278.407L57.7226 277.897Z" fill="#455A64"/>
<path d="M47.2188 289.51C47.3072 289.661 47.4366 289.784 47.5919 289.864C47.8112 289.961 48.0529 289.994 48.2901 289.961C48.5273 289.928 48.7507 289.83 48.9355 289.678C50.1663 288.648 51.3317 287.543 52.4249 286.369C53.7249 285.006 54.8134 283.694 55.5846 282.73L56.4803 281.579L56.7229 281.262C56.7502 281.224 56.7815 281.188 56.8162 281.156L56.7416 281.281L56.5176 281.604C56.3248 281.89 56.0263 282.295 55.6531 282.786C54.6845 284.067 53.6463 285.294 52.5431 286.462C51.4479 287.642 50.2692 288.741 49.0163 289.752C48.7837 289.918 48.511 290.019 48.2264 290.045C48.0103 290.059 47.7945 290.012 47.6044 289.908C47.4808 289.847 47.3772 289.752 47.3058 289.634C47.2673 289.6 47.2375 289.558 47.2188 289.51Z" fill="#263238"/>
<path d="M48.2109 286.58C48.3943 286.507 48.5939 286.483 48.7894 286.512C49.2591 286.559 49.7109 286.717 50.108 286.972C50.522 287.208 50.8573 287.561 51.0721 287.986C51.1653 288.158 51.2164 288.35 51.2214 288.546C51.2214 288.546 51.153 288.334 50.9913 288.023C50.7625 287.63 50.4343 287.304 50.0396 287.078C49.6612 286.837 49.2382 286.674 48.7956 286.599C48.6012 286.582 48.406 286.576 48.2109 286.58Z" fill="#263238"/>
<path d="M54.8493 284.441C54.8132 284.376 54.786 284.307 54.7685 284.235C54.7026 284.038 54.6507 283.837 54.613 283.632C54.5133 282.963 54.6287 282.279 54.9426 281.679C55.2489 281.074 55.7479 280.588 56.3608 280.298C56.5457 280.217 56.74 280.158 56.9392 280.124C57.0823 280.124 57.1632 280.124 57.1632 280.124C56.9012 280.195 56.6454 280.286 56.3981 280.398C55.8242 280.704 55.3609 281.183 55.0732 281.766C54.7745 282.34 54.6512 282.989 54.7187 283.632C54.7747 284.136 54.8742 284.434 54.8493 284.441Z" fill="#263238"/>
<path d="M57.2548 278.656C57.2548 278.656 57.1304 279.278 56.9936 280.025C56.9432 280.49 56.8215 280.946 56.6328 281.374C56.6328 281.374 56.7386 280.752 56.8692 280.006C56.9251 279.538 57.0553 279.083 57.2548 278.656Z" fill="#263238"/>
<path d="M50.375 281.871C50.6697 281.787 50.9822 281.787 51.2769 281.871C51.5782 281.919 51.8592 282.053 52.0855 282.257C52.0855 282.294 51.7185 282.108 51.2458 281.996C50.7731 281.884 50.3812 281.909 50.375 281.871Z" fill="#263238"/>
<path d="M50.2578 282.605C50.4991 282.505 50.768 282.494 51.0167 282.574C51.2747 282.615 51.5103 282.745 51.6822 282.941C51.6822 282.972 51.3774 282.792 50.9856 282.699C50.5937 282.605 50.2578 282.643 50.2578 282.605Z" fill="#263238"/>
<path d="M49.6719 283.526C49.9129 283.398 50.1917 283.361 50.4577 283.422C50.7237 283.482 50.9592 283.636 51.1211 283.856C50.9024 283.73 50.671 283.628 50.4307 283.551C50.1796 283.514 49.9249 283.505 49.6719 283.526Z" fill="#263238"/>
<path d="M50.8828 281.561C50.8828 281.561 51.2063 281.474 51.7039 281.281C51.996 281.166 52.2788 281.029 52.5498 280.87C52.7108 280.78 52.8665 280.68 53.0163 280.572C53.1593 280.466 53.3148 280.317 53.3086 280.149C53.3024 279.981 53.0971 279.894 52.9354 279.937C52.7696 279.993 52.6215 280.092 52.5062 280.223C52.245 280.466 52.0273 280.696 51.8469 280.895C51.4862 281.299 51.2871 281.567 51.2747 281.554C51.3016 281.479 51.3416 281.41 51.3929 281.349C51.5124 281.172 51.6411 281.002 51.7785 280.839C51.9716 280.593 52.1793 280.358 52.4005 280.136C52.5271 279.983 52.6958 279.871 52.8857 279.813C52.9421 279.795 53.0017 279.79 53.0604 279.797C53.1191 279.805 53.1755 279.825 53.2258 279.856C53.276 279.887 53.3188 279.929 53.3514 279.979C53.3839 280.028 53.4054 280.084 53.4144 280.142C53.4026 280.253 53.365 280.359 53.3044 280.452C53.2439 280.545 53.1622 280.622 53.066 280.677C52.9043 280.789 52.7426 280.889 52.5871 280.976C52.3057 281.13 52.0124 281.261 51.7101 281.368C51.5065 281.437 51.2987 281.493 51.0881 281.536C51.0208 281.552 50.952 281.56 50.8828 281.561Z" fill="#263238"/>
<path d="M51.2262 281.474C51.2262 281.474 51.1765 281.169 51.0956 280.69C51.0572 280.419 50.9862 280.154 50.8841 279.9C50.815 279.751 50.7273 279.611 50.6229 279.483C50.5172 279.365 50.3492 279.259 50.2248 279.34C50.1004 279.421 50.0755 279.608 50.0942 279.763C50.1199 279.926 50.1659 280.085 50.231 280.236C50.3463 280.492 50.4994 280.729 50.6851 280.939C51.0148 281.3 51.2636 281.474 51.2511 281.492C51.1828 281.466 51.1197 281.428 51.0645 281.38C50.9023 281.27 50.7522 281.143 50.6167 281.001C50.4121 280.79 50.244 280.546 50.1191 280.28C50.0453 280.122 49.995 279.954 49.9698 279.782C49.9442 279.681 49.9481 279.574 49.9812 279.475C50.0143 279.376 50.0751 279.288 50.1564 279.222C50.2564 279.185 50.3661 279.182 50.4678 279.215C50.5694 279.247 50.657 279.314 50.7162 279.403C50.83 279.537 50.9223 279.688 50.9899 279.85C51.104 280.12 51.1794 280.405 51.2138 280.696C51.2449 280.939 51.2511 281.138 51.2573 281.275C51.2562 281.342 51.2457 281.409 51.2262 281.474Z" fill="#263238"/>
<path d="M92.5586 280.068V274.346L81.8478 274.221L81.7109 282.587L82.3765 282.637C85.331 282.836 97.4102 283.445 99.3944 282.867C101.652 282.226 92.5586 280.068 92.5586 280.068Z" fill="#455A64"/>
<path d="M81.6016 282.338H81.7882L82.3169 282.382L84.2637 282.488C85.9058 282.569 88.1761 282.649 90.689 282.68C93.2019 282.712 95.4722 282.68 97.1205 282.68L99.0673 282.624H99.596H99.7826H99.0673H97.1205C95.4722 282.624 93.2019 282.624 90.689 282.624C88.1761 282.624 85.912 282.519 84.2637 282.463L82.3169 282.394H81.7882L81.6016 282.338Z" fill="#263238"/>
<path d="M96.0315 282.817C96.1191 282.495 96.2443 282.183 96.4047 281.89C96.5986 281.618 96.8264 281.371 97.0826 281.156C96.7455 281.269 96.4647 281.507 96.2989 281.822C96.0892 282.109 95.9939 282.464 96.0315 282.817Z" fill="#263238"/>
<path d="M92.888 281.144C92.9191 281.144 93.0746 280.982 93.2301 280.74C93.3856 280.497 93.4976 280.279 93.4665 280.261C93.4354 280.242 93.2799 280.422 93.1244 280.671C92.9689 280.92 92.8569 281.144 92.888 281.144Z" fill="#263238"/>
<path d="M92.0343 280.702C92.0343 280.702 92.2271 280.615 92.4137 280.454C92.6003 280.292 92.7309 280.136 92.706 280.112C92.6812 280.087 92.5132 280.192 92.3266 280.354C92.14 280.516 92.0094 280.678 92.0343 280.702Z" fill="#263238"/>
<path d="M91.5 279.682C91.5 279.72 91.7488 279.757 92.0536 279.763C92.2416 279.785 92.4322 279.768 92.6134 279.714C92.6134 279.676 92.3646 279.639 92.0598 279.633C91.8718 279.606 91.6804 279.623 91.5 279.682Z" fill="#263238"/>
<path d="M91.3125 278.967C91.4948 279.094 91.7122 279.162 91.9345 279.16C92.1452 279.197 92.3623 279.169 92.5565 279.079C92.3511 279.043 92.1429 279.027 91.9345 279.029C91.7297 278.988 91.5214 278.967 91.3125 278.967Z" fill="#263238"/>
<path d="M93.2656 280.242C93.4942 280.28 93.7275 280.28 93.956 280.242C94.2047 280.212 94.4503 280.16 94.69 280.087C94.8375 280.049 94.9796 279.992 95.113 279.919C95.1953 279.873 95.2574 279.797 95.2871 279.707C95.2988 279.657 95.2955 279.604 95.2779 279.556C95.2602 279.507 95.2289 279.465 95.1876 279.434C94.9273 279.297 94.6271 279.257 94.3402 279.321C94.0533 279.385 93.7982 279.548 93.6202 279.782C93.514 279.917 93.4358 280.071 93.39 280.236C93.3589 280.354 93.3589 280.423 93.39 280.423C93.464 280.212 93.5711 280.015 93.7072 279.838C93.875 279.657 94.0907 279.528 94.3292 279.465C94.4629 279.422 94.6036 279.406 94.7435 279.418C94.8833 279.429 95.0195 279.469 95.1441 279.533C95.256 279.614 95.2125 279.745 95.0881 279.813C94.9636 279.881 94.8322 279.935 94.6962 279.975C94.4652 280.053 94.228 280.111 93.9871 280.149C93.5331 280.224 93.2656 280.224 93.2656 280.242Z" fill="#263238"/>
<path d="M93.4492 280.28C93.5359 280.136 93.5669 279.966 93.5362 279.801C93.5146 279.621 93.4529 279.449 93.3559 279.297C93.2985 279.193 93.216 279.106 93.116 279.043C93.016 278.98 92.9016 278.943 92.7836 278.936C92.7137 278.951 92.6521 278.992 92.6116 279.051C92.5711 279.11 92.5548 279.183 92.5659 279.253C92.5833 279.364 92.6236 279.47 92.6841 279.564C92.7724 279.716 92.879 279.856 93.0013 279.981C93.1054 280.108 93.2403 280.207 93.3932 280.267C93.3932 280.267 93.2563 280.143 93.0697 279.919C92.96 279.79 92.8641 279.651 92.7836 279.502C92.6965 279.359 92.6343 279.098 92.7836 279.067C92.9329 279.036 93.1319 279.222 93.2377 279.365C93.3315 279.499 93.3952 279.652 93.4243 279.813C93.4457 279.968 93.454 280.124 93.4492 280.28Z" fill="#263238"/>
<path d="M81.8594 279.409C81.8594 279.409 82.1704 279.409 82.6555 279.446C83.2834 279.532 83.8765 279.785 84.3723 280.18C84.8588 280.586 85.2245 281.117 85.4296 281.716C85.5914 282.183 85.5976 282.488 85.6225 282.488C85.6474 282.488 85.6225 282.407 85.6225 282.27C85.5799 281.846 85.4541 281.434 85.2524 281.058C85.0507 280.683 84.777 280.35 84.4469 280.08C83.9361 279.664 83.3121 279.41 82.6555 279.353C82.4488 279.33 82.2403 279.33 82.0335 279.353C81.9735 279.364 81.915 279.383 81.8594 279.409Z" fill="#263238"/>
<path d="M83.0293 274.967C82.909 276.43 82.8716 277.898 82.9173 279.365C83.0458 277.903 83.0832 276.434 83.0293 274.967Z" fill="#263238"/>
<path d="M87 281.524C87.511 281.647 88.0355 281.706 88.5612 281.698C89.0861 281.728 89.6126 281.692 90.1287 281.592C90.1287 281.555 89.4258 281.592 88.5612 281.592C87.6966 281.592 87 281.486 87 281.524Z" fill="#263238"/>
<path d="M84.9062 281.492C84.9062 281.492 84.9622 281.642 85.0306 281.803C85.0991 281.965 85.1364 282.108 85.1737 282.102C85.211 282.096 85.2297 281.934 85.1737 281.747C85.1177 281.561 84.9311 281.467 84.9062 281.492Z" fill="#263238"/>
<path d="M84.125 280.522C84.125 280.522 84.1685 280.659 84.2743 280.771C84.38 280.883 84.492 280.957 84.5231 280.932C84.5542 280.908 84.4795 280.796 84.3676 280.684C84.2556 280.572 84.1499 280.472 84.125 280.522Z" fill="#263238"/>
<path d="M83.0006 280.03C83.0006 280.068 83.1499 280.068 83.3054 280.124C83.4609 280.18 83.5729 280.267 83.604 280.242C83.6351 280.217 83.5418 280.074 83.349 280.005C83.1561 279.937 82.9882 279.999 83.0006 280.03Z" fill="#263238"/>
<path d="M82.1953 279.806C82.1953 279.844 82.2389 279.9 82.3259 279.931C82.413 279.962 82.5001 279.968 82.5125 279.931C82.525 279.894 82.469 279.844 82.3757 279.806C82.2824 279.769 82.2078 279.775 82.1953 279.806Z" fill="#263238"/>
<path d="M99.8559 166.484L94.855 277.605L78.1729 277.953L80.9471 184.927L62.1813 278.662H46.3203L67.4994 166.484" fill="#263238"/>
<path d="M50.3171 277.057C50.4042 277.057 50.4415 277.288 50.398 277.543C50.3544 277.798 50.2487 277.99 50.1616 277.978C50.0745 277.966 50.0372 277.742 50.0807 277.487C50.1243 277.232 50.2611 277.039 50.3171 277.057Z" fill="#455A64"/>
<path d="M50.9255 273.419C51.0126 273.419 51.0188 273.854 50.9255 274.352C50.8322 274.849 50.7016 275.254 50.6145 275.235C50.5275 275.216 50.5212 274.806 50.6145 274.302C50.7078 273.798 50.8385 273.406 50.9255 273.419Z" fill="#455A64"/>
<path d="M51.5349 269.78C51.622 269.78 51.6282 270.215 51.5349 270.719C51.4416 271.223 51.311 271.615 51.2239 271.596C51.1368 271.578 51.1306 271.167 51.2239 270.663C51.3172 270.159 51.4478 269.768 51.5349 269.78Z" fill="#455A64"/>
<path d="M52.1271 266.141C52.2142 266.141 52.2142 266.577 52.1271 267.081C52.04 267.584 51.9032 267.976 51.8099 267.958C51.7166 267.939 51.7228 267.528 51.8099 267.025C51.8969 266.521 52.0587 266.129 52.1271 266.141Z" fill="#455A64"/>
<path d="M52.7459 262.484C52.8329 262.484 52.8392 262.919 52.7459 263.417C52.6526 263.914 52.5219 264.319 52.4349 264.3C52.3478 264.281 52.3416 263.871 52.4349 263.367C52.5282 262.863 52.6712 262.484 52.7459 262.484Z" fill="#455A64"/>
<path d="M53.3709 258.864C53.4579 258.864 53.4642 259.299 53.3709 259.797C53.2776 260.295 53.1469 260.699 53.0599 260.68C52.9728 260.661 52.9666 260.251 53.0599 259.747C53.1532 259.243 53.29 258.845 53.3709 258.864Z" fill="#455A64"/>
<path d="M53.9943 255.225C54.0813 255.225 54.0876 255.661 53.9943 256.158C53.901 256.656 53.7703 257.06 53.677 257.041C53.5837 257.023 53.59 256.612 53.677 256.108C53.7641 255.605 53.9072 255.207 53.9943 255.225Z" fill="#455A64"/>
<path d="M54.613 251.587C54.7001 251.587 54.7063 252.022 54.613 252.526C54.5197 253.03 54.3891 253.421 54.302 253.409C54.215 253.397 54.2087 252.974 54.302 252.47C54.3953 251.966 54.5197 251.568 54.613 251.587Z" fill="#455A64"/>
<path d="M55.2341 247.948C55.3212 247.948 55.3212 248.383 55.2341 248.887C55.147 249.391 55.004 249.782 54.9169 249.764C54.8298 249.745 54.8298 249.335 54.9169 248.831C55.004 248.327 55.1408 247.935 55.2341 247.948Z" fill="#455A64"/>
<path d="M55.8614 244.309C55.9485 244.309 55.9485 244.744 55.8614 245.248C55.7744 245.752 55.6313 246.144 55.5442 246.131C55.4571 246.119 55.4509 245.696 55.5442 245.192C55.6375 244.688 55.7681 244.296 55.8614 244.309Z" fill="#455A64"/>
<path d="M56.4763 240.671C56.5696 240.671 56.5696 241.106 56.4763 241.61C56.383 242.114 56.2461 242.506 56.1591 242.493C56.072 242.481 56.072 242.058 56.1591 241.554C56.2461 241.05 56.383 240.658 56.4763 240.671Z" fill="#455A64"/>
<path d="M57.1029 237.038C57.1962 237.038 57.1962 237.473 57.1029 237.971C57.0096 238.468 56.879 238.848 56.7919 238.848C56.7048 238.848 56.7048 238.412 56.7919 237.909C56.879 237.405 57.0158 237.019 57.1029 237.038Z" fill="#455A64"/>
<path d="M57.7263 233.399C57.8134 233.399 57.8134 233.835 57.7263 234.338C57.6392 234.842 57.4961 235.234 57.4091 235.215C57.322 235.197 57.322 234.78 57.4091 234.282C57.4961 233.785 57.6516 233.387 57.7263 233.399Z" fill="#455A64"/>
<path d="M58.3435 229.767C58.4305 229.767 58.4305 230.196 58.3435 230.7C58.2564 231.204 58.1133 231.595 58.0262 231.583C57.9392 231.571 57.9392 231.148 58.0262 230.644C58.1133 230.14 58.2813 229.748 58.3435 229.767Z" fill="#455A64"/>
<path d="M59.0137 226.128C59.1008 226.128 59.1008 226.563 59.0137 227.067C58.9267 227.571 58.7774 227.963 58.6903 227.944C58.6032 227.925 58.6032 227.509 58.6903 227.011C58.7774 226.513 58.9267 226.115 59.0137 226.128Z" fill="#455A64"/>
<path d="M59.6567 222.496C59.7438 222.496 59.7438 222.931 59.6567 223.435C59.5696 223.939 59.4266 224.331 59.3333 224.312C59.24 224.293 59.2462 223.877 59.3333 223.373C59.4204 222.869 59.5945 222.477 59.6567 222.496Z" fill="#455A64"/>
<path d="M60.3028 218.863C60.3899 218.863 60.3899 219.298 60.3028 219.796C60.2157 220.294 60.0665 220.692 59.9794 220.679C59.8923 220.667 59.8923 220.244 59.9794 219.74C60.0665 219.236 60.2157 218.844 60.3028 218.863Z" fill="#455A64"/>
<path d="M60.9591 215.212C61.0461 215.212 61.0461 215.647 60.9591 216.145C60.872 216.643 60.7227 217.041 60.6356 217.028C60.5485 217.016 60.5485 216.593 60.6356 216.089C60.7227 215.585 60.872 215.212 60.9591 215.212Z" fill="#455A64"/>
<path d="M61.6153 211.598C61.7024 211.598 61.7024 212.034 61.6153 212.531C61.5282 213.029 61.379 213.427 61.2919 213.415C61.2048 213.402 61.2048 212.979 61.2919 212.475C61.379 211.971 61.5282 211.58 61.6153 211.598Z" fill="#455A64"/>
<path d="M62.2716 207.966C62.3649 207.966 62.3586 208.401 62.2716 208.905C62.1845 209.409 62.0352 209.801 61.9481 209.782C61.861 209.763 61.861 209.346 61.9481 208.843C62.0352 208.339 62.1845 207.953 62.2716 207.966Z" fill="#455A64"/>
<path d="M62.9395 204.339C63.0266 204.339 63.0266 204.775 62.9395 205.272C62.8525 205.77 62.697 206.168 62.6099 206.15C62.5228 206.131 62.529 205.714 62.6099 205.217C62.6907 204.719 62.8525 204.321 62.9395 204.339Z" fill="#455A64"/>
<path d="M63.6192 200.707C63.7063 200.707 63.7001 201.142 63.6192 201.646C63.5384 202.15 63.3766 202.542 63.2896 202.523C63.2025 202.504 63.2087 202.088 63.2896 201.584C63.3704 201.08 63.5259 200.694 63.6192 200.707Z" fill="#455A64"/>
<path d="M64.2989 197.081C64.386 197.081 64.3798 197.516 64.2989 198.02C64.218 198.524 64.0563 198.91 63.9692 198.897C63.8822 198.885 63.8884 198.462 63.9692 197.958C64.0501 197.454 64.2118 197.068 64.2989 197.081Z" fill="#455A64"/>
<path d="M64.9926 193.442C65.0797 193.442 65.0735 193.877 64.9926 194.381C64.9118 194.885 64.7438 195.271 64.6567 195.258C64.5697 195.246 64.5759 194.823 64.6567 194.319C64.7376 193.815 64.9055 193.442 64.9926 193.442Z" fill="#455A64"/>
<path d="M65.6895 189.834C65.7766 189.834 65.7704 190.27 65.6895 190.767C65.6087 191.265 65.447 191.663 65.3599 191.644C65.2728 191.625 65.279 191.209 65.3599 190.705C65.4407 190.201 65.6025 189.815 65.6895 189.834Z" fill="#455A64"/>
<path d="M66.3911 186.208C66.4781 186.208 66.4719 186.644 66.3911 187.147C66.3102 187.651 66.1423 188.037 66.0552 188.018C65.9681 188 65.9743 187.583 66.0552 187.085C66.136 186.588 66.304 186.189 66.3911 186.208Z" fill="#455A64"/>
<path d="M67.102 182.588C67.1891 182.588 67.1829 183.023 67.102 183.521C67.0211 184.019 66.8532 184.417 66.7661 184.398C66.679 184.379 66.6853 183.963 66.7661 183.459C66.847 182.955 67.0149 182.569 67.102 182.588Z" fill="#455A64"/>
<path d="M67.8192 178.968C67.9062 178.968 67.9 179.403 67.8192 179.907C67.7383 180.411 67.5641 180.797 67.4771 180.778C67.39 180.759 67.3962 180.343 67.4771 179.839C67.5579 179.335 67.7321 178.949 67.8192 178.968Z" fill="#455A64"/>
<path d="M68.5457 175.348C68.639 175.348 68.6266 175.789 68.5457 176.287C68.4649 176.785 68.2907 177.176 68.2036 177.158C68.1165 177.139 68.1228 176.722 68.2036 176.225C68.2845 175.727 68.4586 175.329 68.5457 175.348Z" fill="#455A64"/>
<path d="M69.2871 171.735C69.3742 171.735 69.3679 172.17 69.2871 172.668C69.2062 173.165 69.0072 173.538 68.9201 173.538C68.833 173.538 68.8455 173.097 68.9201 172.599C68.9947 172.102 69.2 171.716 69.2871 171.735Z" fill="#455A64"/>
<path d="M69.8569 169.01C69.944 169.01 69.9751 169.246 69.9191 169.495C69.8631 169.744 69.7574 169.936 69.6703 169.918C69.5832 169.899 69.5521 169.681 69.6019 169.433C69.6516 169.184 69.7698 168.991 69.8569 169.01Z" fill="#455A64"/>
<path d="M81.0554 277.045C81.1424 277.045 81.2046 277.263 81.1922 277.518C81.1798 277.773 81.0927 277.978 81.0056 277.978C80.9185 277.978 80.8563 277.76 80.8688 277.499C80.8812 277.238 80.9621 277.039 81.0554 277.045Z" fill="#455A64"/>
<path d="M81.2062 273.344C81.2995 273.344 81.3554 273.761 81.3368 274.277C81.3181 274.794 81.2248 275.198 81.1377 275.192C81.0507 275.185 80.9885 274.775 81.0133 274.265C81.0382 273.755 81.1191 273.338 81.2062 273.344Z" fill="#455A64"/>
<path d="M81.3272 269.637C81.4143 269.637 81.4765 270.06 81.4578 270.57C81.4392 271.08 81.3583 271.491 81.2712 271.491C81.1842 271.491 81.122 271.074 81.1344 270.558C81.1468 270.042 81.2339 269.637 81.3272 269.637Z" fill="#455A64"/>
<path d="M81.4149 265.936C81.502 265.936 81.5642 266.353 81.5517 266.863C81.5393 267.373 81.4584 267.79 81.3651 267.79C81.2718 267.79 81.2158 267.367 81.2283 266.857C81.2407 266.347 81.3216 265.936 81.4149 265.936Z" fill="#455A64"/>
<path d="M81.5006 262.229C81.5876 262.229 81.6498 262.652 81.6374 263.162C81.625 263.672 81.5441 264.089 81.457 264.083C81.37 264.076 81.3015 263.666 81.314 263.156C81.3264 262.646 81.4073 262.229 81.5006 262.229Z" fill="#455A64"/>
<path d="M81.5946 258.522C81.6879 258.522 81.7501 258.945 81.7314 259.455C81.7128 259.965 81.6381 260.382 81.5448 260.376C81.4515 260.369 81.3955 259.959 81.408 259.449C81.4204 258.939 81.5075 258.522 81.5946 258.522Z" fill="#455A64"/>
<path d="M81.7201 254.821C81.8072 254.821 81.8694 255.238 81.8508 255.754C81.8321 256.27 81.745 256.674 81.6517 256.668C81.5584 256.662 81.5087 256.251 81.5273 255.741C81.546 255.231 81.6331 254.815 81.7201 254.821Z" fill="#455A64"/>
<path d="M81.8764 251.12C81.9635 251.12 82.0195 251.537 82.0008 252.047C81.9822 252.557 81.8889 252.974 81.8018 252.968C81.7147 252.961 81.6525 252.545 81.6774 252.035C81.7023 251.524 81.7894 251.114 81.8764 251.12Z" fill="#455A64"/>
<path d="M82.0187 247.413C82.112 247.413 82.1679 247.836 82.1493 248.346C82.1306 248.856 82.0373 249.267 81.9502 249.267C81.8632 249.267 81.801 248.844 81.8258 248.334C81.8507 247.824 81.9316 247.413 82.0187 247.413Z" fill="#455A64"/>
<path d="M82.1493 243.712C82.2363 243.712 82.2985 244.129 82.2799 244.645C82.2612 245.161 82.1741 245.566 82.0871 245.566C82 245.566 81.9378 245.143 81.9564 244.633C81.9751 244.122 82.0622 243.706 82.1493 243.712Z" fill="#455A64"/>
<path d="M82.2683 240.005C82.3616 240.005 82.4176 240.422 82.4051 240.938C82.3927 241.454 82.3056 241.858 82.2123 241.858C82.119 241.858 82.063 241.435 82.0817 240.925C82.1004 240.415 82.1812 240.005 82.2683 240.005Z" fill="#455A64"/>
<path d="M82.368 236.304C82.4551 236.304 82.5173 236.721 82.5049 237.231C82.4924 237.741 82.4115 238.157 82.3182 238.151C82.2249 238.145 82.169 237.734 82.1814 237.224C82.1938 236.714 82.2747 236.298 82.368 236.304Z" fill="#455A64"/>
<path d="M82.4475 232.628C82.5346 232.628 82.5968 233.045 82.5905 233.555C82.5843 234.065 82.4972 234.481 82.4101 234.481C82.3231 234.481 82.2547 234.065 82.2671 233.548C82.2795 233.032 82.3542 232.628 82.4475 232.628Z" fill="#455A64"/>
<path d="M82.5089 228.896C82.596 228.896 82.6644 229.319 82.652 229.829C82.6395 230.339 82.5649 230.75 82.4778 230.75C82.3907 230.75 82.3223 230.333 82.3285 229.823C82.3347 229.313 82.4156 228.896 82.5089 228.896Z" fill="#455A64"/>
<path d="M82.5495 225.164C82.6366 225.164 82.705 225.581 82.6987 226.091C82.6925 226.601 82.6055 227.03 82.5308 227.03C82.4562 227.03 82.3691 226.613 82.3753 226.097C82.3815 225.581 82.4562 225.164 82.5495 225.164Z" fill="#455A64"/>
<path d="M82.6054 221.482C82.6925 221.482 82.7672 221.899 82.7609 222.409C82.7547 222.919 82.6863 223.336 82.593 223.336C82.4997 223.336 82.4375 222.919 82.4375 222.409C82.4375 221.899 82.4873 221.482 82.6054 221.482Z" fill="#455A64"/>
<path d="M82.607 217.781C82.7003 217.781 82.7687 218.191 82.7687 218.701C82.7687 219.211 82.6941 219.628 82.607 219.628C82.5199 219.628 82.4453 219.218 82.4453 218.701C82.4453 218.185 82.4951 217.781 82.607 217.781Z" fill="#455A64"/>
<path d="M82.6076 214.074C82.6947 214.074 82.7693 214.484 82.7693 215.001C82.7693 215.517 82.7009 215.927 82.6138 215.927C82.5267 215.927 82.4521 215.511 82.4459 215.001C82.4397 214.49 82.4832 214.074 82.6076 214.074Z" fill="#455A64"/>
<path d="M82.5387 210.367C82.6258 210.367 82.7066 210.783 82.7066 211.293C82.7066 211.804 82.6444 212.22 82.5573 212.22C82.4703 212.22 82.3894 211.81 82.3832 211.293C82.377 210.777 82.4516 210.367 82.5387 210.367Z" fill="#455A64"/>
<path d="M82.4944 206.666C82.5877 206.666 82.6623 207.076 82.6686 207.586C82.6748 208.096 82.6126 208.513 82.5255 208.513C82.4384 208.513 82.3576 208.102 82.3451 207.592C82.3327 207.082 82.4073 206.666 82.4944 206.666Z" fill="#455A64"/>
<path d="M82.4326 202.958C82.5197 202.958 82.6005 203.369 82.613 203.885C82.6254 204.402 82.557 204.812 82.4637 204.812C82.3704 204.812 82.2958 204.402 82.2895 203.891C82.2833 203.381 82.3393 202.965 82.4326 202.958Z" fill="#455A64"/>
<path d="M82.3416 199.251C82.4349 199.251 82.5157 199.662 82.5282 200.178C82.5406 200.694 82.4784 201.105 82.3913 201.105C82.3042 201.105 82.2172 200.695 82.2047 200.184C82.1923 199.674 82.2545 199.258 82.3416 199.251Z" fill="#455A64"/>
<path d="M82.2139 195.544C82.3072 195.544 82.3943 195.955 82.413 196.465C82.4316 196.975 82.3757 197.398 82.2886 197.398C82.2015 197.398 82.1082 196.994 82.0895 196.477C82.0709 195.961 82.1268 195.551 82.2139 195.544Z" fill="#455A64"/>
<path d="M81.9834 191.843C82.0705 191.843 82.17 192.248 82.2011 192.758C82.2322 193.268 82.2011 193.691 82.1016 193.697C82.0021 193.703 81.915 193.293 81.8777 192.782C81.8404 192.272 81.9088 191.856 81.9834 191.843Z" fill="#455A64"/>
<path d="M81.6574 188.155C81.7445 188.155 81.8627 188.553 81.9125 189.063C81.9622 189.573 81.9125 189.99 81.844 190.002C81.7756 190.015 81.645 189.604 81.589 189.094C81.533 188.584 81.5704 188.167 81.6574 188.155Z" fill="#455A64"/>
<path d="M81.2942 185.399C81.3875 185.399 81.487 185.586 81.5244 185.841C81.5617 186.096 81.5244 186.314 81.4311 186.326C81.3378 186.339 81.2382 186.14 81.2009 185.885C81.1636 185.63 81.2071 185.418 81.2942 185.399Z" fill="#455A64"/>
<path d="M83.7214 167.89C83.7518 168.119 83.7518 168.351 83.7214 168.581C83.7214 169.016 83.6903 169.657 83.653 170.447C83.5846 172.02 83.4726 174.179 83.3233 176.592C83.2425 177.786 83.1678 178.931 83.0994 179.976C83.0971 180.913 82.961 181.845 82.6951 182.743C82.5861 183.049 82.4148 183.328 82.1921 183.564C81.9693 183.799 81.7001 183.986 81.4014 184.112C81.2397 184.179 81.0663 184.213 80.8913 184.211C80.7731 184.211 80.7109 184.211 80.7109 184.18C80.9242 184.143 81.1328 184.083 81.3329 184C81.8704 183.721 82.2752 183.24 82.4588 182.663C82.6872 181.779 82.7959 180.869 82.7822 179.957C82.8444 178.906 82.9128 177.767 82.9812 176.573C83.1305 174.172 83.2798 172.002 83.4104 170.428C83.4726 169.644 83.5286 169.01 83.5721 168.562C83.5987 168.333 83.6487 168.108 83.7214 167.89Z" fill="#455A64"/>
<path d="M82.0116 169.364C82.0116 169.327 82.2915 169.364 82.391 169.744C82.4193 169.851 82.4216 169.963 82.3978 170.071C82.374 170.179 82.3248 170.28 82.2542 170.366C82.1578 170.469 82.0316 170.539 81.8934 170.567C81.7552 170.595 81.6117 170.579 81.4829 170.521C81.3615 170.482 81.2544 170.408 81.1746 170.308C81.0949 170.209 81.046 170.088 81.0341 169.961C81.0222 169.834 81.0477 169.706 81.1076 169.593C81.1675 169.481 81.259 169.388 81.3709 169.327C81.7006 169.134 81.9307 169.296 81.9059 169.327C81.881 169.358 81.6944 169.327 81.5016 169.52C81.4503 169.565 81.4089 169.621 81.38 169.683C81.3511 169.745 81.3353 169.812 81.3336 169.88C81.3391 169.958 81.3674 170.033 81.415 170.095C81.4625 170.157 81.5273 170.203 81.6011 170.229C81.6721 170.261 81.7507 170.272 81.8278 170.261C81.9049 170.25 81.9773 170.217 82.0365 170.167C82.0825 170.115 82.1177 170.055 82.1402 169.99C82.1626 169.925 82.1718 169.856 82.1671 169.787C82.1484 169.52 81.9805 169.408 82.0116 169.364Z" fill="#455A64"/>
<path d="M66.3125 172.002C66.3125 171.952 66.8536 172.182 67.7369 172.307C68.8869 172.476 70.0614 172.314 71.1224 171.839C72.1834 171.364 73.0869 170.596 73.7267 169.626C74.2243 168.886 74.3923 168.344 74.4483 168.382C74.3824 168.879 74.2014 169.354 73.9196 169.769C73.2993 170.82 72.3674 171.653 71.2529 172.151C70.1385 172.649 68.8967 172.788 67.6996 172.549C67.2011 172.476 66.7263 172.289 66.3125 172.002Z" fill="#455A64"/>
<path d="M94.0635 167.89C94.1133 167.89 94.1257 168.35 94.3434 169.035C94.6119 169.93 95.1272 170.731 95.8301 171.347C96.533 171.963 97.3953 172.369 98.318 172.518C99.0271 172.642 99.4812 172.592 99.4874 172.648C99.1023 172.784 98.689 172.818 98.2869 172.748C97.2974 172.653 96.3628 172.249 95.6151 171.594C94.8674 170.939 94.3442 170.065 94.1195 169.097C93.9928 168.707 93.9735 168.29 94.0635 167.89Z" fill="#455A64"/>
<path d="M103.427 170.428L66.6542 167.884L67.9294 150.319V140.503L64.3591 146.021L53.2812 136.38L65.205 120.83C67.2236 118.721 69.7071 117.112 72.4575 116.134C73.9194 115.611 75.453 115.318 77.0043 115.263C80.5788 116.392 84.4144 116.392 87.9888 115.263C91.3678 115.569 94.7104 116.194 97.9719 117.129L111.892 120.861L107.308 137.959L98.8987 135.129C98.8987 135.129 103.514 166.882 103.427 170.428Z" fill="#2581A2"/>
<path d="M67.5859 141.076C68.2632 139.619 69.1313 138.26 70.1672 137.033C69.8761 137.782 69.4894 138.491 69.0165 139.141C68.627 139.846 68.146 140.497 67.5859 141.076Z" fill="#263238"/>
<g opacity="0.6">
<path d="M111.387 121.047C111.387 121.135 101.075 121.209 88.3734 121.209C75.6721 121.209 65.3594 121.135 65.3594 121.047C65.3594 120.96 75.6659 120.886 88.3734 120.886C101.081 120.886 111.387 120.96 111.387 121.047Z" fill="white"/>
</g>
<g opacity="0.6">
<path d="M109.16 128.984C109.16 129.077 98.039 129.146 84.3176 129.146C70.5963 129.146 59.4688 129.077 59.4688 128.984C59.4688 128.891 70.5901 128.822 84.3487 128.822C98.1074 128.822 109.16 128.897 109.16 128.984Z" fill="white"/>
</g>
<g opacity="0.6">
<path d="M99.4824 137.717C99.4824 137.804 89.5304 137.879 77.2521 137.879C64.9738 137.879 55.0156 137.804 55.0156 137.717C55.0156 137.63 64.9676 137.555 77.2521 137.555C89.5366 137.555 99.4824 137.63 99.4824 137.717Z" fill="white"/>
</g>
<g opacity="0.6">
<path d="M100.642 147.221C100.642 147.308 93.3213 147.383 84.2899 147.383C75.2584 147.383 67.9375 147.308 67.9375 147.221C67.9375 147.134 75.2522 147.059 84.2899 147.059C93.3275 147.059 100.642 147.128 100.642 147.221Z" fill="white"/>
</g>
<g opacity="0.6">
<path d="M101.611 157.08C101.611 157.167 94.0977 157.241 84.8174 157.241C75.5372 157.241 68.0234 157.167 68.0234 157.08C68.0234 156.993 75.5372 156.918 84.8174 156.918C94.0977 156.918 101.611 156.993 101.611 157.08Z" fill="white"/>
</g>
<g opacity="0.6">
<path d="M103.133 166.124C103.133 166.211 94.9968 166.285 84.9639 166.285C74.931 166.285 66.7891 166.211 66.7891 166.124C66.7891 166.037 74.9248 165.962 84.9639 165.962C95.003 165.962 103.133 166.03 103.133 166.124Z" fill="white"/>
</g>
<path d="M122.684 188.267C114.698 199.838 110.82 213.751 111.67 227.785C112.519 241.818 118.046 255.162 127.369 265.686C136.692 276.209 149.273 283.305 163.102 285.84C176.93 288.374 191.21 286.201 203.659 279.668C216.108 273.135 226.009 262.619 231.78 249.799C237.551 236.979 238.859 222.594 235.496 208.943C232.133 195.292 224.292 183.162 213.226 174.49C202.159 165.818 188.506 161.105 174.447 161.103C170.592 161.103 166.745 161.451 162.952 162.143" stroke="#7AD03A" stroke-width="1.38663" stroke-linecap="round" stroke-linejoin="round"/>
<path d="M133.416 176.383C131.303 178.212 129.311 180.176 127.453 182.263" stroke="#7AD03A" stroke-width="1.38663" stroke-linecap="round" stroke-linejoin="round"/>
<path d="M223.589 244.907C235.136 217.795 222.519 186.456 195.407 174.908C168.295 163.361 136.956 175.978 125.408 203.09C113.861 230.202 126.478 261.541 153.59 273.089C180.702 284.636 212.041 272.019 223.589 244.907Z" fill="#7AD03A"/>
<path d="M149.852 218.453L170.096 241.457L203.209 194.548" stroke="#1C310C" stroke-width="8.31975" stroke-linecap="round" stroke-linejoin="round"/>
</g>
<defs>
<linearGradient id="paint0_linear_2706_20602" x1="162" y1="-118.489" x2="162" y2="214.488" gradientUnits="userSpaceOnUse">
<stop stop-color="#D1EBF5"/>
<stop offset="1" stop-color="white"/>
</linearGradient>
<clipPath id="clip0_2706_20602">
<rect width="311" height="311" fill="white" transform="translate(0.5)"/>
</clipPath>
</defs>
</svg>
