<svg width="350" height="303" viewBox="0 0 350 303" fill="none" xmlns="http://www.w3.org/2000/svg">
<g clip-path="url(#clip0_1797_29285)">
<circle cx="165" cy="165" r="165" fill="url(#paint0_linear_1797_29285)"/>
<path d="M109.653 256.83L81.2188 240.415L109.653 224V256.83Z" fill="#EBEBEB"/>
<path d="M190.02 266.651L144.191 240.177L190.027 213.752L190.02 266.651Z" fill="#EBEBEB"/>
<path d="M56.253 218.449C56.337 211.799 51.689 197.96 44.892 189.245C38.095 180.53 27.301 174.083 19.601 176.624C12.391 178.997 13.056 188.419 21.701 194.768C30.346 201.117 43.331 209.111 47.034 219.968L54.909 233.268L56.253 218.449Z" fill="#2581A2"/>
<path opacity="0.1" d="M56.253 218.449C56.337 211.799 51.689 197.96 44.892 189.245C38.095 180.53 27.301 174.083 19.601 176.624C12.391 178.997 13.056 188.419 21.701 194.768C30.346 201.117 43.331 209.111 47.034 219.968L54.909 233.268L56.253 218.449Z" fill="black"/>
<path d="M56.6365 227.556C56.5303 227.547 56.4301 227.503 56.3516 227.431C56.2731 227.359 56.2206 227.263 56.2025 227.157C52.0025 204.4 33.8725 185.724 22.9315 181.517C22.8654 181.499 22.8038 181.468 22.7507 181.424C22.6976 181.381 22.6541 181.327 22.6232 181.266C22.5922 181.205 22.5744 181.138 22.5709 181.07C22.5675 181.001 22.5784 180.933 22.603 180.869C22.6276 180.805 22.6653 180.747 22.7137 180.698C22.7622 180.65 22.8203 180.612 22.8842 180.587C22.9481 180.563 23.0165 180.552 23.085 180.555C23.1534 180.559 23.2204 180.577 23.2815 180.607C34.4325 184.898 52.9125 203.882 57.1545 226.982C57.1667 227.045 57.1664 227.109 57.1536 227.172C57.1408 227.234 57.1158 227.293 57.08 227.346C57.0442 227.399 56.9984 227.444 56.9451 227.479C56.8918 227.514 56.8321 227.538 56.7695 227.549L56.6365 227.556Z" fill="white"/>
<path d="M53.0744 242.046C52.0524 238.294 47.5584 232.071 40.2364 226.884C32.1304 221.151 21.8264 218.435 19.4954 214.018C16.6954 208.712 21.1964 203.784 29.5754 204.918C37.9544 206.052 52.5704 217.7 54.7264 234.962L53.0744 242.046Z" fill="#2581A2"/>
<path d="M54.747 238.14C54.6535 238.133 54.5642 238.098 54.4898 238.041C54.4153 237.984 54.3588 237.907 54.327 237.818C47.6 218.281 32.844 211.274 25.984 210.301C25.8568 210.284 25.7419 210.216 25.6644 210.114C25.587 210.012 25.5534 209.883 25.571 209.755C25.5886 209.628 25.6561 209.513 25.7585 209.436C25.8609 209.358 25.9898 209.325 26.117 209.342C33.705 210.42 48.384 217.56 55.251 237.496C55.2916 237.619 55.2829 237.753 55.2267 237.869C55.1705 237.985 55.0713 238.075 54.95 238.119C54.8844 238.14 54.8154 238.147 54.747 238.14Z" fill="white"/>
<path d="M304.45 199.501C304.45 199.501 305.381 185.501 313.641 175.071C321.901 164.641 321.397 160.371 315.699 158.271C310.001 156.171 296.799 168.736 299.711 185.501C302.623 202.266 304.45 199.501 304.45 199.501Z" fill="#2581A2"/>
<path opacity="0.1" d="M304.45 199.501C304.45 199.501 305.381 185.501 313.641 175.071C321.901 164.641 321.397 160.371 315.699 158.271C310.001 156.171 296.799 168.736 299.711 185.501C302.623 202.266 304.45 199.501 304.45 199.501Z" fill="black"/>
<path d="M301.92 191.507C301.837 191.507 301.757 191.476 301.696 191.42C301.635 191.365 301.598 191.288 301.591 191.206C300.632 175.764 311.531 163.094 315.591 160.224C315.625 160.198 315.664 160.18 315.705 160.171C315.746 160.161 315.789 160.159 315.831 160.167C315.873 160.174 315.913 160.189 315.949 160.212C315.984 160.235 316.015 160.265 316.039 160.301C316.088 160.371 316.108 160.459 316.093 160.544C316.079 160.629 316.032 160.705 315.962 160.756C311.958 163.556 301.262 175.995 302.214 191.164C302.218 191.249 302.188 191.332 302.132 191.396C302.076 191.46 301.998 191.5 301.913 191.507H301.92Z" fill="white"/>
<path d="M302.204 211.092C305.924 212.308 309.735 213.225 313.6 213.836C319.998 214.844 322.826 211.785 322.826 211.785C322.826 211.785 320.306 205.786 316.673 204.085C320.604 204.968 324.357 206.509 327.775 208.642C327.775 208.642 331.681 208.705 333.235 202.741C333.235 202.741 330.925 199.15 323.155 197.211C323.155 197.211 327.88 196.021 334.691 197.757C335.202 197.96 337.379 190.253 338.037 186.697C338.695 183.141 337.267 183.197 334.495 182.434C331.723 181.671 322.532 179.634 320.796 181.153C319.06 182.672 318.178 187.894 318.178 187.894C317.49 185.756 317.401 183.471 317.919 181.286C317.919 181.286 315.427 180.313 311.549 181.44C308.385 182.357 308.231 184.513 308.371 186.949C308.558 189.065 309.029 191.146 309.771 193.137C309.771 193.137 307.3 189.973 307.223 183.106C307.223 183.106 300.741 186.326 299.635 192.766C298.991 196.259 298.137 206.5 302.204 211.092Z" fill="#2581A2"/>
<path d="M303.42 209.846C303.488 209.846 303.555 209.827 303.613 209.791C303.671 209.755 303.718 209.704 303.749 209.643C308.908 198.912 328.109 186.445 334.983 185.108C335.029 185.1 335.074 185.082 335.114 185.056C335.153 185.031 335.188 184.997 335.214 184.958C335.241 184.919 335.26 184.875 335.269 184.829C335.279 184.782 335.279 184.735 335.27 184.688C335.25 184.594 335.194 184.512 335.114 184.459C335.035 184.405 334.937 184.384 334.843 184.401C327.843 185.766 308.341 198.401 303.098 209.328C303.057 209.415 303.051 209.514 303.083 209.604C303.114 209.695 303.18 209.769 303.266 209.811C303.314 209.833 303.367 209.844 303.42 209.846Z" fill="white"/>
<path d="M68.6811 247.002C67.8901 247.002 67.4141 246.351 67.4141 245.252V127.505L211.635 44.2539V161.525C211.585 162.504 211.306 163.458 210.82 164.309C210.333 165.16 209.653 165.885 208.835 166.425L69.8291 246.645C69.4842 246.862 69.0884 246.985 68.6811 247.002Z" fill="#FAFAFA"/>
<path d="M211.2 44.961V161.525C211.141 162.433 210.874 163.316 210.419 164.104C209.964 164.891 209.333 165.564 208.575 166.068L69.625 246.288C69.3421 246.471 69.0164 246.577 68.68 246.596C67.903 246.596 67.819 245.651 67.819 245.252V127.743L211.2 44.961ZM212.019 43.561L67 127.267V245.252C67 246.652 67.7 247.415 68.68 247.415C69.1587 247.398 69.6244 247.255 70.031 247.002L208.988 166.775C209.87 166.199 210.604 165.424 211.131 164.512C211.657 163.6 211.962 162.577 212.019 161.525V43.54V43.561Z" fill="#E0E0E0"/>
<path d="M67.0078 127.267V146.972L212.02 63.245V43.54L67.0078 127.267Z" fill="#2581A2"/>
<path d="M78.375 128.317V131.117C78.375 131.691 78.788 131.929 79.285 131.642L123.868 105.903V101.003L79.285 126.742C79.0217 126.916 78.8024 127.149 78.6444 127.422C78.4865 127.696 78.3943 128.002 78.375 128.317Z" fill="#FAFAFA"/>
<path d="M128.644 98.2453C129.148 97.9513 129.554 98.1893 129.554 98.7703V101.57C129.536 101.886 129.444 102.192 129.286 102.466C129.128 102.739 128.908 102.972 128.644 103.145L123.863 105.903V101.003L128.644 98.2453Z" fill="#455A64"/>
<path d="M67 120.918C67.0575 119.866 67.3618 118.843 67.8884 117.931C68.415 117.019 69.149 116.244 70.031 115.668L208.988 35.4409C210.661 34.4749 212.019 35.2589 212.019 37.1909V43.5399L67 127.267V120.918Z" fill="#455A64"/>
<path d="M195.896 46.2977C195.486 46.5686 195.146 46.9322 194.903 47.3591C194.659 47.7859 194.52 48.264 194.496 48.7547C194.496 49.6647 195.133 50.0287 195.896 49.5807C196.306 49.3084 196.646 48.9435 196.89 48.5155C197.133 48.0875 197.272 47.6084 197.296 47.1167C197.324 46.1997 196.687 45.8427 195.896 46.2977Z" fill="#2581A2"/>
<path d="M200.431 43.6939C200.021 43.9648 199.681 44.3284 199.438 44.7553C199.195 45.1821 199.055 45.6602 199.031 46.1509C199.031 47.0609 199.668 47.4249 200.431 46.9769C200.84 46.7037 201.18 46.3387 201.423 45.9109C201.666 45.483 201.806 45.0043 201.831 44.5129C201.831 43.6029 201.187 43.2389 200.431 43.6939Z" fill="#2581A2"/>
<path d="M204.908 41.0904C204.498 41.3613 204.158 41.7249 203.914 42.1517C203.671 42.5786 203.532 43.0567 203.508 43.5474C203.508 44.4574 204.145 44.8214 204.908 44.3734C205.317 44.1002 205.657 43.7351 205.9 43.3073C206.143 42.8795 206.283 42.4008 206.308 41.9094C206.329 40.9994 205.692 40.6354 204.908 41.0904Z" fill="#2581A2"/>
<g opacity="0.1">
<path d="M166.519 76.0691C165.615 76.6606 164.863 77.4569 164.324 78.3934C163.785 79.3298 163.475 80.3801 163.418 81.4591C163.418 83.4401 164.818 84.2591 166.519 83.2511C167.424 82.6618 168.178 81.8672 168.718 80.9318C169.258 79.9964 169.569 78.9466 169.627 77.8681C169.634 75.8871 168.234 75.0821 166.519 76.0691Z" fill="black"/>
<path d="M152.307 84.2793C151.402 84.8685 150.649 85.6632 150.109 86.5986C149.568 87.534 149.257 88.5837 149.199 89.6623C149.199 91.6433 150.599 92.4623 152.307 91.4613C153.211 90.8698 153.963 90.0735 154.502 89.137C155.041 88.2005 155.351 87.1502 155.408 86.0713C155.408 84.0903 154.022 83.2993 152.307 84.2793Z" fill="black"/>
<path d="M180.738 67.9C179.834 68.49 179.082 69.285 178.543 70.2204C178.004 71.1557 177.694 72.205 177.637 73.283C177.637 75.264 179.037 76.083 180.738 75.075C181.643 74.4862 182.397 73.6916 182.937 72.7561C183.477 71.8206 183.789 70.7707 183.846 69.692C183.846 67.676 182.46 66.871 180.738 67.9Z" fill="black"/>
<path d="M194.96 59.64C194.054 60.2292 193.301 61.0238 192.761 61.9592C192.221 62.8947 191.909 63.9444 191.852 65.023C191.852 67.004 193.252 67.823 194.96 66.815C195.865 66.2257 196.618 65.4311 197.158 64.4957C197.698 63.5603 198.01 62.5105 198.068 61.432C198.068 59.451 196.675 58.646 194.96 59.64Z" fill="black"/>
</g>
<path d="M81.4333 148.504L115.18 129.016C116.853 128.05 118.211 128.834 118.211 130.766V163.169C118.154 164.221 117.85 165.244 117.323 166.156C116.796 167.068 116.062 167.844 115.18 168.419L81.4333 187.9C79.7603 188.866 78.4023 188.082 78.4023 186.15V153.754C78.4598 152.702 78.7642 151.679 79.2907 150.767C79.8173 149.855 80.5514 149.08 81.4333 148.504Z" fill="#E0E0E0"/>
<path d="M129.73 120.597L200.43 79.8007C202.103 78.8277 203.461 79.6117 203.461 81.5507V113.947C203.404 114.998 203.099 116.022 202.573 116.934C202.046 117.846 201.312 118.621 200.43 119.197L129.73 159.993C128.057 160.959 126.699 160.175 126.699 158.243V125.847C126.757 124.795 127.061 123.772 127.588 122.86C128.114 121.948 128.848 121.172 129.73 120.597Z" fill="#E0E0E0"/>
<path d="M81.4333 197.75L135.081 166.775C136.761 165.809 138.119 166.495 138.119 168.308C138.045 169.326 137.731 170.312 137.205 171.186C136.678 172.06 135.953 172.798 135.088 173.341L81.4333 204.316C79.7603 205.282 78.4023 204.596 78.4023 202.783C78.4771 201.765 78.7905 200.779 79.3171 199.904C79.8436 199.03 80.5686 198.292 81.4333 197.75Z" fill="#E0E0E0"/>
<path d="M81.4333 209.245L135.081 178.27C136.761 177.304 138.119 177.99 138.119 179.803C138.045 180.821 137.731 181.807 137.205 182.681C136.678 183.555 135.953 184.294 135.088 184.836L81.4333 215.811C79.7603 216.777 78.4023 216.091 78.4023 214.278C78.4771 213.26 78.7905 212.274 79.3171 211.4C79.8436 210.525 80.5686 209.787 81.4333 209.245Z" fill="#E0E0E0"/>
<path d="M81.4333 220.731L135.081 189.756C136.761 188.79 138.119 189.476 138.119 191.289C138.045 192.307 137.731 193.293 137.205 194.167C136.678 195.042 135.953 195.78 135.088 196.322L81.4333 227.297C79.7603 228.263 78.4023 227.577 78.4023 225.764C78.4771 224.746 78.7905 223.76 79.3171 222.886C79.8436 222.011 80.5686 221.273 81.4333 220.731Z" fill="#E0E0E0"/>
<path d="M106.809 181.77C106.844 181.139 107.028 180.525 107.344 179.978C107.66 179.431 108.1 178.966 108.629 178.619L201.666 124.908C202.23 124.622 202.853 124.473 203.486 124.473C204.118 124.473 204.742 124.622 205.306 124.908L207.357 126.091C207.885 126.437 208.325 126.902 208.64 127.45C208.955 127.997 209.136 128.611 209.17 129.241V200.558C209.135 201.188 208.953 201.801 208.638 202.348C208.323 202.895 207.884 203.361 207.357 203.708L114.334 257.418C113.77 257.705 113.146 257.854 112.514 257.854C111.881 257.854 111.258 257.705 110.694 257.418L108.643 256.235C108.114 255.89 107.673 255.425 107.357 254.877C107.041 254.33 106.858 253.716 106.823 253.085L106.809 181.77Z" fill="#2581A2"/>
<path opacity="0.4" d="M107.336 179.977L112.502 182.959L208.633 127.449C208.325 126.895 207.885 126.426 207.352 126.084L205.336 124.908C204.774 124.622 204.153 124.473 203.523 124.473C202.893 124.473 202.271 124.622 201.71 124.908L108.631 178.619C108.092 178.956 107.646 179.423 107.336 179.977Z" fill="white"/>
<path opacity="0.1" d="M106.809 181.77V253.086C106.844 253.716 107.027 254.33 107.343 254.877C107.659 255.425 108.1 255.89 108.629 256.236L110.68 257.419C110.837 257.51 111.004 257.585 111.177 257.643C111.42 257.725 111.671 257.783 111.926 257.818C112.404 257.876 112.888 257.857 113.361 257.762C113.482 257.74 113.601 257.709 113.718 257.671L113.935 257.587C113.796 257.646 113.648 257.677 113.497 257.677C113.347 257.677 113.198 257.646 113.06 257.587C112.866 257.458 112.712 257.277 112.614 257.066C112.516 256.855 112.479 256.621 112.507 256.39V185.06C112.488 184.735 112.569 184.413 112.737 184.136C112.906 183.858 113.155 183.638 113.452 183.506L112.507 182.96L107.334 179.978C107.009 180.521 106.829 181.137 106.809 181.77Z" fill="black"/>
<path opacity="0.2" d="M112.509 182.959L155.594 199.059C157.084 199.614 158.718 199.646 160.228 199.148C161.739 198.651 163.035 197.654 163.903 196.322L170.819 185.724L208.983 127.253L172.198 186.123L209.172 200.592C209.141 201.235 208.946 201.859 208.605 202.405L172.1 186.305L164.036 199.15C163.142 200.577 161.765 201.634 160.155 202.128C158.545 202.622 156.812 202.519 155.272 201.838L149.546 199.311L113.062 257.6C112.868 257.471 112.714 257.291 112.616 257.08C112.519 256.868 112.481 256.634 112.509 256.403V255.22L149.385 199.269L112.509 182.959Z" fill="black"/>
<path d="M189.27 101.088V264.818C189.27 266.75 190.628 267.534 192.301 266.568L265.857 224.099C266.739 223.523 267.473 222.748 267.999 221.836C268.526 220.924 268.83 219.9 268.888 218.849V55.1187C268.888 53.1867 267.53 52.4027 265.857 53.3687L192.301 95.8377C191.418 96.4124 190.683 97.1875 190.156 98.0998C189.63 99.012 189.326 100.036 189.27 101.088Z" fill="#FAFAFA" stroke="#E0E0E0" stroke-width="0.818867" stroke-miterlimit="10"/>
<path d="M193.531 104.132C193.555 103.872 193.639 103.622 193.776 103.401C193.913 103.18 194.1 102.994 194.322 102.858L202.722 98.0206C203.156 97.7686 203.506 97.9366 203.506 98.3916C203.484 98.6504 203.401 98.9003 203.265 99.1215C203.129 99.3427 202.943 99.5291 202.722 99.6656L194.322 104.503C193.888 104.755 193.531 104.587 193.531 104.132Z" fill="#455A64"/>
<path d="M193.531 107.395C193.554 107.135 193.638 106.885 193.775 106.663C193.913 106.442 194.1 106.256 194.322 106.121L202.722 101.284C203.156 101.032 203.506 101.2 203.506 101.648C203.485 101.908 203.403 102.159 203.267 102.381C203.131 102.604 202.944 102.791 202.722 102.929L194.322 107.759C193.888 108.011 193.531 107.85 193.531 107.395Z" fill="#455A64"/>
<path d="M193.531 110.657C193.554 110.397 193.638 110.147 193.775 109.926C193.913 109.704 194.1 109.518 194.322 109.383L202.722 104.546C203.156 104.294 203.506 104.455 203.506 104.91C203.485 105.169 203.403 105.419 203.267 105.641C203.13 105.862 202.944 106.048 202.722 106.184L194.322 111.021C193.888 111.301 193.531 111.112 193.531 110.657Z" fill="#455A64"/>
<path d="M263.203 68.6706V67.3616C263.204 67.3457 263.2 67.3299 263.193 67.3158C263.185 67.3017 263.174 67.2898 263.161 67.2813C263.147 67.2728 263.132 67.268 263.116 67.2674C263.1 67.2667 263.084 67.2702 263.07 67.2776L262.062 67.7326C262.046 67.7404 262.029 67.7446 262.011 67.7449C261.994 67.7452 261.976 67.7415 261.96 67.7341C261.944 67.7267 261.93 67.7158 261.918 67.7023C261.907 67.6887 261.899 67.6727 261.894 67.6556C261.841 67.4811 261.766 67.3141 261.67 67.1586C261.651 67.1206 261.641 67.0786 261.641 67.0361C261.641 66.9935 261.651 66.9516 261.67 66.9136L262.37 65.5556C262.388 65.5212 262.391 65.4814 262.379 65.4447C262.367 65.4081 262.341 65.3775 262.307 65.3596L261.607 64.9396C261.574 64.9228 261.536 64.9184 261.5 64.9275C261.464 64.9365 261.433 64.9582 261.411 64.9886L260.571 66.2486C260.546 66.2824 260.514 66.3096 260.476 66.3279C260.438 66.3462 260.396 66.355 260.354 66.3536C260.171 66.3521 259.988 66.3709 259.808 66.4096C259.791 66.4149 259.773 66.4163 259.755 66.4136C259.738 66.411 259.721 66.4044 259.706 66.3943C259.691 66.3842 259.679 66.3709 259.67 66.3553C259.661 66.3398 259.656 66.3225 259.654 66.3046L259.542 65.2056C259.542 65.1286 259.472 65.0936 259.409 65.1356L258.275 65.7866C258.239 65.8101 258.209 65.841 258.186 65.8772C258.163 65.9134 258.148 65.9541 258.142 65.9966L258.03 67.2566C258.015 67.346 257.974 67.4289 257.911 67.4946C257.684 67.7119 257.473 67.9459 257.281 68.1946C257.254 68.226 257.219 68.2487 257.179 68.2599C257.139 68.2712 257.097 68.2703 257.057 68.2576L256.357 68.0056C256.32 67.9937 256.279 67.9948 256.242 68.0088C256.206 68.0228 256.174 68.0488 256.154 68.0826L255.321 69.5246C255.304 69.5588 255.299 69.5975 255.305 69.6352C255.311 69.6729 255.329 69.7077 255.356 69.7346L255.944 70.2386C255.973 70.2673 255.993 70.3033 256.003 70.3428C256.013 70.3823 256.012 70.4237 256 70.4626C255.892 70.7505 255.804 71.0451 255.734 71.3446C255.711 71.4294 255.662 71.5051 255.594 71.5616L254.558 72.2616C254.524 72.2883 254.495 72.3221 254.475 72.3608C254.454 72.3994 254.442 72.4419 254.439 72.4856V73.7876C254.436 73.8043 254.438 73.8217 254.444 73.8375C254.451 73.8532 254.462 73.8665 254.477 73.8757C254.491 73.8848 254.508 73.8893 254.525 73.8886C254.542 73.8878 254.559 73.8819 254.572 73.8716L255.58 73.4166C255.597 73.41 255.614 73.4071 255.632 73.4078C255.65 73.4086 255.667 73.4131 255.683 73.421C255.699 73.4289 255.713 73.4401 255.724 73.4538C255.735 73.4676 255.744 73.4835 255.748 73.5006C255.802 73.6751 255.877 73.8421 255.972 73.9976C255.991 74.0356 256.001 74.0775 256.001 74.1201C256.001 74.1626 255.991 74.2046 255.972 74.2426L255.272 75.5936C255.256 75.6293 255.254 75.6696 255.266 75.707C255.277 75.7443 255.302 75.7762 255.335 75.7966L256.035 76.2166C256.068 76.2334 256.106 76.2377 256.142 76.2287C256.178 76.2197 256.21 76.198 256.231 76.1676L257.071 74.9076C257.096 74.8738 257.129 74.8466 257.167 74.8283C257.205 74.81 257.246 74.8012 257.288 74.8026C257.472 74.8041 257.655 74.7853 257.834 74.7466C257.851 74.7413 257.869 74.7399 257.887 74.7425C257.905 74.7452 257.922 74.7518 257.937 74.7619C257.951 74.772 257.964 74.7853 257.973 74.8008C257.982 74.8164 257.987 74.8337 257.988 74.8516L258.1 75.9506C258.1 76.0276 258.163 76.0626 258.233 76.0206L259.367 75.3696C259.403 75.3443 259.433 75.3121 259.456 75.2748C259.479 75.2375 259.494 75.1959 259.5 75.1526L259.612 73.8926C259.626 73.8048 259.668 73.7238 259.731 73.6616C259.958 73.4443 260.169 73.2103 260.361 72.9616C260.388 72.9302 260.424 72.9074 260.464 72.8962C260.504 72.885 260.546 72.8858 260.585 72.8986L261.285 73.1506C261.323 73.1625 261.363 73.1613 261.4 73.1474C261.437 73.1334 261.468 73.1074 261.488 73.0736L262.321 71.6316C262.339 71.5958 262.345 71.5552 262.337 71.516C262.329 71.4768 262.309 71.4411 262.279 71.4146L261.698 70.9176C261.669 70.8888 261.649 70.8528 261.639 70.8134C261.629 70.7739 261.63 70.7325 261.642 70.6936C261.75 70.4057 261.839 70.1111 261.908 69.8116C261.928 69.7251 261.978 69.6482 262.048 69.5946L263.084 68.8946C263.118 68.8672 263.146 68.8333 263.167 68.7948C263.187 68.7563 263.2 68.714 263.203 68.6706ZM258.772 72.8006C257.715 73.4166 256.861 72.9196 256.861 71.7016C256.894 71.0367 257.084 70.389 257.417 69.8121C257.749 69.2353 258.214 68.7456 258.772 68.3836C259.829 67.7746 260.683 68.2716 260.683 69.4896C260.649 70.1533 260.459 70.7995 260.126 71.3751C259.794 71.9507 259.33 72.4392 258.772 72.8006Z" fill="#37474F"/>
<path d="M229.081 100.941C237.677 95.9779 244.642 100.003 244.642 109.929C244.642 119.855 237.677 131.916 229.081 136.879C220.485 141.842 213.52 137.817 213.52 127.898C213.52 117.979 220.485 105.904 229.081 100.941Z" fill="#455A64"/>
<path d="M228.972 108.752C231.772 107.142 234.019 108.444 234.019 111.664C233.923 113.414 233.416 115.117 232.539 116.635C231.662 118.153 230.44 119.442 228.972 120.4C226.172 122.01 223.918 120.708 223.918 117.488C224.014 115.737 224.522 114.033 225.4 112.515C226.278 110.997 227.502 109.708 228.972 108.752Z" fill="#2581A2"/>
<path d="M238.936 125.916C238.936 120.631 235.219 118.482 230.641 121.128L227.736 122.78C223.158 125.426 219.441 131.88 219.441 137.151V138.6C220.306 138.876 221.208 139.015 222.115 139.013C224.571 138.929 226.963 138.205 229.052 136.913C233.051 134.457 236.432 131.116 238.936 127.148V125.916Z" fill="#2581A2"/>
<path d="M215.035 151.641L243.133 135.422C243.966 134.939 244.645 135.282 244.645 136.192C244.608 136.7 244.451 137.192 244.188 137.628C243.926 138.065 243.565 138.434 243.133 138.705L215.042 154.924C214.202 155.414 213.523 155.064 213.523 154.161C213.56 153.652 213.715 153.158 213.978 152.72C214.241 152.282 214.603 151.913 215.035 151.641Z" fill="#2581A2"/>
<path d="M212.019 163.247L246.137 143.5C246.977 143.017 247.656 143.36 247.656 144.27C247.618 144.779 247.461 145.271 247.197 145.708C246.933 146.145 246.57 146.513 246.137 146.783L212.019 166.53C211.179 167.013 210.5 166.67 210.5 165.76C210.538 165.251 210.695 164.759 210.959 164.322C211.223 163.885 211.586 163.517 212.019 163.247Z" fill="#455A64"/>
<path d="M247.047 159.418L256.602 153.902C257.106 153.615 257.512 153.748 257.512 154.203C257.474 154.482 257.372 154.749 257.214 154.982C257.056 155.215 256.847 155.408 256.602 155.547L247.047 161.063C246.55 161.35 246.137 161.217 246.137 160.769C246.175 160.489 246.277 160.222 246.435 159.988C246.593 159.754 246.802 159.559 247.047 159.418Z" fill="#37474F"/>
<path d="M199.313 183.7L213.348 175.601C214.181 175.118 214.86 175.51 214.86 176.476V186.108C214.831 186.634 214.679 187.145 214.416 187.601C214.154 188.057 213.788 188.445 213.348 188.733L199.313 196.832C198.48 197.315 197.801 196.923 197.801 195.957V186.325C197.83 185.8 197.982 185.289 198.244 184.833C198.507 184.377 198.873 183.989 199.313 183.7Z" fill="#2581A2"/>
<path d="M201.555 185.045L211.11 179.529C211.614 179.242 212.02 179.376 212.02 179.824C211.983 180.104 211.881 180.372 211.723 180.606C211.566 180.84 211.355 181.035 211.11 181.175L201.555 186.691C201.051 186.978 200.645 186.844 200.645 186.396C200.681 186.116 200.783 185.848 200.941 185.614C201.099 185.38 201.309 185.185 201.555 185.045Z" fill="#FAFAFA"/>
<path d="M200.645 189.903V192.703C200.645 193.284 201.051 193.515 201.555 193.228L211.11 187.712C211.374 187.539 211.595 187.307 211.753 187.033C211.911 186.759 212.002 186.452 212.02 186.137V183.337C212.02 182.756 211.614 182.525 211.11 182.812L201.555 188.3C201.287 188.476 201.065 188.713 200.906 188.991C200.748 189.27 200.658 189.582 200.645 189.903Z" fill="#FAFAFA"/>
<path d="M222.063 170.568L236.063 162.469C236.903 161.986 237.582 162.378 237.582 163.344V172.976C237.553 173.503 237.401 174.015 237.137 174.471C236.873 174.927 236.505 175.314 236.063 175.601L222.063 183.7C221.223 184.183 220.551 183.791 220.551 182.825V173.193C220.578 172.668 220.729 172.156 220.992 171.7C221.255 171.243 221.622 170.856 222.063 170.568Z" fill="#2581A2"/>
<path d="M224.305 171.914L233.86 166.398C234.357 166.111 234.763 166.244 234.763 166.692C234.725 166.971 234.625 167.238 234.468 167.472C234.312 167.706 234.103 167.902 233.86 168.043L224.305 173.559C223.801 173.846 223.395 173.713 223.395 173.258C223.432 172.979 223.534 172.712 223.692 172.479C223.85 172.246 224.06 172.052 224.305 171.914Z" fill="#FAFAFA"/>
<path d="M223.395 176.771V179.571C223.395 180.152 223.801 180.383 224.305 180.096L233.86 174.58C234.122 174.406 234.341 174.173 234.498 173.899C234.654 173.626 234.745 173.319 234.763 173.005V170.205C234.763 169.624 234.35 169.393 233.853 169.68L224.298 175.196C224.034 175.369 223.815 175.602 223.658 175.875C223.501 176.149 223.411 176.456 223.395 176.771Z" fill="#FAFAFA"/>
<path d="M244.812 157.437L258.812 149.331C259.645 148.848 260.324 149.24 260.324 150.206V159.845C260.295 160.37 260.143 160.881 259.881 161.337C259.618 161.793 259.252 162.181 258.812 162.47L244.812 170.569C243.972 171.052 243.293 170.66 243.293 169.694V160.062C243.322 159.536 243.474 159.023 243.738 158.567C244.002 158.111 244.37 157.724 244.812 157.437Z" fill="#2581A2"/>
<path d="M247.047 158.781L256.602 153.3C257.106 153.006 257.512 153.139 257.512 153.594C257.475 153.873 257.374 154.141 257.216 154.374C257.058 154.607 256.848 154.8 256.602 154.938L247.047 160.454C246.55 160.748 246.137 160.615 246.137 160.16C246.169 159.875 246.269 159.601 246.427 159.362C246.585 159.122 246.797 158.923 247.047 158.781Z" fill="#FAFAFA"/>
<path d="M246.137 163.639V166.439C246.137 167.013 246.55 167.251 247.047 166.964L256.602 161.441C256.867 161.269 257.088 161.037 257.246 160.763C257.404 160.489 257.495 160.182 257.512 159.866V157.066C257.512 156.485 257.106 156.247 256.602 156.541L247.047 162.057C246.781 162.231 246.561 162.464 246.402 162.739C246.244 163.014 246.153 163.323 246.137 163.639Z" fill="#FAFAFA"/>
<path d="M200.832 205.8L257.322 173.187C259.002 172.221 260.353 172.907 260.353 174.72C260.28 175.738 259.967 176.725 259.44 177.599C258.914 178.474 258.188 179.212 257.322 179.753L200.832 212.366C199.159 213.332 197.801 212.646 197.801 210.833C197.876 209.815 198.189 208.829 198.715 207.954C199.242 207.08 199.967 206.342 200.832 205.8Z" fill="#E0E0E0"/>
<path d="M200.832 218.938L257.322 186.325C259.002 185.359 260.353 186.045 260.353 187.858C260.28 188.877 259.967 189.863 259.44 190.738C258.914 191.613 258.188 192.351 257.322 192.891L200.832 225.511C199.159 226.477 197.801 225.791 197.801 223.971C197.876 222.954 198.189 221.968 198.715 221.093C199.242 220.219 199.967 219.481 200.832 218.938Z" fill="#E0E0E0"/>
<path d="M219.222 224.742L238.934 213.36C239.774 212.877 240.453 213.269 240.453 214.235V220.584C240.425 221.11 240.272 221.622 240.008 222.079C239.744 222.535 239.376 222.922 238.934 223.209L219.222 234.591C218.382 235.074 217.703 234.682 217.703 233.716V227.367C217.732 226.841 217.884 226.329 218.148 225.873C218.412 225.416 218.78 225.029 219.222 224.742Z" fill="#2581A2"/>
<path d="M202.068 206.773C201.658 207.045 201.318 207.41 201.075 207.838C200.831 208.266 200.692 208.745 200.668 209.237C200.668 210.14 201.305 210.511 202.068 210.056C202.478 209.783 202.818 209.418 203.061 208.99C203.305 208.562 203.444 208.083 203.468 207.592C203.489 206.689 202.852 206.318 202.068 206.773Z" fill="#FAFAFA"/>
<path d="M206.572 204.17C206.161 204.441 205.82 204.806 205.577 205.234C205.334 205.662 205.195 206.142 205.172 206.634C205.172 207.537 205.802 207.907 206.572 207.452C206.982 207.18 207.322 206.815 207.565 206.387C207.809 205.959 207.948 205.48 207.972 204.989C207.993 204.086 207.356 203.701 206.572 204.17Z" fill="#FAFAFA"/>
<path d="M211.072 201.6C210.662 201.873 210.322 202.238 210.078 202.666C209.835 203.093 209.696 203.573 209.672 204.064C209.672 204.967 210.309 205.338 211.072 204.883C211.482 204.611 211.822 204.246 212.065 203.818C212.309 203.39 212.448 202.911 212.472 202.419C212.493 201.481 211.856 201.11 211.072 201.6Z" fill="#FAFAFA"/>
<path d="M215.58 198.961C215.169 199.233 214.829 199.598 214.585 200.026C214.342 200.454 214.203 200.933 214.18 201.425C214.18 202.328 214.817 202.699 215.58 202.244C215.99 201.972 216.33 201.607 216.573 201.179C216.816 200.751 216.956 200.272 216.98 199.78C217.001 198.877 216.364 198.506 215.58 198.961Z" fill="#FAFAFA"/>
<path d="M220.084 196.357C219.674 196.629 219.333 196.994 219.09 197.422C218.847 197.85 218.708 198.329 218.684 198.821C218.684 199.724 219.321 200.095 220.084 199.64C220.494 199.367 220.834 199.002 221.077 198.574C221.32 198.147 221.459 197.667 221.484 197.176C221.505 196.273 220.868 195.902 220.084 196.357Z" fill="#FAFAFA"/>
<path d="M224.584 193.752C224.174 194.025 223.833 194.39 223.59 194.817C223.347 195.245 223.208 195.725 223.184 196.216C223.184 197.119 223.821 197.49 224.584 197.035C224.994 196.764 225.335 196.399 225.579 195.971C225.822 195.543 225.961 195.063 225.984 194.571C226.005 193.668 225.375 193.297 224.584 193.752Z" fill="#FAFAFA"/>
<path d="M229.091 191.148C228.681 191.421 228.341 191.786 228.098 192.214C227.855 192.642 227.716 193.121 227.691 193.612C227.691 194.515 228.328 194.886 229.091 194.431C229.501 194.159 229.842 193.794 230.085 193.366C230.328 192.938 230.467 192.459 230.491 191.967C230.533 191.099 229.875 190.693 229.091 191.148Z" fill="#FAFAFA"/>
<path d="M202.068 219.919C201.659 220.192 201.319 220.557 201.076 220.985C200.833 221.413 200.693 221.892 200.668 222.383C200.668 223.293 201.305 223.657 202.068 223.202C202.478 222.931 202.818 222.567 203.061 222.141C203.305 221.714 203.444 221.236 203.468 220.745C203.489 219.835 202.852 219.471 202.068 219.919Z" fill="#FAFAFA"/>
<path d="M206.572 217.315C206.161 217.587 205.821 217.952 205.578 218.38C205.334 218.808 205.195 219.288 205.172 219.779C205.172 220.689 205.802 221.053 206.572 220.598C206.982 220.328 207.322 219.964 207.565 219.537C207.809 219.11 207.948 218.632 207.972 218.141C207.993 217.231 207.356 216.867 206.572 217.315Z" fill="#FAFAFA"/>
<path d="M211.072 214.711C210.663 214.984 210.323 215.349 210.08 215.777C209.837 216.205 209.697 216.684 209.672 217.175C209.672 218.085 210.309 218.449 211.072 217.994C211.482 217.723 211.822 217.36 212.065 216.933C212.308 216.506 212.448 216.028 212.472 215.537C212.493 214.627 211.856 214.256 211.072 214.711Z" fill="#FAFAFA"/>
<path d="M215.58 212.1C215.17 212.373 214.829 212.738 214.586 213.166C214.343 213.594 214.204 214.073 214.18 214.564C214.18 215.474 214.817 215.838 215.58 215.383C215.99 215.112 216.33 214.749 216.573 214.322C216.816 213.895 216.956 213.417 216.98 212.926C217.001 212.023 216.364 211.652 215.58 212.1Z" fill="#FAFAFA"/>
<path d="M220.084 209.503C219.674 209.775 219.333 210.14 219.09 210.568C218.847 210.996 218.708 211.475 218.684 211.967C218.684 212.877 219.321 213.241 220.084 212.786C220.493 212.515 220.834 212.152 221.077 211.725C221.32 211.298 221.46 210.82 221.484 210.329C221.505 209.419 220.868 209.048 220.084 209.503Z" fill="#FAFAFA"/>
<path d="M224.584 206.899C224.174 207.171 223.833 207.536 223.59 207.964C223.347 208.392 223.208 208.871 223.184 209.363C223.184 210.273 223.821 210.637 224.584 210.182C224.995 209.911 225.337 209.546 225.58 209.118C225.823 208.69 225.962 208.21 225.984 207.718C226.005 206.815 225.375 206.444 224.584 206.899Z" fill="#FAFAFA"/>
<path d="M229.091 204.295C228.681 204.568 228.341 204.932 228.098 205.36C227.855 205.788 227.716 206.268 227.691 206.759C227.691 207.669 228.328 208.033 229.091 207.578C229.502 207.306 229.842 206.941 230.086 206.513C230.329 206.085 230.468 205.606 230.491 205.114C230.533 204.211 229.875 203.84 229.091 204.295Z" fill="#FAFAFA"/>
</g>
<defs>
<linearGradient id="paint0_linear_1797_29285" x1="165" y1="-138.5" x2="165" y2="229" gradientUnits="userSpaceOnUse">
<stop stop-color="#D1EBF5"/>
<stop offset="1" stop-color="white"/>
</linearGradient>
<clipPath id="clip0_1797_29285">
<rect width="350" height="303" fill="white"/>
</clipPath>
</defs>
</svg>
