<svg width="400" height="268" viewBox="0 0 400 268" fill="none" xmlns="http://www.w3.org/2000/svg">
<path d="M330.502 124.789C330.66 124.883 330.789 125.019 330.875 125.182C330.961 125.345 331 125.528 330.988 125.712C330.988 125.813 330.988 125.915 330.988 126.021C330.988 126.128 330.988 126.229 330.988 126.331C330.999 126.513 330.959 126.696 330.874 126.857C330.788 127.019 330.66 127.154 330.502 127.248L329.393 127.888L331.478 131.504L332.588 130.864C332.747 130.772 332.928 130.726 333.112 130.732C333.296 130.737 333.474 130.794 333.628 130.896C333.799 131.011 333.977 131.116 334.161 131.211C334.322 131.294 334.457 131.42 334.551 131.576C334.645 131.731 334.695 131.909 334.694 132.091V133.371H338.865V132.091C338.865 131.909 338.915 131.732 339.009 131.577C339.103 131.422 339.238 131.295 339.398 131.211C339.583 131.117 339.761 131.012 339.932 130.896C340.085 130.794 340.263 130.737 340.447 130.732C340.631 130.726 340.812 130.772 340.972 130.864L342.081 131.504L344.166 127.888L343.052 127.243C342.894 127.15 342.766 127.015 342.681 126.852C342.596 126.69 342.558 126.508 342.572 126.325C342.572 126.224 342.572 126.123 342.572 126.021C342.572 125.92 342.572 125.813 342.572 125.712C342.56 125.528 342.598 125.345 342.684 125.182C342.77 125.019 342.899 124.883 343.057 124.789L344.166 124.155L342.081 120.539L340.977 121.179C340.817 121.27 340.635 121.315 340.452 121.308C340.268 121.302 340.09 121.244 339.937 121.141C339.765 121.028 339.587 120.925 339.404 120.832C339.243 120.746 339.109 120.619 339.015 120.463C338.921 120.307 338.871 120.129 338.87 119.947V118.672H334.7V119.947C334.699 120.129 334.649 120.307 334.555 120.463C334.461 120.619 334.327 120.746 334.166 120.832C333.982 120.924 333.804 121.027 333.633 121.141C333.477 121.248 333.294 121.308 333.105 121.315C332.916 121.321 332.729 121.274 332.566 121.179L331.462 120.539L329.377 124.155L330.502 124.789ZM336.801 122.597C337.477 122.597 338.138 122.798 338.7 123.173C339.262 123.549 339.7 124.082 339.959 124.707C340.218 125.331 340.286 126.018 340.154 126.681C340.023 127.344 339.698 127.953 339.22 128.431C338.743 128.91 338.134 129.236 337.471 129.368C336.808 129.501 336.121 129.434 335.496 129.176C334.872 128.918 334.337 128.481 333.961 127.919C333.585 127.358 333.383 126.697 333.382 126.021C333.382 125.114 333.742 124.244 334.383 123.602C335.024 122.96 335.894 122.599 336.801 122.597Z" fill="#EBEBEB"/>
<path d="M337.333 94.1707V87.92L332.912 88.2667V93.824L337.333 94.1707Z" fill="#EBEBEB"/>
<path d="M339.44 82.2773L343.856 77.856L340.485 74.9707L336.555 78.9013L339.44 82.2773Z" fill="#EBEBEB"/>
<path d="M60.4097 204.165C57.3483 204.219 49.6257 204.352 46.6657 204.384H42.031H41.791V204.144V198.176V197.909H42.0577L51.247 197.947C53.535 197.947 58.1483 198.016 60.4363 198.048H60.5697V198.176L60.4417 204.144L60.4097 204.165ZM60.4097 204.165L60.2657 198.197L60.3937 198.325C58.1003 198.357 53.4977 198.405 51.2043 198.427L42.015 198.464L42.2817 198.197V204.165L42.0417 203.92H46.5963C49.5083 203.952 57.407 204.085 60.4203 204.139L60.4097 204.165Z" fill="#EBEBEB"/>
<path d="M50.1611 211.691C47.0998 211.744 39.3771 211.877 36.4171 211.909H31.7824H31.5371V211.669V205.701V205.467H31.8091L40.9984 205.504C43.2864 205.504 47.8998 205.573 50.1878 205.605H50.3158V205.733L50.1878 211.701L50.1611 211.691ZM50.1611 211.691L50.0331 205.723L50.1611 205.851C47.8678 205.883 43.2598 205.931 40.9718 205.952L31.7824 206L32.0491 205.733L32.0011 211.691L31.7611 211.445L36.3104 211.472C39.2224 211.504 47.1264 211.637 50.1398 211.691H50.1611Z" fill="#EBEBEB"/>
<path d="M69.4077 95.1093C66.3464 95.1627 58.6291 95.296 55.6691 95.328H51.0291H50.7891V95.0827V89.1147V88.848H51.0557L60.2451 88.8853C62.5331 88.8853 67.1464 88.9547 69.4344 88.9867H69.5677V89.1147L69.4397 95.0827L69.4077 95.1093ZM69.4077 95.1093L69.2797 89.1413L69.4077 89.2693C67.1197 89.3013 62.5117 89.3547 60.2184 89.3707L51.0291 89.408L51.2957 89.1413V95.1093L51.0504 94.8693H55.6051C58.5171 94.9013 66.4157 95.0347 69.4291 95.088L69.4077 95.1093Z" fill="#EBEBEB"/>
<path d="M59.1572 102.635C56.0959 102.688 48.3732 102.821 45.4132 102.853L40.7785 102.88H40.5332V102.635V96.6667V96.4H40.7999L49.9892 96.4373C52.2772 96.4373 56.8905 96.5067 59.1785 96.5387H59.3119V96.6667L59.1839 102.635H59.1572ZM59.1572 102.635L59.0292 96.6667L59.1572 96.7947C56.8639 96.8267 52.2612 96.88 49.9679 96.896L40.7785 96.9333L41.0452 96.6667V102.635L40.7999 102.395H45.3545C48.2665 102.427 56.1652 102.56 59.1785 102.613L59.1572 102.635Z" fill="#EBEBEB"/>
<path d="M79.6638 96.6667H61.2852V102.635H79.6638V96.6667Z" fill="#EBEBEB"/>
<path d="M359.75 205.723H341.371V211.691H359.75V205.723Z" fill="#EBEBEB"/>
<path d="M359.75 23.728H341.371V29.696H359.75V23.728Z" fill="#EBEBEB"/>
<path d="M369.999 37.2213C366.938 37.2747 359.215 37.408 356.26 37.44H351.62H351.38V37.1947L351.354 31.2267V30.96H351.62L360.81 30.9973C363.098 30.9973 367.711 31.0667 369.999 31.0987H370.132V31.2213L370.004 37.1893L369.999 37.2213ZM369.999 37.2213L369.871 31.2533L369.999 31.3813C367.706 31.4187 363.103 31.4667 360.81 31.488L351.62 31.52L351.887 31.2533V37.2213L351.642 36.9813H356.196C359.108 37.0187 367.007 37.152 370.02 37.2L369.999 37.2213Z" fill="#EBEBEB"/>
<path d="M48.3779 29.7066C45.3166 29.76 37.5939 29.888 34.6339 29.9253H29.9992H29.7539V29.6853V23.7173V23.4453H30.0206L39.2099 23.4773C41.4979 23.4773 46.1112 23.5466 48.3992 23.5786H48.5326V23.7066L48.4046 29.6746L48.3779 29.7066ZM48.3779 29.7066L48.2499 23.7386L48.3779 23.8666C46.0846 23.8986 41.4819 23.9466 39.1886 23.968L29.9992 24L30.2659 23.7386V29.7066L29.9992 29.4666H34.5486C37.4659 29.504 45.3646 29.6373 48.3779 29.6906V29.7066Z" fill="#EBEBEB"/>
<path d="M218.026 49.536H236.404V43.568H218.026V49.536Z" fill="#EBEBEB"/>
<path d="M228.266 36.0426C231.327 35.9893 239.05 35.856 242.01 35.824H246.644H246.884V36.0693V42.0373V42.2666H246.618H237.471C235.183 42.2666 230.57 42.1973 228.282 42.1653H228.148V42.0373L228.266 36.0426ZM228.266 36.0426L228.394 42.0106L228.266 41.8826C230.559 41.8506 235.162 41.8026 237.455 41.7813L246.66 41.7333L246.394 42V36.032L246.639 36.2773L242.132 36.2613C239.22 36.2293 231.322 36.096 228.308 36.0426H228.266Z" fill="#EBEBEB"/>
<path d="M27.0508 236.187L70.2881 236.059L113.525 236.011L200 235.925L286.475 236.011L329.712 236.059L372.949 236.187L329.712 236.32L286.475 236.368L200 236.453L113.525 236.368L70.2881 236.32L27.0508 236.187Z" fill="#263238"/>
<path d="M363.398 224.288H36.6035V236.192H363.398V224.288Z" fill="#C7C7C7"/>
<path d="M334.427 44.4374H65.5684V224.288H334.427V44.4374Z" fill="#DBDBDB"/>
<path d="M332.48 46.6293H67.5254V222.091H332.48V46.6293Z" fill="#263238"/>
<path d="M320.742 57.9094H79.2539V210.811H320.742V57.9094Z" fill="white"/>
<path d="M320.742 57.9094H79.2539V61.8827H320.742V57.9094Z" fill="#455A64"/>
<path d="M83.0088 59.8934C83.0098 60.0436 82.9662 60.1908 82.8834 60.3161C82.8006 60.4415 82.6823 60.5394 82.5437 60.5974C82.4051 60.6553 82.2524 60.6708 82.105 60.6417C81.9576 60.6127 81.8222 60.5404 81.716 60.4342C81.6097 60.328 81.5375 60.1925 81.5084 60.0451C81.4794 59.8977 81.4948 59.745 81.5528 59.6064C81.6108 59.4678 81.7087 59.3496 81.834 59.2668C81.9594 59.184 82.1065 59.1403 82.2568 59.1414C82.4562 59.1414 82.6475 59.2206 82.7885 59.3616C82.9296 59.5027 83.0088 59.6939 83.0088 59.8934Z" fill="#C7C7C7"/>
<path d="M86.0908 59.8934C86.0919 60.0434 86.0484 60.1903 85.9658 60.3156C85.8832 60.4408 85.7653 60.5387 85.627 60.5969C85.4887 60.655 85.3363 60.6708 85.189 60.6421C85.0418 60.6135 84.9063 60.5418 84.7999 60.4361C84.6934 60.3304 84.6208 60.1955 84.5911 60.0484C84.5615 59.9014 84.5761 59.7488 84.6333 59.6101C84.6905 59.4715 84.7875 59.3529 84.9122 59.2694C85.0368 59.1859 85.1835 59.1414 85.3335 59.1414C85.5334 59.1414 85.7253 59.2204 85.8671 59.3613C86.009 59.5022 86.0894 59.6935 86.0908 59.8934Z" fill="white"/>
<path d="M89.1689 59.8934C89.17 60.0434 89.1265 60.1903 89.0439 60.3156C88.9613 60.4408 88.8434 60.5387 88.7051 60.5969C88.5669 60.655 88.4144 60.6708 88.2672 60.6421C88.1199 60.6135 87.9845 60.5418 87.878 60.4361C87.7716 60.3304 87.6989 60.1955 87.6692 60.0484C87.6396 59.9014 87.6543 59.7488 87.7114 59.6101C87.7686 59.4714 87.8656 59.3528 87.9903 59.2694C88.115 59.1859 88.2616 59.1414 88.4116 59.1414C88.5108 59.1407 88.6092 59.1596 88.701 59.1971C88.7929 59.2346 88.8764 59.2898 88.9468 59.3597C89.0172 59.4296 89.0731 59.5128 89.1112 59.6044C89.1493 59.6959 89.1689 59.7942 89.1689 59.8934Z" fill="#7AD03A"/>
<path d="M320.742 61.8827H79.2539V84.2027H320.742V61.8827Z" fill="#7AD03A"/>
<path d="M309.991 67.3814H265.74V73.2854H309.991V67.3814Z" fill="white"/>
<path d="M310.048 73.3494H265.68V67.3334H310.048V73.3494ZM265.781 73.2267H309.914V67.44H265.797L265.781 73.2267Z" fill="#C7C7C7"/>
<path d="M310.053 67.3174H304.021V73.3494H310.053V67.3174Z" fill="#455A64"/>
<path d="M308.908 71.9893L308.374 72.4053L307.356 71.0667L306.982 70.5813C307.059 70.551 307.131 70.5097 307.196 70.4587C307.32 70.3648 307.418 70.2397 307.478 70.096L307.868 70.6293L308.908 71.9893Z" fill="white"/>
<path d="M307.835 68.848C307.662 68.6228 307.428 68.4517 307.161 68.355C306.894 68.2582 306.605 68.2398 306.328 68.302C306.051 68.3642 305.798 68.5043 305.598 68.7058C305.398 68.9073 305.26 69.1618 305.2 69.4393C305.14 69.7167 305.16 70.0056 305.259 70.2717C305.358 70.5379 305.531 70.7702 305.757 70.9413C305.984 71.1124 306.255 71.2151 306.538 71.2373C306.821 71.2596 307.104 71.2003 307.354 71.0667C307.426 71.0292 307.494 70.9845 307.557 70.9334C307.677 70.8446 307.782 70.7364 307.866 70.6134C308.05 70.3542 308.146 70.0431 308.141 69.7254C308.135 69.4078 308.028 69.1003 307.835 68.848ZM307.194 70.448C307.13 70.499 307.058 70.5403 306.981 70.5707C306.79 70.6459 306.579 70.6525 306.383 70.5897C306.187 70.5268 306.019 70.3982 305.908 70.2257C305.796 70.0532 305.748 69.8474 305.77 69.6431C305.793 69.4389 305.886 69.2488 306.033 69.1051C306.179 68.9614 306.371 68.8729 306.576 68.8546C306.781 68.8363 306.986 68.8893 307.156 69.0047C307.326 69.1201 307.451 69.2907 307.509 69.4877C307.568 69.6846 307.556 69.8958 307.477 70.0854C307.42 70.2323 307.324 70.3612 307.2 70.4587L307.194 70.448Z" fill="white"/>
<path d="M267.291 68.5441H266.977V72.1281H267.291V68.5441Z" fill="#C7C7C7"/>
<path d="M253.377 67.3814H108.582V73.2854H253.377V67.3814Z" fill="white"/>
<path d="M253.435 73.3494H108.523V67.3334H253.435V73.3494ZM108.641 73.2267H253.334V67.44H108.641V73.2267Z" fill="#C7C7C7"/>
<path d="M110.129 68.5441H109.814V72.1281H110.129V68.5441Z" fill="#C7C7C7"/>
<path d="M92.1019 72.3574L89.9473 70.3734L92.0966 68.3147L92.4326 68.6614L90.6513 70.3681L92.4273 72.0001L92.1019 72.3574Z" fill="white"/>
<path d="M97.2916 68.3147L99.4409 70.2934L97.2969 72.3521L96.9609 72.0054L98.7423 70.2987L96.9663 68.6667L97.2916 68.3147Z" fill="white"/>
<path opacity="0.7" d="M320.742 57.9094H79.2539V210.811H320.742V57.9094Z" fill="white"/>
<path d="M290.695 75.7174H109.303V198.885H290.695V75.7174Z" fill="white"/>
<path d="M290.966 199.152H109.035V75.4507H290.966V199.152ZM109.568 198.619H290.432V75.984H109.568V198.619Z" fill="#EBEBEB"/>
<path d="M290.695 75.7174H109.303V79.6907H290.695V75.7174Z" fill="#455A64"/>
<path d="M113.067 77.7014C113.068 77.8516 113.025 77.9988 112.942 78.1241C112.859 78.2495 112.741 78.3474 112.602 78.4053C112.464 78.4633 112.311 78.4788 112.164 78.4497C112.016 78.4207 111.881 78.3484 111.775 78.2422C111.668 78.136 111.596 78.0005 111.567 77.8531C111.538 77.7057 111.553 77.553 111.611 77.4144C111.669 77.2758 111.767 77.1576 111.893 77.0748C112.018 76.992 112.165 76.9483 112.315 76.9494C112.514 76.9508 112.705 77.0304 112.846 77.1712C112.986 77.3119 113.066 77.5024 113.067 77.7014Z" fill="#C7C7C7"/>
<path d="M116.135 77.7014C116.135 77.8501 116.091 77.9955 116.008 78.1192C115.925 78.2428 115.808 78.3392 115.671 78.3961C115.533 78.453 115.382 78.4679 115.236 78.4389C115.09 78.4099 114.956 78.3383 114.851 78.2331C114.746 78.128 114.674 77.994 114.645 77.8481C114.616 77.7022 114.631 77.551 114.688 77.4136C114.745 77.2762 114.841 77.1587 114.965 77.0761C115.089 76.9935 115.234 76.9494 115.383 76.9494C115.582 76.9508 115.772 77.0304 115.913 77.1712C116.054 77.3119 116.133 77.5024 116.135 77.7014Z" fill="white"/>
<path d="M118.459 78.4534C118.874 78.4534 119.211 78.1167 119.211 77.7014C119.211 77.2861 118.874 76.9494 118.459 76.9494C118.044 76.9494 117.707 77.2861 117.707 77.7014C117.707 78.1167 118.044 78.4534 118.459 78.4534Z" fill="#7AD03A"/>
<path d="M213 170H187C184.791 170 183 171.791 183 174C183 176.209 184.791 178 187 178H213C215.209 178 217 176.209 217 174C217 171.791 215.209 170 213 170Z" fill="#7AD03A"/>
<path d="M196.705 101.269L197.708 101.312V103.899H196.705V101.269Z" fill="#EBEBEB"/>
<path d="M203.298 101.536V103.899H202.295V101.499L203.298 101.536Z" fill="#EBEBEB"/>
<path d="M56.8752 176.699C56.8752 176.699 52.0005 169.232 41.0992 170.677C30.7312 172.059 24.2885 190.213 34.3259 193.413C44.3632 196.613 44.1925 179.221 48.1925 176.656C51.1472 174.773 55.0459 175.6 56.8752 176.699Z" fill="#7AD03A"/>
<path d="M31.8926 180.053C32.6458 179.511 33.4332 179.017 34.25 178.576C35.0217 178.152 35.8468 177.832 36.7033 177.627C37.1794 177.035 37.702 176.482 38.266 175.973C39.3011 175.048 40.4698 174.284 41.7326 173.707C41.626 173.707 41.5246 173.669 41.418 173.659C40.8558 173.579 40.2896 173.531 39.722 173.515C38.5735 173.485 37.4294 173.666 36.346 174.048C36.3332 174.052 36.3193 174.051 36.3073 174.045C36.2953 174.039 36.2862 174.029 36.282 174.016C36.2777 174.003 36.2787 173.989 36.2847 173.977C36.2907 173.965 36.3012 173.956 36.314 173.952C37.4115 173.597 38.5459 173.368 39.6953 173.269C40.2541 173.219 40.8164 173.219 41.3753 173.269C41.674 173.301 41.9726 173.349 42.266 173.408L42.4366 173.44C43.4669 173.036 44.5408 172.753 45.6366 172.597L45.3486 172.491C44.8375 172.325 44.3176 172.188 43.7913 172.08C42.7402 171.856 41.6645 171.77 40.5913 171.824C40.5806 171.821 40.5713 171.814 40.5647 171.805C40.5582 171.796 40.5546 171.785 40.5546 171.773C40.5546 171.762 40.5582 171.751 40.5647 171.742C40.5713 171.733 40.5806 171.726 40.5913 171.723C41.6734 171.696 42.7558 171.755 43.8286 171.899C44.7356 172.009 45.6291 172.211 46.4953 172.501C47.1498 172.446 47.8072 172.434 48.4633 172.464C52.1966 172.661 56.1273 174.437 58.1273 177.712C60.1273 180.987 60.1913 185.115 60.2606 188.848C60.3941 194.054 60.037 199.261 59.194 204.4C59.1406 204.704 58.7139 204.608 58.7353 204.315C59.0126 199.915 59.2686 195.515 59.2686 191.104C59.2686 189.061 59.242 187.008 59.0926 184.971C59.0125 183.221 58.6765 181.492 58.0953 179.84C57.4566 178.146 56.33 176.68 54.858 175.627C53.3797 174.586 51.6896 173.885 49.9086 173.573C48.3104 173.291 46.6749 173.291 45.0766 173.573C45.1032 173.891 45.0816 174.211 45.0126 174.523C44.9413 174.915 44.8268 175.297 44.6713 175.664C44.5242 176.01 44.3457 176.342 44.138 176.656C43.9033 177.008 43.6046 177.307 43.37 177.637C43.3326 177.691 43.2473 177.637 43.2953 177.573C43.7916 176.988 44.1424 176.293 44.3193 175.547C44.4192 175.197 44.4958 174.84 44.5486 174.48C44.5913 174.208 44.5913 173.947 44.634 173.659C42.8896 174.017 41.2286 174.701 39.738 175.675C39.4606 175.856 39.2046 176.053 38.922 176.256C39.2421 176.618 39.5113 177.021 39.722 177.456C40.037 178.024 40.3012 178.618 40.5113 179.232C40.8628 180.462 41.0493 181.734 41.066 183.013C41.066 183.077 40.9646 183.088 40.9646 183.013C40.8841 181.761 40.5864 180.532 40.0846 179.381C39.8536 178.814 39.5864 178.261 39.2846 177.728C39.13 177.451 38.97 177.195 38.794 176.917C38.7033 176.773 38.602 176.629 38.5166 176.475C37.1437 177.584 35.982 178.932 35.0873 180.453C35.5363 181.035 35.8959 181.68 36.154 182.368C36.4718 183.091 36.7373 183.836 36.9486 184.597C37.3486 186.075 37.655 187.577 37.866 189.093C37.866 189.157 37.77 189.168 37.7646 189.093C37.5797 187.578 37.2071 186.091 36.6553 184.667C36.3993 183.968 36.122 183.28 35.834 182.592C35.519 181.957 35.2429 181.303 35.0073 180.635C34.148 182.124 33.5763 183.761 33.322 185.461C33.3184 185.472 33.3117 185.481 33.3026 185.488C33.2935 185.494 33.2825 185.498 33.2713 185.498C33.2601 185.498 33.2491 185.494 33.24 185.488C33.2309 185.481 33.2241 185.472 33.2206 185.461C33.6693 182.798 34.736 180.277 36.3353 178.101C35.658 178.315 34.9753 178.523 34.314 178.8C33.4721 179.151 32.6768 179.604 31.946 180.149C31.898 180.176 31.834 180.091 31.8926 180.053Z" fill="#263238"/>
<path d="M39.6796 181.189C39.8982 182.256 40.2129 183.323 40.3942 184.427C40.5926 185.481 40.6518 186.557 40.5702 187.627C40.5702 187.653 40.5169 187.653 40.5169 187.627C40.4309 185.467 40.1181 183.321 39.5836 181.227C39.5786 181.214 39.5789 181.2 39.5844 181.187C39.5899 181.175 39.6002 181.165 39.6129 181.16C39.6256 181.155 39.6398 181.155 39.6523 181.161C39.6648 181.166 39.6746 181.177 39.6796 181.189Z" fill="#263238"/>
<path d="M33.1671 177.936C33.6198 177.571 34.125 177.276 34.6658 177.061C35.2161 176.871 35.7817 176.728 36.3564 176.635C36.4204 176.635 36.4311 176.731 36.3564 176.736C35.791 176.831 35.2405 176.999 34.7191 177.237C34.1894 177.45 33.6761 177.702 33.1831 177.989C33.1776 177.988 33.1725 177.985 33.1684 177.982C33.1642 177.978 33.1612 177.973 33.1596 177.967C33.1579 177.962 33.1578 177.956 33.1591 177.951C33.1604 177.945 33.1632 177.94 33.1671 177.936Z" fill="#263238"/>
<path d="M51.5999 168.016C51.5999 168.016 50.5706 155.477 41.2479 151.413C33.4613 148.016 28.9813 156.747 34.5119 162.123C38.9653 166.453 46.1013 164.496 51.5999 168.016Z" fill="#7AD03A"/>
<path d="M36.2344 153.84C37.6541 154.414 39.0395 155.069 40.3837 155.803C41.4929 156.448 42.5615 157.16 43.5837 157.936C43.429 157.616 43.2957 157.285 43.141 156.976C42.8957 156.491 42.6077 156.016 42.3464 155.557C41.7734 154.609 41.0836 153.736 40.293 152.96C40.245 152.912 40.293 152.843 40.3677 152.891C41.1462 153.67 41.8597 154.512 42.501 155.408C42.8235 155.863 43.1191 156.337 43.3864 156.827C43.664 157.274 43.8759 157.759 44.0157 158.267L44.117 158.341C45.7453 159.639 47.2374 161.099 48.5704 162.699C48.5437 162.576 48.517 162.453 48.485 162.341C48.3144 161.728 48.1224 161.12 47.9197 160.517C47.5203 159.23 46.9556 158 46.2397 156.859C46.2024 156.805 46.293 156.757 46.325 156.811C47.0596 157.952 47.7119 159.144 48.277 160.379C48.5541 160.989 48.7841 161.621 48.965 162.267C49.1006 162.677 49.2023 163.098 49.269 163.525C49.6744 164.059 50.0744 164.56 50.453 165.093C54.453 170.789 56.4637 177.685 56.9437 184.581C57.0859 186.637 57.1215 188.698 57.0504 190.757C57.0409 192.836 56.8626 194.91 56.517 196.96C56.517 197.088 56.2877 197.051 56.293 196.923C56.341 195.109 56.5277 193.307 56.5597 191.493C56.5917 189.68 56.5597 187.856 56.389 186.048C56.0953 182.429 55.4122 178.853 54.3517 175.381C53.2691 171.812 51.668 168.421 49.5997 165.317C49.2104 165.237 48.821 165.131 48.4317 165.035L47.0397 164.667C46.1429 164.435 45.2711 164.115 44.437 163.712C44.3784 163.68 44.437 163.589 44.4904 163.627C45.3221 164.076 46.2236 164.383 47.157 164.533C47.8877 164.677 48.645 164.773 49.3757 164.944C48.701 163.957 47.9765 163.004 47.205 162.091C45.4283 162.253 43.6368 162.12 41.9037 161.696C40.9813 161.475 40.0745 161.193 39.189 160.853C38.2504 160.491 37.3704 160.027 36.4477 159.643C36.4357 159.637 36.4264 159.627 36.4219 159.614C36.4174 159.602 36.418 159.588 36.4237 159.576C36.4294 159.564 36.4396 159.555 36.4521 159.55C36.4646 159.546 36.4783 159.546 36.4904 159.552C38.1601 160.461 39.9821 161.058 41.8664 161.312C43.5301 161.576 45.2112 161.715 46.8957 161.728C46.2344 160.965 45.5517 160.224 44.821 159.531C42.373 157.2 39.4877 155.056 36.2344 153.936C36.1437 153.915 36.1757 153.813 36.2344 153.84Z" fill="#263238"/>
<path d="M43.8231 153.877C44.244 154.407 44.6254 154.967 44.9644 155.552C45.3143 156.164 45.59 156.816 45.7858 157.493H45.7484C45.4391 156.88 45.1778 156.24 44.8578 155.627C44.5443 155.029 44.1669 154.468 43.7324 153.952C43.7324 153.899 43.7804 153.829 43.8231 153.877Z" fill="#263238"/>
<path d="M35.1516 158.053C35.7585 158.39 36.4006 158.658 37.0663 158.853C37.7049 159.067 38.3548 159.245 39.013 159.387C39.013 159.387 39.013 159.445 39.013 159.44C38.3267 159.367 37.6505 159.219 36.997 158.997C36.3506 158.754 35.72 158.471 35.109 158.149C35.0396 158.112 35.093 158 35.1516 158.053Z" fill="#263238"/>
<path d="M58.3295 166.165C58.3882 166.699 59.7429 161.616 67.6255 157.099C74.7829 152.987 83.3269 142.304 76.3082 135.557C70.6442 130.101 55.7162 142 58.3295 166.165Z" fill="#7AD03A"/>
<path d="M52.9069 195.376C53.0212 190.073 53.4379 184.781 54.1549 179.525C54.7776 174.695 55.8946 169.941 57.4883 165.339C58.0749 163.68 58.7416 162.048 59.4723 160.443C59.4267 159.819 59.4375 159.192 59.5043 158.571C59.5416 157.765 59.6163 156.971 59.6856 156.165C59.7549 155.36 59.8403 154.565 59.9363 153.765C60.0323 152.965 60.2029 152.165 60.2349 151.376C60.2323 151.368 60.2316 151.359 60.2329 151.351C60.2342 151.343 60.2375 151.335 60.2424 151.328C60.2473 151.321 60.2538 151.316 60.2613 151.312C60.2689 151.308 60.2772 151.306 60.2856 151.306C60.294 151.306 60.3023 151.308 60.3099 151.312C60.3174 151.316 60.3239 151.321 60.3288 151.328C60.3337 151.335 60.337 151.343 60.3383 151.351C60.3396 151.359 60.3389 151.368 60.3363 151.376C60.1778 152.214 60.0833 153.063 60.0536 153.915C59.9949 154.688 59.9469 155.461 59.9256 156.235C59.9043 157.008 59.9256 157.787 59.9256 158.56C59.9256 158.843 59.9256 159.141 59.9523 159.44C60.6954 157.872 61.4936 156.334 62.3469 154.827C61.8136 151.557 62.5069 148.144 63.1736 144.944C63.1736 144.88 63.2856 144.912 63.2749 144.976C62.9399 146.645 62.7614 148.341 62.7416 150.043C62.7096 151.387 62.7736 152.709 62.7789 154.069L63.3496 153.104C64.3736 151.436 65.4652 149.806 66.6243 148.213C66.5334 147.439 66.5604 146.655 66.7043 145.888C66.8304 145.025 67.0212 144.173 67.2749 143.339C67.5238 142.507 67.8136 141.687 68.1443 140.88C68.4856 140.048 68.9443 139.28 69.2696 138.432C69.3016 138.363 69.4029 138.432 69.3656 138.475C68.9458 139.26 68.6148 140.09 68.3789 140.949C68.1158 141.754 67.9004 142.573 67.7336 143.403C67.5683 144.229 67.4296 145.061 67.3123 145.899C67.2376 146.432 67.1896 147.029 67.0936 147.589C68.7832 145.331 70.6277 143.192 72.6136 141.189C72.6563 141.141 72.7256 141.189 72.6829 141.264C69.6829 144.641 67.0046 148.291 64.6829 152.165L64.4269 152.603C64.8643 152.331 65.3603 152.117 65.7709 151.888C66.5336 151.467 67.3016 151.04 68.0696 150.629C68.8376 150.219 69.5629 149.819 70.3043 149.403C70.6829 149.195 71.0616 148.971 71.4509 148.773C71.9172 148.564 72.3651 148.316 72.7896 148.032C72.8483 147.989 72.9123 148.08 72.8483 148.112C72.0909 148.533 71.4189 149.152 70.6829 149.621C69.9469 150.091 69.2003 150.544 68.4323 150.971C67.0349 151.749 65.5096 152.315 64.1336 153.104C63.1736 154.779 62.2936 156.501 61.4669 158.251C62.3043 157.717 63.1576 157.184 64.0269 156.715C64.5603 156.405 65.1469 156.096 65.7123 155.797C66.28 155.539 66.8167 155.217 67.3123 154.837C67.3225 154.832 67.3341 154.831 67.3453 154.833C67.3565 154.835 67.3667 154.841 67.3745 154.849C67.3822 154.857 67.3871 154.868 67.3884 154.879C67.3896 154.891 67.3873 154.902 67.3816 154.912C66.4641 155.738 65.4463 156.446 64.3523 157.019C63.3443 157.611 62.3203 158.181 61.2643 158.699C60.4216 160.544 59.6607 162.425 58.9816 164.341C55.6643 173.739 54.4483 183.712 53.8616 193.616C53.6909 196.571 53.6003 199.52 53.5629 202.48C53.5256 205.44 53.6803 208.384 53.6749 211.333C53.6749 211.424 53.5309 211.44 53.5203 211.333C53.1683 208.715 53.1043 206.048 52.9869 203.413C52.8696 200.779 52.8429 198.064 52.9069 195.376Z" fill="#263238"/>
<path d="M67.227 152.843C68.6679 152.208 70.0679 151.485 71.419 150.677C72.7882 149.907 74.1145 149.063 75.3923 148.149C75.3923 148.149 75.4403 148.149 75.3923 148.187C74.1832 149.164 72.9072 150.055 71.5737 150.853C70.1772 151.636 68.7325 152.329 67.2483 152.928C67.2003 152.96 67.1684 152.869 67.227 152.843Z" fill="#263238"/>
<path d="M64.943 142.224C65.0604 141.765 65.2044 141.312 65.359 140.869C65.353 140.862 65.3497 140.852 65.3497 140.843C65.3497 140.833 65.353 140.824 65.359 140.816C65.4604 140.56 65.5617 140.309 65.6684 140.059C65.679 140.026 65.6914 139.994 65.7057 139.963C65.7057 139.915 65.743 139.867 65.7644 139.819C65.7857 139.771 65.7964 139.819 65.7644 139.819C65.7324 139.819 65.711 139.995 65.6844 140.08C65.6751 140.129 65.6608 140.178 65.6417 140.224C65.1256 141.972 64.7352 143.754 64.4737 145.557C64.4737 145.611 64.3777 145.616 64.383 145.557C64.4645 144.431 64.652 143.315 64.943 142.224Z" fill="#263238"/>
<path d="M56.9121 179.749C59.6588 171.216 65.8721 166.144 73.8508 167.317C81.8294 168.491 84.5441 179.003 79.2108 182.512C73.8774 186.021 67.0401 178.965 63.7868 177.781C60.5334 176.597 56.9121 179.749 56.9121 179.749Z" fill="#7AD03A"/>
<path d="M56.1868 201.536C56.0695 200.571 55.9682 199.6 55.8668 198.635C55.6571 196.704 55.4508 194.773 55.2482 192.843C54.8748 189.312 54.7628 185.808 55.7815 182.357C56.6527 179.24 58.4491 176.459 60.9335 174.384C61.8549 173.627 62.8761 173.001 63.9682 172.523C64.8525 171.331 66.0645 170.423 67.4562 169.909C69.178 169.296 70.9939 168.99 72.8215 169.003C72.8855 169.003 72.9015 169.104 72.8215 169.104C71.0841 169.132 69.3694 169.504 67.7762 170.197C67.096 170.486 66.4473 170.843 65.8402 171.264C65.4635 171.546 65.1071 171.855 64.7735 172.187C66.2743 171.649 67.8726 171.438 69.4615 171.568C70.0362 171.621 70.6053 171.723 71.1628 171.872C71.568 171.72 71.991 171.622 72.4215 171.579C72.9835 171.52 73.5501 171.52 74.1122 171.579C75.2656 171.734 76.3924 172.046 77.4615 172.507C77.5255 172.533 77.4615 172.624 77.4188 172.603C76.3789 172.212 75.2891 171.969 74.1815 171.883C73.6491 171.838 73.1139 171.838 72.5815 171.883C72.2861 171.91 71.9923 171.952 71.7015 172.011C74.0215 172.716 76.0167 174.22 77.3335 176.256C77.3708 176.315 77.2855 176.373 77.2535 176.32C76.469 175.142 75.4291 174.157 74.2112 173.437C72.9933 172.716 71.6287 172.28 70.2188 172.16C70.0428 172.16 69.8668 172.16 69.6855 172.133C69.7762 172.373 69.8082 172.667 69.8722 172.896C69.9788 173.275 70.1015 173.653 70.2348 174.027C70.5077 174.794 70.8265 175.543 71.1895 176.272C71.5595 177.01 71.9782 177.723 72.4428 178.405C72.8948 179.133 73.4319 179.805 74.0428 180.405C74.0489 180.41 74.054 180.416 74.0577 180.422C74.0613 180.429 74.0635 180.437 74.064 180.444C74.0646 180.452 74.0635 180.459 74.0608 180.467C74.0581 180.474 74.054 180.48 74.0485 180.486C74.0431 180.491 74.0366 180.495 74.0295 180.498C74.0223 180.501 74.0147 180.502 74.0071 180.501C73.9994 180.501 73.992 180.498 73.9853 180.495C73.9786 180.491 73.9728 180.486 73.9682 180.48C73.4082 179.824 72.7788 179.237 72.2508 178.544C71.7455 177.887 71.2925 177.192 70.8962 176.464C70.489 175.731 70.1464 174.963 69.8722 174.171C69.7228 173.755 69.5948 173.328 69.4828 172.901C69.3954 172.648 69.3416 172.385 69.3228 172.117C68.4038 172.107 67.4874 172.218 66.5975 172.448C67.2055 174.304 67.8562 176.235 69.1575 177.739C69.2002 177.787 69.1148 177.851 69.0775 177.797C68.4504 176.994 67.8801 176.147 67.3708 175.264C66.8872 174.405 66.528 173.482 66.3042 172.523C64.7591 172.956 63.3109 173.68 62.0375 174.656C59.6386 176.551 57.8763 179.134 56.9868 182.059C56.0559 185.203 55.7568 188.5 56.1068 191.76C56.4322 195.877 56.9655 199.989 57.1362 204.117C57.1362 204.384 56.7415 204.533 56.6455 204.24C56.4052 203.356 56.2516 202.45 56.1868 201.536Z" fill="#263238"/>
<path d="M61.3713 173.664C61.5813 173.316 61.8379 172.998 62.134 172.72C62.4166 172.416 62.7046 172.112 63.014 171.835C63.6194 171.275 64.3156 170.822 65.0726 170.496C65.1366 170.469 65.174 170.565 65.1153 170.587C64.3509 170.901 63.6606 171.371 63.0886 171.968C62.7953 172.256 62.5233 172.555 62.2566 172.864C62.027 173.184 61.7642 173.479 61.4726 173.744C61.462 173.757 61.4465 173.766 61.4295 173.768C61.4125 173.77 61.3954 173.765 61.382 173.755C61.3685 173.744 61.3599 173.729 61.3579 173.712C61.3559 173.695 61.3607 173.677 61.3713 173.664Z" fill="#263238"/>
<path d="M74.1755 174.789C74.9299 175.444 75.6424 176.146 76.3088 176.891C76.9564 177.643 77.5247 178.459 78.0048 179.328C78.0048 179.355 78.0048 179.376 77.9622 179.355C76.8259 177.744 75.5421 176.242 74.1275 174.869C74.0635 174.827 74.1328 174.747 74.1755 174.789Z" fill="#263238"/>
<path d="M65.7068 175.189C65.8593 175.677 66.0763 176.141 66.3521 176.571C66.6277 176.986 66.9363 177.378 67.2748 177.744C67.2748 177.771 67.2748 177.803 67.2321 177.787C66.4605 177.108 65.9043 176.218 65.6321 175.227C65.6001 175.168 65.6854 175.125 65.7068 175.189Z" fill="#263238"/>
<path d="M44.5762 197.285L45.1362 203.952L46.8588 224.288H65.3068L67.0295 203.952L67.5895 197.285H44.5762Z" fill="#455A64"/>
<path d="M44.5762 197.285L45.1362 203.952H67.0295L67.5895 197.285H44.5762Z" fill="#263238"/>
<path d="M42.7696 201.003H69.4043V194.608H42.7696V201.003Z" fill="#455A64"/>
<path d="M323.269 168.363L306.735 181.723C303.535 184.261 300.821 186.523 299.519 187.856C299.178 188.129 298.906 188.478 298.725 188.875C298.725 188.875 298.725 188.875 298.725 188.907C298.842 190.363 318.373 216.309 319.359 216.987C320.346 217.664 322.351 214.907 322.394 213.296C322.437 211.685 319.402 198.4 319.402 198.4L335.791 184.896L323.269 168.363Z" fill="#AD6359"/>
<path d="M310.127 178.981L306.735 181.723C303.535 184.261 300.821 186.523 299.519 187.856C299.213 188.161 298.946 188.503 298.725 188.875C298.725 188.875 298.725 188.875 298.725 188.907C298.842 190.363 318.373 216.309 319.359 216.987C320.346 217.664 322.351 214.907 322.394 213.296C322.437 211.685 319.402 198.4 319.402 198.4L322.885 195.664L310.127 178.981Z" fill="#EBEBEB"/>
<path d="M319.207 217.099C318.22 216.421 298.663 190.496 298.546 189.035C298.492 188.501 302.103 185.413 306.572 181.829L306.716 181.717L319.516 198.304L319.228 198.512C319.228 198.512 322.279 211.781 322.236 213.403C322.193 215.024 320.194 217.776 319.207 217.099Z" fill="#7AD03A"/>
<path d="M320.001 216.048C316.801 211.595 303.527 193.941 300.039 189.781C300.007 189.749 299.985 189.781 300.007 189.781C303.073 194.261 316.503 211.808 319.932 216.08C320.001 216.192 320.06 216.133 320.001 216.048Z" fill="white"/>
<path d="M320.24 199.952C319.264 197.989 317.413 196.085 315.194 195.685C315.109 195.685 315.088 195.792 315.146 195.835C316.918 197.078 318.551 198.508 320.016 200.101C320.039 200.122 320.068 200.135 320.099 200.137C320.13 200.14 320.16 200.131 320.186 200.114C320.212 200.097 320.231 200.072 320.241 200.042C320.251 200.013 320.25 199.981 320.24 199.952Z" fill="white"/>
<path d="M320.426 201.76C319.45 199.797 317.599 197.893 315.381 197.493C315.295 197.493 315.274 197.6 315.338 197.643C317.107 198.887 318.738 200.317 320.202 201.909C320.225 201.93 320.254 201.943 320.285 201.945C320.316 201.948 320.347 201.939 320.372 201.922C320.398 201.905 320.417 201.88 320.427 201.85C320.437 201.821 320.436 201.789 320.426 201.76Z" fill="white"/>
<path d="M320.613 203.563C319.637 201.605 317.786 199.696 315.573 199.296C315.482 199.296 315.466 199.403 315.525 199.445C317.295 200.69 318.928 202.12 320.394 203.712C320.417 203.73 320.446 203.741 320.475 203.742C320.505 203.743 320.534 203.734 320.558 203.718C320.583 203.701 320.601 203.677 320.611 203.649C320.621 203.621 320.621 203.591 320.613 203.563Z" fill="white"/>
<path d="M320.432 216.795C320.602 217.392 318.97 218.464 318.592 218.224C318.213 217.984 297.018 189.621 296.762 189.061C296.506 188.501 298.362 187.376 298.896 187.867C299.429 188.357 320.432 216.795 320.432 216.795Z" fill="#7AD03A"/>
<path opacity="0.3" d="M320.432 216.795C320.602 217.392 318.97 218.464 318.592 218.224C318.213 217.984 297.018 189.621 296.762 189.061C296.506 188.501 298.362 187.376 298.896 187.867C299.429 188.357 320.432 216.795 320.432 216.795Z" fill="black"/>
<path d="M307.04 188.187C306.56 185.6 302.539 186.336 303.013 188.928C303.488 191.52 307.515 190.779 307.04 188.187Z" fill="white"/>
<path d="M333.141 152.827C331.973 158.608 311.92 177.536 311.92 177.536L324.72 194.032C324.72 194.032 357.531 169.525 356.128 156.699C354.656 143.237 337.883 98.032 337.883 98.032H318.683C318.683 98.032 334.293 147.147 333.141 152.827Z" fill="#37474F"/>
<path d="M334.592 149.237C334.325 147.808 334.021 146.379 333.722 144.971C333.114 142.059 332.471 139.156 331.792 136.261C330.444 130.519 328.977 124.809 327.392 119.131C325.792 113.435 324.112 107.749 322.165 102.16C321.925 101.472 321.68 100.784 321.434 100.096C321.434 100.085 321.43 100.074 321.422 100.066C321.414 100.058 321.403 100.053 321.392 100.053C321.38 100.053 321.369 100.058 321.361 100.066C321.353 100.074 321.349 100.085 321.349 100.096C323.034 105.691 324.768 111.296 326.341 116.896C327.914 122.496 329.37 128.139 330.741 133.797C331.429 136.635 332.069 139.488 332.693 142.331C333.002 143.732 333.303 145.136 333.594 146.544C333.959 147.971 334.221 149.421 334.378 150.885C334.426 152.272 334.042 153.64 333.28 154.8C332.576 155.968 331.749 157.067 330.954 158.165C329.354 160.373 314.117 177.637 313.626 178.107C313.589 178.144 313.626 178.197 313.685 178.165C315.733 176.299 328.656 162.064 330.298 159.867C331.109 158.775 331.904 157.671 332.682 156.555C333.46 155.54 334.086 154.417 334.538 153.221C334.892 151.919 334.91 150.549 334.592 149.237Z" fill="#263238"/>
<path d="M334.544 98.0479L331.563 142.688C328.24 127.04 318.678 98.0479 318.678 98.0479H334.544Z" fill="#263238"/>
<path d="M326.529 192.331C326.529 192.331 330.46 212.357 330.46 212.368C330.513 216.432 330.636 219.995 330.871 221.829C330.868 221.838 330.868 221.847 330.871 221.856C330.879 222.292 330.987 222.721 331.185 223.109V223.136C332.407 223.936 364.881 224.443 366.017 224.075C367.153 223.707 366.209 220.437 364.951 219.413C363.692 218.389 351.351 212.635 351.351 212.635L347.009 192.48L326.529 192.331Z" fill="#AD6359"/>
<path d="M366.054 224.075C364.913 224.437 332.454 223.936 331.217 223.136V223.109C331.017 222.721 330.91 222.292 330.902 221.856C330.9 221.845 330.9 221.834 330.902 221.824C330.667 219.995 330.55 216.432 330.491 212.373L329.771 208.859H350.619L351.43 212.635C351.43 212.635 363.777 218.389 365.03 219.413C366.283 220.437 367.195 223.717 366.054 224.075Z" fill="#EBEBEB"/>
<path d="M366.048 224.08C364.912 224.443 332.448 223.936 331.216 223.131C330.742 222.837 330.539 218.101 330.459 212.368V212.192L351.414 212.283V212.635C351.414 212.635 363.755 218.389 365.008 219.419C366.262 220.448 367.19 223.717 366.048 224.08Z" fill="#7AD03A"/>
<path d="M365.7 222.811C360.228 222.592 338.138 222.224 332.714 222.421C332.671 222.421 332.666 222.453 332.714 222.459C338.132 222.795 360.223 222.992 365.7 222.901C365.812 222.901 365.818 222.816 365.7 222.811Z" fill="white"/>
<path d="M353.157 212.725C351.024 212.293 348.357 212.581 346.704 214.091C346.635 214.149 346.704 214.24 346.789 214.219C348.859 213.588 350.991 213.179 353.147 212.997C353.179 212.992 353.208 212.977 353.229 212.953C353.25 212.929 353.263 212.898 353.264 212.866C353.265 212.834 353.255 212.802 353.236 212.776C353.217 212.751 353.189 212.733 353.157 212.725Z" fill="white"/>
<path d="M354.699 213.691C352.566 213.253 349.899 213.541 348.241 215.051C348.177 215.109 348.241 215.2 348.331 215.179C350.394 214.549 352.518 214.141 354.667 213.963C354.7 213.961 354.732 213.948 354.756 213.926C354.78 213.903 354.796 213.873 354.799 213.84C354.803 213.808 354.795 213.774 354.777 213.747C354.759 213.72 354.731 213.7 354.699 213.691Z" fill="white"/>
<path d="M356.268 214.651C354.134 214.213 351.468 214.507 349.809 216.016C349.745 216.069 349.809 216.165 349.9 216.144C351.968 215.508 354.1 215.099 356.257 214.923C356.289 214.918 356.318 214.902 356.339 214.878C356.361 214.854 356.373 214.823 356.374 214.791C356.376 214.759 356.366 214.727 356.346 214.702C356.327 214.676 356.299 214.658 356.268 214.651Z" fill="white"/>
<path d="M366.565 222.923C367.141 223.152 366.986 225.104 366.565 225.253C366.143 225.403 330.735 224.72 330.138 224.555C329.541 224.389 329.791 222.256 330.495 222.155C331.199 222.053 366.565 222.923 366.565 222.923Z" fill="#7AD03A"/>
<path opacity="0.3" d="M366.565 222.923C367.141 223.152 366.986 225.104 366.565 225.253C366.143 225.403 330.735 224.72 330.138 224.555C329.541 224.389 329.791 222.256 330.495 222.155C331.199 222.053 366.565 222.923 366.565 222.923Z" fill="black"/>
<path d="M335.765 215.909C333.429 214.699 331.541 218.325 333.877 219.541C336.213 220.757 338.133 217.125 335.765 215.909Z" fill="white"/>
<path d="M335.999 98.0533C335.251 101.216 334.701 104.422 334.351 107.653C333.951 111.669 333.45 115.221 332.911 115.653C332.373 116.085 329.274 118.101 328.25 118.72C328.25 118.72 337.706 147.387 340.149 156.939C343.701 170.8 349.973 206 349.973 206L329.279 206.597C329.279 206.597 322.735 172.741 319.738 159.557C317.162 148.251 307.311 114.336 307.311 114.336C306.269 111.72 305.8 108.91 305.937 106.098C306.074 103.285 306.814 100.534 308.106 98.032C308.106 98.032 335.999 98.0373 335.999 98.0533Z" fill="#37474F"/>
<path d="M334.527 114.507C332.334 115.71 330.252 117.104 328.303 118.672C328.286 118.683 328.274 118.699 328.27 118.719C328.265 118.738 328.268 118.759 328.279 118.776C328.29 118.793 328.307 118.805 328.326 118.809C328.346 118.814 328.366 118.811 328.383 118.8C330.516 117.477 332.65 116.192 334.692 114.757C334.726 114.735 334.749 114.701 334.757 114.662C334.765 114.623 334.757 114.583 334.735 114.549C334.713 114.516 334.679 114.493 334.64 114.485C334.601 114.477 334.56 114.485 334.527 114.507Z" fill="#263238"/>
<path d="M332.8 98.912C332.8 98.832 332.64 98.8373 332.656 98.912C333.088 101.579 333.285 103.979 333.45 106.523C333.525 107.707 333.589 114.288 331.493 114.133C331.141 114.107 330.917 113.803 330.789 113.301C330.692 112.634 330.678 111.956 330.746 111.285C330.746 109.899 330.746 108.523 330.64 107.141C330.478 104.571 330.055 102.025 329.376 99.5413C329.369 99.5265 329.358 99.5143 329.344 99.5068C329.33 99.4992 329.314 99.4968 329.298 99.5C329.282 99.5031 329.268 99.5116 329.258 99.524C329.248 99.5364 329.242 99.5519 329.242 99.568C329.848 103.073 330.189 106.619 330.261 110.176C330.261 111.888 329.818 114.539 331.61 114.528C333.402 114.517 333.93 110.112 333.968 108.923C334.014 105.549 333.621 102.184 332.8 98.912Z" fill="#263238"/>
<path d="M331.578 114.309C331.467 114.771 331.385 115.24 331.333 115.712C331.264 116.084 331.264 116.465 331.333 116.837C331.341 116.851 331.351 116.862 331.364 116.869C331.378 116.877 331.393 116.881 331.408 116.881C331.423 116.881 331.438 116.877 331.451 116.869C331.464 116.862 331.475 116.851 331.482 116.837C331.639 116.474 331.74 116.089 331.781 115.696C331.872 115.259 331.973 114.827 332.048 114.384C332.058 114.322 332.042 114.258 332.005 114.207C331.968 114.156 331.913 114.122 331.85 114.112C331.788 114.102 331.725 114.117 331.674 114.154C331.623 114.191 331.588 114.247 331.578 114.309Z" fill="#263238"/>
<path d="M310.512 114.197C312.456 114.092 314.378 113.734 316.229 113.131C318.33 112.459 320.234 111.283 321.776 109.707C322.649 108.842 323.371 107.836 323.909 106.731C323.909 106.688 323.994 106.731 323.978 106.763C323.65 107.835 323.141 108.843 322.474 109.744C321.779 110.638 320.956 111.426 320.032 112.08C318.21 113.411 316.068 114.238 313.824 114.475C312.716 114.644 311.587 114.626 310.485 114.421C310.352 114.384 310.4 114.208 310.512 114.197Z" fill="#263238"/>
<path d="M325.302 184.933C324.592 180.944 323.776 176.976 322.912 173.019C322.427 170.784 321.846 168.571 321.259 166.363C321.216 166.208 321.003 166.283 321.03 166.432C321.392 168.453 321.739 170.48 322.155 172.491C322.571 174.501 322.976 176.501 323.376 178.512C324.166 182.485 327.291 196.523 327.382 197.083C327.382 197.136 327.472 197.109 327.462 197.083C327.376 196.523 325.654 186.933 325.302 184.933Z" fill="#263238"/>
<path d="M342.538 165.504C341.786 161.771 340.773 158.064 339.754 154.384C337.706 146.976 335.29 139.68 332.88 132.379L330.8 126.075C330.453 125.008 328.752 119.355 328.538 118.816C328.533 118.806 328.525 118.798 328.514 118.793C328.504 118.789 328.493 118.788 328.482 118.791C328.471 118.795 328.462 118.801 328.455 118.811C328.449 118.82 328.446 118.831 328.448 118.843C328.938 120.773 329.605 123.589 330.17 125.499C330.736 127.408 331.333 129.264 331.92 131.147C333.077 134.843 334.245 138.528 335.365 142.235C337.578 149.557 339.776 156.88 341.573 164.32C342.074 166.405 342.576 168.485 343.034 170.581C343.493 172.677 343.888 174.773 344.325 176.869C344.325 176.928 344.432 176.912 344.426 176.869C343.989 173.051 343.359 169.258 342.538 165.504Z" fill="#263238"/>
<path d="M328.533 185.099C327.291 177.952 325.803 170.848 324.155 163.765C322.507 156.683 320.651 149.616 318.619 142.619C316.587 135.621 314.352 128.683 311.915 121.819C310.681 118.587 309.641 115.286 308.8 111.931C308.059 108.597 307.68 104.997 308.459 101.616C308.651 100.762 308.907 99.9241 309.227 99.1093C309.227 99.056 309.168 99.008 309.147 99.0613C306.432 105.387 308.192 112.309 310.256 118.544C311.392 121.963 312.597 125.349 313.717 128.773C314.862 132.286 315.961 135.813 317.013 139.355C319.093 146.379 321.029 153.44 322.763 160.555C324.496 167.669 326.037 174.827 327.392 182.021C328.747 189.216 329.904 196.491 331.061 203.744C331.216 204.688 331.333 205.637 331.456 206.581C331.456 206.635 331.547 206.635 331.541 206.581C330.693 199.392 329.749 192.235 328.533 185.099Z" fill="#263238"/>
<path d="M335.819 66.3786C345.909 76.912 355.141 88.3093 355.552 93.808C356.085 101.424 351.285 103.173 349.216 103.04C343.563 102.683 334.965 79.04 332.032 70C329.163 61.2533 333.6 64.0693 335.819 66.3786Z" fill="#7AD03A"/>
<path d="M305.899 102.336C305.963 102.421 340.032 104.592 340.325 104.299C340.416 104.213 341.525 100.795 341.264 98.32C340.293 89.0613 334.864 64.3306 332.672 60.8746C332.069 59.936 329.867 59.504 327.952 59.5786C327.454 59.593 326.957 59.6519 326.469 59.7546H326.421C326.027 59.8317 325.65 59.978 325.307 60.1866C319.685 63.92 307.355 92.496 306.475 95.2426C305.707 97.632 305.792 102.192 305.899 102.336Z" fill="#7AD03A"/>
<path opacity="0.1" d="M329.067 100.859C332.464 101.008 335.845 101.152 339.2 101.333L339.013 101.541L338.261 96.2773L338.368 96.4266C337.755 96.1109 337.231 95.6471 336.843 95.0773C336.468 94.5172 336.183 93.9017 336 93.2533C335.797 92.6191 335.654 91.9674 335.573 91.3066C335.483 90.6475 335.44 89.9826 335.445 89.3173L335.627 89.5146L327.627 89.056L327.797 88.9226L327.488 90.1546C327.376 90.5653 327.221 90.96 327.088 91.3653C326.955 91.7706 326.747 92.144 326.555 92.5333L326.224 93.0666C326.171 93.1573 326.117 93.2533 326.059 93.344L325.867 93.5946C325.369 94.3026 324.699 94.8717 323.92 95.248C323.129 95.6112 322.24 95.7013 321.392 95.504L321.483 95.4666L318.763 100.4L329.067 100.859ZM321.355 95.408V95.3546H321.419C322.229 95.5137 323.069 95.4071 323.813 95.0506C324.55 94.683 325.18 94.1321 325.643 93.4506L325.829 93.2C325.883 93.1146 325.931 93.024 325.984 92.9333L326.293 92.4C326.459 92.0213 326.64 91.648 326.779 91.2586C326.917 90.8693 327.051 90.4693 327.152 90.0693L327.44 88.848L327.472 88.7093H327.611L335.611 89.1146H335.792V89.3013C335.796 89.9454 335.842 90.5886 335.931 91.2266C336.012 91.8643 336.153 92.4929 336.352 93.104C336.535 93.7135 336.809 94.2923 337.163 94.8213C337.511 95.3352 337.98 95.7563 338.528 96.048L338.624 96.096V96.1973L339.344 101.467L339.376 101.685H339.157C335.723 101.499 332.293 101.275 328.885 101.056L318.752 100.4L321.355 95.408Z" fill="black"/>
<path d="M331.292 69.232C331.292 69.232 327.025 63.6693 323.825 63.312L320.748 65.3333C320.748 65.3333 319.814 65.4987 319.617 64.8907C319.137 63.392 319.494 59.984 322.726 58.208C325.686 56.608 331.105 57.7867 334.609 59.2747C337.98 60.704 339.606 63.0453 338.204 65.1733C336.801 67.3013 331.292 69.232 331.292 69.232Z" fill="#7AD03A"/>
<path opacity="0.1" d="M331.797 68.208C331.797 68.208 336.229 65.9253 336.89 64.2826C337.552 62.64 334.384 60.5493 332.282 59.568C329.024 58.0906 326.672 57.968 324.501 59.5093C322.33 61.0506 331.797 68.208 331.797 68.208Z" fill="black"/>
<path d="M331.796 68.208C330.164 68.1013 327.529 65.3333 327.108 62.816C327.081 62.6453 327.833 61.216 328.665 59.392C329.161 58.2933 329.695 57.0613 330.1 55.8986C330.18 55.664 336.761 60.1973 336.761 60.1973C335.842 61.5044 335.086 62.9194 334.511 64.4106C334.455 64.5698 334.416 64.7342 334.393 64.9013C334.393 64.9013 334.393 64.9546 334.393 64.9866C334.212 65.9413 333.551 68.32 331.796 68.208Z" fill="#AD6359"/>
<path d="M334.401 64.9013V64.9866C334.141 64.9323 333.886 64.8574 333.638 64.7626C329.372 63.1626 330.124 57.4293 330.38 55.9946C331.606 56.6293 336.78 60.1973 336.78 60.1973C335.859 61.505 335.102 62.9198 334.524 64.4106C334.469 64.5703 334.428 64.7345 334.401 64.9013Z" fill="#263238"/>
<path d="M328.859 51.8239C328.65 52.6424 328.368 53.4403 328.016 54.2079C327.659 54.7786 326.059 54.9866 326.059 54.9866C326.059 54.9866 327.472 56.0533 327.957 56.0853C328.443 56.1173 329.557 55.1946 329.557 55.1946C329.557 55.1946 328.299 56.8373 327.621 56.7306C327.205 56.6666 328.587 57.1146 328.587 57.1146C329.055 57.2291 329.55 57.1644 329.973 56.9333C330.597 56.5493 328.859 51.8239 328.859 51.8239Z" fill="#263238"/>
<path d="M331.642 46.3733C329.973 48.6933 328.805 56.6293 330.074 58.9173C331.925 62.24 336.212 63.952 339.354 61.4453C342.394 59.0133 343.743 48.6453 342.202 46.432C339.93 43.1733 334.106 42.9493 331.642 46.3733Z" fill="#AD6359"/>
<path d="M337.162 53.8399C337.162 53.8399 337.114 53.8399 337.114 53.8826C337.05 54.4159 336.885 55.0239 336.373 55.1253V55.1573C336.976 55.1626 337.184 54.3626 337.162 53.8399Z" fill="#263238"/>
<path d="M336.767 53.2106C335.919 53.0133 335.589 54.7306 336.378 54.912C337.167 55.0933 337.482 53.376 336.767 53.2106Z" fill="#263238"/>
<path d="M340.133 54.4693C340.133 54.4693 340.17 54.5013 340.165 54.5226C340.047 55.056 339.999 55.6746 340.442 55.9413C339.866 55.776 339.935 54.9493 340.133 54.4693Z" fill="#263238"/>
<path d="M340.715 54C341.579 54.1013 341.318 55.824 340.512 55.7333C339.707 55.6427 339.99 53.92 340.715 54Z" fill="#263238"/>
<path d="M336.245 52.2986C336.491 52.2986 336.714 52.2293 336.954 52.192C337.208 52.1914 337.455 52.1049 337.653 51.9466C337.702 51.8824 337.729 51.8036 337.729 51.7226C337.729 51.6416 337.702 51.5629 337.653 51.4986C337.543 51.3789 337.403 51.2909 337.247 51.244C337.091 51.1971 336.926 51.1929 336.768 51.232C336.436 51.2593 336.126 51.4096 335.898 51.6533C335.848 51.7138 335.817 51.788 335.809 51.8664C335.801 51.9448 335.816 52.0238 335.854 52.0932C335.891 52.1626 335.948 52.2193 336.018 52.2559C336.088 52.2925 336.167 52.3074 336.245 52.2986Z" fill="#263238"/>
<path d="M341.659 52.704C341.43 52.6186 341.233 52.5013 341.014 52.3946C340.77 52.3168 340.559 52.1613 340.412 51.952C340.379 51.8774 340.372 51.7944 340.391 51.7154C340.411 51.6365 340.455 51.566 340.518 51.5146C340.659 51.4321 340.819 51.3886 340.982 51.3886C341.145 51.3886 341.305 51.4321 341.446 51.5146C341.757 51.6391 342.01 51.8749 342.155 52.176C342.315 52.4906 341.963 52.8106 341.659 52.704Z" fill="#263238"/>
<path d="M335.536 58.4693C335.637 58.6186 335.733 58.8159 335.92 58.8693C336.117 58.9118 336.32 58.9118 336.517 58.8693C336.517 58.8693 336.549 58.8693 336.517 58.9013C336.422 58.9908 336.304 59.053 336.176 59.0812C336.049 59.1093 335.916 59.1024 335.792 59.0613C335.691 59.0139 335.606 58.9382 335.547 58.8436C335.489 58.7489 335.459 58.6393 335.461 58.5279C335.466 58.4533 335.52 58.4479 335.536 58.4693Z" fill="#263238"/>
<path d="M336.4 56.992C336.495 57.2296 336.639 57.4446 336.823 57.6228C337.007 57.8011 337.226 57.9387 337.467 58.0266C337.672 58.1075 337.887 58.1595 338.107 58.1813H338.235H338.357C338.387 58.1801 338.415 58.1697 338.438 58.1515C338.461 58.1332 338.478 58.1082 338.485 58.08C338.488 58.0623 338.488 58.0443 338.485 58.0266V57.984C338.576 57.5733 338.656 56.9173 338.656 56.9173C338.789 57.024 339.483 57.5146 339.515 57.296C339.822 55.446 339.939 53.5697 339.867 51.696C339.863 51.6853 339.856 51.676 339.847 51.6694C339.838 51.6628 339.827 51.6593 339.816 51.6593C339.805 51.6593 339.794 51.6628 339.785 51.6694C339.776 51.676 339.769 51.6853 339.765 51.696C339.472 53.4026 339.483 55.152 339.232 56.8746C338.984 56.6967 338.713 56.5532 338.427 56.448C338.368 56.448 338.293 57.6693 338.24 57.8453C337.899 57.8141 337.568 57.7144 337.267 57.5522C336.965 57.39 336.699 57.1686 336.485 56.9013C336.421 56.912 336.373 56.9386 336.4 56.992Z" fill="#263238"/>
<path d="M337.894 57.9253C337.614 58.1742 337.274 58.3469 336.908 58.4266C336.707 58.4631 336.501 58.437 336.316 58.352C335.91 58.1546 335.974 57.7653 336.118 57.4506C336.196 57.2822 336.293 57.123 336.406 56.976C336.788 57.4437 337.309 57.7765 337.894 57.9253Z" fill="#263238"/>
<path d="M336.908 58.4266C336.707 58.4631 336.501 58.437 336.316 58.352C335.91 58.1546 335.974 57.7653 336.118 57.4506C336.34 57.5009 336.539 57.6246 336.682 57.8017C336.825 57.9788 336.905 58.1989 336.908 58.4266Z" fill="#FF9BBC"/>
<path d="M329.754 52.8907C331.237 52.96 333.45 48.6613 333.45 48.6613L332.869 51.2373C333.691 50.9166 334.436 50.4259 335.056 49.7973C335.592 49.0955 335.92 48.256 336 47.376C336.588 48.5987 337.458 49.6643 338.538 50.4853C339.114 50.8693 343.797 52.4213 343.872 52.128C344.165 51.264 343.365 47.552 342.458 46.352C341.818 45.4151 340.942 44.6635 339.918 44.1728C338.895 43.6822 337.76 43.4699 336.629 43.5573C333.477 43.6907 332.138 45.2373 331.258 46.4907C330.378 47.744 329.21 52.864 329.754 52.8907Z" fill="#263238"/>
<path d="M331.436 53.1893C331.436 53.1893 330.508 50.2186 329.212 50.4746C327.916 50.7306 328.076 54.6613 329.212 55.552C329.35 55.6775 329.512 55.7737 329.688 55.8347C329.864 55.8957 330.051 55.9202 330.237 55.9068C330.423 55.8933 330.605 55.8421 330.771 55.7564C330.936 55.6706 331.083 55.5521 331.201 55.408L331.436 53.1893Z" fill="#AD6359"/>
<path d="M329.286 51.6C329.286 51.6 329.254 51.6 329.286 51.632C329.638 51.9706 329.916 52.3798 330.099 52.8329C330.283 53.286 330.369 53.7727 330.352 54.2613C330.327 54.1547 330.279 54.0547 330.212 53.9683C330.145 53.8818 330.06 53.8109 329.962 53.7603C329.865 53.7097 329.758 53.6806 329.649 53.675C329.54 53.6694 329.43 53.6875 329.328 53.728C329.302 53.728 329.328 53.7813 329.328 53.7866C329.504 53.7858 329.676 53.8398 329.819 53.9411C329.962 54.0425 330.071 54.1861 330.128 54.352C330.226 54.6281 330.292 54.9143 330.326 55.2053C330.326 55.3013 330.507 55.3066 330.502 55.2053C330.88 54 330.491 52.112 329.286 51.6Z" fill="#263238"/>
<path d="M340.373 44.2933C339.58 43.5387 338.682 42.9028 337.707 42.4053C336.597 41.872 332.848 40.9386 331.728 41.3813C330.608 41.824 329.232 45.184 329.061 45.68C328.891 46.176 328.08 49.2906 328.939 50.3893C329.797 51.488 331.605 46.3626 333.936 45.2266C336.267 44.0906 340.373 44.2933 340.373 44.2933Z" fill="#7AD03A"/>
<path opacity="0.1" d="M340.374 44.2986C340.374 44.2986 336.203 44.096 333.894 45.2266C331.584 46.3573 329.755 51.4933 328.896 50.3946C328.709 50.1158 328.578 49.8026 328.512 49.473C328.446 49.1435 328.446 48.8042 328.512 48.4746C329.248 47.04 330.646 44.9013 332.438 43.6746C334.123 42.5493 336.411 42.4586 338.662 42.9386C339.272 43.3401 339.845 43.7952 340.374 44.2986Z" fill="black"/>
<path d="M328.169 53.5626C328.703 52.2133 331.369 48.9973 333.535 47.3706C335.7 45.7439 340.436 45.9573 341.001 46.1919C342.441 46.7679 342.788 47.3759 343.065 47.3226C343.343 47.2693 342.201 45.6639 341.871 45.2799C341.54 44.8959 340.623 43.9413 339.983 43.7439C339.343 43.5466 335.279 42.6239 333.295 43.8239C331.311 45.0239 327.721 49.0453 327.689 50.3733C327.689 50.6879 328.004 51.0026 327.988 51.4399C327.988 52.0266 327.876 52.6879 327.913 53.1146C327.967 53.4666 328.121 53.6799 328.169 53.5626Z" fill="#7AD03A"/>
<path d="M328.618 52.1813C328.618 52.0693 328.575 51.9573 328.559 51.8453C328.546 51.7177 328.546 51.589 328.559 51.4613C328.607 51.2245 328.629 50.9829 328.623 50.7413C328.587 50.5471 328.53 50.3575 328.452 50.176C328.351 49.9752 328.321 49.7456 328.367 49.5253C328.367 49.5253 328.335 49.4826 328.324 49.5253C328.253 49.9348 328.29 50.3557 328.431 50.7466C328.437 51.0073 328.419 51.2679 328.378 51.5253C328.359 51.7694 328.421 52.013 328.554 52.2186C328.564 52.2293 328.618 52.2186 328.618 52.1813Z" fill="#263238"/>
<path d="M329.6 50.848C329.513 50.6551 329.436 50.4575 329.371 50.256C329.314 50.0549 329.273 49.8499 329.248 49.6427C329.216 49.4347 329.205 49.232 329.179 49.0293C329.152 48.8267 329.093 48.544 329.077 48.304C329.077 48.272 329.029 48.304 329.029 48.304C329.029 48.5547 329.029 48.8053 329.029 49.0613C329.041 49.2777 329.066 49.4933 329.104 49.7067C329.138 49.9138 329.192 50.1174 329.264 50.3147C329.331 50.5121 329.438 50.6936 329.579 50.848C329.579 50.848 329.6 50.864 329.6 50.848Z" fill="#263238"/>
<path d="M331.515 48.5653C331.403 48.4191 331.322 48.2524 331.275 48.0747C331.205 47.8773 331.141 47.6853 331.083 47.488C331.024 47.2907 330.971 47.1093 330.917 46.9173C330.851 46.7292 330.824 46.5296 330.837 46.3307C330.837 46.304 330.8 46.2933 330.789 46.3307C330.753 46.5263 330.753 46.727 330.789 46.9227C330.815 47.1395 330.859 47.3537 330.923 47.5627C330.986 47.7693 331.061 47.9722 331.147 48.1707C331.213 48.3537 331.334 48.512 331.493 48.624C331.493 48.624 331.541 48.5973 331.515 48.5653Z" fill="#263238"/>
<path d="M332.453 47.0666C332.368 46.896 332.283 46.7306 332.208 46.5333C332.133 46.336 332.075 46.1866 332.016 46C331.957 45.8133 331.883 45.6266 331.829 45.44C331.829 45.408 331.781 45.44 331.781 45.44C331.796 45.6355 331.825 45.8297 331.867 46.0213C331.916 46.2033 331.978 46.3815 332.053 46.5546C332.123 46.7378 332.205 46.916 332.299 47.088C332.381 47.2647 332.499 47.4226 332.645 47.552C332.645 47.552 332.704 47.552 332.693 47.52C332.629 47.3612 332.548 47.2093 332.453 47.0666Z" fill="#263238"/>
<path d="M335.504 46.1066C335.424 45.8933 335.35 45.6853 335.248 45.4773C335.148 45.2672 335.034 45.0641 334.907 44.8693C334.672 44.4839 334.395 44.1261 334.08 43.8026H334.043C334.507 44.5759 335.003 45.3333 335.462 46.1119L335.504 46.1066Z" fill="#263238"/>
<path d="M336.73 45.2053C336.648 44.994 336.541 44.7934 336.41 44.608C336.133 44.2164 335.81 43.8585 335.45 43.5413C335.45 43.5413 335.392 43.5413 335.413 43.5733C335.69 43.9307 335.978 44.2827 336.234 44.64C336.363 44.8238 336.483 45.0143 336.592 45.2107C336.698 45.408 336.757 45.6213 336.853 45.824H336.89C336.877 45.6094 336.823 45.3993 336.73 45.2053Z" fill="#263238"/>
<path d="M338.058 45.0506C337.984 44.8463 337.889 44.6497 337.776 44.464C337.56 44.111 337.286 43.7972 336.965 43.536C336.965 43.536 336.917 43.536 336.933 43.5733C337.2 43.8871 337.441 44.2225 337.653 44.576C337.76 44.752 337.856 44.9386 337.952 45.1093C338.048 45.28 338.117 45.4986 338.229 45.6693H338.256C338.212 45.4567 338.146 45.2493 338.058 45.0506Z" fill="#263238"/>
<path d="M339.113 44.64C339.007 44.4746 338.895 44.3146 338.783 44.1546C338.674 43.9925 338.543 43.847 338.393 43.7226L338.361 43.76L338.969 44.7253C339.131 45.0351 339.261 45.3603 339.359 45.696H339.391C339.405 45.3242 339.309 44.9566 339.113 44.64Z" fill="#263238"/>
<path d="M340.225 44.7626C340.044 44.4181 339.795 44.1134 339.494 43.8666C339.494 43.8666 339.446 43.8666 339.462 43.904C339.718 44.1719 339.93 44.4777 340.092 44.8106C340.257 45.1404 340.386 45.4873 340.476 45.8453H340.513C340.499 45.4674 340.401 45.0975 340.225 44.7626Z" fill="#263238"/>
<path d="M341.371 45.8293C341.36 45.7448 341.344 45.6611 341.323 45.5786C341.278 45.4148 341.217 45.2558 341.141 45.104C340.977 44.7973 340.782 44.5078 340.56 44.24C340.56 44.24 340.507 44.24 340.523 44.272C340.734 44.5374 340.914 44.8275 341.056 45.136C341.124 45.2863 341.181 45.4414 341.227 45.6C341.227 45.68 341.269 45.7546 341.285 45.8346C341.296 45.9139 341.312 45.9923 341.333 46.0693H341.376C341.391 45.9898 341.389 45.9081 341.371 45.8293Z" fill="#263238"/>
<path d="M331.798 68.208C331.798 68.208 328.806 60.9333 323.947 59.5306L323.824 63.312C323.824 63.312 326.779 63.7493 331.291 69.232L331.798 68.208Z" fill="#7AD03A"/>
<path d="M322.475 63.1893C323.388 63.2435 324.278 63.4965 325.083 63.9306C325.895 64.3365 326.658 64.8359 327.355 65.4186C328.06 65.9925 328.726 66.6125 329.349 67.2746L330.261 68.2933L331.125 69.36L331.221 69.4826L331.355 69.4346C332.35 69.0938 333.321 68.6858 334.261 68.2133C334.733 67.981 335.191 67.721 335.632 67.4346C336.077 67.1541 336.493 66.8308 336.875 66.4693C336.023 67.068 335.107 67.5689 334.144 67.9626C333.669 68.1653 333.184 68.352 332.699 68.5333C332.213 68.7146 331.717 68.8853 331.227 69.0346L331.461 69.1093L330.597 68.0426C330.299 67.6906 329.989 67.344 329.675 66.976C329.36 66.608 329.019 66.32 328.677 66.0053C328.336 65.6906 327.979 65.3866 327.611 65.1146C326.87 64.5449 326.06 64.0718 325.2 63.7066C324.987 63.6106 324.763 63.5413 324.544 63.4613C324.325 63.3813 324.096 63.3333 323.867 63.2906C323.412 63.1733 322.941 63.139 322.475 63.1893Z" fill="#263238"/>
<path d="M320.748 65.3333C321.852 64.7865 322.885 64.1077 323.825 63.312C323.272 63.5818 322.738 63.8883 322.225 64.2293C321.708 64.5631 321.215 64.932 320.748 65.3333Z" fill="#263238"/>
<path d="M329.941 66.3093C329.293 67.7626 328.77 69.2685 328.378 70.8106C328.096 71.8773 327.589 75.856 328.821 76.0053C330.053 76.1546 328.698 73.184 328.821 71.0613C328.943 68.9386 329.888 67.5733 330.234 66.368L329.941 66.3093Z" fill="#7AD03A"/>
<g opacity="0.1">
<path d="M329.941 66.3093C329.293 67.7626 328.77 69.2685 328.378 70.8106C328.096 71.8773 327.589 75.856 328.821 76.0053C330.053 76.1546 328.698 73.184 328.821 71.0613C328.943 68.9386 329.888 67.5733 330.234 66.368L329.941 66.3093Z" fill="black"/>
</g>
<path d="M334.4 67.1093C334.492 68.5493 334.462 69.9945 334.309 71.4293C334.208 72.432 333.392 75.968 332.299 75.696C331.205 75.424 333.291 73.3386 333.835 71.488C334.379 69.6373 334.048 68.192 334.117 67.0506L334.4 67.1093Z" fill="#7AD03A"/>
<g opacity="0.1">
<path d="M334.4 67.1093C334.492 68.5493 334.462 69.9945 334.309 71.4293C334.208 72.432 333.392 75.968 332.299 75.696C331.205 75.424 333.291 73.3386 333.835 71.488C334.379 69.6373 334.048 68.192 334.117 67.0506L334.4 67.1093Z" fill="black"/>
</g>
<path d="M321.626 64.9013C311.444 72.9013 301.434 86.7253 301.359 94.4533C301.284 102.091 303.946 101.349 304.698 101.301C309.311 100.997 320.164 79.7546 323.476 71.0933C326.788 62.4319 324.143 62.9226 321.626 64.9013Z" fill="#7AD03A"/>
<path d="M310.832 95.3386C311.365 94.3733 311.899 93.424 312.432 92.4533L314.032 89.568C315.099 87.6373 316.165 85.7173 317.163 83.7706C318.16 81.824 319.227 79.8933 320.235 77.9413C320.736 76.9653 321.232 75.9893 321.712 74.9973C322.192 74.0053 322.661 73.0186 323.125 72.0213C322.398 74.1001 321.556 76.137 320.603 78.1226C319.669 80.1173 318.651 82.0693 317.632 84.0213C316.613 85.9733 315.499 87.8773 314.384 89.7706C313.269 91.664 312.096 93.536 310.832 95.3386Z" fill="#263238"/>
<path d="M322.037 74.5813C322.224 74.2347 322.434 73.9015 322.666 73.5839C322.778 73.4293 322.89 73.2693 323.013 73.1146C323.128 72.9538 323.251 72.799 323.381 72.6506C323.289 73.0357 323.12 73.3983 322.885 73.7173C322.657 74.0544 322.37 74.3472 322.037 74.5813Z" fill="#263238"/>
<path d="M353.286 82.4053C353.057 78.7893 352.412 73.7226 351.206 72.5813C350.001 71.4399 345.34 67.3599 343.969 66.7679C342.598 66.1759 336.502 63.3279 335.292 63.9093C334.332 64.3733 335.244 66.8853 338.145 68.2666C339.717 69.0634 341.24 69.9539 342.705 70.9333C343.446 71.3226 345.105 73.9359 344.524 74.9973C344.177 75.6213 342.241 76.2399 341.11 75.6266C339.98 75.0133 339.862 72.6773 338.604 71.4826C337.345 70.2879 334.982 70.2559 334.796 70.8799C334.609 71.5039 335.372 71.8613 336.396 74.1119C337.073 75.5626 336.876 78.9119 338.46 81.4293C339.254 82.9115 339.956 84.4416 340.561 86.0106L353.286 82.4053Z" fill="#AD6359"/>
<path d="M337.429 70.384C337.002 70.2897 336.61 70.0771 336.298 69.7707C336.176 69.6302 336.097 69.4583 336.069 69.2747C336.055 69.1756 336.055 69.0751 336.069 68.976C336.069 68.8853 336.127 68.7467 336.207 68.6987C336.207 68.6507 336.287 68.6507 336.207 68.6987C336.171 68.7468 336.13 68.7914 336.085 68.832C336.057 68.8746 336.032 68.9192 336.01 68.9653C335.968 69.0559 335.945 69.1537 335.941 69.2533C335.929 69.4717 335.995 69.687 336.127 69.8613C336.285 70.0539 336.485 70.2072 336.711 70.309C336.938 70.4109 337.186 70.4584 337.434 70.448L337.429 70.384Z" fill="#263238"/>
<path d="M351.205 72.5813C350.202 70.7093 347.53 67.248 344.725 65.9573C342.832 65.0666 335.882 67.8346 335.984 69.1573C336.085 70.48 337.232 70.544 338.944 70.464C339.568 70.464 342.922 69.5093 343.429 70.2346C344.154 71.3013 344.922 74.72 344.922 74.72L351.205 72.5813Z" fill="#AD6359"/>
<path d="M336.187 68.64C337.12 67.3333 338.997 66.736 340.848 66.288V66.336C340.373 66.448 337.323 67.5893 336.192 68.6666C336.197 68.6773 336.181 68.656 336.187 68.64Z" fill="#263238"/>
<path d="M351.204 72.5813C350.201 70.7093 347.529 67.248 344.724 65.9573C342.83 65.0666 337.214 68.8533 337.316 70.1493C337.417 71.4453 339.054 71.6693 340.921 71.168C341.524 71.008 343.588 69.7653 344.121 70.4906C344.852 71.5573 346.622 74.128 346.622 74.128L351.204 72.5813Z" fill="#AD6359"/>
<path d="M345.599 72.528L345.215 71.84C345.044 71.5466 344.873 71.2586 344.681 70.9813C344.545 70.7256 344.365 70.4962 344.148 70.304C343.917 70.1447 343.639 70.0677 343.358 70.0853C342.723 70.1681 342.112 70.3844 341.567 70.72C340.943 71.0186 339.662 71.4826 338.718 71.312C338.458 71.2802 338.207 71.1929 337.982 71.056C337.813 70.9615 337.669 70.828 337.561 70.6666C337.204 69.936 337.775 69.1786 338.345 68.6506C339.449 67.7078 340.714 66.9708 342.079 66.4746C342.404 66.3413 342.734 66.2186 343.06 66.1013C343.43 65.935 343.832 65.8513 344.239 65.856C344.9 65.8986 345.929 66.6506 346.249 66.8746C346.249 66.8746 346.297 66.8746 346.249 66.8373C345.865 66.5546 344.921 65.6586 343.849 65.632C343.458 65.6614 343.076 65.7589 342.718 65.92C342.334 66.0533 341.956 66.2026 341.582 66.352C340.844 66.6494 340.13 67.0061 339.449 67.4186C338.774 67.7881 338.172 68.278 337.673 68.864C337.464 69.1261 337.329 69.4402 337.284 69.7726C337.239 70.1051 337.285 70.4435 337.417 70.752C337.543 70.9495 337.712 71.1168 337.91 71.2422C338.108 71.3675 338.331 71.4478 338.564 71.4773C338.841 71.534 339.124 71.5537 339.407 71.536C340.035 71.4446 340.657 71.311 341.268 71.136C341.865 70.9493 342.409 70.6026 343.017 70.464C343.161 70.4255 343.311 70.4161 343.458 70.4362C343.606 70.4564 343.748 70.5057 343.876 70.5813C344.104 70.7633 344.305 70.977 344.473 71.216C344.842 71.6362 345.17 72.0897 345.454 72.5706C345.566 72.6666 345.657 72.6666 345.599 72.528Z" fill="#263238"/>
<path d="M351.936 74.2026C351.584 73.3226 351.136 69.7653 350.539 68.6453C349.942 67.5253 347.131 63.5786 345.68 63.6319C343.851 63.6959 345.499 67.1039 346.347 68.5173C347.195 69.9306 346.88 72.2026 346.88 72.2026L351.936 74.2026Z" fill="#AD6359"/>
<path d="M346.816 72.5866C346.812 73.4651 346.588 74.3285 346.166 75.0986C345.969 75.4902 345.747 75.868 345.499 76.2293C345.243 76.584 344.965 76.9225 344.667 77.2426C344.094 77.8503 343.599 78.5276 343.195 79.2586C342.806 80.0122 342.512 80.8112 342.32 81.6373C342.327 80.7605 342.508 79.8938 342.854 79.088C343.206 78.2793 343.693 77.5364 344.294 76.8906C344.866 76.2758 345.373 75.6038 345.808 74.8853C346.269 74.18 346.61 73.4032 346.816 72.5866Z" fill="#263238"/>
<path d="M348.688 102.736C345.2 101.963 343.392 95.8667 340.245 85.136C339.712 83.2533 349.845 72.8693 350.97 74.6187C352.368 76.8533 355.632 88.9333 355.808 92.16C356.154 98.5493 352.762 103.643 348.688 102.736Z" fill="#AD6359"/>
<path d="M341.867 91.12L354.171 81.0346C354.171 81.0346 356.598 90.816 355.958 94.7733C355.318 98.7306 353.542 103.157 348.726 103.003C345.131 102.891 341.867 91.12 341.867 91.12Z" fill="#7AD03A"/>
<path d="M344.912 99.0826C344.549 98.464 344.235 97.824 343.931 97.1786C343.627 96.5333 343.349 95.8826 343.083 95.2213C342.816 94.56 342.576 93.888 342.368 93.2053C342.145 92.5259 341.983 91.8281 341.883 91.12C342.128 91.792 342.416 92.448 342.656 93.104L343.467 95.0666C343.723 95.7226 344 96.384 344.229 97.0506C344.459 97.7173 344.699 98.3946 344.912 99.0826Z" fill="#263238"/>
<path d="M344.166 93.2533C344.769 92.72 345.425 92.1867 346.059 91.6533C346.694 91.12 347.334 90.5867 347.979 90.1013C349.275 89.088 350.571 88.08 351.883 87.088L352.95 86.2773C353.345 85.9947 353.766 85.744 354.155 85.472C354.155 85.472 354.219 85.472 354.187 85.52C353.878 85.776 353.595 86.0533 353.291 86.336C352.987 86.6187 352.646 86.8693 352.315 87.136L350.401 88.6667C349.11 89.6853 347.809 90.6987 346.486 91.6693C345.739 92.2027 344.998 92.8 344.219 93.3067C344.212 93.3089 344.204 93.3092 344.196 93.3073C344.189 93.3054 344.182 93.3015 344.177 93.296C344.171 93.2906 344.167 93.2837 344.165 93.2762C344.163 93.2686 344.164 93.2607 344.166 93.2533Z" fill="#263238"/>
<path d="M333.292 68.1013L328.492 82.992C328.305 83.4293 328.492 83.8026 328.94 83.8293L336.753 84.3626C336.992 84.362 337.227 84.2929 337.428 84.1634C337.629 84.0339 337.789 83.8495 337.889 83.632L342.689 68.736C342.881 68.2986 342.689 67.9253 342.241 67.8986L334.428 67.3653C334.188 67.367 333.954 67.4372 333.752 67.5676C333.551 67.698 333.391 67.8831 333.292 68.1013Z" fill="#37474F"/>
<path d="M334.218 68.1493L329.418 83.0453C329.231 83.4773 329.418 83.856 329.866 83.8826L337.679 84.416C337.918 84.4154 338.152 84.3462 338.354 84.2168C338.555 84.0873 338.715 83.9029 338.815 83.6853L343.615 68.7893C343.807 68.352 343.615 67.9786 343.167 67.952L335.354 67.4186C335.114 67.4199 334.88 67.4893 334.679 67.6187C334.478 67.7481 334.318 67.9322 334.218 68.1493Z" fill="#455A64"/>
<path d="M336.314 68.9813C336.302 69.1113 336.252 69.2348 336.17 69.3363C336.087 69.4378 335.977 69.5127 335.852 69.5516C335.728 69.5905 335.594 69.5916 335.469 69.5548C335.344 69.5179 335.232 69.4449 335.148 69.3447C335.065 69.2446 335.012 69.1219 334.998 68.9921C334.984 68.8623 335.008 68.7312 335.069 68.6153C335.129 68.4994 335.222 68.404 335.336 68.341C335.451 68.278 335.581 68.2502 335.711 68.2613C335.886 68.2775 336.048 68.3623 336.161 68.4972C336.274 68.632 336.329 68.806 336.314 68.9813Z" fill="#263238"/>
<path d="M303.643 101.285C307.057 101.755 311.307 99.104 322.31 91.0506C323.835 89.936 318.87 77.0506 317.179 78.1546C315.046 79.5466 307.089 85.4186 306.561 85.92C302.129 90.16 301.334 100.965 303.643 101.285Z" fill="#AD6359"/>
<path d="M313.27 82.0533C313.27 82.0533 316.411 77.6426 318.774 75.84C321.282 74.026 324.194 72.8491 327.259 72.4106C330.566 71.92 338.896 73.0293 338.992 75.4826C339.078 77.7066 330.624 76.144 330.624 76.144C330.624 76.144 339.51 76.3146 339.126 79.008C338.742 81.7013 329.03 79.3333 329.03 79.3333C329.03 79.3333 338.155 79.712 337.318 82.432C336.683 84.4853 327.766 82.8266 327.766 82.8266C327.766 82.8266 335.606 83.2106 335.051 85.3493C334.432 87.712 326.107 86.704 326.107 86.704C323.771 91.904 320.422 93.3653 317.99 94.1706C317.408 94.3733 313.27 82.0533 313.27 82.0533Z" fill="#AD6359"/>
<path d="M327.558 75.8666C328.625 75.8666 329.659 75.824 330.705 75.8986C331.75 75.9733 332.785 76.0853 333.819 76.256C335.171 76.4602 336.495 76.8181 337.766 77.3226C335.441 76.6026 331.718 76.256 330.673 76.2026C329.627 76.1493 328.598 76 327.553 75.92C327.531 75.9253 327.537 75.8666 327.558 75.8666Z" fill="#263238"/>
<path d="M327.22 79.6479C328.553 79.6799 329.887 79.648 331.209 79.76C332.532 79.872 333.791 80.0586 335.108 80.2453C335.209 80.2453 335.167 80.3093 335.065 80.2986C333.743 80.1653 332.505 80.1493 331.183 80.0319C329.86 79.9146 328.516 79.7439 327.215 79.6799C327.193 79.6746 327.199 79.6479 327.22 79.6479Z" fill="#263238"/>
<path d="M326.346 82.8C328.395 82.8024 330.438 83.0169 332.442 83.44C332.538 83.44 332.48 83.52 332.378 83.504C330.357 83.2533 328.773 83.04 326.346 82.8693C326.309 82.8907 326.304 82.8 326.346 82.8Z" fill="#263238"/>
<path d="M313.27 80.2986L317.616 96.1386C317.616 96.1386 305.952 103.003 303.376 101.189C300.8 99.376 302.486 90.2293 305.403 86.7413C306.619 85.2853 313.27 80.2986 313.27 80.2986Z" fill="#7AD03A"/>
<path d="M313.413 80.8266L313.242 80.2933H313.285C312.181 81.1893 311.077 82.08 309.989 82.992C308.901 83.904 307.802 84.8053 306.789 85.76C306.263 86.2253 305.768 86.7241 305.306 87.2533C304.866 87.7987 304.474 88.3803 304.133 88.992C303.457 90.234 302.982 91.5749 302.725 92.9653C302.837 91.5323 303.225 90.1345 303.866 88.848C304.187 88.2016 304.577 87.5919 305.029 87.0293C305.49 86.4783 305.987 85.958 306.517 85.472C307.583 84.512 308.682 83.6106 309.807 82.736C310.933 81.8613 312.09 81.0346 313.274 80.2453H313.306V80.2826L313.413 80.8266Z" fill="#263238"/>
<path d="M310.713 84.2293C310.974 85.008 311.177 85.8293 311.396 86.6027C311.614 87.376 311.833 88.2027 312.03 88.992C312.436 90.592 312.83 92.192 313.204 93.792C313.31 94.2293 313.412 94.6667 313.502 95.1093C313.593 95.552 313.646 96.064 313.753 96.5333C313.753 96.5404 313.75 96.5472 313.745 96.5522C313.74 96.5572 313.733 96.56 313.726 96.56C313.719 96.56 313.713 96.5572 313.708 96.5522C313.703 96.5472 313.7 96.5404 313.7 96.5333C313.593 96.144 313.428 95.7706 313.316 95.3813C313.204 94.992 313.086 94.576 312.98 94.1707C312.772 93.3707 312.564 92.5706 312.361 91.7813C311.956 90.1813 311.556 88.5813 311.204 86.9813C311.001 86.0746 310.772 85.1627 310.628 84.2453C310.627 84.2397 310.627 84.234 310.628 84.2284C310.629 84.2228 310.631 84.2175 310.635 84.2128C310.641 84.2033 310.651 84.1968 310.662 84.1947C310.674 84.1925 310.685 84.195 310.695 84.2015C310.704 84.208 310.711 84.218 310.713 84.2293Z" fill="#263238"/>
<path d="M305.899 101.333C308.033 101.045 309.91 99.8613 311.83 98.9867L317.563 96.048L317.51 96.1653C317.414 95.6853 317.313 95.2107 317.227 94.7307C317.403 95.184 317.558 95.648 317.718 96.112V96.1813C316.79 96.784 315.857 97.3867 314.897 97.936C313.03 99.0407 311.066 99.9726 309.03 100.72C308.017 101.045 306.945 101.456 305.83 101.333H305.899Z" fill="#263238"/>
<path d="M372.266 44.2346C372.266 46.1956 371.722 48.1182 370.693 49.7876C369.664 51.4571 368.191 52.8078 366.44 53.689C364.688 54.5701 362.725 54.9472 360.772 54.778C358.818 54.6087 356.95 53.8999 355.375 52.7306L350.191 54.0533L352.325 49.2533C351.498 47.7195 351.067 46.0036 351.071 44.2613C351.04 42.8514 351.29 41.4494 351.808 40.1376C352.325 38.8257 353.1 37.6306 354.086 36.6223C355.072 35.6139 356.249 34.8127 357.549 34.2658C358.849 33.7188 360.245 33.437 361.655 33.437C363.066 33.437 364.462 33.7188 365.762 34.2658C367.061 34.8127 368.239 35.6139 369.225 36.6223C370.211 37.6306 370.985 38.8257 371.503 40.1376C372.021 41.4494 372.271 42.8514 372.239 44.2613L372.266 44.2346Z" fill="white"/>
<path d="M372.267 44.2346C372.299 52.9066 362.256 58.0159 355.264 52.8799L355.424 52.9119L350.251 54.2773L349.781 54.4053L349.979 53.9573L352.112 49.1199V49.3439C350.955 47.1578 350.583 44.6407 351.06 42.2136C351.537 39.7865 352.833 37.5967 354.731 36.0106C361.701 30.2559 372.267 35.2266 372.267 44.2346ZM372.267 44.2346C372.267 37.4719 365.68 32.3199 359.147 34.1013C352.747 35.7013 349.392 43.2959 352.576 49.0879L352.635 49.1999L352.587 49.3119L350.405 54.1119L350.133 53.7866L355.328 52.5066H355.419L355.488 52.5599C362.357 57.7653 372.219 52.8159 372.267 44.2186V44.2346Z" fill="#263238"/>
<path d="M361.381 38.4213C360.816 38.9876 360.431 39.7089 360.275 40.494C360.119 41.2791 360.199 42.0928 360.506 42.8322C360.812 43.5716 361.331 44.2036 361.997 44.6482C362.662 45.0928 363.445 45.3301 364.245 45.3301C365.046 45.3301 365.828 45.0928 366.494 44.6482C367.159 44.2036 367.678 43.5716 367.985 42.8322C368.291 42.0928 368.372 41.2791 368.216 40.494C368.06 39.7089 367.675 38.9876 367.109 38.4213C366.349 37.6625 365.319 37.2363 364.245 37.2363C363.171 37.2363 362.141 37.6625 361.381 38.4213ZM366.288 40.3147C366.182 40.4212 366.047 40.4939 365.9 40.5236C365.753 40.5534 365.601 40.5387 365.462 40.4816C365.323 40.4245 365.204 40.3274 365.121 40.2027C365.037 40.078 364.993 39.9314 364.993 39.7813C364.993 39.6313 365.037 39.4846 365.121 39.3599C365.204 39.2353 365.323 39.1382 365.462 39.081C365.601 39.0239 365.753 39.0093 365.9 39.039C366.047 39.0687 366.182 39.1415 366.288 39.248C366.358 39.3179 366.414 39.401 366.452 39.4925C366.49 39.584 366.51 39.6822 366.51 39.7813C366.51 39.8805 366.49 39.9786 366.452 40.0701C366.414 40.1617 366.358 40.2448 366.288 40.3147Z" fill="#7AD03A"/>
<path d="M360.834 42.0753L359.967 42.9427L362.595 45.5712L363.463 44.7039L360.834 42.0753Z" fill="#7AD03A"/>
<path d="M360.384 43.36L362.165 45.1413L361.728 45.5786L360.987 45.3493L361.216 46.0906L360.491 46.8106L359.515 46.608L359.717 47.5893L359.552 47.7493L358.816 47.5253L359.04 48.2613L358.304 48.032L358.533 48.7733L357.957 49.344L356.981 49.1413L357.184 50.1226L356.683 50.624L354.693 50.8213L354.896 48.8426L360.384 43.36Z" fill="#EBEBEB"/>
<path d="M360.915 44.3775L355.805 49.4875L355.929 49.612L361.039 44.5019L360.915 44.3775Z" fill="#DBDBDB"/>
<path opacity="0.1" d="M367.772 41.2853C367.831 44.4 363.884 46.0853 361.676 43.856C361.337 43.519 361.069 43.1184 360.885 42.6772C360.702 42.2361 360.607 41.7631 360.607 41.2853C360.607 40.8076 360.702 40.3345 360.885 39.8934C361.069 39.4522 361.337 39.0516 361.676 38.7146C363.884 36.5013 367.836 38.1813 367.772 41.2853ZM367.772 41.2853C367.771 40.7193 367.632 40.1621 367.365 39.6627C367.099 39.1633 366.714 38.7369 366.244 38.4211C365.775 38.1053 365.235 37.9096 364.672 37.8514C364.109 37.7931 363.54 37.874 363.016 38.087C362.491 38.2999 362.027 38.6384 361.664 39.0727C361.301 39.507 361.05 40.0238 360.934 40.5777C360.817 41.1316 360.839 41.7056 360.996 42.2493C361.153 42.7931 361.442 43.2898 361.836 43.696C362.317 44.1846 362.933 44.5194 363.605 44.658C364.276 44.7967 364.974 44.7329 365.61 44.4748C366.245 44.2167 366.79 43.7759 367.175 43.2082C367.56 42.6404 367.767 41.9712 367.772 41.2853Z" fill="black"/>
<path d="M180.33 99.7133C177.258 104.164 175.766 109.515 176.093 114.913C176.42 120.311 178.546 125.443 182.132 129.491C185.717 133.538 190.556 136.268 195.875 137.242C201.194 138.217 206.686 137.382 211.475 134.869C216.263 132.356 220.071 128.311 222.291 123.38C224.51 118.449 225.014 112.917 223.72 107.666C222.426 102.415 219.41 97.7499 215.154 94.4145C210.898 91.079 205.647 89.2661 200.239 89.2654C198.756 89.2654 197.276 89.3993 195.818 89.6654" stroke="#7AD03A" stroke-width="0.533333" stroke-linecap="round" stroke-linejoin="round"/>
<path d="M184.453 95.1427C183.641 95.846 182.875 96.6013 182.16 97.404" stroke="#7AD03A" stroke-width="0.533333" stroke-linecap="round" stroke-linejoin="round"/>
<path d="M219.139 121.499C223.58 111.071 218.727 99.0167 208.299 94.5753C197.871 90.1338 185.817 94.9868 181.376 105.415C176.934 115.843 181.787 127.897 192.215 132.338C202.643 136.779 214.697 131.926 219.139 121.499Z" fill="#7AD03A"/>
<path d="M190.779 111.324L198.566 120.172L211.302 102.129" stroke="#1C310C" stroke-width="3.2" stroke-linecap="round" stroke-linejoin="round"/>
<path d="M59.5264 34.596C60.2361 34.0795 61.1218 33.8634 61.9893 33.9973V33.9983L100.479 40.1897C100.91 40.259 101.323 40.4129 101.694 40.6419C102.066 40.8709 102.388 41.1709 102.644 41.5247C102.899 41.8784 103.081 42.279 103.182 42.7034C103.269 43.0749 103.292 43.4587 103.249 43.8372L103.228 43.9993L97.0459 82.4905C96.9772 82.9205 96.8239 83.3326 96.5957 83.7034C96.3675 84.0742 96.0686 84.3965 95.7158 84.6516C95.3631 84.9067 94.9636 85.0901 94.54 85.1907C94.1164 85.2913 93.6769 85.3069 93.2471 85.2376L66.6172 80.971H66.6182L55.9248 79.2327H55.9238L54.7715 79.0511H54.7725C54.3423 78.9817 53.9295 78.8286 53.5586 78.5999C53.1878 78.3712 52.8655 78.0712 52.6104 77.718C52.3554 77.365 52.1728 76.965 52.0723 76.5413C51.9718 76.1174 51.9551 75.6774 52.0244 75.2473L58.2012 36.7561C58.3403 35.8892 58.8165 35.1127 59.5264 34.596Z" fill="white" stroke="#B3B3B3" stroke-width="0.5"/>
<path d="M101.732 54.8807L56.1981 47.571L58.0342 36.1335C58.1593 35.3541 58.5888 34.6565 59.2283 34.1939C59.8679 33.7313 60.665 33.5417 61.4443 33.6668L100.975 40.0128C101.788 40.1433 102.516 40.5913 102.998 41.2583C103.481 41.9254 103.679 42.7567 103.548 43.5696L101.732 54.8807Z" fill="#7AD03A"/>
<path d="M73.6035 43.986C73.6035 44.066 76.7075 44.6367 80.5688 45.2553C84.4302 45.874 87.5662 46.322 87.5769 46.2313C87.5875 46.1407 84.4728 45.5807 80.6168 44.962C76.7608 44.3433 73.6195 43.8847 73.6035 43.986Z" fill="#263238"/>
<path d="M73.5167 32.499L72.3256 39.9187C72.1986 40.7097 72.737 41.4539 73.528 41.5809L73.6281 41.597C74.4191 41.724 75.1634 41.1856 75.2903 40.3946L76.4814 32.9749C76.6084 32.1839 76.0701 31.4396 75.279 31.3127L75.179 31.2966C74.3879 31.1696 73.6437 31.7079 73.5167 32.499Z" fill="#E0E0E0"/>
<path d="M87.423 34.7249L86.2319 42.1446C86.1049 42.9357 86.6432 43.6799 87.4343 43.8069L87.5343 43.8229C88.3254 43.9499 89.0696 43.4116 89.1966 42.6205L90.3877 35.2009C90.5147 34.4098 89.9764 33.6656 89.1853 33.5386L89.0852 33.5225C88.2942 33.3956 87.55 33.9339 87.423 34.7249Z" fill="#E0E0E0"/>
<path d="M174.904 146.199V153.309C174.904 153.685 174.767 154.002 174.493 154.26C174.243 154.487 173.958 154.6 173.637 154.6H167.066C166.487 154.6 166.006 154.397 165.623 153.99C165.216 153.583 165.013 153.083 165.013 152.488V150.634L165.74 150.048H166.444V152.488C166.444 152.746 166.534 152.965 166.714 153.145C166.886 153.317 167.097 153.403 167.348 153.403H173.179C173.281 153.403 173.355 153.372 173.402 153.309C173.449 153.262 173.473 153.196 173.473 153.11V146.199H174.904ZM169.096 150.048C169.01 149.907 168.94 149.742 168.885 149.555C168.846 149.414 168.826 149.265 168.826 149.109C168.842 148.655 168.987 148.307 169.26 148.065C169.542 147.814 169.929 147.689 170.422 147.689C170.649 147.689 170.856 147.713 171.044 147.76V148.428C170.88 148.381 170.719 148.358 170.563 148.358C170.031 148.358 169.749 148.624 169.718 149.156C169.718 149.375 169.765 149.566 169.859 149.731C169.992 149.942 170.207 150.048 170.504 150.048H171.677V150.353L171.337 150.775H168.228V150.048H169.096ZM177.373 149.132C177.639 149.085 177.948 149.062 178.3 149.062C179.2 149.062 179.927 149.351 180.483 149.93C180.975 150.454 181.222 151.104 181.222 151.878V153.004C181.222 153.184 181.218 153.317 181.21 153.403H181.515V154.6H181.363L180.975 154.119H180.94C180.878 154.189 180.811 154.256 180.741 154.318C180.506 154.506 180.244 154.6 179.955 154.6H176.188V153.403H179.497C179.693 153.403 179.79 153.305 179.79 153.11V152.019C179.79 151.479 179.626 151.045 179.298 150.716C178.992 150.411 178.551 150.247 177.972 150.224C177.706 150.224 177.506 150.239 177.373 150.27V149.132ZM183.794 153.403C183.653 153.239 183.528 153.016 183.419 152.734C183.301 152.406 183.243 152.062 183.243 151.702C183.243 150.81 183.559 150.126 184.193 149.649C184.709 149.257 185.359 149.062 186.141 149.062C186.555 149.062 186.986 149.128 187.431 149.261V150.388C186.986 150.286 186.602 150.235 186.282 150.235C185.21 150.235 184.674 150.771 184.674 151.843C184.674 152.187 184.756 152.492 184.921 152.758C185.194 153.188 185.593 153.403 186.117 153.403H188.394V153.873L187.807 154.6H181.436V153.403H183.794ZM192.182 154.6C191.321 154.6 190.645 154.307 190.152 153.72C189.737 153.219 189.53 152.601 189.53 151.866C189.53 150.99 189.777 150.306 190.269 149.813C190.786 149.312 191.447 149.062 192.252 149.062C192.839 149.062 193.347 149.207 193.778 149.496C194.341 149.903 194.622 150.482 194.622 151.233V153.403H194.998V154.6H194.611C194.556 155.445 194.259 156.106 193.719 156.583C193.343 156.919 192.894 157.15 192.37 157.275C192.002 157.361 191.642 157.404 191.29 157.404C191.173 157.404 191.005 157.396 190.786 157.381H190.75L190.152 156.642V156.125C190.473 156.18 190.774 156.208 191.055 156.208C192.338 156.208 193.038 155.672 193.156 154.6H192.182ZM193.191 151.233C193.191 150.92 193.089 150.673 192.886 150.493C192.706 150.337 192.495 150.259 192.252 150.259C191.853 150.259 191.537 150.4 191.302 150.681C191.067 150.963 190.95 151.35 190.95 151.843C190.95 152.32 191.079 152.699 191.337 152.981C191.595 153.262 191.947 153.403 192.393 153.403H193.191V151.233ZM197.011 151.233C197.011 150.489 197.269 149.926 197.785 149.543C198.192 149.23 198.748 149.074 199.452 149.074C200.14 149.074 200.723 149.277 201.2 149.684C201.802 150.2 202.103 150.931 202.103 151.878C202.103 152.77 201.865 153.509 201.388 154.096C200.926 154.667 200.328 154.952 199.592 154.952C198.943 154.952 198.431 154.71 198.055 154.225C197.805 154.475 197.5 154.6 197.14 154.6H194.899V153.403H196.706C196.792 153.403 196.866 153.372 196.929 153.309C196.984 153.255 197.011 153.188 197.011 153.11V151.233ZM198.431 153.274C198.72 153.587 199.053 153.744 199.428 153.744C199.796 153.744 200.097 153.583 200.332 153.262C200.566 152.934 200.684 152.512 200.684 151.995C200.684 151.432 200.554 150.99 200.296 150.669C200.062 150.396 199.757 150.259 199.381 150.259C199.1 150.259 198.877 150.349 198.712 150.529C198.525 150.701 198.431 150.935 198.431 151.233V153.274ZM208.179 146.621C208.391 146.621 208.57 146.696 208.719 146.844C208.868 146.993 208.942 147.173 208.942 147.384C208.942 147.587 208.868 147.763 208.719 147.912C208.57 148.061 208.391 148.135 208.179 148.135C207.968 148.135 207.788 148.065 207.64 147.924C207.499 147.775 207.428 147.595 207.428 147.384C207.428 147.173 207.499 146.993 207.64 146.844C207.788 146.696 207.968 146.621 208.179 146.621ZM208.895 149.203V153.403H209.493V154.6H208.883C208.821 155.547 208.445 156.27 207.757 156.771C207.194 157.177 206.498 157.381 205.668 157.381C205.567 157.381 205.422 157.377 205.234 157.369L204.659 156.653V156.149C204.91 156.188 205.152 156.208 205.387 156.208C206.771 156.208 207.464 155.535 207.464 154.189V149.203H208.895ZM210.966 149.402C211.709 149.175 212.386 149.062 212.996 149.062C213.942 149.062 214.705 149.359 215.284 149.954C215.808 150.486 216.07 151.158 216.07 151.972V153.227V153.403H216.457V154.6H216.211L215.823 154.119H215.8C215.534 154.44 215.202 154.6 214.803 154.6H209.405V153.403H214.345C214.541 153.403 214.638 153.305 214.638 153.11V152.054C214.638 151.522 214.458 151.096 214.099 150.775C213.747 150.446 213.281 150.282 212.702 150.282C212.319 150.282 211.74 150.368 210.966 150.54V149.402ZM212.608 155.457C212.82 155.457 213 155.531 213.148 155.68C213.297 155.828 213.371 156.008 213.371 156.219C213.371 156.43 213.297 156.61 213.148 156.759C213 156.908 212.82 156.982 212.608 156.982C212.405 156.982 212.229 156.908 212.08 156.759C211.932 156.61 211.858 156.43 211.858 156.219C211.858 156.008 211.932 155.828 212.08 155.68C212.229 155.531 212.405 155.457 212.608 155.457ZM217.933 149.402C218.707 149.175 219.384 149.062 219.963 149.062C220.909 149.062 221.672 149.359 222.251 149.954C222.775 150.493 223.037 151.166 223.037 151.972V153.309C223.037 153.63 222.927 153.92 222.708 154.178C222.45 154.459 222.137 154.6 221.77 154.6H216.372V153.403H221.312C221.508 153.403 221.605 153.305 221.605 153.11V152.054C221.605 151.506 221.425 151.076 221.066 150.763C220.714 150.45 220.225 150.294 219.599 150.294C219.239 150.294 218.684 150.376 217.933 150.54V149.402ZM227.891 153.403C227.562 152.95 227.398 152.394 227.398 151.737C227.406 150.892 227.691 150.22 228.255 149.719C228.74 149.289 229.346 149.07 230.073 149.062C230.777 149.062 231.348 149.242 231.786 149.602C232.256 149.993 232.49 150.536 232.49 151.233V153.11C232.49 153.196 232.518 153.266 232.573 153.321C232.619 153.376 232.678 153.403 232.749 153.403H232.866V154.6H232.35C232.131 154.6 231.947 154.561 231.798 154.483C231.65 154.412 231.509 154.307 231.376 154.166C231.204 154.307 231.012 154.404 230.801 154.459C230.519 154.553 230.175 154.6 229.768 154.6H228.219C228.024 154.6 227.926 154.698 227.926 154.893V158.402L227.199 158.977H226.495V154.694C226.495 154.358 226.608 154.064 226.835 153.814C227.093 153.54 227.379 153.403 227.691 153.403H227.891ZM231.059 151.233C231.059 150.951 230.973 150.72 230.801 150.54C230.629 150.353 230.398 150.259 230.109 150.259C229.717 150.259 229.405 150.403 229.17 150.693C228.935 150.974 228.818 151.35 228.818 151.819C228.818 152.328 228.943 152.727 229.193 153.016C229.444 153.298 229.792 153.438 230.238 153.438C230.535 153.438 230.809 153.384 231.059 153.274V151.233ZM233.907 146.621C234.118 146.621 234.298 146.696 234.447 146.844C234.595 146.993 234.67 147.173 234.67 147.384C234.67 147.587 234.595 147.763 234.447 147.912C234.298 148.061 234.118 148.135 233.907 148.135C233.696 148.135 233.516 148.061 233.367 147.912C233.219 147.763 233.144 147.587 233.144 147.384C233.144 147.173 233.219 146.993 233.367 146.844C233.516 146.696 233.696 146.621 233.907 146.621ZM235.69 146.621C235.902 146.621 236.082 146.696 236.23 146.844C236.379 146.993 236.453 147.173 236.453 147.384C236.453 147.587 236.379 147.763 236.23 147.912C236.082 148.061 235.902 148.135 235.69 148.135C235.487 148.135 235.311 148.061 235.162 147.912C235.014 147.763 234.939 147.587 234.939 147.384C234.939 147.173 235.014 146.993 235.162 146.844C235.311 146.696 235.487 146.621 235.69 146.621ZM236.301 149.203V153.309C236.301 153.614 236.199 153.896 235.995 154.154C235.737 154.451 235.417 154.6 235.033 154.6H232.769V153.403H234.576C234.662 153.403 234.736 153.372 234.799 153.309C234.853 153.255 234.881 153.188 234.881 153.11V149.203H236.301Z" fill="black"/>
</svg>
