<svg width="310" height="139" viewBox="0 0 310 139" fill="none" xmlns="http://www.w3.org/2000/svg">
<path fill-rule="evenodd" clip-rule="evenodd" d="M86.4709 46.4944C54.2574 53.9601 37.6415 62.5283 32.4674 74.3879C31.4297 76.8348 30.2112 78.2899 27.8163 80.076C13.4455 90.8393 15.3792 103.248 32.6738 111.45C50.8985 120.062 102.962 122.489 159.02 117.327C167.049 116.597 180.034 115.585 187.835 115.127C285.014 109.355 318.375 82.9831 289.745 62.8634C272.313 50.5758 246.132 44.6193 202.194 42.7793C160.36 41.0652 103.103 47.5957 62.5002 61.5C51.889 65.1346 40.3717 67.4461 43.5 65.5C54.5251 58.5977 89.7274 48.5869 120.234 43.965C147.448 39.8291 165.77 38.4076 186.04 39.0761C193.959 39.327 198.667 35.9863 186.48 35.1058C173.565 34.2449 121.473 38.3832 86.4709 46.4944ZM287 90.5C273.752 100.414 226.216 110.094 178 113.675C16.8685 125.626 37 74.3879 37 74.3879C37.147 74.3466 81.8385 48.0498 181.5 43.965C230.531 41.916 326.669 60.801 287 90.5ZM106.347 115.346C122.854 117.421 85.002 117.581 60.5 115.346C14.8303 111.189 23.4977 90.1518 27.8163 87.5C40.9947 100.707 83.2517 112.461 106.347 115.346Z" fill="#7AD03A"/>
</svg>
