<svg width="20" height="20" viewBox="0 0 20 20" fill="none" xmlns="http://www.w3.org/2000/svg">
<path d="M13.3335 1.66699V5.00033M6.66687 1.66699V5.00033" stroke="#4E4E4E" stroke-width="1.25" stroke-linecap="round" stroke-linejoin="round"/>
<path d="M10.8333 3.33301H9.16667C6.02397 3.33301 4.45262 3.33301 3.47631 4.30932C2.5 5.28563 2.5 6.85697 2.5 9.99967V11.6663C2.5 14.809 2.5 16.3804 3.47631 17.3567C4.45262 18.333 6.02397 18.333 9.16667 18.333H10.8333C13.976 18.333 15.5474 18.333 16.5237 17.3567C17.5 16.3804 17.5 14.809 17.5 11.6663V9.99967C17.5 6.85697 17.5 5.28563 16.5237 4.30932C15.5474 3.33301 13.976 3.33301 10.8333 3.33301Z" stroke="#4E4E4E" stroke-width="1.25" stroke-linecap="round" stroke-linejoin="round"/>
<path d="M2.5 8.33301H17.5" stroke="#4E4E4E" stroke-width="1.25" stroke-linecap="round" stroke-linejoin="round"/>
<path d="M9.99645 11.667H10.004M9.99645 15.0003H10.004M13.326 11.667H13.3335M6.66687 11.667H6.67435M6.66687 15.0003H6.67435" stroke="#4E4E4E" stroke-width="1.66667" stroke-linecap="round" stroke-linejoin="round"/>
</svg>
