<svg width="25" height="24" viewBox="0 0 25 24" fill="none" xmlns="http://www.w3.org/2000/svg">
<path d="M9.65826 5.71223L9.2556 4.80625C8.99232 4.21388 8.86068 3.91768 8.66381 3.69101C8.41708 3.40694 8.09547 3.19794 7.73568 3.08785C7.44859 3 7.12446 3 6.47621 3C5.52791 3 5.05376 3 4.65573 3.18229C4.18687 3.39702 3.76344 3.86328 3.59473 4.3506C3.45151 4.76429 3.49254 5.18943 3.57458 6.0397C4.44791 15.0902 9.40982 20.0521 18.4603 20.9254C19.3106 21.0075 19.7358 21.0485 20.1494 20.9053C20.6368 20.7366 21.103 20.3131 21.3178 19.8443C21.5 19.4462 21.5 18.9721 21.5 18.0238C21.5 17.3755 21.5 17.0514 21.4122 16.7643C21.3021 16.4045 21.0931 16.0829 20.809 15.8362C20.5824 15.6393 20.2862 15.5077 19.6938 15.2444L18.7878 14.8417C18.1463 14.5566 17.8255 14.4141 17.4996 14.3831C17.1876 14.3534 16.8731 14.3972 16.5811 14.5109C16.276 14.6297 16.0064 14.8544 15.467 15.3038C14.9302 15.7512 14.6618 15.9749 14.3338 16.0947C14.043 16.2009 13.6586 16.2403 13.3524 16.1951C13.0069 16.1442 12.7424 16.0029 12.2133 15.7201C10.5673 14.8405 9.65953 13.9328 8.77987 12.2867C8.49714 11.7577 8.35578 11.4931 8.30487 11.1477C8.25974 10.8414 8.29908 10.457 8.4053 10.1663C8.52512 9.83828 8.74881 9.56986 9.19619 9.033C9.64562 8.49368 9.87034 8.22402 9.98915 7.91891C10.1028 7.62694 10.1466 7.3124 10.1169 7.00048C10.0859 6.67452 9.94338 6.35376 9.65826 5.71223Z" stroke="#7AD03A" stroke-width="1.5" stroke-linecap="round"/>
</svg>
