<svg width="283" height="283" viewBox="0 0 283 283" fill="none" xmlns="http://www.w3.org/2000/svg">
<path d="M234.414 257.218C234.109 257.405 233.797 257.586 233.486 257.784L232.62 258.271L231.715 258.769L230.798 259.25L229.881 259.72L228.952 260.178L228.019 260.62L227.079 261.044C226.705 261.214 226.326 261.378 225.947 261.537L224.815 262.012C224.051 262.324 223.281 262.624 222.511 262.907L221.611 263.235L221.255 263.359C220.123 263.761 218.991 264.135 217.814 264.491C217.027 264.729 216.229 264.956 215.431 265.171L214.231 265.482C213.761 265.601 213.291 265.72 212.821 265.827L211.814 266.059C210.173 266.427 208.514 266.75 206.85 267.033C206.465 267.101 206.08 267.163 205.69 267.22C205.299 267.276 204.869 267.35 204.456 267.406C203.63 267.525 202.803 267.633 201.977 267.735L200.737 267.87L199.854 267.961L199.288 268.018C198.536 268.091 197.788 268.153 197.024 268.204C195.262 268.336 193.504 268.425 191.749 268.47H191.019H189.763H188.268C187.053 268.47 185.838 268.453 184.623 268.419C183.746 268.419 182.874 268.363 182.003 268.323L181.499 268.295C180.061 268.227 178.629 268.131 177.203 268.018C176.23 267.938 175.262 267.848 174.288 267.757H174.169L172.805 267.616L171.068 267.412L169.834 267.253L168.419 267.061C166.694 266.82 164.974 266.548 163.257 266.246L161.983 266.014C161.191 265.872 160.404 265.72 159.623 265.561L158.491 265.335C156.827 264.99 155.174 264.622 153.527 264.203C153.058 264.095 152.593 263.976 152.129 263.863L150.731 263.507C147.335 262.635 143.979 261.656 140.662 260.569L139.592 260.218C138.709 259.928 137.83 259.629 136.955 259.324L134.691 258.52C133.525 258.098 132.365 257.664 131.21 257.218C130.418 256.913 129.625 256.601 128.838 256.284C127.944 255.928 127.055 255.566 126.161 255.192C125.386 254.869 124.61 254.541 123.841 254.207L122.963 253.822C122.261 253.517 121.554 253.2 120.852 252.883C120.037 252.515 119.216 252.141 118.401 251.751L118.033 251.581C117.224 251.202 116.415 250.811 115.605 250.421C114.909 250.087 114.213 249.741 113.522 249.396C112.489 248.879 111.457 248.355 110.426 247.823C109.566 247.381 108.71 246.93 107.857 246.47L105.593 245.247L105.281 245.078C104.527 244.655 103.763 244.229 102.989 243.798C102.423 243.47 101.857 243.142 101.263 242.808C100.669 242.474 100.131 242.163 99.5649 241.834L97.9687 240.889C97.0631 240.323 96.1632 239.803 95.2633 239.248C89.8014 235.886 84.4753 232.314 79.3077 228.584C70.5281 222.295 62.2301 215.359 54.483 207.835L52.8982 206.267C50.2493 203.607 47.6853 200.873 45.2402 198.06C38.8062 190.774 33.1936 182.802 28.5036 174.288C25.07 168.004 22.3042 161.378 20.2513 154.518C19.7985 152.995 19.3853 151.467 19.0174 149.922C18.7061 148.654 18.4514 147.386 18.1741 146.101C17.1473 140.865 16.5904 135.548 16.51 130.214C16.4798 128.542 16.4987 126.872 16.5666 125.204C17.0053 114.592 19.1062 104.115 22.7926 94.1537C28.6258 78.348 37.9065 64.0402 49.9606 52.2697C74.7627 28.0902 95.0538 16.7362 129.908 14.3477C129.908 14.3477 158.135 8.60845 175.381 44.1589C181.544 56.8543 185.348 70.7609 193.345 82.4092C204.264 98.3251 221.606 108.666 235.648 122.029C254.688 140.141 267.91 164.87 268.759 190.877C269.608 216.885 257.02 243.663 234.414 257.218Z" fill="#7AD03A"/>
<g opacity="0.7">
<path d="M234.414 257.218C234.109 257.405 233.797 257.586 233.486 257.784L232.62 258.271L231.715 258.769L230.798 259.25L229.881 259.72L228.952 260.178L228.019 260.62L227.079 261.044C226.705 261.214 226.326 261.378 225.947 261.537L224.815 262.012C224.051 262.324 223.281 262.624 222.511 262.907L221.611 263.235L221.255 263.359C220.123 263.761 218.991 264.129 217.814 264.491C217.027 264.729 216.229 264.956 215.431 265.171L214.231 265.482C213.761 265.601 213.291 265.72 212.821 265.827L211.814 266.059C210.173 266.427 208.514 266.75 206.85 267.033C206.465 267.101 206.08 267.163 205.69 267.22C205.299 267.276 204.869 267.35 204.456 267.406C203.63 267.525 202.803 267.633 201.977 267.735L200.737 267.87L199.854 267.961L199.288 268.018C198.536 268.091 197.788 268.153 197.024 268.204C195.262 268.336 193.504 268.425 191.749 268.47H191.019H189.763H188.268C187.053 268.47 185.838 268.453 184.623 268.419C183.746 268.419 182.874 268.363 182.003 268.323L181.499 268.295C180.061 268.227 178.629 268.131 177.203 268.018C176.23 267.938 175.262 267.848 174.288 267.757H174.169L172.805 267.616L171.068 267.412L169.834 267.253L168.419 267.061C166.694 266.82 164.974 266.548 163.257 266.246L161.983 266.014C161.191 265.872 160.404 265.72 159.623 265.561L158.491 265.335C156.827 264.99 155.174 264.622 153.527 264.203C153.058 264.095 152.593 263.976 152.129 263.863L150.731 263.507C147.335 262.635 143.979 261.656 140.662 260.569L139.592 260.218C138.709 259.928 137.83 259.629 136.955 259.324L134.691 258.52C133.525 258.098 132.365 257.664 131.21 257.218C130.418 256.913 129.625 256.601 128.838 256.284C127.944 255.928 127.055 255.566 126.161 255.192C125.386 254.869 124.61 254.541 123.841 254.207L122.963 253.822C122.261 253.517 121.554 253.2 120.852 252.883C120.037 252.515 119.216 252.141 118.401 251.751L118.033 251.581C117.224 251.202 116.415 250.811 115.605 250.421C114.909 250.087 114.213 249.741 113.522 249.396C112.489 248.879 111.457 248.355 110.426 247.823C109.566 247.381 108.71 246.93 107.857 246.47L105.593 245.247L105.281 245.078C104.527 244.655 103.763 244.229 102.989 243.798C102.423 243.47 101.857 243.142 101.263 242.808C100.669 242.474 100.131 242.163 99.5649 241.834L97.9687 240.889C97.0631 240.323 96.1632 239.803 95.2633 239.248C89.8014 235.886 84.4753 232.314 79.3077 228.584C70.5281 222.295 62.2301 215.359 54.483 207.835L52.8982 206.267C50.2493 203.607 47.6853 200.873 45.2402 198.06C38.8062 190.774 33.1936 182.802 28.5036 174.288C25.07 168.004 22.3042 161.378 20.2513 154.518C19.7985 152.995 19.3853 151.467 19.0174 149.922C18.7061 148.654 18.4514 147.386 18.1741 146.101C17.1473 140.865 16.5904 135.548 16.51 130.214C16.4798 128.542 16.4987 126.872 16.5666 125.204C17.0053 114.592 19.1062 104.115 22.7926 94.1537C28.6258 78.348 37.9065 64.0402 49.9606 52.2697C74.7627 28.0902 95.0538 16.7362 129.908 14.3477C129.908 14.3477 158.135 8.60845 175.381 44.1589C181.544 56.8543 185.348 70.7609 193.345 82.4092C204.264 98.3251 221.606 108.666 235.648 122.029C254.688 140.141 267.91 164.87 268.759 190.877C269.608 216.885 257.02 243.663 234.414 257.218Z" fill="white"/>
</g>
<path d="M203.436 74.1458H218.078C220.672 74.1458 223.16 75.1762 224.994 77.0104C226.828 78.8446 227.859 81.3323 227.859 83.9262C227.859 86.5202 226.828 89.0079 224.994 90.8421C223.16 92.6763 220.672 93.7067 218.078 93.7067H195.648C194.363 93.7075 193.091 93.455 191.904 92.9637C190.717 92.4725 189.639 91.7521 188.73 90.8437C187.822 89.9354 187.101 88.8569 186.61 87.6699C186.119 86.483 185.866 85.2108 185.867 83.9262C185.867 81.3323 186.898 78.8446 188.732 77.0104C190.566 75.1762 193.054 74.1458 195.648 74.1458" stroke="white" stroke-width="0.566" stroke-miterlimit="10"/>
<path d="M198.996 74.1348H201.554" stroke="white" stroke-width="0.566" stroke-miterlimit="10"/>
<path d="M199.798 82.1263V82.732H199.091V82.0697C199.091 81.4641 198.853 81.1019 198.304 81.1019C197.755 81.1019 197.534 81.5037 197.534 82.0697V85.6072C197.534 86.2129 197.783 86.5751 198.315 86.5751C198.847 86.5751 199.102 86.2129 199.102 85.6072V84.7356H199.798V85.5676C199.798 86.5864 199.317 87.2656 198.287 87.2656C197.257 87.2656 196.781 86.5977 196.781 85.5676V82.1263C196.781 81.1132 197.262 80.4283 198.287 80.4283C199.311 80.4283 199.798 81.1132 199.798 82.1263Z" fill="white"/>
<path d="M201.252 85.8618L200.991 87.2089H200.301L201.586 80.5131H202.667L203.946 87.2089H203.193L202.933 85.8618H201.252ZM201.348 85.2222H202.836L202.061 81.3508L201.348 85.2222Z" fill="white"/>
<path d="M205.197 87.2089H204.523V80.5131H205.457L207.008 85.3524V80.5131H207.665V87.2089H206.889L205.191 81.7923L205.197 87.2089Z" fill="white"/>
<path d="M211.406 82.1263V82.732H210.698V82.0697C210.698 81.4641 210.46 81.1019 209.911 81.1019C209.362 81.1019 209.13 81.4641 209.13 82.0697V85.6072C209.13 86.2129 209.379 86.5751 209.911 86.5751C210.443 86.5751 210.698 86.2129 210.698 85.6072V84.7356H211.406V85.5676C211.406 86.5864 210.93 87.2656 209.894 87.2656C208.859 87.2656 208.395 86.5977 208.395 85.5676V82.1263C208.395 81.1132 208.87 80.4283 209.894 80.4283C210.919 80.4283 211.406 81.1132 211.406 82.1263Z" fill="white"/>
<path d="M214.466 83.479V84.1468H212.814V86.5297H214.823V87.2089H212.066V80.5131H214.823V81.1923H212.814V83.4563L214.466 83.479Z" fill="white"/>
<path d="M215.535 87.2089V80.5131H216.282V86.5297H218.195V87.2089H215.535Z" fill="white"/>
<path d="M147.317 14.2752C146.595 14.0811 145.859 13.9392 145.116 13.8507M143.299 13.7432C139.44 13.7335 135.717 15.1621 132.855 17.7501C129.993 20.3381 128.198 23.8997 127.821 27.7398C127.443 31.5798 128.51 35.4227 130.814 38.5183C133.117 41.6139 136.491 43.7401 140.278 44.4819C144.064 45.2236 147.992 44.5277 151.293 42.5299C154.594 40.5321 157.032 37.3759 158.131 33.6772C159.231 29.9786 158.912 26.003 157.238 22.5265C155.564 19.05 152.655 16.3221 149.078 14.8752M138.89 27.7913L148.512 39.0547C146.278 40.2714 143.694 40.6846 141.192 40.2255C138.69 39.7663 136.421 38.4625 134.765 36.5319C133.109 34.6012 132.165 32.1607 132.092 29.618C132.018 27.0753 132.82 24.5844 134.362 22.5614L137.639 26.3876L138.844 27.7913M147.759 31.4703L137.707 19.6409C139.4 18.6392 141.332 18.1114 143.299 18.1127C145.399 18.1118 147.456 18.7061 149.232 19.8265C151.008 20.947 152.43 22.5478 153.333 24.4434C154.237 26.339 154.584 28.4518 154.336 30.537C154.088 32.6221 153.254 34.5942 151.93 36.2247L150.589 34.6569L147.759 31.4703Z" stroke="white" stroke-width="0.566" stroke-miterlimit="10"/>
<path d="M77.7734 70.0373L78.6451 69.1656" stroke="white" stroke-width="0.566" stroke-miterlimit="10"/>
<path d="M75.952 71.8588L67.6261 63.533L60.7266 70.4325L69.0524 78.7584L60.7266 87.0842L67.6261 93.9838L75.952 85.6579L84.2778 93.9838L91.1774 87.0842L82.8515 78.7584L91.1774 70.4325L84.2778 63.533L79.7215 68.0893" stroke="white" stroke-width="0.566" stroke-miterlimit="10"/>
<path d="M25.0404 104.625C25.1989 103.493 25.6913 102.129 26.812 102.112C27.9327 102.095 28.476 103.498 28.4138 104.614C28.3515 105.729 28.0289 106.934 28.6062 107.885C30.2363 96.9272 32.6192 85.4488 39.9828 77.1682C40.7865 76.2682 42.0148 75.34 43.0845 75.8947C44.341 76.5456 43.9901 78.4077 43.4807 79.7208C39.4729 90.135 36.9557 101.063 36.0038 112.181C38.964 103.985 43.7184 96.3329 50.4651 90.7805C51.5236 89.9145 52.8423 89.0825 54.1724 89.3881C55.7459 89.7843 56.4364 91.6521 56.5213 93.2765C56.6459 96.7291 55.0045 99.9723 53.4876 103.074C47.569 115.2 42.9274 127.909 39.6376 140.996C38.9584 143.707 38.2565 146.577 36.3151 148.592C35.4265 149.514 34.0059 150.227 32.9191 149.594C32.3973 149.254 31.9753 148.781 31.6966 148.224C28.0276 141.727 25.8977 134.476 25.4706 127.027C25.0404 119.522 23.9763 112.147 25.0404 104.625Z" fill="#4A841F"/>
<path opacity="0.2" d="M25.0404 104.625C25.1989 103.493 25.6913 102.129 26.812 102.112C27.9327 102.095 28.476 103.498 28.4138 104.614C28.3515 105.729 28.0289 106.934 28.6062 107.885C30.2363 96.9272 32.6192 85.4488 39.9828 77.1682C40.7865 76.2682 42.0148 75.34 43.0845 75.8947C44.341 76.5456 43.9901 78.4077 43.4807 79.7208C39.4729 90.135 36.9557 101.063 36.0038 112.181C38.964 103.985 43.7184 96.3329 50.4651 90.7805C51.5236 89.9145 52.8423 89.0825 54.1724 89.3881C55.7459 89.7843 56.4364 91.6521 56.5213 93.2765C56.6459 96.7291 55.0045 99.9723 53.4876 103.074C47.569 115.2 42.9274 127.909 39.6376 140.996C38.9584 143.707 38.2565 146.577 36.3151 148.592C35.4265 149.514 34.0059 150.227 32.9191 149.594C32.3973 149.254 31.9753 148.781 31.6966 148.224C28.0276 141.727 25.8977 134.476 25.4706 127.027C25.0404 119.522 23.9763 112.147 25.0404 104.625Z" fill="white"/>
<path d="M12.7342 130.316C12.5361 129.088 12.604 127.458 13.7813 127.073C14.9586 126.688 16 127.995 16.3 129.195C16.6 130.395 16.6509 131.776 17.5735 132.591C15.7057 120.462 14.4605 107.546 19.5319 96.3673C20.0979 95.1447 21.077 93.7637 22.3958 94.0014C23.9353 94.2788 24.1731 96.356 24.0938 97.9181C23.2676 110.249 24.188 122.635 26.8276 134.708C27.2691 125.086 29.7821 115.385 35.1025 107.336C35.9402 106.069 37.0496 104.727 38.5664 104.648C40.3663 104.546 41.7304 106.289 42.3247 107.987C43.5925 111.598 42.919 115.56 42.3247 119.341C40.0389 134.117 39.301 149.092 40.1229 164.021C40.2927 167.112 40.4965 170.377 39.1041 173.145C38.4646 174.413 37.1967 175.636 35.81 175.324C35.1579 175.119 34.5719 174.744 34.112 174.238C28.0859 168.573 23.4388 161.603 20.528 153.862C17.6244 146.068 14.0756 138.619 12.7342 130.316Z" fill="#4A841F"/>
<path opacity="0.2" d="M12.7342 130.316C12.5361 129.088 12.604 127.458 13.7813 127.073C14.9586 126.688 16 127.995 16.3 129.195C16.6 130.395 16.6509 131.776 17.5735 132.591C15.7057 120.462 14.4605 107.546 19.5319 96.3673C20.0979 95.1447 21.077 93.7637 22.3958 94.0014C23.9353 94.2788 24.1731 96.356 24.0938 97.9181C23.2676 110.249 24.188 122.635 26.8276 134.708C27.2691 125.086 29.7821 115.385 35.1025 107.336C35.9402 106.069 37.0496 104.727 38.5664 104.648C40.3663 104.546 41.7304 106.289 42.3247 107.987C43.5925 111.598 42.919 115.56 42.3247 119.341C40.0389 134.117 39.301 149.092 40.1229 164.021C40.2927 167.112 40.4965 170.377 39.1041 173.145C38.4646 174.413 37.1967 175.636 35.81 175.324C35.1579 175.119 34.5719 174.744 34.112 174.238C28.0859 168.573 23.4388 161.603 20.528 153.862C17.6244 146.068 14.0756 138.619 12.7342 130.316Z" fill="black"/>
<path d="M45.6111 197.999C45.5658 198.055 45.4356 198.078 45.2375 198.061C45.0928 198.051 44.9489 198.03 44.8074 197.999C42.0946 195.548 39.5209 192.948 37.0985 190.211C36.2095 188.186 35.159 186.237 33.9571 184.381C31.8403 181.075 29.3839 178.013 26.9727 174.923C26.4067 174.198 25.8407 173.47 25.2747 172.738C24.7087 171.951 24.0918 171.159 23.5201 170.361C21.593 167.754 19.9284 164.964 18.5506 162.029C17.8601 160.496 17.2715 158.798 17.6337 157.156C17.762 156.629 18.0051 156.136 18.3455 155.714C18.686 155.291 19.1155 154.949 19.6034 154.711C19.8038 154.614 20.0174 154.547 20.2373 154.513C20.4106 154.479 20.5875 154.467 20.7637 154.479C20.9557 154.483 21.1462 154.513 21.3297 154.57C22.3938 154.898 23.073 155.911 23.6673 156.834C25.1766 159.215 26.6727 161.597 28.1557 163.982C26.0331 158.424 23.905 152.821 22.9258 146.906C21.9466 140.991 22.19 134.765 24.6634 129.332C24.877 128.842 25.1633 128.388 25.5124 127.985C25.679 127.789 25.8853 127.632 26.1176 127.522C26.3499 127.413 26.6028 127.354 26.8595 127.351C27.0939 127.35 27.325 127.407 27.5331 127.515C28.3934 127.956 28.8405 129.184 29.0669 130.22C30.4932 136.763 31.9177 143.302 33.3402 149.838L34.0534 153.115L34.3081 154.247L34.2741 152.549C34.2741 151.638 34.2741 150.721 34.2741 149.804C34.3533 144.455 35.0269 139.095 38.0946 134.827C38.7323 133.849 39.6273 133.066 40.6812 132.563C41.1048 132.385 41.5637 132.306 42.0226 132.331C42.1019 132.331 42.1811 132.331 42.2547 132.331C42.8442 132.458 43.3941 132.725 43.8567 133.112C44.3192 133.499 44.6805 133.992 44.9092 134.55C45.3559 135.666 45.6049 136.852 45.6451 138.054C46.1544 144.076 43.2565 148.751 44.3546 164.373C44.3999 165.058 44.4565 165.759 44.5187 166.484C45.6337 179.23 52.1823 190.584 45.6111 197.999Z" fill="#4A841F"/>
<path d="M55.6179 160.699C55.4708 167.01 51.7918 171.453 51.4352 188.84C51.3107 194.993 52.4766 200.975 52.8955 206.268C50.2466 203.607 47.6826 200.874 45.2375 198.061C45.0927 198.051 44.9489 198.03 44.8073 197.998C42.0945 195.548 39.5209 192.948 37.0984 190.21C36.2094 188.186 35.159 186.236 33.9571 184.38C31.8403 181.075 29.3838 178.013 26.9727 174.923C27.2661 174.692 27.5974 174.514 27.9518 174.396C28.1347 174.332 28.3248 174.29 28.5178 174.272C28.7263 174.243 28.9376 174.243 29.1461 174.272C29.3414 174.294 29.5322 174.345 29.7121 174.424C30.7309 174.86 31.2969 175.941 31.7893 176.943C33.0119 179.479 34.2458 182.003 35.4796 184.539C34.4778 180.701 33.476 176.836 32.8138 172.93C32.46 170.959 32.2162 168.969 32.0836 166.97C31.734 162.249 32.4058 157.508 34.0533 153.069C34.1212 152.894 34.1948 152.718 34.2741 152.549C34.684 151.563 35.1625 150.608 35.706 149.69C35.9718 149.225 36.3078 148.803 36.7022 148.439C36.8865 148.264 37.1058 148.129 37.3457 148.044C37.5857 147.959 37.8409 147.926 38.0946 147.947C38.3277 147.972 38.5511 148.054 38.7455 148.185C39.2949 148.625 39.6635 149.251 39.7812 149.945C39.8718 150.304 39.9361 150.669 39.9737 151.037C40.6868 157.693 41.3981 164.348 42.1075 171C42.266 172.506 42.4301 174.011 42.5886 175.528C42.7188 174.079 42.8546 172.602 43.0357 171.13C43.2888 168.871 43.7241 166.635 44.3375 164.446C45.1014 161.57 46.5084 158.905 48.4524 156.652C49.1979 155.754 50.1774 155.08 51.2824 154.705C51.7227 154.573 52.1869 154.543 52.6408 154.614L52.8672 154.66C53.441 154.847 53.9603 155.172 54.3796 155.606C54.7989 156.04 55.1055 156.57 55.2727 157.15C55.5925 158.304 55.7093 159.505 55.6179 160.699Z" fill="#4A841F"/>
<path opacity="0.2" d="M55.6179 160.699C55.4708 167.01 51.7918 171.453 51.4352 188.84C51.3107 194.993 52.4766 200.975 52.8955 206.268C50.2466 203.607 39.5039 192.938 37.0984 190.21C36.2094 188.186 35.159 186.236 33.9571 184.38C31.8403 181.075 29.3838 178.013 26.9727 174.923C27.2661 174.692 27.5974 174.514 27.9518 174.396C28.1347 174.332 28.3248 174.29 28.5178 174.272C28.7263 174.243 28.9376 174.243 29.1461 174.272C29.3414 174.294 29.5322 174.345 29.7121 174.424C30.7309 174.86 31.2969 175.941 31.7893 176.943C33.0119 179.479 34.2458 182.003 35.4796 184.539C34.4778 180.701 33.476 176.836 32.8138 172.93C32.46 170.959 32.2162 168.969 32.0836 166.97C31.734 162.249 32.4058 157.508 34.0533 153.069C34.1212 152.894 34.1948 152.718 34.2741 152.549C34.684 151.563 35.1625 150.608 35.706 149.69C35.9718 149.225 36.3078 148.803 36.7022 148.439C36.8865 148.264 37.1058 148.129 37.3457 148.044C37.5857 147.959 37.8409 147.926 38.0946 147.947C38.3277 147.972 38.5511 148.054 38.7455 148.185C39.2949 148.625 39.6635 149.251 39.7812 149.945C39.8718 150.304 39.9361 150.669 39.9737 151.037C40.6868 157.693 41.3981 164.348 42.1075 171C42.266 172.506 42.4301 174.011 42.5886 175.528C42.7188 174.079 42.8546 172.602 43.0357 171.13C43.2888 168.871 43.7241 166.635 44.3375 164.446C45.1014 161.57 46.5084 158.905 48.4524 156.652C49.1979 155.754 50.1774 155.08 51.2824 154.705C51.7227 154.573 52.1869 154.543 52.6408 154.614L52.8672 154.66C53.441 154.847 53.9603 155.172 54.3796 155.606C54.7989 156.04 55.1055 156.57 55.2727 157.15C55.5925 158.304 55.7093 159.505 55.6179 160.699Z" fill="white"/>
<path d="M235.984 116.093C236.154 119.806 233.98 125.007 230.177 124.362C229.565 124.241 228.972 124.041 228.411 123.768C228.977 121.04 227.568 117.881 229.107 115.589C229.945 114.321 232 112.001 233.477 111.893C235.452 111.746 235.871 114.044 235.984 116.093Z" fill="#4A841F"/>
<path d="M230.925 127.435C229.448 130.095 227.529 132.155 223.431 131.736C222.515 131.634 221.641 131.291 220.901 130.74C220.533 130.48 220.225 130.142 219.999 129.752C219.774 129.361 219.635 128.926 219.594 128.476C219.596 127.894 219.773 127.326 220.101 126.845C220.428 126.364 220.892 125.992 221.433 125.777C222.528 125.348 223.7 125.155 224.875 125.211C226.133 125.228 227.381 125.448 228.571 125.861C229.44 126.247 230.237 126.779 230.925 127.435Z" fill="#4A841F"/>
<path d="M228.246 123.91C230.51 126.559 232.774 129.162 234.868 131.862" stroke="#4A841F" stroke-width="0.566" stroke-miterlimit="10"/>
<path d="M248.625 132.111C248.6 134.206 247.902 136.239 246.633 137.907C245.41 139.452 243.729 140.306 241.912 139.723C241.332 139.51 240.776 139.235 240.254 138.903C240.707 137.607 240.656 136.107 240.661 134.652C240.667 133.197 240.718 131.822 241.499 130.656C242.365 129.4 244.374 126.994 245.965 127.068C248.076 127.181 248.67 129.898 248.625 132.111Z" fill="#4A841F"/>
<path d="M242.152 142.848C241.285 144.023 240.155 144.978 238.852 145.638C237.342 146.269 235.667 146.39 234.081 145.984C233.258 145.813 232.497 145.421 231.879 144.852C231.576 144.603 231.339 144.283 231.19 143.921C231.041 143.558 230.984 143.164 231.025 142.774C231.148 142.221 231.411 141.709 231.79 141.288C232.169 140.867 232.65 140.55 233.187 140.369C234.277 139.992 235.437 139.866 236.583 140.001C237.811 140.098 239.008 140.439 240.103 141.003C240.887 141.496 241.58 142.12 242.152 142.848Z" fill="#4A841F"/>
<path d="M234.887 131.878C236.89 134.368 238.707 136.972 240.473 139.632C242.239 142.292 243.801 145.06 245.233 147.907" stroke="#4A841F" stroke-width="0.566" stroke-miterlimit="10"/>
<path d="M258.663 150.698C257.814 154.626 254.039 158.746 250.631 156.924C250.09 156.612 249.592 156.232 249.148 155.792C249.496 155.171 249.757 154.507 249.924 153.816C250.094 153.126 250.207 152.407 250.343 151.699C250.62 150.284 250.965 148.915 251.967 147.93C253.065 146.866 255.476 144.902 257.061 145.27C259.082 145.824 259.116 148.581 258.663 150.698Z" fill="#4A841F"/>
<path d="M250.323 160.059C248.02 162.108 245.546 163.33 241.833 161.729C240.243 161.072 238.879 159.493 239.366 157.897C239.575 157.367 239.922 156.903 240.371 156.553C240.819 156.203 241.354 155.979 241.918 155.904C243.068 155.74 244.24 155.835 245.348 156.182C246.529 156.534 247.635 157.098 248.614 157.846C249.321 158.467 249.901 159.218 250.323 160.059Z" fill="#4A841F"/>
<path d="M245.211 147.891C248.096 153.587 250.556 159.49 252.569 165.55" stroke="#4A841F" stroke-width="0.566" stroke-miterlimit="10"/>
<path d="M265.52 170.649C264.777 172.659 263.364 174.353 261.518 175.443C259.792 176.416 257.913 176.546 256.453 175.318C255.99 174.91 255.576 174.451 255.219 173.948C256.147 172.907 256.634 171.498 257.109 170.094C257.585 168.69 258.071 167.428 259.198 166.59C260.42 165.69 263.12 164.111 264.597 164.666C265.582 165.045 265.973 165.849 266.063 166.93C266.161 168.195 265.975 169.465 265.52 170.649Z" fill="#4A841F"/>
<path d="M255.444 178.29C252.739 179.756 250.027 180.26 246.807 178.092C245.443 177.175 244.43 175.602 245.245 174.351C245.593 173.917 246.032 173.564 246.53 173.318C247.029 173.072 247.575 172.937 248.131 172.924C249.264 172.889 250.389 173.13 251.408 173.626C252.509 174.136 253.489 174.873 254.284 175.788C254.828 176.54 255.222 177.389 255.444 178.29Z" fill="#4A841F"/>
<path d="M252.555 165.549L254.026 170.111C254.482 171.611 254.85 173.136 255.13 174.679C255.712 177.79 256.079 180.936 256.228 184.097" stroke="#4A841F" stroke-width="0.566" stroke-miterlimit="10"/>
<path d="M267.154 192.577C265.86 194.276 264.042 195.499 261.981 196.058C260.039 196.527 258.217 196.131 257.136 194.552C256.81 194.029 256.541 193.473 256.332 192.894C258.721 191.411 259.728 187.969 262.32 186.996C263.764 186.486 266.814 185.683 268.054 186.719C269.718 188.1 268.512 190.777 267.154 192.577Z" fill="#4A841F"/>
<path d="M255.343 197.121C253.925 197.471 252.444 197.485 251.019 197.161C249.475 196.716 248.106 195.807 247.097 194.558C246.027 193.335 245.501 191.552 246.638 190.437C247.077 190.08 247.598 189.836 248.154 189.729C248.71 189.621 249.284 189.652 249.825 189.82C250.92 190.157 251.924 190.738 252.762 191.518C253.668 192.324 254.4 193.306 254.913 194.405C255.232 195.274 255.378 196.197 255.343 197.121Z" fill="#4A841F"/>
<path d="M256.23 184.098C256.602 190.408 255.977 196.738 254.379 202.855" stroke="#4A841F" stroke-width="0.566" stroke-miterlimit="10"/>
<path d="M261.489 214.871C260.532 215.474 259.479 215.908 258.376 216.156C257.332 216.392 256.252 216.425 255.195 216.252C253.237 215.907 251.759 214.73 251.437 212.856C251.361 212.248 251.338 211.634 251.369 211.022C252.761 210.819 254.012 209.992 255.274 209.2C256.537 208.407 257.748 207.643 259.146 207.604C260.674 207.604 263.844 207.768 264.642 209.239C265.762 211.209 263.532 213.581 261.489 214.871Z" fill="#4A841F"/>
<path d="M248.755 214.396C247.336 214.076 246.013 213.424 244.895 212.494C243.743 211.444 242.881 210.114 242.393 208.634C241.827 207.185 241.94 205.657 243.338 205.181C243.882 205.059 244.446 205.057 244.991 205.173C245.536 205.289 246.05 205.522 246.497 205.855C247.396 206.533 248.127 207.411 248.63 208.419C249.178 209.469 249.476 210.631 249.502 211.815C249.449 212.72 249.194 213.602 248.755 214.396Z" fill="#4A841F"/>
<path d="M254.376 202.855C253.54 205.869 252.363 208.779 250.867 211.526C249.347 214.24 247.441 216.719 245.207 218.884" stroke="#4A841F" stroke-width="0.566" stroke-miterlimit="10"/>
<path d="M246.47 232.293C244.425 232.417 242.386 231.972 240.578 231.008C238.88 230.034 237.748 228.529 238.048 226.65C238.162 226.041 238.353 225.45 238.614 224.889C241.365 225.455 244.523 223.938 246.849 225.455C247.69 226.003 248.492 226.608 249.249 227.266C250.07 228.008 250.659 228.914 250.642 229.734C250.857 231.664 248.553 232.134 246.47 232.293Z" fill="#4A841F"/>
<path d="M234.967 227.356C232.307 225.851 230.337 223.893 230.626 219.919C230.745 218.221 231.888 216.325 233.716 216.195C234.299 216.185 234.872 216.348 235.362 216.665C235.852 216.981 236.237 217.436 236.467 217.972C236.92 219.046 237.142 220.203 237.118 221.368C237.138 222.61 236.947 223.847 236.552 225.025C236.169 225.891 235.632 226.681 234.967 227.356Z" fill="#4A841F"/>
<path d="M245.223 218.906C244.691 219.472 244.091 219.942 243.491 220.463L241.623 222.019L237.938 225.183C236.721 226.23 235.499 227.272 234.254 228.262C233.637 228.76 233.008 229.247 232.369 229.717C231.729 230.186 231.09 230.651 230.422 231.166" stroke="#4A841F" stroke-width="0.566" stroke-miterlimit="10"/>
<path d="M232.581 243.981C231.674 244.02 230.765 243.98 229.865 243.862C228.881 243.735 227.913 243.504 226.978 243.171C225.184 242.526 223.633 241.36 223.582 239.458C223.592 238.831 223.689 238.208 223.871 237.607C226.701 237.726 229.616 236.091 231.987 237.607C233.283 238.389 235.615 240.403 235.898 241.785C235.999 242.144 235.958 242.529 235.785 242.86C235.627 243.155 235.37 243.385 235.061 243.511C234.263 243.794 233.427 243.953 232.581 243.981Z" fill="#4A841F"/>
<path d="M220.739 240.895C219.228 240.539 217.841 240.131 216.749 239.197C215.657 238.263 214.898 236.877 214.853 234.517C214.802 232.536 216.098 229.904 218.124 229.383C218.711 229.231 219.331 229.288 219.88 229.543C220.429 229.798 220.873 230.235 221.136 230.781C221.648 231.874 221.94 233.056 221.996 234.262C222.092 235.558 222.033 236.862 221.82 238.145C221.584 239.106 221.221 240.031 220.739 240.895Z" fill="#4A841F"/>
<path d="M230.421 231.166C225.12 235.196 220.792 240.364 217.754 246.29" stroke="#4A841F" stroke-width="0.566" stroke-miterlimit="10"/>
<path d="M225.226 256.964C223.543 257.849 221.707 258.404 219.815 258.599C217.863 258.763 216.023 258.373 215.157 256.669C214.882 256.105 214.702 255.498 214.625 254.875C217.212 253.777 219.187 251.077 221.983 251.417C223.489 251.564 226.46 252.368 227.315 253.517C228.43 255.017 226.783 256.081 225.226 256.964Z" fill="#4A841F"/>
<path d="M213.169 259.228C210.175 259.84 207.266 260.185 205.098 255.957C204.649 254.956 204.455 253.859 204.532 252.765C204.609 251.69 205.081 250.682 205.857 249.935C206.331 249.556 206.92 249.35 207.526 249.35C208.133 249.35 208.722 249.556 209.196 249.935C210.124 250.708 210.893 251.653 211.46 252.719C212.105 253.851 212.613 255.056 212.971 256.308C213.086 256.79 213.147 257.284 213.152 257.78C213.181 258.238 213.169 258.725 213.169 259.228Z" fill="#4A841F"/>
<path d="M217.754 246.29C214.686 252.189 212.997 258.706 212.812 265.353" stroke="#4A841F" stroke-width="0.566" stroke-miterlimit="10"/>
<path d="M232.625 148.859C232.637 149.907 232.445 150.947 232.059 151.921C231.719 152.835 231.191 153.668 230.508 154.366C229.229 155.656 227.588 156.143 226.014 155.407C225.508 155.163 225.031 154.861 224.594 154.507C225.063 153.272 225.256 151.949 225.16 150.63C225.16 149.283 225.126 147.925 225.726 146.804C226.416 145.599 227.961 143.142 229.575 143.295C230.661 143.391 231.437 144.235 231.957 145.31C232.423 146.434 232.65 147.642 232.625 148.859Z" fill="#4A841F"/>
<path d="M225.834 158.231C224.843 159.197 223.606 159.872 222.258 160.184C220.909 160.495 219.501 160.43 218.187 159.997C216.863 159.612 215.708 158.865 216.138 157.648C216.55 156.727 217.309 156.007 218.25 155.644C219.201 155.274 220.23 155.144 221.244 155.265C222.323 155.371 223.361 155.734 224.272 156.324C224.925 156.838 225.459 157.489 225.834 158.231Z" fill="#4A841F"/>
<path d="M224.375 154.626C225.806 157.337 226.85 160.235 227.477 163.235" stroke="#4A841F" stroke-width="0.566" stroke-miterlimit="10"/>
<path d="M238.245 170.077C237.227 171.776 235.644 173.062 233.773 173.711C232.036 174.277 230.377 173.988 229.279 172.613C228.953 172.154 228.673 171.665 228.441 171.153C230.519 169.647 231.124 166.381 233.337 165.17C234.583 164.536 237.243 163.387 238.488 164.27C240.175 165.464 239.354 168.243 238.245 170.077Z" fill="#4A841F"/>
<path d="M227.805 175.064C226.537 175.464 225.194 175.561 223.882 175.347C222.456 175.021 221.162 174.271 220.169 173.196C219.655 172.709 219.278 172.094 219.077 171.414C218.983 171.121 218.971 170.809 219.041 170.51C219.11 170.211 219.26 169.936 219.473 169.716C219.855 169.38 220.308 169.136 220.799 169.002C221.289 168.867 221.804 168.846 222.303 168.94C223.319 169.133 224.276 169.559 225.099 170.185C225.987 170.832 226.722 171.667 227.25 172.63C227.596 173.396 227.785 174.224 227.805 175.064Z" fill="#4A841F"/>
<path d="M227.481 163.234C228.048 166.048 228.301 168.917 228.233 171.787C228.154 174.673 227.83 177.547 227.266 180.379" stroke="#4A841F" stroke-width="0.566" stroke-miterlimit="10"/>
<path d="M235.061 190.216C233.557 191.408 231.714 192.091 229.797 192.168C227.992 192.197 226.401 191.517 225.79 189.904C225.595 189.374 225.471 188.82 225.422 188.257C227.839 187.414 229.469 184.595 231.999 184.295C233.38 184.154 236.244 184.103 237.121 185.297C238.281 186.888 236.651 188.959 235.061 190.216Z" fill="#4A841F"/>
<path d="M223.695 191.874C220.899 191.925 218.448 191.263 216.846 188.008C216.172 186.627 216.093 184.788 217.372 184.001C217.833 183.764 218.346 183.649 218.863 183.667C219.38 183.685 219.884 183.835 220.327 184.103C221.224 184.645 221.983 185.387 222.546 186.271C223.177 187.194 223.622 188.233 223.853 189.327C223.957 190.179 223.903 191.042 223.695 191.874Z" fill="#4A841F"/>
<path d="M227.265 180.379C226.053 186.077 224.258 191.636 221.91 196.968" stroke="#4A841F" stroke-width="0.566" stroke-miterlimit="10"/>
<path d="M228.17 207.593C226.548 208.427 224.734 208.817 222.912 208.725C221.135 208.612 219.561 207.915 219.035 206.246C218.882 205.693 218.806 205.121 218.809 204.548C221.288 203.908 223.297 201.457 225.833 201.655C227.214 201.774 230.01 202.312 230.689 203.563C231.589 205.244 229.795 206.721 228.17 207.593Z" fill="#4A841F"/>
<path d="M216.846 208.176C214.067 208.176 211.475 207.791 210.178 203.959C209.612 202.346 209.912 200.099 211.361 199.301C211.84 199.072 212.375 198.989 212.9 199.062C213.425 199.134 213.917 199.359 214.316 199.708C215.12 200.412 215.76 201.283 216.189 202.261C216.682 203.303 217.003 204.417 217.14 205.561C217.177 206.442 217.078 207.324 216.846 208.176Z" fill="#4A841F"/>
<path d="M221.907 196.968C219.643 202.356 216.91 207.682 215.285 213.523" stroke="#4A841F" stroke-width="0.566" stroke-miterlimit="10"/>
<path d="M224.019 221.442C222.694 222.471 221.221 223.293 219.65 223.882C218.02 224.448 216.254 224.663 215.088 223.367C214.713 222.927 214.412 222.427 214.199 221.89C215.241 221.108 216.005 220.022 216.899 219.111C217.793 218.199 218.744 217.463 219.989 217.35C221.359 217.203 224.166 217.384 225.14 218.228C226.43 219.314 225.197 220.452 224.019 221.442Z" fill="#4A841F"/>
<path d="M214.026 226.123C212.815 226.842 211.649 227.499 210.347 227.578C209.045 227.657 207.602 227.125 206.125 225.314C204.851 223.792 204.223 220.865 205.389 219.258C205.711 218.799 206.187 218.472 206.731 218.336C207.275 218.2 207.849 218.264 208.349 218.516C209.334 219.036 210.207 219.743 210.919 220.599C211.736 221.5 212.459 222.482 213.075 223.531C213.478 224.361 213.797 225.23 214.026 226.123Z" fill="#4A841F"/>
<path d="M215.287 213.54C214.444 216.474 214.008 219.51 213.991 222.562C213.991 225.63 212.146 232.286 214.783 254.122" stroke="#4A841F" stroke-width="0.566" stroke-miterlimit="10"/>
<path d="M53.3516 207.988L82.6024 168.368C87.6229 155.916 86.9776 148.819 88.2964 136.378C89.4284 125.454 92.4169 116.421 92.7169 112.645C92.8244 111.315 93.9055 95.3145 93.9281 93.9675C93.9677 92.2072 96.1921 88.0414 96.6109 86.3265C100.007 71.8595 102.678 69.6917 106.476 71.8821C107.042 72.2047 113.099 75.0517 108.571 91.494C107.535 95.2636 108.752 119.12 108.752 119.12L170.655 94.1486V155.888L143.351 187.38C139.076 191.995 133.866 195.646 128.069 198.089C125.437 199.221 122.302 199.504 122.092 199.702C120.536 201.185 103.312 226.106 94.1488 239.429C78.997 228.981 65.0904 218.504 53.3516 207.988Z" fill="white"/>
<path d="M108.75 119.114L108.02 119.409C108.02 119.409 106.565 95.2575 107.601 91.488C110.102 82.3923 109.667 77.4625 108.676 74.8136C108.444 78.7756 107.459 89.9654 103.582 94.6236C109.542 103 106.31 119.154 104.295 122.358C104.295 122.358 106.876 142.383 111.987 156.318C110.069 155.559 108.071 155.446 106.933 157.093C104.624 160.427 107.663 168.277 108.71 171.628C109.842 175.239 110.974 178.852 112.106 182.467C118.849 181.646 125.639 181.268 132.431 181.335L132.244 181.414C122.526 185.184 111.563 186.667 101.646 183.48C100.073 181.991 98.5051 180.333 98.4146 180.299C95.7827 179.433 96.7166 183.695 96.06 185.687C95.1714 188.517 93.5979 191.087 92.0414 193.611L76.25 219.302C89.9981 204.943 95.9468 195.021 104.493 186.089L106.95 188.257H106.893C104.799 188.619 103.854 192.938 103.101 194.613C100.66 200.069 98.0712 205.454 95.3355 210.767L103.475 200.137C105.812 197.075 108.569 193.792 112.197 192.881L113.895 194.375C114.495 194.907 115.106 195.44 115.729 195.955C113.017 198.785 101.901 218.119 89.0133 235.393L94.2148 239.401C103.378 226.077 120.602 201.156 122.158 199.673C122.524 199.538 122.904 199.445 123.29 199.396L123.324 199.328H123.607C125.155 199.054 126.672 198.627 128.135 198.054C133.932 195.612 139.142 191.961 143.417 187.346L159.078 169.234C160.063 167.417 160.386 165.6 157.494 167.055C156.99 167.309 156.503 167.621 156.011 167.887C155.85 167.712 155.674 167.553 155.484 167.411C154.262 166.54 152.654 166.477 151.149 166.557C146.292 166.823 141.572 168.255 136.744 168.821C131.916 169.387 126.664 169.019 122.775 166.092C120.539 164.394 118.955 162.034 117.064 159.957C119.703 144.936 120.793 129.683 120.319 114.439L108.75 119.109V119.114Z" fill="#7AD03A"/>
<path opacity="0.5" d="M108.75 119.114L108.02 119.409C108.02 119.409 106.565 95.2575 107.601 91.488C110.102 82.3923 109.667 77.4625 108.676 74.8136C108.444 78.7756 107.459 89.9654 103.582 94.6236C109.542 103 106.31 119.154 104.295 122.358C104.295 122.358 106.876 142.383 111.987 156.318C110.069 155.559 108.071 155.446 106.933 157.093C104.624 160.427 107.663 168.277 108.71 171.628C109.842 175.239 110.974 178.852 112.106 182.467C118.849 181.646 125.639 181.268 132.431 181.335L132.244 181.414C122.526 185.184 111.563 186.667 101.646 183.48C100.073 181.991 98.5051 180.333 98.4146 180.299C95.7827 179.433 96.7166 183.695 96.06 185.687C95.1714 188.517 93.5979 191.087 92.0414 193.611L76.25 219.302C89.9981 204.943 95.9468 195.021 104.493 186.089L106.95 188.257H106.893C104.799 188.619 103.854 192.938 103.101 194.613C100.66 200.069 98.0712 205.454 95.3355 210.767L103.475 200.137C105.812 197.075 108.569 193.792 112.197 192.881L113.895 194.375C114.495 194.907 115.106 195.44 115.729 195.955C113.017 198.785 101.901 218.119 89.0133 235.393L94.2148 239.401C103.378 226.077 120.602 201.156 122.158 199.673C122.524 199.538 122.904 199.445 123.29 199.396L123.324 199.328H123.607C125.155 199.054 126.672 198.627 128.135 198.054C133.932 195.612 139.142 191.961 143.417 187.346L159.078 169.234C160.063 167.417 160.386 165.6 157.494 167.055C156.99 167.309 156.503 167.621 156.011 167.887C155.85 167.712 155.674 167.553 155.484 167.411C154.262 166.54 152.654 166.477 151.149 166.557C146.292 166.823 141.572 168.255 136.744 168.821C131.916 169.387 126.664 169.019 122.775 166.092C120.539 164.394 118.955 162.034 117.064 159.957C119.703 144.936 120.793 129.683 120.319 114.439L108.75 119.109V119.114Z" fill="white"/>
<path d="M53.3516 207.988L82.6024 168.368C87.6229 155.916 86.9776 148.819 88.2964 136.378C89.4284 125.454 92.4169 116.421 92.7169 112.645C92.8244 111.315 93.9055 95.3145 93.9281 93.9675C93.9677 92.2072 96.1921 88.0414 96.6109 86.3265C100.007 71.8595 102.678 69.6917 106.476 71.8821C107.042 72.2047 113.099 75.0517 108.571 91.494C107.535 95.2636 108.752 119.12 108.752 119.12L170.655 94.1486V155.888L143.351 187.38C139.076 191.995 133.866 195.646 128.069 198.089C125.437 199.221 122.302 199.504 122.092 199.702C120.536 201.185 103.312 226.106 94.1488 239.429" stroke="white" stroke-width="0.566" stroke-miterlimit="10"/>
<path d="M176.053 92.909C176.662 92.6258 177.285 92.3764 177.921 92.1618C180.185 91.3977 183.372 91.0298 185.347 92.4109C187.56 93.9278 188.834 99.2651 183.728 102.972C180.665 105.236 177.313 107.078 173.761 108.451C172.98 108.77 172.138 108.912 171.295 108.867C170.453 108.822 169.631 108.591 168.888 108.191C167.993 107.693 167.235 106.957 167.19 105.887C166.969 99.6613 170.405 95.5409 176.053 92.909Z" fill="white"/>
<mask id="mask0_390_4693" style="mask-type:luminance" maskUnits="userSpaceOnUse" x="167" y="91" width="21" height="18">
<path d="M176.053 92.9085C176.662 92.6254 177.285 92.376 177.921 92.1614C180.185 91.3973 183.372 91.0294 185.347 92.4105C187.56 93.9273 188.834 99.2647 183.728 102.972C180.665 105.235 177.313 107.078 173.761 108.451C172.98 108.769 172.138 108.911 171.295 108.866C170.453 108.821 169.631 108.591 168.888 108.191C167.993 107.692 167.235 106.957 167.19 105.887C166.969 99.6609 170.405 95.5404 176.053 92.9085Z" fill="white"/>
</mask>
<g mask="url(#mask0_390_4693)">
<path d="M184.78 95.5013C182.635 90.2262 175.696 91.6525 174.259 96.5427C173.557 98.9369 173.902 101.501 174.259 103.969C174.445 105.27 174.825 106.799 176.019 107.274C176.113 107.306 176.21 107.332 176.307 107.353C178.308 106.423 180.239 105.351 182.086 104.144C182.812 103.458 183.447 102.682 183.977 101.835C185.131 99.95 185.607 97.5445 184.78 95.5013Z" fill="#7AD03A"/>
<path opacity="0.5" d="M184.78 95.5013C182.635 90.2262 175.696 91.6525 174.259 96.5427C173.557 98.9369 173.902 101.501 174.259 103.969C174.445 105.27 174.825 106.799 176.019 107.274C176.113 107.306 176.21 107.332 176.307 107.353C178.308 106.423 180.239 105.351 182.086 104.144C182.812 103.458 183.447 102.682 183.977 101.835C185.131 99.95 185.607 97.5445 184.78 95.5013Z" fill="white"/>
</g>
<path d="M176.053 92.909C176.662 92.6258 177.285 92.3764 177.921 92.1618C180.185 91.3977 183.372 91.0298 185.347 92.4109C187.56 93.9278 188.834 99.2651 183.728 102.972C180.665 105.236 177.313 107.078 173.761 108.451C172.98 108.77 172.138 108.912 171.295 108.867C170.453 108.822 169.631 108.591 168.888 108.191C167.993 107.693 167.235 106.957 167.19 105.887C166.969 99.6613 170.405 95.5409 176.053 92.909Z" stroke="white" stroke-width="0.566" stroke-miterlimit="10"/>
<path d="M175.249 121.746L166.238 126.274V112.464L177.23 107.37C177.23 107.37 171.632 114.943 175.249 121.746Z" stroke="white" stroke-width="0.566" stroke-miterlimit="10"/>
<path d="M172.176 126.999L166.238 130.293V145.728L175.979 142.134L177.23 127.95C177.23 127.95 175.713 127.299 172.176 126.999Z" stroke="white" stroke-width="0.566" stroke-miterlimit="10"/>
<path d="M176.416 57.1939V167.983C176.414 170.189 175.539 172.306 173.98 173.868C172.422 175.431 170.308 176.312 168.101 176.32H117.161C114.951 176.318 112.831 175.44 111.268 173.876C109.705 172.313 108.826 170.193 108.824 167.983V57.1939C108.824 54.9827 109.703 52.8621 111.266 51.2986C112.83 49.7351 114.95 48.8567 117.161 48.8567H168.101C168.707 48.8564 169.31 48.9228 169.901 49.0548C171.751 49.4691 173.403 50.501 174.588 51.9805C175.772 53.46 176.417 55.2988 176.416 57.1939Z" fill="#3D3D3D"/>
<path d="M164.655 52.2018H120.615C116.01 52.2018 112.277 55.9345 112.277 60.539V164.553C112.277 169.157 116.01 172.89 120.615 172.89H164.655C169.259 172.89 172.992 169.157 172.992 164.553V60.539C172.992 55.9345 169.259 52.2018 164.655 52.2018Z" fill="#7AD03A"/>
<path d="M127.152 52.2018H159.511V53.147C159.511 54.7607 158.87 56.3083 157.728 57.4494C156.587 58.5905 155.04 59.2315 153.426 59.2315H133.237C131.623 59.2315 130.076 58.5905 128.934 57.4494C127.793 56.3083 127.152 54.7607 127.152 53.147V52.2018Z" fill="#3D3D3D"/>
<path d="M132.72 57.0189C133.586 57.0189 134.288 56.3169 134.288 55.4511C134.288 54.5852 133.586 53.8832 132.72 53.8832C131.854 53.8832 131.152 54.5852 131.152 55.4511C131.152 56.3169 131.854 57.0189 132.72 57.0189Z" fill="white" stroke="white" stroke-width="0.566" stroke-miterlimit="10"/>
<path d="M147.717 54.1938H138.939C138.192 54.1938 137.586 54.7994 137.586 55.5465V55.971C137.586 56.7181 138.192 57.3238 138.939 57.3238H147.717C148.464 57.3238 149.07 56.7181 149.07 55.971V55.5465C149.07 54.7994 148.464 54.1938 147.717 54.1938Z" fill="white" stroke="white" stroke-width="0.566" stroke-miterlimit="10"/>
<path d="M150.398 103.516C153.927 99.2304 153.314 92.8953 149.028 89.3663C144.742 85.8372 138.407 86.4506 134.878 90.7362C131.349 95.0218 131.962 101.357 136.248 104.886C140.534 108.415 146.869 107.802 150.398 103.516Z" stroke="white" stroke-width="0.566" stroke-miterlimit="10"/>
<path d="M140.898 102.768L135.832 97.3006L137.077 96.146L140.971 100.346L148.873 92.7386L150.05 93.9612L140.898 102.768Z" fill="white"/>
<path d="M139.486 83.4678L138.484 80.4227H139.05L139.792 82.7547L140.539 80.4227H141.037L140.03 83.4678V85.1658H139.503L139.486 83.4678Z" fill="white"/>
<path d="M143.089 82.5279V83.0033H141.929V84.7013H143.355V85.1824H141.402V80.4337H143.355V80.9148H141.929V82.5392L143.089 82.5279Z" fill="white"/>
<path d="M145.902 81.5605V81.6907H145.398V81.5322C145.398 81.1077 145.24 80.853 144.832 80.853C144.424 80.853 144.266 81.1077 144.266 81.5265C144.266 82.5963 145.862 82.6982 145.862 84.0339C145.862 84.7527 145.517 85.2225 144.792 85.2225C144.068 85.2225 143.723 84.7527 143.723 84.0339V83.7679H144.221V84.0679C144.221 84.4924 144.396 84.7471 144.787 84.7471C145.177 84.7471 145.353 84.4924 145.353 84.0679C145.353 83.0095 143.762 82.9076 143.762 81.5662C143.762 80.836 144.102 80.3776 144.815 80.3776C145.528 80.3776 145.902 80.8417 145.902 81.5605Z" fill="white"/>
<path d="M143.164 153.538C151.951 153.538 159.074 146.415 159.074 137.628C159.074 128.841 151.951 121.718 143.164 121.718C134.377 121.718 127.254 128.841 127.254 137.628C127.254 146.415 134.377 153.538 143.164 153.538Z" fill="white"/>
<path d="M149.032 126.84L153.849 131.657L148.036 137.47L153.849 143.282L149.032 148.099L143.219 142.286L137.407 148.099L132.59 143.282L138.403 137.47L132.59 131.657L137.407 126.84L143.219 132.647L149.032 126.84Z" fill="#7AD03A"/>
<path d="M135.528 114.564V115.17H134.821V114.53C134.821 113.924 134.577 113.556 134.028 113.556C133.479 113.556 133.241 113.924 133.241 114.53V118.084C133.241 118.69 133.49 119.058 134.028 119.058C134.566 119.058 134.821 118.69 134.821 118.084V117.213H135.528V118.045C135.528 119.064 135.047 119.743 134.011 119.743C132.975 119.743 132.5 119.069 132.5 118.045V114.564C132.5 113.545 132.981 112.866 134.011 112.866C135.041 112.866 135.528 113.545 135.528 114.564Z" fill="white"/>
<path d="M136.97 118.293L136.71 119.646H136.02L137.304 112.916H138.391L139.682 119.646H138.929L138.668 118.293H136.97ZM137.067 117.648H138.567L137.808 113.765L137.067 117.648Z" fill="white"/>
<path d="M140.931 119.669H140.258V112.939H141.209L142.765 117.807V112.939H143.427V119.669H142.629L140.931 114.23V119.669Z" fill="white"/>
<path d="M147.157 114.564V115.169H146.444V114.53C146.444 113.924 146.206 113.556 145.657 113.556C145.108 113.556 144.87 113.924 144.87 114.53V118.084C144.87 118.69 145.119 119.058 145.657 119.058C146.195 119.058 146.444 118.69 146.444 118.084V117.213H147.157V118.045C147.157 119.063 146.676 119.743 145.64 119.743C144.604 119.743 144.129 119.069 144.129 118.045V114.564C144.129 113.545 144.61 112.866 145.64 112.866C146.67 112.866 147.157 113.545 147.157 114.564Z" fill="white"/>
<path d="M150.246 115.922V116.596H148.599V118.99H150.619V119.669H147.852V112.94H150.619V113.625H148.599V115.922H150.246Z" fill="white"/>
<path d="M151.312 119.669V112.94H152.065V118.99H153.984V119.669H151.312Z" fill="white"/>
<path d="M134.027 67.5405C134.774 67.5405 135.091 67.982 135.091 68.6725V69.2385C135.091 69.9913 134.74 70.3705 133.959 70.3705H133.489V72.244H133.008V67.4896L134.027 67.5405ZM133.987 69.946C134.378 69.946 134.553 69.7649 134.553 69.3064V68.6782C134.553 68.2423 134.395 68.0273 133.987 68.0273H133.478V69.946H133.987Z" fill="white"/>
<path d="M136.585 67.5402C137.332 67.5402 137.649 67.925 137.649 68.6269V69.0174C137.649 69.5381 137.462 69.8664 137.083 69.9909C137.519 70.1211 137.683 70.4777 137.683 70.9814V71.7229C137.667 71.9166 137.701 72.1111 137.779 72.2889H137.241C137.167 72.11 137.136 71.9161 137.151 71.7229V70.9758C137.151 70.4098 136.902 70.2683 136.46 70.2683H136.087V72.3002H135.555V67.5458L136.585 67.5402ZM136.449 69.8042C136.873 69.8042 137.123 69.6683 137.123 69.1533V68.7005C137.123 68.2703 136.97 68.0496 136.557 68.0496H136.041V69.8042H136.449Z" fill="white"/>
<path d="M138.164 68.6896C138.164 67.9651 138.526 67.4954 139.251 67.4954C139.975 67.4954 140.343 67.9651 140.343 68.6896V71.1461C140.365 71.2993 140.353 71.4555 140.307 71.6034C140.262 71.7513 140.184 71.8872 140.079 72.0014C139.975 72.1156 139.846 72.2053 139.703 72.2639C139.56 72.3225 139.405 72.3486 139.251 72.3403C138.526 72.3403 138.164 71.8649 138.164 71.1461V68.6896ZM138.685 71.1744C138.685 71.6102 138.872 71.8592 139.251 71.8592C139.63 71.8592 139.817 71.6102 139.817 71.1744V68.6613C139.817 68.2368 139.641 67.9765 139.251 67.9765C138.86 67.9765 138.685 68.2368 138.685 68.6613V71.1744Z" fill="white"/>
<path d="M142.942 68.69V69.1202H142.444V68.6617C142.444 68.2372 142.275 67.9769 141.878 67.9769C141.482 67.9769 141.312 68.2372 141.312 68.6617V71.1748C141.312 71.6049 141.488 71.8596 141.878 71.8596C142.269 71.8596 142.444 71.6049 142.444 71.1748V70.5578H142.942V71.1238C142.942 71.8427 142.608 72.3181 141.873 72.3181C141.137 72.3181 140.809 71.8427 140.809 71.1238V68.6674C140.809 67.9486 141.148 67.4731 141.873 67.4731C142.597 67.4731 142.942 67.9712 142.942 68.69Z" fill="white"/>
<path d="M145.122 69.6455V70.121H143.956V71.819H145.382V72.3001H143.43V67.5457H145.382V68.0324H143.956V69.6512L145.122 69.6455Z" fill="white"/>
<path d="M147.557 69.6455V70.121H146.425V71.819H147.851V72.3001H145.898V67.5457H147.851V68.0324H146.425V69.6512L147.557 69.6455Z" fill="white"/>
<path d="M149.425 67.5402C150.166 67.5402 150.506 67.993 150.506 68.7231V71.1173C150.506 71.8474 150.166 72.2946 149.425 72.2946H148.293V67.5402H149.425ZM149.425 71.8135C149.804 71.8135 149.991 71.5757 149.991 71.1399V68.6948C149.991 68.2646 149.804 68.0269 149.425 68.0269H148.859V71.8135H149.425Z" fill="white"/>
<path d="M154.082 68.6946C154.082 69.8266 153.143 70.07 153.143 70.9586C153.142 71.0465 153.154 71.134 153.177 71.2189H152.701C152.677 71.1304 152.666 71.039 152.667 70.9473C152.667 69.9058 153.556 69.753 153.556 68.6833C153.556 68.2531 153.397 67.9814 152.99 67.9814C152.582 67.9814 152.424 68.2588 152.424 68.6833V69.1021H151.926V68.7116C151.926 67.9927 152.254 67.506 152.979 67.506C153.703 67.506 154.082 67.9701 154.082 68.6946ZM153.182 71.6378V72.2943H152.679V71.6378H153.182Z" fill="white"/>
<path opacity="0.2" d="M130.007 48.873L108.742 76.3693V57.2102C108.742 54.9991 109.621 52.8785 111.184 51.3149C112.748 49.7514 114.868 48.873 117.079 48.873H130.007Z" fill="white"/>
<path opacity="0.2" d="M169.799 48.8911L108.75 125.392V95.7899L147.861 48.676H168.005C168.609 48.6817 169.21 48.7538 169.799 48.8911Z" fill="white"/>
<path opacity="0.2" d="M176.415 133.842V146.657L172.997 150.851L155.021 172.891L152.225 176.321H141.137L143.984 172.891L172.997 137.957L176.415 133.842Z" fill="white"/>
<path d="M172.531 114.961C172.373 115.916 172.425 116.894 172.683 117.828C172.941 118.761 173.399 119.627 174.025 120.366C175.44 121.995 177.38 123.076 179.51 123.422C181.179 123.711 183.143 123.502 184.224 122.381C185.17 121.407 185.204 120.032 185.187 118.775C185.158 115.696 184.366 111.48 180.132 110.523C176.651 109.731 173.04 112.108 172.531 114.961Z" fill="white"/>
<mask id="mask1_390_4693" style="mask-type:luminance" maskUnits="userSpaceOnUse" x="172" y="110" width="14" height="14">
<path d="M172.531 114.961C172.373 115.916 172.425 116.895 172.683 117.828C172.941 118.761 173.399 119.627 174.025 120.366C175.44 121.995 177.38 123.076 179.51 123.422C181.179 123.711 183.143 123.502 184.224 122.381C185.17 121.407 185.204 120.032 185.187 118.776C185.158 115.697 184.366 111.48 180.132 110.523C176.651 109.731 173.04 112.108 172.531 114.961Z" fill="white"/>
</mask>
<g mask="url(#mask1_390_4693)">
<path d="M172.524 114.021C172.253 115.092 172.258 116.215 172.538 117.284C172.818 118.353 173.364 119.333 174.126 120.134C175.679 121.722 177.716 122.75 179.916 123.054C180.392 122.137 179.656 121.101 179.101 120.224C178.12 118.677 177.643 116.864 177.737 115.034C177.783 114.213 178.1 113.228 178.909 113.07C179.628 112.928 180.29 113.585 180.505 114.287C180.645 115.005 180.719 115.734 180.726 116.466C180.737 116.835 180.848 117.195 181.047 117.506C181.247 117.817 181.527 118.068 181.858 118.232C182.019 116.574 181.826 114.902 181.292 113.325C179.526 109.136 173.758 109.804 172.524 114.021Z" fill="#7AD03A"/>
<path opacity="0.5" d="M172.524 114.021C172.253 115.092 172.258 116.215 172.538 117.284C172.818 118.353 173.364 119.333 174.126 120.134C175.679 121.722 177.716 122.75 179.916 123.054C180.392 122.137 179.656 121.101 179.101 120.224C178.12 118.677 177.643 116.864 177.737 115.034C177.783 114.213 178.1 113.228 178.909 113.07C179.628 112.928 180.29 113.585 180.505 114.287C180.645 115.005 180.719 115.734 180.726 116.466C180.737 116.835 180.848 117.195 181.047 117.506C181.247 117.817 181.527 118.068 181.858 118.232C182.019 116.574 181.826 114.902 181.292 113.325C179.526 109.136 173.758 109.804 172.524 114.021Z" fill="white"/>
</g>
<path d="M172.531 114.961C172.373 115.916 172.425 116.894 172.683 117.828C172.941 118.761 173.399 119.627 174.025 120.366C175.44 121.995 177.38 123.076 179.51 123.422C181.179 123.711 183.143 123.502 184.224 122.381C185.17 121.407 185.204 120.032 185.187 118.775C185.158 115.696 184.366 111.48 180.132 110.523C176.651 109.731 173.04 112.108 172.531 114.961Z" stroke="white" stroke-width="0.566" stroke-miterlimit="10"/>
<path d="M176.13 150.409L169.876 155.141C169.876 155.141 165.993 161.48 173.521 163.122L179.985 161.26C181.512 160.845 182.867 159.951 183.849 158.711C184.832 157.47 185.392 155.948 185.447 154.366C185.486 151.326 183.658 148.112 176.17 147.387L176.13 150.409Z" fill="white"/>
<mask id="mask2_390_4693" style="mask-type:luminance" maskUnits="userSpaceOnUse" x="168" y="147" width="18" height="17">
<path d="M176.13 150.409L169.876 155.141C169.876 155.141 165.993 161.48 173.521 163.122L179.985 161.26C181.512 160.845 182.867 159.951 183.849 158.711C184.832 157.47 185.392 155.948 185.447 154.366C185.486 151.326 183.658 148.111 176.17 147.387L176.13 150.409Z" fill="white"/>
</mask>
<g mask="url(#mask2_390_4693)">
<path d="M174.707 153.069C174.764 153.591 174.947 154.092 175.239 154.529C176.516 156.885 177.324 159.467 177.616 162.13C177.407 160.212 178.471 157.733 178.414 155.672C178.358 153.612 178.165 150.912 177.084 149.152C176.462 150.193 174.69 151.778 174.707 153.069Z" fill="#7AD03A"/>
<path opacity="0.5" d="M174.707 153.069C174.764 153.591 174.947 154.092 175.239 154.529C176.516 156.885 177.324 159.467 177.616 162.13C177.407 160.212 178.471 157.733 178.414 155.672C178.358 153.612 178.165 150.912 177.084 149.152C176.462 150.193 174.69 151.778 174.707 153.069Z" fill="white"/>
</g>
<path d="M176.13 150.409L169.876 155.141C169.876 155.141 165.993 161.48 173.521 163.122L179.985 161.26C181.512 160.845 182.867 159.951 183.849 158.711C184.832 157.47 185.392 155.948 185.447 154.366C185.486 151.326 183.658 148.112 176.17 147.387L176.13 150.409Z" stroke="white" stroke-width="0.566" stroke-miterlimit="10"/>
<path d="M173.884 131.878L168.099 138.104C168.099 138.104 165.133 145.637 173.516 145.965L180.064 142.767C181.693 141.998 183.117 140.854 184.217 139.428C185.318 138.003 186.066 136.336 186.398 134.566C187.021 130.944 185.651 127.27 177.031 127.944L173.884 131.878Z" fill="white"/>
<mask id="mask3_390_4693" style="mask-type:luminance" maskUnits="userSpaceOnUse" x="167" y="127" width="20" height="19">
<path d="M173.884 131.878L168.099 138.104C168.099 138.104 165.133 145.637 173.516 145.966L180.064 142.768C181.693 141.999 183.117 140.854 184.217 139.429C185.318 138.003 186.066 136.337 186.398 134.566C187.021 130.944 185.651 127.271 177.031 127.944L173.884 131.878Z" fill="white"/>
</mask>
<g mask="url(#mask3_390_4693)">
<path d="M174.292 145.264C174.858 145.762 175.832 145.406 176.211 144.749C176.528 144.057 176.611 143.28 176.449 142.536C176.307 141.404 174.858 133.667 173.098 134.612C172.062 135.178 174.088 143.877 174.292 145.264Z" fill="#7AD03A"/>
<path opacity="0.5" d="M174.292 145.264C174.858 145.762 175.832 145.406 176.211 144.749C176.528 144.057 176.611 143.28 176.449 142.536C176.307 141.404 174.858 133.667 173.098 134.612C172.062 135.178 174.088 143.877 174.292 145.264Z" fill="white"/>
</g>
<path d="M173.884 131.878L168.099 138.104C168.099 138.104 165.133 145.637 173.516 145.965L180.064 142.767C181.693 141.998 183.117 140.854 184.217 139.428C185.318 138.003 186.066 136.336 186.398 134.566C187.021 130.944 185.651 127.27 177.031 127.944L173.884 131.878Z" stroke="white" stroke-width="0.566" stroke-miterlimit="10"/>
<path d="M173.476 136.473C173.028 136.553 172.602 136.73 172.23 136.991C171.857 137.252 171.545 137.592 171.318 137.986C171.09 138.381 170.951 138.82 170.911 139.273C170.87 139.727 170.93 140.184 171.085 140.612C171.24 141.04 171.486 141.429 171.807 141.752C172.128 142.075 172.516 142.324 172.943 142.481C173.371 142.639 173.827 142.701 174.281 142.663C174.735 142.625 175.175 142.489 175.57 142.263" stroke="white" stroke-width="0.566" stroke-miterlimit="10"/>
<path d="M175.414 155.349C173.619 155.06 171.899 157.047 172.453 158.796C173.008 160.545 175.578 161.151 176.868 159.871" fill="white"/>
<path d="M175.414 155.349C173.619 155.06 171.899 157.047 172.453 158.796C173.008 160.545 175.578 161.151 176.868 159.871" stroke="white" stroke-width="0.566" stroke-miterlimit="10"/>
<path d="M100.883 94.6461C103.642 94.8551 106.38 94.0299 108.563 92.3311" stroke="white" stroke-width="0.566" stroke-miterlimit="10"/>
<path d="M107.539 120.694C105.325 122.489 102.572 123.485 99.7227 123.524" stroke="white" stroke-width="0.566" stroke-miterlimit="10"/>
<path d="M115.463 175.839C114.205 179.426 111.79 182.492 108.598 184.555" stroke="white" stroke-width="0.566" stroke-miterlimit="10"/>
<path d="M181.951 268.499L180.378 262.37C168.82 250.484 147.595 239.583 145.755 223.101C143.378 201.938 140.124 202.798 140.124 197.534C141.39 194.94 142.478 192.263 143.378 189.52C143.944 187.782 144.25 185.23 144.567 183.135C144.721 182.066 145.273 181.094 146.112 180.413C146.951 179.732 148.016 179.393 149.095 179.462C150.6 179.557 152.039 180.119 153.21 181.069C155.355 182.886 156.442 185.711 156.708 188.512C156.974 191.314 156.543 194.127 156.085 196.906C158.349 201.196 159.645 206.528 160.613 211.266C161.609 207.304 163.16 195.163 159.085 187.012C152.23 173.281 144.725 160.105 138.816 142.683C138.329 141.062 138.251 139.345 138.59 137.686C139.965 132.495 145.269 133.316 147.742 136.118C148.394 136.856 148.928 137.69 149.327 138.591C152.157 144.749 157.947 154.15 162.039 159.533L176.144 178.211L177.842 176.887C177.842 176.887 178.606 153.681 178.227 153.313C177.848 152.945 175.572 138.104 175.572 138.104C175.572 138.104 174.327 135.342 172.81 131.816C172.364 130.829 172.132 129.758 172.132 128.675C172.132 127.591 172.364 126.521 172.81 125.534C175.459 120.123 180.983 122.641 182.115 125.534C183.247 128.426 186.643 134.086 186.643 134.086L192.943 151.315C192.705 155.209 194.941 174.453 194.941 174.453L197.205 173.417L200.856 162.097L198.099 150.556C198.099 150.556 192.066 143.9 193.073 139.995C194.081 136.089 199.231 137.233 199.231 137.233L209.538 149.549H212.566L219.732 158.605C221.661 164.435 222.645 170.536 222.647 176.677C222.648 180.711 222.222 184.733 221.373 188.676L219.732 196.329V245.758C219.732 245.758 224.633 253.682 224.633 254.429C224.633 254.582 225.658 257.412 227.039 261.181C212.611 267.017 197.533 269.258 181.951 268.499Z" fill="white"/>
<path d="M150.053 190.867C150.67 191.574 150.353 193.006 149.413 193.029C148.167 192.631 146.827 192.635 145.584 193.041C144.34 193.448 143.256 194.235 142.486 195.293C142.259 195.616 141.852 196.006 141.546 195.757C141.348 195.593 141.393 195.282 141.455 195.033C141.546 194.693 141.637 194.353 141.721 194.014C142.214 192.836 142.78 191.359 143.38 189.537C143.504 189.174 143.606 188.767 143.708 188.342C143.895 188.857 144.245 189.296 144.704 189.593C145.502 190.091 146.51 190.04 147.449 190.046C148.389 190.052 149.425 190.176 150.053 190.867ZM154.123 214.995C154.264 214.741 154.383 214.48 154.502 214.214C154.377 214.301 154.276 214.418 154.209 214.555C154.143 214.692 154.113 214.844 154.123 214.995ZM160.609 211.265C159.647 206.505 158.345 201.196 156.081 196.906C156.539 194.127 156.981 191.314 156.703 188.512C156.426 185.711 155.351 182.886 153.206 181.069C152.035 180.119 150.596 179.557 149.091 179.462C148.712 179.435 148.331 179.459 147.959 179.535C146.063 180.283 144.902 181.941 146.21 184.482C146.604 185.221 147.255 185.791 148.04 186.084C148.825 186.377 149.69 186.373 150.472 186.073C150.846 185.896 151.182 185.647 151.458 185.338C151.735 185.03 151.947 184.67 152.082 184.278C152.217 183.887 152.272 183.473 152.245 183.059C152.217 182.646 152.107 182.243 151.921 181.873C153.539 184.433 154.338 187.424 154.213 190.45C154.088 193.475 153.043 196.391 151.219 198.808C155.475 202.498 156.828 209.109 154.496 214.214C154.778 214.022 155.111 213.919 155.453 213.919C155.794 213.919 156.127 214.022 156.409 214.214C157.224 214.826 157.496 215.912 157.892 216.84C158.288 217.769 159.058 218.759 160.077 218.691C161.09 216.207 161.124 213.478 160.716 210.767C160.682 210.948 160.649 211.118 160.609 211.265ZM181.443 148.513C181.472 148.705 181.489 148.898 181.511 149.079C181.553 148.888 181.529 148.689 181.443 148.513ZM147.234 140.793C152.367 147.18 155.125 155.149 155.039 163.342C156.681 162.052 158.922 163.84 160.207 165.487C168.091 175.612 175.459 186.128 182.281 196.997C180.962 192.191 180.928 187.097 179.502 182.326C178.957 180.57 178.282 178.858 177.481 177.204L176.163 178.228L162.058 159.55C157.966 154.15 152.175 144.749 149.345 138.608C148.947 137.707 148.412 136.873 147.761 136.135C147.104 135.404 146.297 134.825 145.395 134.437C144.551 136.265 146.085 139.027 144.263 140.742C144.721 140.742 146.991 140.498 147.234 140.793ZM194.892 174.006C194.558 171.085 192.729 154.864 192.944 151.32L186.645 134.091C186.645 134.091 183.249 128.431 182.117 125.539C182.017 125.294 181.894 125.059 181.749 124.837C181.54 124.627 181.292 124.46 181.019 124.345C178.336 123.377 180.147 126.858 179.796 128.612C184.204 134.332 186.676 141.306 186.854 148.524C185.601 148.735 184.469 149.401 183.675 150.394C182.882 151.387 182.482 152.638 182.553 153.907C182.796 152.209 185.286 151.734 186.651 152.775C188.015 153.816 188.484 155.605 188.79 157.303C190.596 167.259 189.226 177.498 189.95 187.59C190.222 191.399 193.454 199.713 195.61 217.112C195.044 204.456 195.61 191.014 195.044 178.364C195.005 176.858 194.948 175.421 194.892 174.006ZM224.623 254.429C224.623 253.676 219.722 245.757 219.722 245.757V204.892C218.929 202.719 218.001 200.598 216.943 198.542C216.926 198.512 216.9 198.488 216.869 198.473C216.838 198.459 216.804 198.454 216.77 198.461C216.736 198.467 216.705 198.483 216.681 198.508C216.658 198.533 216.642 198.564 216.637 198.598C216.162 202.56 214.617 201.598 212.183 198.417C212.183 198.417 208.583 200.845 208.566 200.823C207.349 199.181 206.828 197.189 206.54 195.163C206.579 195.072 206.625 194.982 206.67 194.885C206.715 194.789 206.8 194.614 206.868 194.478C206.936 194.342 207.055 194.082 207.151 193.878L207.349 193.453L207.638 192.825L207.83 192.401C207.932 192.18 208.028 191.953 208.13 191.727C208.187 191.591 208.249 191.461 208.306 191.325C208.419 191.065 208.532 190.81 208.64 190.55L208.775 190.233V190.182C208.821 190.08 208.86 189.978 208.9 189.876C209.025 189.582 209.149 189.31 209.268 188.988L209.455 188.529C209.562 188.269 209.664 188.008 209.766 187.754L209.958 187.244C210.055 187.001 210.151 186.752 210.241 186.509L210.428 185.993C210.519 185.756 210.604 185.518 210.689 185.275C210.773 185.031 210.813 184.935 210.87 184.771L210.977 184.465C211.134 187.579 212.427 190.527 214.611 192.752C214.278 189.044 214.469 185.307 215.177 181.652C215.42 180.435 215.466 176.196 216.416 175.426C217.367 174.657 219.088 174.685 219.603 175.811C219.56 175.403 219.424 175.011 219.204 174.664C218.984 174.318 218.687 174.028 218.336 173.815C217.986 173.603 217.59 173.475 217.181 173.441C216.773 173.408 216.362 173.469 215.981 173.621C217.192 173.055 215.5 166.829 215.211 165.623C215.03 164.865 214.566 162.793 213.937 160.722C214.578 159.835 215.402 159.098 216.354 158.559C216.876 158.284 217.463 158.154 218.052 158.183C218.642 158.212 219.212 158.399 219.705 158.724V158.661L219.314 158.163C218.596 157.326 217.905 156.465 217.254 155.565L212.539 149.6H210.275L210.219 149.662C209.726 150.449 210.445 151.858 210.677 152.6C210.819 153.047 210.96 153.494 211.096 153.941C210.468 152.141 209.69 150.398 208.77 148.728L199.935 138.104C199.626 137.904 199.3 137.732 198.961 137.589C196.697 136.672 193.641 138.636 194.167 141.302C194.121 140.604 194.332 139.913 194.76 139.36C195.188 138.807 195.804 138.43 196.492 138.3C197.179 138.169 197.89 138.295 198.491 138.653C199.092 139.012 199.541 139.577 199.753 140.244C199.442 140.241 199.134 140.3 198.846 140.417C198.558 140.535 198.296 140.708 198.076 140.928C197.856 141.148 197.681 141.409 197.563 141.697C197.445 141.984 197.385 142.293 197.388 142.604L200.325 141.472C200.727 144.376 202.657 146.809 204.57 149.028C206.483 151.247 206.636 152.741 207.338 155.582C208.04 158.424 208.764 162.782 205.968 163.665C207.208 163.416 208.402 164.497 208.747 165.714C209.092 166.931 208.826 168.232 208.572 169.472C206.903 177.576 205.849 185.796 205.419 194.059C204.503 195.745 203.827 197.551 203.41 199.425L203.8 219.15C205.553 217.375 206.883 215.228 207.689 212.867C207.813 212.494 208.068 212.177 208.406 211.976C208.745 211.774 209.144 211.701 209.532 211.77C209.92 211.839 210.27 212.044 210.519 212.35C210.767 212.655 210.898 213.04 210.887 213.433C210.887 213.716 210.887 213.999 210.841 214.277L209.194 242.152L215.477 218.425C216.609 225.41 213.586 245.09 211.458 251.819C216.626 252.674 218.528 259.075 218.703 264.328C221.537 263.446 224.317 262.399 227.029 261.192C225.648 257.411 224.623 254.581 224.623 254.429ZM182.083 258.391C181.174 257.111 180.05 255.998 178.761 255.102C175.617 252.871 171.861 251.665 168.007 251.649L171.267 254.281C171.397 254.344 171.527 254.4 171.646 254.468C173.695 255.6 175.563 257.417 177.13 259.126C177.278 259.29 177.436 259.477 177.6 259.692C178.579 260.592 179.519 261.487 180.396 262.392L181.528 266.75C181.783 267.345 182.026 267.945 182.253 268.533C182.875 268.563 183.498 268.586 184.121 268.601C184.279 265.771 184.205 262.794 183.492 260.977C183.138 260.05 182.664 259.173 182.083 258.368V258.391Z" fill="#7AD03A"/>
<path opacity="0.5" d="M150.053 190.867C150.67 191.574 150.353 193.006 149.413 193.029C148.167 192.631 146.827 192.635 145.584 193.041C144.34 193.448 143.256 194.235 142.486 195.293C142.259 195.616 141.852 196.006 141.546 195.757C141.348 195.593 141.393 195.282 141.455 195.033C141.546 194.693 141.637 194.353 141.721 194.014C142.214 192.836 142.78 191.359 143.38 189.537C143.504 189.174 143.606 188.767 143.708 188.342C143.895 188.857 144.245 189.296 144.704 189.593C145.502 190.091 146.51 190.04 147.449 190.046C148.389 190.052 149.425 190.176 150.053 190.867ZM154.123 214.995C154.264 214.741 154.383 214.48 154.502 214.214C154.377 214.301 154.276 214.418 154.209 214.555C154.143 214.692 154.113 214.844 154.123 214.995ZM160.609 211.265C159.647 206.505 158.345 201.196 156.081 196.906C156.539 194.127 156.981 191.314 156.703 188.512C156.426 185.711 155.351 182.886 153.206 181.069C152.035 180.119 150.596 179.557 149.091 179.462C148.712 179.435 148.331 179.459 147.959 179.535C146.063 180.283 144.902 181.941 146.21 184.482C146.604 185.221 147.255 185.791 148.04 186.084C148.825 186.377 149.69 186.373 150.472 186.073C150.846 185.896 151.182 185.647 151.458 185.338C151.735 185.03 151.947 184.67 152.082 184.278C152.217 183.887 152.272 183.473 152.245 183.059C152.217 182.646 152.107 182.243 151.921 181.873C153.539 184.433 154.338 187.424 154.213 190.45C154.088 193.475 153.043 196.391 151.219 198.808C155.475 202.498 156.828 209.109 154.496 214.214C154.778 214.022 155.111 213.919 155.453 213.919C155.794 213.919 156.127 214.022 156.409 214.214C157.224 214.826 157.496 215.912 157.892 216.84C158.288 217.769 159.058 218.759 160.077 218.691C161.09 216.207 161.124 213.478 160.716 210.767C160.682 210.948 160.649 211.118 160.609 211.265ZM181.443 148.513C181.472 148.705 181.489 148.898 181.511 149.079C181.553 148.888 181.529 148.689 181.443 148.513ZM147.234 140.793C152.367 147.18 155.125 155.149 155.039 163.342C156.681 162.052 158.922 163.84 160.207 165.487C168.091 175.612 175.459 186.128 182.281 196.997C180.962 192.191 180.928 187.097 179.502 182.326C178.957 180.57 178.282 178.858 177.481 177.204L176.163 178.228L162.058 159.55C157.966 154.15 152.175 144.749 149.345 138.608C148.947 137.707 148.412 136.873 147.761 136.135C147.104 135.404 146.297 134.825 145.395 134.437C144.551 136.265 146.085 139.027 144.263 140.742C144.721 140.742 146.991 140.498 147.234 140.793ZM194.892 174.006C194.558 171.085 192.729 154.864 192.944 151.32L186.645 134.091C186.645 134.091 183.249 128.431 182.117 125.539C182.017 125.294 181.894 125.059 181.749 124.837C181.54 124.627 181.292 124.46 181.019 124.345C178.336 123.377 180.147 126.858 179.796 128.612C184.204 134.332 186.676 141.306 186.854 148.524C185.601 148.735 184.469 149.401 183.675 150.394C182.882 151.387 182.482 152.638 182.553 153.907C182.796 152.209 185.286 151.734 186.651 152.775C188.015 153.816 188.484 155.605 188.79 157.303C190.596 167.259 189.226 177.498 189.95 187.59C190.222 191.399 193.454 199.713 195.61 217.112C195.044 204.456 195.61 191.014 195.044 178.364C195.005 176.858 194.948 175.421 194.892 174.006ZM224.623 254.429C224.623 253.676 219.722 245.757 219.722 245.757V204.892C218.929 202.719 218.001 200.598 216.943 198.542C216.926 198.512 216.9 198.488 216.869 198.473C216.838 198.459 216.804 198.454 216.77 198.461C216.736 198.467 216.705 198.483 216.681 198.508C216.658 198.533 216.642 198.564 216.637 198.598C216.162 202.56 214.617 201.598 212.183 198.417C212.183 198.417 208.583 200.845 208.566 200.823C207.349 199.181 206.828 197.189 206.54 195.163C206.579 195.072 206.625 194.982 206.67 194.885C206.715 194.789 206.8 194.614 206.868 194.478C206.936 194.342 207.055 194.082 207.151 193.878L207.349 193.453L207.638 192.825L207.83 192.401C207.932 192.18 208.028 191.953 208.13 191.727C208.187 191.591 208.249 191.461 208.306 191.325C208.419 191.065 208.532 190.81 208.64 190.55L208.775 190.233V190.182C208.821 190.08 208.86 189.978 208.9 189.876C209.025 189.582 209.149 189.31 209.268 188.988L209.455 188.529C209.562 188.269 209.664 188.008 209.766 187.754L209.958 187.244C210.055 187.001 210.151 186.752 210.241 186.509L210.428 185.993C210.519 185.756 210.604 185.518 210.689 185.275C210.773 185.031 210.813 184.935 210.87 184.771L210.977 184.465C211.134 187.579 212.427 190.527 214.611 192.752C214.278 189.044 214.469 185.307 215.177 181.652C215.42 180.435 215.466 176.196 216.416 175.426C217.367 174.657 219.088 174.685 219.603 175.811C219.56 175.403 219.424 175.011 219.204 174.664C218.984 174.318 218.687 174.028 218.336 173.815C217.986 173.603 217.59 173.475 217.181 173.441C216.773 173.408 216.362 173.469 215.981 173.621C217.192 173.055 215.5 166.829 215.211 165.623C215.03 164.865 214.566 162.793 213.937 160.722C214.578 159.835 215.402 159.098 216.354 158.559C216.876 158.284 217.463 158.154 218.052 158.183C218.642 158.212 219.212 158.399 219.705 158.724V158.661L219.314 158.163C218.596 157.326 217.905 156.465 217.254 155.565L212.539 149.6H210.275L210.219 149.662C209.726 150.449 210.445 151.858 210.677 152.6C210.819 153.047 210.96 153.494 211.096 153.941C210.468 152.141 209.69 150.398 208.77 148.728L199.935 138.104C199.626 137.904 199.3 137.732 198.961 137.589C196.697 136.672 193.641 138.636 194.167 141.302C194.121 140.604 194.332 139.913 194.76 139.36C195.188 138.807 195.804 138.43 196.492 138.3C197.179 138.169 197.89 138.295 198.491 138.653C199.092 139.012 199.541 139.577 199.753 140.244C199.442 140.241 199.134 140.3 198.846 140.417C198.558 140.535 198.296 140.708 198.076 140.928C197.856 141.148 197.681 141.409 197.563 141.697C197.445 141.984 197.385 142.293 197.388 142.604L200.325 141.472C200.727 144.376 202.657 146.809 204.57 149.028C206.483 151.247 206.636 152.741 207.338 155.582C208.04 158.424 208.764 162.782 205.968 163.665C207.208 163.416 208.402 164.497 208.747 165.714C209.092 166.931 208.826 168.232 208.572 169.472C206.903 177.576 205.849 185.796 205.419 194.059C204.503 195.745 203.827 197.551 203.41 199.425L203.8 219.15C205.553 217.375 206.883 215.228 207.689 212.867C207.813 212.494 208.068 212.177 208.406 211.976C208.745 211.774 209.144 211.701 209.532 211.77C209.92 211.839 210.27 212.044 210.519 212.35C210.767 212.655 210.898 213.04 210.887 213.433C210.887 213.716 210.887 213.999 210.841 214.277L209.194 242.152L215.477 218.425C216.609 225.41 213.586 245.09 211.458 251.819C216.626 252.674 218.528 259.075 218.703 264.328C221.537 263.446 224.317 262.399 227.029 261.192C225.648 257.411 224.623 254.581 224.623 254.429ZM182.083 258.391C181.174 257.111 180.05 255.998 178.761 255.102C175.617 252.871 171.861 251.665 168.007 251.649L171.267 254.281C171.397 254.344 171.527 254.4 171.646 254.468C173.695 255.6 175.563 257.417 177.13 259.126C177.278 259.29 177.436 259.477 177.6 259.692C178.579 260.592 179.519 261.487 180.396 262.392L181.528 266.75C181.783 267.345 182.026 267.945 182.253 268.533C182.875 268.563 183.498 268.586 184.121 268.601C184.279 265.771 184.205 262.794 183.492 260.977C183.138 260.05 182.664 259.173 182.083 258.368V258.391Z" fill="white"/>
<path d="M181.951 268.499L180.378 262.37C168.82 250.484 147.595 239.583 145.755 223.101C143.378 201.938 140.124 202.798 140.124 197.534C141.39 194.94 142.478 192.263 143.378 189.52C143.944 187.782 144.25 185.23 144.567 183.135C144.721 182.066 145.273 181.094 146.112 180.413C146.951 179.732 148.016 179.393 149.095 179.462C150.6 179.557 152.039 180.119 153.21 181.069C155.355 182.886 156.442 185.711 156.708 188.512C156.974 191.314 156.543 194.127 156.085 196.906C158.349 201.196 159.645 206.528 160.613 211.266C161.609 207.304 163.16 195.163 159.085 187.012C152.23 173.281 144.725 160.105 138.816 142.683C138.329 141.062 138.251 139.345 138.59 137.686C139.965 132.495 145.269 133.316 147.742 136.118C148.394 136.856 148.928 137.69 149.327 138.591C152.157 144.749 157.947 154.15 162.039 159.533L176.144 178.211L177.842 176.887C177.842 176.887 178.606 153.681 178.227 153.313C177.848 152.945 175.572 138.104 175.572 138.104C175.572 138.104 174.327 135.342 172.81 131.816C172.364 130.829 172.132 129.758 172.132 128.675C172.132 127.591 172.364 126.521 172.81 125.534C175.459 120.123 180.983 122.641 182.115 125.534C183.247 128.426 186.643 134.086 186.643 134.086L192.943 151.315C192.705 155.209 194.941 174.453 194.941 174.453L197.205 173.417L200.856 162.097L198.099 150.556C198.099 150.556 192.066 143.9 193.073 139.995C194.081 136.089 199.231 137.233 199.231 137.233L209.538 149.549H212.566L219.732 158.605C221.661 164.435 222.645 170.536 222.647 176.677C222.648 180.711 222.222 184.733 221.373 188.676L219.732 196.329V245.758C219.732 245.758 224.633 253.682 224.633 254.429C224.633 254.582 225.658 257.412 227.039 261.181" stroke="white" stroke-width="0.566" stroke-miterlimit="10"/>
<path d="M154.023 164.14C154.94 163.137 156.081 162.365 157.353 161.886C158.624 161.407 159.991 161.235 161.342 161.384" stroke="white" stroke-width="0.566" stroke-miterlimit="10"/>
<path d="M149.321 140.51C148.288 140.337 147.231 140.371 146.212 140.61C145.193 140.849 144.231 141.288 143.383 141.903C143.383 141.903 140.412 138.937 141.046 136.514" stroke="white" stroke-width="0.566" stroke-miterlimit="10"/>
<path d="M214.332 192.944C212.691 190.414 211.106 186.939 211.542 183.962C212.402 178.12 215.062 171.402 213.868 165.623C213.114 161.933 212.348 158.243 211.57 154.552" stroke="white" stroke-width="0.566" stroke-miterlimit="10"/>
<path d="M182.53 130.356C181.957 130.768 181.28 131.012 180.575 131.061C179.871 131.109 179.167 130.96 178.543 130.63C177.919 130.3 177.399 129.802 177.043 129.193C176.686 128.584 176.507 127.887 176.525 127.181" stroke="white" stroke-width="0.566" stroke-miterlimit="10"/>
<path d="M178.149 166.347C178.013 168.339 178.279 177.712 178.149 179.705" stroke="white" stroke-width="0.566" stroke-miterlimit="10"/>
<path d="M189.895 183.452C192.487 186.282 192.108 193.114 190.279 196.866" stroke="white" stroke-width="0.566" stroke-miterlimit="10"/>
<path d="M169.867 191.382C171.263 194.104 173.372 196.397 175.969 198.015" stroke="white" stroke-width="0.566" stroke-miterlimit="10"/>
<path d="M206.516 187.641C206.939 190.529 206.308 193.472 204.738 195.933" stroke="white" stroke-width="0.566" stroke-miterlimit="10"/>
<path d="M217.549 196.521C217.668 198.784 217.022 201.021 215.715 202.872" stroke="white" stroke-width="0.566" stroke-miterlimit="10"/>
<path d="M202.423 141.693C201.742 141.379 200.983 141.274 200.242 141.392C199.502 141.51 198.813 141.845 198.263 142.355L196.797 140.419" stroke="white" stroke-width="0.566" stroke-miterlimit="10"/>
<path d="M190.224 150.42C189.221 149.828 188.041 149.611 186.893 149.806C185.745 150.002 184.703 150.599 183.953 151.49" stroke="white" stroke-width="0.566" stroke-miterlimit="10"/>
<path d="M213.574 166.348C212.94 165.292 212.016 164.439 210.913 163.892C209.809 163.344 208.572 163.124 207.348 163.257" stroke="white" stroke-width="0.566" stroke-miterlimit="10"/>
<path d="M221.549 177.724C221.507 176.954 221.203 176.221 220.689 175.645C220.175 175.07 219.48 174.688 218.719 174.56" stroke="white" stroke-width="0.566" stroke-miterlimit="10"/>
<path d="M160.541 212.216L158 213.348" stroke="white" stroke-width="0.566" stroke-miterlimit="10"/>
<path d="M161.199 214.26C160.782 216.226 160.772 218.256 161.17 220.226" stroke="white" stroke-width="0.566" stroke-miterlimit="10"/>
<path d="M144.501 194.523C143.131 195.608 141.961 196.924 141.043 198.411" stroke="white" stroke-width="0.566" stroke-miterlimit="10"/>
<path d="M145.129 186.78C146.991 185.45 149.963 188.433 151.678 186.91C152.357 186.305 152.413 185.252 152.244 184.358C152.074 183.463 151.768 182.558 151.898 181.652" stroke="white" stroke-width="0.566" stroke-miterlimit="10"/>
<path d="M184.766 214.758C184.817 215.709 184.851 216.66 184.856 217.588" stroke="white" stroke-width="0.566" stroke-miterlimit="10"/>
<path d="M182.094 198.491C183.231 202.602 184.019 206.801 184.448 211.045" stroke="white" stroke-width="0.566" stroke-miterlimit="10"/>
<path d="M178.816 190.362C179.773 192.502 180.622 194.67 181.386 196.866" stroke="white" stroke-width="0.566" stroke-miterlimit="10"/>
<path d="M224.794 124.529C225.504 124.013 226.389 123.797 227.257 123.931V123.932L265.747 130.123C266.178 130.192 266.591 130.346 266.962 130.575C267.333 130.804 267.656 131.104 267.911 131.458C268.166 131.812 268.349 132.212 268.449 132.637C268.537 133.008 268.559 133.392 268.517 133.771L268.495 133.933L262.313 172.424C262.245 172.854 262.091 173.266 261.863 173.637C261.635 174.008 261.336 174.33 260.983 174.585C260.631 174.84 260.231 175.024 259.808 175.124C259.384 175.225 258.944 175.24 258.515 175.171L231.885 170.904H231.886L221.192 169.166H221.191L220.039 168.984H220.04C219.61 168.915 219.197 168.762 218.826 168.533C218.455 168.305 218.133 168.005 217.878 167.651C217.623 167.298 217.44 166.898 217.34 166.475C217.239 166.051 217.223 165.611 217.292 165.181L223.469 126.69C223.608 125.823 224.084 125.046 224.794 124.529Z" fill="white" stroke="#B3B3B3" stroke-width="0.5"/>
<path d="M267 144.814L221.466 137.504L223.302 126.067C223.427 125.287 223.856 124.59 224.496 124.127C225.135 123.665 225.933 123.475 226.712 123.6L266.243 129.946C267.056 130.077 267.784 130.525 268.266 131.192C268.749 131.859 268.946 132.69 268.816 133.503L267 144.814Z" fill="#7AD03A"/>
<path d="M238.871 133.919C238.871 133.999 241.975 134.57 245.836 135.189C249.698 135.807 252.834 136.255 252.844 136.165C252.855 136.074 249.74 135.514 245.884 134.895C242.028 134.277 238.887 133.818 238.871 133.919Z" fill="#263238"/>
<path d="M238.784 122.432L237.593 129.852C237.466 130.643 238.005 131.387 238.796 131.514L238.896 131.53C239.687 131.657 240.431 131.119 240.558 130.328L241.749 122.908C241.876 122.117 241.338 121.373 240.547 121.246L240.447 121.23C239.656 121.103 238.911 121.641 238.784 122.432Z" fill="#E0E0E0"/>
<path d="M252.691 124.658L251.499 132.078C251.372 132.869 251.911 133.613 252.702 133.74L252.802 133.756C253.593 133.883 254.337 133.345 254.464 132.554L255.655 125.134C255.782 124.343 255.244 123.599 254.453 123.472L254.353 123.456C253.562 123.329 252.818 123.867 252.691 124.658Z" fill="#E0E0E0"/>
</svg>
