<svg width="88" height="60" viewBox="0 0 88 60" fill="none" xmlns="http://www.w3.org/2000/svg">
<path d="M4.85491 2.73942C3.85823 2.83908 3.09625 3.67758 3.09767 4.67923V55.3121C3.09351 56.3935 3.97502 57.2712 5.0565 57.2671H82.957C84.0328 57.2633 84.9009 56.3879 84.8968 55.3121V4.67923C84.893 3.60898 84.0272 2.7432 82.957 2.73942H5.0565C4.98945 2.73595 4.92195 2.73595 4.85491 2.73942Z" fill="#59A9E6"/>
<path d="M70.4356 2.7395C70.982 5.9552 71.2581 9.211 71.261 12.4728C71.2505 21.0212 69.3641 29.4631 65.7351 37.203C62.106 44.9428 56.8227 51.792 50.2578 57.2672H82.9531C84.029 57.2634 84.8971 56.388 84.8929 55.3121V4.67931C84.8891 3.60906 84.0234 2.74329 82.9531 2.7395H70.4356Z" fill="#3C99E1"/>
<path d="M3.10547 12.4731H84.898V24.1577H3.10547L3.10547 12.4731Z" fill="#1D7FCB"/>
<path d="M71.2645 12.4727C71.2587 16.3979 70.8573 20.3125 70.0664 24.1572H82.9528V20.2624H82.949V16.3675H82.9528V12.4727H71.2645Z" fill="#1C76BD"/>
<path d="M53.7328 29.9995C52.6569 30.0033 51.7888 30.8786 51.793 31.9545V47.5376C51.7968 48.6079 52.6625 49.4736 53.7328 49.4774H73.2146C74.2848 49.4736 75.1506 48.6079 75.1544 47.5376V31.9545C75.1585 30.8786 74.2904 30.0033 73.2146 29.9995H53.7328Z" fill="#FFA733"/>
<path d="M51.7891 37.7908V41.6866H75.1584V37.7908H51.7891Z" fill="#FF9811"/>
<path d="M68.5306 29.9995C66.2776 37.1082 62.6845 43.7198 57.9453 49.4774H73.2128C74.283 49.4736 75.1488 48.6079 75.1526 47.5376V31.9545C75.1567 30.8786 74.2886 30.0033 73.2128 29.9995H68.5306Z" fill="#FF9811"/>
<path d="M65.4366 37.7892C64.8075 39.1138 64.1059 40.4143 63.3789 41.6878H75.1585V37.7892H65.4366Z" fill="#F08800"/>
</svg>
