<svg width="25" height="24" viewBox="0 0 25 24" fill="none" xmlns="http://www.w3.org/2000/svg">
<path d="M3.5 7H6.5" stroke="black" stroke-width="1.5" stroke-linecap="round" stroke-linejoin="round"/>
<path d="M3.5 17H9.5" stroke="black" stroke-width="1.5" stroke-linecap="round" stroke-linejoin="round"/>
<path d="M18.5 17H21.5" stroke="black" stroke-width="1.5" stroke-linecap="round" stroke-linejoin="round"/>
<path d="M15.5 7H21.5" stroke="black" stroke-width="1.5" stroke-linecap="round" stroke-linejoin="round"/>
<path d="M6.5 7C6.5 6.06812 6.5 5.60218 6.65224 5.23463C6.85523 4.74458 7.24458 4.35523 7.73463 4.15224C8.10218 4 8.56812 4 9.5 4C10.4319 4 10.8978 4 11.2654 4.15224C11.7554 4.35523 12.1448 4.74458 12.3478 5.23463C12.5 5.60218 12.5 6.06812 12.5 7C12.5 7.93188 12.5 8.39782 12.3478 8.76537C12.1448 9.25542 11.7554 9.64477 11.2654 9.84776C10.8978 10 10.4319 10 9.5 10C8.56812 10 8.10218 10 7.73463 9.84776C7.24458 9.64477 6.85523 9.25542 6.65224 8.76537C6.5 8.39782 6.5 7.93188 6.5 7Z" stroke="black" stroke-width="1.5"/>
<path d="M12.5 17C12.5 16.0681 12.5 15.6022 12.6522 15.2346C12.8552 14.7446 13.2446 14.3552 13.7346 14.1522C14.1022 14 14.5681 14 15.5 14C16.4319 14 16.8978 14 17.2654 14.1522C17.7554 14.3552 18.1448 14.7446 18.3478 15.2346C18.5 15.6022 18.5 16.0681 18.5 17C18.5 17.9319 18.5 18.3978 18.3478 18.7654C18.1448 19.2554 17.7554 19.6448 17.2654 19.8478C16.8978 20 16.4319 20 15.5 20C14.5681 20 14.1022 20 13.7346 19.8478C13.2446 19.6448 12.8552 19.2554 12.6522 18.7654C12.5 18.3978 12.5 17.9319 12.5 17Z" stroke="black" stroke-width="1.5"/>
</svg>
