<svg width="24" height="24" viewBox="0 0 24 24" fill="none" xmlns="http://www.w3.org/2000/svg">
<path d="M17 7.66666L16.5869 14.3501C16.4813 16.0576 16.4285 16.9114 16.0005 17.5253C15.7889 17.8287 15.5165 18.0849 15.2005 18.2773C14.5614 18.6667 13.706 18.6667 11.9951 18.6667C10.2821 18.6667 9.42553 18.6667 8.78603 18.2766C8.46987 18.0838 8.19733 17.8272 7.98579 17.5232C7.55792 16.9084 7.5063 16.0534 7.40307 14.3435L7 7.66666" stroke="#757575" stroke-linecap="round"/>
<path d="M6 7.66668H18M14.7038 7.66668L14.2487 6.72783C13.9464 6.10418 13.7952 5.79236 13.5345 5.59788C13.4767 5.55474 13.4154 5.51637 13.3513 5.48314C13.0626 5.33334 12.7161 5.33334 12.023 5.33334C11.3125 5.33334 10.9573 5.33334 10.6638 5.48942C10.5987 5.52402 10.5367 5.56394 10.4782 5.60879C10.2144 5.81114 10.0671 6.13438 9.77241 6.78085L9.36861 7.66668" stroke="#757575" stroke-linecap="round"/>
<path d="M10.332 15V11" stroke="#757575" stroke-linecap="round"/>
<path d="M13.668 15V11" stroke="#757575" stroke-linecap="round"/>
</svg>
