<svg width="258" height="29" viewBox="0 0 258 29" fill="none" xmlns="http://www.w3.org/2000/svg">
<path d="M13.222 14.632V19.042H20.818V20.5H11.584V7.612H20.512V9.07H13.222V13.174H20.242V14.632H13.222ZM23.0369 11.248H24.4049V12.814C25.1489 11.638 26.1689 11.05 27.4649 11.05C28.3649 11.05 29.0789 11.278 29.6069 11.734C30.1349 12.178 30.3989 12.778 30.3989 13.534V20.5H28.9409V14.128C28.9409 13.576 28.7669 13.138 28.4189 12.814C28.0829 12.49 27.6209 12.328 27.0329 12.328C26.2649 12.328 25.6529 12.61 25.1969 13.174C24.7409 13.738 24.5129 14.488 24.5129 15.424V20.5H23.0369V11.248ZM38.8931 11.248H40.2611V18.988C40.2611 20.992 39.9371 22.384 39.2891 23.164C38.6411 23.956 37.5791 24.352 36.1031 24.352C34.9511 24.352 34.0511 24.076 33.4031 23.524C32.8271 23.032 32.5031 22.378 32.4311 21.562H33.9431C34.0151 22.042 34.1951 22.396 34.4831 22.624C34.9031 22.948 35.4671 23.11 36.1751 23.11C37.1351 23.11 37.8191 22.822 38.2271 22.246C38.5751 21.754 38.7491 20.914 38.7491 19.726V19.132C37.9811 20.176 37.0571 20.698 35.9771 20.698C34.9211 20.698 34.0271 20.302 33.2951 19.51C32.5151 18.658 32.1251 17.494 32.1251 16.018C32.1251 14.434 32.5331 13.174 33.3491 12.238C34.0691 11.446 34.9751 11.05 36.0671 11.05C37.2431 11.05 38.1851 11.578 38.8931 12.634V11.248ZM36.2291 12.4C35.4371 12.4 34.8071 12.718 34.3391 13.354C33.8831 13.978 33.6551 14.836 33.6551 15.928C33.6551 17.068 33.9191 17.938 34.4471 18.538C34.8911 19.066 35.4911 19.33 36.2471 19.33C37.0391 19.33 37.6511 19.03 38.0831 18.43C38.5271 17.83 38.7491 16.996 38.7491 15.928C38.7491 14.752 38.4971 13.852 37.9931 13.228C37.5491 12.676 36.9611 12.4 36.2291 12.4ZM44.1293 7.612V20.5H42.6533V7.612H44.1293ZM47.9952 11.248V20.5H46.5372V11.248H47.9952ZM47.2932 7.63C47.5452 7.63 47.7552 7.72 47.9232 7.9C48.1032 8.068 48.1932 8.272 48.1932 8.512C48.1932 8.764 48.1032 8.98 47.9232 9.16C47.7552 9.328 47.5452 9.412 47.2932 9.412C47.0532 9.412 46.8432 9.328 46.6632 9.16C46.4952 8.98 46.4112 8.764 46.4112 8.512C46.4112 8.272 46.4952 8.068 46.6632 7.9C46.8432 7.72 47.0532 7.63 47.2932 7.63ZM57.0991 13.786H55.4791C55.4311 12.862 54.8131 12.4 53.6251 12.4C53.0131 12.4 52.5271 12.52 52.1671 12.76C51.8191 12.988 51.6451 13.3 51.6451 13.696C51.6451 14.296 52.2151 14.728 53.3551 14.992L54.7771 15.316C55.7011 15.532 56.3671 15.838 56.7751 16.234C57.1831 16.63 57.3871 17.17 57.3871 17.854C57.3871 18.73 57.0451 19.426 56.3611 19.942C55.6771 20.446 54.7531 20.698 53.5891 20.698C52.3171 20.698 51.3511 20.398 50.6911 19.798C50.1391 19.306 49.8451 18.652 49.8091 17.836H51.4831C51.5791 18.256 51.7111 18.562 51.8791 18.754C52.2031 19.138 52.8091 19.33 53.6971 19.33C54.3571 19.33 54.8791 19.21 55.2631 18.97C55.6591 18.718 55.8571 18.388 55.8571 17.98C55.8571 17.368 55.3831 16.948 54.4351 16.72L53.0491 16.396C51.9931 16.144 51.2551 15.844 50.8351 15.496C50.3551 15.1 50.1151 14.53 50.1151 13.786C50.1151 12.946 50.4331 12.28 51.0691 11.788C51.7171 11.296 52.5811 11.05 53.6611 11.05C54.7891 11.05 55.6651 11.332 56.2891 11.896C56.8291 12.388 57.0991 13.018 57.0991 13.786ZM59.3709 7.612H60.8289V12.544C61.2729 11.992 61.7169 11.608 62.1609 11.392C62.6049 11.164 63.1569 11.05 63.8169 11.05C64.7169 11.05 65.4249 11.278 65.9409 11.734C66.4569 12.178 66.7149 12.79 66.7149 13.57V20.5H65.2569V14.164C65.2569 13.516 65.0589 13.042 64.6629 12.742C64.2909 12.466 63.8529 12.328 63.3489 12.328C62.5929 12.328 61.9809 12.61 61.5129 13.174C61.0569 13.738 60.8289 14.488 60.8289 15.424V20.5H59.3709V7.612Z" fill="#323232"/>
<path d="M86.0002 2.83333C79.5718 2.83333 74.3335 8.07166 74.3335 14.5C74.3335 20.9283 79.5718 26.1667 86.0002 26.1667C92.4285 26.1667 97.6668 20.9283 97.6668 14.5C97.6668 8.07166 92.4285 2.83333 86.0002 2.83333ZM96.5002 14.5C96.5002 15.725 96.2785 16.9033 95.8935 18H91.5185C91.7752 16.5183 91.8335 15.2933 91.8335 14.5C91.8335 13.2633 91.7168 12.0967 91.5302 11H95.8935C96.2785 12.0967 96.5002 13.275 96.5002 14.5ZM95.3918 9.83333H91.2968C90.8185 7.745 90.0602 5.98333 89.2902 4.53666C91.9618 5.42333 94.1552 7.34833 95.4035 9.83333H95.3918ZM90.6668 14.5C90.6668 15.1183 90.6318 16.3783 90.3402 18H81.6485C81.4502 16.915 81.3335 15.7483 81.3335 14.5C81.3335 13.8817 81.3685 12.6217 81.6602 11H90.3518C90.5502 12.085 90.6668 13.2517 90.6668 14.5ZM87.7502 4.16333C88.6018 5.58666 89.5235 7.47666 90.1068 9.83333H81.9052C82.3135 8.13 83.0485 6.15833 84.2618 4.15166C84.8335 4.05833 85.4052 3.99999 86.0002 3.99999C86.5952 3.99999 87.1785 4.05833 87.7502 4.16333ZM82.6985 4.53666C81.7068 6.40333 81.0768 8.22333 80.7035 9.83333H76.5968C77.8335 7.34833 80.0268 5.42333 82.6985 4.53666ZM80.4585 18H76.0952C75.7102 16.9033 75.4885 15.725 75.4885 14.5C75.4885 13.275 75.7102 12.0967 76.0952 11H80.4702C80.2135 12.4817 80.1552 13.7067 80.1552 14.5C80.1552 15.7367 80.2718 16.9033 80.4585 18ZM76.5968 19.1667H80.6918C81.1702 21.255 81.9285 23.0167 82.6985 24.4633C80.0268 23.5767 77.8335 21.6517 76.5852 19.1667H76.5968ZM84.2385 24.8367C83.3868 23.4133 82.4652 21.5233 81.8818 19.1667H90.0835C89.6752 20.87 88.9402 22.8417 87.7268 24.8483C87.1552 24.9417 86.5835 25 85.9885 25C85.3935 25 84.8102 24.9417 84.2385 24.8367ZM89.2902 24.4633C90.2818 22.5967 90.9118 20.7767 91.2852 19.1667H95.3918C94.1552 21.6517 91.9618 23.5767 89.2902 24.4633Z" fill="#4E4E4E"/>
<path d="M128.798 7.612V20.338C128.798 21.778 128.36 22.888 127.484 23.668C126.632 24.424 125.48 24.802 124.028 24.802H122.03C120.602 24.802 119.462 24.436 118.61 23.704C117.698 22.924 117.242 21.802 117.242 20.338V16.576L118.016 15.946H118.772V20.302C118.772 21.502 119.084 22.336 119.708 22.804C120.344 23.284 121.448 23.524 123.02 23.524C124.52 23.524 125.576 23.32 126.188 22.912C126.908 22.42 127.268 21.55 127.268 20.302V7.612H128.798ZM135.103 20.5C133.735 20.5 132.685 20.044 131.953 19.132C131.341 18.376 131.035 17.404 131.035 16.216C131.035 14.86 131.443 13.804 132.259 13.048C132.991 12.352 133.957 12.004 135.157 12.004C136.093 12.004 136.873 12.238 137.497 12.706C138.253 13.294 138.631 14.152 138.631 15.28V19.222H139.207V20.5H138.631C138.583 21.76 138.205 22.75 137.497 23.47C136.957 24.022 136.255 24.4 135.391 24.604C134.899 24.724 134.383 24.784 133.843 24.784C133.555 24.784 133.279 24.778 133.015 24.766L132.421 24.028V23.452C132.781 23.5 133.159 23.524 133.555 23.524C135.847 23.524 137.023 22.516 137.083 20.5H135.103ZM137.083 15.28C137.083 14.668 136.903 14.182 136.543 13.822C136.195 13.474 135.733 13.3 135.157 13.3C134.353 13.3 133.717 13.57 133.249 14.11C132.793 14.65 132.565 15.4 132.565 16.36C132.565 17.212 132.799 17.902 133.267 18.43C133.735 18.958 134.341 19.222 135.085 19.222H137.083V15.28ZM144.749 8.26C145.001 8.26 145.211 8.35 145.379 8.53C145.547 8.698 145.631 8.902 145.631 9.142C145.631 9.394 145.547 9.61 145.379 9.79C145.211 9.958 145.001 10.042 144.749 10.042C144.509 10.042 144.299 9.958 144.119 9.79C143.951 9.61 143.867 9.394 143.867 9.142C143.867 8.902 143.951 8.698 144.119 8.53C144.299 8.35 144.509 8.26 144.749 8.26ZM141.455 12.526C142.559 12.178 143.591 12.004 144.551 12.004C146.039 12.004 147.173 12.466 147.953 13.39C148.625 14.182 148.961 15.22 148.961 16.504V18.79C148.961 19.198 148.835 19.558 148.583 19.87C148.271 20.29 147.857 20.5 147.341 20.5H139.061V19.222H146.747C147.203 19.222 147.431 18.994 147.431 18.538V16.45C147.431 15.514 147.185 14.776 146.693 14.236C146.153 13.636 145.367 13.336 144.335 13.336C143.711 13.336 142.751 13.468 141.455 13.732V12.526ZM152.481 12.112C152.913 12.04 153.375 12.004 153.867 12.004C155.199 12.004 156.273 12.406 157.089 13.21C157.821 13.954 158.187 14.896 158.187 16.036V18.79C158.187 18.946 158.175 19.09 158.151 19.222H158.655V20.5H158.385L157.881 19.87H157.827C157.731 19.99 157.623 20.098 157.503 20.194C157.215 20.398 156.903 20.5 156.567 20.5H150.663V19.222H155.991C156.435 19.222 156.657 18.994 156.657 18.538V16.252C156.657 15.4 156.399 14.692 155.883 14.128C155.331 13.552 154.479 13.258 153.327 13.246C152.991 13.246 152.709 13.27 152.481 13.318V12.112ZM163.272 7.612V18.79C163.272 19.258 163.116 19.654 162.804 19.978C162.48 20.326 162.09 20.5 161.634 20.5H158.502V19.222H161.058C161.286 19.222 161.46 19.144 161.58 18.988C161.688 18.856 161.742 18.706 161.742 18.538V7.612H163.272ZM167.288 7.612V20.32L166.514 20.95H165.758V7.612H167.288ZM184.626 7.612V19.222H185.544V20.5H184.626C184.59 21.856 184.152 22.912 183.312 23.668C182.46 24.424 181.308 24.802 179.856 24.802H177.858C176.43 24.802 175.29 24.436 174.438 23.704C173.526 22.924 173.07 21.802 173.07 20.338V16.576L173.844 15.946H174.6V20.302C174.6 21.502 174.912 22.336 175.536 22.804C176.172 23.284 177.276 23.524 178.848 23.524C180.348 23.524 181.404 23.32 182.016 22.912C182.736 22.42 183.096 21.55 183.096 20.302V7.612H184.626ZM190.167 12.22V18.79C190.167 18.934 190.149 19.078 190.113 19.222H191.067V20.5H190.365L189.843 19.87H189.789C189.465 20.29 189.045 20.5 188.529 20.5H185.397V19.222H187.953C188.145 19.222 188.301 19.162 188.421 19.042C188.565 18.91 188.637 18.742 188.637 18.538V12.22H190.167ZM187.089 22.372C187.329 22.372 187.533 22.456 187.701 22.624C187.881 22.804 187.971 23.014 187.971 23.254C187.971 23.506 187.881 23.716 187.701 23.884C187.533 24.064 187.329 24.154 187.089 24.154C186.849 24.154 186.639 24.064 186.459 23.884C186.291 23.716 186.207 23.506 186.207 23.254C186.207 23.014 186.291 22.804 186.459 22.624C186.639 22.456 186.849 22.372 187.089 22.372ZM189.267 22.372C189.519 22.372 189.729 22.456 189.897 22.624C190.077 22.804 190.167 23.014 190.167 23.254C190.167 23.506 190.077 23.716 189.897 23.884C189.729 24.064 189.519 24.154 189.267 24.154C189.027 24.154 188.817 24.064 188.637 23.884C188.469 23.716 188.385 23.506 188.385 23.254C188.385 23.014 188.469 22.804 188.637 22.624C188.817 22.456 189.027 22.372 189.267 22.372ZM193.328 12.526C194.432 12.178 195.464 12.004 196.424 12.004C197.912 12.004 199.046 12.466 199.826 13.39C200.498 14.182 200.834 15.22 200.834 16.504V18.79C200.834 18.934 200.816 19.078 200.78 19.222H201.41V20.5H201.032L200.528 19.87H200.474C200.138 20.29 199.718 20.5 199.214 20.5H190.934V19.222H198.62C199.076 19.222 199.304 18.994 199.304 18.538V16.45C199.304 15.514 199.058 14.776 198.566 14.236C198.026 13.636 197.24 13.336 196.208 13.336C195.584 13.336 194.624 13.468 193.328 13.732V12.526ZM195.47 22.372C195.722 22.372 195.932 22.456 196.1 22.624C196.28 22.804 196.37 23.014 196.37 23.254C196.37 23.506 196.28 23.716 196.1 23.884C195.932 24.064 195.722 24.154 195.47 24.154C195.23 24.154 195.02 24.064 194.84 23.884C194.672 23.716 194.588 23.506 194.588 23.254C194.588 23.014 194.672 22.804 194.84 22.624C195.02 22.456 195.23 22.372 195.47 22.372ZM218.405 12.22V18.79C218.405 18.946 218.387 19.09 218.351 19.222H219.323V20.5H218.603L218.099 19.87H218.045C217.709 20.29 217.289 20.5 216.785 20.5H213.239L212.735 19.87H212.681C212.345 20.29 211.925 20.5 211.421 20.5H207.875L207.371 19.87H207.317C206.981 20.29 206.561 20.5 206.057 20.5H201.287V19.222H205.463C205.919 19.222 206.147 18.994 206.147 18.538V14.29H207.677V18.79C207.677 18.946 207.665 19.09 207.641 19.222H210.827C211.283 19.222 211.511 18.994 211.511 18.538V13.246H213.041V18.79C213.041 18.946 213.023 19.09 212.987 19.222H216.191C216.647 19.222 216.875 18.994 216.875 18.538V12.22H218.405ZM221.036 8.26C221.288 8.26 221.498 8.35 221.666 8.53C221.834 8.698 221.918 8.902 221.918 9.142C221.918 9.394 221.834 9.61 221.666 9.79C221.498 9.958 221.288 10.042 221.036 10.042C220.796 10.042 220.586 9.958 220.406 9.79C220.238 9.61 220.154 9.394 220.154 9.142C220.154 8.902 220.238 8.698 220.406 8.53C220.586 8.35 220.796 8.26 221.036 8.26ZM223.232 8.26C223.472 8.26 223.676 8.35 223.844 8.53C224.024 8.698 224.114 8.902 224.114 9.142C224.114 9.394 224.024 9.61 223.844 9.79C223.676 9.958 223.472 10.042 223.232 10.042C222.98 10.042 222.764 9.958 222.584 9.79C222.416 9.61 222.332 9.394 222.332 9.142C222.332 8.902 222.416 8.698 222.584 8.53C222.764 8.35 222.98 8.26 223.232 8.26ZM223.952 12.22V18.79C223.952 19.234 223.808 19.618 223.52 19.942C223.196 20.314 222.794 20.5 222.314 20.5H219.182V19.222H221.738C221.942 19.222 222.11 19.15 222.242 19.006C222.362 18.886 222.422 18.73 222.422 18.538V12.22H223.952Z" fill="#323232"/>
<path d="M247.5 11C247.5 9.06701 245.933 7.5 244 7.5C242.067 7.5 240.5 9.06701 240.5 11C240.5 12.933 242.067 14.5 244 14.5C245.933 14.5 247.5 12.933 247.5 11Z" stroke="#4E4E4E" stroke-linecap="round" stroke-linejoin="round"/>
<path d="M255.667 14.5C255.667 8.05667 250.443 2.83333 244 2.83333C237.557 2.83333 232.333 8.05667 232.333 14.5C232.333 20.9433 237.557 26.1667 244 26.1667C250.443 26.1667 255.667 20.9433 255.667 14.5Z" stroke="#4E4E4E" stroke-linecap="round" stroke-linejoin="round"/>
<path d="M249.833 20.3333C249.833 17.1117 247.221 14.5 244 14.5C240.778 14.5 238.167 17.1117 238.167 20.3333" stroke="#4E4E4E" stroke-linecap="round" stroke-linejoin="round"/>
</svg>
