<svg width="150" height="27" viewBox="0 0 150 27" fill="none" xmlns="http://www.w3.org/2000/svg">
<path fill-rule="evenodd" clip-rule="evenodd" d="M12.9709 19.7042H9.84526L7.50139 10.7622C7.39014 10.3509 7.15393 9.98726 6.80646 9.81587C5.93933 9.38517 4.9838 9.04239 3.94141 8.86952V8.52525H8.97659C9.67152 8.52525 10.1927 9.04239 10.2796 9.643L11.4957 16.0931L14.6198 8.52525H17.6586L12.9709 19.7042ZM19.3894 19.7042H16.4375L18.8682 8.52527H21.8202L19.3894 19.7042ZM25.6449 11.6222C25.7318 11.0201 26.253 10.6758 26.8611 10.6758C27.8166 10.5894 28.8575 10.7623 29.7261 11.1915L30.2473 8.7846C29.3787 8.44033 28.4231 8.26746 27.556 8.26746C24.6909 8.26746 22.6062 9.81591 22.6062 11.965C22.6062 13.5998 24.0829 14.4583 25.1253 14.9754C26.253 15.4911 26.6873 15.8353 26.6005 16.351C26.6005 17.1245 25.7318 17.4687 24.8647 17.4687C23.8223 17.4687 22.7799 17.2109 21.8259 16.7802L21.3047 19.1886C22.3471 19.6178 23.4748 19.7907 24.5172 19.7907C27.7297 19.8756 29.7261 18.3287 29.7261 16.0067C29.7261 13.0827 25.6449 12.9113 25.6449 11.6222ZM40.0585 19.7042L37.7146 8.52525H35.197C34.6758 8.52525 34.1546 8.86952 33.9809 9.38517L29.6406 19.7042H32.6794L33.286 18.0708H37.0197L37.3671 19.7042H40.0585ZM35.6261 11.536L36.4932 15.7492H34.0625L35.6261 11.536Z" fill="#172B85"/>
<path d="M82.4395 3.04883C88.7769 3.04883 93.915 8.01028 93.915 14.1299C93.9149 20.2494 88.7768 25.21 82.4395 25.21C79.5992 25.2099 77.0018 24.2112 74.998 22.5605C72.9943 24.2111 70.3968 25.21 67.5566 25.21C61.2194 25.2098 56.082 20.2484 56.082 14.1289C56.0823 8.00964 61.2195 3.04901 67.5566 3.04883C70.3966 3.04883 72.9944 4.04698 74.998 5.69727C77.0017 4.0469 79.5995 3.04891 82.4395 3.04883Z" fill="#ED0006"/>
<path d="M82.4434 3.04883C88.7807 3.04883 93.9187 8.00951 93.9189 14.1289C93.9189 20.2485 88.7808 25.21 82.4434 25.21C79.6021 25.2099 77.004 24.2103 75 22.5586C77.4661 20.5262 79.0322 17.505 79.0322 14.1289C79.0321 10.7528 77.4663 7.73149 75 5.69922C77.0039 4.04775 79.6023 3.04891 82.4434 3.04883Z" fill="#F9A000"/>
<path d="M75.0039 5.69971C77.4701 7.73207 79.0361 10.7532 79.0361 14.1294C79.0361 17.5054 77.4699 20.5258 75.0039 22.5581C72.5382 20.5258 70.9727 17.5052 70.9727 14.1294C70.9727 10.7534 72.5379 7.73206 75.0039 5.69971Z" fill="#FF5E00"/>
<g clip-path="url(#clip0_1255_13779)">
<path d="M110.234 14.7256H125.514V19.8212H110.234V14.7256Z" fill="#82BC00"/>
<path d="M110.234 7.78137H125.514V12.8745H110.234V7.78137Z" fill="#00A1DF"/>
<path d="M140.783 18.78L140.716 18.7943C140.554 18.8327 140.388 18.8535 140.221 18.8562C139.823 18.8562 139.351 18.6537 139.351 17.6889C139.351 17.1934 139.437 16.5383 140.176 16.5383C140.361 16.5477 140.544 16.5813 140.721 16.6384L140.778 16.6574L140.783 18.78ZM140.907 13.9751L140.783 13.9965V15.7856L140.678 15.7546H140.647C140.428 15.6842 140.201 15.6441 139.971 15.6355C138.482 15.6355 138.167 16.7623 138.167 17.7056C138.167 18.9991 138.882 19.7424 140.159 19.7424C140.611 19.7538 141.062 19.6902 141.493 19.5542C141.86 19.4375 141.993 19.2683 141.993 18.911V13.7988C141.636 13.8679 141.279 13.9251 140.909 13.9846M145.197 18.8133L145.135 18.83L144.897 18.8896C144.719 18.9415 144.535 18.9711 144.349 18.9777C143.999 18.9777 143.789 18.8038 143.789 18.5013C143.789 18.3107 143.875 17.9915 144.447 17.9915H145.185L145.197 18.8133ZM144.678 15.6045C144.165 15.6194 143.657 15.7126 143.172 15.8808L142.791 15.9976L142.918 16.8552L143.289 16.7337C143.689 16.6055 144.106 16.5357 144.525 16.5264C144.692 16.5264 145.193 16.5264 145.193 17.0672V17.3054H144.497C143.234 17.3054 142.646 17.708 142.646 18.5727C142.646 19.3136 143.184 19.7519 144.094 19.7519C144.434 19.745 144.772 19.6995 145.102 19.6161H145.138L145.25 19.6352C145.605 19.6995 145.964 19.7614 146.329 19.8353V16.9862C146.329 16.069 145.776 15.6045 144.687 15.6045M136.395 18.8133L136.333 18.83L136.095 18.8896C135.917 18.9416 135.734 18.9713 135.549 18.9777C135.199 18.9777 134.99 18.8038 134.99 18.5013C134.99 18.3107 135.075 17.9915 135.647 17.9915H136.386L136.395 18.8133ZM135.876 15.6045C135.36 15.6186 134.849 15.7118 134.361 15.8808L133.98 15.9976L134.108 16.8552L134.477 16.7337C134.878 16.6053 135.295 16.5355 135.716 16.5264C135.878 16.5264 136.378 16.5264 136.378 17.0672V17.3054H135.685C134.423 17.3054 133.832 17.708 133.832 18.5727C133.832 19.3136 134.373 19.7519 135.28 19.7519C135.621 19.7448 135.96 19.6993 136.29 19.6161H136.326L136.438 19.6352C136.793 19.6995 137.153 19.7614 137.517 19.8353V16.9862C137.517 16.0667 136.964 15.6045 135.876 15.6045ZM131.614 15.6045C131.189 15.6098 130.771 15.704 130.385 15.8808L130.34 15.9023L130.301 15.8808C129.97 15.6789 129.583 15.5856 129.196 15.614C128.755 15.6137 128.317 15.6787 127.895 15.807C127.509 15.9261 127.359 16.1095 127.359 16.4573V19.6924H128.57V16.7051L128.627 16.686C128.797 16.6248 128.977 16.5926 129.158 16.5907C129.508 16.5907 129.682 16.7742 129.682 17.1386V19.6924H130.873V17.0862C130.875 17.0001 130.86 16.9145 130.83 16.8337L130.792 16.7551L130.873 16.7194C131.058 16.6368 131.259 16.5946 131.462 16.5955C131.524 16.5882 131.588 16.5936 131.649 16.6111C131.709 16.6287 131.766 16.6582 131.815 16.6979C131.865 16.7376 131.905 16.7867 131.935 16.8423C131.965 16.8979 131.984 16.959 131.99 17.0219C131.995 17.0623 131.995 17.1031 131.99 17.1434V19.6924H133.181V17.0172C133.181 16.0643 132.672 15.614 131.619 15.614M144.323 11.1022C144.083 11.1027 143.844 11.0812 143.608 11.0378H143.542V9.27739C143.543 9.19676 143.531 9.11644 143.508 9.03917L143.47 8.96532L143.546 8.92959C143.566 8.92456 143.585 8.91737 143.604 8.90815H143.618L143.696 8.88195H143.732C143.936 8.83196 144.145 8.80795 144.354 8.81048C145.092 8.81048 145.178 9.46559 145.178 9.96347C145.178 10.9163 144.702 11.1284 144.309 11.1284M144.316 7.78137H144.292C143.599 7.78137 142.884 7.96957 142.625 8.34357C142.479 8.53884 142.403 8.77681 142.408 9.02012V10.8187C142.413 10.8953 142.4 10.9721 142.37 11.0426L142.331 11.1236H140.14V9.87294C140.114 8.5532 139.33 7.82902 138.201 7.82902H137.098L136.969 8.69852H138.067C138.644 8.69852 138.946 9.19163 138.946 9.94441V11.2022L138.868 11.1641C138.784 11.1356 138.696 11.1235 138.608 11.1284H136.702C136.667 11.3666 136.621 11.6786 136.571 11.9931H142.401C142.596 11.9574 142.832 11.9216 143.029 11.8859C143.42 12.0356 143.836 12.11 144.254 12.1051C145.521 12.1051 146.338 11.2594 146.338 9.96108C146.338 8.66279 145.55 7.80996 144.316 7.78137ZM134.094 12.5196H134.146C135.411 12.5196 136 12.1027 136 11.0712C136 10.3303 135.459 9.73954 134.551 9.73954H133.384C133.319 9.74752 133.253 9.74256 133.19 9.72495C133.126 9.70734 133.067 9.67742 133.016 9.63691C132.964 9.5964 132.921 9.5461 132.889 9.4889C132.857 9.4317 132.837 9.36873 132.829 9.3036C132.827 9.27188 132.827 9.24003 132.829 9.20831C132.829 8.97009 132.915 8.69614 133.484 8.69614H136.033C136.085 8.36263 136.116 8.15776 136.164 7.82902H133.515C132.281 7.82902 131.666 8.34357 131.666 9.21069C131.666 10.0778 132.21 10.5066 133.115 10.5066H134.287C134.359 10.5053 134.431 10.5184 134.498 10.5449C134.565 10.5714 134.626 10.6109 134.678 10.6612C134.73 10.7114 134.771 10.7714 134.8 10.8377C134.828 10.9039 134.843 10.9752 134.844 11.0474V11.0712C134.844 11.2641 134.758 11.6596 134.189 11.6596H133.991H130.259H129.568C128.994 11.6596 128.589 11.3308 128.589 10.5781V10.0468C128.589 9.25595 128.901 8.76522 129.568 8.76522H130.685C130.733 8.42933 130.764 8.2197 130.811 7.89572H129.298C128.167 7.89572 127.393 8.65564 127.359 9.97538V10.5662C127.388 11.8859 128.167 12.5148 129.298 12.5148H130.404H132.426L134.094 12.5196Z" fill="black"/>
</g>
<defs>
<clipPath id="clip0_1255_13779">
<rect width="36.1165" height="12.0396" fill="white" transform="translate(110.234 7.78137)"/>
</clipPath>
</defs>
</svg>
