<svg width="81" height="80" viewBox="0 0 81 80" fill="none" xmlns="http://www.w3.org/2000/svg">
<g filter="url(#filter0_d_233_603)">
<rect x="14" y="9" width="53" height="53" rx="26.5" fill="white" shape-rendering="crispEdges"/>
<rect x="14.5521" y="9.55208" width="51.8958" height="51.8958" rx="25.9479" stroke="black" stroke-opacity="0.1" stroke-width="1.10417" shape-rendering="crispEdges"/>
<path d="M41.7893 22.6181L27.6191 29.059" stroke="#61AD29" stroke-width="1.93229" stroke-linecap="round" stroke-linejoin="round"/>
<path d="M40.5 23.9063V48.382H34.059C31.63 48.382 30.4155 48.382 29.6609 47.6273C28.9062 46.8727 28.9062 45.6582 28.9062 43.2292V29.0591" stroke="#61AD29" stroke-width="1.93229" stroke-linecap="round" stroke-linejoin="round"/>
<path d="M40.5 29.059L53.3819 35.5" stroke="#61AD29" stroke-width="1.93229" stroke-linecap="round" stroke-linejoin="round"/>
<path d="M37.9238 48.3815H46.9412C49.3702 48.3815 50.5847 48.3815 51.3393 47.6269C52.094 46.8723 52.094 45.6578 52.094 43.2287V34.8559" stroke="#61AD29" stroke-width="1.93229" stroke-linecap="round" stroke-linejoin="round"/>
<path d="M34.0586 34.2118H35.3468M34.0586 39.3646H35.3468" stroke="#61AD29" stroke-width="1.93229" stroke-linecap="round" stroke-linejoin="round"/>
<path d="M45.6523 38.0764H46.9405" stroke="#61AD29" stroke-width="1.93229" stroke-linecap="round" stroke-linejoin="round"/>
<path d="M46.2969 48.382V43.2292" stroke="#61AD29" stroke-width="1.93229" stroke-linecap="round" stroke-linejoin="round"/>
</g>
<defs>
<filter id="filter0_d_233_603" x="0.75" y="0.166667" width="79.5" height="79.5" filterUnits="userSpaceOnUse" color-interpolation-filters="sRGB">
<feFlood flood-opacity="0" result="BackgroundImageFix"/>
<feColorMatrix in="SourceAlpha" type="matrix" values="0 0 0 0 0 0 0 0 0 0 0 0 0 0 0 0 0 0 127 0" result="hardAlpha"/>
<feOffset dy="4.41667"/>
<feGaussianBlur stdDeviation="6.625"/>
<feComposite in2="hardAlpha" operator="out"/>
<feColorMatrix type="matrix" values="0 0 0 0 0 0 0 0 0 0 0 0 0 0 0 0 0 0 0.12 0"/>
<feBlend mode="normal" in2="BackgroundImageFix" result="effect1_dropShadow_233_603"/>
<feBlend mode="normal" in="SourceGraphic" in2="effect1_dropShadow_233_603" result="shape"/>
</filter>
</defs>
</svg>
