<svg width="40" height="41" viewBox="0 0 40 41" fill="none" xmlns="http://www.w3.org/2000/svg">
<rect x="0.5" y="1" width="39" height="39" rx="19.5" stroke="#7AD03A"/>
<path d="M18.4107 28.4677C15.5894 26.358 10 21.5348 10 17.1944C10 14.3256 12.1053 12 15 12C16.5 12 18 12.5 20 14.5C22 12.5 23.5 12 25 12C27.8947 12 30 14.3256 30 17.1944C30 21.5348 24.4106 26.358 21.5893 28.4677C20.6399 29.1776 19.3601 29.1776 18.4107 28.4677Z" fill="#7AD03A" stroke="#7AD03A" stroke-width="1.5" stroke-linecap="round" stroke-linejoin="round"/>
<rect x="21" y="24" width="14.9464" height="15.6429" rx="7.47321" fill="#CA0202"/>
<path d="M27.1834 29.1754C27.669 28.8603 28.1599 28.7027 28.6559 28.7027C29.1415 28.7027 29.5058 28.8448 29.7486 29.1289C29.9605 29.3769 30.0664 29.7076 30.0664 30.1209C30.0664 30.4464 29.9837 30.7642 29.8184 31.0742C29.6685 31.3377 29.405 31.6942 29.0279 32.1437L27.9351 33.3837L27.6174 33.7712H30.1594V33.9882L29.8881 34.3214H26.9199V33.7634L27.5089 33.0582L28.7024 31.6709C28.94 31.3868 29.108 31.1491 29.2061 30.9579C29.3405 30.6996 29.4076 30.449 29.4076 30.2062C29.4076 29.9375 29.3275 29.7205 29.1674 29.5552C29.0072 29.3898 28.7928 29.3072 28.5241 29.3072C28.209 29.3072 27.8809 29.4286 27.5399 29.6714L27.1834 29.1754Z" fill="white"/>
</svg>
