<svg width="61" height="65" viewBox="0 0 61 65" fill="none" xmlns="http://www.w3.org/2000/svg">
<rect width="61" height="65" rx="30.5" fill="url(#paint0_linear_435_2410)"/>
<path d="M39.6995 58.8375L31.3282 55.4691C30.7968 55.2554 30.2033 55.2554 29.6719 55.4691L21.3016 58.8375C20.9643 58.9731 20.5989 59.0239 20.2374 58.9855C19.8759 58.947 19.5294 58.8205 19.2282 58.617C18.9269 58.4134 18.6802 58.1391 18.5097 57.818C18.3392 57.497 18.25 57.139 18.25 56.7754V25.3709H42.7521V56.7754C42.7522 57.1391 42.663 57.4972 42.4925 57.8184C42.3219 58.1396 42.0751 58.414 41.7737 58.6176C41.4723 58.8211 41.1256 58.9476 40.764 58.986C40.4023 59.0243 40.0368 58.9733 39.6995 58.8375Z" fill="#7EC7E2"/>
<path d="M30.498 6.25C31.7991 6.25 32.9879 6.88403 34.1807 7.67773C35.3501 8.45594 36.5428 9.40468 37.7744 9.91309V9.91406C39.0462 10.444 40.577 10.6347 41.957 10.917C43.3635 11.2047 44.6308 11.5879 45.5117 12.4688C46.3925 13.3497 46.7762 14.6156 47.0654 16.0215C47.3315 17.3152 47.5177 18.7416 47.9766 19.9648L48.0723 20.2061C48.58 21.4366 49.5276 22.6292 50.3047 23.7988C51.0971 24.9916 51.7304 26.1808 51.7305 27.4824C51.7305 28.7834 51.0964 29.9715 50.3027 31.1641C49.5729 32.2607 48.693 33.3782 48.167 34.5283L48.0664 34.7588C47.5368 36.033 47.3459 37.564 47.0635 38.9434C46.7757 40.3491 46.3931 41.6148 45.5117 42.4961C44.6302 43.3776 43.3645 43.7609 41.959 44.0488C40.5796 44.3314 39.0486 44.5216 37.7744 45.0498C36.5428 45.5601 35.3503 46.5102 34.1807 47.2881C32.988 48.0812 31.7992 48.7139 30.498 48.7139C29.1971 48.7138 28.0091 48.0798 26.8164 47.2861C25.6465 46.5077 24.4528 45.5581 23.2207 45.0498H23.2217C21.9473 44.52 20.4166 44.3292 19.0371 44.0469C17.6315 43.7592 16.3662 43.3768 15.4854 42.4961C14.6044 41.6152 14.2202 40.3492 13.9316 38.9434C13.6485 37.5638 13.4567 36.0328 12.9297 34.7588V34.7578C12.4194 33.5273 11.4702 32.3346 10.6924 31.165C9.89927 29.9724 9.26562 28.7836 9.26562 27.4824C9.26568 26.1815 9.89974 24.9934 10.6934 23.8008C11.4717 22.6311 12.4213 21.438 12.9297 20.2061C13.4595 18.9343 13.6502 17.4036 13.9326 16.0234C14.2204 14.6168 14.604 13.3502 15.4854 12.4688C16.3667 11.5874 17.6317 11.2039 19.0371 10.916C20.4163 10.6335 21.9465 10.4412 23.2207 9.91309C24.4528 9.40476 25.6465 8.45621 26.8164 7.67773C28.009 6.88412 29.1971 6.25006 30.498 6.25Z" fill="#E9EBEF" stroke="#7EC7E2" stroke-width="0.5"/>
<path d="M30.5028 41.6963C38.3528 41.6963 44.7165 35.3326 44.7165 27.4826C44.7165 19.6326 38.3528 13.2689 30.5028 13.2689C22.6528 13.2689 16.2891 19.6326 16.2891 27.4826C16.2891 35.3326 22.6528 41.6963 30.5028 41.6963Z" fill="#F6F7F8"/>
<path d="M34.6773 21.4083C32.4217 21.4083 31.2778 22.5014 30.5014 23.6763C29.7251 22.5025 28.5812 21.4083 26.3256 21.4083C23.7564 21.4083 22.1602 23.1111 22.1602 25.8522C22.1602 31.2485 30.0491 35.119 30.3845 35.2804C30.421 35.298 30.4609 35.3072 30.5014 35.3074C30.542 35.3077 30.5821 35.2985 30.6184 35.2804C30.9538 35.119 38.8427 31.2433 38.8427 25.8522C38.8427 23.1111 37.2465 21.4083 34.6773 21.4083Z" fill="#2EA2CC"/>
<defs>
<linearGradient id="paint0_linear_435_2410" x1="30.5" y1="0" x2="30.5" y2="65" gradientUnits="userSpaceOnUse">
<stop stop-color="#D1EBF5"/>
<stop offset="1" stop-color="white"/>
</linearGradient>
</defs>
</svg>
