<svg width="81" height="80" viewBox="0 0 81 80" fill="none" xmlns="http://www.w3.org/2000/svg">
<g filter="url(#filter0_d_237_694)">
<rect x="14" y="9" width="53" height="53" rx="26.5" fill="white" shape-rendering="crispEdges"/>
<rect x="14.5521" y="9.55208" width="51.8958" height="51.8958" rx="25.9479" stroke="black" stroke-opacity="0.1" stroke-width="1.10417" shape-rendering="crispEdges"/>
<path d="M50.8045 48.382V44.5174C50.8045 40.8738 50.8045 39.0521 49.6725 37.9201C48.5406 36.7882 46.7188 36.7882 43.0753 36.7882L40.4989 39.3646L37.9225 36.7882C34.279 36.7882 32.4572 36.7882 31.3253 37.9201C30.1934 39.0521 30.1934 40.8738 30.1934 44.5174V48.382" stroke="#777777" stroke-width="1.93229" stroke-linecap="round" stroke-linejoin="round"/>
<path d="M45.6523 36.7882V43.8733" stroke="#777777" stroke-width="1.93229" stroke-linecap="round" stroke-linejoin="round"/>
<path d="M35.9905 36.7882V41.941M35.9905 41.941C37.4134 41.941 38.5668 43.0944 38.5668 44.5174V45.8056M35.9905 41.941C34.5676 41.941 33.4141 43.0944 33.4141 44.5174V45.8056" stroke="#777777" stroke-width="1.93229" stroke-linecap="round" stroke-linejoin="round"/>
<path d="M45.0076 28.415V27.1268C45.0076 24.6367 42.989 22.6181 40.4989 22.6181C38.0088 22.6181 35.9902 24.6367 35.9902 27.1268V28.415C35.9902 30.9051 38.0088 32.9237 40.4989 32.9237C42.989 32.9237 45.0076 30.9051 45.0076 28.415Z" stroke="#777777" stroke-width="1.93229" stroke-linecap="round" stroke-linejoin="round"/>
<path d="M46.6178 44.8394C46.6178 45.373 46.1853 45.8056 45.6517 45.8056C45.1181 45.8056 44.6855 45.373 44.6855 44.8394C44.6855 44.3059 45.1181 43.8733 45.6517 43.8733C46.1853 43.8733 46.6178 44.3059 46.6178 44.8394Z" stroke="#777777" stroke-width="1.93229"/>
</g>
<defs>
<filter id="filter0_d_237_694" x="0.75" y="0.166667" width="79.5" height="79.5" filterUnits="userSpaceOnUse" color-interpolation-filters="sRGB">
<feFlood flood-opacity="0" result="BackgroundImageFix"/>
<feColorMatrix in="SourceAlpha" type="matrix" values="0 0 0 0 0 0 0 0 0 0 0 0 0 0 0 0 0 0 127 0" result="hardAlpha"/>
<feOffset dy="4.41667"/>
<feGaussianBlur stdDeviation="6.625"/>
<feComposite in2="hardAlpha" operator="out"/>
<feColorMatrix type="matrix" values="0 0 0 0 0 0 0 0 0 0 0 0 0 0 0 0 0 0 0.12 0"/>
<feBlend mode="normal" in2="BackgroundImageFix" result="effect1_dropShadow_237_694"/>
<feBlend mode="normal" in="SourceGraphic" in2="effect1_dropShadow_237_694" result="shape"/>
</filter>
</defs>
</svg>
