<svg width="61" height="65" viewBox="0 0 61 65" fill="none" xmlns="http://www.w3.org/2000/svg">
<rect width="61" height="65" rx="30.5" fill="url(#paint0_linear_458_1340)"/>
<path d="M22.7927 12.2636C22.7924 12.3526 22.7675 12.4398 22.7208 12.5155C22.674 12.5912 22.6072 12.6524 22.5277 12.6925C21.972 12.969 21.4764 13.3528 21.0696 13.8216C20.6627 14.2905 20.3527 14.8352 20.1572 15.4244L19.9018 16.2724C19.8701 16.3688 19.8088 16.4527 19.7266 16.5122C19.6444 16.5717 19.5455 16.6037 19.4441 16.6037C19.3426 16.6037 19.2437 16.5717 19.1615 16.5122C19.0793 16.4527 19.018 16.3688 18.9863 16.2724L18.7069 15.4244C18.5114 14.8352 18.2013 14.2905 17.7945 13.8216C17.3876 13.3528 16.8921 12.969 16.3363 12.6925C16.2574 12.652 16.1912 12.5906 16.1449 12.5149C16.0987 12.4393 16.0742 12.3523 16.0742 12.2636C16.0742 12.175 16.0987 12.088 16.1449 12.0123C16.1912 11.9367 16.2574 11.8753 16.3363 11.8348C16.8921 11.5583 17.3876 11.1745 17.7945 10.7056C18.2013 10.2368 18.5114 9.69209 18.7069 9.10292L18.9863 8.25492C19.018 8.15852 19.0793 8.07459 19.1615 8.01508C19.2437 7.95558 19.3426 7.92355 19.4441 7.92355C19.5455 7.92355 19.6444 7.95558 19.7266 8.01508C19.8088 8.07459 19.8701 8.15852 19.9018 8.25492L20.1813 9.10292C20.3767 9.69209 20.6868 10.2368 21.0937 10.7056C21.5005 11.1745 21.9961 11.5583 22.5518 11.8348C22.6268 11.8781 22.6887 11.9407 22.7311 12.0162C22.7735 12.0916 22.7948 12.1771 22.7927 12.2636ZM54.5927 45.5091C54.5924 45.5981 54.5675 45.6852 54.5208 45.7609C54.474 45.8366 54.4072 45.8979 54.3277 45.9379C53.772 46.2145 53.2764 46.5982 52.8696 47.0671C52.4627 47.536 52.1526 48.0807 51.9572 48.6698L51.7018 49.5178C51.6701 49.6142 51.6088 49.6982 51.5266 49.7577C51.4444 49.8172 51.3455 49.8492 51.2441 49.8492C51.1426 49.8492 51.0437 49.8172 50.9615 49.7577C50.8793 49.6982 50.818 49.6142 50.7863 49.5178L50.5069 48.6698C50.3114 48.0807 50.0013 47.536 49.5945 47.0671C49.1876 46.5982 48.6921 46.2145 48.1363 45.9379C48.0574 45.8975 47.9912 45.8361 47.9449 45.7604C47.8987 45.6847 47.8742 45.5978 47.8742 45.5091C47.8742 45.4204 47.8987 45.3335 47.9449 45.2578C47.9912 45.1821 48.0574 45.1207 48.1363 45.0803C48.6921 44.8037 49.1876 44.4199 49.5945 43.9511C50.0013 43.4822 50.3114 42.9375 50.5069 42.3484L50.7863 41.5004C50.818 41.404 50.8793 41.32 50.9615 41.2605C51.0437 41.201 51.1426 41.169 51.2441 41.169C51.3455 41.169 51.4444 41.201 51.5266 41.2605C51.6088 41.32 51.6701 41.404 51.7018 41.5004L51.9813 42.3484C52.1767 42.9375 52.4868 43.4822 52.8937 43.9511C53.3005 44.4199 53.7961 44.8037 54.3518 45.0803C54.4268 45.1235 54.4887 45.1862 54.5311 45.2616C54.5735 45.3371 54.5948 45.4226 54.5927 45.5091Z" fill="#FFA100"/>
<path d="M8.81655 9.37274C9.61485 9.37274 10.262 8.72558 10.262 7.92728C10.262 7.12898 9.61485 6.48183 8.81655 6.48183C8.01825 6.48183 7.37109 7.12898 7.37109 7.92728C7.37109 8.72558 8.01825 9.37274 8.81655 9.37274Z" fill="#00C99F"/>
<path d="M55.0744 13.2273C55.8727 13.2273 56.5198 12.5801 56.5198 11.7818C56.5198 10.9835 55.8727 10.3364 55.0744 10.3364C54.2761 10.3364 53.6289 10.9835 53.6289 11.7818C53.6289 12.5801 54.2761 13.2273 55.0744 13.2273Z" fill="#FFA100"/>
<path d="M52.1837 58.5182C52.982 58.5182 53.6292 57.871 53.6292 57.0727C53.6292 56.2744 52.982 55.6273 52.1837 55.6273C51.3854 55.6273 50.7383 56.2744 50.7383 57.0727C50.7383 57.871 51.3854 58.5182 52.1837 58.5182Z" fill="#00C99F"/>
<path d="M9.30092 56.1091C10.0992 56.1091 10.7464 55.4619 10.7464 54.6636C10.7464 53.8653 10.0992 53.2182 9.30092 53.2182C8.50262 53.2182 7.85547 53.8653 7.85547 54.6636C7.85547 55.4619 8.50262 56.1091 9.30092 56.1091Z" fill="#FF4D69"/>
<path d="M49.7737 25.3836L44.9989 45.6874C44.8498 46.3228 44.4902 46.8891 43.9784 47.2941C43.4667 47.6992 42.8329 47.9191 42.1802 47.9182H16.5282C16.4076 47.9187 16.2912 47.8739 16.202 47.7927C16.1128 47.7115 16.0573 47.5999 16.0464 47.4797L14.1191 25.3161C14.1131 25.2493 14.1211 25.1819 14.1426 25.1184C14.1641 25.0548 14.1986 24.9964 14.244 24.947C14.2893 24.8976 14.3445 24.8581 14.406 24.8313C14.4675 24.8044 14.5339 24.7906 14.601 24.7909H49.2919C49.3651 24.7905 49.4374 24.8068 49.5033 24.8385C49.5693 24.8703 49.6271 24.9166 49.6725 24.974C49.7193 25.0301 49.7528 25.0962 49.7703 25.1671C49.7878 25.2381 49.789 25.3121 49.7737 25.3836Z" fill="#2EA2CC"/>
<path d="M18.9372 47.3786C18.9454 47.4458 18.9393 47.514 18.9194 47.5788C18.8995 47.6436 18.8661 47.7034 18.8215 47.7544C18.7758 47.8064 18.7195 47.8479 18.6563 47.8762C18.5931 47.9045 18.5246 47.9188 18.4553 47.9182H16.0462C15.5351 47.9182 15.0449 48.1212 14.6835 48.4827C14.322 48.8441 14.119 49.3343 14.119 49.8455C14.118 49.9604 14.1293 50.0751 14.1527 50.1876C13.2941 49.3997 12.4968 48.5477 11.7677 47.6387C12.1477 46.8968 12.7138 46.2661 13.4105 45.8084C14.1073 45.3506 14.9108 45.0815 15.7427 45.0273L12.4904 19.0091H10.5391C11.2336 17.9894 12.0034 17.023 12.8422 16.1182H13.324C13.796 16.1145 14.253 16.2841 14.6082 16.595C14.9634 16.9058 15.1923 17.3362 15.2512 17.8046L18.9372 47.3786ZM44.4735 53.2182C44.4735 53.6016 44.3212 53.9692 44.0502 54.2403C43.7791 54.5114 43.4114 54.6636 43.0281 54.6636H21.0475C19.2708 53.9036 17.5917 52.933 16.0462 51.7727H43.0281C43.2488 51.7733 43.4665 51.8244 43.6644 51.9221C43.8624 52.0198 44.0353 52.1615 44.17 52.3365C44.3658 52.5888 44.4725 52.8988 44.4735 53.2182Z" fill="#8FA2FF"/>
<path d="M25.2007 29.6091C25.2007 29.0769 24.7693 28.6455 24.2371 28.6455C23.7049 28.6455 23.2734 29.0769 23.2734 29.6091V43.1C23.2734 43.6322 23.7049 44.0636 24.2371 44.0636C24.7693 44.0636 25.2007 43.6322 25.2007 43.1V29.6091Z" fill="#1B6079"/>
<path d="M32.9077 29.6091C32.9077 29.0769 32.4763 28.6455 31.9441 28.6455C31.4119 28.6455 30.9805 29.0769 30.9805 29.6091V43.1C30.9805 43.6322 31.4119 44.0636 31.9441 44.0636C32.4763 44.0636 32.9077 43.6322 32.9077 43.1V29.6091Z" fill="#1B6079"/>
<path d="M30.0183 16.1182H41.582C41.8375 16.1182 42.0826 16.2197 42.2634 16.4004C42.4441 16.5811 42.5456 16.8263 42.5456 17.0818V24.7909H29.0547V17.0818C29.0547 16.8263 29.1562 16.5811 29.3369 16.4004C29.5176 16.2197 29.7628 16.1182 30.0183 16.1182Z" fill="#FF4D69"/>
<path d="M40.6187 29.6091C40.6187 29.0769 40.1872 28.6455 39.655 28.6455C39.1228 28.6455 38.6914 29.0769 38.6914 29.6091V43.1C38.6914 43.6322 39.1228 44.0636 39.655 44.0636C40.1872 44.0636 40.6187 43.6322 40.6187 43.1V29.6091Z" fill="#1B6079"/>
<path d="M20.3816 19.9727H30.018C30.2735 19.9727 30.5186 20.0743 30.6994 20.255C30.8801 20.4357 30.9816 20.6808 30.9816 20.9364V24.7909H19.418V20.9364C19.418 20.6808 19.5195 20.4357 19.7002 20.255C19.8809 20.0743 20.126 19.9727 20.3816 19.9727Z" fill="#FFA100"/>
<path d="M40.6187 16.1182H38.6914V24.7909H40.6187V16.1182Z" fill="#00C99F"/>
<path d="M22.7892 19.9727H21.3438V24.7909H22.7892V19.9727Z" fill="#FF4D69"/>
<defs>
<linearGradient id="paint0_linear_458_1340" x1="30.5" y1="0" x2="30.5" y2="65" gradientUnits="userSpaceOnUse">
<stop stop-color="#D1EBF5"/>
<stop offset="1" stop-color="white"/>
</linearGradient>
</defs>
</svg>
