<svg width="585" height="541" viewBox="0 0 585 541" fill="none" xmlns="http://www.w3.org/2000/svg">
<path d="M45.9305 538.821L33.7709 530.83L28.2445 525.563L27.1288 519.864L29.5419 512.244L29.3429 504.781L20.0632 493.339L18.1518 485.495L18.2297 481.067L12.3489 475.67L11.9509 465.041L8.50897 457.967L3 459.022L4.4268 452.294L8.31868 444.657L6.32074 437.064L11.3715 431.442L7.99009 427.161L11.8039 415.832L18.567 402.332L32.1105 403.603L28.8412 330.749L28.7116 323.035L46.5793 322.974L45.0052 286.262H107.118H167.008H228.291L234.474 304.311L231.283 307.641L234.673 326.546L241.661 348.496L247.845 353.001L256.744 359.808L249.419 370.281L238.133 373.299L233.48 378.921L232.572 391.124L227.054 418.072L229.06 425.397L227.166 441.154L221.527 459.204L212.36 468.293L206.09 482.278L204.741 489.75L197.424 494.887L193.308 514.043L193.948 530.492L193.42 516.24L191.206 515.868L191.25 506.761L189.208 500.465L180.906 493.244L178.597 480.046L180.093 466.529L172.759 465.257L171.817 469.348L162.407 470.274L166.359 475.644L167.985 486.645L159.666 496.686L152.185 509.892L144.081 511.777L130.624 501.088L124.769 504.867L123.247 510.203L115.23 513.671L114.798 517.451H99.1094L96.8695 513.671L85.5316 513.049L79.9274 516.179L75.534 514.597L67.2142 503.942L64.3862 498.891L53.1173 501.399L48.9834 509.892L45.204 526.246L39.8766 529.688L35.0942 531.703L45.9305 538.821Z" fill="#081E25" stroke="white" stroke-width="4.3242"/>
<path d="M194.587 89.1184L192.503 94.9128L186.855 92.3529L184.883 104.634L188.818 106.692L185.203 109.209L185.004 114.078L191.88 111.578L192.926 118.748L187.988 148.17L186.103 143.404L175.301 116.534L179.089 110.489L177.965 109.434L181.173 100.828L182.868 86.939L184.572 82.2948L184.987 82.1045L190.003 82.1391L191.032 78.896L195.045 78.6538L196.023 86.1866L194.249 88.9886L194.587 89.1184Z" fill="#081E25" stroke="white" stroke-width="4.3242"/>
<path d="M195.05 78.657L191.037 78.8992L190.008 82.1423L184.992 82.1077L188.815 67.1028L194.877 54.1561L195.076 53.4988L201.882 54.4675L205.074 61.6542L197.688 68.5989L195.05 78.657Z" fill="#081E25" stroke="white" stroke-width="4.3242"/>
<path d="M191.883 111.578L185.008 114.077L185.207 109.208L188.822 106.691L184.887 104.633L186.859 92.3523L192.506 94.9123L193.596 106.19L191.883 111.578Z" fill="#081E25" stroke="white" stroke-width="4.3242"/>
<path d="M192.499 94.9145L194.583 89.12L212.001 96.4105L239.295 76.7874L247.771 99.2127L245.193 101.989L216.014 111.208L232.852 129.629L228.156 132.777L226.236 138.917L214.924 141.469L211.932 148.111L205.887 153.784L188.711 150.852L187.984 148.171L192.923 118.749L191.876 111.58L193.589 106.192L192.499 94.9145Z" fill="#081E25" stroke="white" stroke-width="4.3242"/>
<path d="M451.516 244.97L454.136 244.071L455.26 249.113L466.97 246.215L479.752 246.683L489.11 247.245L498.251 234.782L508.336 222.977L516.69 211.631L520.305 217.927L524.11 232.447L516.283 232.542L516.361 244.503L519.414 247.054L512.841 250.704L513.594 258.211L509.918 265.839L510.299 273.242L507.583 277.133L460.302 267.862L452.562 249.208L451.516 244.97Z" fill="#081E25" stroke="white" stroke-width="4.3242"/>
<path d="M438.713 235.596L436.309 222.2L439.405 212.54L443.366 210.542L448.632 216.31L450.077 227.095L447.854 237.931L443.737 239.237L438.713 235.596Z" fill="#081E25" stroke="white" stroke-width="4.3242"/>
<path d="M247.78 99.2112L239.305 76.7859L270.179 57.6643L273.059 35.4293L269.963 22.0329L277.461 17.4925L283.481 6.03336L289.405 3.17944L306.935 5.57505L312.747 10.2278L319.371 7.12306L332.059 29.0208L342.549 34.5212L345.17 45.2539L338.597 51.6018L337.014 65.9495L349.684 83.4452L369.35 93.5378L378.89 107.531L378.077 120.867H382.902L384.278 130.657L393.791 140.352L384.753 139.444L374.384 137.921L365.312 155.59L336.971 154.129L290.235 117.096L266.443 104.193L247.78 99.2112Z" fill="#081E25" stroke="white" stroke-width="4.3242"/>
<path d="M510.296 273.245L509.916 265.842L513.592 258.214L512.839 250.708L519.412 247.058L516.359 244.507L516.281 232.546L524.108 232.451L532.462 245.034L541.794 251.702L553.314 254.132L562.836 257.462L570.956 268.022L575.791 274.119L581.602 276.454L582 280.562L577.564 291.519L575.652 296.683L569.737 302.563L565.196 315.138L558.07 314.17L555.26 318.554L553.677 327.886L556.695 340.167L555.441 342.407L548.271 342.346L539.13 349.213L538.378 358.164L535.161 362.047L525.457 361.891L519.714 366.518L520.346 373.913L513.219 379.041L504.493 377.303L494.513 383.486L487.395 384.542L481.35 371.707L466.855 341.412L511.853 323.034L518.668 286.261L510.296 273.245ZM520.302 217.93L516.687 211.634L520.329 205.373L522.447 206.964L521.946 214.566L520.302 217.93Z" fill="#081E25" stroke="white" stroke-width="4.3242"/>
<path d="M194.59 89.118L194.252 88.9883L196.025 86.1862L195.048 78.6534L197.686 68.5953L205.071 61.6507L201.88 54.4639L195.074 53.4952L192.168 39.4416L194.97 31.8829L198.473 27.87L202.019 23.8313L201.638 13.6088L206.896 17.1806L222.558 12.0608L230.809 15.5374L242.986 15.4769L259.115 8.58416L267.072 8.89547L283.478 6.03284L277.458 17.492L269.96 22.0324L273.056 35.4288L270.176 57.6638L239.302 76.7854L212.007 96.4085L194.59 89.118Z" fill="#081E25" stroke="white" stroke-width="4.3242"/>
<path d="M229.057 425.397L227.051 418.072L232.568 391.123L233.477 378.92L238.129 373.299L249.416 370.281L256.741 359.807L266.937 381.056L272.135 397.895L281.129 406.837L303.321 424.151L312.497 434.581L321.5 445.158L326.698 451.454L334.62 456.972L330.122 461.443L323.333 459.861L317.712 453.937L310.802 443.204L303.546 437.306L299.248 430.975L285.263 423.624L274.496 423.408L270.543 419.559L261.558 423.875L251.716 415.555L247.427 429.245L229.057 425.397Z" fill="#081E25" stroke="white" stroke-width="4.3242"/>
<path d="M466.855 341.412L481.35 371.707L487.395 384.541L476.455 389.445L473.973 397.609L474.05 403.853L458.959 411.585L434.484 420.147L421.183 433.085L414.359 434.114L409.62 433.024L400.833 440.626L391.026 444.163L377.924 445.097L374.032 446.153L370.823 450.987L366.758 452.319L364.553 456.972L356.796 456.574L351.883 459.047L340.995 458.122L336.446 447.424L336.429 437.4L333.575 432.004L329.847 418.443L324.961 410.902L328.057 410.002L325.981 401.613L327.702 398.076L326.578 390.094L333.038 384.23L331.015 376.498L334.613 367.487L341.306 372.235L345.406 370.591L363.386 370.159L366.309 371.993L381.521 373.852L387.411 372.918L391.735 379.041L398.835 375.962L408.669 356.702L422.575 348.434L466.855 341.412Z" fill="#081E25" stroke="white" stroke-width="4.3242"/>
<path d="M188.709 150.85L205.885 153.782L211.93 148.109L214.922 141.467L226.235 138.915L228.154 132.775L232.851 129.627L216.012 111.206L245.192 101.987L247.769 99.2104L266.432 104.192L290.224 117.095L336.96 154.128L365.301 155.589L379.043 157.371L383.826 166.158L394.489 165.665L402.264 181.561L410.255 185.764L413.55 192.215L424.854 199.982L426.575 207.549L425.753 213.689L428.339 219.89L433.294 225.036L435.975 231.081L438.708 235.596L443.733 239.237L447.85 237.931L451.508 244.971L452.555 249.208L460.295 267.863L507.576 277.134L510.291 273.242L518.663 286.258L511.848 323.031L466.85 341.409L422.57 348.431L408.664 356.699L398.831 375.959L391.73 379.038L387.406 372.915L381.516 373.849L366.304 371.99L363.381 370.156L345.401 370.588L341.301 372.232L334.608 367.484L331.01 376.495L333.034 384.227L326.573 390.091L324.048 382.272L319.067 376.737L317.397 369.412L308.982 362.822L299.746 347.437L294.375 332.458L282.821 319.831L275.703 316.813L264.27 299.3L261.607 286.509L261.503 275.612L251.177 255.219L243.436 248.023L234.857 244.227L228.968 233.667L229.486 229.516L224.496 219.985L219.705 215.869L212.682 202.161L202.149 187.329L193.379 174.668L185.777 174.763L187.36 164.636L187.473 158.21L188.709 150.85Z" fill="#95DA63" stroke="white" stroke-width="4.3242"/>
<path d="M228.289 286.259H167.007H107.117H45.0039L41.6829 218.525L37.9554 153.039L32.5156 138.199L35.655 126.826L32.8096 118.939L37.7047 110.117L57.6825 109.806L72.5662 114.666L87.8825 120.124L95.1041 122.986L106.278 117.131L112.046 111.864L125.2 110.333L136.132 112.669L140.966 121.801L143.985 115.791L156.404 120.15L168.278 121.179L175.3 116.534L186.103 143.405L187.988 148.17L184.364 155.591L182.236 169.497L178.898 179.097L175.586 182.305L170.016 176.355L162.536 168.157L149.615 141.753L148.17 143.405L155.989 162.855L166.791 181.371L180.49 210.049L186.846 220.047L192.563 230.46L207.775 250.827L204.956 254.035L206.271 265.996L225.314 282.489L228.289 286.259Z" fill="#081E25" stroke="white" stroke-width="4.3242"/>
<path d="M371.064 250.404C370.286 251.132 369.247 251.54 368.165 251.54C367.083 251.54 366.044 251.132 365.266 250.404C358.144 243.696 348.6 236.201 353.254 225.321C355.771 219.438 361.812 215.674 368.165 215.674C374.518 215.674 380.559 219.438 383.076 225.321C387.725 236.188 378.204 243.719 371.064 250.404Z" fill="#081E25" stroke="#081E25" stroke-width="2.68993"/>
<path d="M374.436 231.813C374.436 235.28 371.626 238.09 368.159 238.09C364.693 238.09 361.883 235.28 361.883 231.813C361.883 228.347 364.693 225.537 368.159 225.537C371.626 225.537 374.436 228.347 374.436 231.813Z" stroke="#7AD03A" stroke-width="2.68993"/>
<path d="M326.388 264.201C326.784 264.201 327.122 264.34 327.4 264.619C327.679 264.898 327.818 265.235 327.818 265.631C327.818 266.012 327.679 266.342 327.4 266.621C327.122 266.9 326.784 267.039 326.388 267.039C325.992 267.039 325.655 266.9 325.376 266.621C325.098 266.342 324.958 266.012 324.958 265.631C324.958 265.235 325.098 264.898 325.376 264.619C325.655 264.34 325.992 264.201 326.388 264.201ZM329.732 264.201C330.128 264.201 330.466 264.34 330.744 264.619C331.023 264.898 331.162 265.235 331.162 265.631C331.162 266.012 331.023 266.342 330.744 266.621C330.466 266.9 330.128 267.039 329.732 267.039C329.351 267.039 329.021 266.9 328.742 266.621C328.464 266.342 328.324 266.012 328.324 265.631C328.324 265.235 328.464 264.898 328.742 264.619C329.021 264.34 329.351 264.201 329.732 264.201ZM331.162 268.447V276.367C331.162 276.543 331.214 276.675 331.316 276.763C331.404 276.866 331.522 276.917 331.668 276.917H332.284V279.161H330.898C330.224 279.161 329.615 278.89 329.072 278.347C328.236 279.036 327.305 279.381 326.278 279.381C325.12 279.381 324.122 279.014 323.286 278.281C322.172 277.24 321.614 275.846 321.614 274.101C321.614 272.502 322.128 271.175 323.154 270.119C324.093 269.166 325.244 268.689 326.608 268.689C327.371 268.689 328.134 268.85 328.896 269.173L329.842 268.447H331.162ZM328.478 271.285C327.965 271.094 327.474 270.999 327.004 270.999C326.212 270.999 325.56 271.292 325.046 271.879C324.533 272.451 324.276 273.199 324.276 274.123C324.276 275.047 324.504 275.788 324.958 276.345C325.428 276.902 326.051 277.181 326.828 277.181C327.356 277.181 327.906 277.064 328.478 276.829V271.285ZM338.755 269.041V276.741C338.755 277.313 338.565 277.841 338.183 278.325C337.699 278.882 337.098 279.161 336.379 279.161H332.133V276.917H335.521C335.683 276.917 335.822 276.858 335.939 276.741C336.042 276.638 336.093 276.514 336.093 276.367V269.041H338.755ZM333.937 280.767C334.333 280.767 334.671 280.906 334.949 281.185C335.228 281.464 335.367 281.801 335.367 282.197C335.367 282.593 335.228 282.93 334.949 283.209C334.671 283.488 334.333 283.627 333.937 283.627C333.556 283.627 333.226 283.488 332.947 283.209C332.669 282.93 332.529 282.593 332.529 282.197C332.529 281.801 332.669 281.464 332.947 281.185C333.226 280.906 333.556 280.767 333.937 280.767ZM337.303 280.767C337.699 280.767 338.029 280.906 338.293 281.185C338.572 281.464 338.711 281.801 338.711 282.197C338.711 282.593 338.572 282.93 338.293 283.209C338.029 283.488 337.699 283.627 337.303 283.627C336.907 283.627 336.57 283.488 336.291 283.209C336.013 282.93 335.873 282.593 335.873 282.197C335.873 281.801 336.013 281.464 336.291 281.185C336.57 280.906 336.907 280.767 337.303 280.767ZM343.379 268.909C343.877 268.821 344.457 268.777 345.117 268.777C346.803 268.777 348.167 269.32 349.209 270.405C350.133 271.388 350.595 272.605 350.595 274.057V276.741C350.595 277.43 350.345 278.01 349.847 278.479C349.392 278.934 348.849 279.161 348.219 279.161H341.157V276.917H347.361C347.727 276.917 347.911 276.734 347.911 276.367V274.321C347.911 273.309 347.603 272.495 346.987 271.879C346.415 271.307 345.586 270.999 344.501 270.955C344.002 270.955 343.628 270.984 343.379 271.043V268.909ZM358.126 279.161C356.513 279.161 355.244 278.611 354.32 277.511C353.543 276.572 353.154 275.414 353.154 274.035C353.154 272.392 353.616 271.109 354.54 270.185C355.508 269.246 356.747 268.777 358.258 268.777C359.358 268.777 360.311 269.048 361.118 269.591C362.174 270.354 362.702 271.439 362.702 272.847V276.917H363.406V279.161H362.68C362.577 280.745 362.02 281.984 361.008 282.879C360.304 283.51 359.461 283.942 358.478 284.177C357.789 284.338 357.114 284.419 356.454 284.419C356.234 284.419 355.919 284.404 355.508 284.375H355.442L354.32 282.989V282.021C354.921 282.124 355.486 282.175 356.014 282.175C358.419 282.175 359.732 281.17 359.952 279.161H358.126ZM360.018 272.847C360.018 272.26 359.827 271.798 359.446 271.461C359.109 271.168 358.713 271.021 358.258 271.021C357.51 271.021 356.916 271.285 356.476 271.813C356.036 272.341 355.816 273.067 355.816 273.991C355.816 274.886 356.058 275.597 356.542 276.125C357.026 276.653 357.686 276.917 358.522 276.917H360.018V272.847ZM366.301 272.913C366.799 271.476 367.709 270.383 369.029 269.635C370.011 269.078 371.075 268.799 372.219 268.799C373.363 268.799 374.411 269.107 375.365 269.723C376.553 270.442 377.403 271.505 377.917 272.913L377.653 273.529C377.066 273.793 376.45 274.248 375.805 274.893C375.189 275.568 374.785 276.242 374.595 276.917H378.137V279.161H373.297C372.886 279.161 372.512 278.97 372.175 278.589H372.065C371.727 278.97 371.339 279.161 370.899 279.161H363.243V276.917H369.623C369.447 276.316 369.073 275.678 368.501 275.003C367.87 274.299 367.217 273.808 366.543 273.529L366.301 272.913ZM375.101 272.737C374.749 272.121 374.272 271.666 373.671 271.373C373.216 271.153 372.71 271.043 372.153 271.043C371.566 271.043 371.009 271.168 370.481 271.417C369.894 271.71 369.439 272.15 369.117 272.737C369.615 272.957 370.143 273.397 370.701 274.057C371.317 274.746 371.771 275.494 372.065 276.301H372.153C372.431 275.48 372.908 274.695 373.583 273.947C374.125 273.346 374.631 272.942 375.101 272.737ZM401.323 269.041V276.235V276.917H402.445V279.161H401.587L400.861 278.259H400.817C400.318 278.86 399.695 279.161 398.947 279.161H394.239L393.513 278.259H393.447C392.963 278.86 392.347 279.161 391.599 279.161H386.869L386.143 278.259H386.077C385.593 278.86 384.977 279.161 384.229 279.161H377.981V276.917H383.371C383.738 276.917 383.921 276.734 383.921 276.367V271.571H386.605V276.235C386.605 276.543 386.598 276.77 386.583 276.917H390.741C391.108 276.917 391.291 276.734 391.291 276.367V270.295H393.975V276.169C393.975 276.257 393.968 276.389 393.953 276.565C393.953 276.726 393.953 276.844 393.953 276.917H398.089C398.456 276.917 398.639 276.734 398.639 276.367V269.041H401.323ZM408.923 263.409V276.741C408.923 277.357 408.725 277.885 408.329 278.325C407.875 278.882 407.281 279.161 406.547 279.161H402.301V276.917H405.689C405.851 276.917 405.99 276.858 406.107 276.741C406.21 276.638 406.261 276.514 406.261 276.367V263.409H408.923ZM414.647 263.409V278.611L413.283 279.711H411.963V263.409H414.647Z" fill="#081E25"/>
<path d="M284.871 180.219C284.582 180.489 284.196 180.641 283.794 180.641C283.392 180.641 283.005 180.489 282.716 180.219C280.068 177.725 276.52 174.939 278.25 170.894C279.186 168.707 281.432 167.307 283.794 167.307C286.156 167.307 288.401 168.707 289.337 170.894C291.065 174.934 287.526 177.733 284.871 180.219Z" stroke="#081E25"/>
<path d="M286.128 173.307C286.128 174.596 285.083 175.641 283.794 175.641C282.506 175.641 281.461 174.596 281.461 173.307C281.461 172.019 282.506 170.974 283.794 170.974C285.083 170.974 286.128 172.019 286.128 173.307Z" stroke="#081E25"/>
<path d="M244.078 203.424C243.789 203.695 243.403 203.846 243.001 203.846C242.599 203.846 242.212 203.695 241.923 203.424C239.275 200.93 235.727 198.144 237.458 194.099C238.393 191.912 240.639 190.513 243.001 190.513C245.363 190.513 247.608 191.912 248.544 194.099C250.272 198.139 246.733 200.939 244.078 203.424Z" stroke="#081E25"/>
<path d="M245.335 196.513C245.335 197.801 244.29 198.846 243.001 198.846C241.713 198.846 240.668 197.801 240.668 196.513C240.668 195.224 241.713 194.179 243.001 194.179C244.29 194.179 245.335 195.224 245.335 196.513Z" stroke="#081E25"/>
<path d="M284.871 148.424C284.582 148.695 284.196 148.846 283.794 148.846C283.392 148.846 283.005 148.695 282.716 148.424C280.068 145.93 276.52 143.144 278.25 139.099C279.186 136.912 281.432 135.513 283.794 135.513C286.156 135.513 288.401 136.912 289.337 139.099C291.065 143.139 287.526 145.939 284.871 148.424Z" stroke="#081E25"/>
<path d="M286.128 141.513C286.128 142.801 285.083 143.846 283.794 143.846C282.506 143.846 281.461 142.801 281.461 141.513C281.461 140.224 282.506 139.179 283.794 139.179C285.083 139.179 286.128 140.224 286.128 141.513Z" stroke="#081E25"/>
<path d="M275.79 252.522C275.255 253.023 274.54 253.303 273.797 253.303C273.053 253.303 272.338 253.023 271.803 252.522C266.907 247.91 260.345 242.758 263.545 235.278C265.275 231.233 269.429 228.645 273.797 228.645C278.164 228.645 282.318 231.233 284.048 235.278C287.244 242.748 280.698 247.926 275.79 252.522Z" stroke="#081E25" stroke-width="1.84933"/>
<path d="M278.111 239.741C278.111 242.124 276.179 244.056 273.796 244.056C271.412 244.056 269.48 242.124 269.48 239.741C269.48 237.358 271.412 235.426 273.796 235.426C276.179 235.426 278.111 237.358 278.111 239.741Z" stroke="#081E25" stroke-width="1.84933"/>
<path d="M295.934 221.424C295.645 221.695 295.258 221.846 294.856 221.846C294.454 221.846 294.068 221.695 293.778 221.424C291.131 218.93 287.583 216.144 289.313 212.099C290.249 209.912 292.494 208.513 294.856 208.513C297.218 208.513 299.464 209.912 300.399 212.099C302.128 216.139 298.588 218.939 295.934 221.424Z" stroke="#081E25"/>
<path d="M297.19 214.513C297.19 215.801 296.145 216.846 294.857 216.846C293.568 216.846 292.523 215.801 292.523 214.513C292.523 213.224 293.568 212.179 294.857 212.179C296.145 212.179 297.19 213.224 297.19 214.513Z" stroke="#081E25"/>
<path d="M328.078 245.424C327.789 245.695 327.403 245.846 327.001 245.846C326.599 245.846 326.212 245.695 325.923 245.424C323.275 242.93 319.727 240.144 321.458 236.099C322.393 233.912 324.639 232.513 327.001 232.513C329.363 232.513 331.608 233.912 332.544 236.099C334.272 240.139 330.733 242.939 328.078 245.424Z" stroke="#081E25"/>
<path d="M329.335 238.513C329.335 239.801 328.29 240.846 327.001 240.846C325.713 240.846 324.668 239.801 324.668 238.513C324.668 237.224 325.713 236.179 327.001 236.179C328.29 236.179 329.335 237.224 329.335 238.513Z" stroke="#081E25"/>
<path d="M419.078 245.424C418.789 245.695 418.403 245.846 418.001 245.846C417.599 245.846 417.212 245.695 416.923 245.424C414.275 242.93 410.727 240.144 412.458 236.099C413.393 233.912 415.639 232.513 418.001 232.513C420.363 232.513 422.608 233.912 423.544 236.099C425.272 240.139 421.733 242.939 419.078 245.424Z" stroke="#081E25"/>
<path d="M420.335 238.513C420.335 239.801 419.29 240.846 418.001 240.846C416.713 240.846 415.668 239.801 415.668 238.513C415.668 237.224 416.713 236.179 418.001 236.179C419.29 236.179 420.335 237.224 420.335 238.513Z" stroke="#081E25"/>
<path d="M306.79 321.522C306.255 322.023 305.54 322.303 304.797 322.303C304.053 322.303 303.338 322.023 302.803 321.522C297.907 316.91 291.345 311.758 294.545 304.278C296.275 300.233 300.429 297.645 304.797 297.645C309.164 297.645 313.318 300.233 315.048 304.278C318.244 311.748 311.698 316.926 306.79 321.522Z" stroke="#081E25" stroke-width="1.84933"/>
<path d="M309.111 308.741C309.111 311.124 307.179 313.056 304.796 313.056C302.412 313.056 300.48 311.124 300.48 308.741C300.48 306.358 302.412 304.426 304.796 304.426C307.179 304.426 309.111 306.358 309.111 308.741Z" stroke="#081E25" stroke-width="1.84933"/>
<path d="M258.79 139.522C258.255 140.023 257.54 140.303 256.797 140.303C256.053 140.303 255.338 140.023 254.803 139.522C249.907 134.91 243.345 129.758 246.545 122.278C248.275 118.233 252.429 115.645 256.797 115.645C261.164 115.645 265.318 118.233 267.048 122.278C270.244 129.748 263.698 134.926 258.79 139.522Z" stroke="#081E25" stroke-width="1.84933"/>
<path d="M261.111 126.741C261.111 129.124 259.179 131.056 256.796 131.056C254.412 131.056 252.48 129.124 252.48 126.741C252.48 124.358 254.412 122.426 256.796 122.426C259.179 122.426 261.111 124.358 261.111 126.741Z" stroke="#081E25" stroke-width="1.84933"/>
<path d="M402.934 318.219C402.645 318.489 402.258 318.641 401.856 318.641C401.454 318.641 401.068 318.489 400.778 318.219C398.131 315.725 394.583 312.939 396.313 308.894C397.249 306.707 399.494 305.307 401.856 305.307C404.218 305.307 406.464 306.707 407.399 308.894C409.128 312.934 405.588 315.733 402.934 318.219Z" stroke="#081E25"/>
<path d="M404.19 311.307C404.19 312.596 403.145 313.641 401.857 313.641C400.568 313.641 399.523 312.596 399.523 311.307C399.523 310.019 400.568 308.974 401.857 308.974C403.145 308.974 404.19 310.019 404.19 311.307Z" stroke="#081E25"/>
<path d="M337.79 192.522C337.255 193.023 336.54 193.303 335.797 193.303C335.053 193.303 334.338 193.023 333.803 192.522C328.907 187.91 322.345 182.758 325.545 175.278C327.275 171.233 331.429 168.645 335.797 168.645C340.164 168.645 344.318 171.233 346.048 175.278C349.244 182.748 342.698 187.926 337.79 192.522Z" stroke="#081E25" stroke-width="1.84933"/>
<path d="M340.111 179.741C340.111 182.124 338.179 184.056 335.796 184.056C333.412 184.056 331.48 182.124 331.48 179.741C331.48 177.358 333.412 175.426 335.796 175.426C338.179 175.426 340.111 177.358 340.111 179.741Z" stroke="#081E25" stroke-width="1.84933"/>
<path d="M237.934 156.219C237.645 156.489 237.258 156.641 236.856 156.641C236.454 156.641 236.068 156.489 235.778 156.219C233.131 153.725 229.583 150.939 231.313 146.894C232.249 144.707 234.494 143.307 236.856 143.307C239.218 143.307 241.464 144.707 242.399 146.894C244.128 150.933 240.588 153.733 237.934 156.219Z" stroke="#081E25"/>
<path d="M239.19 149.307C239.19 150.596 238.145 151.641 236.857 151.641C235.568 151.641 234.523 150.596 234.523 149.307C234.523 148.019 235.568 146.974 236.857 146.974C238.145 146.974 239.19 148.019 239.19 149.307Z" stroke="#081E25"/>
<path d="M364.098 352.752C363.564 353.253 362.849 353.532 362.105 353.532C361.361 353.532 360.647 353.253 360.112 352.752C355.216 348.14 348.654 342.987 351.854 335.507C353.584 331.463 357.737 328.875 362.105 328.875C366.473 328.875 370.626 331.463 372.356 335.507C375.552 342.978 369.007 348.156 364.098 352.752Z" stroke="#081E25" stroke-width="1.84933"/>
<path d="M366.423 339.971C366.423 342.354 364.491 344.286 362.108 344.286C359.725 344.286 357.793 342.354 357.793 339.971C357.793 337.588 359.725 335.656 362.108 335.656C364.491 335.656 366.423 337.588 366.423 339.971Z" stroke="#081E25" stroke-width="1.84933"/>
<path d="M469.008 312.403C468.474 312.904 467.759 313.184 467.015 313.184C466.271 313.184 465.557 312.904 465.022 312.403C460.126 307.791 453.564 302.639 456.764 295.158C458.494 291.114 462.647 288.526 467.015 288.526C471.383 288.526 475.536 291.114 477.267 295.158C480.462 302.629 473.917 307.807 469.008 312.403Z" stroke="#081E25" stroke-width="1.84933"/>
<path d="M471.329 299.622C471.329 302.005 469.397 303.937 467.014 303.937C464.631 303.937 462.699 302.005 462.699 299.622C462.699 297.239 464.631 295.307 467.014 295.307C469.397 295.307 471.329 297.239 471.329 299.622Z" stroke="#081E25" stroke-width="1.84933"/>
</svg>
