<svg width="364" height="140" viewBox="0 0 364 140" fill="none" xmlns="http://www.w3.org/2000/svg">
<g clip-path="url(#clip0_909_3831)">
<path d="M179 140C217.66 140 249 108.66 249 70.0002C249 31.3403 217.66 0.000244141 179 0.000244141C140.34 0.000244141 109 31.3403 109 70.0002C109 108.66 140.34 140 179 140Z" fill="#61AD29" fill-opacity="0.1"/>
<path d="M242.437 83.0549L208.92 92.0412V65.1919L242.437 56.2078L232.471 75.1494L242.437 83.0549Z" fill="#FF9300"/>
<path d="M207.885 89.823L228.425 98.8072V71.9579L207.885 62.9738V89.823Z" fill="#FF7C00"/>
<path d="M144.705 106.354L123.176 112.127C128.977 119.828 136.307 126.247 144.705 130.983V106.354Z" fill="#FF9300"/>
<path d="M126.602 99.0326V116.283C132.389 122.843 139.355 128.259 147.138 132.252V108.017L126.602 99.0326Z" fill="#FF7C00"/>
<path d="M158.076 71.0215V50.3016C158.076 41.0134 165.597 33.5387 174.937 33.5387C184.278 33.5387 191.796 41.0134 191.796 50.3016V71.0215" stroke="#0E1906" stroke-width="0.410156" stroke-linecap="round" stroke-linejoin="round"/>
<path d="M152.437 57.9272C150.359 57.9272 148.686 59.6028 148.686 61.6831V132.998C158.137 137.576 168.498 139.97 179 140C192.158 139.989 205.047 136.27 216.187 129.268V61.6831C216.187 59.605 214.514 57.9272 212.436 57.9272H152.437Z" fill="#E42C34"/>
<path d="M148.895 57.9272C146.703 57.9272 144.936 59.6028 144.936 61.6831V131.123C155.349 136.935 167.074 139.991 178.999 140C192.157 139.989 205.046 136.27 216.187 129.268V61.6831C216.187 59.605 214.424 57.9272 212.23 57.9272H148.895Z" fill="#E42C34"/>
<path d="M165.564 74.8104C167.635 74.8104 169.313 73.1306 169.313 71.0586C169.313 68.9867 167.635 67.3072 165.564 67.3072C163.493 67.3072 161.814 68.9867 161.814 71.0586C161.814 73.1306 163.493 74.8104 165.564 74.8104Z" fill="#E6E6E6"/>
<path d="M199.31 74.8104C201.381 74.8104 203.059 73.1306 203.059 71.0586C203.059 68.9867 201.381 67.3072 199.31 67.3072C197.239 67.3072 195.561 68.9867 195.561 71.0586C195.561 73.1306 197.239 74.8104 199.31 74.8104Z" fill="#E6E6E6"/>
<path d="M165.578 71.0325V50.3125C165.578 41.0266 173.097 33.5496 182.437 33.5496C191.778 33.5496 199.298 41.0266 199.298 50.3125V71.0325" stroke="#0E1906" stroke-width="0.410156" stroke-linecap="round" stroke-linejoin="round"/>
<path d="M141.189 57.9272C139.111 57.9272 137.438 59.6028 137.438 61.6831V126.221C140.966 128.827 144.732 131.096 148.686 132.998V61.681C148.686 59.6029 150.361 57.9272 152.437 57.9272H141.189Z" fill="#BB2C34"/>
<path d="M141.187 57.9273C140.694 57.9261 140.205 58.0224 139.749 58.2108C139.293 58.3993 138.879 58.6761 138.531 59.0251C138.182 59.3742 137.906 59.7888 137.719 60.2449C137.531 60.7011 137.436 61.1899 137.438 61.6832V61.7204C137.444 62.5279 137.706 63.32 138.2 64.0181C138.693 64.7161 139.4 65.2958 140.251 65.6994C141.105 66.1051 142.075 66.3188 143.062 66.3188C144.048 66.3188 145.018 66.1051 145.873 65.6994C146.724 65.2958 147.431 64.716 147.925 64.0175C148.419 63.319 148.682 62.5262 148.688 61.7181C148.688 61.7065 148.688 61.6948 148.688 61.6832C148.688 59.605 150.359 57.9294 152.437 57.9294L141.187 57.9273Z" fill="#9A2C34"/>
<path d="M216.186 79.3144L137.453 100.373V126.239C137.625 126.369 137.797 126.499 137.969 126.628L216.186 105.573V79.3144Z" fill="#333333" fill-opacity="0.423"/>
<path d="M228.423 71.7303L126.602 99.028V116.283C128.962 118.989 131.528 121.509 134.275 123.821L228.423 98.584V71.7303Z" fill="#FFB400"/>
<path d="M165.387 98.1555C165.389 97.6523 165.494 97.2673 165.697 96.996C165.905 96.7215 166.202 96.5286 166.537 96.4513C166.896 96.355 167.176 96.3812 167.379 96.5453C167.583 96.7072 167.686 97.0399 167.69 97.5386V105.179C167.686 105.683 167.581 106.068 167.379 106.339C167.172 106.615 166.874 106.808 166.537 106.886C166.181 106.98 165.901 106.954 165.697 106.79C165.494 106.628 165.391 106.295 165.387 105.796V98.1555ZM163.164 106.249C163.168 107.387 163.457 108.187 164.033 108.647C164.608 109.106 165.443 109.191 166.537 108.905C167.633 108.612 168.469 108.069 169.044 107.304C169.619 106.536 169.908 105.582 169.913 104.442V97.0836C169.908 95.9461 169.619 95.1475 169.044 94.6881C168.469 94.2287 167.633 94.1414 166.537 94.4302C165.443 94.7233 164.608 95.2634 164.033 96.0313C163.457 96.7969 163.168 97.7528 163.164 98.8925V106.249ZM173.579 94.7255L177.236 93.7455V91.7241L171.356 93.299V107.452L173.579 106.855V101.015L176.449 100.242V98.2209L173.579 98.991V94.7255ZM180.526 92.8638L184.184 91.8838V89.8605L178.304 91.4376V105.591L180.526 104.994V99.1507L183.394 98.3808V96.3594L180.526 97.1295V92.8638ZM187.472 91.0023L191.311 89.9718V87.9507L185.249 89.5761V103.727L191.311 102.102V100.08L187.472 101.109V96.9653L190.523 96.1471V94.126L187.472 94.9442V91.0023ZM199.579 99.8834C199.47 99.6485 199.401 99.3973 199.374 99.1397C199.343 98.8381 199.331 98.5349 199.337 98.2318V96.0489C199.345 95.3051 199.238 94.7036 199.015 94.2486C198.796 93.7936 198.409 93.5222 197.862 93.4325C198.342 93.0849 198.721 92.6162 198.96 92.0742C199.201 91.5317 199.317 90.8973 199.317 90.171V89.0597C199.323 87.9659 199.063 87.2223 198.534 86.822C198.004 86.4238 197.169 86.3801 196.023 86.6863L192.669 87.5854V101.738L194.892 101.141V95.3794L195.659 95.1738C196.163 95.0382 196.53 95.0689 196.766 95.2833C197 95.5021 197.116 95.933 197.114 96.5827V98.8073C197.114 99.3607 197.134 99.7436 197.169 99.9558C197.206 100.168 197.256 100.35 197.315 100.492L199.579 99.8834ZM195.963 88.7251C196.355 88.6201 196.642 88.6572 196.823 88.8431C197.007 89.029 197.097 89.3747 197.094 89.8778V91.2736C197.09 91.8314 196.972 92.2535 196.738 92.5423C196.485 92.8396 196.142 93.0449 195.76 93.1263L194.892 93.3583V89.0116L195.963 88.7251Z" fill="white"/>
<path d="M134.919 124.307L134.396 123.786L134.275 123.821C134.488 123.985 134.702 124.148 134.916 124.309L134.919 124.307Z" fill="#666666"/>
</g>
<g clip-path="url(#clip1_909_3831)">
<path d="M323.901 49.1076C324.097 49.2604 324.346 49.329 324.592 49.2984C324.839 49.2678 325.064 49.1404 325.216 48.9442L326.369 47.4651C326.522 47.269 326.59 47.0202 326.56 46.7734C326.529 46.5267 326.402 46.3022 326.205 46.1494C326.009 45.9966 325.76 45.928 325.514 45.9586C325.267 45.9892 325.042 46.1166 324.89 46.3128L323.737 47.7919C323.584 47.988 323.516 48.2368 323.546 48.4836C323.577 48.7303 323.705 48.9548 323.901 49.1076ZM320.611 49.516C320.807 49.6688 321.056 49.7374 321.303 49.7068C321.55 49.6762 321.774 49.5488 321.927 49.3526C322.08 49.1565 322.149 48.9077 322.118 48.6609C322.087 48.4142 321.96 48.1897 321.764 48.0369L320.285 46.8846C320.088 46.7317 319.84 46.6631 319.593 46.6937C319.346 46.7244 319.122 46.8518 318.969 47.0479C318.816 47.2441 318.747 47.4929 318.778 47.7396C318.809 47.9864 318.936 48.2108 319.132 48.3636L320.611 49.516ZM319.704 52.9687C319.551 53.1648 319.483 53.4136 319.513 53.6604C319.544 53.9071 319.671 54.1316 319.867 54.2844C320.064 54.4372 320.312 54.5058 320.559 54.4752C320.806 54.4446 321.03 54.3172 321.183 54.121L322.335 52.6419C322.488 52.4458 322.557 52.197 322.526 51.9502C322.496 51.7035 322.368 51.479 322.172 51.3262C321.976 51.1734 321.727 51.1048 321.48 51.1354C321.234 51.166 321.009 51.2934 320.856 51.4896L319.704 52.9687ZM325.788 53.5492C325.984 53.702 326.233 53.7707 326.48 53.74C326.727 53.7094 326.951 53.582 327.104 53.3859C327.257 53.1897 327.325 52.9409 327.295 52.6942C327.264 52.4474 327.137 52.223 326.941 52.0701L325.461 50.9178C325.265 50.765 325.016 50.6963 324.77 50.727C324.523 50.7576 324.299 50.885 324.146 51.0812C323.993 51.2773 323.924 51.5261 323.955 51.7729C323.986 52.0196 324.113 52.2441 324.309 52.3969L325.788 53.5492ZM308.843 62.3333C308.647 62.1805 308.398 62.1119 308.151 62.1425C307.904 62.1731 307.68 62.3005 307.527 62.4967L306.375 63.9758C306.222 64.1719 306.153 64.4207 306.184 64.6675C306.215 64.9142 306.342 65.1387 306.538 65.2915C306.734 65.4443 306.983 65.5129 307.23 65.4823C307.476 65.4517 307.701 65.3243 307.854 65.1281L309.006 63.649C309.159 63.4529 309.228 63.2041 309.197 62.9573C309.166 62.7106 309.039 62.4861 308.843 62.3333ZM304.401 64.2208L302.922 63.0685C302.726 62.9157 302.477 62.847 302.23 62.8777C301.984 62.9083 301.759 63.0357 301.606 63.2318C301.453 63.428 301.385 63.6768 301.415 63.9235C301.446 64.1703 301.574 64.3947 301.77 64.5476L303.249 65.6999C303.445 65.8527 303.694 65.9214 303.94 65.8907C304.187 65.8601 304.412 65.7327 304.564 65.5365C304.717 65.3404 304.786 65.0916 304.755 64.8448C304.725 64.5981 304.597 64.3736 304.401 64.2208ZM304.81 67.5101C304.613 67.3573 304.365 67.2887 304.118 67.3193C303.871 67.35 303.647 67.4774 303.494 67.6735L302.341 69.1526C302.189 69.3487 302.12 69.5975 302.151 69.8443C302.181 70.091 302.309 70.3155 302.505 70.4683C302.701 70.6211 302.95 70.6898 303.197 70.6591C303.443 70.6285 303.668 70.5011 303.821 70.3049L304.973 68.8259C305.126 68.6297 305.194 68.3809 305.164 68.1342C305.133 67.8874 305.006 67.6629 304.81 67.5101ZM308.426 69.7332C308.622 69.886 308.871 69.9546 309.117 69.924C309.364 69.8933 309.588 69.7659 309.741 69.5698C309.894 69.3736 309.963 69.1248 309.932 68.8781C309.901 68.6313 309.774 68.4069 309.578 68.2541L308.099 67.1017C307.903 66.9489 307.654 66.8803 307.407 66.9109C307.16 66.9415 306.936 67.0689 306.783 67.2651C306.63 67.4612 306.562 67.71 306.592 67.9568C306.623 68.2035 306.75 68.428 306.946 68.5808L308.426 69.7332Z" fill="#242424"/>
<path d="M346.439 88.0592L341.787 84.4351C343.151 83.0625 344.999 82.2791 346.934 82.253C347.077 82.2538 347.218 82.2218 347.347 82.1595C347.476 82.0972 347.589 82.0062 347.677 81.8934C347.765 81.7816 347.827 81.6511 347.857 81.5119C347.887 81.3728 347.885 81.2286 347.851 81.0902C347.507 79.6908 347.583 78.2211 348.067 76.8639C348.552 75.5068 349.425 74.3221 350.578 73.4571C350.578 73.4571 350.618 73.4054 350.641 73.3758C350.738 73.286 350.815 73.1768 350.866 73.0552C350.918 72.9337 350.943 72.8026 350.941 72.6706C350.939 72.5429 350.911 72.4171 350.858 72.3007C350.806 72.1843 350.731 72.0798 350.636 71.9936C349.533 71.0467 348.726 69.801 348.313 68.4064C347.901 67.0118 347.9 65.5277 348.311 64.1327C348.351 63.9998 348.36 63.8598 348.34 63.7228C348.319 63.5857 348.268 63.4549 348.19 63.34C348.112 63.225 348.01 63.1287 347.891 63.0579C347.772 62.9871 347.638 62.9437 347.5 62.9307C346.041 62.7954 344.651 62.2449 343.495 61.3442C342.339 60.4436 341.466 59.2306 340.978 57.8489C340.931 57.7182 340.857 57.5994 340.759 57.501C340.661 57.4027 340.543 57.3273 340.412 57.2803C340.282 57.2332 340.142 57.2157 340.004 57.2289C339.866 57.2422 339.733 57.2859 339.614 57.3569C338.359 58.0969 336.916 58.4581 335.46 58.3971C334.004 58.3361 332.597 57.8554 331.408 57.013C331.293 56.9325 331.161 56.879 331.022 56.8564C330.883 56.8338 330.741 56.8428 330.606 56.8827C330.471 56.9225 330.347 56.9922 330.243 57.0866C330.138 57.181 330.057 57.2976 330.003 57.4279C329.447 58.7571 328.511 59.8933 327.314 60.6952C326.117 61.4971 324.71 61.9294 323.269 61.9381C323.127 61.9391 322.986 61.9725 322.859 62.0358C322.731 62.0991 322.62 62.1906 322.533 62.3034C322.445 62.4153 322.383 62.5458 322.353 62.6849C322.323 62.8241 322.325 62.9683 322.359 63.1066C322.812 64.9899 322.507 66.9761 321.509 68.6363L317.597 65.5883L320.477 61.8906C320.63 61.6945 320.699 61.4457 320.668 61.1989C320.638 60.9522 320.51 60.7277 320.314 60.5749L317.962 58.7427C318.146 58.1922 318.155 57.5985 317.988 57.0428C317.821 56.4871 317.486 55.9967 317.029 55.6387L311.113 51.0293C310.524 50.5709 309.778 50.365 309.038 50.4569C308.297 50.5488 307.624 50.931 307.166 51.5194C306.707 52.1079 306.501 52.8543 306.593 53.5945C306.685 54.3348 307.067 55.0082 307.656 55.4666L313.572 60.076C314.031 60.4313 314.588 60.6361 315.168 60.6622C315.748 60.6883 316.321 60.5344 316.81 60.2217L318.422 61.4778L302.237 82.2516C301.293 81.7426 300.223 81.5142 299.153 81.5933C298.084 81.6725 297.059 82.0558 296.2 82.6982C295.341 83.3406 294.683 84.2152 294.305 85.2189C293.926 86.2227 293.843 87.3137 294.064 88.3633C294.285 89.4129 294.802 90.3774 295.554 91.143C296.305 91.9086 297.259 92.4433 298.305 92.6843C299.35 92.9252 300.442 92.8622 301.453 92.5028C302.464 92.1434 303.351 91.5024 304.009 90.6556C304.199 90.405 304.369 90.1405 304.519 89.8642L317.224 99.7629C316.993 99.9756 316.778 100.205 316.581 100.451C315.664 101.627 315.253 103.12 315.436 104.601C315.62 106.081 316.385 107.428 317.561 108.345C318.738 109.262 320.231 109.674 321.712 109.49C323.192 109.306 324.539 108.542 325.456 107.365C325.645 107.114 325.816 106.85 325.965 106.573L326.771 107.201C326.968 107.354 327.216 107.423 327.463 107.392C327.71 107.361 327.934 107.234 328.087 107.038C328.24 106.842 328.309 106.593 328.278 106.346C328.247 106.1 328.12 105.875 327.924 105.722L326.585 104.679C326.719 103.703 326.594 102.709 326.223 101.796C325.851 100.883 325.247 100.084 324.469 99.4782C323.692 98.8726 322.769 98.4818 321.793 98.345C320.817 98.2082 319.823 98.3301 318.909 98.6986L305.138 87.9702C305.252 87.1514 305.183 86.3177 304.937 85.5284C304.691 84.7392 304.274 84.0139 303.716 83.404L304.344 82.5979L333.187 105.069C333.383 105.222 333.632 105.29 333.878 105.26C334.125 105.229 334.35 105.102 334.502 104.905L346.602 89.375C346.755 89.1788 346.824 88.93 346.793 88.6833C346.762 88.4365 346.635 88.212 346.439 88.0592ZM314.724 58.5969L308.808 53.9875C308.612 53.8347 308.485 53.6102 308.454 53.3635C308.423 53.1167 308.492 52.8679 308.645 52.6718C308.798 52.4756 309.022 52.3482 309.269 52.3176C309.515 52.287 309.764 52.3556 309.96 52.5084L315.877 57.1178C316.073 57.2706 316.2 57.4951 316.231 57.7419C316.262 57.9886 316.193 58.2374 316.04 58.4336C315.887 58.6297 315.663 58.7571 315.416 58.7877C315.169 58.8184 314.921 58.7497 314.724 58.5969ZM323.323 100.949C323.908 101.405 324.345 102.024 324.578 102.728C324.811 103.432 324.831 104.19 324.633 104.905C324.436 105.62 324.031 106.26 323.47 106.745C322.909 107.23 322.217 107.538 321.481 107.629C320.745 107.72 319.998 107.592 319.335 107.259C318.672 106.926 318.123 106.404 317.757 105.759C317.391 105.114 317.224 104.375 317.278 103.635C317.332 102.895 317.604 102.188 318.06 101.603C318.672 100.818 319.569 100.309 320.556 100.186C321.543 100.064 322.539 100.338 323.323 100.949ZM331.263 59.1219C332.535 59.8204 333.952 60.214 335.402 60.2715C336.853 60.3291 338.297 60.0491 339.62 59.4536C340.259 60.7699 341.191 61.9219 342.345 62.821C343.499 63.7201 344.844 64.3421 346.276 64.6392C346.026 66.0683 346.11 67.5359 346.52 68.9275C346.93 70.3192 347.656 71.5972 348.642 72.6621C347.599 73.6524 346.802 74.8723 346.314 76.2248C345.825 77.5772 345.659 79.025 345.828 80.453C344.41 80.6642 343.057 81.1886 341.867 81.988C340.676 82.7875 339.679 83.842 338.947 85.0749C337.66 84.4221 336.247 84.0546 334.805 83.9974C333.362 83.9401 331.925 84.1945 330.59 84.7433C329.931 83.442 328.992 82.3024 327.842 81.4059C326.691 80.5095 325.357 79.8783 323.934 79.5577C324.161 78.1286 324.067 76.6668 323.658 75.2788C323.248 73.8908 322.535 72.6117 321.568 71.5348C322.564 70.5107 323.33 69.2861 323.815 67.9427C324.3 66.5992 324.493 65.1678 324.382 63.7439C325.81 63.5637 327.176 63.0518 328.37 62.2493C329.565 61.4467 330.556 60.3757 331.263 59.1219ZM321.906 80.0699C321.866 80.2027 321.856 80.3428 321.876 80.48C321.897 80.6173 321.948 80.7482 322.025 80.8635C322.093 80.9328 322.17 80.9929 322.254 81.0421C322.396 81.1521 322.567 81.2191 322.746 81.2349C323.879 81.3613 324.97 81.7368 325.942 82.3344L318.809 91.49L312.892 86.8805L321.783 75.4694C322.311 76.951 322.354 78.5621 321.906 80.0699ZM327.421 83.4868C328.232 84.2959 328.853 85.2752 329.24 86.3538C329.286 86.4845 329.361 86.6032 329.459 86.7016C329.556 86.7999 329.675 86.8753 329.805 86.9224C329.936 86.9694 330.075 86.987 330.213 86.9737C330.351 86.9605 330.484 86.9168 330.603 86.8458C331.956 86.0429 333.529 85.6909 335.094 85.8406L326.204 97.2517L320.288 92.6423L327.421 83.4868ZM302.53 89.5032C302.074 90.0883 301.455 90.5251 300.751 90.7583C300.047 90.9915 299.289 91.0107 298.574 90.8135C297.859 90.6162 297.219 90.2114 296.734 89.6502C296.249 89.089 295.942 88.3966 295.85 87.6606C295.759 86.9246 295.888 86.178 296.221 85.5152C296.554 84.8524 297.076 84.3033 297.721 83.9372C298.366 83.5711 299.105 83.4045 299.845 83.4584C300.584 83.5124 301.291 83.7845 301.876 84.2403C302.661 84.8516 303.171 85.7495 303.293 86.7364C303.416 87.7234 303.141 88.7187 302.53 89.5032ZM316.444 67.0674L320.356 70.1154C320.127 70.3373 319.885 70.5457 319.632 70.7397C319.632 70.7397 319.592 70.7915 319.569 70.8211C319.472 70.9109 319.395 71.0201 319.344 71.1416C319.292 71.2632 319.267 71.3943 319.269 71.5263C319.271 71.6585 319.302 71.7887 319.358 71.9084C319.414 72.028 319.495 72.1344 319.596 72.2205C320.078 72.6384 320.504 73.1179 320.862 73.6465L311.435 85.7455L305.497 81.1188L316.444 67.0674ZM333.6 103.013L327.683 98.4041L337.109 86.3051C337.709 86.5235 338.278 86.8189 338.802 87.1839C338.917 87.2644 339.049 87.3179 339.188 87.3405C339.327 87.363 339.469 87.354 339.604 87.3142C339.739 87.2743 339.863 87.2046 339.967 87.1103C340.072 87.0159 340.153 86.8992 340.206 86.769C340.333 86.476 340.476 86.1906 340.635 85.9142L344.547 88.9621L333.6 103.013Z" fill="#242424"/>
<path d="M329.517 74.3155C329.563 74.4301 329.631 74.5346 329.717 74.623C329.803 74.7114 329.906 74.7819 330.019 74.8305C330.132 74.8791 330.254 74.9048 330.378 74.9062C330.501 74.9076 330.623 74.8846 330.738 74.8386L339.431 71.3077C339.662 71.2134 339.846 71.0313 339.943 70.8013C340.04 70.5713 340.041 70.3123 339.947 70.0813C339.853 69.8503 339.67 69.6662 339.44 69.5695C339.21 69.4727 338.952 69.4713 338.72 69.5656L330.027 73.0966C329.799 73.1912 329.617 73.3726 329.521 73.6009C329.426 73.8293 329.424 74.0862 329.517 74.3155ZM331.404 69.6056C331.843 69.9475 332.373 70.1516 332.928 70.192C333.483 70.2325 334.037 70.1075 334.521 69.833C335.005 69.5584 335.396 69.1465 335.646 68.6495C335.896 68.1524 335.992 67.5924 335.924 67.0404C335.855 66.4884 335.625 65.9691 335.261 65.5482C334.897 65.1273 334.417 64.8237 333.881 64.6758C333.344 64.5278 332.776 64.5422 332.248 64.7172C331.72 64.8921 331.256 65.2197 330.914 65.6585C330.456 66.2469 330.25 66.9933 330.342 67.7335C330.434 68.4738 330.816 69.1472 331.404 69.6056ZM333.709 66.6474C333.855 66.7614 333.964 66.9162 334.023 67.0922C334.081 67.2682 334.086 67.4575 334.036 67.6363C333.987 67.815 333.886 67.9751 333.746 68.0964C333.605 68.2176 333.432 68.2945 333.248 68.3173C333.064 68.3402 332.878 68.308 332.712 68.2247C332.546 68.1415 332.409 68.011 332.317 67.8497C332.226 67.6885 332.184 67.5037 332.198 67.3188C332.211 67.1339 332.279 66.9571 332.393 66.8108C332.546 66.6147 332.77 66.4873 333.017 66.4566C333.264 66.426 333.513 66.4946 333.709 66.6474ZM334.863 75.0813C334.521 75.5201 334.317 76.0504 334.277 76.6052C334.236 77.16 334.361 77.7143 334.636 78.1981C334.91 78.6819 335.322 79.0734 335.819 79.3231C336.316 79.5728 336.876 79.6694 337.428 79.6009C337.98 79.5324 338.499 79.3017 338.92 78.938C339.341 78.5743 339.645 78.094 339.793 77.5578C339.941 77.0215 339.926 76.4535 339.751 75.9254C339.576 75.3974 339.249 74.9331 338.81 74.5912C338.222 74.1328 337.475 73.9269 336.735 74.0188C335.995 74.1107 335.321 74.4929 334.863 75.0813ZM337.658 76.0703C337.804 76.1842 337.913 76.339 337.972 76.515C338.03 76.691 338.035 76.8804 337.985 77.0591C337.936 77.2379 337.835 77.398 337.695 77.5192C337.554 77.6404 337.381 77.7173 337.197 77.7402C337.013 77.763 336.826 77.7308 336.661 77.6476C336.495 77.5643 336.358 77.4339 336.266 77.2726C336.175 77.1113 336.133 76.9266 336.147 76.7416C336.16 76.5567 336.228 76.3799 336.342 76.2337C336.495 76.0375 336.719 75.9101 336.966 75.8795C337.213 75.8488 337.462 75.9175 337.658 76.0703Z" fill="#242424"/>
</g>
<g clip-path="url(#clip2_909_3831)">
<path d="M60.4117 61.7073L46.1615 72.0151L33.0262 59.1505C32.938 59.0598 32.8322 58.9879 32.7154 58.9392C32.5986 58.8904 32.4732 58.8658 32.3466 58.8668C32.2229 58.8679 32.1006 58.8935 31.9868 58.942C31.873 58.9906 31.7699 59.0612 31.6835 59.1498L29.0588 61.8236C28.9688 61.9123 28.8977 62.0182 28.8498 62.1351C28.8018 62.2519 28.7779 62.3773 28.7796 62.5036C28.7812 62.6299 28.8084 62.7546 28.8595 62.8701C28.9105 62.9857 28.9844 63.0897 29.0767 63.176L41.5431 75.3557L36.7423 78.8283L29.0767 63.176C29.0226 63.0646 28.9471 62.965 28.8543 62.8829C28.7616 62.8009 28.6535 62.738 28.5363 62.698C28.4191 62.658 28.2952 62.6415 28.1716 62.6497C28.0481 62.6578 27.9274 62.6903 27.8164 62.7454L24.4554 64.4013C24.2339 64.515 24.0637 64.7084 23.9791 64.9425C23.939 65.0595 23.9223 65.1832 23.9302 65.3066C23.938 65.43 23.9702 65.5506 24.0248 65.6615L32.1239 82.169L17.8736 92.4767C17.6722 92.6225 17.5368 92.8422 17.4974 93.0877C17.458 93.3332 17.5178 93.5843 17.6635 93.7858L20.9602 98.3435C21.1059 98.5449 21.3257 98.6802 21.5712 98.7196C21.8167 98.7591 22.0678 98.6993 22.2693 98.5536L24.6013 96.8668L39.8476 114.857C40.0009 115.037 40.2164 115.152 40.4509 115.18C40.6855 115.208 40.9218 115.146 41.1127 115.007L74.5355 90.8307C74.7273 90.6929 74.8601 90.4878 74.9072 90.2564C74.9543 90.0249 74.9123 89.7843 74.7897 89.5824L62.4754 69.471L64.8074 67.7842C65.0088 67.6384 65.1442 67.4187 65.1836 67.1732C65.223 66.9277 65.1633 66.6766 65.0175 66.4751L61.7208 61.9174C61.5751 61.716 61.3553 61.5807 61.1098 61.5412C60.8643 61.5018 60.6132 61.5616 60.4117 61.7073ZM32.3897 61.1498L47.1276 75.5742L45.7952 76.9313L31.067 62.4884L32.3897 61.1498ZM42.7787 83.7183L55.9656 101.949L49.8356 106.383L35.2434 89.1689L42.7787 83.7183ZM44.2979 82.6194L51.8333 77.1688L63.6149 96.416L57.4848 100.85L44.2979 82.6194ZM42.9002 76.6881L45.1629 78.9045C45.2511 78.9911 45.3556 79.0594 45.4704 79.1055C45.5851 79.1516 45.7078 79.1745 45.8315 79.1729L38.995 84.118C39.0352 84.0011 39.0518 83.8773 39.044 83.7539C39.0361 83.6305 39.0039 83.5099 38.9493 83.399L37.583 80.5343L42.9002 76.6881ZM26.1153 65.6883L27.8214 64.8477L36.8816 83.3557L35.1756 84.1964L26.1153 65.6883ZM19.7321 93.4465L32.9569 83.8805L33.9202 85.8681C33.9743 85.9795 34.0499 86.0791 34.1426 86.1611C34.2354 86.2431 34.3434 86.306 34.4606 86.346C34.5778 86.3861 34.7017 86.4025 34.8253 86.3944C34.9488 86.3862 35.0696 86.3537 35.1805 86.2987L37.7906 85.0123L21.93 96.4849L19.7321 93.4465ZM26.1281 95.7624L33.7242 90.2678L48.3164 107.482L40.7203 112.977L26.1281 95.7624ZM72.7378 89.817L65.1417 95.3116L53.3601 76.0644L60.9562 70.5699L72.7378 89.817ZM62.9489 66.8144L47.0806 78.2925L49.1193 76.2162C49.2076 76.1285 49.2776 76.024 49.3251 75.909C49.3727 75.794 49.3968 75.6706 49.3962 75.5461C49.3955 75.4217 49.3701 75.2986 49.3214 75.184C49.2727 75.0695 49.2016 74.9658 49.1124 74.879L47.5262 73.342L60.751 63.776L62.9489 66.8144ZM50.9495 55.8241C51.151 55.6784 51.2863 55.4586 51.3257 55.2131C51.3651 54.9676 51.3054 54.7165 51.1597 54.5151L50.0607 52.9959C49.915 52.7944 49.6952 52.6591 49.4497 52.6197C49.2042 52.5802 48.9531 52.64 48.7517 52.7857C48.5502 52.9314 48.4149 53.1512 48.3755 53.3967C48.3361 53.6422 48.3958 53.8933 48.5415 54.0948L49.6404 55.614C49.7862 55.8154 50.0059 55.9508 50.2514 55.9902C50.4969 56.0296 50.748 55.9699 50.9495 55.8241Z" fill="#242424"/>
<path d="M47.5964 59.9855C47.7421 60.187 47.9619 60.3223 48.2074 60.3617C48.4529 60.4012 48.704 60.3414 48.9054 60.1957L50.4247 59.0968C50.6261 58.9511 50.7614 58.7313 50.8009 58.4858C50.8403 58.2403 50.7805 57.9892 50.6348 57.7877C50.4891 57.5863 50.2693 57.4509 50.0238 57.4115C49.7783 57.3721 49.5272 57.4319 49.3258 57.5776L47.8065 58.6765C47.6051 58.8222 47.4698 59.042 47.4303 59.2875C47.3909 59.533 47.4507 59.7841 47.5964 59.9855ZM54.7962 61.1414C54.9977 60.9957 55.133 60.7759 55.1724 60.5304C55.2118 60.2849 55.1521 60.0338 55.0064 59.8323L53.9075 58.3131C53.7618 58.1117 53.542 57.9763 53.2965 57.9369C53.051 57.8975 52.7999 57.9572 52.5984 58.103C52.397 58.2487 52.2616 58.4685 52.2222 58.714C52.1828 58.9595 52.2425 59.2106 52.3883 59.412L53.4872 60.9312C53.6329 61.1327 53.8527 61.268 54.0982 61.3074C54.3437 61.3468 54.5948 61.2871 54.7962 61.1414ZM54.643 53.7314L53.1238 54.8303C52.9223 54.976 52.787 55.1958 52.7476 55.4413C52.7082 55.6868 52.7679 55.9379 52.9136 56.1394C53.0594 56.3408 53.2792 56.4761 53.5247 56.5156C53.7702 56.555 54.0213 56.4952 54.2227 56.3495L55.7419 55.2506C55.9434 55.1049 56.0787 54.8851 56.1181 54.6396C56.1575 54.3941 56.0978 54.143 55.9521 53.9415C55.8064 53.7401 55.5866 53.6048 55.3411 53.5654C55.0956 53.5259 54.8445 53.5857 54.643 53.7314ZM38.4089 54.4822C38.6103 54.3365 38.7457 54.1167 38.7851 53.8712C38.8245 53.6257 38.7648 53.3746 38.619 53.1731L37.5201 51.6539C37.3744 51.4525 37.1546 51.3171 36.9091 51.2777C36.6636 51.2383 36.4125 51.298 36.2111 51.4438C36.0096 51.5895 35.8743 51.8093 35.8349 52.0548C35.7954 52.3003 35.8552 52.5514 36.0009 52.7528L37.0998 54.272C37.2455 54.4735 37.4653 54.6088 37.7108 54.6482C37.9563 54.6876 38.2074 54.6279 38.4089 54.4822ZM36.3643 58.8538L37.8835 57.7549C38.0849 57.6091 38.2203 57.3893 38.2597 57.1438C38.2991 56.8984 38.2394 56.6473 38.0936 56.4458C37.9479 56.2443 37.7281 56.109 37.4826 56.0696C37.2371 56.0302 36.986 56.0899 36.7846 56.2356L35.2654 57.3345C35.0639 57.4803 34.9286 57.7001 34.8892 57.9456C34.8498 58.1911 34.9095 58.4421 35.0552 58.6436C35.2009 58.8451 35.4207 58.9804 35.6662 59.0198C35.9117 59.0592 36.1628 58.9995 36.3643 58.8538ZM42.2551 59.7995C42.4565 59.6537 42.5918 59.4339 42.6312 59.1885C42.6707 58.943 42.6109 58.6919 42.4652 58.4904L41.3663 56.9712C41.2206 56.7697 41.0008 56.6344 40.7553 56.595C40.5098 56.5556 40.2587 56.6153 40.0572 56.761C39.8558 56.9067 39.7205 57.1265 39.681 57.372C39.6416 57.6175 39.7014 57.8686 39.8471 58.0701L40.946 59.5893C41.0917 59.7908 41.3115 59.9261 41.557 59.9655C41.8025 60.0049 42.0536 59.9452 42.2551 59.7995ZM41.6815 55.0076L43.2007 53.9087C43.4022 53.763 43.5375 53.5432 43.5769 53.2977C43.6164 53.0522 43.5566 52.8011 43.4109 52.5996C43.2652 52.3981 43.0454 52.2628 42.7999 52.2234C42.5544 52.184 42.3033 52.2437 42.1018 52.3895L40.5826 53.4884C40.3812 53.6341 40.2458 53.8539 40.2064 54.0994C40.167 54.3449 40.2267 54.596 40.3725 54.7974C40.5182 54.9989 40.738 55.1342 40.9835 55.1736C41.229 55.213 41.4801 55.1533 41.6815 55.0076Z" fill="#242424"/>
</g>
<defs>
<clipPath id="clip0_909_3831">
<rect width="140" height="140" fill="white" transform="translate(109)"/>
</clipPath>
<clipPath id="clip1_909_3831">
<rect width="60" height="60" fill="white" transform="translate(316.473 35) rotate(37.922)"/>
</clipPath>
<clipPath id="clip2_909_3831">
<rect width="60" height="60" fill="white" transform="translate(0 74.1651) rotate(-35.8797)"/>
</clipPath>
</defs>
</svg>
