<svg width="40" height="40" viewBox="0 0 40 40" fill="none" xmlns="http://www.w3.org/2000/svg">
<path d="M4.16699 19.9998C4.16699 12.5359 4.16699 8.80399 6.48573 6.48524C8.80448 4.1665 12.5364 4.1665 20.0003 4.1665C27.4642 4.1665 31.1962 4.1665 33.515 6.48524C35.8337 8.80399 35.8337 12.5359 35.8337 19.9998C35.8337 27.4637 35.8337 31.1957 33.515 33.5145C31.1962 35.8332 27.4642 35.8332 20.0003 35.8332C12.5364 35.8332 8.80448 35.8332 6.48573 33.5145C4.16699 31.1957 4.16699 27.4637 4.16699 19.9998Z" stroke="#E9F7DE" stroke-width="2" stroke-linejoin="round"/>
<path d="M27.5 20C27.5 24.1422 24.1422 27.5 20 27.5C15.8579 27.5 12.5 24.1422 12.5 20C12.5 15.8579 15.8579 12.5 20 12.5C24.1422 12.5 27.5 15.8579 27.5 20Z" stroke="#E9F7DE" stroke-width="2.5"/>
<path d="M29.1791 10.8335H29.1641" stroke="#E9F7DE" stroke-width="3.33333" stroke-linecap="round" stroke-linejoin="round"/>
</svg>
