<svg width="442" height="442" viewBox="0 0 442 442" fill="none" xmlns="http://www.w3.org/2000/svg">
<path d="M406.268 343.938C414.034 330.015 419.359 314.865 422.012 299.146C438.463 206.202 405.852 96.1085 312.582 56.8943C280.43 43.3779 243.523 41.3447 210.197 51.7671C172.379 63.648 147.998 93.1206 117.571 116.591C96.0987 133.139 68.9511 141.219 49.2025 160.075C28.349 179.974 15.0271 208.624 14.9299 237.557C14.8857 257.889 23.1069 277.717 39.6819 290.155C55.9033 302.337 76.5447 305.519 94.1363 315.049C113.717 325.657 125.501 344.221 141.174 359.302C177.338 394.167 231.501 404.96 280.156 403.325C327.901 401.716 381.003 388.209 406.268 343.938Z" fill="#7AD03A"/>
<path opacity="0.7" d="M406.268 343.938C414.034 330.015 419.359 314.865 422.012 299.146C438.463 206.202 405.852 96.1085 312.582 56.8943C280.43 43.3779 243.523 41.3447 210.197 51.7671C172.379 63.648 147.998 93.1206 117.571 116.591C96.0987 133.139 68.9511 141.219 49.2025 160.075C28.349 179.974 15.0271 208.624 14.9299 237.557C14.8857 257.889 23.1069 277.717 39.6819 290.155C55.9033 302.337 76.5447 305.519 94.1363 315.049C113.717 325.657 125.501 344.221 141.174 359.302C177.338 394.167 231.501 404.96 280.156 403.325C327.901 401.716 381.003 388.209 406.268 343.938Z" fill="white"/>
<path d="M343.187 332.384C345.592 333.436 351.47 333.268 351.479 333.268C351.488 333.268 350.215 329.414 350.1 329.184C348.809 326.488 344.734 322.023 341.41 322.474C340.861 322.565 340.337 322.769 339.873 323.075C339.408 323.381 339.013 323.781 338.713 324.25C338.413 324.718 338.215 325.245 338.131 325.795C338.047 326.345 338.08 326.906 338.228 327.442C338.776 329.812 341.136 331.5 343.187 332.384Z" fill="#7AD03A"/>
<path d="M345.218 349.445C347.711 349.817 352.962 348.287 353.378 348.172C354.243 351.186 355.306 354.139 356.56 357.012C357.285 358.683 358.063 360.345 358.867 361.998L357.886 360.592C355.924 358.329 350.814 355.112 347.729 356.42C347.222 356.65 346.769 356.985 346.4 357.402C346.03 357.819 345.753 358.309 345.586 358.84C345.42 359.372 345.367 359.932 345.431 360.486C345.496 361.039 345.676 361.572 345.961 362.051C347.101 364.128 349.824 365.154 352.043 365.472C354.262 365.79 358.788 364.588 359.999 364.261C360.317 364.889 360.618 365.525 360.936 366.153C362.456 369.185 363.986 372.199 365.4 375.196C365.895 376.257 366.346 377.318 366.797 378.379C366.373 377.751 366.01 377.229 365.913 377.159C363.95 374.896 358.841 371.669 355.756 372.986C355.249 373.217 354.797 373.552 354.429 373.97C354.061 374.387 353.784 374.877 353.617 375.408C353.451 375.939 353.397 376.499 353.461 377.052C353.525 377.605 353.704 378.138 353.988 378.617C355.128 380.686 357.86 381.711 360.07 382.038C362.28 382.365 366.373 381.269 367.787 380.88C368.22 381.976 368.671 383.081 369.025 384.16C369.263 384.911 369.546 385.61 369.741 386.37C369.935 387.13 370.156 387.864 370.359 388.598C370.704 390.03 371.067 391.506 371.367 392.912C371.579 393.884 371.774 394.821 371.959 395.758C371.482 394.706 370.492 392.655 370.386 392.487C368.795 389.959 364.198 385.999 360.98 386.821C360.445 386.974 359.948 387.237 359.521 387.595C359.094 387.952 358.748 388.395 358.503 388.896C358.259 389.396 358.123 389.942 358.103 390.498C358.084 391.054 358.181 391.609 358.39 392.125C359.203 394.352 361.749 395.776 363.88 396.43C366.24 397.146 371.447 396.492 372.101 396.43C372.41 397.986 372.702 399.506 372.985 400.938C373.542 404.112 373.966 406.949 374.284 409.354H376.477C376.097 406.87 375.593 403.9 374.939 400.576C374.62 398.993 374.258 397.314 373.869 395.581C375.441 394.956 376.973 394.236 378.457 393.424C380.172 395.289 384.565 397.464 385.131 397.738C384.53 399.206 383.938 400.629 383.363 401.964C382.143 404.766 380.994 407.268 379.977 409.354H382.346C383.23 407.409 384.185 405.19 385.193 402.742C385.803 401.248 386.431 399.639 387.058 397.986C387.686 398.118 392.848 399.17 395.253 398.622C397.427 398.136 400.071 396.898 401.043 394.741C401.289 394.243 401.428 393.698 401.45 393.142C401.472 392.586 401.377 392.032 401.172 391.515C400.966 390.998 400.653 390.53 400.255 390.142C399.857 389.754 399.381 389.453 398.86 389.261C395.686 388.2 390.833 391.807 389.056 394.211C388.95 394.352 387.986 396.023 387.394 397.084C387.65 396.403 387.898 395.749 388.154 395.051C388.658 393.672 389.127 392.275 389.631 390.781L390.294 388.562C390.532 387.829 390.691 387.015 390.895 386.237C391.319 384.425 391.673 382.569 391.982 380.686C393.193 381.128 397.516 382.631 399.752 382.454C401.989 382.277 404.782 381.481 406.073 379.501C406.393 379.045 406.613 378.526 406.719 377.979C406.826 377.432 406.815 376.869 406.689 376.326C406.563 375.783 406.325 375.273 405.988 374.828C405.652 374.384 405.226 374.015 404.738 373.746C401.759 372.208 396.42 375.046 394.298 377.159C394.174 377.282 392.822 378.927 392.097 379.908C392.274 378.776 392.451 377.654 392.601 376.504C393.007 373.181 393.326 369.804 393.653 366.436C393.75 365.401 393.865 364.376 393.971 363.351C394.404 363.51 399.505 365.41 402.007 365.233C404.243 365.074 407.037 364.261 408.327 362.272C408.647 361.816 408.867 361.299 408.973 360.752C409.079 360.206 409.069 359.643 408.943 359.101C408.817 358.559 408.578 358.049 408.242 357.606C407.906 357.162 407.48 356.794 406.992 356.526C404.013 354.988 398.674 357.826 396.552 359.929C396.393 360.089 394.457 362.52 393.989 363.165C394.227 360.902 394.493 358.648 394.873 356.438C395.322 353.452 395.966 350.499 396.8 347.598C397.003 347.668 402.316 349.675 404.888 349.498C407.116 349.339 409.91 348.517 411.2 346.537C411.52 346.082 411.741 345.564 411.848 345.018C411.954 344.472 411.945 343.91 411.82 343.368C411.695 342.826 411.457 342.316 411.122 341.872C410.786 341.428 410.361 341.06 409.874 340.791C406.895 339.253 401.556 342.082 399.434 344.194C399.266 344.362 397.18 346.97 396.835 347.474C396.835 347.306 396.915 347.129 396.968 346.961C397.894 344.068 399.078 341.263 400.504 338.581C401.264 337.096 402.077 335.708 402.891 334.382C403.845 334.859 408.195 336.981 410.546 337.078C412.898 337.175 415.647 336.654 417.15 334.833C417.517 334.415 417.792 333.924 417.958 333.393C418.123 332.862 418.175 332.301 418.11 331.749C418.045 331.196 417.865 330.663 417.58 330.185C417.296 329.706 416.914 329.293 416.46 328.972C413.667 327.115 408.053 329.343 405.711 331.208C405.578 331.306 404.402 332.481 403.554 333.348C403.934 332.755 404.314 332.137 404.694 331.58C406.091 329.467 407.505 327.619 408.769 325.993C409.494 325.109 410.175 324.225 410.811 323.5C411.987 323.5 416.734 323.332 418.767 322.359C420.8 321.387 423.108 319.637 423.594 317.33C423.727 316.789 423.744 316.226 423.646 315.678C423.548 315.13 423.335 314.609 423.023 314.148C422.711 313.688 422.305 313.298 421.832 313.003C421.359 312.709 420.83 312.518 420.279 312.441C416.946 312.087 412.986 316.649 411.775 319.389C411.669 319.619 410.449 323.509 410.511 323.509H410.581C409.945 324.225 409.282 325.003 408.566 325.869C407.266 327.469 405.808 329.29 404.349 331.376C402.76 333.609 401.302 335.932 399.982 338.333C398.49 341.018 397.241 343.832 396.252 346.74C396.256 346.775 396.256 346.811 396.252 346.846C396.252 345.865 396.252 343.116 396.199 342.904C395.819 339.942 393.335 334.435 390.011 333.825C389.46 333.739 388.898 333.769 388.36 333.915C387.822 334.06 387.321 334.317 386.889 334.669C386.457 335.021 386.104 335.46 385.853 335.957C385.602 336.454 385.458 336.999 385.432 337.555C385.246 339.907 386.952 342.267 388.614 343.743C390.497 345.423 395.686 347.05 396.128 347.173C395.193 350.156 394.458 353.198 393.927 356.279C393.609 358.047 393.343 359.885 393.096 361.706C393.096 360.822 393.096 360.097 393.052 359.991C392.672 357.03 390.179 351.523 386.864 350.913C386.314 350.826 385.752 350.857 385.214 351.002C384.677 351.148 384.177 351.405 383.745 351.757C383.314 352.109 382.962 352.548 382.712 353.045C382.461 353.543 382.319 354.087 382.293 354.643C382.099 356.995 383.814 359.355 385.476 360.831C387.138 362.307 391.593 363.819 392.76 364.19C392.68 364.889 392.583 365.587 392.504 366.294C392.097 369.653 391.708 373.013 391.231 376.292C391.063 377.45 390.859 378.582 390.647 379.713C390.647 378.962 390.647 378.326 390.647 378.228C390.258 375.267 387.774 369.76 384.459 369.15C383.909 369.063 383.347 369.094 382.81 369.239C382.273 369.385 381.772 369.642 381.341 369.994C380.91 370.346 380.557 370.785 380.307 371.282C380.057 371.78 379.914 372.324 379.889 372.88C379.694 375.232 381.401 377.592 383.071 379.068C384.742 380.544 388.755 381.906 390.143 382.357C389.905 383.515 389.657 384.673 389.374 385.778C389.153 386.529 389.003 387.272 388.747 388.014C388.49 388.757 388.269 389.49 388.031 390.215C387.527 391.603 387.023 393.035 386.492 394.37C386.139 395.298 385.776 396.182 385.423 397.075C385.6 395.926 385.909 393.663 385.909 393.477C385.878 390.843 385.169 388.261 383.849 385.981C383.859 385.685 383.841 385.389 383.796 385.097C383.726 384.545 383.54 384.014 383.251 383.538C382.962 383.062 382.576 382.653 382.118 382.336C381.66 382.019 381.141 381.802 380.594 381.699C380.047 381.596 379.485 381.609 378.943 381.738C375.708 382.622 373.639 388.279 373.498 391.267C373.498 391.444 373.604 393.371 373.701 394.582C373.533 393.875 373.383 393.194 373.206 392.47C372.87 391.037 372.49 389.614 372.083 388.05C371.862 387.325 371.641 386.582 371.411 385.84C371.182 385.097 370.89 384.337 370.633 383.576C369.988 381.808 369.254 380.04 368.476 378.334C369.732 378.034 374.169 376.911 375.946 375.541C377.723 374.171 379.597 371.952 379.58 369.592C379.596 369.035 379.495 368.481 379.283 367.966C379.071 367.45 378.753 366.986 378.349 366.602C377.945 366.218 377.465 365.924 376.94 365.738C376.415 365.553 375.856 365.48 375.301 365.525C371.968 365.888 369.113 371.2 368.476 374.127C368.476 374.312 368.238 376.46 368.149 377.663C367.672 376.619 367.204 375.576 366.691 374.542C365.206 371.545 363.606 368.548 362.014 365.561C361.528 364.677 361.06 363.731 360.582 362.811C361.033 362.714 366.328 361.485 368.326 359.947C370.094 358.595 371.977 356.367 371.959 353.998C371.975 353.442 371.873 352.889 371.661 352.375C371.448 351.86 371.129 351.397 370.726 351.014C370.322 350.631 369.842 350.338 369.318 350.153C368.793 349.968 368.235 349.895 367.681 349.94C364.348 350.303 361.493 355.607 360.856 358.542C360.803 358.763 360.529 361.857 360.494 362.643C359.442 360.628 358.417 358.603 357.488 356.57C356.217 353.827 355.125 351.004 354.218 348.119C354.43 348.075 359.964 346.82 362.006 345.246C363.774 343.885 365.665 341.666 365.648 339.297C365.663 338.74 365.561 338.186 365.348 337.671C365.135 337.157 364.816 336.693 364.411 336.31C364.006 335.927 363.526 335.633 363 335.449C362.474 335.265 361.915 335.193 361.36 335.239C358.028 335.602 355.172 340.906 354.536 343.832C354.483 344.071 354.191 347.368 354.173 348.004C354.173 347.836 354.05 347.668 354.005 347.5C353.159 344.582 352.573 341.594 352.255 338.572C352.069 336.91 351.981 335.31 351.937 333.754C352.989 333.622 357.807 332.976 359.804 331.774C361.802 330.572 363.827 328.609 364.074 326.258C364.151 325.706 364.112 325.144 363.957 324.609C363.802 324.074 363.537 323.577 363.177 323.152C362.817 322.726 362.372 322.382 361.87 322.14C361.368 321.898 360.821 321.765 360.264 321.75C356.914 321.75 353.457 326.7 352.529 329.546C352.476 329.706 352.14 331.314 351.919 332.525C351.919 331.818 351.919 331.093 351.919 330.413C351.919 327.884 352.087 325.56 352.246 323.509C352.343 322.342 352.458 321.29 352.573 320.309C353.546 319.637 357.418 316.905 358.611 314.943C359.804 312.98 360.671 310.284 359.787 308.109C359.6 307.584 359.305 307.105 358.921 306.701C358.536 306.298 358.071 305.98 357.556 305.768C357.041 305.557 356.487 305.456 355.93 305.472C355.373 305.489 354.826 305.622 354.324 305.864C351.345 307.402 350.567 313.396 351.062 316.348C351.062 316.605 352.229 320.521 352.273 320.485L352.335 320.441C352.202 321.387 352.078 322.404 351.955 323.518C351.751 325.568 351.539 327.893 351.477 330.439C351.386 333.178 351.454 335.92 351.68 338.652C351.917 341.714 352.426 344.749 353.201 347.721C353.197 347.757 353.197 347.792 353.201 347.828C352.671 346.997 351.115 344.734 350.982 344.566C349.02 342.311 343.91 339.085 340.825 340.393C340.318 340.625 339.866 340.961 339.498 341.379C339.129 341.797 338.853 342.288 338.686 342.82C338.519 343.351 338.466 343.912 338.53 344.466C338.594 345.019 338.774 345.553 339.057 346.033C340.277 348.102 342.991 349.127 345.218 349.445Z" fill="#7AD03A"/>
<path d="M402.677 333.71C402.73 333.71 403.746 329.794 403.782 329.538C404.197 326.576 403.251 320.609 400.246 319.151C399.738 318.922 399.188 318.803 398.631 318.801C398.074 318.799 397.522 318.915 397.013 319.14C396.504 319.365 396.047 319.695 395.674 320.108C395.3 320.521 395.018 321.008 394.845 321.537C394.04 323.765 395.066 326.488 396.277 328.371C397.691 330.616 402.677 333.701 402.677 333.71Z" fill="#7AD03A"/>
<path d="M25.1363 332.384C27.5407 333.436 33.4282 333.268 33.4282 333.268C33.4282 333.268 32.1641 329.414 32.058 329.184C30.7673 326.488 26.6833 322.023 23.3594 322.474C22.8105 322.565 22.2867 322.769 21.822 323.075C21.3573 323.381 20.9621 323.781 20.6621 324.25C20.362 324.718 20.1638 325.245 20.0802 325.795C19.9966 326.345 20.0296 326.906 20.177 327.442C20.7339 329.812 23.0942 331.5 25.1363 332.384Z" fill="#7AD03A"/>
<path d="M27.1675 349.445C29.6603 349.816 34.9113 348.287 35.3268 348.172C36.192 351.186 37.2551 354.139 38.5092 357.012C39.2341 358.683 40.012 360.345 40.8164 361.998C40.3391 361.3 39.9324 360.681 39.8352 360.592C37.8727 358.329 32.7632 355.112 29.678 356.42C29.1717 356.651 28.7197 356.986 28.3513 357.403C27.9828 357.821 27.7063 358.311 27.5396 358.842C27.3728 359.373 27.3197 359.933 27.3835 360.486C27.4473 361.039 27.6267 361.572 27.91 362.051C29.0504 364.128 31.7819 365.154 33.9919 365.472C36.2019 365.79 40.7369 364.588 41.9479 364.261C42.2662 364.889 42.5667 365.525 42.885 366.153C44.4055 369.185 45.9348 372.199 47.305 375.196C47.8 376.257 48.2509 377.318 48.7105 378.379C48.2774 377.751 47.9149 377.229 47.8265 377.159C45.8729 374.896 40.7545 371.669 37.6694 372.986C37.1631 373.217 36.711 373.552 36.3426 373.97C35.9742 374.387 35.6977 374.877 35.5309 375.408C35.3642 375.939 35.311 376.499 35.3748 377.052C35.4387 377.605 35.6181 378.138 35.9014 378.617C37.0417 380.686 39.7733 381.711 41.9833 382.038C44.1933 382.365 48.2951 381.269 49.7006 380.88C50.1338 381.976 50.5846 383.081 50.9471 384.16C51.1769 384.911 51.4598 385.61 51.6543 386.37C51.8487 387.13 52.0697 387.864 52.2731 388.598C52.6178 390.03 52.9803 391.506 53.2808 392.911C53.5018 393.884 53.6875 394.821 53.8819 395.758C53.3957 394.706 52.4057 392.655 52.3084 392.487C50.7084 389.959 46.1204 385.999 42.9027 386.821C42.3674 386.974 41.8703 387.237 41.4436 387.595C41.0169 387.952 40.6701 388.395 40.4259 388.896C40.1816 389.396 40.0453 389.942 40.0258 390.498C40.0062 391.054 40.1039 391.609 40.3125 392.125C41.117 394.352 43.6629 395.776 45.8022 396.43C48.1536 397.146 53.3604 396.492 54.0145 396.43C54.3239 397.986 54.6157 399.506 54.8985 400.938C55.4555 404.112 55.8798 406.949 56.198 409.354H58.3992C58.0102 406.87 57.5152 403.9 56.8522 400.576C56.5428 398.993 56.1803 397.314 55.7825 395.581C57.3651 394.944 58.9063 394.209 60.397 393.38C62.112 395.245 66.5055 397.42 67.0712 397.694C66.4789 399.161 65.8778 400.585 65.3032 401.919C64.0921 404.722 62.9341 407.223 61.9175 409.31H64.2955C65.1795 407.365 66.1342 405.146 67.1331 402.697C67.7519 401.203 68.3707 399.595 68.9983 397.941C69.6348 398.074 74.7885 399.126 77.193 398.578C79.3677 398.092 82.0108 396.854 82.9921 394.697C83.2382 394.198 83.3765 393.652 83.3981 393.096C83.4196 392.54 83.3239 391.985 83.1171 391.468C82.9104 390.951 82.5972 390.484 82.198 390.096C81.7987 389.708 81.3223 389.408 80.7997 389.216C77.6262 388.156 72.773 391.762 70.9962 394.167C70.8901 394.308 69.9265 395.979 69.3343 397.04C69.5906 396.359 69.847 395.705 70.0945 395.007C70.5984 393.628 71.0669 392.231 71.5708 390.737L72.2338 388.518C72.4725 387.784 72.6316 386.971 72.8349 386.193C73.2681 384.381 73.6128 382.524 73.9222 380.642C75.1333 381.084 79.4561 382.586 81.7014 382.41C83.9468 382.233 86.7225 381.437 88.0132 379.457C88.332 379.001 88.5516 378.483 88.6577 377.936C88.7638 377.39 88.7541 376.827 88.6291 376.285C88.5041 375.743 88.2667 375.232 87.9322 374.787C87.5977 374.343 87.1735 373.973 86.6872 373.702C83.7081 372.164 78.3687 375.002 76.2471 377.114C76.1145 377.238 74.762 378.882 74.0371 379.864C74.2139 378.732 74.3996 377.609 74.541 376.46C74.9565 373.136 75.2659 369.76 75.593 366.391C75.6902 365.357 75.8051 364.332 75.9112 363.306C76.3444 363.465 81.4451 365.366 83.9556 365.189C86.1833 365.03 88.9767 364.217 90.2674 362.228C90.5871 361.772 90.8072 361.254 90.9133 360.708C91.0195 360.162 91.0092 359.599 90.8833 359.057C90.7573 358.515 90.5185 358.005 90.1824 357.561C89.8462 357.118 89.4204 356.75 88.9325 356.482C85.9623 354.944 80.6229 357.781 78.5013 359.885C78.3422 360.044 76.3974 362.475 75.9377 363.121C76.1764 360.858 76.4328 358.603 76.8217 356.393C77.274 353.408 77.9207 350.455 78.7577 347.553C78.9522 347.624 84.265 349.631 86.8375 349.454C89.0651 349.295 91.8674 348.473 93.1581 346.493C93.4778 346.037 93.6979 345.519 93.804 344.973C93.9101 344.426 93.8999 343.864 93.7739 343.322C93.648 342.779 93.4092 342.27 93.0731 341.826C92.7369 341.382 92.3111 341.015 91.8232 340.747C88.8441 339.208 83.5048 342.037 81.3832 344.15C81.2152 344.318 79.129 346.926 78.7842 347.43C78.8373 347.262 78.8638 347.085 78.9168 346.917C79.8432 344.024 81.0265 341.219 82.4528 338.537C83.2131 337.052 84.0263 335.664 84.8485 334.338C85.7943 334.815 90.1525 336.937 92.495 337.034C94.8377 337.131 97.6046 336.61 99.0985 334.788C99.4672 334.371 99.7437 333.881 99.91 333.349C100.076 332.818 100.129 332.257 100.064 331.704C99.9985 331.151 99.8175 330.618 99.5324 330.139C99.2473 329.661 98.8645 329.248 98.409 328.928C95.6156 327.071 90.0022 329.299 87.6596 331.164C87.5358 331.261 86.3513 332.437 85.5115 333.303C85.8827 332.711 86.2629 332.092 86.643 331.535C88.0397 329.423 89.4541 327.575 90.7182 325.948C91.4519 325.064 92.1238 324.18 92.7603 323.456C93.9448 323.456 98.6831 323.288 100.716 322.315C102.749 321.343 105.057 319.593 105.543 317.285C105.679 316.744 105.698 316.181 105.601 315.632C105.504 315.083 105.292 314.561 104.979 314.099C104.666 313.638 104.26 313.248 103.785 312.954C103.311 312.661 102.781 312.471 102.228 312.397C98.8952 312.043 94.9437 316.605 93.7238 319.345C93.6177 319.575 92.3978 323.464 92.4597 323.464H92.5304C91.8939 324.18 91.2309 324.958 90.5149 325.825C89.2154 327.425 87.7568 329.246 86.3071 331.332C84.6995 333.563 83.2237 335.886 81.8871 338.289C80.4018 340.978 79.1536 343.791 78.1566 346.696V346.802C78.1566 345.821 78.1566 343.072 78.1035 342.859C77.7146 339.898 75.2305 334.391 71.9155 333.781C71.3656 333.694 70.8036 333.725 70.2663 333.87C69.729 334.016 69.2284 334.273 68.7971 334.625C68.3659 334.977 68.0137 335.416 67.7635 335.913C67.5133 336.411 67.3708 336.955 67.3453 337.511C67.1508 339.863 68.8569 342.223 70.5277 343.699C72.4017 345.379 77.5997 347.005 78.0417 347.129C77.1 350.111 76.3616 353.153 75.8317 356.234C75.5134 358.002 75.2482 359.841 75.0007 361.662C75.0007 360.778 75.0007 360.053 75.0007 359.947C74.6206 356.986 72.1277 351.478 68.8127 350.868C68.2623 350.782 67.6999 350.813 67.1621 350.958C66.6243 351.104 66.1231 351.361 65.6912 351.713C65.2593 352.064 64.9063 352.503 64.6551 353.001C64.404 353.498 64.2604 354.042 64.2336 354.599C64.0391 356.95 65.7541 359.311 67.416 360.787C69.0779 362.263 73.5333 363.775 74.709 364.146C74.6206 364.844 74.5233 365.543 74.4438 366.25C74.0371 369.609 73.657 372.968 73.1708 376.248C73.0029 377.406 72.7995 378.538 72.5962 379.669C72.5962 378.918 72.5962 378.281 72.5962 378.184C72.2073 375.223 69.7232 369.715 66.4082 369.105C65.8583 369.019 65.2963 369.05 64.759 369.195C64.2217 369.341 63.7211 369.598 63.2898 369.95C62.8586 370.302 62.5064 370.741 62.2562 371.238C62.006 371.735 61.8635 372.28 61.8379 372.836C61.6435 375.187 63.3584 377.548 65.0203 379.024C66.6823 380.5 70.7045 381.862 72.0923 382.312C71.8448 383.47 71.5973 384.628 71.3144 385.733C71.1023 386.485 70.9431 387.227 70.6868 387.97C70.4304 388.712 70.2094 389.446 69.9796 390.171C69.4757 391.559 68.963 392.991 68.4326 394.326C68.079 395.254 67.7165 396.138 67.3629 397.031C67.5397 395.882 67.8491 393.619 67.858 393.433C67.8196 390.799 67.1074 388.218 65.7894 385.937C65.7987 385.641 65.781 385.345 65.7364 385.053C65.6659 384.501 65.48 383.969 65.1909 383.494C64.9018 383.018 64.5158 382.609 64.0582 382.292C63.6005 381.975 63.0813 381.758 62.5343 381.655C61.9874 381.552 61.4248 381.565 60.8832 381.694C57.6478 382.578 55.5792 388.235 55.4378 391.223C55.4378 391.4 55.5439 393.327 55.6411 394.538C55.4731 393.831 55.3229 393.15 55.1461 392.425C54.8101 390.993 54.43 389.57 54.0234 388.005C53.8024 387.28 53.5814 386.538 53.3515 385.795C53.1217 385.053 52.83 384.292 52.5736 383.532C51.9283 381.764 51.1946 379.996 50.4167 378.29C51.6719 377.99 56.1096 376.867 57.8865 375.497C59.6633 374.126 61.5462 371.908 61.5285 369.547C61.5426 368.991 61.4396 368.437 61.2261 367.922C61.0126 367.408 60.6935 366.944 60.2893 366.561C59.8851 366.177 59.405 365.883 58.8799 365.697C58.3548 365.511 57.7965 365.437 57.2411 365.481C53.9085 365.843 51.0531 371.156 50.4167 374.082C50.4167 374.268 50.178 376.416 50.0984 377.618C49.6211 376.575 49.1525 375.532 48.631 374.498C47.1459 371.501 45.5458 368.504 43.9635 365.516C43.4773 364.632 42.9999 363.686 42.5225 362.767C42.9734 362.67 48.2774 361.441 50.2664 359.903C52.0344 358.55 53.9261 356.323 53.9085 353.954C53.9241 353.397 53.822 352.843 53.6089 352.328C53.3958 351.813 53.0765 351.349 52.6719 350.966C52.2673 350.583 51.7864 350.29 51.2607 350.106C50.735 349.921 50.1763 349.85 49.6211 349.896C46.2884 350.258 43.4331 355.563 42.7966 358.497C42.7966 358.718 42.4695 361.812 42.4341 362.599C41.391 360.584 40.3656 358.559 39.4285 356.526C38.1572 353.783 37.0647 350.96 36.1577 348.075C36.3699 348.031 41.9037 346.776 43.9458 345.202C45.7138 343.841 47.6055 341.622 47.5879 339.253C47.6035 338.696 47.5014 338.142 47.2883 337.627C47.0752 337.112 46.7559 336.648 46.3513 336.265C45.9467 335.882 45.4658 335.589 44.9401 335.405C44.4144 335.22 43.8557 335.149 43.3005 335.195C39.9678 335.558 37.1125 340.862 36.476 343.788C36.4318 344.026 36.1312 347.324 36.1224 347.96C36.0693 347.792 35.9986 347.624 35.9456 347.456C35.1043 344.552 34.5215 341.579 34.2041 338.572C34.0185 336.91 33.9301 335.31 33.8859 333.754C34.9378 333.622 39.7556 332.976 41.7535 331.774C43.7513 330.572 45.7757 328.609 46.0232 326.258C46.1005 325.706 46.0606 325.144 45.906 324.609C45.7514 324.074 45.4856 323.577 45.126 323.152C44.7664 322.726 44.3211 322.382 43.8192 322.14C43.3173 321.898 42.77 321.765 42.2131 321.749C38.8628 321.749 35.4063 326.7 34.4781 329.546C34.4781 329.706 34.098 331.314 33.8682 332.525C33.8682 331.818 33.8682 331.093 33.8682 330.413C33.8682 327.884 34.0361 325.56 34.1953 323.509C34.2925 322.342 34.4074 321.29 34.5223 320.309C35.4947 319.637 39.3667 316.905 40.5601 314.943C41.7535 312.98 42.6728 310.284 41.8065 308.083C41.6177 307.556 41.3195 307.074 40.9315 306.671C40.5434 306.267 40.0743 305.95 39.555 305.74C39.0356 305.53 38.4778 305.433 37.9182 305.455C37.3586 305.476 36.8099 305.615 36.308 305.864C33.3378 307.402 32.551 313.396 33.0461 316.348C33.0461 316.605 34.2129 320.521 34.266 320.485L34.319 320.441C34.1864 321.387 34.0627 322.404 33.9389 323.517C33.7356 325.568 33.5234 327.893 33.4704 330.439C33.3715 333.178 33.4364 335.92 33.6649 338.652C33.9012 341.714 34.4101 344.749 35.1853 347.721V347.827C34.6549 346.997 33.1079 344.733 32.9665 344.566C31.004 342.311 25.8945 339.085 22.8093 340.393C22.3027 340.625 21.8506 340.961 21.4821 341.379C21.1136 341.797 20.8371 342.288 20.6704 342.82C20.5037 343.351 20.4506 343.912 20.5145 344.466C20.5784 345.019 20.7579 345.553 21.0413 346.033C22.2259 348.102 24.9575 349.127 27.1675 349.445Z" fill="#7AD03A"/>
<path d="M84.626 333.71C84.679 333.71 85.6956 329.794 85.731 329.538C86.1465 326.576 85.2006 320.609 82.195 319.151C81.6871 318.922 81.1367 318.803 80.5798 318.801C80.0228 318.799 79.4717 318.915 78.9623 319.14C78.4528 319.365 77.9965 319.695 77.6229 320.108C77.2493 320.521 76.9668 321.008 76.7938 321.537C75.9893 323.765 77.0148 326.488 78.2258 328.371C79.6491 330.616 84.626 333.701 84.626 333.71Z" fill="#7AD03A"/>
<path d="M405.754 409.292H418.13" stroke="#263238" stroke-width="0.884" stroke-linecap="round" stroke-linejoin="round"/>
<path d="M175.918 409.292H393.382" stroke="#263238" stroke-width="0.884" stroke-linecap="round" stroke-linejoin="round"/>
<path d="M33.5938 409.292H167.078" stroke="#263238" stroke-width="0.884" stroke-linecap="round" stroke-linejoin="round"/>
<path opacity="0.1" d="M112.375 74.6362C112.375 81.5932 99.7601 96.1439 99.7601 96.1439C99.7601 96.1439 87.1543 81.5932 87.1543 74.6362C87.2413 71.3495 88.6081 68.2267 90.9635 65.9329C93.3189 63.639 96.4768 62.3554 99.7646 62.3554C103.052 62.3554 106.21 63.639 108.566 65.9329C110.921 68.2267 112.288 71.3495 112.375 74.6362ZM233.244 314.899C231.588 314.897 229.949 315.223 228.419 315.856C226.889 316.489 225.499 317.417 224.328 318.588C223.157 319.759 222.229 321.149 221.596 322.679C220.962 324.209 220.637 325.849 220.638 327.504C220.638 334.461 233.244 349.012 233.244 349.012C233.244 349.012 245.85 334.461 245.85 327.504C245.85 324.161 244.522 320.955 242.158 318.591C239.794 316.227 236.587 314.899 233.244 314.899ZM338.573 26.4316C335.229 26.4316 332.023 27.7598 329.659 30.1238C327.295 32.4879 325.967 35.6942 325.967 39.0375C325.94 45.968 338.573 60.5452 338.573 60.5452C338.573 60.5452 351.152 45.968 351.152 39.0375C351.15 35.6995 349.825 32.4985 347.467 30.1357C345.109 27.773 341.911 26.441 338.573 26.4316ZM58.2387 192.544C56.5829 192.543 54.9432 192.868 53.4132 193.501C51.8833 194.134 50.4932 195.063 49.3224 196.234C48.1516 197.404 47.2231 198.795 46.59 200.325C45.9569 201.854 45.6317 203.494 45.6328 205.15C45.6328 212.107 58.2387 226.649 58.2387 226.649C58.2387 226.649 70.8445 212.107 70.8445 205.15C70.8445 201.807 69.5164 198.6 67.1523 196.236C64.7883 193.872 61.5819 192.544 58.2387 192.544ZM393.416 188.124C390.084 188.126 386.889 189.447 384.527 191.797C382.165 194.147 380.829 197.336 380.81 200.668C380.81 207.634 393.416 222.176 393.416 222.176C393.416 222.176 406.022 207.66 406.022 200.668C406.018 199.012 405.689 197.373 405.051 195.844C404.414 194.315 403.482 192.927 402.308 191.759C401.134 190.591 399.741 189.665 398.21 189.036C396.678 188.406 395.037 188.084 393.381 188.089L393.416 188.124ZM338.573 44.3768H333.269C333.034 44.3768 332.809 44.2837 332.644 44.1179C332.478 43.9521 332.385 43.7273 332.385 43.4928C332.385 43.2584 332.478 43.0335 332.644 42.8678C332.809 42.702 333.034 42.6088 333.269 42.6088H338.573C338.807 42.6088 339.032 42.702 339.198 42.8678C339.364 43.0335 339.457 43.2584 339.457 43.4928C339.457 43.7273 339.364 43.9521 339.198 44.1179C339.032 44.2837 338.807 44.3768 338.573 44.3768ZM284.41 331.951C284.41 331.716 284.317 331.492 284.151 331.326C283.985 331.16 283.761 331.067 283.526 331.067H272.918C272.684 331.067 272.459 331.16 272.293 331.326C272.127 331.492 272.034 331.716 272.034 331.951C272.034 332.185 272.127 332.41 272.293 332.576C272.459 332.742 272.684 332.835 272.918 332.835H283.526C283.761 332.835 283.985 332.742 284.151 332.576C284.317 332.41 284.41 332.185 284.41 331.951ZM263.282 331.951C263.282 331.716 263.189 331.492 263.024 331.326C262.858 331.16 262.633 331.067 262.398 331.067H251.844C251.609 331.067 251.384 331.16 251.218 331.326C251.053 331.492 250.96 331.716 250.96 331.951C250.96 332.185 251.053 332.41 251.218 332.576C251.384 332.742 251.609 332.835 251.844 332.835H262.398C262.633 332.835 262.858 332.742 263.024 332.576C263.189 332.41 263.282 332.185 263.282 331.951ZM294.169 332.755C297.938 332.356 301.414 330.539 303.893 327.672C304.047 327.495 304.124 327.265 304.107 327.031C304.091 326.797 303.982 326.58 303.805 326.426C303.628 326.272 303.397 326.196 303.164 326.212C302.93 326.229 302.712 326.337 302.559 326.514C300.373 329.039 297.312 330.64 293.993 330.996C293.877 331.003 293.763 331.032 293.658 331.082C293.553 331.132 293.459 331.203 293.382 331.289C293.304 331.376 293.244 331.477 293.206 331.587C293.167 331.697 293.151 331.813 293.157 331.929C293.164 332.045 293.193 332.159 293.243 332.263C293.293 332.368 293.364 332.462 293.451 332.54C293.537 332.617 293.638 332.677 293.748 332.715C293.858 332.754 293.974 332.771 294.09 332.764L294.169 332.755ZM242.217 331.323C242.264 331.216 242.289 331.102 242.291 330.985C242.293 330.868 242.272 330.753 242.23 330.644C242.187 330.536 242.123 330.437 242.042 330.353C241.961 330.269 241.864 330.203 241.757 330.156C240.245 329.51 238.892 328.543 237.792 327.322C236.691 326.101 235.869 324.655 235.383 323.084C235.348 322.973 235.292 322.87 235.216 322.781C235.141 322.692 235.049 322.619 234.946 322.566C234.842 322.512 234.729 322.48 234.613 322.47C234.497 322.461 234.38 322.474 234.27 322.51C234.047 322.581 233.862 322.737 233.755 322.944C233.647 323.151 233.626 323.392 233.695 323.615C234.262 325.422 235.213 327.085 236.484 328.489C237.756 329.893 239.316 331.005 241.059 331.748C241.167 331.796 241.285 331.82 241.403 331.818C241.572 331.822 241.738 331.777 241.882 331.69C242.027 331.602 242.143 331.475 242.217 331.323ZM307.544 317.356V306.81C307.544 306.575 307.451 306.351 307.285 306.185C307.12 306.019 306.895 305.926 306.66 305.926C306.426 305.926 306.201 306.019 306.035 306.185C305.869 306.351 305.776 306.575 305.776 306.81V317.356C305.776 317.59 305.869 317.815 306.035 317.981C306.201 318.147 306.426 318.24 306.66 318.24C306.895 318.24 307.12 318.147 307.285 317.981C307.451 317.815 307.544 317.59 307.544 317.356ZM234.871 312.874V305.617C234.87 304.471 234.784 303.328 234.614 302.195C234.597 302.08 234.557 301.97 234.497 301.87C234.437 301.771 234.358 301.684 234.265 301.615C234.171 301.546 234.065 301.496 233.952 301.468C233.839 301.441 233.722 301.435 233.607 301.453C233.492 301.47 233.381 301.51 233.282 301.57C233.182 301.63 233.095 301.709 233.026 301.803C232.957 301.896 232.907 302.003 232.88 302.116C232.852 302.228 232.846 302.346 232.864 302.461C233.024 303.505 233.103 304.56 233.103 305.617V312.874C233.103 313.109 233.196 313.333 233.362 313.499C233.527 313.665 233.752 313.758 233.987 313.758C234.221 313.758 234.446 313.665 234.612 313.499C234.778 313.333 234.871 313.109 234.871 312.874ZM307.544 296.237V285.682C307.544 285.448 307.451 285.223 307.285 285.057C307.12 284.891 306.895 284.798 306.66 284.798C306.426 284.798 306.201 284.891 306.035 285.057C305.869 285.223 305.776 285.448 305.776 285.682V296.246C305.776 296.481 305.869 296.705 306.035 296.871C306.201 297.037 306.426 297.13 306.66 297.13C306.895 297.13 307.12 297.037 307.285 296.871C307.451 296.705 307.544 296.481 307.544 296.246V296.237ZM230.265 293.382C230.359 293.313 230.438 293.226 230.498 293.127C230.558 293.027 230.597 292.917 230.615 292.802C230.632 292.687 230.626 292.569 230.598 292.457C230.57 292.344 230.52 292.238 230.451 292.144C228.269 289.184 225.407 286.791 222.106 285.17C222.001 285.108 221.884 285.069 221.764 285.054C221.643 285.04 221.521 285.051 221.404 285.086C221.288 285.121 221.18 285.179 221.087 285.258C220.994 285.336 220.919 285.433 220.865 285.542C220.812 285.651 220.781 285.77 220.776 285.892C220.77 286.013 220.789 286.134 220.833 286.248C220.876 286.361 220.943 286.465 221.028 286.552C221.113 286.638 221.215 286.706 221.328 286.752C224.375 288.25 227.016 290.461 229.027 293.196C229.096 293.29 229.183 293.369 229.283 293.429C229.382 293.489 229.493 293.529 229.608 293.546C229.723 293.563 229.84 293.557 229.953 293.529C230.066 293.501 230.172 293.451 230.265 293.382ZM212.382 283.764C212.382 283.53 212.289 283.305 212.123 283.139C211.957 282.973 211.732 282.88 211.498 282.88H200.943C200.708 282.88 200.483 282.973 200.318 283.139C200.152 283.305 200.059 283.53 200.059 283.764C200.059 283.999 200.152 284.223 200.318 284.389C200.483 284.555 200.708 284.648 200.943 284.648H211.498C211.732 284.648 211.957 284.555 212.123 284.389C212.289 284.223 212.382 283.999 212.382 283.764ZM191.263 283.764C191.263 283.53 191.17 283.305 191.004 283.139C190.838 282.973 190.613 282.88 190.379 282.88H179.771C179.537 282.88 179.312 282.973 179.146 283.139C178.98 283.305 178.887 283.53 178.887 283.764C178.887 283.999 178.98 284.223 179.146 284.389C179.312 284.555 179.537 284.648 179.771 284.648H190.379C190.613 284.648 190.838 284.555 191.004 284.389C191.17 284.223 191.263 283.999 191.263 283.764ZM170.144 283.764C170.144 283.53 170.051 283.305 169.885 283.139C169.72 282.973 169.495 282.88 169.26 282.88H158.696C158.462 282.88 158.237 282.973 158.071 283.139C157.906 283.305 157.812 283.53 157.812 283.764C157.812 283.999 157.906 284.223 158.071 284.389C158.237 284.555 158.462 284.648 158.696 284.648H169.26C169.495 284.648 169.72 284.555 169.885 284.389C170.051 284.223 170.144 283.999 170.144 283.764ZM149.025 283.764C149.025 283.53 148.932 283.305 148.767 283.139C148.601 282.973 148.376 282.88 148.141 282.88H137.533C137.299 282.88 137.074 282.973 136.908 283.139C136.743 283.305 136.649 283.53 136.649 283.764C136.649 283.999 136.743 284.223 136.908 284.389C137.074 284.555 137.299 284.648 137.533 284.648H148.141C148.376 284.648 148.601 284.555 148.767 284.389C148.932 284.223 149.025 283.999 149.025 283.764ZM127.898 283.764C127.898 283.53 127.805 283.305 127.639 283.139C127.473 282.973 127.248 282.88 127.014 282.88H116.459C116.224 282.88 116 282.973 115.834 283.139C115.668 283.305 115.575 283.53 115.575 283.764C115.575 283.999 115.668 284.223 115.834 284.389C116 284.555 116.224 284.648 116.459 284.648H127.014C127.248 284.648 127.473 284.555 127.639 284.389C127.805 284.223 127.898 283.999 127.898 283.764ZM106.779 283.764C106.779 283.53 106.686 283.305 106.52 283.139C106.354 282.973 106.13 282.88 105.895 282.88H95.3401C95.1057 282.88 94.8808 282.973 94.7151 283.139C94.5493 283.305 94.4561 283.53 94.4561 283.764C94.4561 283.999 94.5493 284.223 94.7151 284.389C94.8808 284.555 95.1057 284.648 95.3401 284.648H105.895C106.13 284.648 106.354 284.555 106.52 284.389C106.686 284.223 106.779 283.999 106.779 283.764ZM85.6603 283.764C85.6603 283.53 85.5672 283.305 85.4014 283.139C85.2356 282.973 85.0108 282.88 84.7763 282.88H74.2567C74.0223 282.88 73.7974 282.973 73.6317 283.139C73.4659 283.305 73.3727 283.53 73.3727 283.764C73.3727 283.999 73.4659 284.223 73.6317 284.389C73.7974 284.555 74.0223 284.648 74.2567 284.648H84.8647C85.0835 284.626 85.2863 284.523 85.4334 284.36C85.5805 284.196 85.6614 283.984 85.6603 283.764ZM64.7272 282.35C64.8321 282.141 64.85 281.899 64.7771 281.677C64.7042 281.455 64.5465 281.271 64.3383 281.165C61.3279 279.653 58.858 277.248 57.2663 274.279C57.1541 274.077 56.9675 273.927 56.7463 273.861C56.525 273.795 56.2868 273.818 56.0824 273.926C55.878 274.033 55.7238 274.216 55.6526 274.436C55.5814 274.655 55.599 274.894 55.7016 275.101C57.4576 278.393 60.1865 281.063 63.5161 282.747C63.64 282.807 63.7763 282.838 63.9139 282.836C64.0826 282.84 64.2488 282.795 64.3929 282.707C64.537 282.619 64.653 282.492 64.7272 282.341V282.35ZM55.4099 264.449V253.885C55.4099 253.65 55.3167 253.426 55.1509 253.26C54.9852 253.094 54.7603 253.001 54.5259 253.001C54.2914 253.001 54.0666 253.094 53.9008 253.26C53.735 253.426 53.6419 253.65 53.6419 253.885V264.449C53.6419 264.683 53.735 264.908 53.9008 265.074C54.0666 265.24 54.2914 265.333 54.5259 265.333C54.7603 265.333 54.9852 265.24 55.1509 265.074C55.3167 264.908 55.4099 264.683 55.4099 264.449ZM55.4099 243.33V232.766C55.4099 232.532 55.3167 232.307 55.1509 232.141C54.9852 231.975 54.7603 231.882 54.5259 231.882C54.2914 231.882 54.0666 231.975 53.9008 232.141C53.735 232.307 53.6419 232.532 53.6419 232.766V243.33C53.6419 243.564 53.735 243.789 53.9008 243.955C54.0666 244.121 54.2914 244.214 54.5259 244.214C54.7603 244.214 54.9852 244.121 55.1509 243.955C55.3167 243.789 55.4099 243.564 55.4099 243.33ZM55.4099 222.202V217.782C55.4003 215.894 55.9576 214.046 57.0099 212.478C57.14 212.283 57.187 212.043 57.1406 211.813C57.0942 211.582 56.9581 211.38 56.7624 211.25C56.5666 211.119 56.3272 211.072 56.0967 211.119C55.8663 211.165 55.6637 211.301 55.5336 211.497C54.2963 213.346 53.6377 215.522 53.6419 217.747V222.167C53.6419 222.401 53.735 222.626 53.9008 222.792C54.0666 222.958 54.2914 223.051 54.5259 223.051C54.7603 223.051 54.9852 222.958 55.1509 222.792C55.3167 222.626 55.4099 222.401 55.4099 222.167V222.202ZM413.96 207.519C414.071 207.482 414.173 207.424 414.261 207.347C414.348 207.271 414.42 207.178 414.472 207.073C414.524 206.969 414.554 206.856 414.562 206.739C414.57 206.623 414.555 206.507 414.517 206.396C414.443 206.175 414.284 205.993 414.075 205.888C413.866 205.784 413.625 205.767 413.403 205.839C412.1 206.271 410.736 206.488 409.363 206.485H403.175C402.941 206.485 402.716 206.578 402.55 206.744C402.385 206.909 402.291 207.134 402.291 207.369C402.291 207.603 402.385 207.828 402.55 207.994C402.716 208.16 402.941 208.253 403.175 208.253H409.363C410.925 208.253 412.476 208.005 413.96 207.519ZM393.513 207.369C393.513 207.134 393.42 206.909 393.254 206.744C393.089 206.578 392.864 206.485 392.629 206.485H382.074C381.84 206.485 381.615 206.578 381.449 206.744C381.284 206.909 381.19 207.134 381.19 207.369C381.19 207.603 381.284 207.828 381.449 207.994C381.615 208.16 381.84 208.253 382.074 208.253H392.629C392.864 208.253 393.089 208.16 393.254 207.994C393.42 207.828 393.513 207.603 393.513 207.369ZM372.395 207.369C372.395 207.134 372.301 206.909 372.136 206.744C371.97 206.578 371.745 206.485 371.511 206.485H360.956C360.721 206.485 360.496 206.578 360.331 206.744C360.165 206.909 360.072 207.134 360.072 207.369C360.072 207.603 360.165 207.828 360.331 207.994C360.496 208.16 360.721 208.253 360.956 208.253H371.511C371.745 208.253 371.97 208.16 372.136 207.994C372.301 207.828 372.395 207.603 372.395 207.369ZM351.276 207.369C351.276 207.134 351.183 206.909 351.017 206.744C350.851 206.578 350.626 206.485 350.392 206.485H339.828C339.594 206.485 339.369 206.578 339.203 206.744C339.037 206.909 338.944 207.134 338.944 207.369C338.944 207.603 339.037 207.828 339.203 207.994C339.369 208.16 339.594 208.253 339.828 208.253H350.392C350.626 208.253 350.851 208.16 351.017 207.994C351.183 207.828 351.276 207.603 351.276 207.369ZM330.157 207.369C330.157 207.134 330.064 206.909 329.898 206.744C329.732 206.578 329.508 206.485 329.273 206.485H318.665C318.431 206.485 318.206 206.578 318.04 206.744C317.874 206.909 317.781 207.134 317.781 207.369C317.781 207.603 317.874 207.828 318.04 207.994C318.206 208.16 318.431 208.253 318.665 208.253H329.273C329.508 208.253 329.732 208.16 329.898 207.994C330.064 207.828 330.157 207.603 330.157 207.369ZM309.038 207.369C309.038 207.134 308.945 206.909 308.779 206.744C308.614 206.578 308.389 206.485 308.154 206.485H297.591C297.356 206.485 297.131 206.578 296.965 206.744C296.8 206.909 296.707 207.134 296.707 207.369C296.707 207.603 296.8 207.828 296.965 207.994C297.131 208.16 297.356 208.253 297.591 208.253H308.154C308.389 208.253 308.614 208.16 308.779 207.994C308.945 207.828 309.038 207.603 309.038 207.369ZM287.911 207.369C287.911 207.134 287.818 206.909 287.652 206.744C287.486 206.578 287.261 206.485 287.027 206.485H276.472C276.237 206.485 276.012 206.578 275.847 206.744C275.681 206.909 275.588 207.134 275.588 207.369C275.588 207.603 275.681 207.828 275.847 207.994C276.012 208.16 276.237 208.253 276.472 208.253H287.027C287.261 208.253 287.486 208.16 287.652 207.994C287.818 207.828 287.911 207.603 287.911 207.369ZM266.792 207.369C266.792 207.134 266.699 206.909 266.533 206.744C266.367 206.578 266.142 206.485 265.908 206.485H255.353C255.119 206.485 254.894 206.578 254.728 206.744C254.562 206.909 254.469 207.134 254.469 207.369C254.469 207.603 254.562 207.828 254.728 207.994C254.894 208.16 255.119 208.253 255.353 208.253H265.908C266.142 208.253 266.367 208.16 266.533 207.994C266.699 207.828 266.792 207.603 266.792 207.369ZM245.673 207.369C245.673 207.134 245.58 206.909 245.414 206.744C245.248 206.578 245.024 206.485 244.789 206.485H234.261C234.026 206.485 233.801 206.578 233.636 206.744C233.47 206.909 233.377 207.134 233.377 207.369C233.377 207.603 233.47 207.828 233.636 207.994C233.801 208.16 234.026 208.253 234.261 208.253H244.869C245.089 208.233 245.294 208.131 245.443 207.967C245.592 207.804 245.674 207.59 245.673 207.369ZM224.554 207.369C224.554 207.134 224.461 206.909 224.296 206.744C224.13 206.578 223.905 206.485 223.67 206.485H213.062C212.828 206.485 212.603 206.578 212.437 206.744C212.272 206.909 212.178 207.134 212.178 207.369C212.178 207.603 212.272 207.828 212.437 207.994C212.603 208.16 212.828 208.253 213.062 208.253H223.67C223.902 208.248 224.122 208.153 224.284 207.988C224.446 207.822 224.537 207.6 224.537 207.369H224.554ZM203.436 207.369C203.436 207.134 203.343 206.909 203.177 206.744C203.011 206.578 202.786 206.485 202.552 206.485H191.988C191.753 206.485 191.529 206.578 191.363 206.744C191.197 206.909 191.104 207.134 191.104 207.369C191.104 207.603 191.197 207.828 191.363 207.994C191.529 208.16 191.753 208.253 191.988 208.253H202.552C202.786 208.253 203.011 208.16 203.177 207.994C203.343 207.828 203.436 207.603 203.436 207.369ZM182.308 207.369C182.308 207.134 182.215 206.909 182.049 206.744C181.883 206.578 181.659 206.485 181.424 206.485H170.869C170.635 206.485 170.41 206.578 170.244 206.744C170.078 206.909 169.985 207.134 169.985 207.369C169.985 207.603 170.078 207.828 170.244 207.994C170.41 208.16 170.635 208.253 170.869 208.253H181.424C181.659 208.253 181.883 208.16 182.049 207.994C182.215 207.828 182.308 207.603 182.308 207.369ZM161.189 207.369C161.189 207.134 161.096 206.909 160.93 206.744C160.765 206.578 160.54 206.485 160.305 206.485H149.75C149.516 206.485 149.291 206.578 149.125 206.744C148.959 206.909 148.866 207.134 148.866 207.369C148.866 207.603 148.959 207.828 149.125 207.994C149.291 208.16 149.516 208.253 149.75 208.253H160.305C160.54 208.253 160.765 208.16 160.93 207.994C161.096 207.828 161.189 207.603 161.189 207.369ZM140.071 207.369C140.071 207.134 139.977 206.909 139.812 206.744C139.646 206.578 139.421 206.485 139.187 206.485H128.623C128.388 206.485 128.163 206.578 127.998 206.744C127.832 206.909 127.739 207.134 127.739 207.369C127.739 207.603 127.832 207.828 127.998 207.994C128.163 208.16 128.388 208.253 128.623 208.253H139.187C139.421 208.253 139.646 208.16 139.812 207.994C139.977 207.828 140.071 207.603 140.071 207.369ZM118.952 207.369C118.952 207.134 118.859 206.909 118.693 206.744C118.527 206.578 118.302 206.485 118.068 206.485H107.46C107.225 206.485 107 206.578 106.835 206.744C106.669 206.909 106.576 207.134 106.576 207.369C106.576 207.603 106.669 207.828 106.835 207.994C107 208.16 107.225 208.253 107.46 208.253H118.068C118.302 208.253 118.527 208.16 118.693 207.994C118.859 207.828 118.952 207.603 118.952 207.369ZM97.833 207.369C97.833 207.134 97.7399 206.909 97.5741 206.744C97.4083 206.578 97.1835 206.485 96.949 206.485H86.341C86.1066 206.485 85.8817 206.578 85.7159 206.744C85.5502 206.909 85.457 207.134 85.457 207.369C85.457 207.603 85.5502 207.828 85.7159 207.994C85.8817 208.16 86.1066 208.253 86.341 208.253H96.949C97.1835 208.253 97.4083 208.16 97.5741 207.994C97.7399 207.828 97.833 207.603 97.833 207.369ZM76.7054 207.369C76.7054 207.134 76.6123 206.909 76.4465 206.744C76.2807 206.578 76.0559 206.485 75.8214 206.485H65.2665C65.032 206.485 64.8072 206.578 64.6414 206.744C64.4756 206.909 64.3825 207.134 64.3825 207.369C64.3825 207.603 64.4756 207.828 64.6414 207.994C64.8072 208.16 65.032 208.253 65.2665 208.253H75.8214C76.0559 208.253 76.2807 208.16 76.4465 207.994C76.6123 207.828 76.7054 207.603 76.7054 207.369ZM422.349 200.412C423.442 198.325 424.012 196.004 424.011 193.649V189.698C424.011 189.463 423.918 189.238 423.752 189.073C423.587 188.907 423.362 188.814 423.127 188.814C422.893 188.814 422.668 188.907 422.502 189.073C422.336 189.238 422.243 189.463 422.243 189.698V193.649C422.244 195.718 421.744 197.756 420.785 199.59C420.728 199.693 420.691 199.806 420.679 199.923C420.666 200.04 420.677 200.159 420.71 200.272C420.744 200.385 420.8 200.49 420.875 200.581C420.95 200.672 421.042 200.747 421.146 200.802C421.251 200.856 421.365 200.89 421.482 200.9C421.6 200.91 421.718 200.896 421.83 200.86C421.942 200.824 422.046 200.765 422.135 200.688C422.224 200.611 422.297 200.517 422.349 200.412ZM424.011 179.134V168.579C424.011 168.344 423.918 168.12 423.752 167.954C423.587 167.788 423.362 167.695 423.127 167.695C422.893 167.695 422.668 167.788 422.502 167.954C422.336 168.12 422.243 168.344 422.243 168.579V179.134C422.243 179.368 422.336 179.593 422.502 179.759C422.668 179.925 422.893 180.018 423.127 180.018C423.362 180.018 423.587 179.925 423.752 179.759C423.918 179.593 424.011 179.368 424.011 179.134ZM424.011 158.015V154.355C424.027 151.887 423.419 149.454 422.243 147.283C422.187 147.182 422.111 147.092 422.02 147.02C421.93 146.947 421.825 146.894 421.714 146.862C421.602 146.83 421.485 146.82 421.37 146.833C421.254 146.846 421.143 146.882 421.041 146.939C420.838 147.052 420.688 147.241 420.624 147.464C420.559 147.688 420.585 147.928 420.696 148.132C421.735 150.029 422.279 152.157 422.279 154.32V157.98C422.279 158.214 422.372 158.439 422.538 158.605C422.703 158.771 422.928 158.864 423.163 158.864C423.397 158.864 423.622 158.771 423.788 158.605C423.954 158.439 424.047 158.214 424.047 157.98L424.011 158.015ZM414.287 141.493C414.356 141.269 414.334 141.027 414.224 140.82C414.115 140.613 413.928 140.457 413.704 140.388C412.311 139.964 410.863 139.749 409.408 139.752H402.946C402.711 139.752 402.486 139.845 402.321 140.011C402.155 140.176 402.062 140.401 402.062 140.636C402.062 140.87 402.155 141.095 402.321 141.261C402.486 141.426 402.711 141.52 402.946 141.52H409.408C410.687 141.516 411.96 141.707 413.182 142.085C413.27 142.099 413.36 142.099 413.448 142.085C413.624 142.078 413.794 142.017 413.936 141.911C414.078 141.806 414.185 141.66 414.243 141.493H414.287ZM393.275 140.609C393.275 140.375 393.182 140.15 393.016 139.984C392.85 139.818 392.625 139.725 392.391 139.725H381.783C381.548 139.725 381.323 139.818 381.158 139.984C380.992 140.15 380.899 140.375 380.899 140.609C380.899 140.844 380.992 141.068 381.158 141.234C381.323 141.4 381.548 141.493 381.783 141.493H392.346C392.576 141.493 392.797 141.404 392.962 141.244C393.127 141.084 393.224 140.865 393.23 140.636L393.275 140.609ZM372.147 140.609C372.147 140.375 372.054 140.15 371.888 139.984C371.722 139.818 371.498 139.725 371.263 139.725H360.673C360.438 139.725 360.213 139.818 360.048 139.984C359.882 140.15 359.789 140.375 359.789 140.609C359.789 140.844 359.882 141.068 360.048 141.234C360.213 141.4 360.438 141.493 360.673 141.493H371.228C371.456 141.491 371.675 141.4 371.838 141.241C372.001 141.081 372.096 140.864 372.103 140.636L372.147 140.609ZM351.028 140.609C351.028 140.375 350.935 140.15 350.769 139.984C350.604 139.818 350.379 139.725 350.144 139.725H339.545C339.311 139.725 339.086 139.818 338.92 139.984C338.754 140.15 338.661 140.375 338.661 140.609C338.661 140.844 338.754 141.068 338.92 141.234C339.086 141.4 339.311 141.493 339.545 141.493H350.065C350.295 141.493 350.516 141.404 350.681 141.244C350.846 141.084 350.942 140.865 350.949 140.636L351.028 140.609ZM329.91 140.609C329.91 140.375 329.816 140.15 329.651 139.984C329.485 139.818 329.26 139.725 329.026 139.725H318.418C318.183 139.725 317.958 139.818 317.792 139.984C317.627 140.15 317.534 140.375 317.534 140.609C317.534 140.844 317.627 141.068 317.792 141.234C317.958 141.4 318.183 141.493 318.418 141.493H328.981C329.211 141.493 329.432 141.404 329.597 141.244C329.762 141.084 329.858 140.865 329.865 140.636L329.91 140.609ZM308.791 140.609C308.791 140.375 308.698 140.15 308.532 139.984C308.366 139.818 308.141 139.725 307.907 139.725H297.299C297.064 139.725 296.839 139.818 296.674 139.984C296.508 140.15 296.415 140.375 296.415 140.609C296.415 140.844 296.508 141.068 296.674 141.234C296.839 141.4 297.064 141.493 297.299 141.493H307.863C308.093 141.493 308.313 141.404 308.478 141.244C308.643 141.084 308.74 140.865 308.747 140.636L308.791 140.609ZM287.672 140.609C287.672 140.375 287.579 140.15 287.413 139.984C287.247 139.818 287.022 139.725 286.788 139.725H276.18C275.946 139.725 275.721 139.818 275.555 139.984C275.389 140.15 275.296 140.375 275.296 140.609C275.296 140.844 275.389 141.068 275.555 141.234C275.721 141.4 275.946 141.493 276.18 141.493H286.744C286.974 141.493 287.195 141.404 287.36 141.244C287.525 141.084 287.621 140.865 287.628 140.636L287.672 140.609ZM266.544 140.609C266.544 140.375 266.451 140.15 266.286 139.984C266.12 139.818 265.895 139.725 265.66 139.725H255.061C254.827 139.725 254.602 139.818 254.436 139.984C254.27 140.15 254.177 140.375 254.177 140.609C254.177 140.844 254.27 141.068 254.436 141.234C254.602 141.4 254.827 141.493 255.061 141.493H265.616C265.846 141.493 266.067 141.404 266.232 141.244C266.397 141.084 266.493 140.865 266.5 140.636L266.544 140.609ZM245.426 140.609C245.426 140.375 245.333 140.15 245.167 139.984C245.001 139.818 244.776 139.725 244.542 139.725H233.943C233.708 139.725 233.483 139.818 233.317 139.984C233.152 140.15 233.059 140.375 233.059 140.609C233.059 140.844 233.152 141.068 233.317 141.234C233.483 141.4 233.708 141.493 233.943 141.493H244.497C244.727 141.493 244.948 141.404 245.113 141.244C245.278 141.084 245.375 140.865 245.381 140.636L245.426 140.609ZM224.307 140.609C224.307 140.375 224.214 140.15 224.048 139.984C223.882 139.818 223.657 139.725 223.423 139.725H212.815C212.58 139.725 212.356 139.818 212.19 139.984C212.024 140.15 211.931 140.375 211.931 140.609C211.931 140.844 212.024 141.068 212.19 141.234C212.356 141.4 212.58 141.493 212.815 141.493H223.379C223.609 141.493 223.83 141.404 223.995 141.244C224.16 141.084 224.256 140.865 224.263 140.636L224.307 140.609ZM203.188 140.609C203.188 140.375 203.095 140.15 202.929 139.984C202.763 139.818 202.539 139.725 202.304 139.725H191.696C191.462 139.725 191.237 139.818 191.071 139.984C190.905 140.15 190.812 140.375 190.812 140.609C190.812 140.844 190.905 141.068 191.071 141.234C191.237 141.4 191.462 141.493 191.696 141.493H202.304C202.526 141.482 202.736 141.388 202.892 141.229C203.048 141.07 203.138 140.858 203.144 140.636L203.188 140.609ZM182.069 140.609C182.069 140.375 181.976 140.15 181.81 139.984C181.645 139.818 181.42 139.725 181.185 139.725H170.613C170.378 139.725 170.153 139.818 169.988 139.984C169.822 140.15 169.729 140.375 169.729 140.609C169.729 140.844 169.822 141.068 169.988 141.234C170.153 141.4 170.378 141.493 170.613 141.493H181.177C181.4 141.484 181.612 141.391 181.77 141.232C181.927 141.072 182.019 140.859 182.025 140.636L182.069 140.609ZM160.942 140.609C160.942 140.375 160.849 140.15 160.683 139.984C160.517 139.818 160.292 139.725 160.058 139.725H149.459C149.224 139.725 148.999 139.818 148.834 139.984C148.668 140.15 148.575 140.375 148.575 140.609C148.575 140.844 148.668 141.068 148.834 141.234C148.999 141.4 149.224 141.493 149.459 141.493H160.005C160.235 141.493 160.456 141.404 160.621 141.244C160.786 141.084 160.882 140.865 160.889 140.636L160.942 140.609ZM139.823 140.609C139.823 140.375 139.73 140.15 139.564 139.984C139.398 139.818 139.173 139.725 138.939 139.725H128.34C128.105 139.725 127.881 139.818 127.715 139.984C127.549 140.15 127.456 140.375 127.456 140.609C127.456 140.844 127.549 141.068 127.715 141.234C127.881 141.4 128.105 141.493 128.34 141.493H138.895C139.125 141.493 139.346 141.404 139.511 141.244C139.676 141.084 139.772 140.865 139.779 140.636L139.823 140.609ZM118.704 140.609C118.704 140.375 118.611 140.15 118.445 139.984C118.28 139.818 118.055 139.725 117.82 139.725H107.212C106.978 139.725 106.753 139.818 106.587 139.984C106.421 140.15 106.328 140.375 106.328 140.609C106.328 140.844 106.421 141.068 106.587 141.234C106.753 141.4 106.978 141.493 107.212 141.493H117.776C118.006 141.493 118.227 141.404 118.392 141.244C118.557 141.084 118.653 140.865 118.66 140.636L118.704 140.609ZM98.1955 137.957C98.2783 137.875 98.3441 137.777 98.389 137.669C98.4338 137.562 98.4569 137.446 98.4569 137.329C98.4569 137.213 98.4338 137.097 98.389 136.989C98.3441 136.882 98.2783 136.784 98.1955 136.702C97.1142 135.679 96.2543 134.445 95.6689 133.077C95.0835 131.708 94.7851 130.234 94.7921 128.746V127.791C94.7921 127.557 94.6989 127.332 94.5331 127.166C94.3674 127 94.1425 126.907 93.9081 126.907C93.6736 126.907 93.4488 127 93.283 127.166C93.1172 127.332 93.0241 127.557 93.0241 127.791V128.746C93.0175 130.472 93.3647 132.182 94.0443 133.769C94.7239 135.357 95.7215 136.788 96.9755 137.975C97.1394 138.133 97.3579 138.221 97.5855 138.222C97.7895 138.202 97.9802 138.111 98.1247 137.966L98.1955 137.957ZM94.7567 117.245V106.69C94.7567 106.456 94.6636 106.231 94.4978 106.065C94.332 105.899 94.1072 105.806 93.8727 105.806C93.6382 105.806 93.4134 105.899 93.2476 106.065C93.0818 106.231 92.9887 106.456 92.9887 106.69V117.254C92.9887 117.488 93.0818 117.713 93.2476 117.879C93.4134 118.045 93.6382 118.138 93.8727 118.138C94.1072 118.138 94.332 118.045 94.4978 117.879C94.6636 117.713 94.7567 117.488 94.7567 117.254V117.245ZM94.7567 96.1174V93.9074C94.7528 91.2809 95.5348 88.7133 97.0021 86.5348C97.0665 86.4344 97.1105 86.3223 97.1316 86.2048C97.1527 86.0874 97.1505 85.967 97.125 85.8504C97.0996 85.7338 97.0514 85.6234 96.9833 85.5255C96.9152 85.4275 96.8284 85.3439 96.728 85.2795C96.6276 85.2151 96.5155 85.1711 96.398 85.15C96.2806 85.1289 96.1602 85.1311 96.0436 85.1566C95.9271 85.182 95.8167 85.2302 95.7187 85.2983C95.6207 85.3664 95.5372 85.4531 95.4727 85.5536C93.8032 88.0225 92.9132 90.9358 92.918 93.9162V96.1262C92.918 96.3606 93.0111 96.5855 93.1769 96.7513C93.3427 96.9171 93.5675 97.0102 93.802 97.0102C94.0364 97.0102 94.2613 96.9171 94.4271 96.7513C94.5928 96.5855 94.686 96.3606 94.686 96.1262L94.7567 96.1174ZM104.958 81.0894C105.943 80.8594 106.952 80.7437 107.964 80.7446H115.292C115.526 80.7446 115.751 80.6515 115.917 80.4857C116.083 80.3199 116.176 80.095 116.176 79.8606C116.176 79.6261 116.083 79.4013 115.917 79.2355C115.751 79.0697 115.526 78.9766 115.292 78.9766H107.964C106.818 78.9773 105.676 79.1078 104.56 79.3656C104.447 79.3916 104.34 79.4397 104.245 79.5072C104.151 79.5746 104.07 79.66 104.009 79.7585C103.947 79.857 103.906 79.9667 103.887 80.0813C103.867 80.1959 103.871 80.3132 103.897 80.4264C103.944 80.6241 104.057 80.7998 104.218 80.9238C104.379 81.0477 104.578 81.1125 104.781 81.107C104.827 81.0936 104.871 81.0758 104.914 81.054L104.958 81.0894ZM125.988 80.5324C127.841 80.205 129.611 79.5148 131.196 78.5014C132.782 77.488 134.151 76.1715 135.226 74.6273C135.36 74.435 135.411 74.1976 135.37 73.9673C135.328 73.7369 135.197 73.5324 135.005 73.3986C134.813 73.2652 134.576 73.2136 134.345 73.2551C134.115 73.2965 133.91 73.4276 133.776 73.6196C131.873 76.3477 128.963 78.2079 125.688 78.791C125.453 78.8109 125.236 78.9231 125.085 79.103C124.933 79.2829 124.859 79.5156 124.879 79.7501C124.899 79.9845 125.011 80.2015 125.191 80.3532C125.371 80.5049 125.604 80.5789 125.838 80.559L125.988 80.5324ZM137.728 64.0193V56.8412C137.728 55.7861 137.859 54.735 138.117 53.7119C138.158 53.596 138.175 53.4727 138.166 53.35C138.157 53.2272 138.122 53.1078 138.064 52.9992C138.006 52.8906 137.926 52.7953 137.829 52.7194C137.733 52.6435 137.621 52.5886 137.502 52.5583C137.382 52.5281 137.258 52.523 137.137 52.5435C137.015 52.564 136.9 52.6097 136.797 52.6775C136.694 52.7453 136.607 52.8338 136.54 52.9373C136.474 53.0409 136.43 53.1571 136.411 53.2787C136.112 54.4337 135.96 55.6218 135.96 56.8147V63.9928C135.96 64.2272 136.053 64.4521 136.219 64.6179C136.385 64.7837 136.609 64.8768 136.844 64.8768C137.078 64.8768 137.303 64.7837 137.469 64.6179C137.635 64.4521 137.728 64.2272 137.728 63.9928V64.0193ZM143.916 46.0653C145.819 44.9572 147.982 44.3746 150.183 44.3768H153.719C153.954 44.3768 154.179 44.2837 154.345 44.1179C154.51 43.9521 154.604 43.7273 154.604 43.4928C154.604 43.2584 154.51 43.0335 154.345 42.8678C154.179 42.702 153.954 42.6088 153.719 42.6088H150.183C147.668 42.606 145.197 43.271 143.023 44.536C142.923 44.5944 142.835 44.6722 142.764 44.7648C142.694 44.8574 142.642 44.9629 142.613 45.0754C142.583 45.188 142.576 45.3052 142.592 45.4204C142.608 45.5357 142.646 45.6467 142.705 45.747C142.763 45.8476 142.841 45.9356 142.934 46.0061C143.026 46.0765 143.132 46.128 143.244 46.1576C143.357 46.1871 143.474 46.1942 143.589 46.1784C143.705 46.1625 143.816 46.1241 143.916 46.0653ZM323.545 43.4928C323.545 43.2584 323.452 43.0335 323.286 42.8678C323.12 42.702 322.895 42.6088 322.661 42.6088H312.115C311.88 42.6088 311.655 42.702 311.49 42.8678C311.324 43.0335 311.231 43.2584 311.231 43.4928C311.231 43.7273 311.324 43.9521 311.49 44.1179C311.655 44.2837 311.88 44.3768 312.115 44.3768H322.661C322.895 44.3768 323.12 44.2837 323.286 44.1179C323.452 43.9521 323.545 43.7273 323.545 43.4928ZM302.426 43.4928C302.426 43.2584 302.333 43.0335 302.167 42.8678C302.001 42.702 301.776 42.6088 301.542 42.6088H290.996C290.761 42.6088 290.537 42.702 290.371 42.8678C290.205 43.0335 290.112 43.2584 290.112 43.4928C290.112 43.7273 290.205 43.9521 290.371 44.1179C290.537 44.2837 290.761 44.3768 290.996 44.3768H301.56C301.794 44.3768 302.019 44.2837 302.185 44.1179C302.351 43.9521 302.444 43.7273 302.444 43.4928H302.426ZM281.307 43.4928C281.307 43.2584 281.214 43.0335 281.048 42.8678C280.883 42.702 280.658 42.6088 280.423 42.6088H269.877C269.643 42.6088 269.418 42.702 269.252 42.8678C269.086 43.0335 268.993 43.2584 268.993 43.4928C268.993 43.7273 269.086 43.9521 269.252 44.1179C269.418 44.2837 269.643 44.3768 269.877 44.3768H280.441C280.675 44.3768 280.9 44.2837 281.066 44.1179C281.232 43.9521 281.325 43.7273 281.325 43.4928H281.307ZM260.18 43.4928C260.18 43.2584 260.086 43.0335 259.921 42.8678C259.755 42.702 259.53 42.6088 259.296 42.6088H248.758C248.524 42.6088 248.299 42.702 248.133 42.8678C247.967 43.0335 247.874 43.2584 247.874 43.4928C247.874 43.7273 247.967 43.9521 248.133 44.1179C248.299 44.2837 248.524 44.3768 248.758 44.3768H259.313C259.548 44.3768 259.773 44.2837 259.938 44.1179C260.104 43.9521 260.197 43.7273 260.197 43.4928H260.18ZM239.061 43.4928C239.061 43.2584 238.968 43.0335 238.802 42.8678C238.636 42.702 238.411 42.6088 238.177 42.6088H227.64C227.405 42.6088 227.18 42.702 227.014 42.8678C226.849 43.0335 226.756 43.2584 226.756 43.4928C226.756 43.7273 226.849 43.9521 227.014 44.1179C227.18 44.2837 227.405 44.3768 227.64 44.3768H238.195C238.429 44.3768 238.654 44.2837 238.82 44.1179C238.985 43.9521 239.079 43.7273 239.079 43.4928H239.061ZM217.942 43.4928C217.942 43.2584 217.849 43.0335 217.683 42.8678C217.517 42.702 217.293 42.6088 217.058 42.6088H206.512C206.278 42.6088 206.053 42.702 205.887 42.8678C205.721 43.0335 205.628 43.2584 205.628 43.4928C205.628 43.7273 205.721 43.9521 205.887 44.1179C206.053 44.2837 206.278 44.3768 206.512 44.3768H217.076C217.31 44.3768 217.535 44.2837 217.701 44.1179C217.867 43.9521 217.96 43.7273 217.96 43.4928H217.942ZM196.823 43.4928C196.823 43.2584 196.73 43.0335 196.564 42.8678C196.399 42.702 196.174 42.6088 195.939 42.6088H185.393C185.159 42.6088 184.934 42.702 184.768 42.8678C184.602 43.0335 184.509 43.2584 184.509 43.4928C184.509 43.7273 184.602 43.9521 184.768 44.1179C184.934 44.2837 185.159 44.3768 185.393 44.3768H195.957C196.191 44.3768 196.416 44.2837 196.582 44.1179C196.748 43.9521 196.841 43.7273 196.841 43.4928H196.823ZM175.705 43.4928C175.705 43.2584 175.611 43.0335 175.446 42.8678C175.28 42.702 175.055 42.6088 174.821 42.6088H164.274C164.04 42.6088 163.815 42.702 163.649 42.8678C163.484 43.0335 163.39 43.2584 163.39 43.4928C163.39 43.7273 163.484 43.9521 163.649 44.1179C163.815 44.2837 164.04 44.3768 164.274 44.3768H174.838C175.073 44.3768 175.298 44.2837 175.463 44.1179C175.629 43.9521 175.722 43.7273 175.722 43.4928H175.705ZM307.544 274.968V269.664C307.544 269.43 307.451 269.205 307.285 269.039C307.12 268.873 306.895 268.78 306.66 268.78C306.426 268.78 306.201 268.873 306.035 269.039C305.869 269.205 305.776 269.43 305.776 269.664V274.968C305.776 275.203 305.869 275.428 306.035 275.593C306.201 275.759 306.426 275.852 306.66 275.852C306.895 275.852 307.12 275.759 307.285 275.593C307.451 275.428 307.544 275.203 307.544 274.968Z" fill="black"/>
<path opacity="0.1" d="M77.2455 138.523V133.997H74.3283V138.523H67.0265V133.997H64.1093V138.523H56.8075V133.997H53.9256V138.523H50.7344V165.927H80.3926V138.523H77.2455ZM60.1136 159.703H55.4373V155.027H60.1136V159.703ZM60.1136 152.304H55.4373V147.628H60.1136V152.304ZM67.9017 159.703H63.2253V155.027H67.9017V159.703ZM67.9017 152.304H63.2253V147.628H67.9017V152.304ZM75.6897 159.703H71.0133V155.027H75.6897V159.703ZM75.6897 152.304H71.0133V147.628H75.6897V152.304Z" fill="black"/>
<path opacity="0.1" d="M248.74 362.175V357.649H245.823V362.175H238.521V357.649H235.604V362.175H228.302V357.649H225.42V362.175H222.273V389.579H251.932V362.175H248.74ZM231.608 383.391H226.932V378.715H231.608V383.391ZM231.608 375.992H226.932V371.28H231.608V375.992ZM239.397 383.391H234.72V378.715H239.397V383.391ZM239.397 375.992H234.72V371.28H239.397V375.992ZM247.185 383.391H242.508V378.715H247.185V383.391ZM247.185 375.992H242.508V371.28H247.185V375.992Z" fill="black"/>
<path opacity="0.1" d="M386.816 33.0705V28.5533H383.899V33.0705H376.588V28.5533H373.671V33.0705H366.378V28.5533H363.452V33.0705H360.305V60.4745H389.963V33.0705H386.816ZM369.684 54.2865H365.008V49.5748H369.684V54.2865ZM369.684 46.8874H365.008V42.1757H369.684V46.8874ZM377.472 54.2511H372.796V49.5748H377.472V54.2511ZM377.472 46.8521H372.796V42.1757H377.472V46.8521ZM385.26 54.2511H380.584V49.5748H385.26V54.2511ZM385.26 46.8521H380.584V42.1757H385.26V46.8521Z" fill="black"/>
<path d="M159.916 68.952H389.756C390.232 68.9508 390.703 69.0435 391.143 69.2247C391.582 69.4058 391.982 69.672 392.319 70.0078C392.655 70.3437 392.922 70.7426 393.105 71.1819C393.287 71.6211 393.381 72.092 393.381 72.5675V301.117H156.301V72.5675C156.301 72.0927 156.394 71.6226 156.576 71.1839C156.758 70.7453 157.024 70.3467 157.36 70.011C157.695 69.6752 158.094 69.4089 158.533 69.2272C158.971 69.0455 159.442 68.952 159.916 68.952Z" fill="#E5E5E5"/>
<path d="M196.917 146.55C196.918 147.765 196.559 148.954 195.885 149.966C195.21 150.978 194.251 151.767 193.128 152.233C192.005 152.699 190.769 152.821 189.576 152.585C188.384 152.348 187.288 151.762 186.428 150.903C185.569 150.043 184.983 148.947 184.747 147.755C184.51 146.562 184.632 145.326 185.098 144.203C185.564 143.08 186.353 142.121 187.365 141.446C188.377 140.772 189.566 140.413 190.782 140.415C192.408 140.417 193.967 141.064 195.117 142.214C196.267 143.364 196.914 144.923 196.917 146.55Z" fill="#CCCCCC"/>
<path d="M393.38 94.8708L362.696 124.335C358.202 123.954 353.681 124.014 349.198 124.511C348.992 124.523 348.786 124.492 348.593 124.42C348.4 124.349 348.224 124.238 348.075 124.096C342.329 119.587 336.972 86.7469 334.647 68.952H332.967C334.815 83.096 340.216 120.056 347.041 125.413C347.364 125.693 347.74 125.905 348.147 126.036C348.555 126.166 348.984 126.213 349.41 126.173C353.288 125.716 357.2 125.615 361.096 125.873L336.265 149.741L301.329 123.857C299.587 122.566 297.433 121.956 295.273 122.142C293.113 122.327 291.095 123.296 289.598 124.865C285.841 128.799 282.995 131.981 281.121 134.324C278.646 137.409 274.738 142.28 270.38 147.584L257.394 137.126C265.103 126.96 271.768 118.173 275.702 113.647C283.702 104.445 302.222 81.2307 311.946 68.9873H309.807C299.915 81.4517 282.208 103.622 274.447 112.551C270.477 117.112 263.839 125.908 256.095 136.092L238.415 121.851C238.514 121.682 238.549 121.484 238.514 121.291C238.479 121.099 238.376 120.926 238.223 120.803C238.071 120.681 237.879 120.618 237.684 120.625C237.489 120.632 237.302 120.709 237.159 120.843L219.798 106.867C219.714 106.785 219.614 106.721 219.505 106.68C219.395 106.639 219.278 106.621 219.161 106.627C219.045 106.634 218.93 106.665 218.826 106.719C218.722 106.772 218.63 106.847 218.557 106.938C218.483 107.029 218.429 107.134 218.399 107.247C218.368 107.36 218.361 107.478 218.379 107.594C218.397 107.709 218.439 107.82 218.502 107.919C218.565 108.017 218.648 108.102 218.746 108.166L236.108 122.142C233.623 125.333 226.649 134.333 221.672 141.051L175.138 105.178C174.961 105.059 174.745 105.011 174.535 105.044C174.324 105.078 174.134 105.191 174.003 105.36C173.872 105.529 173.811 105.741 173.831 105.954C173.852 106.166 173.952 106.363 174.113 106.504L220.682 142.404C219.656 143.8 218.746 145.056 218.03 146.107C212.514 154.063 205.132 161.657 192.182 157.511C178.922 153.268 177.154 143.517 177.154 143.111C177.12 142.913 177.02 142.732 176.871 142.598L164.778 132.211C165.662 125.758 166.696 116.697 167.827 103.923C169.03 90.4066 169.975 76.908 170.479 68.9431H168.844C167.509 89.2751 165.432 114.725 163.284 130.92L156.945 125.528V127.738L163.01 132.954C161.905 140.91 160.782 146.214 159.748 146.947C158.771 147.399 157.834 147.932 156.945 148.538V150.572C158.035 149.762 159.202 149.06 160.428 148.477C161.144 148.158 162.515 147.593 164.495 134.227L175.509 143.694C175.907 145.559 178.55 154.921 191.642 159.111C194.046 159.913 196.561 160.333 199.094 160.358C208.739 160.358 214.918 153.515 219.373 147.098C220.081 146.072 220.982 144.835 222.025 143.464L239.935 157.272C230.326 169.648 220.867 181.14 214.255 187.328C206.37 194.666 196.425 203.24 188.327 210.118C176.986 202.675 166.351 194.63 166.227 194.524H166.174L166.121 194.48L156.998 189.53V191.43L163.46 194.966C161.913 195.355 159.615 195.912 156.998 196.451V198.016C161.056 197.185 164.397 196.31 165.547 196C167.412 197.406 176.871 204.469 187.01 211.135C179.364 217.597 173.679 222.246 173.565 222.344C173.4 222.49 173.296 222.693 173.273 222.912C173.25 223.131 173.31 223.351 173.441 223.528C173.588 223.691 173.792 223.794 174.011 223.815C174.23 223.836 174.449 223.775 174.625 223.643C174.74 223.546 180.619 218.728 188.469 212.098C190.803 213.61 193.145 215.086 195.426 216.456L200.73 219.577C205.291 222.273 210.843 225.561 216.332 229.018L200.314 246.424C200.21 246.543 200.139 246.687 200.109 246.843C200.08 246.998 200.093 247.159 200.146 247.308C200.208 247.452 200.307 247.577 200.433 247.67C200.559 247.763 200.707 247.821 200.862 247.838C201.013 247.838 215.678 249.12 227.595 265.907C237.964 280.511 247.803 292.79 265.173 301.108H269.24C250.084 292.949 239.82 280.237 228.956 264.935C218.816 250.64 206.918 247.202 202.622 246.371L217.773 229.92C228.726 236.912 239.069 244.497 240.298 249.412C242.066 256.581 250.782 265.421 254.963 269.664C256.033 270.751 256.952 271.689 257.156 271.998C258.322 273.766 265.996 278.106 267.49 278.964L267.675 279.035C269.178 279.459 278.407 281.969 285.726 281.969C289.545 281.969 292.843 281.289 294.257 279.264C296.52 276.047 303.097 270.866 308.401 266.712C312.149 263.759 315.393 261.213 316.578 259.79C316.905 259.392 318.408 258.022 320.812 255.83L327.053 262.071L279.406 301.082H282.058L328.247 263.255L336.486 271.494L303.203 301.082H305.723L338.263 272.157C338.347 272.079 338.414 271.985 338.46 271.88C338.505 271.775 338.529 271.662 338.529 271.547C338.529 271.433 338.505 271.319 338.46 271.214C338.414 271.109 338.347 271.015 338.263 270.937L329.52 262.194L369.538 229.416L383.134 240.36L332.861 285.046C331.998 285.815 331.388 286.828 331.112 287.952C330.836 289.075 330.908 290.255 331.316 291.337C331.725 292.419 332.453 293.352 333.402 294.012C334.352 294.672 335.479 295.029 336.636 295.035C337.953 295.031 339.23 294.576 340.252 293.744L392.726 248.077L393.468 248.678V245.213L392.682 245.893L385.724 240.298L393.468 233.411V231.175L384.407 239.228L370.864 228.328L393.38 209.862V207.74L369.424 227.294L360.919 220.443C372.173 210.622 383.771 200.544 393.362 192.217V189.998C386.609 195.859 373.331 207.395 359.593 219.382L342.797 205.866C357.587 191.298 377.477 171.576 380.624 167.73C385.928 161.242 388.023 142.342 382.94 133.307C379.872 127.853 372.332 125.457 364.853 124.556L393.353 97.1516L393.38 94.8708ZM384.354 241.456L391.294 247.043L339.067 292.498C338.246 293.188 337.185 293.525 336.117 293.433C335.048 293.341 334.06 292.828 333.37 292.007C332.679 291.187 332.343 290.125 332.435 289.057C332.527 287.988 333.04 287 333.86 286.31L384.354 241.456ZM282.411 135.376C284.179 133.104 287.123 129.877 290.792 126.023C292.008 124.753 293.646 123.969 295.399 123.82C297.151 123.67 298.898 124.164 300.312 125.21L335.036 150.899L307.446 177.419L271.671 148.6C277.638 141.316 282.288 135.508 282.411 135.349V135.376ZM256.36 138.434L269.293 148.848C264.396 154.815 259.047 161.224 254.583 166.413L242.207 156.901C247.051 150.713 251.869 144.366 256.36 138.434ZM222.962 142.041C227.913 135.349 234.879 126.368 237.372 123.159L255.052 137.382C250.552 143.332 245.725 149.679 240.908 155.876L222.962 142.041ZM215.342 188.46C222.034 182.272 231.555 170.621 241.208 158.218L253.487 167.686C249.35 172.442 246.141 175.898 245.054 176.526C242.11 178.214 218.94 189.68 208.164 195.01C210.675 192.765 213.097 190.564 215.351 188.46H215.342ZM217.384 227.78C211.912 224.324 206.299 221.009 201.472 218.153C199.572 217.031 197.804 215.988 196.23 215.042C194.1 213.76 191.916 212.39 189.742 210.984C193.994 207.378 198.732 203.311 203.408 199.209C204.982 198.431 241.986 180.195 245.84 177.993C247.087 177.277 250.543 173.573 254.866 168.605H254.91C255.039 168.606 255.165 168.577 255.281 168.52C255.396 168.464 255.496 168.381 255.573 168.278C255.646 168.184 255.697 168.075 255.723 167.959C255.749 167.843 255.749 167.723 255.723 167.606C260.338 162.302 265.783 155.717 270.557 149.926L306.218 178.568L287.875 196.186H287.83L259.33 231.263L233.721 211.188C233.55 211.066 233.342 211.009 233.133 211.027C232.924 211.045 232.728 211.136 232.58 211.285L217.384 227.78ZM292.781 278.345C289.872 282.5 274.084 279.158 268.117 277.461C264.723 275.543 259.171 272.157 258.446 271.079C257.705 270.166 256.905 269.304 256.051 268.497C251.975 264.36 243.498 255.741 241.818 249.049C240.466 243.63 230.096 235.913 218.834 228.717L233.296 213.017L258.932 233.181C259.108 233.307 259.324 233.364 259.539 233.341C259.754 233.318 259.954 233.217 260.099 233.058L287.848 198.9L296.529 274.332C295.154 275.543 293.901 276.888 292.79 278.345H292.781ZM320.07 254.159C317.303 256.652 315.535 258.296 315.146 258.756C314.076 260.037 310.726 262.663 307.19 265.43C304.096 267.87 300.781 270.486 298.014 272.908L289.333 197.132L307.526 179.655L340.287 205.972C331.889 214.246 325.436 220.549 325.259 220.717C325.132 220.848 325.049 221.015 325.02 221.194L320.07 254.159ZM359.629 221.566L368.089 228.381L328.211 261.036L321.917 254.742C329.573 247.865 344.194 235.047 359.638 221.566H359.629ZM358.303 220.496C344.38 232.651 330.183 245.098 322.059 252.4L326.656 221.743C327.973 220.452 334.019 214.538 341.631 207.05L358.303 220.496ZM341.507 204.805L308.799 178.453L336.441 151.933L369.857 176.685C361.901 184.65 350.692 195.753 341.489 204.805H341.507ZM381.508 134.085C386.22 142.483 384.248 160.649 379.351 166.634C378.29 167.933 375.205 171.16 371.006 175.421L337.626 150.669L363.324 126.05C371.085 126.836 378.697 129.161 381.49 134.12L381.508 134.085Z" fill="white"/>
<path d="M385.21 274.305H252.07V297.263H385.21V274.305Z" fill="white"/>
<path d="M269.8 285.267H261.039V295.282H269.8V285.267Z" fill="#7AD03A"/>
<path d="M281.905 285.055H273.145V295.282H281.905V285.055Z" fill="#7AD03A"/>
<path d="M294.007 282.765H285.246V295.282H294.007V282.765Z" fill="#7AD03A"/>
<path d="M306.112 288.608H297.352V295.283H306.112V288.608Z" fill="#7AD03A"/>
<path d="M318.214 281.925H309.453V295.283H318.214V281.925Z" fill="#7AD03A"/>
<path d="M330.319 285.894H321.559V295.282H330.319V285.894Z" fill="#7AD03A"/>
<path d="M342.424 290.27H333.664V295.282H342.424V290.27Z" fill="#7AD03A"/>
<path d="M354.535 287.769H345.766V295.283H354.535V287.769Z" fill="#7AD03A"/>
<path d="M366.632 289.855H357.871V295.283H366.632V289.855Z" fill="#7AD03A"/>
<path d="M378.737 281.925H369.977V295.283H378.737V281.925Z" fill="#7AD03A"/>
<path d="M156.941 301.117H216.169C212.111 299.172 206.011 296.113 205.269 295.008C204.155 293.338 198.02 282.73 194.661 282.173C191.302 281.616 190.197 285.523 190.197 285.523L197.445 297.245L194.661 295.565C194.661 295.565 187.96 288.308 186.289 287.194C184.619 286.08 186.289 281.616 186.846 278.265C187.403 274.915 191.266 272.687 192.424 269.894C193.582 267.101 192.424 258.729 192.424 255.944C192.424 253.16 187.403 244.78 184.053 238.079C180.703 231.378 169.546 218.551 163.403 215.758C161.328 214.905 159.144 214.348 156.914 214.105L156.941 301.117Z" fill="#CCCCCC"/>
<path d="M296.26 135.385L287.332 146.549L298.497 161.065L319.147 150.457L296.26 135.385Z" fill="#CCCCCC"/>
<path d="M307.426 185.622L294.59 197.901L299.611 225.243L313.56 229.15L318.034 217.429L331.426 204.593L307.426 185.622Z" fill="#CCCCCC"/>
<path d="M159.916 68.952H389.756C390.232 68.9508 390.703 69.0435 391.143 69.2247C391.582 69.4058 391.982 69.672 392.319 70.0078C392.655 70.3437 392.922 70.7426 393.105 71.1819C393.287 71.6211 393.381 72.092 393.381 72.5675V301.117H156.301V72.5675C156.301 72.0927 156.394 71.6226 156.576 71.1839C156.758 70.7453 157.024 70.3467 157.36 70.011C157.695 69.6752 158.094 69.4089 158.533 69.2272C158.971 69.0455 159.442 68.952 159.916 68.952Z" stroke="#263238" stroke-width="0.884" stroke-linecap="round" stroke-linejoin="round"/>
<path d="M159.916 68.952H389.756C390.232 68.9508 390.703 69.0435 391.143 69.2247C391.582 69.4058 391.982 69.672 392.319 70.0078C392.655 70.3437 392.922 70.7426 393.105 71.1819C393.287 71.6211 393.381 72.092 393.381 72.5675V113.594H156.301V72.5675C156.301 72.0927 156.394 71.6226 156.576 71.1839C156.758 70.7453 157.024 70.3467 157.36 70.011C157.695 69.6752 158.094 69.4089 158.533 69.2272C158.971 69.0455 159.442 68.952 159.916 68.952Z" fill="#7AD03A" stroke="#263238" stroke-width="0.884" stroke-linecap="round" stroke-linejoin="round"/>
<path d="M358.771 96.8776H171.805V104.692H358.771V96.8776Z" fill="white" stroke="#263238" stroke-width="0.884" stroke-linecap="round" stroke-linejoin="round"/>
<path d="M389.93 68.952H171.652V89.0542H393.377V72.3731C393.376 71.9219 393.286 71.4754 393.112 71.0591C392.938 70.6429 392.684 70.265 392.363 69.9472C392.043 69.6294 391.663 69.3779 391.246 69.2072C390.828 69.0364 390.381 68.9497 389.93 68.952Z" fill="#808080" stroke="#263238" stroke-width="0.884" stroke-linecap="round" stroke-linejoin="round"/>
<path d="M159.916 68.952H389.756C390.232 68.9508 390.703 69.0435 391.143 69.2247C391.582 69.4058 391.982 69.672 392.319 70.0078C392.655 70.3437 392.922 70.7426 393.105 71.1819C393.287 71.6211 393.381 72.092 393.381 72.5675V82.0263H156.301V72.5675C156.301 72.0927 156.394 71.6226 156.576 71.1839C156.758 70.7453 157.024 70.3467 157.36 70.011C157.695 69.6752 158.094 69.4089 158.533 69.2272C158.971 69.0455 159.442 68.952 159.916 68.952Z" fill="#263238" stroke="#263238" stroke-width="0.884" stroke-linecap="round" stroke-linejoin="round"/>
<path d="M383.618 77.5003C384.604 77.5003 385.403 76.7008 385.403 75.7146C385.403 74.7284 384.604 73.9289 383.618 73.9289C382.631 73.9289 381.832 74.7284 381.832 75.7146C381.832 76.7008 382.631 77.5003 383.618 77.5003Z" fill="white"/>
<path d="M376.243 77.5003C377.229 77.5003 378.028 76.7008 378.028 75.7146C378.028 74.7284 377.229 73.9289 376.243 73.9289C375.256 73.9289 374.457 74.7284 374.457 75.7146C374.457 76.7008 375.256 77.5003 376.243 77.5003Z" fill="white"/>
<path d="M368.876 77.5003C369.862 77.5003 370.661 76.7008 370.661 75.7146C370.661 74.7284 369.862 73.9289 368.876 73.9289C367.889 73.9289 367.09 74.7284 367.09 75.7146C367.09 76.7008 367.889 77.5003 368.876 77.5003Z" fill="white"/>
<path d="M331.415 148.512H301.978C301.43 148.511 300.886 148.618 300.379 148.827C299.871 149.036 299.41 149.343 299.022 149.731C298.634 150.119 298.326 150.579 298.115 151.086C297.905 151.593 297.797 152.136 297.797 152.685V180.336C297.797 180.885 297.905 181.428 298.115 181.935C298.326 182.442 298.634 182.902 299.022 183.29C299.41 183.677 299.871 183.984 300.379 184.193C300.886 184.403 301.43 184.51 301.978 184.509H310.686L317.086 197.132L322.964 184.535H331.415C332.522 184.535 333.583 184.095 334.366 183.313C335.148 182.53 335.588 181.469 335.588 180.363V152.685C335.588 151.578 335.148 150.517 334.366 149.734C333.583 148.952 332.522 148.512 331.415 148.512Z" fill="#263238" stroke="#263238" stroke-width="0.884" stroke-linecap="round" stroke-linejoin="round"/>
<path d="M314.034 169.48C313.557 169.48 313.265 169.737 313.265 170.418V171.434H311.842V170.55C311.842 169.021 312.611 168.154 314.078 168.154C315.546 168.154 316.306 169.038 316.306 170.55C316.306 173.538 313.327 174.661 313.327 176.225C313.319 176.293 313.319 176.361 313.327 176.429H316.156V177.79H311.824V176.614C311.824 173.812 314.794 173.352 314.794 170.603C314.812 169.728 314.512 169.48 314.034 169.48Z" fill="#7AD03A"/>
<path d="M319.425 169.48C318.947 169.48 318.647 169.737 318.647 170.418V171.434H317.233V170.55C317.233 169.021 318.002 168.154 319.469 168.154C320.936 168.154 321.697 169.038 321.697 170.55C321.697 173.538 318.718 174.661 318.718 176.225C318.709 176.293 318.709 176.361 318.718 176.429H321.546V177.79H317.215V176.614C317.215 173.812 320.185 173.352 320.185 170.603C320.203 169.728 319.902 169.48 319.425 169.48Z" fill="#7AD03A"/>
<path d="M316.696 206.449C318.497 206.449 319.958 204.989 319.958 203.187C319.958 201.386 318.497 199.925 316.696 199.925C314.894 199.925 313.434 201.386 313.434 203.187C313.434 204.989 314.894 206.449 316.696 206.449Z" fill="#7AD03A" stroke="#263238" stroke-width="0.884" stroke-linecap="round" stroke-linejoin="round"/>
<path d="M216.028 124.821C217.829 124.821 219.29 123.36 219.29 121.559C219.29 119.757 217.829 118.297 216.028 118.297C214.226 118.297 212.766 119.757 212.766 121.559C212.766 123.36 214.226 124.821 216.028 124.821Z" fill="#7AD03A" stroke="#263238" stroke-width="0.884" stroke-linecap="round" stroke-linejoin="round"/>
<path d="M262.278 202.1C262.276 202.745 262.083 203.375 261.724 203.91C261.364 204.445 260.854 204.862 260.258 205.107C259.662 205.353 259.006 205.416 258.374 205.289C257.742 205.163 257.162 204.851 256.706 204.395C256.251 203.938 255.941 203.357 255.816 202.724C255.691 202.092 255.756 201.436 256.003 200.841C256.25 200.245 256.668 199.736 257.205 199.378C257.741 199.02 258.371 198.829 259.016 198.829C259.445 198.829 259.87 198.914 260.266 199.078C260.663 199.243 261.023 199.484 261.326 199.788C261.629 200.092 261.869 200.452 262.032 200.849C262.195 201.246 262.279 201.671 262.278 202.1Z" fill="#7AD03A" stroke="#263238" stroke-width="0.884" stroke-linecap="round" stroke-linejoin="round"/>
<path d="M189.719 180.778C191.521 180.778 192.981 179.318 192.981 177.516C192.981 175.715 191.521 174.254 189.719 174.254C187.917 174.254 186.457 175.715 186.457 177.516C186.457 179.318 187.917 180.778 189.719 180.778Z" fill="#7AD03A" stroke="#263238" stroke-width="0.884" stroke-linecap="round" stroke-linejoin="round"/>
<path d="M203.253 259.622C203.253 260.269 203.061 260.901 202.701 261.439C202.342 261.977 201.831 262.396 201.233 262.644C200.636 262.891 199.978 262.956 199.344 262.83C198.709 262.704 198.126 262.392 197.669 261.935C197.211 261.477 196.9 260.895 196.774 260.26C196.648 259.626 196.712 258.968 196.96 258.37C197.207 257.773 197.627 257.262 198.165 256.902C198.702 256.543 199.335 256.351 199.982 256.351C200.849 256.351 201.681 256.696 202.295 257.309C202.908 257.923 203.253 258.754 203.253 259.622Z" fill="#7AD03A" stroke="#263238" stroke-width="0.884" stroke-linecap="round" stroke-linejoin="round"/>
<path d="M354.473 257.483C356.274 257.483 357.735 256.022 357.735 254.221C357.735 252.419 356.274 250.959 354.473 250.959C352.671 250.959 351.211 252.419 351.211 254.221C351.211 256.022 352.671 257.483 354.473 257.483Z" fill="#7AD03A" stroke="#263238" stroke-width="0.884" stroke-linecap="round" stroke-linejoin="round"/>
<path d="M371.192 157.007C372.993 157.007 374.454 155.547 374.454 153.745C374.454 151.944 372.993 150.483 371.192 150.483C369.39 150.483 367.93 151.944 367.93 153.745C367.93 155.547 369.39 157.007 371.192 157.007Z" fill="#7AD03A" stroke="#263238" stroke-width="0.884" stroke-linecap="round" stroke-linejoin="round"/>
<path d="M353.699 125.369C355.501 125.369 356.961 123.908 356.961 122.107C356.961 120.305 355.501 118.845 353.699 118.845C351.898 118.845 350.438 120.305 350.438 122.107C350.438 123.908 351.898 125.369 353.699 125.369Z" fill="#7AD03A" stroke="#263238" stroke-width="0.884" stroke-linecap="round" stroke-linejoin="round"/>
<path d="M362.6 206.661C362.6 207.309 362.408 207.941 362.048 208.48C361.689 209.018 361.177 209.437 360.579 209.684C359.981 209.931 359.323 209.996 358.688 209.869C358.053 209.742 357.471 209.429 357.013 208.971C356.556 208.513 356.246 207.929 356.12 207.294C355.995 206.659 356.061 206.001 356.31 205.404C356.559 204.806 356.98 204.296 357.519 203.938C358.058 203.579 358.691 203.389 359.338 203.391C359.767 203.391 360.192 203.475 360.589 203.64C360.985 203.804 361.345 204.045 361.648 204.349C361.951 204.653 362.191 205.014 362.354 205.41C362.518 205.807 362.601 206.232 362.6 206.661Z" fill="#7AD03A" stroke="#263238" stroke-width="0.884" stroke-linecap="round" stroke-linejoin="round"/>
<path d="M272.617 175.978C274.419 175.978 275.879 174.517 275.879 172.716C275.879 170.914 274.419 169.454 272.617 169.454C270.816 169.454 269.355 170.914 269.355 172.716C269.355 174.517 270.816 175.978 272.617 175.978Z" fill="#7AD03A" stroke="#263238" stroke-width="0.884" stroke-linecap="round" stroke-linejoin="round"/>
<path d="M84.4202 315.588C84.4202 315.588 86.4093 337.688 87.0723 342.329C87.7353 346.97 84.8622 349.843 81.9893 352.937C79.1163 356.031 78.0113 362.44 78.0113 367.302C78.0113 372.164 77.3483 396.474 77.3483 398.021C77.3483 399.568 76.9062 403.325 76.9062 403.325C76.9062 403.325 83.9783 403.104 84.8622 403.104C85.7463 403.104 89.0612 390.507 89.9453 386.971C90.8293 383.435 97.6803 361.114 100.332 354.926C102.984 348.738 102.984 344.097 104.089 341.666C105.194 339.235 106.52 319.345 106.52 319.345C106.52 319.345 118.454 340.34 118.896 343.213C119.338 346.086 119.559 346.749 118.454 349.18C117.349 351.611 114.918 356.031 115.139 365.534C115.36 375.037 120.576 391.851 120.576 391.851L121.239 402.238C121.239 402.238 125.217 403.785 127.206 404.669C129.195 405.553 132.289 400.912 132.289 400.912C132.289 400.912 132.156 393.159 131.935 387.413C131.714 381.667 133.261 360.893 134.145 357.357C135.029 353.821 136.355 346.086 135.471 341.224C134.587 336.362 131.714 314.041 131.714 314.041C131.714 314.041 98.1222 316.03 93.9233 315.367C89.7242 314.704 84.1993 314.483 84.1993 314.483L84.4202 315.588Z" fill="#263238" stroke="#263238" stroke-width="0.884" stroke-linecap="round" stroke-linejoin="round"/>
<path d="M88.8405 395.811L90.1665 402.662C90.1665 402.662 95.6915 407.303 97.9015 409.071C100.112 410.839 101.438 410.397 101.438 411.944C101.438 413.491 99.8905 415.922 96.1335 416.585C92.3765 417.248 87.2935 416.364 83.0945 415.038C80.706 414.343 78.5752 412.959 76.9684 411.06C76.9684 411.06 74.6523 411.599 74.6523 408.947C74.6523 406.295 76.5618 400.284 76.5618 400.284C76.5618 400.284 75.6778 396.996 76.5618 396.554C77.4458 396.112 80.4425 399.347 80.4425 399.347C80.4425 399.347 80.8845 391.612 88.8405 395.811Z" fill="white" stroke="#263238" stroke-width="0.884" stroke-linecap="round" stroke-linejoin="round"/>
<path d="M101.324 412.704C100.87 412.567 100.382 412.592 99.9446 412.775C97.5254 414.14 94.8056 414.883 92.0287 414.938C89.2518 414.994 86.5044 414.36 84.0326 413.093C78.8258 410.6 76.165 408.099 74.9186 406.631C74.7588 407.403 74.6671 408.186 74.6445 408.974C74.6445 411.626 76.9606 411.087 76.9606 411.087C78.5734 412.977 80.707 414.352 83.0956 415.038C87.2946 416.364 92.3776 417.248 96.1346 416.585C99.317 416.019 100.908 414.189 101.324 412.704Z" fill="#D2F4DC" stroke="#263238" stroke-width="0.884" stroke-linecap="round" stroke-linejoin="round"/>
<path d="M134.228 395.608C133.589 395.488 132.928 395.581 132.346 395.873C131.765 396.166 131.296 396.641 131.011 397.225C130.021 399.303 129.03 402.079 129.03 402.079C127.361 401.925 125.708 401.629 124.089 401.195C123.339 400.775 122.669 400.228 122.109 399.577C122.109 399.577 120.129 395.652 118.891 397.04C117.653 398.428 120.129 403.042 120.129 403.042C120.129 403.042 118.148 406.737 118.148 409.053C118.205 410.638 118.54 412.2 119.139 413.668C121.493 414.206 123.894 414.517 126.308 414.596C129.526 414.596 129.773 413.668 133.238 413.668C136.704 413.668 145.614 415.745 148.576 415.056C151.537 414.366 154.269 412.28 154.021 410.901C153.774 409.522 143.625 406.048 140.408 403.97C137.19 401.893 136.704 402.123 136.209 401.195C135.714 400.266 134.228 395.608 134.228 395.608Z" fill="white" stroke="#263238" stroke-width="0.884" stroke-linecap="round" stroke-linejoin="round"/>
<path d="M154.032 411.06C150.62 414.508 146.076 413.977 142.222 413.199C137.481 412.12 132.615 411.698 127.759 411.944C124.671 412.121 121.573 412.018 118.504 411.635C118.666 412.31 118.879 412.972 119.14 413.615C121.495 414.153 123.896 414.464 126.31 414.543C129.527 414.543 129.775 413.615 133.24 413.615C136.705 413.615 145.616 415.692 148.578 415.003C151.398 414.348 153.988 412.448 154.032 411.06Z" fill="#7AD03A" stroke="#263238" stroke-width="0.884" stroke-linecap="round" stroke-linejoin="round"/>
<path d="M79.3388 307.632L78.6758 317.497C78.6758 317.497 95.2508 321.254 108.953 320.865C122.655 320.476 137.241 314.73 137.241 314.73L134.368 304.441C134.368 304.441 104.091 304.246 98.1238 303.848C92.1568 303.451 88.3998 299.296 86.1898 299.888C83.9798 300.48 81.3278 307.411 81.3278 307.411L79.3388 307.632Z" fill="white" stroke="#263238" stroke-width="0.884" stroke-linecap="round" stroke-linejoin="round"/>
<path d="M134.369 297.245L136.358 307.411C136.358 307.411 132.159 309.842 119.341 310.947C106.523 312.052 90.169 310.505 90.169 310.505L87.075 303.875L85.97 311.61H79.561C78.9424 311.626 78.3312 311.473 77.793 311.168L79.782 302.991C79.782 302.991 80.666 294.814 84.865 292.825C89.064 290.836 92.6 293.046 95.473 295.698C98.346 298.35 101.661 297.908 106.302 297.908C110.943 297.908 130.612 295.919 130.612 295.919C130.612 295.919 133.927 294.814 134.369 297.245Z" fill="#969696" stroke="#263238" stroke-width="0.884" stroke-linecap="round" stroke-linejoin="round"/>
<path d="M127.739 222.105C127.739 222.105 135.695 242.437 139.01 249.73C142.325 257.023 145.419 265.421 144.977 270.062C144.535 274.703 139.01 286.858 139.01 286.858C139.01 286.858 133.706 251.94 132.601 248.404C131.496 244.868 126.413 225.199 126.413 225.199C126.413 225.199 124.203 221 127.739 222.105Z" fill="#7AD03A" stroke="#263238" stroke-width="0.884" stroke-linecap="round" stroke-linejoin="round"/>
<path d="M84.3472 214.397C84.3472 214.397 79.7062 219.214 78.2741 225.102C76.842 230.989 75.7812 304.494 75.7812 305.74C75.7812 306.987 81.0853 304.131 82.1991 303.601C83.3129 303.071 87.7329 294.681 87.7329 294.681L89.8722 303.239C89.8722 303.239 99.6846 302.169 107.897 302.169C116.109 302.169 137.688 300.206 137.688 300.206C137.688 300.206 139.65 288.255 139.456 281.828C139.261 275.401 137.909 265.244 137.909 263.635C137.909 262.026 131.128 228.134 128.636 223.139C126.143 218.145 122.925 213.681 122.386 213.327C121.846 212.973 115.429 209.216 109.364 208.907C103.3 208.598 99.1984 206.944 93.8414 209.446C88.4843 211.948 84.3472 214.397 84.3472 214.397Z" fill="#7AD03A" stroke="#263238" stroke-width="0.884" stroke-linecap="round" stroke-linejoin="round"/>
<path d="M119.129 236.337C119.129 236.337 122.161 253.823 123.054 259.71C123.947 265.598 125.909 288.608 125.909 292.003V300.03" stroke="#263238" stroke-width="0.884" stroke-linecap="round" stroke-linejoin="round"/>
<path d="M113.781 243.834C113.781 243.834 117.167 261.319 118.953 271.839C120.738 282.358 120.226 297.351 120.226 297.351" stroke="#263238" stroke-width="0.884" stroke-linecap="round" stroke-linejoin="round"/>
<path d="M94.5078 245.257L109.854 243.834L110.384 247.219L95.5775 248.466" stroke="#263238" stroke-width="0.884" stroke-linecap="round" stroke-linejoin="round"/>
<path d="M132.869 241.686L123.949 242.402L124.665 245.434L132.515 244.727" stroke="#263238" stroke-width="0.884" stroke-linecap="round" stroke-linejoin="round"/>
<path d="M107.176 198.334C107.176 198.334 98.9637 196.734 96.4708 197.804C93.978 198.873 91.653 203.152 90.937 204.584C90.221 206.016 82.7335 209.004 82.1942 211.179C81.655 213.353 82.0174 216.889 82.9103 217.782C83.8031 218.675 88.9745 218.321 90.2298 218.666C91.4851 219.011 108.246 230.087 111.101 231.873C113.956 233.659 118.951 236.152 119.667 235.409C120.383 234.667 124.838 223.652 125.528 218.498C126.217 213.345 125.342 212.072 123.026 207.793C120.71 203.514 111.455 198.9 107.176 198.334Z" fill="#263238" stroke="#263238" stroke-width="0.884" stroke-linecap="round" stroke-linejoin="round"/>
<path d="M104.673 184.243C104.673 184.243 105.929 192.093 105.929 194.233C105.929 196.372 102.543 206.547 102.543 206.547C102.543 206.547 109.323 221.177 113.071 225.279C116.82 229.38 118.605 230.273 118.605 230.273C118.605 230.273 119.136 221.884 119.675 217.959C120.214 214.034 125.863 202.56 125.863 202.56C125.863 202.56 117.368 203.868 116.298 198.334C115.228 192.8 115.582 187.991 114.53 185.136C113.478 182.281 106.822 182.988 104.673 184.243Z" fill="white" stroke="#263238" stroke-width="0.884" stroke-linecap="round" stroke-linejoin="round"/>
<path d="M116.735 199.934L112.66 199.174L112.996 202.71C112.996 202.71 115.507 209.243 120.201 212.593C120.446 212.768 120.699 212.93 120.961 213.079C121.933 210.268 125.841 202.577 125.841 202.577C125.841 202.577 118.459 204.611 116.735 199.934Z" fill="#263238" stroke="#263238" stroke-width="0.884" stroke-linecap="round" stroke-linejoin="round"/>
<path d="M131.091 182.051L130.808 186.948C130.808 186.948 135.228 190.148 135.67 191.695C136.112 193.242 133.531 195.231 133.531 195.231C133.531 195.231 133.133 203.682 132.399 205.008C131.665 206.334 127.979 206.441 125.946 206.458C123.913 206.476 113.826 203.576 112.085 202.038C110.343 200.5 108.239 194.966 108.239 194.966C108.239 194.966 106.012 187.072 105.667 185.87C105.322 184.668 106.551 183.023 111.855 181.353C117.159 179.682 131.374 179.753 131.091 182.051Z" fill="white" stroke="#263238" stroke-width="0.884" stroke-linecap="round" stroke-linejoin="round"/>
<path d="M107.245 187.806C107.245 187.806 108.465 190.529 110.781 188.814C112.235 187.544 113.206 185.811 113.53 183.907L100.023 187.567C100.023 187.567 98.9706 193.066 101.092 195.682C103.214 198.299 106.308 196.814 106.131 194.568C105.954 192.323 107.245 187.806 107.245 187.806Z" fill="#263238" stroke="#263238" stroke-width="0.884" stroke-linecap="round" stroke-linejoin="round"/>
<path d="M129.84 198.016C129.84 198.016 126.897 198.104 125.164 196.549" stroke="#263238" stroke-width="0.884" stroke-linecap="round" stroke-linejoin="round"/>
<path d="M126.645 187.293C126.874 188.098 126.751 188.84 126.371 188.946C125.99 189.052 125.487 188.487 125.266 187.682C125.045 186.878 125.168 186.135 125.548 186.029C125.929 185.923 126.415 186.524 126.645 187.293Z" fill="#263238"/>
<path d="M99.8041 188.106C99.8041 188.106 107.76 186.78 117.387 184.067C127.014 181.353 131.195 179.797 131.195 179.797L126.899 166.236C126.381 165.049 125.434 164.102 124.247 163.584C121.497 162.347 115.787 162.63 111.676 163.266C105.815 164.15 101.28 165.838 98.9378 170.02C97.1292 173.434 96.6625 177.4 97.6294 181.14C98.2748 183.342 99.8041 188.106 99.8041 188.106Z" fill="#263238" stroke="#263238" stroke-width="0.884" stroke-linecap="round" stroke-linejoin="round"/>
<path d="M114.125 184.986C114.125 184.986 128.738 184.199 134.324 182.997C139.911 181.795 144.517 175.112 144.517 175.112L131.133 176.88C124.757 177.74 118.809 180.574 114.125 184.986Z" fill="#263238" stroke="#263238" stroke-width="0.884" stroke-linecap="round" stroke-linejoin="round"/>
<path d="M108.575 188.964C108.575 188.964 107.338 185.233 104.155 186.498C100.973 187.762 102.732 193.95 105.101 196.425C107.47 198.9 110.405 195.488 110.405 195.488" fill="white"/>
<path d="M108.575 188.964C108.575 188.964 107.338 185.233 104.155 186.498C100.973 187.762 102.732 193.95 105.101 196.425C107.47 198.9 110.405 195.488 110.405 195.488" stroke="#263238" stroke-width="0.884" stroke-linecap="round" stroke-linejoin="round"/>
<path d="M124.125 264.316L139.675 252.691C139.779 252.616 139.908 252.581 140.037 252.594L150.937 253.637C151.069 253.651 151.193 253.706 151.293 253.795C151.392 253.883 151.461 254 151.49 254.13C151.52 254.26 151.508 254.395 151.456 254.518C151.404 254.64 151.315 254.744 151.202 254.813L137.341 263.096L124.125 264.316Z" fill="#263238" stroke="#263238" stroke-width="0.884" stroke-linecap="round" stroke-linejoin="round"/>
<path d="M114.487 265.059C116.01 264.918 117.449 264.299 118.598 263.291C120.198 261.682 123.018 256.864 124.3 256.51C127.242 255.857 130.221 255.379 133.219 255.078C134.475 255.078 135.182 255.962 134.103 257.041C133.025 258.119 128.039 260.435 128.039 260.435L127.509 262.203C127.509 262.203 141.06 260.603 142.139 260.603C142.598 260.634 143.03 260.83 143.355 261.156C143.68 261.481 143.876 261.912 143.907 262.371C143.907 263.078 141.052 265.227 140.168 266.111C137.955 267.979 135.628 269.709 133.202 271.291C131.955 271.998 119.111 270.928 118.58 270.928C118.05 270.928 114.293 271.812 114.293 271.812L114.487 265.059Z" fill="white" stroke="#263238" stroke-width="0.884" stroke-linecap="round" stroke-linejoin="round"/>
<path d="M142.327 263.989C142.327 263.989 136.616 265.244 135.37 265.951C134.123 266.659 129.836 265.951 129.836 265.951" stroke="#263238" stroke-width="0.884" stroke-linecap="round" stroke-linejoin="round"/>
<path d="M138.214 267.56L134.289 268.807L130.188 268.984" stroke="#263238" stroke-width="0.884" stroke-linecap="round" stroke-linejoin="round"/>
<path d="M94.1547 231.166C94.3315 234.375 90.4065 253.823 90.4065 253.823L91.2905 256.678V257.394L116.087 264.166C116.087 264.166 116.087 270.946 115.017 273.978C114.179 276.728 113.524 279.531 113.055 282.367C113.055 282.367 102.173 279.715 93.253 276.657C84.3334 273.598 70.4104 269.169 67.7407 266.128C65.0711 263.087 66.6711 255.432 67.0247 254.177C67.3783 252.921 77.3675 226.702 79.33 223.139C81.2925 219.577 84.1478 216.182 87.8959 217.252C91.6441 218.321 94.4994 223.139 94.853 225.279" fill="#7AD03A"/>
<path d="M94.1547 231.166C94.3315 234.375 90.4065 253.823 90.4065 253.823L91.2905 256.678V257.394L116.087 264.166C116.087 264.166 116.087 270.946 115.017 273.978C114.179 276.728 113.524 279.531 113.055 282.367C113.055 282.367 102.173 279.715 93.253 276.657C84.3334 273.598 70.4104 269.169 67.7407 266.128C65.0711 263.087 66.6711 255.432 67.0247 254.177C67.3783 252.921 77.3675 226.702 79.33 223.139C81.2925 219.577 84.1478 216.182 87.8959 217.252C91.6441 218.321 94.4994 223.139 94.853 225.279" stroke="#263238" stroke-width="0.884" stroke-linecap="round" stroke-linejoin="round"/>
<path d="M77.9453 258.004C79.3055 257.199 80.7343 256.515 82.215 255.962C83.8239 255.609 90.065 257.032 90.065 257.032" stroke="#263238" stroke-width="0.884" stroke-linecap="round" stroke-linejoin="round"/>
<path d="M72.7422 260.957C72.7422 260.957 74.245 260.073 76.0749 259.039" stroke="#263238" stroke-width="0.884" stroke-linecap="round" stroke-linejoin="round"/>
<path d="M83.8821 252.037C83.0062 251.621 82.0787 251.324 81.124 251.153C79.8776 251.153 74.3438 253.805 74.3438 253.805" stroke="#263238" stroke-width="0.884" stroke-linecap="round" stroke-linejoin="round"/>
<path d="M88.6189 254.177C88.6189 254.177 87.5935 253.682 86.2852 253.089" stroke="#263238" stroke-width="0.884" stroke-linecap="round" stroke-linejoin="round"/>
</svg>
