<svg width="32" height="32" viewBox="0 0 32 32" fill="none" xmlns="http://www.w3.org/2000/svg">
<path d="M18.1569 28.4892C17.5788 29.0305 16.8059 29.3332 16.0015 29.3332C15.1971 29.3332 14.4243 29.0305 13.846 28.4892C8.55069 23.5012 1.45435 17.929 4.91503 9.83938C6.78617 5.46538 11.2778 2.6665 16.0015 2.6665C20.7252 2.6665 25.2168 5.46538 27.088 9.83938C30.5443 17.9189 23.4653 23.5184 18.1569 28.4892Z" fill="#7AD03A" stroke="#7AD03A" stroke-width="2"/>
<path d="M20.6663 14.6667C20.6663 17.244 18.577 19.3333 15.9997 19.3333C13.4223 19.3333 11.333 17.244 11.333 14.6667C11.333 12.0893 13.4223 10 15.9997 10C18.577 10 20.6663 12.0893 20.6663 14.6667Z" stroke="#081E25" stroke-width="2"/>
</svg>
