<svg width="33" height="32" viewBox="0 0 33 32" fill="none" xmlns="http://www.w3.org/2000/svg">
<path d="M29.8337 13.3332V12.2898C29.8337 9.70366 29.8337 8.4106 29.0526 7.60717C28.2715 6.80376 27.0145 6.80376 24.5003 6.80376H21.7289C20.5057 6.80376 20.4955 6.80138 19.3957 6.25096L14.9535 4.02802C13.0988 3.09989 12.1714 2.63582 11.1835 2.66808C10.1956 2.70033 9.29869 3.22394 7.50493 4.27118L5.86777 5.227C4.55018 5.99622 3.89138 6.38085 3.52918 7.02069C3.16699 7.66054 3.16699 8.43974 3.16699 9.99814V20.9541C3.16699 23.0017 3.16699 24.0256 3.62334 24.5954C3.92701 24.9745 4.35254 25.2294 4.82299 25.314C5.53001 25.4409 6.39563 24.9356 8.12682 23.9248C9.30241 23.2385 10.4338 22.5257 11.8402 22.719C13.0186 22.8809 14.1137 23.6245 15.167 24.1516" stroke="#7AD03A" stroke-width="2" stroke-linecap="round" stroke-linejoin="round"/>
<path d="M11.167 2.6665V22.6665" stroke="#7AD03A" stroke-width="2" stroke-linejoin="round"/>
<path d="M20.5 6.66675V12.6667" stroke="#7AD03A" stroke-width="2" stroke-linecap="round" stroke-linejoin="round"/>
<path d="M24.9107 28.9113C24.6217 29.182 24.2353 29.3333 23.8331 29.3333C23.431 29.3333 23.0446 29.182 22.7555 28.9113C20.1081 26.4173 16.5603 23.6313 18.2905 19.5864C19.2259 17.3995 21.4715 16 23.8331 16C26.1947 16 28.4403 17.3995 29.3758 19.5864C31.1038 23.6261 27.5647 26.4259 24.9107 28.9113Z" stroke="#7AD03A" stroke-width="2"/>
<path d="M23.833 22H23.845" stroke="#7AD03A" stroke-width="2.66667" stroke-linecap="round" stroke-linejoin="round"/>
</svg>
