<svg width="40" height="40" viewBox="0 0 40 40" fill="none" xmlns="http://www.w3.org/2000/svg">
<path d="M4.16699 19.9998C4.16699 12.5359 4.16699 8.80399 6.48573 6.48524C8.80448 4.1665 12.5364 4.1665 20.0003 4.1665C27.4643 4.1665 31.1961 4.1665 33.515 6.48524C35.8336 8.80399 35.8336 12.5359 35.8336 19.9998C35.8336 27.4637 35.8336 31.1957 33.515 33.5145C31.1961 35.8332 27.4643 35.8332 20.0003 35.8332C12.5364 35.8332 8.80448 35.8332 6.48573 33.5145C4.16699 31.1957 4.16699 27.4637 4.16699 19.9998Z" stroke="#E9F7DE" stroke-width="2" stroke-linecap="round" stroke-linejoin="round"/>
<path d="M13.9726 14.9158C13.9726 11.5871 16.6711 8.88867 19.9998 8.88867C23.3284 8.88867 26.0269 11.5871 26.0269 14.9158C26.0269 20.1911 26.2899 22.8282 31.1109 24.938C28.6418 25.5553 28.0244 26.1727 27.4072 28.6418C23.0862 28.6418 22.4689 31.1109 19.9998 31.1109C17.5306 31.1109 16.9134 28.6418 12.5924 28.6418C11.9751 26.1727 11.3578 25.5553 8.88867 24.938C13.7097 22.8282 13.9726 20.1911 13.9726 14.9158Z" stroke="#E9F7DE" stroke-width="1.66667" stroke-linecap="round" stroke-linejoin="round"/>
<path d="M8.88867 24.4443C13.1371 22.1299 13.1371 19.9446 9.95077 16.6665" stroke="#E9F7DE" stroke-width="1.66667" stroke-linecap="round"/>
<path d="M31.1107 24.4443C26.8623 22.1299 26.8623 19.9446 30.0486 16.6665" stroke="#E9F7DE" stroke-width="1.66667" stroke-linecap="round"/>
</svg>
