<svg width="50" height="50" viewBox="0 0 50 50" fill="none" xmlns="http://www.w3.org/2000/svg">
<path d="M27.1941 34.9335L22.9303 45.1169C22.6745 45.7429 21.9021 45.785 21.7282 45.1777L20.9673 42.5285C20.8535 42.1415 20.4688 41.9843 20.1159 42.1806L17.718 43.54C17.1695 43.8516 16.647 43.2814 16.9028 42.6553L21.1666 32.4727L27.1941 34.9335Z" fill="#B4EB52"/>
<path d="M29.6902 32.0498L32.6757 45.9092C32.8177 46.5708 32.2032 47.0397 31.7177 46.6368L29.5967 44.8759C29.2851 44.6201 28.8778 44.7071 28.6981 45.0686L27.4815 47.5418C27.2032 48.1085 26.451 47.9317 26.3097 47.2701L23.3242 33.4107L29.6902 32.0498Z" fill="#B4EB52"/>
<path d="M41.9467 22.0129C41.9467 22.7455 41.4105 23.4853 40.4822 23.4781H40.475C39.1192 23.4781 38.5025 25.1737 39.5467 26.044C39.9235 26.3556 40.083 26.7542 40.083 27.1382C40.083 28.052 39.1916 28.9223 38.1192 28.5237C37.9445 28.4585 37.7706 28.4295 37.604 28.4295C36.5605 28.4295 35.7699 29.6035 36.3648 30.6179C36.5098 30.8723 36.575 31.1187 36.575 31.365C36.575 32.4745 35.1967 33.323 34.175 32.4527C33.8924 32.2136 33.5663 32.1049 33.2474 32.1049C32.4134 32.1049 31.63 32.8513 31.804 33.8223C31.8257 33.9245 31.8329 34.0187 31.8329 34.1201C31.8329 35.5194 29.8764 36.1281 29.1221 34.8013C28.999 34.5765 28.8175 34.3891 28.5967 34.259C28.3759 34.1289 28.124 34.0609 27.8677 34.0621C27.2156 34.0621 26.5634 34.4969 26.4322 35.2723C26.2945 36.0774 25.6496 36.4839 25.0047 36.4839C24.3518 36.4839 23.7061 36.0781 23.5685 35.273C23.438 34.4977 22.7858 34.0629 22.1337 34.0629C21.6482 34.0629 21.1619 34.302 20.8793 34.802C20.5895 35.3165 20.1185 35.5339 19.6467 35.5339C18.8206 35.5339 18.0083 34.8455 18.1967 33.823C18.2112 33.7288 18.2185 33.6419 18.2185 33.5549C18.2185 32.3658 16.7909 31.6339 15.8257 32.4534C15.5286 32.7071 15.2098 32.8085 14.8982 32.8085C13.8909 32.8085 13.0061 31.6919 13.6373 30.6187C13.7822 30.3795 13.8402 30.1259 13.8402 29.8868C13.8402 28.9513 12.8974 28.1462 11.8822 28.5237C11.7011 28.589 11.5199 28.6252 11.3532 28.6252C10.1061 28.6252 9.34527 26.965 10.4547 26.044C10.817 25.7397 10.9764 25.3411 10.9764 24.9426C10.9764 24.1955 10.4112 23.4708 9.51918 23.4781H9.50469C7.88802 23.4781 7.48875 21.2158 9.01918 20.665C9.66411 20.4332 9.98295 19.8679 9.98295 19.3027C9.98295 18.7295 9.66411 18.1563 9.01918 17.9317C8.35904 17.6926 8.05469 17.1419 8.05469 16.5839C8.05469 15.8513 8.59092 15.1114 9.51846 15.1187H9.5257C10.8815 15.1187 11.4982 13.423 10.454 12.5527C10.0772 12.2411 9.91773 11.8426 9.91773 11.4585C9.91773 10.5448 10.809 9.67447 11.8822 10.073C12.0561 10.1382 12.2301 10.1672 12.3967 10.1672C13.4409 10.1672 14.2315 8.99331 13.6366 7.97881C13.4916 7.72446 13.4264 7.47809 13.4264 7.23171C13.4264 6.12229 14.8032 5.27374 15.8257 6.14403C16.1083 6.38316 16.4344 6.49186 16.754 6.49186C17.5873 6.49186 18.3706 5.74548 18.196 4.77447C18.175 4.67302 18.167 4.57809 18.167 4.47664C18.167 3.07809 20.125 2.46867 20.8793 3.79548C21.1619 4.29548 21.6474 4.53461 22.1329 4.53461C22.7851 4.53461 23.438 4.09983 23.5685 3.32447C23.7061 2.51939 24.3511 2.12012 25.004 2.12012C25.6489 2.12012 26.2938 2.51867 26.4322 3.32374C26.6569 4.66504 28.4474 4.98389 29.1221 3.79475C29.4119 3.28026 29.8829 3.06287 30.354 3.06287C31.18 3.06287 31.9924 3.75128 31.804 4.77374C31.7895 4.86794 31.7822 4.9549 31.7822 5.04186C31.7822 6.23099 33.2105 6.96287 34.175 6.14331C34.4721 5.88968 34.7909 5.78823 35.1025 5.78823C36.1098 5.78823 36.9945 6.9049 36.3641 7.97809C36.2192 8.21722 36.1612 8.47084 36.1612 8.70997C36.1612 9.64548 37.1032 10.4506 38.1185 10.073C38.2996 10.0078 38.4808 9.97157 38.6474 9.97157C39.8945 9.97157 40.6561 11.6317 39.5467 12.5527C39.1844 12.8571 39.025 13.2556 39.025 13.6542C39.025 14.4013 39.5902 15.1259 40.4815 15.1187H40.496C42.1134 15.1187 42.5119 17.381 40.9815 17.9317C40.3438 18.1563 40.0177 18.7288 40.0177 19.302C40.0177 19.8672 40.3438 20.4324 40.9815 20.6643C41.6416 20.9042 41.9467 21.4549 41.9467 22.0136V22.0129Z" fill="#B4EB52"/>
<path d="M37.7411 19.3028C37.7411 26.3391 32.0353 32.0492 24.9991 32.0492C17.9629 32.0492 12.2578 26.3391 12.2578 19.3028C12.2578 12.2666 17.9629 6.56152 24.9991 6.56152C32.0353 6.56152 37.7411 12.2666 37.7411 19.3028Z" fill="#EFEFEF"/>
<path d="M14.6758 17.6475L24.9345 27.9446L35.3048 17.6475L29.1722 19.5438H20.7714L14.6758 17.6475Z" fill="#B4EB52"/>
<path d="M14.6758 17.6473L19.1736 13.7646H30.8077L35.3048 17.6473L29.1722 19.5436H20.7714L14.6758 17.6473Z" fill="#B4EB52"/>
<path d="M24.9404 27.9444L29.1781 19.5436L24.9962 13.7646L20.7773 19.5436L24.9404 27.9444Z" fill="#B4EB52"/>
<path d="M31.1848 38.9863C31.1383 38.9963 31.0941 39.0153 31.055 39.0424C31.0158 39.0694 30.9823 39.1039 30.9565 39.1439C30.9306 39.1838 30.9129 39.2285 30.9044 39.2753C30.8958 39.3222 30.8965 39.3702 30.9065 39.4167L31.2689 41.1052C31.2889 41.1991 31.3455 41.2813 31.4262 41.3335C31.5068 41.3858 31.6049 41.4039 31.6989 41.3838C31.7929 41.3637 31.8751 41.3071 31.9273 41.2264C31.9796 41.1458 31.9976 41.0477 31.9775 40.9537L31.6152 39.2653C31.5949 39.1714 31.5382 39.0893 31.4576 39.037C31.3769 38.9848 31.2788 38.9665 31.1848 38.9863Z" fill="#414141"/>
<path d="M41.1039 20.3285C40.1111 19.9661 40.1474 18.6082 41.0966 18.2705C43.001 17.5893 42.5314 14.756 40.4662 14.756C39.4553 14.756 38.9901 13.4915 39.7706 12.8357C41.3053 11.5567 39.9735 9.05166 37.988 9.73426C37.064 10.0792 36.1437 9.06108 36.6691 8.1618C37.7111 6.40963 35.4604 4.54296 33.9372 5.87194C33.1764 6.49658 32.0336 5.92484 32.1546 4.84296C32.5242 2.83137 29.8061 1.8676 28.7995 3.61832C28.2959 4.51252 26.9474 4.26325 26.7851 3.26325C26.4329 1.25093 23.5553 1.26108 23.2053 3.26325C23.0401 4.27774 21.6872 4.51905 21.1909 3.61832C20.1727 1.82557 17.4177 2.88861 17.8358 4.83571C18.0184 5.86325 16.8082 6.50963 16.0532 5.87194C14.8503 4.82339 13.0604 5.75021 13.0604 7.23426C13.0604 8.16905 13.7995 8.4118 13.3285 9.24876C12.7807 10.1959 11.8735 9.61108 11.343 9.61108C9.71766 9.61108 8.87998 11.7415 10.2198 12.8357C10.9923 13.477 10.5546 14.756 9.50245 14.756C7.5068 14.756 6.95752 17.5632 8.89375 18.2777C9.84448 18.5988 9.87491 19.9654 8.89375 20.3285C6.99085 21.0082 7.45317 23.843 9.53143 23.843C10.5314 23.843 11.0003 25.1067 10.2198 25.7632C8.68868 27.0386 10.0126 29.5488 12.0024 28.8647C12.9459 28.5118 13.8466 29.5734 13.3213 30.4372C12.5539 31.7256 13.5814 33.169 14.8938 33.169C15.8858 33.169 16.0343 32.4661 16.7488 32.4661C17.3177 32.4661 17.9256 32.9422 17.8358 33.756C17.6329 34.8574 18.38 35.7147 19.3358 35.8719L16.5604 42.5169C16.4082 42.8792 16.4445 43.2777 16.6401 43.5748C17.6307 45.035 20.3648 41.7618 20.6111 42.6256L21.372 45.2777C21.6503 46.227 22.8829 46.1879 23.2561 45.256L24.7416 41.7125C25.9901 46.5386 25.5865 48.2415 26.9735 48.2415C27.8967 48.2415 27.9133 47.1908 29.0169 45.2343C29.0532 45.1618 29.1039 45.1111 29.1691 45.0966C29.2271 45.0821 29.2995 45.1038 29.3575 45.1545L31.4807 46.9154C31.8068 47.1835 32.2198 47.227 32.5677 47.0169C32.9445 46.785 33.1256 46.314 33.0242 45.8357L32.343 42.6401C32.3225 42.547 32.2661 42.4659 32.186 42.4143C32.1059 42.3627 32.0087 42.3449 31.9155 42.3647C31.7198 42.4009 31.5894 42.5966 31.6329 42.7922L32.314 45.9879C32.3575 46.1908 32.2851 46.343 32.1908 46.4009C32.1111 46.4444 32.0314 46.4299 31.9445 46.3574L29.8213 44.5966C29.5822 44.4009 29.2923 44.3285 29.0169 44.3864C28.7416 44.4444 28.5024 44.6401 28.3648 44.9082C26.3372 48.8959 27.1909 49.0364 25.2271 40.5459L24.4082 36.756C25.4387 37.0995 26.5966 36.4951 26.7851 35.3357C26.8778 34.7524 27.3778 34.4227 27.8648 34.4227C28.9582 34.4227 28.7372 35.7415 30.1474 35.8864C30.5293 37.1843 30.3764 38.1437 30.9807 38.0096C31.5764 37.8988 31.0459 37.0502 30.872 35.8212C31.8119 35.5495 32.3459 34.6567 32.1546 33.7632C31.972 32.7372 33.188 32.0944 33.9372 32.727C35.4401 34.0386 37.7068 32.2538 36.6691 30.4372C36.1481 29.5444 37.0524 28.5205 37.988 28.8647C39.9293 29.5763 41.3271 27.0415 39.7706 25.7705C38.9981 25.1154 39.4365 23.843 40.4879 23.843C42.4952 23.843 43.0365 21.0292 41.1039 20.3285ZM24.4735 40.4806L22.5894 44.9806C22.43 45.3647 22.1329 45.3067 22.0677 45.0748C21.359 43.1531 21.5387 41.7343 20.4155 41.7343C19.6365 41.7343 16.7104 44.193 17.2271 42.7922L20.1474 35.8285C20.5822 35.7053 20.9517 35.4082 21.1909 34.9806C21.6865 34.0799 23.0401 34.3212 23.2053 35.3357C23.2561 35.6545 23.3793 35.9227 23.5387 36.1328L24.4735 40.4806ZM40.4735 23.1183C38.7756 23.1183 38.0003 25.2451 39.314 26.3212C40.243 27.1089 39.4024 28.6111 38.2416 28.1835C37.4227 27.8792 36.4735 28.227 36.0314 28.9951C35.3814 30.1466 36.2053 30.7444 36.2053 31.3647C36.2053 32.1763 35.2017 32.843 34.401 32.1763C33.1351 31.1045 31.13 32.1951 31.4445 33.9009C31.6909 35.0132 30.088 35.7321 29.43 34.6256C28.6227 33.1908 26.4213 33.4459 26.0677 35.2125C25.8582 36.427 24.1329 36.4372 23.9227 35.2125C23.862 34.8423 23.6877 34.5002 23.4238 34.2336C23.1599 33.967 22.8196 33.7891 22.4501 33.7246C22.0806 33.6601 21.7001 33.7122 21.3615 33.8736C21.0229 34.035 20.7429 34.2978 20.5604 34.6256C19.9749 35.669 18.3242 35.1248 18.5532 33.8792C18.7785 32.0748 16.8213 31.1314 15.5894 32.1763C14.6909 32.9408 13.3053 31.8712 13.9445 30.8067C14.7836 29.4198 13.4235 27.5872 11.7561 28.1835C10.5553 28.6176 9.75462 27.0893 10.6836 26.3212C11.9626 25.2618 11.2474 23.1183 9.50245 23.1183C8.28578 23.1183 7.99448 21.4132 9.14013 21.0096C10.772 20.4053 10.7126 18.1401 9.14013 17.5893C7.98795 17.1835 8.27708 15.4806 9.52419 15.4806C11.2206 15.4806 11.9807 13.3531 10.6836 12.2777C9.75245 11.5053 10.5749 9.98281 11.7488 10.4154C13.3068 10.9995 14.8184 9.28137 13.9445 7.79948C13.3416 6.75455 14.6155 5.61108 15.5894 6.42267C16.8553 7.49368 18.8597 6.4031 18.5459 4.69803C18.3938 4.0176 18.9626 3.42267 19.6401 3.42267C20.7358 3.42267 20.5553 4.90093 22.1256 4.90093C23.0314 4.90093 23.7706 4.27774 23.9227 3.38644C24.1184 2.18789 25.8684 2.16832 26.0677 3.38644C26.3568 5.07919 28.6017 5.44513 29.43 3.97339C30.0046 2.94803 31.672 3.47557 31.4445 4.71977C31.1365 6.36108 33.072 7.53064 34.4082 6.42267C34.9372 5.96615 35.7416 6.14731 36.0749 6.73426C36.5322 7.52774 35.7923 7.76325 35.7923 8.71252C35.7923 9.9589 37.0749 10.8705 38.2343 10.4154C38.9952 10.1401 39.488 10.6183 39.6474 11.0821C40.0742 12.2466 38.6546 12.2263 38.6546 13.6546C38.6546 14.5531 39.3358 15.4806 40.4879 15.4806C41.7148 15.4806 41.9988 17.1821 40.8575 17.5893C39.272 18.1546 39.2198 20.406 40.8503 21.0096C42.0198 21.4205 41.709 23.1183 40.4735 23.1183Z" fill="#414141"/>
<path d="M24.996 6.19922C17.7713 6.19922 11.8945 12.076 11.8945 19.3079C11.8945 26.5326 17.7713 32.4166 24.996 32.4166C32.1974 32.4166 38.0974 26.5514 38.0974 19.3079C38.0974 12.076 32.2206 6.19922 24.996 6.19922ZM24.996 31.692C18.1699 31.692 12.6192 26.134 12.6192 19.3079C12.6192 12.4818 18.1699 6.92386 24.996 6.92386C31.8221 6.92386 37.3728 12.4818 37.3728 19.3079C37.3728 26.134 31.8221 31.692 24.996 31.692Z" fill="#414141"/>
<path d="M30.8179 13.4072H19.1802C19.0933 13.4072 19.0135 13.4362 18.9483 13.4942L14.4483 17.371C14.3077 17.5109 14.3027 17.7073 14.3541 17.7841C14.3766 17.8522 14.4353 17.9145 14.4411 17.9145L24.6802 28.1899C24.7527 28.2283 24.9621 28.4435 25.202 28.2044L35.5788 17.9C35.6991 17.7493 35.7193 17.5406 35.5498 17.371L31.0498 13.4942C30.9861 13.4373 30.9033 13.4063 30.8179 13.4072ZM28.5933 19.9073L24.9483 27.1319L21.3614 19.9073H28.5933ZM21.4918 19.1826L24.9991 14.3855L28.4701 19.1826H21.4918ZM19.3179 14.1319H24.2889L20.644 19.1246L15.4121 17.4942L19.3179 14.1319ZM15.9773 18.429L20.528 19.8493L23.6367 26.1246L15.9773 18.429ZM26.2672 26.1246L29.4411 19.8493L34.0135 18.429L26.2672 26.1246ZM29.3251 19.1246L25.7164 14.1319H30.6802L34.5788 17.4942L29.3251 19.1246Z" fill="#414141"/>
</svg>
