<svg width="162" height="162" viewBox="0 0 162 162" fill="none" xmlns="http://www.w3.org/2000/svg">
<g clip-path="url(#clip0_813_1157)">
<path d="M162 0H0V162H162V0Z" fill="white"/>
<path d="M13.5823 10.125H10.125V13.5823H13.5823V10.125Z" fill="black"/>
<path d="M17.0396 10.125H13.5823V13.5823H17.0396V10.125Z" fill="black"/>
<path d="M20.497 10.125H17.0396V13.5823H20.497V10.125Z" fill="black"/>
<path d="M23.9543 10.125H20.497V13.5823H23.9543V10.125Z" fill="black"/>
<path d="M27.4116 10.125H23.9543V13.5823H27.4116V10.125Z" fill="black"/>
<path d="M30.8689 10.125H27.4116V13.5823H30.8689V10.125Z" fill="black"/>
<path d="M34.3262 10.125H30.8689V13.5823H34.3262V10.125Z" fill="black"/>
<path d="M41.2409 10.125H37.7835V13.5823H41.2409V10.125Z" fill="black"/>
<path d="M65.4421 10.125H61.9848V13.5823H65.4421V10.125Z" fill="black"/>
<path d="M72.3567 10.125H68.8994V13.5823H72.3567V10.125Z" fill="black"/>
<path d="M75.814 10.125H72.3567V13.5823H75.814V10.125Z" fill="black"/>
<path d="M79.2713 10.125H75.814V13.5823H79.2713V10.125Z" fill="black"/>
<path d="M82.7287 10.125H79.2713V13.5823H82.7287V10.125Z" fill="black"/>
<path d="M93.1006 10.125H89.6433V13.5823H93.1006V10.125Z" fill="black"/>
<path d="M96.5579 10.125H93.1006V13.5823H96.5579V10.125Z" fill="black"/>
<path d="M103.473 10.125H100.015V13.5823H103.473V10.125Z" fill="black"/>
<path d="M117.302 10.125H113.845V13.5823H117.302V10.125Z" fill="black"/>
<path d="M124.216 10.125H120.759V13.5823H124.216V10.125Z" fill="black"/>
<path d="M131.131 10.125H127.674V13.5823H131.131V10.125Z" fill="black"/>
<path d="M134.588 10.125H131.131V13.5823H134.588V10.125Z" fill="black"/>
<path d="M138.046 10.125H134.588V13.5823H138.046V10.125Z" fill="black"/>
<path d="M141.503 10.125H138.046V13.5823H141.503V10.125Z" fill="black"/>
<path d="M144.96 10.125H141.503V13.5823H144.96V10.125Z" fill="black"/>
<path d="M148.418 10.125H144.96V13.5823H148.418V10.125Z" fill="black"/>
<path d="M151.875 10.125H148.418V13.5823H151.875V10.125Z" fill="black"/>
<path d="M13.5823 13.5823H10.125V17.0396H13.5823V13.5823Z" fill="black"/>
<path d="M34.3262 13.5823H30.8689V17.0396H34.3262V13.5823Z" fill="black"/>
<path d="M44.6982 13.5823H41.2409V17.0396H44.6982V13.5823Z" fill="black"/>
<path d="M48.1555 13.5823H44.6982V17.0396H48.1555V13.5823Z" fill="black"/>
<path d="M51.6128 13.5823H48.1555V17.0396H51.6128V13.5823Z" fill="black"/>
<path d="M55.0701 13.5823H51.6128V17.0396H55.0701V13.5823Z" fill="black"/>
<path d="M58.5274 13.5823H55.0701V17.0396H58.5274V13.5823Z" fill="black"/>
<path d="M72.3567 13.5823H68.8994V17.0396H72.3567V13.5823Z" fill="black"/>
<path d="M75.814 13.5823H72.3567V17.0396H75.814V13.5823Z" fill="black"/>
<path d="M93.1006 13.5823H89.6433V17.0396H93.1006V13.5823Z" fill="black"/>
<path d="M96.5579 13.5823H93.1006V17.0396H96.5579V13.5823Z" fill="black"/>
<path d="M106.93 13.5823H103.473V17.0396H106.93V13.5823Z" fill="black"/>
<path d="M113.845 13.5823H110.387V17.0396H113.845V13.5823Z" fill="black"/>
<path d="M131.131 13.5823H127.674V17.0396H131.131V13.5823Z" fill="black"/>
<path d="M151.875 13.5823H148.418V17.0396H151.875V13.5823Z" fill="black"/>
<path d="M13.5823 17.0396H10.125V20.497H13.5823V17.0396Z" fill="black"/>
<path d="M20.497 17.0396H17.0396V20.497H20.497V17.0396Z" fill="black"/>
<path d="M23.9543 17.0396H20.497V20.497H23.9543V17.0396Z" fill="black"/>
<path d="M27.4116 17.0396H23.9543V20.497H27.4116V17.0396Z" fill="black"/>
<path d="M34.3262 17.0396H30.8689V20.497H34.3262V17.0396Z" fill="black"/>
<path d="M44.6982 17.0396H41.2409V20.497H44.6982V17.0396Z" fill="black"/>
<path d="M55.0701 17.0396H51.6128V20.497H55.0701V17.0396Z" fill="black"/>
<path d="M61.9848 17.0396H58.5274V20.497H61.9848V17.0396Z" fill="black"/>
<path d="M65.4421 17.0396H61.9848V20.497H65.4421V17.0396Z" fill="black"/>
<path d="M75.814 17.0396H72.3567V20.497H75.814V17.0396Z" fill="black"/>
<path d="M79.2713 17.0396H75.814V20.497H79.2713V17.0396Z" fill="black"/>
<path d="M82.7287 17.0396H79.2713V20.497H82.7287V17.0396Z" fill="black"/>
<path d="M89.6433 17.0396H86.186V20.497H89.6433V17.0396Z" fill="black"/>
<path d="M93.1006 17.0396H89.6433V20.497H93.1006V17.0396Z" fill="black"/>
<path d="M96.5579 17.0396H93.1006V20.497H96.5579V17.0396Z" fill="black"/>
<path d="M100.015 17.0396H96.5579V20.497H100.015V17.0396Z" fill="black"/>
<path d="M110.387 17.0396H106.93V20.497H110.387V17.0396Z" fill="black"/>
<path d="M120.759 17.0396H117.302V20.497H120.759V17.0396Z" fill="black"/>
<path d="M124.216 17.0396H120.759V20.497H124.216V17.0396Z" fill="black"/>
<path d="M131.131 17.0396H127.674V20.497H131.131V17.0396Z" fill="black"/>
<path d="M138.046 17.0396H134.588V20.497H138.046V17.0396Z" fill="black"/>
<path d="M141.503 17.0396H138.046V20.497H141.503V17.0396Z" fill="black"/>
<path d="M144.96 17.0396H141.503V20.497H144.96V17.0396Z" fill="black"/>
<path d="M151.875 17.0396H148.418V20.497H151.875V17.0396Z" fill="black"/>
<path d="M13.5823 20.497H10.125V23.9543H13.5823V20.497Z" fill="black"/>
<path d="M20.497 20.497H17.0396V23.9543H20.497V20.497Z" fill="black"/>
<path d="M23.9543 20.497H20.497V23.9543H23.9543V20.497Z" fill="black"/>
<path d="M27.4116 20.497H23.9543V23.9543H27.4116V20.497Z" fill="black"/>
<path d="M34.3262 20.497H30.8689V23.9543H34.3262V20.497Z" fill="black"/>
<path d="M41.2409 20.497H37.7835V23.9543H41.2409V20.497Z" fill="black"/>
<path d="M44.6982 20.497H41.2409V23.9543H44.6982V20.497Z" fill="black"/>
<path d="M55.0701 20.497H51.6128V23.9543H55.0701V20.497Z" fill="black"/>
<path d="M61.9848 20.497H58.5274V23.9543H61.9848V20.497Z" fill="black"/>
<path d="M72.3567 20.497H68.8994V23.9543H72.3567V20.497Z" fill="black"/>
<path d="M79.2713 20.497H75.814V23.9543H79.2713V20.497Z" fill="black"/>
<path d="M86.186 20.497H82.7287V23.9543H86.186V20.497Z" fill="black"/>
<path d="M89.6433 20.497H86.186V23.9543H89.6433V20.497Z" fill="black"/>
<path d="M96.5579 20.497H93.1006V23.9543H96.5579V20.497Z" fill="black"/>
<path d="M120.759 20.497H117.302V23.9543H120.759V20.497Z" fill="black"/>
<path d="M124.216 20.497H120.759V23.9543H124.216V20.497Z" fill="black"/>
<path d="M131.131 20.497H127.674V23.9543H131.131V20.497Z" fill="black"/>
<path d="M138.046 20.497H134.588V23.9543H138.046V20.497Z" fill="black"/>
<path d="M141.503 20.497H138.046V23.9543H141.503V20.497Z" fill="black"/>
<path d="M144.96 20.497H141.503V23.9543H144.96V20.497Z" fill="black"/>
<path d="M151.875 20.497H148.418V23.9543H151.875V20.497Z" fill="black"/>
<path d="M13.5823 23.9543H10.125V27.4116H13.5823V23.9543Z" fill="black"/>
<path d="M20.497 23.9543H17.0396V27.4116H20.497V23.9543Z" fill="black"/>
<path d="M23.9543 23.9543H20.497V27.4116H23.9543V23.9543Z" fill="black"/>
<path d="M27.4116 23.9543H23.9543V27.4116H27.4116V23.9543Z" fill="black"/>
<path d="M34.3262 23.9543H30.8689V27.4116H34.3262V23.9543Z" fill="black"/>
<path d="M51.6128 23.9543L48.1555 23.9543V27.4116H51.6128V23.9543Z" fill="black"/>
<path d="M61.9848 23.9543H58.5274V27.4116H61.9848V23.9543Z" fill="black"/>
<path d="M65.4421 23.9543L61.9848 23.9543V27.4116H65.4421V23.9543Z" fill="black"/>
<path d="M72.3567 23.9543H68.8994V27.4116H72.3567V23.9543Z" fill="black"/>
<path d="M75.814 23.9543H72.3567V27.4116H75.814V23.9543Z" fill="black"/>
<path d="M79.2713 23.9543H75.814V27.4116H79.2713V23.9543Z" fill="black"/>
<path d="M82.7287 23.9543H79.2713V27.4116H82.7287V23.9543Z" fill="black"/>
<path d="M89.6433 23.9543H86.186V27.4116H89.6433V23.9543Z" fill="black"/>
<path d="M93.1006 23.9543H89.6433V27.4116H93.1006V23.9543Z" fill="black"/>
<path d="M96.5579 23.9543H93.1006V27.4116H96.5579V23.9543Z" fill="black"/>
<path d="M100.015 23.9543L96.5579 23.9543V27.4116H100.015V23.9543Z" fill="black"/>
<path d="M103.473 23.9543H100.015V27.4116H103.473V23.9543Z" fill="black"/>
<path d="M106.93 23.9543H103.473V27.4116H106.93V23.9543Z" fill="black"/>
<path d="M120.759 23.9543H117.302V27.4116H120.759V23.9543Z" fill="black"/>
<path d="M131.131 23.9543H127.674V27.4116H131.131V23.9543Z" fill="black"/>
<path d="M138.046 23.9543H134.588V27.4116H138.046V23.9543Z" fill="black"/>
<path d="M141.503 23.9543H138.046V27.4116H141.503V23.9543Z" fill="black"/>
<path d="M144.96 23.9543H141.503V27.4116H144.96V23.9543Z" fill="black"/>
<path d="M151.875 23.9543H148.418V27.4116H151.875V23.9543Z" fill="black"/>
<path d="M13.5823 27.4116H10.125V30.8689H13.5823V27.4116Z" fill="black"/>
<path d="M34.3262 27.4116H30.8689V30.8689H34.3262V27.4116Z" fill="black"/>
<path d="M41.2409 27.4116H37.7835V30.8689H41.2409V27.4116Z" fill="black"/>
<path d="M48.1555 27.4116H44.6982V30.8689H48.1555V27.4116Z" fill="black"/>
<path d="M51.6128 27.4116H48.1555V30.8689H51.6128V27.4116Z" fill="black"/>
<path d="M65.4421 27.4116H61.9848V30.8689H65.4421V27.4116Z" fill="black"/>
<path d="M72.3567 27.4116H68.8994V30.8689H72.3567V27.4116Z" fill="black"/>
<path d="M79.2713 27.4116H75.814V30.8689H79.2713V27.4116Z" fill="black"/>
<path d="M82.7287 27.4116H79.2713V30.8689H82.7287V27.4116Z" fill="black"/>
<path d="M89.6433 27.4116H86.186V30.8689H89.6433V27.4116Z" fill="black"/>
<path d="M93.1006 27.4116H89.6433V30.8689H93.1006V27.4116Z" fill="black"/>
<path d="M96.5579 27.4116H93.1006V30.8689H96.5579V27.4116Z" fill="black"/>
<path d="M117.302 27.4116H113.845V30.8689H117.302V27.4116Z" fill="black"/>
<path d="M131.131 27.4116H127.674V30.8689H131.131V27.4116Z" fill="black"/>
<path d="M151.875 27.4116H148.418V30.8689H151.875V27.4116Z" fill="black"/>
<path d="M13.5823 30.8689H10.125V34.3262H13.5823V30.8689Z" fill="black"/>
<path d="M17.0396 30.8689H13.5823V34.3262H17.0396V30.8689Z" fill="black"/>
<path d="M20.497 30.8689H17.0396V34.3262H20.497V30.8689Z" fill="black"/>
<path d="M23.9543 30.8689H20.497V34.3262H23.9543V30.8689Z" fill="black"/>
<path d="M27.4116 30.8689H23.9543V34.3262H27.4116V30.8689Z" fill="black"/>
<path d="M30.8689 30.8689H27.4116V34.3262H30.8689V30.8689Z" fill="black"/>
<path d="M34.3262 30.8689H30.8689V34.3262H34.3262V30.8689Z" fill="black"/>
<path d="M41.2409 30.8689H37.7835V34.3262H41.2409V30.8689Z" fill="black"/>
<path d="M48.1555 30.8689H44.6982V34.3262H48.1555V30.8689Z" fill="black"/>
<path d="M55.0701 30.8689H51.6128V34.3262H55.0701V30.8689Z" fill="black"/>
<path d="M61.9848 30.8689H58.5274V34.3262H61.9848V30.8689Z" fill="black"/>
<path d="M68.8994 30.8689H65.4421V34.3262H68.8994V30.8689Z" fill="black"/>
<path d="M75.814 30.8689H72.3567V34.3262H75.814V30.8689Z" fill="black"/>
<path d="M82.7287 30.8689H79.2713V34.3262H82.7287V30.8689Z" fill="black"/>
<path d="M89.6433 30.8689H86.186V34.3262H89.6433V30.8689Z" fill="black"/>
<path d="M96.5579 30.8689H93.1006V34.3262H96.5579V30.8689Z" fill="black"/>
<path d="M103.473 30.8689H100.015V34.3262H103.473V30.8689Z" fill="black"/>
<path d="M110.387 30.8689H106.93V34.3262H110.387V30.8689Z" fill="black"/>
<path d="M117.302 30.8689H113.845V34.3262H117.302V30.8689Z" fill="black"/>
<path d="M124.216 30.8689H120.759V34.3262H124.216V30.8689Z" fill="black"/>
<path d="M131.131 30.8689H127.674V34.3262H131.131V30.8689Z" fill="black"/>
<path d="M134.588 30.8689H131.131V34.3262H134.588V30.8689Z" fill="black"/>
<path d="M138.046 30.8689H134.588V34.3262H138.046V30.8689Z" fill="black"/>
<path d="M141.503 30.8689H138.046V34.3262H141.503V30.8689Z" fill="black"/>
<path d="M144.96 30.8689H141.503V34.3262H144.96V30.8689Z" fill="black"/>
<path d="M148.418 30.8689H144.96V34.3262H148.418V30.8689Z" fill="black"/>
<path d="M151.875 30.8689H148.418V34.3262H151.875V30.8689Z" fill="black"/>
<path d="M44.6982 34.3262H41.2409V37.7835H44.6982V34.3262Z" fill="black"/>
<path d="M51.6128 34.3262H48.1555V37.7835H51.6128V34.3262Z" fill="black"/>
<path d="M58.5274 34.3262H55.0701V37.7835H58.5274V34.3262Z" fill="black"/>
<path d="M65.4421 34.3262H61.9848V37.7835H65.4421V34.3262Z" fill="black"/>
<path d="M68.8994 34.3262H65.4421V37.7835H68.8994V34.3262Z" fill="black"/>
<path d="M72.3567 34.3262H68.8994V37.7835H72.3567V34.3262Z" fill="black"/>
<path d="M82.7287 34.3262H79.2713V37.7835H82.7287V34.3262Z" fill="black"/>
<path d="M96.5579 34.3262H93.1006V37.7835H96.5579V34.3262Z" fill="black"/>
<path d="M113.845 34.3262H110.387V37.7835H113.845V34.3262Z" fill="black"/>
<path d="M117.302 34.3262H113.845V37.7835H117.302V34.3262Z" fill="black"/>
<path d="M120.759 34.3262H117.302V37.7835H120.759V34.3262Z" fill="black"/>
<path d="M124.216 34.3262H120.759V37.7835H124.216V34.3262Z" fill="black"/>
<path d="M30.8689 37.7835H27.4116V41.2409H30.8689V37.7835Z" fill="black"/>
<path d="M34.3262 37.7835H30.8689V41.2409H34.3262V37.7835Z" fill="black"/>
<path d="M41.2409 37.7835H37.7835V41.2409H41.2409V37.7835Z" fill="black"/>
<path d="M51.6128 37.7835H48.1555V41.2409H51.6128V37.7835Z" fill="black"/>
<path d="M58.5274 37.7835H55.0701V41.2409H58.5274V37.7835Z" fill="black"/>
<path d="M68.8994 37.7835H65.4421V41.2409H68.8994V37.7835Z" fill="black"/>
<path d="M86.186 37.7835H82.7287V41.2409H86.186V37.7835Z" fill="black"/>
<path d="M93.1006 37.7835H89.6433V41.2409H93.1006V37.7835Z" fill="black"/>
<path d="M96.5579 37.7835H93.1006V41.2409H96.5579V37.7835Z" fill="black"/>
<path d="M103.473 37.7835H100.015V41.2409H103.473V37.7835Z" fill="black"/>
<path d="M113.845 37.7835H110.387V41.2409H113.845V37.7835Z" fill="black"/>
<path d="M117.302 37.7835H113.845V41.2409H117.302V37.7835Z" fill="black"/>
<path d="M124.216 37.7835H120.759V41.2409H124.216V37.7835Z" fill="black"/>
<path d="M127.674 37.7835H124.216V41.2409H127.674V37.7835Z" fill="black"/>
<path d="M134.588 37.7835H131.131V41.2409H134.588V37.7835Z" fill="black"/>
<path d="M141.503 37.7835H138.046V41.2409H141.503V37.7835Z" fill="black"/>
<path d="M151.875 37.7835H148.418V41.2409H151.875V37.7835Z" fill="black"/>
<path d="M17.0396 41.2409H13.5823V44.6982H17.0396V41.2409Z" fill="black"/>
<path d="M20.497 41.2409H17.0396V44.6982H20.497V41.2409Z" fill="black"/>
<path d="M23.9543 41.2409H20.497V44.6982H23.9543V41.2409Z" fill="black"/>
<path d="M37.7835 41.2409H34.3262V44.6982H37.7835V41.2409Z" fill="black"/>
<path d="M44.6982 41.2409H41.2409V44.6982H44.6982V41.2409Z" fill="black"/>
<path d="M48.1555 41.2409H44.6982V44.6982H48.1555V41.2409Z" fill="black"/>
<path d="M51.6128 41.2409H48.1555V44.6982H51.6128V41.2409Z" fill="black"/>
<path d="M55.0701 41.2409H51.6128V44.6982H55.0701V41.2409Z" fill="black"/>
<path d="M61.9848 41.2409H58.5274V44.6982H61.9848V41.2409Z" fill="black"/>
<path d="M65.4421 41.2409H61.9848V44.6982H65.4421V41.2409Z" fill="black"/>
<path d="M68.8994 41.2409H65.4421V44.6982H68.8994V41.2409Z" fill="black"/>
<path d="M79.2713 41.2409H75.814V44.6982H79.2713V41.2409Z" fill="black"/>
<path d="M86.186 41.2409H82.7287V44.6982H86.186V41.2409Z" fill="black"/>
<path d="M96.5579 41.2409H93.1006V44.6982H96.5579V41.2409Z" fill="black"/>
<path d="M103.473 41.2409H100.015V44.6982H103.473V41.2409Z" fill="black"/>
<path d="M113.845 41.2409H110.387V44.6982H113.845V41.2409Z" fill="black"/>
<path d="M124.216 41.2409H120.759V44.6982H124.216V41.2409Z" fill="black"/>
<path d="M127.674 41.2409H124.216V44.6982H127.674V41.2409Z" fill="black"/>
<path d="M134.588 41.2409H131.131V44.6982H134.588V41.2409Z" fill="black"/>
<path d="M138.046 41.2409H134.588V44.6982H138.046V41.2409Z" fill="black"/>
<path d="M141.503 41.2409H138.046V44.6982H141.503V41.2409Z" fill="black"/>
<path d="M13.5823 44.6982H10.125V48.1555H13.5823V44.6982Z" fill="black"/>
<path d="M23.9543 44.6982H20.497V48.1555H23.9543V44.6982Z" fill="black"/>
<path d="M34.3262 44.6982H30.8689V48.1555H34.3262V44.6982Z" fill="black"/>
<path d="M37.7835 44.6982H34.3262V48.1555H37.7835V44.6982Z" fill="black"/>
<path d="M44.6982 44.6982H41.2409V48.1555H44.6982V44.6982Z" fill="black"/>
<path d="M51.6128 44.6982H48.1555V48.1555H51.6128V44.6982Z" fill="black"/>
<path d="M65.4421 44.6982H61.9848V48.1555H65.4421V44.6982Z" fill="black"/>
<path d="M68.8994 44.6982H65.4421V48.1555H68.8994V44.6982Z" fill="black"/>
<path d="M72.3567 44.6982H68.8994V48.1555H72.3567V44.6982Z" fill="black"/>
<path d="M75.814 44.6982H72.3567V48.1555H75.814V44.6982Z" fill="black"/>
<path d="M82.7287 44.6982H79.2713V48.1555H82.7287V44.6982Z" fill="black"/>
<path d="M86.186 44.6982H82.7287V48.1555H86.186V44.6982Z" fill="black"/>
<path d="M93.1006 44.6982H89.6433V48.1555H93.1006V44.6982Z" fill="black"/>
<path d="M100.015 44.6982H96.5579V48.1555H100.015V44.6982Z" fill="black"/>
<path d="M103.473 44.6982H100.015V48.1555H103.473V44.6982Z" fill="black"/>
<path d="M110.387 44.6982H106.93V48.1555H110.387V44.6982Z" fill="black"/>
<path d="M113.845 44.6982H110.387V48.1555H113.845V44.6982Z" fill="black"/>
<path d="M120.759 44.6982H117.302V48.1555H120.759V44.6982Z" fill="black"/>
<path d="M127.674 44.6982H124.216V48.1555H127.674V44.6982Z" fill="black"/>
<path d="M131.131 44.6982H127.674V48.1555H131.131V44.6982Z" fill="black"/>
<path d="M134.588 44.6982H131.131V48.1555H134.588V44.6982Z" fill="black"/>
<path d="M141.503 44.6982H138.046V48.1555H141.503V44.6982Z" fill="black"/>
<path d="M144.96 44.6982H141.503V48.1555H144.96V44.6982Z" fill="black"/>
<path d="M148.418 44.6982H144.96V48.1555H148.418V44.6982Z" fill="black"/>
<path d="M151.875 44.6982H148.418V48.1555H151.875V44.6982Z" fill="black"/>
<path d="M13.5823 48.1555H10.125V51.6128H13.5823V48.1555Z" fill="black"/>
<path d="M17.0396 48.1555H13.5823V51.6128H17.0396V48.1555Z" fill="black"/>
<path d="M23.9543 48.1555H20.497V51.6128H23.9543V48.1555Z" fill="black"/>
<path d="M37.7835 48.1555H34.3262V51.6128H37.7835V48.1555Z" fill="black"/>
<path d="M48.1555 48.1555H44.6982V51.6128H48.1555V48.1555Z" fill="black"/>
<path d="M51.6128 48.1555H48.1555V51.6128H51.6128V48.1555Z" fill="black"/>
<path d="M55.0701 48.1555H51.6128V51.6128H55.0701V48.1555Z" fill="black"/>
<path d="M58.5274 48.1555H55.0701V51.6128H58.5274V48.1555Z" fill="black"/>
<path d="M65.4421 48.1555H61.9848V51.6128H65.4421V48.1555Z" fill="black"/>
<path d="M72.3567 48.1555H68.8994V51.6128H72.3567V48.1555Z" fill="black"/>
<path d="M75.814 48.1555H72.3567V51.6128H75.814V48.1555Z" fill="black"/>
<path d="M79.2713 48.1555H75.814V51.6128H79.2713V48.1555Z" fill="black"/>
<path d="M82.7287 48.1555H79.2713V51.6128H82.7287V48.1555Z" fill="black"/>
<path d="M86.186 48.1555H82.7287V51.6128H86.186V48.1555Z" fill="black"/>
<path d="M106.93 48.1555H103.473V51.6128H106.93V48.1555Z" fill="black"/>
<path d="M110.387 48.1555H106.93V51.6128H110.387V48.1555Z" fill="black"/>
<path d="M113.845 48.1555H110.387V51.6128H113.845V48.1555Z" fill="black"/>
<path d="M124.216 48.1555H120.759V51.6128H124.216V48.1555Z" fill="black"/>
<path d="M131.131 48.1555H127.674V51.6128H131.131V48.1555Z" fill="black"/>
<path d="M144.96 48.1555H141.503V51.6128H144.96V48.1555Z" fill="black"/>
<path d="M148.418 48.1555H144.96V51.6128H148.418V48.1555Z" fill="black"/>
<path d="M151.875 48.1555H148.418V51.6128H151.875V48.1555Z" fill="black"/>
<path d="M30.8689 51.6128H27.4116V55.0701H30.8689V51.6128Z" fill="black"/>
<path d="M34.3262 51.6128H30.8689V55.0701H34.3262V51.6128Z" fill="black"/>
<path d="M41.2409 51.6128H37.7835V55.0701H41.2409V51.6128Z" fill="black"/>
<path d="M48.1555 51.6128H44.6982V55.0701H48.1555V51.6128Z" fill="black"/>
<path d="M51.6128 51.6128H48.1555V55.0701H51.6128V51.6128Z" fill="black"/>
<path d="M55.0701 51.6128H51.6128V55.0701H55.0701V51.6128Z" fill="black"/>
<path d="M58.5274 51.6128H55.0701V55.0701H58.5274V51.6128Z" fill="black"/>
<path d="M68.8994 51.6128H65.4421V55.0701H68.8994V51.6128Z" fill="black"/>
<path d="M72.3567 51.6128H68.8994V55.0701H72.3567V51.6128Z" fill="black"/>
<path d="M75.814 51.6128H72.3567V55.0701H75.814V51.6128Z" fill="black"/>
<path d="M86.186 51.6128H82.7287V55.0701H86.186V51.6128Z" fill="black"/>
<path d="M93.1006 51.6128H89.6433V55.0701H93.1006V51.6128Z" fill="black"/>
<path d="M106.93 51.6128H103.473V55.0701H106.93V51.6128Z" fill="black"/>
<path d="M113.845 51.6128H110.387V55.0701H113.845V51.6128Z" fill="black"/>
<path d="M120.759 51.6128H117.302V55.0701H120.759V51.6128Z" fill="black"/>
<path d="M134.588 51.6128H131.131V55.0701H134.588V51.6128Z" fill="black"/>
<path d="M144.96 51.6128H141.503V55.0701H144.96V51.6128Z" fill="black"/>
<path d="M151.875 51.6128H148.418V55.0701H151.875V51.6128Z" fill="black"/>
<path d="M13.5823 55.0701H10.125V58.5274H13.5823V55.0701Z" fill="black"/>
<path d="M20.497 55.0701H17.0396V58.5274H20.497V55.0701Z" fill="black"/>
<path d="M27.4116 55.0701H23.9543V58.5274H27.4116V55.0701Z" fill="black"/>
<path d="M41.2409 55.0701H37.7835V58.5274H41.2409V55.0701Z" fill="black"/>
<path d="M48.1555 55.0701H44.6982V58.5274H48.1555V55.0701Z" fill="black"/>
<path d="M51.6128 55.0701H48.1555V58.5274H51.6128V55.0701Z" fill="black"/>
<path d="M55.0701 55.0701H51.6128V58.5274H55.0701V55.0701Z" fill="black"/>
<path d="M58.5274 55.0701H55.0701V58.5274H58.5274V55.0701Z" fill="black"/>
<path d="M61.9848 55.0701H58.5274V58.5274H61.9848V55.0701Z" fill="black"/>
<path d="M65.4421 55.0701H61.9848V58.5274H65.4421V55.0701Z" fill="black"/>
<path d="M75.814 55.0701H72.3567V58.5274H75.814V55.0701Z" fill="black"/>
<path d="M79.2713 55.0701H75.814V58.5274H79.2713V55.0701Z" fill="black"/>
<path d="M86.186 55.0701H82.7287V58.5274H86.186V55.0701Z" fill="black"/>
<path d="M93.1006 55.0701H89.6433V58.5274H93.1006V55.0701Z" fill="black"/>
<path d="M103.473 55.0701H100.015V58.5274H103.473V55.0701Z" fill="black"/>
<path d="M110.387 55.0701H106.93V58.5274H110.387V55.0701Z" fill="black"/>
<path d="M113.845 55.0701H110.387V58.5274H113.845V55.0701Z" fill="black"/>
<path d="M124.216 55.0701H120.759V58.5274H124.216V55.0701Z" fill="black"/>
<path d="M127.674 55.0701H124.216V58.5274H127.674V55.0701Z" fill="black"/>
<path d="M134.588 55.0701H131.131V58.5274H134.588V55.0701Z" fill="black"/>
<path d="M138.046 55.0701H134.588V58.5274H138.046V55.0701Z" fill="black"/>
<path d="M141.503 55.0701H138.046V58.5274H141.503V55.0701Z" fill="black"/>
<path d="M144.96 55.0701H141.503V58.5274H144.96V55.0701Z" fill="black"/>
<path d="M20.497 58.5274H17.0396V61.9848H20.497V58.5274Z" fill="black"/>
<path d="M30.8689 58.5274H27.4116V61.9848H30.8689V58.5274Z" fill="black"/>
<path d="M34.3262 58.5274H30.8689V61.9848H34.3262V58.5274Z" fill="black"/>
<path d="M37.7835 58.5274H34.3262V61.9848H37.7835V58.5274Z" fill="black"/>
<path d="M48.1555 58.5274H44.6982V61.9848H48.1555V58.5274Z" fill="black"/>
<path d="M58.5274 58.5274H55.0701V61.9848H58.5274V58.5274Z" fill="black"/>
<path d="M68.8994 58.5274H65.4421V61.9848H68.8994V58.5274Z" fill="black"/>
<path d="M75.814 58.5274H72.3567V61.9848H75.814V58.5274Z" fill="black"/>
<path d="M89.6433 58.5274H86.186V61.9848H89.6433V58.5274Z" fill="black"/>
<path d="M96.5579 58.5274H93.1006V61.9848H96.5579V58.5274Z" fill="black"/>
<path d="M100.015 58.5274H96.5579V61.9848H100.015V58.5274Z" fill="black"/>
<path d="M103.473 58.5274H100.015V61.9848H103.473V58.5274Z" fill="black"/>
<path d="M106.93 58.5274H103.473V61.9848H106.93V58.5274Z" fill="black"/>
<path d="M120.759 58.5274H117.302V61.9848H120.759V58.5274Z" fill="black"/>
<path d="M124.216 58.5274H120.759V61.9848H124.216V58.5274Z" fill="black"/>
<path d="M127.674 58.5274H124.216V61.9848H127.674V58.5274Z" fill="black"/>
<path d="M134.588 58.5274H131.131V61.9848H134.588V58.5274Z" fill="black"/>
<path d="M144.96 58.5274H141.503V61.9848H144.96V58.5274Z" fill="black"/>
<path d="M17.0396 61.9848H13.5823V65.4421H17.0396V61.9848Z" fill="black"/>
<path d="M20.497 61.9848H17.0396V65.4421H20.497V61.9848Z" fill="black"/>
<path d="M27.4116 61.9848H23.9543V65.4421H27.4116V61.9848Z" fill="black"/>
<path d="M37.7835 61.9848H34.3262V65.4421H37.7835V61.9848Z" fill="black"/>
<path d="M44.6982 61.9848H41.2409V65.4421H44.6982V61.9848Z" fill="black"/>
<path d="M48.1555 61.9848H44.6982V65.4421H48.1555V61.9848Z" fill="black"/>
<path d="M55.0701 61.9848H51.6128V65.4421H55.0701V61.9848Z" fill="black"/>
<path d="M58.5274 61.9848H55.0701V65.4421H58.5274V61.9848Z" fill="black"/>
<path d="M65.4421 61.9848H61.9848V65.4421H65.4421V61.9848Z" fill="black"/>
<path d="M68.8994 61.9848H65.4421V65.4421H68.8994V61.9848Z" fill="black"/>
<path d="M72.3567 61.9848H68.8994V65.4421H72.3567V61.9848Z" fill="black"/>
<path d="M75.814 61.9848H72.3567V65.4421H75.814V61.9848Z" fill="black"/>
<path d="M79.2713 61.9848H75.814V65.4421H79.2713V61.9848Z" fill="black"/>
<path d="M82.7287 61.9848H79.2713V65.4421H82.7287V61.9848Z" fill="black"/>
<path d="M86.186 61.9848H82.7287V65.4421H86.186V61.9848Z" fill="black"/>
<path d="M103.473 61.9848H100.015V65.4421H103.473V61.9848Z" fill="black"/>
<path d="M113.845 61.9848H110.387V65.4421H113.845V61.9848Z" fill="black"/>
<path d="M134.588 61.9848H131.131V65.4421H134.588V61.9848Z" fill="black"/>
<path d="M138.046 61.9848H134.588V65.4421H138.046V61.9848Z" fill="black"/>
<path d="M144.96 61.9848H141.503V65.4421H144.96V61.9848Z" fill="black"/>
<path d="M151.875 61.9848H148.418V65.4421H151.875V61.9848Z" fill="black"/>
<path d="M13.5823 65.4421H10.125V68.8994H13.5823V65.4421Z" fill="black"/>
<path d="M20.497 65.4421H17.0396V68.8994H20.497V65.4421Z" fill="black"/>
<path d="M23.9543 65.4421H20.497V68.8994H23.9543L23.9543 65.4421Z" fill="black"/>
<path d="M27.4116 65.4421H23.9543L23.9543 68.8994H27.4116V65.4421Z" fill="black"/>
<path d="M30.8689 65.4421H27.4116V68.8994H30.8689V65.4421Z" fill="black"/>
<path d="M34.3262 65.4421H30.8689V68.8994H34.3262V65.4421Z" fill="black"/>
<path d="M41.2409 65.4421H37.7835V68.8994H41.2409V65.4421Z" fill="black"/>
<path d="M44.6982 65.4421H41.2409V68.8994H44.6982V65.4421Z" fill="black"/>
<path d="M51.6128 65.4421H48.1555V68.8994H51.6128V65.4421Z" fill="black"/>
<path d="M61.9848 65.4421H58.5274V68.8994H61.9848V65.4421Z" fill="black"/>
<path d="M68.8994 65.4421H65.4421V68.8994H68.8994V65.4421Z" fill="black"/>
<path d="M79.2713 65.4421H75.814V68.8994H79.2713V65.4421Z" fill="black"/>
<path d="M82.7287 65.4421H79.2713V68.8994H82.7287V65.4421Z" fill="black"/>
<path d="M86.186 65.4421H82.7287V68.8994H86.186V65.4421Z" fill="black"/>
<path d="M89.6433 65.4421H86.186V68.8994H89.6433V65.4421Z" fill="black"/>
<path d="M100.015 65.4421H96.5579V68.8994H100.015V65.4421Z" fill="black"/>
<path d="M124.216 65.4421H120.759V68.8994H124.216V65.4421Z" fill="black"/>
<path d="M127.674 65.4421H124.216V68.8994H127.674V65.4421Z" fill="black"/>
<path d="M138.046 65.4421H134.588V68.8994H138.046V65.4421Z" fill="black"/>
<path d="M141.503 65.4421H138.046V68.8994H141.503V65.4421Z" fill="black"/>
<path d="M144.96 65.4421H141.503V68.8994H144.96V65.4421Z" fill="black"/>
<path d="M13.5823 68.8994H10.125V72.3567H13.5823V68.8994Z" fill="black"/>
<path d="M23.9543 68.8994H20.497V72.3567H23.9543V68.8994Z" fill="black"/>
<path d="M27.4116 68.8994H23.9543V72.3567H27.4116V68.8994Z" fill="black"/>
<path d="M30.8689 68.8994H27.4116V72.3567H30.8689V68.8994Z" fill="black"/>
<path d="M37.7835 68.8994H34.3262V72.3567H37.7835V68.8994Z" fill="black"/>
<path d="M44.6982 68.8994H41.2409V72.3567H44.6982V68.8994Z" fill="black"/>
<path d="M48.1555 68.8994H44.6982V72.3567H48.1555V68.8994Z" fill="black"/>
<path d="M55.0701 68.8994H51.6128V72.3567H55.0701V68.8994Z" fill="black"/>
<path d="M58.5274 68.8994H55.0701V72.3567H58.5274V68.8994Z" fill="black"/>
<path d="M65.4421 68.8994H61.9848V72.3567H65.4421V68.8994Z" fill="black"/>
<path d="M68.8994 68.8994H65.4421V72.3567H68.8994V68.8994Z" fill="black"/>
<path d="M79.2713 68.8994H75.814V72.3567H79.2713V68.8994Z" fill="black"/>
<path d="M82.7287 68.8994H79.2713V72.3567H82.7287V68.8994Z" fill="black"/>
<path d="M89.6433 68.8994H86.186V72.3567H89.6433V68.8994Z" fill="black"/>
<path d="M96.5579 68.8994H93.1006V72.3567H96.5579V68.8994Z" fill="black"/>
<path d="M100.015 68.8994H96.5579V72.3567H100.015V68.8994Z" fill="black"/>
<path d="M106.93 68.8994H103.473V72.3567H106.93V68.8994Z" fill="black"/>
<path d="M113.845 68.8994H110.387V72.3567H113.845V68.8994Z" fill="black"/>
<path d="M120.759 68.8994H117.302V72.3567H120.759V68.8994Z" fill="black"/>
<path d="M124.216 68.8994H120.759V72.3567H124.216V68.8994Z" fill="black"/>
<path d="M131.131 68.8994H127.674V72.3567H131.131V68.8994Z" fill="black"/>
<path d="M134.588 68.8994H131.131V72.3567H134.588V68.8994Z" fill="black"/>
<path d="M144.96 68.8994H141.503V72.3567H144.96V68.8994Z" fill="black"/>
<path d="M151.875 68.8994H148.418V72.3567H151.875V68.8994Z" fill="black"/>
<path d="M13.5823 72.3567H10.125V75.814H13.5823V72.3567Z" fill="black"/>
<path d="M17.0396 72.3567H13.5823V75.814H17.0396V72.3567Z" fill="black"/>
<path d="M20.497 72.3567H17.0396V75.814H20.497V72.3567Z" fill="black"/>
<path d="M23.9543 72.3567H20.497V75.814H23.9543V72.3567Z" fill="black"/>
<path d="M27.4116 72.3567H23.9543V75.814H27.4116V72.3567Z" fill="black"/>
<path d="M30.8689 72.3567H27.4116V75.814H30.8689V72.3567Z" fill="black"/>
<path d="M34.3262 72.3567H30.8689V75.814H34.3262V72.3567Z" fill="black"/>
<path d="M37.7835 72.3567H34.3262V75.814H37.7835V72.3567Z" fill="black"/>
<path d="M41.2409 72.3567H37.7835V75.814H41.2409V72.3567Z" fill="black"/>
<path d="M44.6982 72.3567H41.2409V75.814H44.6982V72.3567Z" fill="black"/>
<path d="M58.5274 72.3567H55.0701V75.814H58.5274V72.3567Z" fill="black"/>
<path d="M61.9848 72.3567H58.5274V75.814H61.9848V72.3567Z" fill="black"/>
<path d="M75.814 72.3567H72.3567V75.814H75.814V72.3567Z" fill="black"/>
<path d="M79.2713 72.3567H75.814V75.814H79.2713V72.3567Z" fill="black"/>
<path d="M82.7287 72.3567H79.2713V75.814H82.7287V72.3567Z" fill="black"/>
<path d="M86.186 72.3567H82.7287V75.814H86.186V72.3567Z" fill="black"/>
<path d="M93.1006 72.3567H89.6433V75.814H93.1006V72.3567Z" fill="black"/>
<path d="M100.015 72.3567H96.5579V75.814H100.015V72.3567Z" fill="black"/>
<path d="M113.845 72.3567H110.387V75.814H113.845V72.3567Z" fill="black"/>
<path d="M127.674 72.3567H124.216V75.814H127.674V72.3567Z" fill="black"/>
<path d="M144.96 72.3567H141.503V75.814H144.96V72.3567Z" fill="black"/>
<path d="M148.418 72.3567H144.96V75.814H148.418V72.3567Z" fill="black"/>
<path d="M20.497 75.814H17.0396V79.2713H20.497V75.814Z" fill="black"/>
<path d="M23.9543 75.814H20.497V79.2713H23.9543V75.814Z" fill="black"/>
<path d="M27.4116 75.814H23.9543V79.2713H27.4116V75.814Z" fill="black"/>
<path d="M30.8689 75.814H27.4116V79.2713H30.8689V75.814Z" fill="black"/>
<path d="M41.2409 75.814H37.7835V79.2713H41.2409V75.814Z" fill="black"/>
<path d="M48.1555 75.814H44.6982V79.2713H48.1555V75.814Z" fill="black"/>
<path d="M51.6128 75.814H48.1555V79.2713H51.6128V75.814Z" fill="black"/>
<path d="M65.4421 75.814H61.9848V79.2713H65.4421V75.814Z" fill="black"/>
<path d="M68.8994 75.814H65.4421V79.2713H68.8994V75.814Z" fill="black"/>
<path d="M72.3567 75.814H68.8994V79.2713H72.3567V75.814Z" fill="black"/>
<path d="M79.2713 75.814H75.814V79.2713H79.2713V75.814Z" fill="black"/>
<path d="M86.186 75.814H82.7287V79.2713H86.186V75.814Z" fill="black"/>
<path d="M89.6433 75.814H86.186V79.2713H89.6433V75.814Z" fill="black"/>
<path d="M100.015 75.814H96.5579V79.2713H100.015V75.814Z" fill="black"/>
<path d="M110.387 75.814H106.93V79.2713H110.387V75.814Z" fill="black"/>
<path d="M113.845 75.814H110.387V79.2713H113.845V75.814Z" fill="black"/>
<path d="M117.302 75.814H113.845V79.2713H117.302V75.814Z" fill="black"/>
<path d="M120.759 75.814H117.302V79.2713H120.759V75.814Z" fill="black"/>
<path d="M124.216 75.814H120.759V79.2713H124.216V75.814Z" fill="black"/>
<path d="M131.131 75.814H127.674V79.2713H131.131V75.814Z" fill="black"/>
<path d="M134.588 75.814H131.131V79.2713H134.588V75.814Z" fill="black"/>
<path d="M141.503 75.814H138.046V79.2713H141.503V75.814Z" fill="black"/>
<path d="M151.875 75.814H148.418V79.2713H151.875V75.814Z" fill="black"/>
<path d="M20.497 79.2713H17.0396V82.7287H20.497V79.2713Z" fill="black"/>
<path d="M30.8689 79.2713H27.4116V82.7287H30.8689V79.2713Z" fill="black"/>
<path d="M34.3262 79.2713H30.8689V82.7287H34.3262V79.2713Z" fill="black"/>
<path d="M51.6128 79.2713H48.1555V82.7287H51.6128V79.2713Z" fill="black"/>
<path d="M61.9848 79.2713H58.5274V82.7287H61.9848V79.2713Z" fill="black"/>
<path d="M82.7287 79.2713H79.2713V82.7287H82.7287V79.2713Z" fill="black"/>
<path d="M86.186 79.2713H82.7287V82.7287H86.186V79.2713Z" fill="black"/>
<path d="M93.1006 79.2713H89.6433V82.7287H93.1006V79.2713Z" fill="black"/>
<path d="M96.5579 79.2713H93.1006V82.7287H96.5579V79.2713Z" fill="black"/>
<path d="M100.015 79.2713H96.5579V82.7287H100.015V79.2713Z" fill="black"/>
<path d="M103.473 79.2713H100.015V82.7287H103.473V79.2713Z" fill="black"/>
<path d="M110.387 79.2713H106.93V82.7287H110.387V79.2713Z" fill="black"/>
<path d="M117.302 79.2713H113.845V82.7287H117.302V79.2713Z" fill="black"/>
<path d="M120.759 79.2713H117.302V82.7287H120.759V79.2713Z" fill="black"/>
<path d="M127.674 79.2713H124.216V82.7287H127.674V79.2713Z" fill="black"/>
<path d="M131.131 79.2713H127.674V82.7287H131.131V79.2713Z" fill="black"/>
<path d="M134.588 79.2713H131.131V82.7287H134.588V79.2713Z" fill="black"/>
<path d="M141.503 79.2713H138.046V82.7287H141.503V79.2713Z" fill="black"/>
<path d="M144.96 79.2713H141.503V82.7287H144.96V79.2713Z" fill="black"/>
<path d="M148.418 79.2713H144.96V82.7287H148.418V79.2713Z" fill="black"/>
<path d="M17.0396 82.7287H13.5823V86.186H17.0396V82.7287Z" fill="black"/>
<path d="M23.9543 82.7287H20.497V86.186H23.9543V82.7287Z" fill="black"/>
<path d="M37.7835 82.7287H34.3262V86.186H37.7835V82.7287Z" fill="black"/>
<path d="M41.2409 82.7287H37.7835V86.186H41.2409V82.7287Z" fill="black"/>
<path d="M44.6982 82.7287H41.2409V86.186H44.6982V82.7287Z" fill="black"/>
<path d="M48.1555 82.7287H44.6982V86.186H48.1555V82.7287Z" fill="black"/>
<path d="M51.6128 82.7287H48.1555V86.186H51.6128V82.7287Z" fill="black"/>
<path d="M55.0701 82.7287H51.6128V86.186H55.0701V82.7287Z" fill="black"/>
<path d="M58.5274 82.7287H55.0701V86.186H58.5274V82.7287Z" fill="black"/>
<path d="M65.4421 82.7287H61.9848V86.186H65.4421V82.7287Z" fill="black"/>
<path d="M68.8994 82.7287H65.4421V86.186H68.8994V82.7287Z" fill="black"/>
<path d="M75.814 82.7287H72.3567V86.186H75.814V82.7287Z" fill="black"/>
<path d="M86.186 82.7287H82.7287V86.186H86.186V82.7287Z" fill="black"/>
<path d="M89.6433 82.7287H86.186V86.186H89.6433V82.7287Z" fill="black"/>
<path d="M93.1006 82.7287H89.6433V86.186H93.1006V82.7287Z" fill="black"/>
<path d="M96.5579 82.7287H93.1006V86.186H96.5579V82.7287Z" fill="black"/>
<path d="M100.015 82.7287H96.5579V86.186H100.015V82.7287Z" fill="black"/>
<path d="M103.473 82.7287H100.015V86.186H103.473V82.7287Z" fill="black"/>
<path d="M106.93 82.7287H103.473V86.186H106.93V82.7287Z" fill="black"/>
<path d="M113.845 82.7287H110.387V86.186H113.845V82.7287Z" fill="black"/>
<path d="M117.302 82.7287H113.845V86.186H117.302V82.7287Z" fill="black"/>
<path d="M120.759 82.7287H117.302V86.186H120.759V82.7287Z" fill="black"/>
<path d="M124.216 82.7287H120.759V86.186H124.216V82.7287Z" fill="black"/>
<path d="M127.674 82.7287H124.216V86.186H127.674V82.7287Z" fill="black"/>
<path d="M134.588 82.7287H131.131V86.186H134.588V82.7287Z" fill="black"/>
<path d="M144.96 82.7287H141.503V86.186H144.96V82.7287Z" fill="black"/>
<path d="M148.418 82.7287H144.96V86.186H148.418V82.7287Z" fill="black"/>
<path d="M151.875 82.7287H148.418V86.186H151.875V82.7287Z" fill="black"/>
<path d="M13.5823 86.186H10.125V89.6433H13.5823V86.186Z" fill="black"/>
<path d="M17.0396 86.186H13.5823V89.6433H17.0396V86.186Z" fill="black"/>
<path d="M27.4116 86.186H23.9543L23.9543 89.6433H27.4116V86.186Z" fill="black"/>
<path d="M34.3262 86.186H30.8689V89.6433H34.3262V86.186Z" fill="black"/>
<path d="M44.6982 86.186H41.2409V89.6433H44.6982V86.186Z" fill="black"/>
<path d="M51.6128 86.186H48.1555V89.6433H51.6128V86.186Z" fill="black"/>
<path d="M68.8994 86.186H65.4421V89.6433H68.8994V86.186Z" fill="black"/>
<path d="M79.2713 86.186H75.814V89.6433H79.2713V86.186Z" fill="black"/>
<path d="M93.1006 86.186H89.6433V89.6433H93.1006V86.186Z" fill="black"/>
<path d="M96.5579 86.186H93.1006V89.6433H96.5579V86.186Z" fill="black"/>
<path d="M100.015 86.186H96.5579V89.6433H100.015V86.186Z" fill="black"/>
<path d="M106.93 86.186H103.473V89.6433H106.93V86.186Z" fill="black"/>
<path d="M110.387 86.186H106.93V89.6433H110.387V86.186Z" fill="black"/>
<path d="M113.845 86.186H110.387V89.6433H113.845V86.186Z" fill="black"/>
<path d="M127.674 86.186H124.216V89.6433H127.674V86.186Z" fill="black"/>
<path d="M134.588 86.186H131.131V89.6433H134.588V86.186Z" fill="black"/>
<path d="M138.046 86.186H134.588V89.6433H138.046V86.186Z" fill="black"/>
<path d="M151.875 86.186H148.418V89.6433H151.875V86.186Z" fill="black"/>
<path d="M17.0396 89.6433H13.5823V93.1006H17.0396V89.6433Z" fill="black"/>
<path d="M20.497 89.6433H17.0396V93.1006H20.497V89.6433Z" fill="black"/>
<path d="M23.9543 89.6433H20.497V93.1006H23.9543L23.9543 89.6433Z" fill="black"/>
<path d="M41.2409 89.6433H37.7835V93.1006H41.2409V89.6433Z" fill="black"/>
<path d="M58.5274 89.6433H55.0701V93.1006H58.5274V89.6433Z" fill="black"/>
<path d="M68.8994 89.6433H65.4421V93.1006H68.8994V89.6433Z" fill="black"/>
<path d="M72.3567 89.6433H68.8994V93.1006H72.3567V89.6433Z" fill="black"/>
<path d="M82.7287 89.6433H79.2713V93.1006H82.7287V89.6433Z" fill="black"/>
<path d="M103.473 89.6433H100.015V93.1006H103.473V89.6433Z" fill="black"/>
<path d="M110.387 89.6433H106.93V93.1006H110.387V89.6433Z" fill="black"/>
<path d="M120.759 89.6433H117.302V93.1006H120.759V89.6433Z" fill="black"/>
<path d="M124.216 89.6433H120.759V93.1006H124.216V89.6433Z" fill="black"/>
<path d="M138.046 89.6433H134.588V93.1006H138.046V89.6433Z" fill="black"/>
<path d="M144.96 89.6433H141.503V93.1006H144.96V89.6433Z" fill="black"/>
<path d="M17.0396 93.1006H13.5823V96.5579H17.0396V93.1006Z" fill="black"/>
<path d="M23.9543 93.1006H20.497V96.5579H23.9543V93.1006Z" fill="black"/>
<path d="M34.3262 93.1006H30.8689V96.5579H34.3262V93.1006Z" fill="black"/>
<path d="M37.7835 93.1006H34.3262V96.5579H37.7835V93.1006Z" fill="black"/>
<path d="M44.6982 93.1006H41.2409V96.5579H44.6982V93.1006Z" fill="black"/>
<path d="M51.6128 93.1006H48.1555V96.5579H51.6128V93.1006Z" fill="black"/>
<path d="M55.0701 93.1006H51.6128V96.5579H55.0701V93.1006Z" fill="black"/>
<path d="M58.5274 93.1006H55.0701V96.5579H58.5274V93.1006Z" fill="black"/>
<path d="M61.9848 93.1006H58.5274V96.5579H61.9848V93.1006Z" fill="black"/>
<path d="M65.4421 93.1006H61.9848V96.5579H65.4421V93.1006Z" fill="black"/>
<path d="M68.8994 93.1006H65.4421V96.5579H68.8994V93.1006Z" fill="black"/>
<path d="M72.3567 93.1006H68.8994V96.5579H72.3567V93.1006Z" fill="black"/>
<path d="M86.186 93.1006H82.7287V96.5579H86.186V93.1006Z" fill="black"/>
<path d="M89.6433 93.1006H86.186V96.5579H89.6433V93.1006Z" fill="black"/>
<path d="M96.5579 93.1006H93.1006V96.5579H96.5579V93.1006Z" fill="black"/>
<path d="M100.015 93.1006H96.5579V96.5579H100.015V93.1006Z" fill="black"/>
<path d="M103.473 93.1006H100.015V96.5579H103.473V93.1006Z" fill="black"/>
<path d="M106.93 93.1006H103.473V96.5579H106.93V93.1006Z" fill="black"/>
<path d="M127.674 93.1006H124.216V96.5579H127.674V93.1006Z" fill="black"/>
<path d="M131.131 93.1006H127.674V96.5579H131.131V93.1006Z" fill="black"/>
<path d="M141.503 93.1006H138.046V96.5579H141.503V93.1006Z" fill="black"/>
<path d="M148.418 93.1006H144.96V96.5579H148.418V93.1006Z" fill="black"/>
<path d="M151.875 93.1006H148.418V96.5579H151.875V93.1006Z" fill="black"/>
<path d="M13.5823 96.5579H10.125V100.015H13.5823V96.5579Z" fill="black"/>
<path d="M17.0396 96.5579H13.5823V100.015H17.0396V96.5579Z" fill="black"/>
<path d="M20.497 96.5579H17.0396V100.015H20.497V96.5579Z" fill="black"/>
<path d="M23.9543 96.5579H20.497V100.015H23.9543V96.5579Z" fill="black"/>
<path d="M27.4116 96.5579H23.9543V100.015H27.4116V96.5579Z" fill="black"/>
<path d="M41.2409 96.5579H37.7835V100.015H41.2409V96.5579Z" fill="black"/>
<path d="M48.1555 96.5579H44.6982V100.015H48.1555V96.5579Z" fill="black"/>
<path d="M51.6128 96.5579H48.1555V100.015H51.6128V96.5579Z" fill="black"/>
<path d="M55.0701 96.5579H51.6128V100.015H55.0701V96.5579Z" fill="black"/>
<path d="M58.5274 96.5579H55.0701V100.015H58.5274V96.5579Z" fill="black"/>
<path d="M61.9848 96.5579H58.5274V100.015H61.9848V96.5579Z" fill="black"/>
<path d="M65.4421 96.5579H61.9848V100.015H65.4421V96.5579Z" fill="black"/>
<path d="M72.3567 96.5579H68.8994V100.015H72.3567V96.5579Z" fill="black"/>
<path d="M89.6433 96.5579H86.186V100.015H89.6433V96.5579Z" fill="black"/>
<path d="M93.1006 96.5579H89.6433V100.015H93.1006V96.5579Z" fill="black"/>
<path d="M96.5579 96.5579H93.1006V100.015H96.5579V96.5579Z" fill="black"/>
<path d="M106.93 96.5579H103.473V100.015H106.93V96.5579Z" fill="black"/>
<path d="M113.845 96.5579H110.387V100.015H113.845V96.5579Z" fill="black"/>
<path d="M124.216 96.5579H120.759V100.015H124.216V96.5579Z" fill="black"/>
<path d="M148.418 96.5579H144.96V100.015H148.418V96.5579Z" fill="black"/>
<path d="M17.0396 100.015H13.5823V103.473H17.0396V100.015Z" fill="black"/>
<path d="M23.9543 100.015H20.497V103.473H23.9543V100.015Z" fill="black"/>
<path d="M27.4116 100.015H23.9543V103.473H27.4116V100.015Z" fill="black"/>
<path d="M34.3262 100.015H30.8689V103.473H34.3262V100.015Z" fill="black"/>
<path d="M41.2409 100.015H37.7835V103.473H41.2409V100.015Z" fill="black"/>
<path d="M48.1555 100.015H44.6982V103.473H48.1555V100.015Z" fill="black"/>
<path d="M58.5274 100.015H55.0701V103.473H58.5274V100.015Z" fill="black"/>
<path d="M61.9848 100.015H58.5274V103.473H61.9848V100.015Z" fill="black"/>
<path d="M65.4421 100.015H61.9848V103.473H65.4421V100.015Z" fill="black"/>
<path d="M72.3567 100.015H68.8994V103.473H72.3567V100.015Z" fill="black"/>
<path d="M75.814 100.015H72.3567V103.473H75.814V100.015Z" fill="black"/>
<path d="M79.2713 100.015H75.814V103.473H79.2713V100.015Z" fill="black"/>
<path d="M86.186 100.015H82.7287V103.473H86.186V100.015Z" fill="black"/>
<path d="M89.6433 100.015H86.186V103.473H89.6433V100.015Z" fill="black"/>
<path d="M100.015 100.015H96.5579V103.473H100.015V100.015Z" fill="black"/>
<path d="M103.473 100.015H100.015V103.473H103.473V100.015Z" fill="black"/>
<path d="M110.387 100.015H106.93V103.473H110.387V100.015Z" fill="black"/>
<path d="M124.216 100.015H120.759V103.473H124.216V100.015Z" fill="black"/>
<path d="M134.588 100.015H131.131V103.473H134.588V100.015Z" fill="black"/>
<path d="M144.96 100.015H141.503V103.473H144.96V100.015Z" fill="black"/>
<path d="M17.0396 103.473H13.5823V106.93H17.0396V103.473Z" fill="black"/>
<path d="M20.497 103.473H17.0396V106.93H20.497V103.473Z" fill="black"/>
<path d="M27.4116 103.473H23.9543L23.9543 106.93H27.4116V103.473Z" fill="black"/>
<path d="M30.8689 103.473H27.4116V106.93H30.8689V103.473Z" fill="black"/>
<path d="M51.6128 103.473H48.1555V106.93H51.6128V103.473Z" fill="black"/>
<path d="M55.0701 103.473H51.6128V106.93H55.0701V103.473Z" fill="black"/>
<path d="M58.5274 103.473H55.0701V106.93H58.5274V103.473Z" fill="black"/>
<path d="M65.4421 103.473H61.9848V106.93H65.4421V103.473Z" fill="black"/>
<path d="M96.5579 103.473H93.1006V106.93H96.5579V103.473Z" fill="black"/>
<path d="M106.93 103.473H103.473V106.93H106.93V103.473Z" fill="black"/>
<path d="M113.845 103.473H110.387V106.93H113.845V103.473Z" fill="black"/>
<path d="M117.302 103.473H113.845V106.93H117.302V103.473Z" fill="black"/>
<path d="M124.216 103.473H120.759V106.93H124.216V103.473Z" fill="black"/>
<path d="M127.674 103.473H124.216V106.93H127.674V103.473Z" fill="black"/>
<path d="M134.588 103.473H131.131V106.93H134.588V103.473Z" fill="black"/>
<path d="M151.875 103.473H148.418V106.93H151.875V103.473Z" fill="black"/>
<path d="M20.497 106.93H17.0396V110.387H20.497V106.93Z" fill="black"/>
<path d="M27.4116 106.93H23.9543V110.387H27.4116V106.93Z" fill="black"/>
<path d="M34.3262 106.93H30.8689V110.387H34.3262V106.93Z" fill="black"/>
<path d="M37.7835 106.93H34.3262V110.387H37.7835V106.93Z" fill="black"/>
<path d="M41.2409 106.93H37.7835V110.387H41.2409V106.93Z" fill="black"/>
<path d="M44.6982 106.93H41.2409V110.387H44.6982V106.93Z" fill="black"/>
<path d="M48.1555 106.93H44.6982V110.387H48.1555V106.93Z" fill="black"/>
<path d="M58.5274 106.93H55.0701V110.387H58.5274V106.93Z" fill="black"/>
<path d="M72.3567 106.93H68.8994V110.387H72.3567V106.93Z" fill="black"/>
<path d="M75.814 106.93H72.3567V110.387H75.814V106.93Z" fill="black"/>
<path d="M79.2713 106.93H75.814V110.387H79.2713V106.93Z" fill="black"/>
<path d="M86.186 106.93H82.7287V110.387H86.186V106.93Z" fill="black"/>
<path d="M89.6433 106.93H86.186V110.387H89.6433V106.93Z" fill="black"/>
<path d="M93.1006 106.93H89.6433V110.387H93.1006V106.93Z" fill="black"/>
<path d="M103.473 106.93H100.015V110.387H103.473V106.93Z" fill="black"/>
<path d="M113.845 106.93H110.387V110.387H113.845V106.93Z" fill="black"/>
<path d="M117.302 106.93H113.845V110.387H117.302V106.93Z" fill="black"/>
<path d="M124.216 106.93H120.759V110.387H124.216V106.93Z" fill="black"/>
<path d="M127.674 106.93H124.216V110.387H127.674V106.93Z" fill="black"/>
<path d="M134.588 106.93H131.131V110.387H134.588V106.93Z" fill="black"/>
<path d="M138.046 106.93H134.588V110.387H138.046V106.93Z" fill="black"/>
<path d="M148.418 106.93H144.96V110.387H148.418V106.93Z" fill="black"/>
<path d="M151.875 106.93H148.418V110.387H151.875V106.93Z" fill="black"/>
<path d="M13.5823 110.387H10.125V113.845H13.5823V110.387Z" fill="black"/>
<path d="M20.497 110.387H17.0396V113.845H20.497V110.387Z" fill="black"/>
<path d="M23.9543 110.387H20.497V113.845H23.9543L23.9543 110.387Z" fill="black"/>
<path d="M27.4116 110.387H23.9543L23.9543 113.845H27.4116V110.387Z" fill="black"/>
<path d="M37.7835 110.387H34.3262V113.845H37.7835V110.387Z" fill="black"/>
<path d="M58.5274 110.387H55.0701V113.845H58.5274V110.387Z" fill="black"/>
<path d="M65.4421 110.387H61.9848V113.845H65.4421V110.387Z" fill="black"/>
<path d="M68.8994 110.387H65.4421V113.845H68.8994V110.387Z" fill="black"/>
<path d="M72.3567 110.387H68.8994V113.845H72.3567V110.387Z" fill="black"/>
<path d="M75.814 110.387H72.3567V113.845H75.814V110.387Z" fill="black"/>
<path d="M82.7287 110.387H79.2713V113.845H82.7287V110.387Z" fill="black"/>
<path d="M86.186 110.387H82.7287V113.845H86.186V110.387Z" fill="black"/>
<path d="M96.5579 110.387H93.1006V113.845H96.5579V110.387Z" fill="black"/>
<path d="M100.015 110.387H96.5579V113.845H100.015V110.387Z" fill="black"/>
<path d="M106.93 110.387H103.473V113.845H106.93V110.387Z" fill="black"/>
<path d="M113.845 110.387H110.387V113.845H113.845V110.387Z" fill="black"/>
<path d="M120.759 110.387H117.302V113.845H120.759V110.387Z" fill="black"/>
<path d="M127.674 110.387H124.216V113.845H127.674V110.387Z" fill="black"/>
<path d="M141.503 110.387H138.046V113.845H141.503V110.387Z" fill="black"/>
<path d="M144.96 110.387H141.503V113.845H144.96V110.387Z" fill="black"/>
<path d="M148.418 110.387H144.96V113.845H148.418V110.387Z" fill="black"/>
<path d="M151.875 110.387H148.418V113.845H151.875V110.387Z" fill="black"/>
<path d="M20.497 113.845H17.0396V117.302H20.497V113.845Z" fill="black"/>
<path d="M27.4116 113.845H23.9543L23.9543 117.302H27.4116V113.845Z" fill="black"/>
<path d="M34.3262 113.845H30.8689V117.302H34.3262V113.845Z" fill="black"/>
<path d="M51.6128 113.845H48.1555V117.302H51.6128V113.845Z" fill="black"/>
<path d="M65.4421 113.845H61.9848V117.302H65.4421V113.845Z" fill="black"/>
<path d="M68.8994 113.845H65.4421V117.302H68.8994V113.845Z" fill="black"/>
<path d="M89.6433 113.845H86.186V117.302H89.6433V113.845Z" fill="black"/>
<path d="M93.1006 113.845H89.6433V117.302H93.1006V113.845Z" fill="black"/>
<path d="M100.015 113.845H96.5579V117.302H100.015V113.845Z" fill="black"/>
<path d="M103.473 113.845H100.015V117.302H103.473V113.845Z" fill="black"/>
<path d="M120.759 113.845H117.302V117.302H120.759V113.845Z" fill="black"/>
<path d="M131.131 113.845H127.674V117.302H131.131V113.845Z" fill="black"/>
<path d="M134.588 113.845H131.131V117.302H134.588V113.845Z" fill="black"/>
<path d="M138.046 113.845H134.588V117.302H138.046V113.845Z" fill="black"/>
<path d="M141.503 113.845H138.046V117.302H141.503V113.845Z" fill="black"/>
<path d="M144.96 113.845H141.503V117.302H144.96V113.845Z" fill="black"/>
<path d="M20.497 117.302H17.0396V120.759H20.497V117.302Z" fill="black"/>
<path d="M30.8689 117.302H27.4116V120.759H30.8689V117.302Z" fill="black"/>
<path d="M37.7835 117.302H34.3262V120.759H37.7835V117.302Z" fill="black"/>
<path d="M48.1555 117.302H44.6982V120.759H48.1555V117.302Z" fill="black"/>
<path d="M55.0701 117.302H51.6128V120.759H55.0701V117.302Z" fill="black"/>
<path d="M68.8994 117.302H65.4421V120.759H68.8994V117.302Z" fill="black"/>
<path d="M79.2713 117.302H75.814V120.759H79.2713V117.302Z" fill="black"/>
<path d="M82.7287 117.302H79.2713V120.759H82.7287V117.302Z" fill="black"/>
<path d="M89.6433 117.302H86.186V120.759H89.6433V117.302Z" fill="black"/>
<path d="M93.1006 117.302H89.6433V120.759H93.1006V117.302Z" fill="black"/>
<path d="M100.015 117.302H96.5579V120.759H100.015V117.302Z" fill="black"/>
<path d="M127.674 117.302H124.216V120.759H127.674V117.302Z" fill="black"/>
<path d="M131.131 117.302H127.674V120.759H131.131V117.302Z" fill="black"/>
<path d="M141.503 117.302H138.046V120.759H141.503V117.302Z" fill="black"/>
<path d="M148.418 117.302H144.96V120.759H148.418V117.302Z" fill="black"/>
<path d="M20.497 120.759H17.0396V124.216H20.497V120.759Z" fill="black"/>
<path d="M30.8689 120.759H27.4116V124.216H30.8689V120.759Z" fill="black"/>
<path d="M34.3262 120.759H30.8689V124.216H34.3262V120.759Z" fill="black"/>
<path d="M37.7835 120.759H34.3262V124.216H37.7835V120.759Z" fill="black"/>
<path d="M44.6982 120.759H41.2409V124.216H44.6982V120.759Z" fill="black"/>
<path d="M55.0701 120.759H51.6128V124.216H55.0701V120.759Z" fill="black"/>
<path d="M58.5274 120.759H55.0701V124.216H58.5274V120.759Z" fill="black"/>
<path d="M65.4421 120.759H61.9848V124.216H65.4421V120.759Z" fill="black"/>
<path d="M68.8994 120.759H65.4421V124.216H68.8994V120.759Z" fill="black"/>
<path d="M75.814 120.759H72.3567V124.216H75.814V120.759Z" fill="black"/>
<path d="M86.186 120.759H82.7287V124.216H86.186V120.759Z" fill="black"/>
<path d="M93.1006 120.759H89.6433V124.216H93.1006V120.759Z" fill="black"/>
<path d="M96.5579 120.759H93.1006V124.216H96.5579V120.759Z" fill="black"/>
<path d="M103.473 120.759H100.015V124.216H103.473V120.759Z" fill="black"/>
<path d="M106.93 120.759H103.473V124.216H106.93V120.759Z" fill="black"/>
<path d="M110.387 120.759H106.93V124.216H110.387V120.759Z" fill="black"/>
<path d="M117.302 120.759H113.845V124.216H117.302V120.759Z" fill="black"/>
<path d="M120.759 120.759H117.302V124.216H120.759V120.759Z" fill="black"/>
<path d="M124.216 120.759H120.759V124.216H124.216V120.759Z" fill="black"/>
<path d="M127.674 120.759H124.216V124.216H127.674V120.759Z" fill="black"/>
<path d="M131.131 120.759H127.674V124.216H131.131V120.759Z" fill="black"/>
<path d="M134.588 120.759H131.131V124.216H134.588V120.759Z" fill="black"/>
<path d="M138.046 120.759H134.588V124.216H138.046V120.759Z" fill="black"/>
<path d="M141.503 120.759H138.046V124.216H141.503V120.759Z" fill="black"/>
<path d="M151.875 120.759H148.418V124.216H151.875V120.759Z" fill="black"/>
<path d="M41.2409 124.216H37.7835V127.674H41.2409V124.216Z" fill="black"/>
<path d="M44.6982 124.216H41.2409V127.674H44.6982V124.216Z" fill="black"/>
<path d="M48.1555 124.216H44.6982V127.674H48.1555V124.216Z" fill="black"/>
<path d="M51.6128 124.216H48.1555V127.674H51.6128V124.216Z" fill="black"/>
<path d="M55.0701 124.216H51.6128V127.674H55.0701V124.216Z" fill="black"/>
<path d="M58.5274 124.216H55.0701V127.674H58.5274V124.216Z" fill="black"/>
<path d="M75.814 124.216H72.3567V127.674H75.814V124.216Z" fill="black"/>
<path d="M79.2713 124.216H75.814V127.674H79.2713V124.216Z" fill="black"/>
<path d="M89.6433 124.216H86.186V127.674H89.6433V124.216Z" fill="black"/>
<path d="M93.1006 124.216H89.6433V127.674H93.1006V124.216Z" fill="black"/>
<path d="M96.5579 124.216H93.1006V127.674H96.5579V124.216Z" fill="black"/>
<path d="M110.387 124.216H106.93V127.674H110.387V124.216Z" fill="black"/>
<path d="M120.759 124.216H117.302V127.674H120.759V124.216Z" fill="black"/>
<path d="M124.216 124.216H120.759V127.674H124.216V124.216Z" fill="black"/>
<path d="M138.046 124.216H134.588V127.674H138.046V124.216Z" fill="black"/>
<path d="M141.503 124.216H138.046V127.674H141.503V124.216Z" fill="black"/>
<path d="M151.875 124.216H148.418V127.674H151.875V124.216Z" fill="black"/>
<path d="M13.5823 127.674H10.125V131.131H13.5823V127.674Z" fill="black"/>
<path d="M17.0396 127.674H13.5823V131.131H17.0396V127.674Z" fill="black"/>
<path d="M20.497 127.674H17.0396V131.131H20.497V127.674Z" fill="black"/>
<path d="M23.9543 127.674H20.497V131.131H23.9543V127.674Z" fill="black"/>
<path d="M27.4116 127.674H23.9543V131.131H27.4116V127.674Z" fill="black"/>
<path d="M30.8689 127.674H27.4116V131.131H30.8689V127.674Z" fill="black"/>
<path d="M34.3262 127.674H30.8689V131.131H34.3262V127.674Z" fill="black"/>
<path d="M48.1555 127.674H44.6982V131.131H48.1555V127.674Z" fill="black"/>
<path d="M55.0701 127.674H51.6128V131.131H55.0701V127.674Z" fill="black"/>
<path d="M61.9848 127.674H58.5274V131.131H61.9848V127.674Z" fill="black"/>
<path d="M65.4421 127.674H61.9848V131.131H65.4421V127.674Z" fill="black"/>
<path d="M72.3567 127.674H68.8994V131.131H72.3567V127.674Z" fill="black"/>
<path d="M75.814 127.674H72.3567V131.131H75.814V127.674Z" fill="black"/>
<path d="M79.2713 127.674H75.814V131.131H79.2713V127.674Z" fill="black"/>
<path d="M82.7287 127.674H79.2713V131.131H82.7287V127.674Z" fill="black"/>
<path d="M86.186 127.674H82.7287V131.131H86.186V127.674Z" fill="black"/>
<path d="M89.6433 127.674H86.186V131.131H89.6433V127.674Z" fill="black"/>
<path d="M93.1006 127.674H89.6433V131.131H93.1006V127.674Z" fill="black"/>
<path d="M96.5579 127.674H93.1006V131.131H96.5579V127.674Z" fill="black"/>
<path d="M100.015 127.674H96.5579V131.131H100.015V127.674Z" fill="black"/>
<path d="M103.473 127.674H100.015V131.131H103.473V127.674Z" fill="black"/>
<path d="M124.216 127.674H120.759V131.131H124.216V127.674Z" fill="black"/>
<path d="M131.131 127.674H127.674V131.131H131.131V127.674Z" fill="black"/>
<path d="M138.046 127.674H134.588V131.131H138.046V127.674Z" fill="black"/>
<path d="M141.503 127.674H138.046V131.131H141.503V127.674Z" fill="black"/>
<path d="M148.418 127.674H144.96V131.131H148.418V127.674Z" fill="black"/>
<path d="M13.5823 131.131H10.125V134.588H13.5823V131.131Z" fill="black"/>
<path d="M34.3262 131.131H30.8689V134.588H34.3262V131.131Z" fill="black"/>
<path d="M41.2409 131.131H37.7835V134.588H41.2409V131.131Z" fill="black"/>
<path d="M48.1555 131.131H44.6982V134.588H48.1555V131.131Z" fill="black"/>
<path d="M65.4421 131.131H61.9848V134.588H65.4421V131.131Z" fill="black"/>
<path d="M68.8994 131.131H65.4421V134.588H68.8994V131.131Z" fill="black"/>
<path d="M72.3567 131.131H68.8994V134.588H72.3567V131.131Z" fill="black"/>
<path d="M79.2713 131.131H75.814V134.588H79.2713V131.131Z" fill="black"/>
<path d="M82.7287 131.131H79.2713V134.588H82.7287V131.131Z" fill="black"/>
<path d="M103.473 131.131H100.015V134.588H103.473V131.131Z" fill="black"/>
<path d="M106.93 131.131H103.473V134.588H106.93V131.131Z" fill="black"/>
<path d="M113.845 131.131H110.387V134.588H113.845V131.131Z" fill="black"/>
<path d="M124.216 131.131H120.759V134.588H124.216V131.131Z" fill="black"/>
<path d="M138.046 131.131H134.588V134.588H138.046V131.131Z" fill="black"/>
<path d="M148.418 131.131H144.96V134.588H148.418V131.131Z" fill="black"/>
<path d="M151.875 131.131H148.418V134.588H151.875V131.131Z" fill="black"/>
<path d="M13.5823 134.588H10.125V138.046H13.5823V134.588Z" fill="black"/>
<path d="M20.497 134.588H17.0396V138.046H20.497V134.588Z" fill="black"/>
<path d="M23.9543 134.588H20.497V138.046H23.9543V134.588Z" fill="black"/>
<path d="M27.4116 134.588H23.9543V138.046H27.4116V134.588Z" fill="black"/>
<path d="M34.3262 134.588H30.8689V138.046H34.3262V134.588Z" fill="black"/>
<path d="M48.1555 134.588H44.6982V138.046H48.1555V134.588Z" fill="black"/>
<path d="M51.6128 134.588H48.1555V138.046H51.6128V134.588Z" fill="black"/>
<path d="M61.9848 134.588H58.5274V138.046H61.9848V134.588Z" fill="black"/>
<path d="M65.4421 134.588H61.9848V138.046H65.4421V134.588Z" fill="black"/>
<path d="M75.814 134.588H72.3567V138.046H75.814V134.588Z" fill="black"/>
<path d="M93.1006 134.588H89.6433V138.046H93.1006V134.588Z" fill="black"/>
<path d="M103.473 134.588H100.015V138.046H103.473V134.588Z" fill="black"/>
<path d="M106.93 134.588H103.473V138.046H106.93V134.588Z" fill="black"/>
<path d="M117.302 134.588H113.845V138.046H117.302V134.588Z" fill="black"/>
<path d="M124.216 134.588H120.759V138.046H124.216V134.588Z" fill="black"/>
<path d="M127.674 134.588H124.216V138.046H127.674V134.588Z" fill="black"/>
<path d="M131.131 134.588H127.674V138.046H131.131V134.588Z" fill="black"/>
<path d="M134.588 134.588H131.131V138.046H134.588V134.588Z" fill="black"/>
<path d="M138.046 134.588H134.588V138.046H138.046V134.588Z" fill="black"/>
<path d="M141.503 134.588H138.046V138.046H141.503V134.588Z" fill="black"/>
<path d="M144.96 134.588H141.503V138.046H144.96V134.588Z" fill="black"/>
<path d="M151.875 134.588H148.418V138.046H151.875V134.588Z" fill="black"/>
<path d="M13.5823 138.046H10.125V141.503H13.5823V138.046Z" fill="black"/>
<path d="M20.497 138.046H17.0396V141.503H20.497V138.046Z" fill="black"/>
<path d="M23.9543 138.046H20.497V141.503H23.9543V138.046Z" fill="black"/>
<path d="M27.4116 138.046H23.9543V141.503H27.4116V138.046Z" fill="black"/>
<path d="M34.3262 138.046H30.8689V141.503H34.3262V138.046Z" fill="black"/>
<path d="M44.6982 138.046H41.2409V141.503H44.6982V138.046Z" fill="black"/>
<path d="M48.1555 138.046H44.6982V141.503H48.1555V138.046Z" fill="black"/>
<path d="M55.0701 138.046H51.6128V141.503H55.0701V138.046Z" fill="black"/>
<path d="M61.9848 138.046H58.5274V141.503H61.9848V138.046Z" fill="black"/>
<path d="M68.8994 138.046H65.4421V141.503H68.8994V138.046Z" fill="black"/>
<path d="M72.3567 138.046H68.8994V141.503H72.3567V138.046Z" fill="black"/>
<path d="M79.2713 138.046H75.814V141.503H79.2713V138.046Z" fill="black"/>
<path d="M82.7287 138.046H79.2713V141.503H82.7287V138.046Z" fill="black"/>
<path d="M96.5579 138.046H93.1006V141.503H96.5579V138.046Z" fill="black"/>
<path d="M100.015 138.046H96.5579V141.503H100.015V138.046Z" fill="black"/>
<path d="M120.759 138.046H117.302V141.503H120.759V138.046Z" fill="black"/>
<path d="M124.216 138.046H120.759V141.503H124.216V138.046Z" fill="black"/>
<path d="M141.503 138.046H138.046V141.503H141.503V138.046Z" fill="black"/>
<path d="M144.96 138.046H141.503V141.503H144.96V138.046Z" fill="black"/>
<path d="M151.875 138.046H148.418V141.503H151.875V138.046Z" fill="black"/>
<path d="M13.5823 141.503H10.125V144.96H13.5823V141.503Z" fill="black"/>
<path d="M20.497 141.503H17.0396V144.96H20.497V141.503Z" fill="black"/>
<path d="M23.9543 141.503H20.497V144.96H23.9543V141.503Z" fill="black"/>
<path d="M27.4116 141.503H23.9543V144.96H27.4116V141.503Z" fill="black"/>
<path d="M34.3262 141.503H30.8689V144.96H34.3262V141.503Z" fill="black"/>
<path d="M44.6982 141.503H41.2409V144.96H44.6982V141.503Z" fill="black"/>
<path d="M48.1555 141.503H44.6982V144.96H48.1555V141.503Z" fill="black"/>
<path d="M51.6128 141.503H48.1555V144.96H51.6128V141.503Z" fill="black"/>
<path d="M61.9848 141.503H58.5274V144.96H61.9848V141.503Z" fill="black"/>
<path d="M72.3567 141.503H68.8994V144.96H72.3567V141.503Z" fill="black"/>
<path d="M89.6433 141.503H86.186V144.96H89.6433V141.503Z" fill="black"/>
<path d="M93.1006 141.503H89.6433V144.96H93.1006V141.503Z" fill="black"/>
<path d="M96.5579 141.503H93.1006V144.96H96.5579V141.503Z" fill="black"/>
<path d="M117.302 141.503H113.845V144.96H117.302V141.503Z" fill="black"/>
<path d="M124.216 141.503H120.759V144.96H124.216V141.503Z" fill="black"/>
<path d="M131.131 141.503H127.674V144.96H131.131V141.503Z" fill="black"/>
<path d="M134.588 141.503H131.131V144.96H134.588V141.503Z" fill="black"/>
<path d="M141.503 141.503H138.046V144.96H141.503V141.503Z" fill="black"/>
<path d="M144.96 141.503H141.503V144.96H144.96V141.503Z" fill="black"/>
<path d="M151.875 141.503H148.418V144.96H151.875V141.503Z" fill="black"/>
<path d="M13.5823 144.96H10.125V148.418H13.5823V144.96Z" fill="black"/>
<path d="M34.3262 144.96H30.8689V148.418H34.3262V144.96Z" fill="black"/>
<path d="M75.814 144.96H72.3567V148.418H75.814V144.96Z" fill="black"/>
<path d="M79.2713 144.96H75.814V148.418H79.2713V144.96Z" fill="black"/>
<path d="M86.186 144.96H82.7287V148.418H86.186V144.96Z" fill="black"/>
<path d="M89.6433 144.96H86.186V148.418H89.6433V144.96Z" fill="black"/>
<path d="M103.473 144.96H100.015V148.418H103.473V144.96Z" fill="black"/>
<path d="M117.302 144.96H113.845V148.418H117.302V144.96Z" fill="black"/>
<path d="M120.759 144.96H117.302V148.418H120.759V144.96Z" fill="black"/>
<path d="M131.131 144.96H127.674V148.418H131.131V144.96Z" fill="black"/>
<path d="M144.96 144.96H141.503V148.418H144.96V144.96Z" fill="black"/>
<path d="M148.418 144.96H144.96V148.418H148.418V144.96Z" fill="black"/>
<path d="M151.875 144.96H148.418V148.418H151.875V144.96Z" fill="black"/>
<path d="M13.5823 148.418H10.125V151.875H13.5823V148.418Z" fill="black"/>
<path d="M17.0396 148.418H13.5823V151.875H17.0396V148.418Z" fill="black"/>
<path d="M20.497 148.418H17.0396V151.875H20.497V148.418Z" fill="black"/>
<path d="M23.9543 148.418H20.497V151.875H23.9543V148.418Z" fill="black"/>
<path d="M27.4116 148.418H23.9543V151.875H27.4116V148.418Z" fill="black"/>
<path d="M30.8689 148.418H27.4116V151.875H30.8689V148.418Z" fill="black"/>
<path d="M34.3262 148.418H30.8689V151.875H34.3262V148.418Z" fill="black"/>
<path d="M44.6982 148.418H41.2409V151.875H44.6982V148.418Z" fill="black"/>
<path d="M51.6128 148.418H48.1555V151.875H51.6128V148.418Z" fill="black"/>
<path d="M55.0701 148.418H51.6128V151.875H55.0701V148.418Z" fill="black"/>
<path d="M61.9848 148.418H58.5274V151.875H61.9848V148.418Z" fill="black"/>
<path d="M72.3567 148.418H68.8994V151.875H72.3567V148.418Z" fill="black"/>
<path d="M75.814 148.418H72.3567V151.875H75.814V148.418Z" fill="black"/>
<path d="M82.7287 148.418H79.2713V151.875H82.7287V148.418Z" fill="black"/>
<path d="M86.186 148.418H82.7287V151.875H86.186V148.418Z" fill="black"/>
<path d="M100.015 148.418H96.5579V151.875H100.015V148.418Z" fill="black"/>
<path d="M103.473 148.418H100.015V151.875H103.473V148.418Z" fill="black"/>
<path d="M113.845 148.418H110.387V151.875H113.845V148.418Z" fill="black"/>
<path d="M117.302 148.418H113.845V151.875H117.302V148.418Z" fill="black"/>
<path d="M120.759 148.418H117.302V151.875H120.759V148.418Z" fill="black"/>
<path d="M124.216 148.418H120.759V151.875H124.216V148.418Z" fill="black"/>
<path d="M127.674 148.418H124.216V151.875H127.674V148.418Z" fill="black"/>
<path d="M134.588 148.418H131.131V151.875H134.588V148.418Z" fill="black"/>
<path d="M138.046 148.418H134.588V151.875H138.046V148.418Z" fill="black"/>
<path d="M141.503 148.418H138.046V151.875H141.503V148.418Z" fill="black"/>
<path d="M144.96 148.418H141.503V151.875H144.96V148.418Z" fill="black"/>
</g>
<rect x="0.613963" y="0.613963" width="160.772" height="160.772" rx="10.4374" stroke="black" stroke-width="1.22793"/>
<defs>
<clipPath id="clip0_813_1157">
<rect width="162" height="162" rx="11.0513" fill="white"/>
</clipPath>
</defs>
</svg>
