<svg width="24" height="25" viewBox="0 0 24 25" fill="none" xmlns="http://www.w3.org/2000/svg">
<path d="M22 12.5C22 6.97715 17.5228 2.5 12 2.5C6.47715 2.5 2 6.97715 2 12.5C2 18.0228 6.47715 22.5 12 22.5C17.5228 22.5 22 18.0228 22 12.5Z" fill="#7AD03A" stroke="black"/>
<path d="M12.8638 8.22209L13.7437 9.99644C13.8637 10.2434 14.1837 10.4804 14.4536 10.5257L16.0485 10.7929C17.0684 10.9643 17.3083 11.7103 16.5734 12.4462L15.3335 13.6964C15.1236 13.9081 15.0086 14.3164 15.0736 14.6087L15.4285 16.1562C15.7085 17.3812 15.0636 17.855 13.9887 17.2148L12.4939 16.3226C12.2239 16.1613 11.7789 16.1613 11.504 16.3226L10.0091 17.2148C8.93925 17.855 8.28932 17.3761 8.56929 16.1562L8.92425 14.6087C8.98925 14.3164 8.87426 13.9081 8.66428 13.6964L7.42442 12.4462C6.6945 11.7103 6.92947 10.9643 7.94936 10.7929L9.54419 10.5257C9.80916 10.4804 10.1291 10.2434 10.2491 9.99644L11.129 8.22209C11.609 7.2593 12.3889 7.2593 12.8638 8.22209Z" stroke="black" stroke-linecap="round" stroke-linejoin="round"/>
</svg>
