<svg width="50" height="50" viewBox="0 0 50 50" fill="none" xmlns="http://www.w3.org/2000/svg">
<g clip-path="url(#clip0_263_1269)">
<path d="M25 0.357422C38.6099 0.357422 49.6425 11.3902 49.6426 25C49.6426 38.6099 38.6099 49.6426 25 49.6426C11.3901 49.6426 0.357422 38.6099 0.357422 25C0.357457 11.3902 11.3901 0.357422 25 0.357422Z" fill="white" stroke="#2EA2CC" stroke-width="0.714286"/>
<path fill-rule="evenodd" clip-rule="evenodd" d="M24.9792 11.9102C21.8323 11.9102 19.2708 14.482 19.2708 17.6393C19.2708 20.7956 21.8323 23.3685 24.9792 23.3685C28.1271 23.3685 30.6875 20.7956 30.6875 17.6393C30.6885 14.482 28.1271 11.9102 24.9792 11.9102ZM24.9792 12.9518C27.5625 12.9518 29.6469 15.0424 29.6458 17.6393C29.6458 20.2352 27.5625 22.3268 24.9792 22.3268C24.3647 22.3264 23.7563 22.2047 23.189 21.9688C22.6216 21.7328 22.1064 21.3872 21.6729 20.9517C21.2393 20.5162 20.896 19.9995 20.6626 19.4311C20.4291 18.8627 20.3102 18.2538 20.3125 17.6393C20.3125 15.0424 22.3969 12.9518 24.9792 12.9518ZM21.875 24.4102C17.5542 24.4102 14.0625 27.9185 14.0625 32.2529V36.957C14.0625 37.0952 14.1174 37.2276 14.215 37.3253C14.3127 37.423 14.4452 37.4779 14.5833 37.4779H18.5979C18.697 37.5081 18.803 37.5081 18.9021 37.4779H31.0979C31.197 37.5081 31.303 37.5081 31.4021 37.4779H35.4167C35.5548 37.4779 35.6873 37.423 35.785 37.3253C35.8826 37.2276 35.9375 37.0952 35.9375 36.957V32.2529C35.9375 27.9185 32.4458 24.4091 28.125 24.4091L21.875 24.4102ZM21.875 25.4518H28.125C31.8844 25.4518 34.8958 28.4747 34.8958 32.2529V36.4362H31.7708V32.2445C31.7717 32.1749 31.7586 32.1058 31.7322 32.0413C31.7059 31.9769 31.6669 31.9183 31.6176 31.8692C31.5683 31.8201 31.5096 31.7813 31.445 31.7552C31.3804 31.7292 31.3113 31.7163 31.2417 31.7174C31.1039 31.7196 30.9726 31.7763 30.8765 31.8751C30.7805 31.9739 30.7275 32.1068 30.7292 32.2445V36.4362H19.2708V32.2445C19.2717 32.1749 19.2586 32.1058 19.2322 32.0413C19.2059 31.9769 19.1669 31.9183 19.1176 31.8692C19.0683 31.8201 19.0096 31.7813 18.945 31.7552C18.8804 31.7292 18.8113 31.7163 18.7417 31.7174C18.6039 31.7196 18.4726 31.7763 18.3765 31.8751C18.2805 31.9739 18.2275 32.1068 18.2292 32.2445V36.4362H15.1042V32.2529C15.1042 28.4747 18.1156 25.4518 21.875 25.4518Z" fill="#2EA2CC"/>
</g>
<defs>
<clipPath id="clip0_263_1269">
<rect width="50" height="50" fill="white"/>
</clipPath>
</defs>
</svg>
