<svg width="28" height="28" viewBox="0 0 28 28" fill="none" xmlns="http://www.w3.org/2000/svg">
<path d="M25.6668 14C25.6668 7.55672 20.4434 2.33337 14.0002 2.33337C7.55684 2.33337 2.3335 7.55672 2.3335 14C2.3335 20.4433 7.55684 25.6667 14.0002 25.6667C20.4434 25.6667 25.6668 20.4433 25.6668 14Z" fill="#1B6079"/>
<path d="M17.5 10.5C17.5 8.56701 15.933 7 14 7C12.0669 7 10.5 8.56701 10.5 10.5C10.5 12.433 12.0669 14 14 14C15.933 14 17.5 12.433 17.5 10.5Z" stroke="white" stroke-linecap="round" stroke-linejoin="round"/>
<path d="M19.8332 19.8333C19.8332 16.6117 17.2215 14 13.9998 14C10.7782 14 8.1665 16.6117 8.1665 19.8333" stroke="white" stroke-linecap="round" stroke-linejoin="round"/>
</svg>
