<svg width="40" height="41" viewBox="0 0 40 41" fill="none" xmlns="http://www.w3.org/2000/svg">
<rect x="0.5" y="1" width="39" height="39" rx="19.5" stroke="#7AD03A"/>
<path d="M16 24.5H23.2632C27.7508 24.5 28.4333 21.6808 29.261 17.5691C29.4998 16.3831 29.6192 15.7901 29.3321 15.3951C29.045 15 28.4947 15 27.3941 15H14" fill="#7AD03A"/>
<path d="M16 24.5H23.2632C27.7508 24.5 28.4333 21.6808 29.261 17.5691C29.4998 16.3831 29.6192 15.7901 29.3321 15.3951C29.045 15 28.4947 15 27.3941 15H14" stroke="#7AD03A" stroke-width="1.5" stroke-linecap="round"/>
<path d="M16 24.5L13.3787 12.0149C13.1561 11.1246 12.3562 10.5 11.4385 10.5H10.5" stroke="#7AD03A" stroke-width="1.5" stroke-linecap="round"/>
<path d="M16.88 24.5H16.4686C15.1052 24.5 14 25.6513 14 27.0714C14 27.3081 14.1842 27.5 14.4114 27.5H25.5" stroke="#7AD03A" stroke-width="1.5" stroke-linecap="round" stroke-linejoin="round"/>
<path d="M18.5 30.5C19.3284 30.5 20 29.8284 20 29C20 28.1716 19.3284 27.5 18.5 27.5C17.6716 27.5 17 28.1716 17 29C17 29.8284 17.6716 30.5 18.5 30.5Z" stroke="#7AD03A" stroke-width="1.5"/>
<path d="M25.5 30.5C26.3284 30.5 27 29.8284 27 29C27 28.1716 26.3284 27.5 25.5 27.5C24.6716 27.5 24 28.1716 24 29C24 29.8284 24.6716 30.5 25.5 30.5Z" stroke="#7AD03A" stroke-width="1.5"/>
<rect x="23" y="24" width="14.9464" height="15.6429" rx="7.47321" fill="#CA0202"/>
<path d="M29.1834 29.1754C29.669 28.8603 30.1599 28.7027 30.6559 28.7027C31.1415 28.7027 31.5058 28.8448 31.7486 29.1289C31.9605 29.3769 32.0664 29.7076 32.0664 30.1209C32.0664 30.4464 31.9837 30.7642 31.8184 31.0742C31.6685 31.3377 31.405 31.6942 31.0279 32.1437L29.9351 33.3837L29.6174 33.7712H32.1594V33.9882L31.8881 34.3214H28.9199V33.7634L29.5089 33.0582L30.7024 31.6709C30.94 31.3868 31.108 31.1491 31.2061 30.9579C31.3405 30.6996 31.4076 30.449 31.4076 30.2062C31.4076 29.9375 31.3275 29.7205 31.1674 29.5552C31.0072 29.3898 30.7928 29.3072 30.5241 29.3072C30.209 29.3072 29.8809 29.4286 29.5399 29.6714L29.1834 29.1754Z" fill="white"/>
</svg>
