<svg width="25" height="24" viewBox="0 0 25 24" fill="none" xmlns="http://www.w3.org/2000/svg">
<path d="M12.5 22C18.0228 22 22.5 17.5228 22.5 12C22.5 6.47715 18.0228 2 12.5 2C6.97715 2 2.5 6.47715 2.5 12C2.5 13.3789 2.77907 14.6926 3.28382 15.8877C3.56278 16.5481 3.70226 16.8784 3.71953 17.128C3.7368 17.3776 3.66334 17.6521 3.51642 18.2012L2.5 22L6.29877 20.9836C6.84788 20.8367 7.12244 20.7632 7.37202 20.7805C7.62161 20.7977 7.95185 20.9372 8.61235 21.2162C9.80745 21.7209 11.1211 22 12.5 22Z" stroke="#7AD03A" stroke-width="1.5" stroke-linejoin="round"/>
<path d="M9.08815 12.3773L9.95909 11.2956C10.3262 10.8397 10.7799 10.4153 10.8155 9.80826C10.8244 9.65494 10.7166 8.96657 10.5008 7.58986C10.416 7.04881 9.91086 7 9.47332 7C8.90314 7 8.61805 7 8.33495 7.12931C7.97714 7.29275 7.60979 7.75231 7.52917 8.13733C7.46539 8.44196 7.51279 8.65187 7.60759 9.07169C8.01023 10.8548 8.95481 12.6158 10.4195 14.0805C11.8842 15.5452 13.6452 16.4898 15.4283 16.8924C15.8481 16.9872 16.058 17.0346 16.3627 16.9708C16.7477 16.8902 17.2072 16.5229 17.3707 16.165C17.5 15.8819 17.5 15.5969 17.5 15.0267C17.5 14.5891 17.4512 14.084 16.9101 13.9992C15.5334 13.7834 14.8451 13.6756 14.6917 13.6845C14.0847 13.7201 13.6603 14.1738 13.2044 14.5409L12.1227 15.4118" stroke="#7AD03A" stroke-width="1.5"/>
</svg>
