<svg width="69" height="70" viewBox="0 0 69 70" fill="none" xmlns="http://www.w3.org/2000/svg">
<path d="M34.4998 66.7216C52.0725 66.7216 66.318 52.4761 66.318 34.9034C66.318 17.3307 52.0725 3.08521 34.4998 3.08521C16.9271 3.08521 2.68164 17.3307 2.68164 34.9034C2.68164 52.4761 16.9271 66.7216 34.4998 66.7216Z" fill="#E7EFFF"/>
<path d="M66.318 34.9034C66.318 41.1964 64.4519 47.3481 60.9557 52.5806C57.4594 57.8131 52.4901 61.8913 46.6761 64.2995C40.8621 66.7078 34.4645 67.3379 28.2924 66.1102C22.1203 64.8825 16.4508 61.8521 12.001 57.4022C7.55113 52.9524 4.52074 47.2829 3.29303 41.1108C2.06532 34.9387 2.69543 28.5411 5.10367 22.7271C7.51191 16.9131 11.5901 11.9438 16.8226 8.44753C22.0551 4.95131 28.2068 3.08521 34.4998 3.08521C42.9385 3.08521 51.0316 6.43747 56.9987 12.4045C62.9657 18.3716 66.318 26.4647 66.318 34.9034Z" fill="#E7EFFF"/>
<path d="M5.86319 4.35798C6.91755 4.35798 7.77228 3.50325 7.77228 2.44889C7.77228 1.39452 6.91755 0.539795 5.86319 0.539795C4.80883 0.539795 3.9541 1.39452 3.9541 2.44889C3.9541 3.50325 4.80883 4.35798 5.86319 4.35798Z" fill="#00C99F"/>
<path d="M66.954 7.53986C68.0084 7.53986 68.8631 6.68513 68.8631 5.63077C68.8631 4.57641 68.0084 3.72168 66.954 3.72168C65.8997 3.72168 65.0449 4.57641 65.0449 5.63077C65.0449 6.68513 65.8997 7.53986 66.954 7.53986Z" fill="#FFA100"/>
<path d="M63.7724 69.2672C64.8267 69.2672 65.6815 68.4124 65.6815 67.3581C65.6815 66.3037 64.8267 65.449 63.7724 65.449C62.718 65.449 61.8633 66.3037 61.8633 67.3581C61.8633 68.4124 62.718 69.2672 63.7724 69.2672Z" fill="#00C99F"/>
<path d="M2.04532 64.1761C3.09968 64.1761 3.95441 63.3214 3.95441 62.267C3.95441 61.2126 3.09968 60.3579 2.04532 60.3579C0.99096 60.3579 0.13623 61.2126 0.13623 62.267C0.13623 63.3214 0.99096 64.1761 2.04532 64.1761Z" fill="#FF4D69"/>
<path d="M35.1361 20.9033C34.7985 20.9033 34.4748 20.7693 34.2361 20.5306C33.9974 20.2919 33.8633 19.9682 33.8633 19.6306V13.267C33.8633 11.9168 33.327 10.6219 32.3722 9.66716C31.4175 8.71243 30.1226 8.17607 28.7724 8.17607H25.5906C25.2531 8.17607 24.9293 8.04198 24.6906 7.8033C24.452 7.56461 24.3179 7.24089 24.3179 6.90334C24.3179 6.56579 24.452 6.24207 24.6906 6.00339C24.9293 5.76471 25.2531 5.63062 25.5906 5.63062H28.7724C30.7977 5.63062 32.74 6.43516 34.1721 7.86725C35.6042 9.29935 36.4088 11.2417 36.4088 13.267V19.6306C36.4088 19.9682 36.2747 20.2919 36.036 20.5306C35.7973 20.7693 35.4736 20.9033 35.1361 20.9033Z" fill="#A5BCED"/>
<path d="M25.5909 9.44882C26.9967 9.44882 28.1363 8.30918 28.1363 6.90336C28.1363 5.49755 26.9967 4.35791 25.5909 4.35791C24.185 4.35791 23.0454 5.49755 23.0454 6.90336C23.0454 8.30918 24.185 9.44882 25.5909 9.44882Z" fill="#7F96D1"/>
<path d="M8.40896 20.9033C8.07141 20.9033 7.74769 20.7693 7.509 20.5306C7.27032 20.2919 7.13623 19.9682 7.13623 19.6306V13.267C7.13623 11.2417 7.94077 9.29935 9.37287 7.86725C10.805 6.43516 12.7473 5.63062 14.7726 5.63062H17.9544C18.292 5.63062 18.6157 5.76471 18.8544 6.00339C19.0931 6.24207 19.2271 6.56579 19.2271 6.90334C19.2271 7.24089 19.0931 7.56461 18.8544 7.8033C18.6157 8.04198 18.292 8.17607 17.9544 8.17607H14.7726C13.4224 8.17607 12.1275 8.71243 11.1728 9.66716C10.218 10.6219 9.68169 11.9168 9.68169 13.267V19.6306C9.68169 19.9682 9.54759 20.2919 9.30891 20.5306C9.07023 20.7693 8.74651 20.9033 8.40896 20.9033ZM27.9962 66.0852C26.4818 65.7723 24.9928 65.3469 23.5417 64.8124C21.5537 61.9078 20.4931 58.4686 20.4999 54.9488V53.3579C20.4999 53.0203 20.634 52.6966 20.8726 52.4579C21.1113 52.2193 21.435 52.0852 21.7726 52.0852C22.1101 52.0852 22.4339 52.2193 22.6726 52.4579C22.9112 52.6966 23.0453 53.0203 23.0453 53.3579V54.9488C23.0405 57.0489 23.4789 59.1264 24.3321 61.0454C25.1852 62.9645 26.4338 64.6818 27.9962 66.0852ZM55.4999 34.267C55.4999 57.2843 55.6717 56.5015 54.959 59.2697C53.7696 60.2661 52.5107 61.1763 51.1917 61.9933C52.3499 59.8259 52.9553 57.4062 52.9544 54.9488V34.267C52.9544 33.9294 53.0885 33.6057 53.3272 33.367C53.5659 33.1283 53.8896 32.9943 54.2271 32.9943C54.5647 32.9943 54.8884 33.1283 55.1271 33.367C55.3658 33.6057 55.4999 33.9294 55.4999 34.267Z" fill="#A5BCED"/>
<path d="M51.6816 34.9033H56.7725V37.4488C56.7725 37.6175 56.7055 37.7794 56.5862 37.8988C56.4668 38.0181 56.305 38.0851 56.1362 38.0851H52.318C52.1492 38.0851 51.9874 38.0181 51.868 37.8988C51.7487 37.7794 51.6816 37.6175 51.6816 37.4488V34.9033Z" fill="#323FD4"/>
<path d="M18.5908 49.5398H24.9545V53.358C24.9545 53.6955 24.8204 54.0192 24.5817 54.2579C24.343 54.4966 24.0193 54.6307 23.6817 54.6307H19.8635C19.526 54.6307 19.2023 54.4966 18.9636 54.2579C18.7249 54.0192 18.5908 53.6955 18.5908 53.358V49.5398Z" fill="#2581A2"/>
<path d="M32.5906 19.6306V32.9943C32.5906 35.8634 31.4508 38.6151 29.422 40.6439C27.3932 42.6727 24.6415 43.8125 21.7724 43.8125C18.9032 43.8125 16.1516 42.6727 14.1228 40.6439C12.094 38.6151 10.9542 35.8634 10.9542 32.9943V19.6306C10.9542 19.2931 10.8201 18.9694 10.5814 18.7307C10.3427 18.492 10.019 18.3579 9.68146 18.3579H7.13601C6.79846 18.3579 6.47474 18.492 6.23605 18.7307C5.99737 18.9694 5.86328 19.2931 5.86328 19.6306V32.9943C5.86328 37.2136 7.53941 41.2602 10.5229 44.2437C13.5065 47.2272 17.553 48.9034 21.7724 48.9034C25.9917 48.9034 30.0383 47.2272 33.0218 44.2437C36.0053 41.2602 37.6815 37.2136 37.6815 32.9943V19.6306C37.6815 19.2931 37.5474 18.9694 37.3087 18.7307C37.07 18.492 36.7463 18.3579 36.4087 18.3579H33.8633C33.5257 18.3579 33.202 18.492 32.9633 18.7307C32.7246 18.9694 32.5906 19.2931 32.5906 19.6306Z" fill="#2581A2"/>
<path d="M24.9542 41.9033H18.5906C17.8877 41.9033 17.3179 42.4731 17.3179 43.176V49.5397C17.3179 50.2426 17.8877 50.8124 18.5906 50.8124H24.9542C25.6571 50.8124 26.227 50.2426 26.227 49.5397V43.176C26.227 42.4731 25.6571 41.9033 24.9542 41.9033Z" fill="#323FD4"/>
<path d="M17.9541 9.44882C19.36 9.44882 20.4996 8.30918 20.4996 6.90336C20.4996 5.49755 19.36 4.35791 17.9541 4.35791C16.5483 4.35791 15.4087 5.49755 15.4087 6.90336C15.4087 8.30918 16.5483 9.44882 17.9541 9.44882Z" fill="#7F96D1"/>
<path d="M54.2275 36.1761C59.1478 36.1761 63.1365 32.1874 63.1365 27.267C63.1365 22.3466 59.1478 18.3579 54.2275 18.3579C49.3071 18.3579 45.3184 22.3466 45.3184 27.267C45.3184 32.1874 49.3071 36.1761 54.2275 36.1761Z" fill="#2581A2"/>
<path d="M54.2273 32.9943C57.3904 32.9943 59.9545 30.4302 59.9545 27.2671C59.9545 24.104 57.3904 21.5398 54.2273 21.5398C51.0642 21.5398 48.5 24.104 48.5 27.2671C48.5 30.4302 51.0642 32.9943 54.2273 32.9943Z" fill="#7AD03A"/>
</svg>
