<svg width="428" height="380" viewBox="0 0 428 380" fill="none" xmlns="http://www.w3.org/2000/svg">
<g clip-path="url(#clip0_1353_13238)">
<circle cx="217.5" cy="206.5" r="198.5" fill="url(#paint0_linear_1353_13238)"/>
<path d="M290.708 60.6479H238.777V73.9251H290.708V60.6479Z" fill="#EBEBEB"/>
<path d="M268.756 87.9168C268.756 87.9168 268.756 87.8256 268.756 87.6736C268.756 87.5216 268.756 87.2708 268.756 86.9896C268.756 86.3664 268.756 85.4696 268.718 84.3828C268.718 82.1028 268.665 78.7892 268.627 74.6396L268.786 74.7916L216.863 74.8904L217.122 74.6396V81.3732C217.122 83.5924 217.122 85.7736 217.122 87.9092L216.863 87.6584L253.875 87.7724L264.796 87.8408H267.753H268.513C268.604 87.8291 268.696 87.8291 268.786 87.8408C268.708 87.8482 268.629 87.8482 268.551 87.8408H267.791H264.895L254.035 87.9168L216.84 88.0308H216.582V81.244C216.582 80.142 216.582 79.0248 216.582 77.9V74.6472C217.114 74.1304 216.734 74.5028 216.856 74.3888L268.756 74.48H268.923V74.6396C268.885 78.8348 268.855 82.156 268.832 84.474C268.832 85.576 268.832 86.4348 268.794 87.0504C268.794 87.3164 268.794 87.5368 268.794 87.704C268.793 87.7765 268.78 87.8483 268.756 87.9168Z" fill="#E0E0E0"/>
<path d="M294.607 209.631H242.676V222.908H294.607V209.631Z" fill="#EBEBEB"/>
<path d="M272.643 236.9C272.643 236.9 272.643 236.816 272.643 236.656C272.643 236.497 272.643 236.254 272.643 235.98C272.643 235.349 272.643 234.46 272.605 233.366C272.605 231.086 272.552 227.78 272.514 223.622L272.673 223.774L220.75 223.873L221.008 223.622V230.364C221.008 232.575 221.008 234.756 221.008 236.892L220.75 236.641L257.762 236.755L268.683 236.824L271.64 236.862H272.4H272.673C272.595 236.869 272.516 236.869 272.438 236.862H271.678L268.782 236.9L257.914 236.968L220.727 237.082H220.469V236.831C220.469 234.696 220.469 232.514 220.469 230.303V223.562L220.742 223.303L272.666 223.402H272.833V223.562C272.795 227.757 272.764 231.078 272.742 233.396C272.742 234.498 272.742 235.357 272.742 235.972C272.742 236.246 272.742 236.459 272.742 236.626C272.732 236.724 272.698 236.818 272.643 236.9Z" fill="#E0E0E0"/>
<path d="M122.802 235.828H70.8711V249.105H122.802V235.828Z" fill="#EBEBEB"/>
<path d="M100.837 263.097C100.837 263.097 100.837 263.005 100.837 262.853C100.837 262.701 100.837 262.451 100.837 262.169C100.837 261.546 100.837 260.649 100.799 259.555C100.799 257.275 100.746 253.969 100.708 249.812L100.868 249.971L48.914 250.04C49.028 249.926 48.648 250.298 49.1724 249.781V256.515C49.1724 258.734 49.1724 260.915 49.1724 263.051L48.914 262.8L85.926 262.914L96.8472 262.983H99.8036H100.564H100.837H100.602H99.8416H96.946L86.078 263.059L48.8912 263.173H48.6328V256.386C48.6328 255.276 48.6328 254.159 48.6328 253.034V249.652C49.1648 249.143 48.7848 249.515 48.9064 249.401L100.83 249.5H100.997V249.652C100.997 253.847 100.928 257.176 100.906 259.494C100.906 260.596 100.906 261.455 100.868 262.071C100.868 262.337 100.868 262.549 100.868 262.724C100.889 262.849 100.878 262.977 100.837 263.097Z" fill="#E0E0E0"/>
<path d="M362.884 23.3545H310.953V36.6317H362.884V23.3545Z" fill="#EBEBEB"/>
<path d="M191.634 309.351H139.703V322.628H191.634V309.351Z" fill="#EBEBEB"/>
<path d="M375.966 278.267H324.035V291.544H375.966V278.267Z" fill="#EBEBEB"/>
<path d="M182.876 23.3545H70.3047V209.684H182.876V23.3545Z" fill="#E0E0E0"/>
<path d="M179.13 23.3545H66.5586V209.684H179.13V23.3545Z" fill="#EBEBEB"/>
<path d="M174.339 27.1318H71.3594V205.907H174.339V27.1318Z" fill="#FAFAFA"/>
<path d="M154.284 50.3652H90.9609V182.681H154.284V50.3652Z" fill="#EBEBEB"/>
<path d="M90.9584 135.857C90.814 123.492 101.925 111.431 114.169 109.706C120.006 108.885 126.2 110.04 131.649 107.806C141.384 103.816 144.478 90.8805 154.274 87.0425L154.76 182.681H90.9584V135.857Z" fill="#E0E0E0"/>
<path d="M368.865 134.702C368.865 134.702 368.865 134.634 368.865 134.497C368.865 134.36 368.865 134.163 368.865 133.919C368.865 133.395 368.865 132.658 368.827 131.708C368.827 129.77 368.789 126.981 368.759 123.462L368.888 123.591L326.662 123.675C326.753 123.576 326.442 123.895 326.875 123.462V126.319C326.875 127.269 326.875 128.219 326.875 129.154V134.687L326.662 134.474L356.758 134.573L365.643 134.634H368.044H368.675H368.895C368.83 134.642 368.763 134.642 368.698 134.634H368.097H365.741L356.91 134.687L326.662 134.786H326.457V134.573C326.457 132.764 326.457 130.92 326.457 129.04V123.348L326.677 123.127L368.903 123.211H369.032V123.348C369.032 126.897 368.979 129.717 368.964 131.708C368.964 132.635 368.964 133.365 368.964 133.889C368.964 134.117 368.964 134.299 368.964 134.444C368.964 134.588 368.873 134.71 368.865 134.702Z" fill="#E0E0E0"/>
<path d="M374.596 123.462C374.588 123.389 374.588 123.315 374.596 123.242C374.596 123.082 374.596 122.892 374.596 122.649C374.596 122.094 374.596 121.342 374.596 120.369C374.596 118.401 374.55 115.619 374.512 112.192L374.672 112.351L349.295 112.412L349.508 112.192V117.975C349.508 119.86 349.508 121.684 349.508 123.432L349.303 123.227L367.452 123.318L372.772 123.379H374.201C374.37 123.368 374.54 123.368 374.71 123.379C374.555 123.389 374.401 123.389 374.246 123.379H372.863L367.619 123.44L349.333 123.538H349.128V123.333C349.128 121.585 349.128 119.761 349.128 117.876V112.093C349.083 112.138 349.539 111.682 349.349 111.88L374.725 111.941H374.877V112.093C374.877 115.558 374.816 118.37 374.793 120.369C374.793 121.304 374.793 122.041 374.755 122.588C374.717 123.136 374.603 123.47 374.596 123.462Z" fill="#E0E0E0"/>
<path d="M377.674 347.479C377.674 347.593 303.727 347.677 212.526 347.677C121.326 347.677 47.3633 347.593 47.3633 347.479C47.3633 347.365 121.319 347.32 212.519 347.32C303.719 347.32 377.674 347.373 377.674 347.479Z" fill="#263238"/>
<path d="M266.822 207.113L251.256 201.305C239.999 208.265 226.546 210.762 213.54 208.308C200.535 205.853 188.918 198.623 180.972 188.039C173.026 177.455 169.325 164.282 170.597 151.108C171.869 137.935 178.022 125.713 187.846 116.845C197.67 107.977 210.456 103.103 223.691 103.182C236.925 103.261 249.652 108.286 259.37 117.271C269.088 126.255 275.095 138.55 276.21 151.737C277.325 164.925 273.467 178.053 265.396 188.542L266.822 207.113Z" fill="white"/>
<path d="M266.82 207.112C266.82 207.112 266.82 206.683 266.706 205.85C266.592 205.017 266.529 203.843 266.39 202.29C266.138 199.159 265.747 194.551 265.254 188.567L265.519 188.681C265.487 188.711 265.444 188.727 265.399 188.727C265.355 188.727 265.312 188.711 265.279 188.681C265.26 188.65 265.25 188.615 265.25 188.58C265.25 188.544 265.26 188.509 265.279 188.479C272.369 179.271 276.221 167.982 276.238 156.362C276.199 153.448 275.946 150.54 275.48 147.663C273.599 136.293 268.036 125.856 259.648 117.954C251.259 110.051 240.508 105.121 229.046 103.921C217.585 102.721 206.046 105.317 196.202 111.311C186.359 117.304 178.755 126.363 174.559 137.097C171.617 144.73 170.46 152.934 171.176 161.083C171.875 168.747 174.268 176.159 178.183 182.785C185.113 194.585 196.35 203.238 209.529 206.923L211.713 207.491C212.428 207.703 213.158 207.855 213.897 207.946L218.177 208.615C220.911 208.837 223.655 208.905 226.396 208.817C235.163 208.363 243.68 205.734 251.178 201.166C251.198 201.157 251.219 201.152 251.241 201.152C251.263 201.152 251.284 201.157 251.304 201.166L262.805 205.56L265.784 206.708L266.82 207.125L265.835 206.784L262.868 205.711L251.203 201.469H251.342C243.82 206.149 235.241 208.858 226.396 209.347C223.63 209.45 220.86 209.391 218.101 209.17L213.771 208.526C213.028 208.432 212.294 208.28 211.575 208.072L209.353 207.504C196.004 203.819 184.61 195.092 177.577 183.164C173.592 176.46 171.155 168.951 170.444 161.184C169.71 152.929 170.876 144.616 173.852 136.882C177.002 128.757 182.105 121.533 188.711 115.849C189.507 115.12 190.35 114.445 191.236 113.829L193.761 111.911L196.501 110.244C197.391 109.67 198.319 109.155 199.278 108.704L202.144 107.328C203.078 106.848 204.101 106.57 205.073 106.179C206.045 105.788 207.03 105.434 208.04 105.144L211.057 104.374C218.949 102.442 227.181 102.369 235.107 104.159C245.487 106.474 254.934 111.851 262.227 119.593C269.519 127.335 274.32 137.087 276.01 147.588C276.476 150.511 276.721 153.465 276.743 156.425C276.738 159.182 276.51 161.935 276.061 164.656C274.625 173.443 271 181.727 265.519 188.744L265.292 188.516C265.323 188.487 265.363 188.471 265.406 188.471C265.448 188.471 265.489 188.487 265.519 188.516C265.525 188.53 265.528 188.545 265.528 188.561C265.528 188.576 265.525 188.591 265.519 188.605C265.936 194.652 266.252 199.298 266.466 202.492C266.567 204.015 266.643 205.189 266.693 206.014C266.807 206.734 266.82 207.112 266.82 207.112Z" fill="#263238"/>
<path d="M224.24 209.701C222.978 209.701 221.564 209.625 220.163 209.549L218.092 209.448L213.724 208.804C212.969 208.705 212.222 208.549 211.49 208.337L209.28 207.769C202.951 206.042 196.997 203.157 191.719 199.26C185.915 194.941 181.031 189.508 177.353 183.278C173.354 176.531 170.904 168.981 170.182 161.172C169.434 152.89 170.591 144.547 173.565 136.781C176.723 128.625 181.839 121.372 188.462 115.66C189.158 115.014 189.896 114.415 190.672 113.868L193.575 111.709L196.34 110.03C197.238 109.438 198.179 108.915 199.155 108.464L202.008 107.101C202.629 106.795 203.27 106.533 203.927 106.318C204.281 106.192 204.622 106.078 204.963 105.939L206.01 105.561C206.642 105.321 207.273 105.081 207.955 104.892L210.985 104.109C218.927 102.172 227.21 102.099 235.186 103.894C242.414 105.533 249.226 108.646 255.195 113.038C261.165 117.431 266.163 123.008 269.878 129.421C273.125 135.03 275.312 141.188 276.329 147.588C276.746 150.067 276.974 152.574 277.011 155.087V156.349C277.002 159.128 276.774 161.901 276.329 164.644C274.884 173.406 271.288 181.674 265.864 188.706L267.025 205.913C267.025 206.658 267.088 207.037 267.088 207.087C267.1 207.133 267.1 207.181 267.088 207.226L267.025 207.302C266.983 207.311 266.94 207.311 266.899 207.302H266.722L265.737 206.949L262.758 205.888L251.307 201.709C243.787 206.34 235.23 209.022 226.412 209.511C225.692 209.676 224.973 209.701 224.24 209.701ZM223.672 103.882C211.077 103.895 198.906 108.428 189.371 116.658C182.907 122.213 177.911 129.277 174.828 137.223C171.906 144.808 170.753 152.96 171.457 161.058C172.154 168.673 174.534 176.038 178.426 182.621C182.022 188.719 186.809 194.03 192.502 198.238C197.646 202.065 203.455 204.907 209.634 206.62L211.818 207.188C212.512 207.394 213.221 207.546 213.939 207.643L218.244 208.299L220.301 208.413C222.326 208.568 224.358 208.597 226.387 208.501C235.111 208.065 243.589 205.461 251.055 200.927C251.118 200.896 251.187 200.879 251.257 200.879C251.327 200.879 251.396 200.896 251.459 200.927L265.939 206.469L266.495 206.683C266.495 206.494 266.495 206.254 266.432 205.977L264.993 188.845C264.96 188.767 264.948 188.681 264.959 188.597C264.97 188.512 265.004 188.432 265.056 188.365C270.395 181.394 273.914 173.202 275.294 164.53C275.718 161.853 275.934 159.148 275.938 156.438C275.938 156.008 275.938 155.541 275.875 155.087C275.827 152.645 275.595 150.21 275.181 147.802C274.178 141.554 272.039 135.542 268.868 130.065C265.222 123.807 260.322 118.37 254.476 114.095C248.63 109.82 241.964 106.798 234.896 105.22C231.218 104.346 227.452 103.897 223.672 103.882ZM223.672 103.175C219.465 103.178 215.274 103.682 211.187 104.677L208.169 105.447C207.538 105.624 206.907 105.864 206.288 106.103L205.228 106.482C204.9 106.621 204.546 106.735 204.193 106.861C203.558 107.067 202.938 107.315 202.337 107.606L199.471 108.995C198.517 109.431 197.598 109.937 196.719 110.509L193.979 112.176L191.101 114.322C190.346 114.858 189.629 115.444 188.955 116.077C182.396 121.716 177.328 128.883 174.197 136.945C171.24 144.641 170.083 152.91 170.813 161.121C171.527 168.836 173.946 176.296 177.896 182.962C181.21 188.556 185.514 193.501 190.596 197.556C185.537 193.488 181.259 188.534 177.971 182.937C174.037 176.27 171.627 168.816 170.914 161.109C170.198 152.916 171.364 144.669 174.323 136.996C178.916 125.224 187.569 115.483 198.717 109.532C209.865 103.582 222.773 101.815 235.11 104.551C242.171 106.132 248.835 109.136 254.696 113.379C260.557 117.623 265.491 123.017 269.196 129.232C265.492 122.994 260.552 117.579 254.68 113.32C248.807 109.061 242.126 106.046 235.047 104.462C231.299 103.603 227.467 103.171 223.622 103.175H223.672Z" fill="#263238"/>
<path d="M247.861 148.421C247.409 145.335 246.021 142.462 243.884 140.19C241.883 137.885 239.206 136.268 236.234 135.569C233.697 135.032 231.053 135.346 228.712 136.462C226.371 137.578 224.462 139.434 223.281 141.743C222.399 140.233 221.192 138.939 219.746 137.955C218.403 137.057 216.891 136.441 215.303 136.144C213.715 135.847 212.082 135.874 210.505 136.226C207.549 136.983 204.901 138.642 202.93 140.973C200.853 143.287 199.532 146.181 199.143 149.267C198.708 153.213 199.549 157.195 201.542 160.629C203.861 164.112 206.983 166.986 210.644 169.012C216.565 172.521 224.367 176.902 224.367 176.902C224.367 176.902 230.894 171.941 236.752 168.343C240.376 166.252 243.45 163.326 245.715 159.808C247.628 156.339 248.38 152.349 247.861 148.421Z" fill="#FF725E"/>
<path d="M330.781 75.4291C330.591 74.1321 330.008 72.9246 329.11 71.9695C328.269 71.0006 327.144 70.3212 325.894 70.0274C324.828 69.8017 323.717 69.9336 322.733 70.4026C321.749 70.8716 320.947 71.6516 320.45 72.6221C320.08 71.9876 319.572 71.4438 318.965 71.0303C318.4 70.6529 317.764 70.3939 317.097 70.269C316.429 70.144 315.743 70.1557 315.08 70.3033C313.838 70.6216 312.725 71.3189 311.897 72.2985C311.023 73.2714 310.468 74.4876 310.305 75.7846C310.122 77.4433 310.475 79.1169 311.313 80.5602C312.288 82.024 313.6 83.2323 315.139 84.0835C317.627 85.5587 320.907 87.3999 320.907 87.3999C320.907 87.3999 323.65 85.3146 326.112 83.8023C327.636 82.9237 328.927 81.6939 329.879 80.2153C330.683 78.7571 330.999 77.0799 330.781 75.4291Z" fill="#E9F7DE"/>
<path d="M361.914 65.4247C361.649 63.6202 360.838 61.9402 359.588 60.6113C358.418 59.2634 356.853 58.3181 355.115 57.9093C353.631 57.5953 352.085 57.7788 350.716 58.4313C349.347 59.0838 348.231 60.1691 347.54 61.5194C347.024 60.6365 346.318 59.8799 345.473 59.3046C344.687 58.7796 343.803 58.4192 342.875 58.2454C341.946 58.0716 340.991 58.0878 340.069 58.2932C338.34 58.736 336.792 59.7062 335.639 61.069C334.425 62.4226 333.652 64.1148 333.425 65.9194C333.171 68.2271 333.662 70.5556 334.827 72.5637C336.184 74.6002 338.009 76.2814 340.15 77.4657C343.613 79.518 348.175 82.0798 348.175 82.0798C348.175 82.0798 351.992 79.1784 355.417 77.0744C357.537 75.852 359.334 74.141 360.659 72.0838C361.777 70.055 362.217 67.7215 361.914 65.4247Z" fill="#E9F7DE"/>
<path d="M309.774 330.029H146.645L170.229 196.256H333.359L309.774 330.029Z" fill="#2EA2CC"/>
<g opacity="0.1">
<path d="M309.774 330.029H146.645L170.229 196.256H333.359L309.774 330.029Z" fill="black"/>
</g>
<path d="M166.912 188.054C166.555 186.521 166.555 184.928 166.912 183.396C167.269 184.928 167.269 186.521 166.912 188.054Z" fill="#263238"/>
<path d="M162.174 189.424C161.629 188.859 161.159 188.225 160.777 187.54C160.376 186.868 160.061 186.148 159.84 185.398C160.387 185.96 160.857 186.592 161.237 187.277C161.638 187.951 161.952 188.672 162.174 189.424Z" fill="#263238"/>
<path d="M158.747 192.985C157.242 192.527 155.863 191.731 154.715 190.656C155.465 190.874 156.185 191.187 156.856 191.587C157.542 191.972 158.177 192.442 158.747 192.985Z" fill="#263238"/>
<path d="M157.545 197.783C156.013 198.14 154.419 198.14 152.887 197.783C154.419 197.426 156.013 197.426 157.545 197.783Z" fill="#263238"/>
<path d="M158.94 202.526C158.373 203.069 157.74 203.538 157.056 203.924C156.384 204.324 155.665 204.637 154.914 204.855C155.479 204.31 156.113 203.841 156.799 203.458C157.469 203.056 158.189 202.743 158.94 202.526Z" fill="#263238"/>
<path d="M162.493 205.947C162.037 207.454 161.24 208.835 160.164 209.984C160.382 209.233 160.697 208.513 161.101 207.843C161.483 207.154 161.95 206.517 162.493 205.947Z" fill="#263238"/>
<path d="M167.293 207.131C167.479 207.893 167.569 208.675 167.56 209.46C167.572 210.245 167.482 211.027 167.293 211.789C167.101 211.028 167.011 210.245 167.025 209.46C167.016 208.675 167.106 207.893 167.293 207.131Z" fill="#263238"/>
<path d="M172.035 205.787C172.58 206.352 173.05 206.986 173.433 207.672C173.835 208.342 174.148 209.062 174.364 209.813C173.288 208.665 172.491 207.283 172.035 205.776V205.787Z" fill="#263238"/>
<path d="M175.453 202.2C176.204 202.416 176.924 202.729 177.595 203.131C178.281 203.514 178.914 203.984 179.479 204.529C178.728 204.313 178.008 203.999 177.338 203.597C176.652 203.215 176.018 202.745 175.453 202.2Z" fill="#263238"/>
<path d="M176.637 197.402C178.171 197.045 179.766 197.045 181.3 197.402C179.766 197.759 178.171 197.759 176.637 197.402Z" fill="#263238"/>
<path d="M175.265 192.659C175.831 192.117 176.465 191.649 177.149 191.267C177.818 190.86 178.539 190.545 179.291 190.33C178.142 191.406 176.761 192.203 175.254 192.659H175.265Z" fill="#263238"/>
<path d="M171.707 189.238C171.927 188.488 172.24 187.769 172.639 187.096C173.021 186.41 173.491 185.777 174.036 185.211C173.82 185.963 173.507 186.683 173.104 187.353C172.722 188.039 172.252 188.672 171.707 189.238Z" fill="#263238"/>
<path d="M309.533 330.029H146.055L122.84 201.113H286.323L309.533 330.029Z" fill="#2EA2CC"/>
<path d="M179.494 279.92C183.246 279.92 186.288 276.878 186.288 273.125C186.288 269.373 183.246 266.331 179.494 266.331C175.741 266.331 172.699 269.373 172.699 273.125C172.699 276.878 175.741 279.92 179.494 279.92Z" fill="#263238"/>
<path d="M233.201 279.92C236.953 279.92 239.995 276.878 239.995 273.125C239.995 269.373 236.953 266.331 233.201 266.331C229.448 266.331 226.406 269.373 226.406 273.125C226.406 276.878 229.448 279.92 233.201 279.92Z" fill="#263238"/>
<path d="M216.107 281.007L215.732 280.295C215.7 280.231 212.188 273.741 205.126 273.741C198.701 273.741 197.094 279.851 197.052 280.113L196.859 280.889L195.301 280.514L195.488 279.733C195.488 279.658 197.405 272.135 205.126 272.135C213.157 272.135 216.996 279.246 217.156 279.551L217.531 280.257L216.107 281.007Z" fill="#263238"/>
</g>
<defs>
<linearGradient id="paint0_linear_1353_13238" x1="217.5" y1="8" x2="217.5" y2="259.5" gradientUnits="userSpaceOnUse">
<stop stop-color="#E9F7DE"/>
<stop offset="1" stop-color="white"/>
</linearGradient>
<clipPath id="clip0_1353_13238">
<rect width="428" height="380" fill="white"/>
</clipPath>
</defs>
</svg>
