<svg width="19" height="20" viewBox="0 0 19 20" fill="none" xmlns="http://www.w3.org/2000/svg">
<path d="M15.3327 4.8479L14.8507 12.6452C14.7275 14.6373 14.666 15.6334 14.1666 16.3496C13.9197 16.7036 13.6019 17.0025 13.2332 17.227C12.4876 17.6812 11.4897 17.6812 9.49367 17.6812C7.49511 17.6812 6.4958 17.6812 5.74972 17.2262C5.38086 17.0012 5.0629 16.7019 4.8161 16.3472C4.31692 15.6299 4.2567 14.6324 4.13627 12.6375L3.66602 4.8479" stroke="#D34657" stroke-width="1.16667" stroke-linecap="round"/>
<path d="M2.49951 4.84783H16.4995M12.6539 4.84783L12.123 3.75251C11.7703 3.02492 11.5939 2.66113 11.2897 2.43424C11.2223 2.38391 11.1508 2.33914 11.0761 2.30038C10.7392 2.12561 10.3349 2.12561 9.52635 2.12561C8.69747 2.12561 8.28307 2.12561 7.9406 2.3077C7.8647 2.34806 7.79227 2.39464 7.72407 2.44696C7.41634 2.68304 7.24445 3.06015 6.90065 3.81437L6.42956 4.84783" stroke="#D34657" stroke-width="1.16667" stroke-linecap="round"/>
<path d="M7.55469 13.4034V8.73669" stroke="#D34657" stroke-width="1.16667" stroke-linecap="round"/>
<path d="M11.4443 13.4034V8.73669" stroke="#D34657" stroke-width="1.16667" stroke-linecap="round"/>
</svg>
