<svg width="42" height="42" viewBox="0 0 42 42" fill="none" xmlns="http://www.w3.org/2000/svg">
<path fill-rule="evenodd" clip-rule="evenodd" d="M36.75 13.125C37.4748 13.1251 38.0624 13.7127 38.0625 14.4375V34.125C38.0624 34.8498 37.4748 35.4374 36.75 35.4375H18.375C17.6502 35.4374 17.0626 34.8498 17.0625 34.125V14.4375C17.0626 13.7127 17.6502 13.1251 18.375 13.125H36.75Z" fill="#0077CC"/>
<path fill-rule="evenodd" clip-rule="evenodd" d="M15.75 17.0625C16.4748 17.0626 17.0624 17.6502 17.0625 18.375V34.125C17.0624 34.8498 16.4748 35.4374 15.75 35.4375H2.625C1.90015 35.4374 1.31257 34.8498 1.3125 34.125V24.9375C1.31227 24.6394 1.41353 24.3501 1.59961 24.1172L6.84961 17.5547C7.09888 17.2434 7.47618 17.0623 7.875 17.0625H15.75Z" fill="#D7EEFE"/>
<path fill-rule="evenodd" clip-rule="evenodd" d="M11.8125 17.0625C12.1606 17.0625 12.4944 17.2008 12.7405 17.4469C12.9867 17.6931 13.125 18.0269 13.125 18.375V26.25C13.125 26.5981 12.9867 26.9319 12.7405 27.1781C12.4944 27.4242 12.1606 27.5625 11.8125 27.5625H2.625C2.27691 27.5625 1.9431 27.4242 1.69696 27.1781C1.45083 26.9319 1.31253 26.5981 1.3125 26.25V24.9375C1.31228 24.6394 1.41353 24.3501 1.59961 24.1172L6.84961 17.5547C6.97267 17.401 7.12873 17.277 7.30623 17.1918C7.48373 17.1066 7.67811 17.0624 7.875 17.0625H11.8125Z" fill="#41A5EE"/>
<path fill-rule="evenodd" clip-rule="evenodd" d="M24.9375 18.375C25.2856 18.375 25.6194 18.5133 25.8656 18.7594C26.1117 19.0056 26.25 19.3394 26.25 19.6875C26.25 20.0356 26.1117 20.3694 25.8656 20.6156C25.6194 20.8617 25.2856 21 24.9375 21H21C20.6519 21 20.3181 20.8617 20.0719 20.6156C19.8258 20.3694 19.6875 20.0356 19.6875 19.6875C19.6875 19.3394 19.8258 19.0056 20.0719 18.7594C20.3181 18.5133 20.6519 18.375 21 18.375H24.9375ZM28.875 22.3125C29.2231 22.3125 29.5569 22.4508 29.8031 22.6969C30.0492 22.9431 30.1875 23.2769 30.1875 23.625C30.1875 23.9731 30.0492 24.3069 29.8031 24.5531C29.5569 24.7992 29.2231 24.9375 28.875 24.9375H21C20.6519 24.9375 20.3181 24.7992 20.0719 24.5531C19.8258 24.3069 19.6875 23.9731 19.6875 23.625C19.6875 23.2769 19.8258 22.9431 20.0719 22.6969C20.3181 22.4508 20.6519 22.3125 21 22.3125H28.875ZM31.5 26.25C31.8481 26.25 32.1819 26.3883 32.4281 26.6344C32.6742 26.8806 32.8125 27.2144 32.8125 27.5625C32.8125 27.9106 32.6742 28.2444 32.4281 28.4906C32.1819 28.7367 31.8481 28.875 31.5 28.875H21C20.6519 28.875 20.3181 28.7367 20.0719 28.4906C19.8258 28.2444 19.6875 27.9106 19.6875 27.5625C19.6875 27.2144 19.8258 26.8806 20.0719 26.6344C20.3181 26.3883 20.6519 26.25 21 26.25H31.5Z" fill="#D7EEFE"/>
<path fill-rule="evenodd" clip-rule="evenodd" d="M10.5 30.1875C12.6591 30.1875 14.4375 31.9659 14.4375 34.125C14.4375 36.2841 12.6591 38.0625 10.5 38.0625C8.34093 38.0625 6.56249 36.2841 6.56249 34.125C6.56249 31.9659 8.34093 30.1875 10.5 30.1875ZM30.1875 30.1875C32.3466 30.1875 34.125 31.9659 34.125 34.125C34.125 36.2841 32.3466 38.0625 30.1875 38.0625C28.0284 38.0625 26.25 36.2841 26.25 34.125C26.25 31.9659 28.0284 30.1875 30.1875 30.1875Z" fill="#41A5EE"/>
<path fill-rule="evenodd" clip-rule="evenodd" d="M32.8125 5.26794C37.1462 5.26794 40.6875 8.80928 40.6875 13.1429C40.6875 17.4766 37.1462 21.0179 32.8125 21.0179C28.4788 21.0179 24.9375 17.4766 24.9375 13.1429C24.9375 8.80928 28.4788 5.26794 32.8125 5.26794Z" fill="#D7EEFE"/>
<path fill-rule="evenodd" clip-rule="evenodd" d="M32.8125 9.20544C33.1606 9.20544 33.4944 9.3437 33.7406 9.58985C33.9867 9.83599 34.125 10.1698 34.125 10.5179V13.1429C34.125 13.491 33.9867 13.8248 33.7405 14.071C33.4944 14.3171 33.1606 14.4554 32.8125 14.4554H30.1875C29.8394 14.4554 29.5056 14.3171 29.2594 14.071C29.0133 13.8249 28.875 13.491 28.875 13.1429C28.875 12.7948 29.0133 12.461 29.2594 12.2148C29.5056 11.9687 29.8394 11.8304 30.1875 11.8304H31.5V10.5179C31.5 10.1698 31.6383 9.83599 31.8844 9.58985C32.1306 9.3437 32.4644 9.20544 32.8125 9.20544Z" fill="#41A5EE"/>
</svg>
