<svg width="71" height="71" viewBox="0 0 71 71" fill="none" xmlns="http://www.w3.org/2000/svg">
<path d="M66.318 34.9031C66.318 41.1962 64.4519 47.3479 60.9557 52.5804C57.4594 57.8128 52.4901 61.8911 46.6761 64.2993C40.8621 66.7075 34.4645 67.3376 28.2924 66.1099C22.1203 64.8822 16.4508 61.8518 12.001 57.402C7.55113 52.9521 4.52074 47.2827 3.29303 41.1106C2.06532 34.9384 2.69543 28.5409 5.10367 22.7268C7.51191 16.9128 11.5901 11.9435 16.8226 8.44729C22.0551 4.95106 28.2068 3.08496 34.4998 3.08496C42.9385 3.08496 51.0316 6.43722 56.9987 12.4043C62.9657 18.3714 66.318 26.4644 66.318 34.9031Z" fill="#E7EFFF"/>
<path d="M15.8346 38.3168C18.867 40.4525 22.4706 38.7168 24.6046 37.2569H27.9928C28.054 37.2569 28.0758 37.1789 28.0214 37.1508C27.5277 36.8949 27.0612 36.2793 26.6981 35.6811C26.2681 34.9729 25.9484 34.2064 25.7216 33.4095C24.9431 30.6741 23.842 26.0733 23.9833 22.3293C24.3149 20.23 31.7998 19.4336 36.1147 18.3442C33.8776 20.0195 27.526 21.6348 27.526 21.6348C27.526 21.6348 38.6172 20.0889 39.0309 17.0396L39.0336 17.039L46.5067 20.4823C47.146 20.7768 47.5208 21.4533 47.418 22.1496C46.9234 25.4998 45.8306 30.2954 45.1267 33.2867C44.9066 34.2221 44.545 35.1201 44.0206 35.9255C43.6835 36.4433 43.2759 36.9379 42.8476 37.1626C42.7918 37.1919 42.8141 37.272 42.8771 37.272H45.8197C48.0006 38.438 52.0103 38.274 54.2059 38.0728C54.6627 38.031 54.8116 37.4514 54.4378 37.1854C51.1747 34.8635 50.5827 29.7129 50.9377 26.6056C51.3359 23.1264 50.9377 18.7474 50.9377 18.7474C49.7435 7.15106 41.0333 8.99421 41.0333 8.99421C41.0333 8.99421 39.511 4.99515 31.5088 6.96809C31.5059 6.96881 31.5033 6.96956 31.5005 6.97027C28.5159 7.59515 26.6352 8.71853 25.2202 10.1839C22.3281 13.2993 21.0313 18.6532 20.7975 21.5391L20.797 21.5424C20.6647 22.6791 20.6374 28.2482 20.5915 28.7951C20.1697 33.9978 17.1234 36.6154 15.8326 37.5005C15.5487 37.6953 15.5531 38.1186 15.8346 38.3168Z" fill="#1B6079"/>
<path d="M35.5152 43.1725L32.4998 41.3054H27.1152L35.5152 46.4012L43.8245 41.3054H38.371L35.5152 43.1725Z" fill="#2D7BBC"/>
<path d="M58.4264 49.9922C58.2228 48.8852 57.537 47.9303 56.554 47.3826L53.5535 45.7115L50.2815 50.3527C50.9579 51.097 51.3651 52.0729 51.44 53.18C51.5337 54.5281 51.1147 55.9207 50.2628 57.091L47.5969 60.7585C47.398 61.0324 47.0867 61.1798 46.7708 61.1798C46.5625 61.1798 46.3495 61.1166 46.1692 60.9855L44.7533 59.9534C44.3413 59.6538 44.1681 59.0944 44.3998 58.6427C44.6947 58.0646 45.4156 57.9101 45.9141 58.2729L46.5437 58.7293L48.608 55.8903C49.1791 55.1039 49.4623 54.1911 49.4038 53.3157C49.3477 52.5083 49.0036 51.8389 48.4348 51.4246C47.8684 51.0103 47.1195 50.8886 46.3378 51.0876C45.4882 51.3006 44.7064 51.8529 44.133 52.637L42.071 55.4784L42.6445 55.895C43.0564 56.1945 43.2319 56.7539 43.0002 57.208C42.703 57.7837 41.9845 57.9406 41.4812 57.5778L40.0418 56.5316C39.8218 56.3701 39.6744 56.129 39.6346 55.8622C39.5901 55.5954 39.6557 55.3215 39.8148 55.1015L42.4806 51.434C43.3326 50.2637 44.5239 49.4352 45.8392 49.1052C46.7988 48.8641 47.7374 48.9109 48.5799 49.2175L51.7771 44.677L47.5431 42.2101C46.9767 41.8777 46.2792 41.8497 45.6871 42.1329L35.4685 48.8805L25.1235 42.0556C24.5782 41.8591 23.965 41.9129 23.4571 42.2101L19.6468 44.4312C20.2974 47.4341 21.8562 51.4317 25.5401 54.4181C26.1346 54.0296 26.8883 53.8681 27.6794 54.06C28.6694 54.3034 29.4581 55.1226 29.6594 56.122C30.0269 57.9569 28.536 59.5602 26.7244 59.3729C25.3248 59.2302 24.2459 57.9593 24.3137 56.5526C24.3208 56.4005 24.3418 56.2531 24.3722 56.108C20.3723 52.9483 18.5725 48.8126 17.7651 45.5242L14.4486 47.3849C13.4656 47.9303 12.7775 48.8875 12.5715 49.9946L10.0107 63.8544C9.86355 64.6509 10.475 65.3857 11.285 65.3857H59.7151C60.5251 65.3857 61.1366 64.6508 60.9893 63.8543L58.4264 49.9922Z" fill="#1B6079"/>
<path d="M67.9433 11.7041V24.9485H58.8023L53.4656 28.7939V24.9485H50.1289V11.7041H67.9433Z" fill="#7AD03A"/>
<path d="M60.0046 16.0192H53.2279C53.0415 16.0192 52.8629 15.9452 52.7311 15.8134C52.5994 15.6817 52.5254 15.503 52.5254 15.3167C52.5254 15.1304 52.5994 14.9517 52.7311 14.82C52.8629 14.6883 53.0415 14.6143 53.2279 14.6143H60.0046C60.1909 14.6143 60.3696 14.6883 60.5013 14.82C60.633 14.9517 60.707 15.1304 60.707 15.3167C60.707 15.503 60.633 15.6817 60.5013 15.8134C60.3696 15.9452 60.1909 16.0192 60.0046 16.0192ZM65.0222 19.0297H53.2279C53.0415 19.0297 52.8629 18.9557 52.7311 18.824C52.5994 18.6922 52.5254 18.5136 52.5254 18.3273C52.5254 18.141 52.5994 17.9623 52.7311 17.8305C52.8629 17.6988 53.0415 17.6248 53.2279 17.6248H65.0222C65.2085 17.6248 65.3871 17.6988 65.5189 17.8305C65.6506 17.9623 65.7246 18.141 65.7246 18.3273C65.7246 18.5136 65.6506 18.6922 65.5189 18.824C65.3871 18.9557 65.2085 19.0297 65.0222 19.0297ZM65.0222 22.0403H53.2279C53.0415 22.0403 52.8629 21.9663 52.7311 21.8345C52.5994 21.7028 52.5254 21.5241 52.5254 21.3378C52.5254 21.1515 52.5994 20.9728 52.7311 20.8411C52.8629 20.7094 53.0415 20.6353 53.2279 20.6353H65.0222C65.2085 20.6353 65.3871 20.7094 65.5189 20.8411C65.6506 20.9728 65.7246 21.1515 65.7246 21.3378C65.7246 21.5241 65.6506 21.7028 65.5189 21.8345C65.3871 21.9663 65.2085 22.0403 65.0222 22.0403Z" fill="black"/>
</svg>
