<svg width="40" height="40" viewBox="0 0 40 40" fill="none" xmlns="http://www.w3.org/2000/svg">
<path d="M4.1665 19.9998C4.1665 12.5359 4.1665 8.80399 6.48524 6.48524C8.80399 4.1665 12.5359 4.1665 19.9998 4.1665C27.4637 4.1665 31.1957 4.1665 33.5145 6.48524C35.8332 8.80399 35.8332 12.5359 35.8332 19.9998C35.8332 27.4637 35.8332 31.1957 33.5145 33.5145C31.1957 35.8332 27.4637 35.8332 19.9998 35.8332C12.5359 35.8332 8.80399 35.8332 6.48524 33.5145C4.1665 31.1957 4.1665 27.4637 4.1665 19.9998Z" stroke="#E9F7DE" stroke-width="2" stroke-linejoin="round"/>
<path d="M28.2107 13.3774H23.3026C21.5629 13.3774 20.1489 14.7809 20.1361 16.5206L19.9939 35.7115M16.8032 23.3363H24.8077" stroke="#E9F7DE" stroke-width="2.5" stroke-linecap="round" stroke-linejoin="round"/>
</svg>
