<svg width="28" height="28" viewBox="0 0 28 28" fill="none" xmlns="http://www.w3.org/2000/svg">
<rect width="28" height="28" rx="14" fill="url(#paint0_linear_948_5295)"/>
<path d="M17.5903 7.65327C17.0978 7.65327 16.8514 7.65327 16.6271 7.57003C16.5959 7.55846 16.5653 7.54575 16.535 7.53189C16.3175 7.43211 16.1434 7.25798 15.7951 6.90971C14.9935 6.10813 14.5928 5.70734 14.0996 5.67038C14.0334 5.66541 13.9667 5.66541 13.9004 5.67038C13.4073 5.70734 13.0064 6.10813 12.2049 6.90971C11.8566 7.25798 11.6825 7.43211 11.465 7.53189C11.4348 7.54575 11.4041 7.55846 11.3729 7.57003C11.1486 7.65327 10.9023 7.65327 10.4098 7.65327H10.3189C9.06234 7.65327 8.43405 7.65327 8.04368 8.04365C7.6533 8.43401 7.6533 9.06231 7.6533 10.3189V10.4097C7.6533 10.9023 7.6533 11.1485 7.57006 11.3729C7.5585 11.404 7.54578 11.4348 7.53192 11.465C7.43215 11.6825 7.25801 11.8566 6.90974 12.2049C6.10816 13.0064 5.70737 13.4072 5.67041 13.9004C5.66545 13.9667 5.66545 14.0333 5.67041 14.0996C5.70737 14.5927 6.10816 14.9935 6.90974 15.7951C7.25801 16.1434 7.43215 16.3175 7.53192 16.535C7.54578 16.5652 7.5585 16.5959 7.57006 16.6271C7.6533 16.8514 7.6533 17.0977 7.6533 17.5902V17.6811C7.6533 18.9377 7.6533 19.566 8.04368 19.9563C8.43405 20.3467 9.06234 20.3467 10.3189 20.3467H10.4098C10.9023 20.3467 11.1486 20.3467 11.3729 20.4299C11.4041 20.4415 11.4348 20.4542 11.465 20.4681C11.6825 20.5679 11.8566 20.742 12.2049 21.0902C13.0064 21.8918 13.4073 22.2927 13.9004 22.3296C13.9667 22.3346 14.0334 22.3346 14.0996 22.3296C14.5928 22.2927 14.9935 21.8918 15.7951 21.0902C16.1434 20.742 16.3175 20.5679 16.535 20.4681C16.5653 20.4542 16.5959 20.4415 16.6271 20.4299C16.8514 20.3467 17.0978 20.3467 17.5903 20.3467H17.6811C18.9377 20.3467 19.566 20.3467 19.9564 19.9563C20.3468 19.566 20.3468 18.9377 20.3468 17.6811V17.5902C20.3468 17.0977 20.3468 16.8514 20.4299 16.6271C20.4415 16.5959 20.4543 16.5652 20.4681 16.535C20.5679 16.3175 20.742 16.1434 21.0903 15.7951C21.8919 14.9935 22.2927 14.5927 22.3296 14.0996C22.3346 14.0333 22.3346 13.9667 22.3296 13.9004C22.2927 13.4072 21.8919 13.0064 21.0903 12.2049C20.742 11.8566 20.5679 11.6825 20.4681 11.465C20.4543 11.4348 20.4415 11.404 20.4299 11.3729C20.3468 11.1485 20.3468 10.9023 20.3468 10.4097V10.3189C20.3468 9.06231 20.3468 8.43401 19.9564 8.04365C19.566 7.65327 18.9377 7.65327 17.6811 7.65327H17.5903Z" stroke="#123F4F" stroke-width="1.25"/>
<path d="M11.0833 17.75C11.6655 16.7436 12.7536 16.0664 14 16.0664C15.2463 16.0664 16.3345 16.7436 16.9166 17.75M15.6666 12.3333C15.6666 13.2538 14.9205 14 14 14C13.0796 14 12.3333 13.2538 12.3333 12.3333C12.3333 11.4128 13.0796 10.6667 14 10.6667C14.9205 10.6667 15.6666 11.4128 15.6666 12.3333Z" stroke="#123F4F" stroke-width="1.25" stroke-linecap="round"/>
<defs>
<linearGradient id="paint0_linear_948_5295" x1="14" y1="0" x2="14" y2="28" gradientUnits="userSpaceOnUse">
<stop stop-color="#D1EBF5"/>
<stop offset="1" stop-color="#F0F0F0"/>
</linearGradient>
</defs>
</svg>
