<svg width="24" height="26" viewBox="0 0 24 26" fill="none" xmlns="http://www.w3.org/2000/svg">
<path d="M11.7139 12.4232L1.06738 23.7232C1.06778 23.7256 1.06858 23.7275 1.06898 23.7299C1.39548 24.9568 2.51618 25.8604 3.84628 25.8604C4.37798 25.8604 4.87718 25.7166 5.30528 25.4643L5.33928 25.4443L17.3233 18.5291L11.7139 12.4232Z" fill="#EA4335"/>
<path d="M22.4856 10.4989L22.4754 10.4919L17.3016 7.49263L11.4727 12.6794L17.3219 18.5278L22.4684 15.5583C23.3707 15.0712 23.9832 14.12 23.9832 13.0231C23.9832 11.9341 23.3789 10.9876 22.4856 10.4989Z" fill="#FBBC04"/>
<path d="M1.06737 2.27623C1.00337 2.51223 0.969727 2.75943 0.969727 3.01612V22.9837C0.969727 23.2399 1.00297 23.488 1.06777 23.7231L12.0807 12.7122L1.06737 2.27623Z" fill="#4285F4"/>
<path d="M11.7928 13L17.3034 7.491L5.33298 0.550799C4.89788 0.290199 4.39008 0.139801 3.84668 0.139801C2.51658 0.139801 1.39438 1.0449 1.06778 2.2734C1.06738 2.2746 1.06738 2.2754 1.06738 2.2765L11.7928 13Z" fill="#34A853"/>
</svg>
