<svg width="330" height="343" viewBox="0 0 330 343" fill="none" xmlns="http://www.w3.org/2000/svg">
<circle cx="165" cy="165" r="165" fill="url(#paint0_linear_1256_16779)"/>
<path d="M322 269.383H9V269.539H322V269.383Z" fill="#EBEBEB"/>
<path d="M290.639 279.455H269.906V279.612H290.639V279.455Z" fill="#EBEBEB"/>
<path d="M216.346 281.158H210.906V281.315H216.346V281.158Z" fill="#EBEBEB"/>
<path d="M269.279 273.646H239.438V273.803H269.279V273.646Z" fill="#EBEBEB"/>
<path d="M56.6635 274.698H41.8398V274.854H56.6635V274.698Z" fill="#EBEBEB"/>
<path d="M78.4165 274.698H62.2344V274.854H78.4165V274.698Z" fill="#EBEBEB"/>
<path d="M131.765 277.339H91.3008V277.495H131.765V277.339Z" fill="#EBEBEB"/>
<path d="M157.364 241.463H36.4901C35.5432 241.461 34.6356 241.084 33.9666 240.414C33.2976 239.744 32.9219 238.836 32.9219 237.889V67.9735C32.9301 67.032 33.3095 66.1318 33.9776 65.4683C34.6457 64.8049 35.5486 64.4319 36.4901 64.4303H157.364C158.312 64.4303 159.222 64.8069 159.892 65.4772C160.562 66.1476 160.939 67.0568 160.939 68.0048V237.889C160.939 238.837 160.562 239.746 159.892 240.416C159.222 241.087 158.312 241.463 157.364 241.463ZM36.4901 64.5555C35.5847 64.5572 34.7169 64.918 34.0773 65.5588C33.4376 66.1996 33.0784 67.068 33.0784 67.9735V237.889C33.0784 238.794 33.4376 239.662 34.0773 240.303C34.7169 240.944 35.5847 241.305 36.4901 241.307H157.364C158.27 241.305 159.139 240.944 159.779 240.304C160.42 239.663 160.781 238.795 160.782 237.889V67.9735C160.781 67.0675 160.42 66.1991 159.779 65.5584C159.139 64.9178 158.27 64.5572 157.364 64.5555H36.4901Z" fill="#EBEBEB"/>
<path d="M292.771 241.463H171.891C170.943 241.461 170.035 241.084 169.365 240.414C168.695 239.744 168.318 238.836 168.316 237.889V67.9735C168.326 67.0314 168.707 66.1312 169.376 65.468C170.045 64.8047 170.949 64.4319 171.891 64.4303H292.771C293.712 64.4336 294.613 64.8073 295.28 65.4705C295.947 66.1338 296.325 67.0331 296.333 67.9735V237.889C296.333 238.834 295.959 239.742 295.291 240.412C294.623 241.082 293.717 241.46 292.771 241.463ZM171.891 64.5555C170.985 64.5572 170.116 64.9178 169.476 65.5584C168.835 66.1991 168.475 67.0675 168.473 67.9735V237.889C168.475 238.795 168.835 239.663 169.476 240.304C170.116 240.944 170.985 241.305 171.891 241.307H292.771C293.677 241.305 294.546 240.944 295.186 240.304C295.827 239.663 296.188 238.795 296.189 237.889V67.9735C296.188 67.0675 295.827 66.1991 295.186 65.5584C294.546 64.9178 293.677 64.5572 292.771 64.5555H171.891Z" fill="#EBEBEB"/>
<path d="M285.323 80.7063H186.434V269.383H285.323V80.7063Z" fill="#EBEBEB"/>
<path d="M277.967 86.8599H193.789V269.383H277.967V86.8599Z" fill="#F5F5F5"/>
<path d="M247.72 101.996H224.051V108.538H247.72V101.996Z" fill="white"/>
<path d="M258.382 166.982H271.221C271.753 166.982 272.262 167.193 272.638 167.569C273.014 167.944 273.225 168.454 273.225 168.985C273.225 169.516 273.014 170.026 272.638 170.401C272.262 170.777 271.753 170.988 271.221 170.988H258.382C257.851 170.988 257.341 170.777 256.966 170.401C256.59 170.026 256.379 169.516 256.379 168.985C256.379 168.454 256.59 167.944 256.966 167.569C257.341 167.193 257.851 166.982 258.382 166.982Z" fill="white"/>
<path d="M118.826 100.782H53.0586V153.786H118.826V100.782Z" fill="#EBEBEB"/>
<path d="M115.289 150.256V104.313H56.5828V150.256H115.289Z" fill="#FAFAFA"/>
<path d="M108.445 127.888V125.69H63.4296V127.888H108.445Z" fill="#E0E0E0"/>
<path d="M108.445 132.889V130.692H63.4297V132.889H108.445Z" fill="#E0E0E0"/>
<path d="M108.445 137.885V135.688H63.4297V137.885H108.445Z" fill="#E0E0E0"/>
<path d="M97.1602 142.887V140.69H74.7181V142.887H97.1602Z" fill="#E0E0E0"/>
<path d="M63.4635 104.313C63.4635 105.215 63.2851 106.109 62.9385 106.942C62.5919 107.775 62.084 108.531 61.444 109.167C60.804 109.803 60.0446 110.306 59.2094 110.647C58.3742 110.988 57.4797 111.161 56.5775 111.155C55.3327 111.158 54.1111 110.818 53.0469 110.172V100.782H62.4369C63.0948 101.843 63.4499 103.064 63.4635 104.313Z" fill="#EBEBEB"/>
<path d="M118.826 100.782V110.172C117.517 110.96 115.983 111.286 114.467 111.101C112.951 110.915 111.541 110.227 110.461 109.147C109.381 108.067 108.694 106.657 108.508 105.141C108.322 103.625 108.649 102.091 109.436 100.782H118.826Z" fill="#EBEBEB"/>
<path d="M63.4642 150.261C63.4664 151.503 63.1287 152.722 62.4877 153.785H53.0977V144.395C54.1362 143.773 55.3211 143.438 56.5316 143.423C57.742 143.408 58.9348 143.714 59.9883 144.31C61.0419 144.907 61.9186 145.771 62.5292 146.817C63.1398 147.862 63.4624 149.05 63.4642 150.261Z" fill="#EBEBEB"/>
<path d="M118.826 144.389V153.779H109.436C108.79 152.718 108.45 151.498 108.453 150.255C108.454 149.043 108.777 147.853 109.388 146.806C110 145.759 110.878 144.893 111.933 144.296C112.988 143.699 114.182 143.393 115.394 143.408C116.606 143.424 117.793 143.76 118.832 144.383L118.826 144.389Z" fill="#EBEBEB"/>
<path d="M91.6932 116.44C92.209 113.263 90.0514 110.269 86.8743 109.754C83.6971 109.238 80.7034 111.395 80.1877 114.572C79.672 117.75 81.8295 120.743 85.0067 121.259C88.1838 121.775 91.1775 119.617 91.6932 116.44Z" fill="#E0E0E0"/>
<path d="M171.973 194.106H41.8398V198.789H171.973V194.106Z" fill="#EBEBEB"/>
<path d="M170.846 198.789H128.566V269.383H170.846V198.789Z" fill="#F5F5F5"/>
<path d="M85.7293 198.789H43.4492V269.383H85.7293V198.789Z" fill="#F5F5F5"/>
<path d="M44.8953 198.789H43.4492V269.383H44.8953V198.789Z" fill="#EBEBEB"/>
<path d="M130.012 198.789H128.566V269.383H130.012V198.789Z" fill="#EBEBEB"/>
<path d="M65.6499 182.819H57.875L58.501 194.106H65.0239L65.6499 182.819Z" fill="#F0F0F0"/>
<path d="M133.156 189.211H92.5352V194.106H133.156V189.211Z" fill="#F0F0F0"/>
<path d="M133.164 189.787H114.434V193.537H133.164V189.787Z" fill="#FAFAFA"/>
<path d="M165.5 297.652C232.534 297.652 286.875 294.479 286.875 290.566C286.875 286.652 232.534 283.479 165.5 283.479C98.4665 283.479 44.125 286.652 44.125 290.566C44.125 294.479 98.4665 297.652 165.5 297.652Z" fill="#F5F5F5"/>
<path d="M222.281 246.735C233.234 246.735 242.113 237.856 242.113 226.903C242.113 215.951 233.234 207.072 222.281 207.072C211.328 207.072 202.449 215.951 202.449 226.903C202.449 237.856 211.328 246.735 222.281 246.735Z" fill="white"/>
<path d="M222.285 246.979C218.314 246.98 214.432 245.804 211.13 243.598C207.828 241.393 205.254 238.258 203.733 234.59C202.213 230.922 201.814 226.885 202.588 222.99C203.362 219.095 205.274 215.518 208.081 212.709C210.888 209.901 214.466 207.989 218.36 207.213C222.255 206.438 226.291 206.835 229.96 208.355C233.629 209.874 236.765 212.447 238.971 215.749C241.177 219.05 242.355 222.932 242.355 226.903C242.35 232.225 240.234 237.327 236.471 241.091C232.709 244.855 227.607 246.972 222.285 246.979ZM222.285 207.322C218.411 207.322 214.624 208.471 211.402 210.623C208.181 212.776 205.67 215.835 204.188 219.415C202.706 222.994 202.318 226.933 203.075 230.733C203.831 234.533 205.697 238.023 208.437 240.762C211.177 243.501 214.668 245.366 218.468 246.121C222.268 246.876 226.206 246.487 229.785 245.004C233.364 243.52 236.423 241.009 238.575 237.787C240.726 234.565 241.874 230.777 241.873 226.903C241.868 221.71 239.802 216.732 236.13 213.06C232.457 209.389 227.478 207.325 222.285 207.322Z" fill="#2EA2CC"/>
<path d="M87.9452 76.9936L87.5195 76.5366C90.4173 73.7972 94.0944 72.0254 98.0426 71.466L98.1302 72.092C94.3093 72.6308 90.7502 74.3437 87.9452 76.9936Z" fill="#2EA2CC"/>
<path d="M83.3126 83.8356L82.7305 83.6102C83.3624 82.0155 84.2045 80.5123 85.2345 79.1406L85.7353 79.5162C84.7421 80.8437 83.9276 82.2959 83.3126 83.8356Z" fill="#2EA2CC"/>
<path d="M100.779 107.817C110.266 107.817 117.956 100.127 117.956 90.64C117.956 81.1532 110.266 73.4626 100.779 73.4626C91.2922 73.4626 83.6016 81.1532 83.6016 90.64C83.6016 100.127 91.2922 107.817 100.779 107.817Z" fill="#2EA2CC"/>
<path d="M111.037 82.9025C110.376 82.2157 109.584 81.6677 108.708 81.2906C107.832 80.9134 106.89 80.7146 105.937 80.7059C104.983 80.6971 104.037 80.8786 103.155 81.2396C102.272 81.6007 101.47 82.1341 100.796 82.8086C100.123 82.1343 99.3214 81.601 98.4393 81.24C97.5572 80.8791 96.6119 80.6976 95.6589 80.7064C94.7058 80.7151 93.7641 80.9139 92.8887 81.2909C92.0134 81.668 91.2221 82.2159 90.561 82.9025C89.2656 84.3038 88.5677 86.155 88.6156 88.0628C88.6635 89.9705 89.4535 91.7844 90.8177 93.1189L98.9557 101.257C99.1998 101.501 99.4897 101.695 99.8087 101.827C100.128 101.959 100.47 102.027 100.815 102.027C101.16 102.027 101.502 101.959 101.821 101.827C102.14 101.695 102.43 101.501 102.674 101.257L110.812 93.1189C112.172 91.7802 112.956 89.9641 112.998 88.0564C113.04 86.1487 112.337 84.2998 111.037 82.9025Z" fill="white"/>
<path d="M100.777 98.1465C100.651 98.1422 100.529 98.0998 100.427 98.025C100.326 97.9501 100.249 97.8463 100.207 97.7271L96.5828 87.1289L95.0679 91.561C95.0248 91.6841 94.9444 91.7908 94.8377 91.866C94.7311 91.9412 94.6037 91.9812 94.4732 91.9804H88.4072C88.2412 91.9804 88.082 91.9144 87.9646 91.797C87.8472 91.6796 87.7812 91.5204 87.7812 91.3544C87.7812 91.1884 87.8472 91.0291 87.9646 90.9117C88.082 90.7943 88.2412 90.7284 88.4072 90.7284H94.0413L96.0069 84.988C96.0495 84.865 96.1293 84.7583 96.2353 84.6828C96.3414 84.6073 96.4683 84.5667 96.5985 84.5667C96.7286 84.5667 96.8556 84.6073 96.9616 84.6828C97.0676 84.7583 97.1475 84.865 97.19 84.988L100.877 95.7739L104.458 87.3417C104.503 87.2342 104.578 87.1415 104.673 87.0741C104.768 87.0066 104.88 86.9671 104.996 86.9599C105.113 86.9531 105.23 86.9795 105.333 87.036C105.436 87.0924 105.521 87.1767 105.578 87.2791L107.469 90.7221H113.172C113.338 90.7221 113.497 90.7881 113.614 90.9055C113.732 91.0229 113.798 91.1821 113.798 91.3481C113.798 91.5142 113.732 91.6734 113.614 91.7908C113.497 91.9082 113.338 91.9741 113.172 91.9741H107.106C106.994 91.9751 106.884 91.9459 106.787 91.8898C106.69 91.8336 106.61 91.7525 106.555 91.6549L105.071 89.0006L101.353 97.7646C101.305 97.8778 101.225 97.9743 101.122 98.0422C101.02 98.1101 100.9 98.1464 100.777 98.1465Z" fill="#2EA2CC"/>
<g filter="url(#filter0_d_1256_16779)">
<g clip-path="url(#clip0_1256_16779)">
<rect x="111" y="67.2188" width="109.763" height="193.215" rx="10.6885" fill="white"/>
<rect x="111.406" y="133.817" width="109.352" height="3.28877" fill="#7AD03A"/>
<rect x="111" y="67.2188" width="109.763" height="68.6532" fill="url(#paint1_linear_1256_16779)"/>
<g filter="url(#filter1_d_1256_16779)">
<rect x="97.8438" y="86.8491" width="74.8096" height="13.4666" rx="4.52206" transform="rotate(-26.6961 97.8438 86.8491)" fill="#7AD03A" shape-rendering="crispEdges"/>
</g>
<rect x="128.121" y="224.668" width="75.9319" height="16.5775" rx="3.28877" fill="#7AD03A"/>
<circle cx="222.464" cy="78.7825" r="19.4243" transform="rotate(-30.8423 222.464 78.7825)" stroke="url(#paint2_linear_1256_16779)" stroke-width="0.205548"/>
<circle cx="222.465" cy="78.7852" r="16.9577" transform="rotate(-30.8423 222.465 78.7852)" stroke="url(#paint3_linear_1256_16779)" stroke-width="0.205548"/>
<circle cx="222.464" cy="78.7846" r="14.0801" transform="rotate(-30.8423 222.464 78.7846)" stroke="url(#paint4_linear_1256_16779)" stroke-width="0.205548"/>
<circle cx="222.464" cy="78.7832" r="11.6135" transform="rotate(-30.8423 222.464 78.7832)" stroke="url(#paint5_linear_1256_16779)" stroke-width="0.205548"/>
<circle cx="222.465" cy="78.7839" r="9.1469" transform="rotate(-30.8423 222.465 78.7839)" stroke="url(#paint6_linear_1256_16779)" stroke-width="0.205548"/>
<path d="M127.168 145.74C127.168 143.848 125.634 142.314 123.742 142.314C121.85 142.314 120.316 143.848 120.316 145.74C120.316 147.632 121.85 149.165 123.742 149.165C125.634 149.165 127.168 147.632 127.168 145.74Z" stroke="#1C1C1C" stroke-width="0.513871"/>
<path d="M122.375 145.91L123.231 146.767L125.116 144.711" stroke="#1C1C1C" stroke-width="0.513871" stroke-linecap="round" stroke-linejoin="round"/>
<rect x="129.5" y="142.45" width="80.575" height="6.57755" rx="3.28877" fill="#D9D9D9"/>
<path d="M127.168 162.185C127.168 160.293 125.634 158.759 123.742 158.759C121.85 158.759 120.316 160.293 120.316 162.185C120.316 164.077 121.85 165.61 123.742 165.61C125.634 165.61 127.168 164.077 127.168 162.185Z" stroke="#1C1C1C" stroke-width="0.513871"/>
<path d="M122.375 162.353L123.231 163.21L125.116 161.154" stroke="#1C1C1C" stroke-width="0.513871" stroke-linecap="round" stroke-linejoin="round"/>
<rect x="129.5" y="158.893" width="80.575" height="6.57755" rx="3.28877" fill="#D9D9D9"/>
<path d="M127.168 178.627C127.168 176.735 125.634 175.202 123.742 175.202C121.85 175.202 120.316 176.735 120.316 178.627C120.316 180.519 121.85 182.053 123.742 182.053C125.634 182.053 127.168 180.519 127.168 178.627Z" stroke="#1C1C1C" stroke-width="0.513871"/>
<path d="M122.375 178.798L123.231 179.655L125.116 177.599" stroke="#1C1C1C" stroke-width="0.513871" stroke-linecap="round" stroke-linejoin="round"/>
<rect x="129.5" y="175.338" width="80.575" height="6.57755" rx="3.28877" fill="#D9D9D9"/>
<path d="M127.168 195.07C127.168 193.178 125.634 191.644 123.742 191.644C121.85 191.644 120.316 193.178 120.316 195.07C120.316 196.962 121.85 198.496 123.742 198.496C125.634 198.496 127.168 196.962 127.168 195.07Z" stroke="#1C1C1C" stroke-width="0.513871"/>
<path d="M122.375 195.243L123.231 196.1L125.116 194.044" stroke="#1C1C1C" stroke-width="0.513871" stroke-linecap="round" stroke-linejoin="round"/>
<rect x="129.5" y="191.781" width="80.575" height="6.57755" rx="3.28877" fill="#D9D9D9"/>
<path d="M127.168 211.515C127.168 209.623 125.634 208.089 123.742 208.089C121.85 208.089 120.316 209.623 120.316 211.515C120.316 213.407 121.85 214.941 123.742 214.941C125.634 214.941 127.168 213.407 127.168 211.515Z" stroke="#1C1C1C" stroke-width="0.513871"/>
<path d="M122.375 211.686L123.231 212.542L125.116 210.487" stroke="#1C1C1C" stroke-width="0.513871" stroke-linecap="round" stroke-linejoin="round"/>
<rect x="129.5" y="208.225" width="80.575" height="6.57755" rx="3.28877" fill="#D9D9D9"/>
<path d="M145.276 89.7071C142.082 94.3356 140.53 99.901 140.87 105.515C141.21 111.128 143.421 116.466 147.15 120.675C150.879 124.885 155.912 127.723 161.443 128.737C166.975 129.751 172.687 128.882 177.667 126.268C182.646 123.655 186.607 119.449 188.915 114.32C191.224 109.192 191.747 103.438 190.402 97.9778C189.056 92.5173 185.92 87.6652 181.493 84.1963C177.067 80.7275 171.606 78.8421 165.982 78.8413C164.44 78.8414 162.901 78.9806 161.384 79.2573" stroke="white" stroke-width="0.554662" stroke-linecap="round" stroke-linejoin="round"/>
<path d="M185.636 112.364C190.256 101.519 185.208 88.9826 174.364 84.3635C163.519 79.7445 150.983 84.7916 146.364 95.6365C141.744 106.481 146.792 119.017 157.636 123.636C168.481 128.256 181.017 123.208 185.636 112.364Z" fill="white"/>
<path d="M156.145 101.782L164.243 110.984L177.488 92.2197" stroke="#2581A2" stroke-width="3.32797" stroke-linecap="round" stroke-linejoin="round"/>
</g>
<rect x="111.206" y="67.4243" width="109.352" height="192.804" rx="10.483" stroke="#CCCCCC" stroke-width="0.411097"/>
</g>
<path d="M264.264 124.432L263.638 124.394C263.742 123.061 263.568 121.721 263.127 120.46C262.686 119.198 261.987 118.041 261.076 117.063C260.164 116.086 259.059 115.308 257.831 114.78C256.603 114.252 255.278 113.985 253.941 113.996V113.37C255.364 113.358 256.773 113.642 258.081 114.203C259.388 114.765 260.564 115.592 261.534 116.632C262.505 117.672 263.249 118.902 263.719 120.245C264.189 121.588 264.374 123.013 264.264 124.432Z" fill="#2EA2CC"/>
<path d="M264.593 127.056L264.23 132.239L264.856 132.283L265.219 127.1L264.593 127.056Z" fill="#2EA2CC"/>
<path d="M253.941 115.561H210.747C208.388 115.6 206.128 116.515 204.406 118.128C202.684 119.741 201.624 121.936 201.432 124.288L201.038 130.103C200.948 131.222 201.092 132.348 201.462 133.408C201.831 134.468 202.417 135.439 203.183 136.26C203.949 137.081 204.877 137.734 205.909 138.176C206.94 138.619 208.053 138.841 209.176 138.83H252.37L260.745 143.994L262.073 124.288C262.163 123.169 262.019 122.044 261.651 120.984C261.282 119.924 260.697 118.952 259.931 118.131C259.166 117.31 258.238 116.657 257.207 116.215C256.175 115.772 255.063 115.55 253.941 115.561Z" fill="#2EA2CC"/>
<path d="M251.75 123.893H211.742V125.346H251.75V123.893Z" fill="white"/>
<path d="M251.399 129.046H221.695V130.498H251.399V129.046Z" fill="white"/>
<path d="M188.964 146.673H233.11C234.258 146.661 235.395 146.888 236.45 147.34C237.505 147.792 238.455 148.459 239.238 149.298C240.02 150.137 240.62 151.131 240.997 152.215C241.374 153.299 241.522 154.45 241.429 155.594L241.029 161.541C240.83 163.943 239.746 166.187 237.987 167.835C236.227 169.484 233.918 170.42 231.507 170.461H187.355L178.078 175.751L179.443 155.594C179.64 153.19 180.724 150.946 182.483 149.297C184.243 147.649 186.553 146.713 188.964 146.673Z" fill="white"/>
<path opacity="0.15" d="M188.964 146.673H233.11C234.258 146.661 235.395 146.888 236.45 147.34C237.505 147.792 238.455 148.459 239.238 149.298C240.02 150.137 240.62 151.131 240.997 152.215C241.374 153.299 241.522 154.45 241.429 155.594L241.029 161.541C240.83 163.943 239.746 166.187 237.987 167.835C236.227 169.484 233.918 170.42 231.507 170.461H187.355L178.078 175.751L179.443 155.594C179.64 153.19 180.724 150.946 182.483 149.297C184.243 147.649 186.553 146.713 188.964 146.673Z" fill="#2EA2CC"/>
<path opacity="0.5" d="M230.865 155.193H189.949V156.683H230.865V155.193Z" fill="#2EA2CC"/>
<path opacity="0.5" d="M205.763 160.458H189.594V161.948H205.763V160.458Z" fill="#2EA2CC"/>
<path opacity="0.5" d="M220.056 160.458H209.727V161.948H220.056V160.458Z" fill="#2EA2CC"/>
<defs>
<filter id="filter0_d_1256_16779" x="106.889" y="66.3966" width="117.984" height="201.437" filterUnits="userSpaceOnUse" color-interpolation-filters="sRGB">
<feFlood flood-opacity="0" result="BackgroundImageFix"/>
<feColorMatrix in="SourceAlpha" type="matrix" values="0 0 0 0 0 0 0 0 0 0 0 0 0 0 0 0 0 0 127 0" result="hardAlpha"/>
<feOffset dy="3.28877"/>
<feGaussianBlur stdDeviation="2.05548"/>
<feComposite in2="hardAlpha" operator="out"/>
<feColorMatrix type="matrix" values="0 0 0 0 0 0 0 0 0 0 0 0 0 0 0 0 0 0 0.1 0"/>
<feBlend mode="normal" in2="BackgroundImageFix" result="effect1_dropShadow_1256_16779"/>
<feBlend mode="normal" in="SourceGraphic" in2="effect1_dropShadow_1256_16779" result="shape"/>
</filter>
<filter id="filter1_d_1256_16779" x="93.6506" y="50.6914" width="81.2731" height="54.0263" filterUnits="userSpaceOnUse" color-interpolation-filters="sRGB">
<feFlood flood-opacity="0" result="BackgroundImageFix"/>
<feColorMatrix in="SourceAlpha" type="matrix" values="0 0 0 0 0 0 0 0 0 0 0 0 0 0 0 0 0 0 127 0" result="hardAlpha"/>
<feOffset dy="1.64439"/>
<feGaussianBlur stdDeviation="2.09659"/>
<feComposite in2="hardAlpha" operator="out"/>
<feColorMatrix type="matrix" values="0 0 0 0 0 0 0 0 0 0 0 0 0 0 0 0 0 0 0.2 0"/>
<feBlend mode="normal" in2="BackgroundImageFix" result="effect1_dropShadow_1256_16779"/>
<feBlend mode="normal" in="SourceGraphic" in2="effect1_dropShadow_1256_16779" result="shape"/>
</filter>
<linearGradient id="paint0_linear_1256_16779" x1="165" y1="-138.5" x2="165" y2="153" gradientUnits="userSpaceOnUse">
<stop stop-color="#D1EBF5"/>
<stop offset="1" stop-color="white"/>
</linearGradient>
<linearGradient id="paint1_linear_1256_16779" x1="116.961" y1="72.0288" x2="195.808" y2="126.415" gradientUnits="userSpaceOnUse">
<stop stop-color="#2EA2CC"/>
<stop offset="1" stop-color="#123F4F"/>
</linearGradient>
<linearGradient id="paint2_linear_1256_16779" x1="222.464" y1="59.2554" x2="222.464" y2="98.3096" gradientUnits="userSpaceOnUse">
<stop stop-color="white"/>
<stop offset="1" stop-color="#5B00A2"/>
</linearGradient>
<linearGradient id="paint3_linear_1256_16779" x1="222.465" y1="61.7247" x2="222.465" y2="95.8457" gradientUnits="userSpaceOnUse">
<stop stop-color="white"/>
<stop offset="1" stop-color="#5B00A2"/>
</linearGradient>
<linearGradient id="paint4_linear_1256_16779" x1="222.464" y1="64.6018" x2="222.464" y2="92.9674" gradientUnits="userSpaceOnUse">
<stop stop-color="white"/>
<stop offset="1" stop-color="#5B00A2"/>
</linearGradient>
<linearGradient id="paint5_linear_1256_16779" x1="222.464" y1="67.0669" x2="222.464" y2="90.4994" gradientUnits="userSpaceOnUse">
<stop stop-color="white"/>
<stop offset="1" stop-color="#5B00A2"/>
</linearGradient>
<linearGradient id="paint6_linear_1256_16779" x1="222.465" y1="69.5342" x2="222.465" y2="88.0335" gradientUnits="userSpaceOnUse">
<stop stop-color="white"/>
<stop offset="1" stop-color="#5B00A2"/>
</linearGradient>
<clipPath id="clip0_1256_16779">
<rect x="111" y="67.2188" width="109.763" height="193.215" rx="10.6885" fill="white"/>
</clipPath>
</defs>
</svg>
