<svg width="372" height="140" viewBox="0 0 372 140" fill="none" xmlns="http://www.w3.org/2000/svg">
<path d="M192.124 97.8113L180.185 126.325C179.469 128.078 177.306 128.195 176.819 126.495L174.689 119.077C174.37 117.994 173.293 117.553 172.305 118.103L165.591 121.91C164.055 122.782 162.592 121.185 163.308 119.432L175.247 90.9209L192.124 97.8113Z" fill="#2EA2CC"/>
<path d="M199.122 89.7422L207.481 128.549C207.879 130.401 206.158 131.714 204.799 130.586L198.86 125.655C197.987 124.939 196.847 125.182 196.344 126.195L192.937 133.12C192.158 134.707 190.052 134.211 189.656 132.359L181.297 93.5526L199.122 89.7422Z" fill="#2EA2CC"/>
<path d="M233.437 61.6401C233.437 63.6914 231.935 65.763 229.336 65.7428H229.316C225.52 65.7428 223.793 70.4906 226.717 72.9274C227.772 73.7998 228.218 74.9158 228.218 75.9911C228.218 78.5497 225.723 80.9865 222.72 79.8706C222.231 79.688 221.744 79.6068 221.277 79.6068C218.355 79.6068 216.142 82.8938 217.807 85.7343C218.213 86.4465 218.396 87.1364 218.396 87.8262C218.396 90.9326 214.537 93.3085 211.676 90.8717C210.885 90.2022 209.972 89.8978 209.079 89.8978C206.743 89.8978 204.55 91.9877 205.037 94.7065C205.098 94.9926 205.118 95.2564 205.118 95.5404C205.118 99.4584 199.64 101.163 197.528 97.4477C197.183 96.8182 196.675 96.2935 196.057 95.9292C195.438 95.5649 194.733 95.3745 194.016 95.3781C192.189 95.3781 190.363 96.5955 189.996 98.7665C189.611 101.021 187.805 102.159 185.999 102.159C184.171 102.159 182.363 101.023 181.978 98.7685C181.612 96.5975 179.786 95.3801 177.96 95.3801C176.601 95.3801 175.239 96.0497 174.448 97.4497C173.636 98.8903 172.318 99.499 170.997 99.499C168.684 99.499 166.409 97.5714 166.937 94.7085C166.977 94.4448 166.998 94.2013 166.998 93.9578C166.998 90.6282 163.001 88.579 160.298 90.8738C159.466 91.5839 158.573 91.868 157.701 91.868C154.881 91.868 152.403 88.7413 154.17 85.7364C154.576 85.0668 154.738 84.3567 154.738 83.6871C154.738 81.0677 152.099 78.8135 149.256 79.8706C148.749 80.0532 148.242 80.1546 147.775 80.1546C144.283 80.1546 142.153 75.5062 145.259 72.9274C146.274 72.0752 146.72 70.9593 146.72 69.8433C146.72 67.7514 145.137 65.7225 142.64 65.7428H142.599C138.072 65.7428 136.954 59.4083 141.24 57.8662C143.045 57.217 143.938 55.6343 143.938 54.0517C143.938 52.4468 143.045 50.8419 141.24 50.2129C139.391 49.5433 138.539 48.0013 138.539 46.439C138.539 44.3877 140.041 42.3161 142.638 42.3364H142.658C146.454 42.3364 148.181 37.5885 145.257 35.1517C144.202 34.2793 143.756 33.1633 143.756 32.088C143.756 29.5294 146.251 27.0926 149.256 28.2085C149.743 28.3912 150.23 28.4723 150.697 28.4723C153.621 28.4723 155.834 25.1854 154.168 22.3448C153.763 21.6326 153.58 20.9427 153.58 20.2529C153.58 17.1465 157.435 14.7706 160.298 17.2074C161.089 17.877 162.002 18.1813 162.897 18.1813C165.23 18.1813 167.424 16.0914 166.935 13.3726C166.876 13.0885 166.854 12.8227 166.854 12.5387C166.854 8.62275 172.336 6.91637 174.448 10.6314C175.239 12.0314 176.599 12.701 177.958 12.701C179.784 12.701 181.612 11.4836 181.978 9.3126C182.363 7.0584 184.169 5.94043 185.997 5.94043C187.803 5.94043 189.609 7.05637 189.996 9.31058C190.625 13.0662 195.639 13.959 197.528 10.6294C198.339 9.18884 199.658 8.58014 200.977 8.58014C203.29 8.58014 205.565 10.5077 205.037 13.3706C204.996 13.6343 204.976 13.8778 204.976 14.1213C204.976 17.4509 208.975 19.5001 211.676 17.2054C212.508 16.4952 213.401 16.2112 214.273 16.2112C217.093 16.2112 219.571 19.3378 217.805 22.3427C217.4 23.0123 217.237 23.7225 217.237 24.392C217.237 27.0114 219.875 29.2656 222.718 28.2085C223.225 28.0259 223.732 27.9245 224.199 27.9245C227.691 27.9245 229.823 32.5729 226.717 35.1517C225.702 36.0039 225.256 37.1198 225.256 38.2358C225.256 40.3277 226.838 42.3567 229.334 42.3364H229.375C233.903 42.3364 235.019 48.6709 230.734 50.2129C228.949 50.8419 228.036 52.4448 228.036 54.0497C228.036 55.6323 228.949 57.2149 230.734 57.8642C232.583 58.5358 233.437 60.0778 233.437 61.6422V61.6401Z" fill="#2EA2CC"/>
<path d="M221.666 54.0497C221.666 73.7511 205.69 89.7395 185.988 89.7395C166.287 89.7395 150.312 73.7511 150.312 54.0497C150.312 34.3482 166.287 18.374 185.988 18.374C205.69 18.374 221.666 34.3482 221.666 54.0497Z" fill="#EFEFEF"/>
<path d="M157.109 49.418L185.834 78.2499L214.871 49.418L197.699 54.7278H174.177L157.109 49.418Z" fill="#2EA2CC"/>
<path d="M157.109 49.4182L169.703 38.5469H202.279L214.871 49.4182L197.699 54.728H174.177L157.109 49.4182Z" fill="#2EA2CC"/>
<path d="M185.832 78.2501L197.698 54.728L185.989 38.5469L174.176 54.728L185.832 78.2501Z" fill="#2EA2CC"/>
<path d="M203.325 109.16C203.195 109.187 203.071 109.241 202.962 109.317C202.852 109.392 202.758 109.489 202.686 109.601C202.614 109.713 202.564 109.838 202.54 109.969C202.516 110.1 202.518 110.234 202.546 110.365L203.561 115.092C203.617 115.355 203.775 115.585 204.001 115.732C204.227 115.878 204.502 115.929 204.765 115.872C205.028 115.816 205.258 115.658 205.404 115.432C205.551 115.206 205.601 114.931 205.545 114.668L204.53 109.941C204.473 109.678 204.315 109.448 204.089 109.302C203.863 109.155 203.589 109.104 203.325 109.16Z" fill="#414141"/>
<path d="M231.094 56.9207C228.314 55.9062 228.416 52.1039 231.074 51.1584C236.406 49.2511 235.091 41.3178 229.309 41.3178C226.478 41.3178 225.175 37.7772 227.361 35.941C231.658 32.3598 227.929 25.3456 222.369 27.2569C219.782 28.2227 217.206 25.372 218.677 22.854C221.594 17.9479 215.292 12.7213 211.027 16.4424C208.897 18.1914 205.697 16.5905 206.036 13.5613C207.071 7.9288 199.46 5.23025 196.642 10.1323C195.232 12.636 191.456 11.9381 191.001 9.13808C190.015 3.50358 181.958 3.53199 180.978 9.13808C180.515 11.9787 176.727 12.6543 175.338 10.1323C172.487 5.11257 164.773 8.08909 165.943 13.541C166.455 16.4181 163.066 18.2279 160.952 16.4424C157.584 13.5065 152.572 16.1016 152.572 20.2569C152.572 22.8743 154.642 23.554 153.323 25.8975C151.789 28.5494 149.249 26.912 147.764 26.912C143.213 26.912 140.867 32.8772 144.619 35.941C146.782 37.7366 145.556 41.3178 142.61 41.3178C137.022 41.3178 135.484 49.1781 140.906 51.1787C143.568 52.0775 143.653 55.9042 140.906 56.9207C135.578 58.8239 136.872 66.7613 142.691 66.7613C145.491 66.7613 146.804 70.2998 144.619 72.1381C140.331 75.7091 144.038 82.7375 149.61 80.8221C152.252 79.834 154.774 82.8065 153.303 85.225C151.154 88.8326 154.031 92.8743 157.706 92.8743C160.483 92.8743 160.899 90.9062 162.9 90.9062C164.493 90.9062 166.195 92.2392 165.943 94.5178C165.375 97.6018 167.467 100.002 170.143 100.442L162.372 119.048C161.946 120.063 162.048 121.179 162.595 122.011C165.369 126.099 173.024 116.934 173.714 119.353L175.845 126.779C176.624 129.437 180.075 129.327 181.12 126.718L185.28 116.796C188.775 130.309 187.645 135.077 191.529 135.077C194.114 135.077 194.16 132.135 197.251 126.657C197.352 126.454 197.494 126.312 197.677 126.271C197.839 126.231 198.042 126.292 198.204 126.434L204.149 131.364C205.062 132.115 206.219 132.237 207.193 131.648C208.248 130.999 208.755 129.68 208.471 128.341L206.564 119.393C206.506 119.133 206.348 118.905 206.124 118.761C205.9 118.617 205.627 118.567 205.367 118.622C204.819 118.724 204.453 119.271 204.575 119.819L206.482 128.767C206.604 129.335 206.401 129.761 206.138 129.924C205.914 130.045 205.691 130.005 205.448 129.802L199.503 124.871C198.833 124.324 198.022 124.121 197.251 124.283C196.48 124.445 195.81 124.993 195.424 125.744C189.747 136.909 192.138 137.303 186.639 113.529L184.346 102.918C187.231 103.88 190.474 102.187 191.001 98.941C191.261 97.3076 192.661 96.3845 194.024 96.3845C197.086 96.3845 196.467 100.077 200.416 100.483C201.485 104.117 201.057 106.803 202.749 106.428C204.417 106.117 202.932 103.742 202.445 100.3C205.076 99.5395 206.572 97.0398 206.036 94.5381C205.525 91.665 208.929 89.8653 211.027 91.6366C215.235 95.3091 221.582 90.3117 218.677 85.225C217.218 82.7253 219.75 79.8584 222.369 80.8221C227.805 82.8146 231.719 75.7172 227.361 72.1584C225.198 70.3242 226.425 66.7613 229.369 66.7613C234.99 66.7613 236.505 58.8827 231.094 56.9207ZM184.529 113.347L179.253 125.947C178.807 127.022 177.975 126.86 177.793 126.211C175.808 120.83 176.311 116.857 173.166 116.857C170.985 116.857 162.792 123.741 164.239 119.819L172.416 100.321C173.633 99.9758 174.668 99.1439 175.338 97.9468C176.725 95.4247 180.515 96.1004 180.978 98.941C181.12 99.8337 181.465 100.584 181.911 101.173L184.529 113.347ZM229.329 64.7323C224.575 64.7323 222.404 70.6873 226.082 73.7004C228.684 75.9059 226.33 80.112 223.08 78.9149C220.787 78.0627 218.129 79.0366 216.891 81.1873C215.071 84.4114 217.378 86.0853 217.378 87.8221C217.378 90.0946 214.568 91.9613 212.326 90.0946C208.781 87.0937 203.167 90.1473 204.048 94.9236C204.738 98.0381 200.249 100.051 198.407 96.9526C196.147 92.9352 189.983 93.6494 188.993 98.596C188.406 101.997 183.575 102.025 182.987 98.596C182.817 97.5596 182.329 96.6016 181.59 95.8551C180.851 95.1086 179.898 94.6105 178.863 94.4299C177.829 94.2492 176.763 94.395 175.815 94.8471C174.867 95.2991 174.083 96.035 173.572 96.9526C171.933 99.8743 167.311 98.3505 167.952 94.8627C168.583 89.8105 163.103 87.1688 159.653 90.0946C157.138 92.2352 153.258 89.2404 155.048 86.2598C157.397 82.3763 153.589 77.245 148.92 78.9149C145.558 80.1302 143.316 75.8511 145.917 73.7004C149.498 70.734 147.496 64.7323 142.61 64.7323C139.203 64.7323 138.388 59.9581 141.595 58.8279C146.165 57.1358 145.998 50.7931 141.595 49.2511C138.369 48.1149 139.179 43.3468 142.671 43.3468C147.421 43.3468 149.549 37.3897 145.917 34.3787C143.31 32.2158 145.613 27.9529 148.9 29.1642C153.262 30.7995 157.495 25.9888 155.048 21.8395C153.36 18.9137 156.927 15.712 159.653 17.9845C163.198 20.9833 168.81 17.9297 167.932 13.1555C167.506 11.2502 169.098 9.58445 170.995 9.58445C174.063 9.58445 173.558 13.7236 177.955 13.7236C180.491 13.7236 182.561 11.9787 182.987 9.483C183.535 6.12706 188.435 6.07228 188.993 9.483C189.802 14.2227 196.088 15.2474 198.407 11.1265C200.016 8.25547 204.685 9.73257 204.048 13.2163C203.185 17.812 208.605 21.0868 212.346 17.9845C213.827 16.7062 216.08 17.2134 217.013 18.8569C218.293 21.0787 216.222 21.7381 216.222 24.396C216.222 27.8859 219.813 30.4384 223.059 29.1642C225.19 28.3931 226.569 29.7323 227.016 31.0308C228.211 34.2914 224.236 34.2346 224.236 38.2337C224.236 40.7497 226.143 43.3468 229.369 43.3468C232.804 43.3468 233.6 48.1108 230.404 49.2511C225.965 50.8337 225.819 57.1378 230.384 58.8279C233.659 59.9784 232.788 64.7323 229.329 64.7323Z" fill="#414141"/>
<path d="M185.989 17.3555C165.76 17.3555 149.305 33.8105 149.305 54.0598C149.305 74.2888 165.76 90.7642 185.989 90.7642C206.153 90.7642 222.673 74.3416 222.673 54.0598C222.673 33.8105 206.218 17.3555 185.989 17.3555ZM185.989 88.7352C166.876 88.7352 151.334 73.1729 151.334 54.0598C151.334 34.9468 166.876 19.3845 185.989 19.3845C205.102 19.3845 220.644 34.9468 220.644 54.0598C220.644 73.1729 205.102 88.7352 185.989 88.7352Z" fill="#414141"/>
<path d="M202.28 37.544H169.694C169.451 37.544 169.228 37.6252 169.045 37.7875L156.445 48.6426C156.052 49.0342 156.037 49.584 156.181 49.7991C156.244 49.9898 156.409 50.1643 156.425 50.1643L185.094 78.9353C185.297 79.0429 185.884 79.6455 186.555 78.9759L215.61 50.1237C215.947 49.7017 216.004 49.1173 215.529 48.6426L202.929 37.7875C202.751 37.6281 202.519 37.5412 202.28 37.544ZM196.051 55.744L185.845 75.973L175.802 55.744H196.051ZM176.167 53.715L185.987 40.2831L195.706 53.715H176.167ZM170.08 39.573H183.999L173.793 53.5527L159.144 48.9875L170.08 39.573ZM160.726 51.6049L173.468 55.5817L182.173 73.1527L160.726 51.6049ZM189.538 73.1527L198.425 55.5817L211.228 51.6049L189.538 73.1527ZM198.1 53.5527L187.996 39.573H201.894L212.81 48.9875L198.1 53.5527Z" fill="#414141"/>
<g clip-path="url(#clip0_1175_11624)">
<path d="M320.925 58.7495L305.573 78.4563C305.352 78.7403 305.402 79.1487 305.686 79.3699L332.398 100.18C332.682 100.401 333.091 100.35 333.312 100.066L348.664 80.3593C350.09 81.0822 351.877 80.7213 352.895 79.4149C354.049 77.9334 353.782 75.7862 352.301 74.632C350.819 73.4779 348.672 73.7446 347.518 75.2261C346.911 76.0047 346.684 77.0099 346.871 77.9699L335.32 82.658L337.034 70.3099C338.01 70.257 338.932 69.792 339.538 69.0134C340.692 67.5319 340.426 65.3846 338.944 64.2305C337.463 63.0763 335.316 63.343 334.161 64.8245C333.557 65.6008 333.329 66.606 333.516 67.566L321.963 72.2522L323.683 59.9013C324.659 59.8484 325.578 59.3815 326.185 58.6029C327.339 57.1214 327.072 54.9742 325.591 53.82C324.109 52.6659 321.962 52.9326 320.808 54.4141C319.788 55.7228 319.876 57.5439 320.925 58.7495ZM324.791 54.8471C325.707 55.5606 325.871 56.8869 325.158 57.8027C324.695 58.3968 323.966 58.6882 323.207 58.5837C322.85 58.534 322.522 58.7842 322.472 59.141L320.519 73.1883C320.488 73.4188 320.578 73.6491 320.763 73.7929C320.948 73.9367 321.191 73.9706 321.409 73.8815L334.553 68.5487C334.887 68.4132 335.048 68.0363 334.912 67.7026C334.625 66.9922 334.732 66.2158 335.193 65.6242C335.906 64.7083 337.232 64.5436 338.148 65.2571C339.064 65.9706 339.229 67.2968 338.515 68.2127C338.053 68.8067 337.324 69.0982 336.562 68.9918C336.39 68.9683 336.219 69.0131 336.08 69.118C335.941 69.2229 335.851 69.3773 335.828 69.5491L333.879 83.6001C333.848 83.8306 333.938 84.0609 334.123 84.2047C334.308 84.3485 334.551 84.3824 334.769 84.2933L347.912 78.9629C348.245 78.8274 348.405 78.4463 348.272 78.1144C347.985 77.404 348.089 76.6258 348.552 76.0317C349.266 75.1159 350.592 74.9511 351.508 75.6647C352.424 76.3782 352.588 77.7044 351.875 78.6203C351.161 79.5362 349.835 79.7009 348.919 78.9874C348.635 78.7661 348.227 78.8169 348.006 79.1008L336.567 93.7833L325.047 84.8082C324.763 84.587 324.354 84.6377 324.133 84.9217C323.912 85.2057 323.963 85.6141 324.247 85.8354L335.767 94.8104L332.692 98.7579L307.003 78.7447L322.318 59.0853C322.539 58.8013 322.488 58.3929 322.204 58.1717C321.289 57.4582 321.124 56.1319 321.837 55.2161C322.551 54.3002 323.875 54.1336 324.791 54.8471Z" fill="#242424"/>
<path d="M315.616 79.1069L319.019 81.7581C319.303 81.9793 319.711 81.9286 319.933 81.6446C320.154 81.3606 320.103 80.9522 319.819 80.731L316.416 78.0798C316.132 77.8585 315.724 77.9093 315.502 78.1932C315.281 78.4772 315.332 78.8856 315.616 79.1069Z" fill="#242424"/>
</g>
<g clip-path="url(#clip1_1175_11624)">
<path d="M63.6938 70.8041L51.8411 91.1787C50.9485 92.7132 48.981 93.2335 47.4464 92.3408L18.6098 75.5656C17.5829 74.9683 16.8491 73.9725 16.5825 72.8147L13.2914 58.5191C12.7831 56.3107 14.0767 54.0869 16.2477 53.4372L30.3016 49.2318C31.4398 48.8912 32.6681 49.0369 33.695 49.6343L62.5317 66.4096C64.0662 67.3021 64.5865 69.2698 63.6938 70.8041Z" stroke="#242424" stroke-miterlimit="10" stroke-linecap="round" stroke-linejoin="round"/>
<path d="M42.7578 89.6133L57.8439 63.683" stroke="#242424" stroke-miterlimit="10" stroke-linecap="round" stroke-linejoin="round"/>
<path d="M23.7895 59.0277C23.4102 57.593 21.9397 56.7376 20.5051 57.117C19.0704 57.4963 18.215 58.9668 18.5944 60.4014C18.9737 61.836 20.4442 62.6915 21.8788 62.3121C23.3135 61.9328 24.1689 60.4623 23.7895 59.0277Z" fill="#242424"/>
</g>
<defs>
<clipPath id="clip0_1175_11624">
<rect width="60" height="60" fill="white" transform="translate(323.766 34.8975) rotate(37.92)"/>
</clipPath>
<clipPath id="clip1_1175_11624">
<rect width="60" height="60" fill="white" transform="translate(15.6641 105.673) rotate(-104.812)"/>
</clipPath>
</defs>
</svg>
