<svg width="40" height="40" viewBox="0 0 40 40" fill="none" xmlns="http://www.w3.org/2000/svg">
<path d="M4.16699 19.9998C4.16699 12.5359 4.16699 8.80399 6.48573 6.48524C8.80448 4.1665 12.5364 4.1665 20.0003 4.1665C27.4642 4.1665 31.1962 4.1665 33.515 6.48524C35.8337 8.80399 35.8337 12.5359 35.8337 19.9998C35.8337 27.4637 35.8337 31.1957 33.515 33.5145C31.1962 35.8332 27.4642 35.8332 20.0003 35.8332C12.5364 35.8332 8.80448 35.8332 6.48573 33.5145C4.16699 31.1957 4.16699 27.4637 4.16699 19.9998Z" stroke="#E9F7DE" stroke-width="2" stroke-linejoin="round"/>
<path d="M25.6035 20.5213C25.3562 21.531 24.0402 22.2562 21.4082 23.7067C18.5453 25.284 17.114 26.0728 15.9547 25.769C15.562 25.666 15.2003 25.485 14.8966 25.2395C14 24.5147 14 23.0097 14 19.9998C14 16.99 14 15.485 14.8966 14.7601C15.2003 14.5146 15.562 14.3337 15.9547 14.2307C17.114 13.9269 18.5453 14.7156 21.4082 16.2931C24.0402 17.7435 25.3562 18.4687 25.6035 19.4783C25.6877 19.822 25.6877 20.1777 25.6035 20.5213Z" stroke="#E9F7DE" stroke-width="2.5" stroke-linejoin="round"/>
</svg>
