<svg width="28" height="29" viewBox="0 0 28 29" fill="none" xmlns="http://www.w3.org/2000/svg">
<path d="M14.0002 2.83333C7.57183 2.83333 2.3335 8.07166 2.3335 14.5C2.3335 20.9283 7.57183 26.1667 14.0002 26.1667C20.4285 26.1667 25.6668 20.9283 25.6668 14.5C25.6668 8.07166 20.4285 2.83333 14.0002 2.83333ZM24.5002 14.5C24.5002 15.725 24.2785 16.9033 23.8935 18H19.5185C19.7752 16.5183 19.8335 15.2933 19.8335 14.5C19.8335 13.2633 19.7168 12.0967 19.5302 11H23.8935C24.2785 12.0967 24.5002 13.275 24.5002 14.5ZM23.3918 9.83333H19.2968C18.8185 7.745 18.0602 5.98333 17.2902 4.53666C19.9618 5.42333 22.1552 7.34833 23.4035 9.83333H23.3918ZM18.6668 14.5C18.6668 15.1183 18.6318 16.3783 18.3402 18H9.6485C9.45016 16.915 9.3335 15.7483 9.3335 14.5C9.3335 13.8817 9.3685 12.6217 9.66016 11H18.3518C18.5502 12.085 18.6668 13.2517 18.6668 14.5ZM15.7502 4.16333C16.6018 5.58666 17.5235 7.47666 18.1068 9.83333H9.90516C10.3135 8.13 11.0485 6.15833 12.2618 4.15166C12.8335 4.05833 13.4052 3.99999 14.0002 3.99999C14.5952 3.99999 15.1785 4.05833 15.7502 4.16333ZM10.6985 4.53666C9.70683 6.40333 9.07683 8.22333 8.7035 9.83333H4.59683C5.8335 7.34833 8.02683 5.42333 10.6985 4.53666ZM8.4585 18H4.09516C3.71016 16.9033 3.4885 15.725 3.4885 14.5C3.4885 13.275 3.71016 12.0967 4.09516 11H8.47016C8.2135 12.4817 8.15516 13.7067 8.15516 14.5C8.15516 15.7367 8.27183 16.9033 8.4585 18ZM4.59683 19.1667H8.69183C9.17016 21.255 9.9285 23.0167 10.6985 24.4633C8.02683 23.5767 5.8335 21.6517 4.58516 19.1667H4.59683ZM12.2385 24.8367C11.3868 23.4133 10.4652 21.5233 9.88183 19.1667H18.0835C17.6752 20.87 16.9402 22.8417 15.7268 24.8483C15.1552 24.9417 14.5835 25 13.9885 25C13.3935 25 12.8102 24.9417 12.2385 24.8367ZM17.2902 24.4633C18.2818 22.5967 18.9118 20.7767 19.2852 19.1667H23.3918C22.1552 21.6517 19.9618 23.5767 17.2902 24.4633Z" fill="#4E4E4E"/>
</svg>
