<svg width="23" height="22" viewBox="0 0 23 22" fill="none" xmlns="http://www.w3.org/2000/svg">
<path d="M13.7923 8.24967C13.7923 9.51532 12.7663 10.5413 11.5007 10.5413C10.235 10.5413 9.20898 9.51532 9.20898 8.24967C9.20898 6.98402 10.235 5.95801 11.5007 5.95801C12.7663 5.95801 13.7923 6.98402 13.7923 8.24967Z" stroke="white" stroke-width="1.375"/>
<path d="M12.6533 16.0355C12.3441 16.3332 11.9308 16.4997 11.5008 16.4997C11.0707 16.4997 10.6575 16.3332 10.3483 16.0355C7.51709 13.2921 3.72291 10.2274 5.57322 5.77809C6.57366 3.37238 8.97518 1.83301 11.5008 1.83301C14.0264 1.83301 16.4279 3.37239 17.4284 5.77809C19.2764 10.2218 15.4915 13.3015 12.6533 16.0355Z" stroke="white" stroke-width="1.375"/>
<path d="M17 18.3333C17 19.3458 14.5376 20.1666 11.5 20.1666C8.46243 20.1666 6 19.3458 6 18.3333" stroke="white" stroke-width="1.375" stroke-linecap="round"/>
</svg>
