<svg width="140" height="140" viewBox="0 0 140 140" fill="none" xmlns="http://www.w3.org/2000/svg">
<g clip-path="url(#clip0_344_3271)">
<path d="M70 140C108.66 140 140 108.66 140 70.0002C140 31.3403 108.66 0.000225067 70 0.000225067C31.3401 0.000225067 0 31.3403 0 70.0002C0 108.66 31.3401 140 70 140Z" fill="#61AD29" fill-opacity="0.1"/>
<path d="M133.437 83.0549L99.9199 92.0412V65.1919L133.437 56.2078L123.471 75.1494L133.437 83.0549Z" fill="#FF9300"/>
<path d="M98.8848 89.823L119.425 98.8072V71.9578L98.8848 62.9738V89.823Z" fill="#FF7C00"/>
<path d="M35.7052 106.354L14.1758 112.127C19.9771 119.828 27.3067 126.247 35.7052 130.983V106.354Z" fill="#FF9300"/>
<path d="M17.6016 99.0326V116.283C23.3891 122.842 30.3548 128.259 38.1378 132.252V108.016L17.6016 99.0326Z" fill="#FF7C00"/>
<path d="M49.0762 71.0215V50.3015C49.0762 41.0134 56.5968 33.5387 65.9374 33.5387C75.278 33.5387 82.7965 41.0134 82.7965 50.3015V71.0215" stroke="#0E1906" stroke-width="0.410156" stroke-linecap="round" stroke-linejoin="round"/>
<path d="M43.4371 57.9272C41.359 57.9272 39.6855 59.6028 39.6855 61.6831V132.998C49.1371 137.576 59.4978 139.97 69.9999 140C83.158 139.989 96.0466 136.27 107.187 129.268V61.6831C107.187 59.605 105.514 57.9272 103.436 57.9272H43.4371Z" fill="#E42C34"/>
<path d="M39.8949 57.9272C37.703 57.9272 35.9355 59.6028 35.9355 61.6831V131.123C46.3486 136.935 58.0739 139.991 69.9993 140C83.1574 139.989 96.046 136.27 107.187 129.268V61.6831C107.187 59.605 105.424 57.9272 103.23 57.9272H39.8949Z" fill="#E42C34"/>
<path d="M56.5641 74.8104C58.6348 74.8104 60.3134 73.1306 60.3134 71.0586C60.3134 68.9867 58.6348 67.3071 56.5641 67.3071C54.4933 67.3071 52.8145 68.9867 52.8145 71.0586C52.8145 73.1306 54.4933 74.8104 56.5641 74.8104Z" fill="#E6E6E6"/>
<path d="M90.3099 74.8104C92.3806 74.8104 94.0592 73.1306 94.0592 71.0586C94.0592 68.9867 92.3806 67.3071 90.3099 67.3071C88.2392 67.3071 86.5605 68.9867 86.5605 71.0586C86.5605 73.1306 88.2392 74.8104 90.3099 74.8104Z" fill="#E6E6E6"/>
<path d="M56.5781 71.0325V50.3125C56.5781 41.0265 64.0966 33.5496 73.4372 33.5496C82.7778 33.5496 90.2984 41.0265 90.2984 50.3125V71.0325" stroke="#0E1906" stroke-width="0.410156" stroke-linecap="round" stroke-linejoin="round"/>
<path d="M32.1891 57.9272C30.1109 57.9272 28.4375 59.6028 28.4375 61.6831V126.221C31.9662 128.827 35.7322 131.096 39.6856 132.998V61.681C39.6856 59.6028 41.3613 57.9272 43.4372 57.9272H32.1891Z" fill="#BB2C34"/>
<path d="M32.1869 57.9272C31.6937 57.9261 31.205 58.0224 30.7492 58.2108C30.2933 58.3992 29.8793 58.676 29.5308 59.0251C29.1823 59.3742 28.9063 59.7887 28.7187 60.2449C28.5311 60.7011 28.4355 61.1899 28.4375 61.6831V61.7204C28.4435 62.5279 28.7063 63.32 29.1999 64.018C29.6934 64.7161 30.4004 65.2958 31.2507 65.6994C32.1054 66.1051 33.0748 66.3187 34.0616 66.3187C35.0484 66.3187 36.0178 66.1051 36.8725 65.6994C37.7236 65.2958 38.4313 64.716 38.9252 64.0175C39.4192 63.319 39.6821 62.5262 39.6878 61.7181C39.6879 61.7064 39.6879 61.6948 39.6878 61.6831C39.6878 59.605 41.3591 57.9294 43.4372 57.9294L32.1869 57.9272Z" fill="#9A2C34"/>
<path d="M107.186 79.3144L28.4531 100.373V126.239C28.6246 126.369 28.7967 126.499 28.9694 126.628L107.186 105.573V79.3144Z" fill="#333333" fill-opacity="0.423"/>
<path d="M119.423 71.7303L17.6016 99.028V116.283C19.9623 118.989 22.5278 121.509 25.2753 123.821L119.423 98.584V71.7303Z" fill="#FFB400"/>
<path d="M56.3866 98.1554C56.3888 97.6523 56.4938 97.2673 56.6972 96.996C56.9046 96.7215 57.2019 96.5286 57.5372 96.4513C57.8959 96.355 58.1759 96.3812 58.3794 96.5453C58.5828 96.7071 58.6856 97.0399 58.69 97.5386V105.179C58.6856 105.682 58.5806 106.068 58.3794 106.339C58.1718 106.615 57.8736 106.808 57.5372 106.886C57.1806 106.98 56.9006 106.954 56.6972 106.79C56.4938 106.628 56.3909 106.295 56.3866 105.796V98.1554ZM54.1641 106.249C54.1684 107.387 54.4572 108.187 55.0325 108.647C55.6078 109.106 56.4434 109.191 57.5372 108.905C58.6331 108.612 59.4688 108.069 60.0441 107.304C60.6194 106.536 60.9081 105.582 60.9125 104.442V97.0836C60.9081 95.9461 60.6194 95.1474 60.0441 94.6881C59.4688 94.2287 58.6331 94.1414 57.5372 94.4301C56.4434 94.7232 55.6078 95.2634 55.0325 96.0312C54.4572 96.7969 54.1684 97.7528 54.1641 98.8924V106.249ZM64.5788 94.7255L68.2363 93.7455V91.7241L62.3563 93.299V107.452L64.5788 106.855V101.015L67.4488 100.242V98.2209L64.5788 98.991V94.7255ZM71.5263 92.8637L75.1838 91.8837V89.8605L69.3038 91.4375V105.591L71.5263 104.994V99.1507L74.3941 98.3808V96.3594L71.5263 97.1295V92.8637ZM78.4716 91.0023L82.3106 89.9718V87.9507L76.2491 89.5761V103.727L82.3106 102.102V100.08L78.4716 101.109V96.9653L81.5231 96.1471V94.126L78.4716 94.9442V91.0023ZM90.5794 99.8834C90.4703 99.6485 90.4008 99.3973 90.3738 99.1397C90.3434 98.8381 90.331 98.5349 90.3366 98.2318V96.0489C90.3453 95.3051 90.2381 94.7035 90.015 94.2485C89.7963 93.7935 89.4091 93.5222 88.8622 93.4325C89.342 93.0849 89.721 92.6162 89.9603 92.0741C90.2009 91.5316 90.3169 90.8973 90.3169 90.171V89.0596C90.3234 87.9659 90.0631 87.2223 89.5338 86.8219C89.0044 86.4238 88.1688 86.38 87.0225 86.6863L83.6691 87.5854V101.738L85.8916 101.141V95.3794L86.6594 95.1738C87.1625 95.0382 87.53 95.0689 87.7663 95.2833C88.0003 95.502 88.1162 95.933 88.1141 96.5826V98.8073C88.1141 99.3607 88.1338 99.7436 88.1688 99.9558C88.2059 100.168 88.2563 100.349 88.3153 100.492L90.5794 99.8834ZM86.9634 88.7251C87.355 88.6201 87.6416 88.6571 87.8231 88.8431C88.0069 89.029 88.0966 89.3747 88.0944 89.8778V91.2736C88.09 91.8314 87.9719 92.2535 87.7378 92.5422C87.4854 92.8396 87.1415 93.0449 86.76 93.1262L85.8916 93.3583V89.0116L86.9634 88.7251Z" fill="white"/>
<path d="M25.9185 124.307L25.3957 123.786L25.2754 123.821C25.4881 123.985 25.7017 124.148 25.9163 124.309L25.9185 124.307Z" fill="#666666"/>
</g>
<defs>
<clipPath id="clip0_344_3271">
<rect width="140" height="140" fill="white"/>
</clipPath>
</defs>
</svg>
