<svg width="71" height="71" viewBox="0 0 71 71" fill="none" xmlns="http://www.w3.org/2000/svg">
<g clip-path="url(#clip0_66_156)">
<path d="M71 37.9033C71 45.0234 68.9473 51.9837 65.1014 57.9038C61.2556 63.824 55.7893 68.4382 49.3939 71.163C42.9985 73.8877 35.9612 74.6006 29.1718 73.2116C22.3825 71.8225 16.1461 68.3938 11.2513 63.3591C6.35644 58.3245 3.02301 51.9099 1.67253 44.9266C0.322048 37.9432 1.01517 30.7049 3.66423 24.1267C6.3133 17.5486 10.7993 11.9261 16.5551 7.97041C22.3108 4.01468 29.0777 1.90332 36 1.90332C45.2826 1.90332 54.185 5.69617 60.7487 12.4475C67.3125 19.1988 71 28.3555 71 37.9033Z" fill="#E7EFFF"/>
<path d="M33.0616 12.0512C33.0616 12.0512 43.9766 5.54969 54.5039 9.9292C65.893 14.6671 63.2539 25.9826 63.2539 25.9826H29.0513L33.0616 12.0512Z" fill="white"/>
<path d="M63.7964 26.6661H28.1431L32.4795 11.6023L32.7118 11.4638C32.9677 11.3114 39.0685 7.72949 46.654 7.72949C49.5352 7.72949 52.2646 8.25709 54.7666 9.29807C60.9203 11.8581 63.0848 16.3044 63.817 19.5836C64.6058 23.1164 63.9481 26.016 63.9196 26.1377L63.7964 26.6661ZM29.9595 25.2989H62.6812C62.8214 24.3487 63.0159 22.2277 62.4712 19.8306C61.4978 15.546 58.7288 12.4271 54.2414 10.5603C51.907 9.589 49.3542 9.09668 46.6541 9.09668C40.2513 9.09668 34.8069 11.8721 33.6412 12.5096L29.9595 25.2989Z" fill="black"/>
<path d="M57.2167 22.5407C57.2167 22.5407 59.7147 18.047 54.9597 14.3154C52.2253 12.1696 47.9415 12.0511 44.6831 13.43C51.9023 16.6832 52.9576 19.2422 52.9576 19.2422C52.9576 19.2422 55.5237 17.6639 57.2167 22.5407Z" fill="#61AD29"/>
<path d="M57.2166 23.2244C57.0746 23.2244 56.936 23.1802 56.8202 23.0978C56.7045 23.0155 56.6172 22.8991 56.5706 22.7648C55.8805 20.777 54.9453 19.6821 53.9373 19.6821C53.569 19.6821 53.3094 19.8281 53.3069 19.8296C53.1322 19.9371 52.9276 19.9702 52.7342 19.9032C52.5405 19.8359 52.3962 19.6952 52.3257 19.5027C52.3201 19.4914 51.159 17.0981 44.4021 14.0533C44.2809 13.9986 44.1783 13.9098 44.1068 13.7977C44.0353 13.6856 43.998 13.5551 43.9996 13.4221C44.0011 13.2891 44.0414 13.1595 44.1155 13.0491C44.1896 12.9387 44.2943 12.8523 44.4168 12.8005C45.901 12.1723 47.565 11.8403 49.2288 11.8403C51.6047 11.8403 53.7898 12.5283 55.3817 13.7776C58.0594 15.879 58.5852 18.2345 58.5547 19.8404C58.5218 21.5806 57.843 22.821 57.8141 22.873C57.7548 22.9795 57.6682 23.0682 57.5632 23.1299C57.4581 23.1917 57.3385 23.2243 57.2166 23.2244ZM53.9373 18.3151C54.8619 18.3151 56.0822 18.7584 57.1211 20.6248C57.3572 19.1542 57.1391 16.8951 54.5375 14.8533C53.1852 13.7921 51.2999 13.2077 49.2287 13.2077C48.3101 13.2077 47.3927 13.3207 46.5143 13.5395C50.8859 15.7078 52.6051 17.5088 53.2461 18.402C53.472 18.3444 53.7042 18.3152 53.9373 18.3151Z" fill="black"/>
<path d="M31.2519 12.0511C31.2519 12.0511 28.1933 6.05976 24.3138 7.25072C20.4343 8.44168 21.5373 12.0511 21.5373 12.0511C21.5373 12.0511 17.6728 5.77922 13.8841 7.09404C10.0953 8.40886 14.6781 16.7721 14.6781 16.7721C14.6781 16.7721 9.46518 12.8767 7.05975 15.0259C4.65432 17.1751 9.61653 21.3434 9.61653 21.3434C9.61653 21.3434 4.77463 22.2366 6.40159 25.611H33.0615L31.2519 12.0511Z" fill="#39D800"/>
<path d="M18.0425 19.2375C18.0425 19.2375 22.0999 12.0513 35.4993 12.0513C48.8987 12.0513 52.9579 19.2424 52.9579 19.2424C52.9579 19.2424 53.0402 26.4189 35.5413 26.4189C18.0423 26.4189 18.0425 19.2375 18.0425 19.2375Z" fill="#FFBC3A"/>
<path d="M35.5413 27.1024C17.5656 27.1024 17.3589 19.5585 17.3589 19.2375V19.0578L17.4472 18.9014C17.4918 18.8223 18.5736 16.9416 21.3663 15.076C23.8986 13.3843 28.406 11.3677 35.4991 11.3677C42.5922 11.3677 47.1003 13.3856 49.6331 15.0785C52.4262 16.9453 53.5084 18.8272 53.5531 18.9063L53.6394 19.0591L53.6414 19.2345C53.6423 19.3057 53.641 20.9977 51.8778 22.7815C48.347 26.3527 41.0451 27.1024 35.5413 27.1024ZM18.7443 19.4065C18.8145 19.8535 19.1541 21.1127 20.7904 22.4017C24.2879 25.1569 30.7424 25.7352 35.5413 25.7352C45.0409 25.7352 49.1397 23.6062 50.9054 21.8202C51.9584 20.7549 52.2017 19.7891 52.2577 19.4145C51.9423 18.9464 50.8922 17.5472 48.7961 16.1636C46.4267 14.5994 42.1963 12.7347 35.4993 12.7347C23.7873 12.7347 19.4505 18.3574 18.7443 19.4065Z" fill="black"/>
<path d="M7.05957 32.7427L9.12471 53.8959C9.12471 61.0022 13.7483 64.9331 22.1444 64.9331H49.4C57.7962 64.9331 62.4199 61.0022 62.4199 53.8959L64.4849 32.7427H7.05957Z" fill="white"/>
<path d="M49.4003 65.6166H22.1446C17.8012 65.6166 14.4029 64.6018 12.0438 62.6004C9.66041 60.5785 8.4484 57.6612 8.44115 53.9294L6.30615 32.0591H65.2389L63.1039 53.9296C63.0967 57.6613 61.8847 60.5786 59.5011 62.6005C57.142 64.6018 53.7436 65.6166 49.4003 65.6166ZM7.8132 33.4263L9.80848 53.8627V53.8959C9.80848 57.2238 10.8582 59.8016 12.9284 61.5581C15.0335 63.3439 18.1342 64.2495 22.1446 64.2495H49.4002C53.4105 64.2495 56.5113 63.344 58.6165 61.5581C60.6869 59.8016 61.7364 57.2238 61.7364 53.8959L61.7396 53.8296L63.7314 33.4264L7.8132 33.4263Z" fill="black"/>
<path d="M10.2373 35.2136L12.0741 53.1194C12.0741 59.1346 16.1859 62.4621 23.6528 62.4621H47.8921C55.359 62.4621 59.471 59.1346 59.471 53.1194L61.3076 35.2136H10.2373Z" fill="#1B6079"/>
<path d="M67.9023 29.3627C67.9023 31.2293 66.3891 32.7428 64.5222 32.7428H6.47775C4.611 32.7428 3.09766 31.2293 3.09766 29.3627C3.09766 27.4959 4.611 25.9824 6.47775 25.9824H64.5224C66.3891 25.9826 67.9023 27.4959 67.9023 29.3627Z" fill="#61AD29"/>
<path d="M64.5222 33.4263H6.47775C4.23707 33.4263 2.41406 31.6035 2.41406 29.3627C2.41406 27.1218 4.23707 25.2988 6.47775 25.2988H64.5224C66.7631 25.2988 68.5861 27.1218 68.5861 29.3627C68.5861 31.6035 66.7629 33.4263 64.5222 33.4263ZM6.47775 26.6662C4.99094 26.6662 3.78125 27.8758 3.78125 29.3628C3.78125 30.8496 4.99094 32.0593 6.47775 32.0593H64.5224C66.0092 32.0593 67.2189 30.8496 67.2189 29.3628C67.2189 27.8758 66.0092 26.6662 64.5224 26.6662H6.47775Z" fill="black"/>
<path d="M10.3988 25.9823C10.3988 25.9823 9.11909 22.2546 13.7647 22.5406C14.6271 19.2659 15.8638 18.4725 18.9731 20.1488C20.1519 16.1889 23.2249 17.6769 23.655 19.6955C26.4218 16.9294 28.9812 17.43 29.0925 20.1283C32.4306 17.6482 35.2123 20.0292 33.7658 22.5407C38.5505 21.714 39.3294 23.5746 37.4378 25.9825L10.3988 25.9823Z" fill="white"/>
<path d="M37.4379 26.6662H10.3989C10.2564 26.6662 10.1175 26.6217 10.0016 26.5389C9.88568 26.4562 9.79853 26.3392 9.75233 26.2045C9.72758 26.1326 9.15842 24.4279 10.0811 23.136C10.6913 22.2815 11.7576 21.846 13.2507 21.8416C13.7498 20.169 14.558 18.6126 16.3978 18.6126C17.0274 18.6126 17.7362 18.7987 18.5908 19.1926C19.4368 17.2132 20.7717 16.9805 21.3502 16.9805C22.3679 16.9805 23.3556 17.6133 23.9171 18.5365C25.0078 17.6457 26.118 17.1645 27.1088 17.1645C28.3104 17.1645 29.2104 17.8603 29.5865 19.0072C30.3429 18.6062 31.1066 18.3977 31.835 18.3977C32.9792 18.3977 33.9681 18.9264 34.48 19.8122C34.8108 20.3846 34.9153 21.0412 34.7959 21.7105C35.1326 21.6768 35.4708 21.6593 35.8091 21.658C37.4157 21.658 38.449 22.108 38.8804 22.9953C39.1897 23.6317 39.2837 24.7398 37.9756 26.4049C37.9116 26.4863 37.8299 26.5521 37.7368 26.5973C37.6436 26.6426 37.5414 26.6661 37.4379 26.6662ZM10.9466 25.299H37.0958C37.6971 24.4515 37.7842 23.8678 37.6506 23.5929C37.4777 23.2373 36.7893 23.0251 35.809 23.0251C35.2578 23.0251 34.6096 23.0888 33.8822 23.2144C33.7543 23.2365 33.6227 23.2217 33.5029 23.1717C33.383 23.1218 33.2799 23.0387 33.2056 22.9323C33.1312 22.8258 33.0887 22.7004 33.083 22.5707C33.0774 22.441 33.1087 22.3124 33.1735 22.1998C33.5247 21.5899 33.5694 20.9691 33.2963 20.4965C33.0275 20.0316 32.4949 19.7649 31.835 19.7649C31.3302 19.7649 30.5154 19.9231 29.5003 20.6773C29.4005 20.7515 29.2824 20.797 29.1586 20.809C29.0349 20.8211 28.9103 20.7991 28.7981 20.7456C28.6859 20.692 28.5904 20.6089 28.522 20.5051C28.4535 20.4014 28.4146 20.2809 28.4095 20.1567C28.3845 19.5498 28.1823 18.5317 27.1086 18.5317C26.2684 18.5317 25.1858 19.1321 24.1384 20.1791C24.0514 20.2661 23.9426 20.328 23.8234 20.3583C23.7042 20.3886 23.579 20.3862 23.461 20.3513C23.3431 20.3164 23.2367 20.2503 23.1532 20.16C23.0697 20.0696 23.012 19.9585 22.9864 19.8382C22.8143 19.0303 22.0649 18.3478 21.3499 18.3478C20.623 18.3478 20.0116 19.0568 19.6282 20.3443C19.5993 20.4417 19.549 20.5314 19.481 20.6069C19.413 20.6824 19.329 20.7418 19.2352 20.7807C19.1413 20.8197 19.04 20.8372 18.9385 20.832C18.8371 20.8269 18.738 20.7992 18.6486 20.7509C17.6864 20.2321 16.95 19.9798 16.3975 19.9798C15.7474 19.9798 15.0587 20.3112 14.4256 22.715C14.3427 23.0307 14.0484 23.2464 13.7225 23.2232C13.5731 23.2139 13.4234 23.2092 13.2737 23.209C12.2353 23.209 11.5355 23.4516 11.1935 23.9306C10.8926 24.3522 10.8941 24.9104 10.9466 25.299Z" fill="black"/>
<path d="M60.1007 25.9823C60.1007 25.9823 61.3804 22.2546 56.7348 22.5406C55.8724 19.2659 54.6357 18.4725 51.5264 20.1488C50.3476 16.1889 47.2746 17.6769 46.8445 19.6955C44.0777 16.9294 41.5183 17.43 41.407 20.1283C38.0689 17.6482 35.2872 20.0292 36.7337 22.5407C31.949 21.714 31.1701 23.5746 33.0617 25.9825L60.1007 25.9823Z" fill="white"/>
<path d="M60.1007 26.6662H33.0616C32.9581 26.6662 32.8559 26.6426 32.7628 26.5974C32.6697 26.5521 32.588 26.4863 32.5241 26.4049C31.2159 24.7397 31.31 23.6317 31.6193 22.9953C32.0506 22.108 33.0839 21.658 34.6905 21.658C35.0048 21.658 35.3433 21.6757 35.7037 21.7105C35.5844 21.0412 35.6888 20.3846 36.0197 19.8122C36.5316 18.9264 37.5205 18.3977 38.6647 18.3977C39.3931 18.3977 40.1568 18.6062 40.9131 19.0072C41.2892 17.8603 42.1893 17.1645 43.3909 17.1645C44.3817 17.1645 45.4918 17.6459 46.5826 18.5365C47.1441 17.6133 48.1317 16.9805 49.1495 16.9805C49.7278 16.9805 51.0627 17.2132 51.9089 19.1926C52.7635 18.7987 53.4723 18.6126 54.1018 18.6126C55.9415 18.6126 56.7497 20.169 57.249 21.8416C58.7421 21.846 59.8083 22.2815 60.4185 23.136C61.3412 24.4279 60.7721 26.1326 60.7473 26.2045C60.701 26.3392 60.6138 26.4561 60.4979 26.5389C60.382 26.6216 60.2431 26.6661 60.1007 26.6662ZM33.4037 25.299H59.5527C59.6056 24.9084 59.6068 24.3478 59.3023 23.9256C58.9593 23.45 58.2607 23.2088 57.2257 23.2088C57.0826 23.2088 56.9316 23.2136 56.7769 23.223C56.449 23.2457 56.1569 23.0304 56.0737 22.7149C55.4407 20.3111 54.7519 19.9797 54.1018 19.9797C53.5494 19.9797 52.813 20.2319 51.8508 20.7508C51.7614 20.799 51.6623 20.8266 51.5609 20.8318C51.4594 20.8369 51.3581 20.8194 51.2643 20.7804C51.1705 20.7415 51.0865 20.6821 51.0185 20.6067C50.9505 20.5312 50.9002 20.4415 50.8712 20.3442C50.4878 19.0567 49.8766 18.3477 49.1495 18.3477C48.4346 18.3477 47.6851 19.0302 47.513 19.838C47.4873 19.9583 47.4297 20.0695 47.3462 20.1598C47.2627 20.2501 47.1563 20.3162 47.0384 20.3511C46.9204 20.386 46.7952 20.3885 46.676 20.3582C46.5568 20.3279 46.4479 20.266 46.361 20.179C45.3137 19.132 44.2312 18.5315 43.3907 18.5315C42.3171 18.5315 42.1149 19.5496 42.0899 20.1566C42.0848 20.2808 42.0459 20.4013 41.9774 20.505C41.909 20.6088 41.8135 20.6919 41.7013 20.7454C41.5891 20.799 41.4645 20.8209 41.3407 20.8089C41.217 20.7969 41.0989 20.7513 40.9991 20.6772C39.984 19.9229 39.1691 19.7647 38.6644 19.7647C38.0044 19.7647 37.4718 20.0313 37.2031 20.4963C36.93 20.969 36.9747 21.5898 37.3259 22.1997C37.3907 22.3122 37.422 22.4409 37.4164 22.5706C37.4107 22.7003 37.3682 22.8257 37.2938 22.9321C37.2195 23.0386 37.1163 23.1216 36.9965 23.1716C36.8767 23.2216 36.7451 23.2364 36.6172 23.2143C35.8899 23.0887 35.2416 23.0249 34.6904 23.0249C33.7101 23.0249 33.0217 23.2373 32.8488 23.5927C32.7153 23.8678 32.8024 24.4513 33.4037 25.299Z" fill="black"/>
<path d="M39.829 18.3476C39.701 18.3475 39.5755 18.3115 39.4669 18.2436C39.3584 18.1757 39.271 18.0786 39.2149 17.9635C39.1588 17.8484 39.1362 17.7198 39.1497 17.5924C39.1631 17.4651 39.212 17.344 39.2909 17.2432C42.1971 13.5214 46.3781 13.4787 46.5546 13.4787C46.7359 13.4785 46.9099 13.5503 47.0383 13.6783C47.1667 13.8063 47.2389 13.9801 47.2392 14.1614C47.2395 14.3427 47.1677 14.5167 47.0397 14.645C46.9116 14.7734 46.7379 14.8457 46.5566 14.8459C46.5198 14.8462 42.8526 14.9036 40.3684 18.0845C40.3045 18.1666 40.2227 18.2329 40.1292 18.2785C40.0357 18.3241 39.933 18.3477 39.829 18.3476ZM31.4665 18.0595C31.3525 18.0594 31.2402 18.0308 31.1401 17.9763C31.0399 17.9218 30.955 17.8431 30.893 17.7474C30.831 17.6516 30.794 17.5419 30.7853 17.4282C30.7766 17.3145 30.7964 17.2004 30.8431 17.0963C32.7359 12.8738 38.0066 11.5589 38.2298 11.5051C38.3171 11.4839 38.4077 11.4802 38.4964 11.4941C38.5851 11.508 38.6702 11.5392 38.7469 11.5861C38.8235 11.6329 38.8901 11.6944 38.9429 11.767C38.9957 11.8396 39.0337 11.922 39.0547 12.0093C39.0972 12.1854 39.068 12.3712 38.9736 12.5258C38.8792 12.6805 38.7272 12.7913 38.5511 12.834C38.5029 12.8457 33.706 14.0519 32.0905 17.6555C32.0366 17.7759 31.949 17.8781 31.8382 17.9498C31.7275 18.0215 31.5984 18.0596 31.4665 18.0595ZM25.3828 17.3075C25.2718 17.3075 25.1624 17.2805 25.0642 17.2287C24.9659 17.1769 24.8818 17.102 24.819 17.0104C24.7562 16.9189 24.7167 16.8134 24.7039 16.7031C24.691 16.5928 24.7052 16.481 24.7453 16.3775C25.7236 13.8453 28.5873 12.1642 28.7087 12.0938C28.8657 12.0031 29.0522 11.9784 29.2273 12.025C29.4025 12.0717 29.552 12.186 29.6429 12.3427C29.7337 12.4995 29.7586 12.6859 29.712 12.861C29.6654 13.0361 29.5513 13.1855 29.3947 13.2765C29.369 13.2913 26.8235 14.7918 26.0206 16.8701C25.9709 16.9988 25.8834 17.1096 25.7695 17.1877C25.6557 17.2658 25.5208 17.3076 25.3828 17.3075ZM35.4992 60.04C35.3179 60.04 35.144 59.9679 35.0158 59.8397C34.8876 59.7115 34.8156 59.5377 34.8156 59.3564V38.9072C34.8156 38.5296 35.1215 38.2236 35.4992 38.2236C35.8768 38.2236 36.1828 38.5296 36.1828 38.9072V59.3564C36.1828 59.5377 36.1107 59.7115 35.9825 59.8397C35.8543 59.9679 35.6805 60.04 35.4992 60.04ZM22.5835 60.0401C22.4836 60.04 22.3849 60.0181 22.2943 59.9758C22.2038 59.9335 22.1236 59.8719 22.0595 59.7953C21.9953 59.7187 21.9487 59.6289 21.923 59.5324C21.8972 59.4359 21.8929 59.3348 21.9104 59.2365C21.9635 58.3076 21.4022 46.6292 21.0087 38.9422C21.0029 38.8519 21.0151 38.7612 21.0445 38.6756C21.074 38.59 21.1202 38.5111 21.1804 38.4435C21.2406 38.3759 21.3136 38.3209 21.3953 38.2818C21.4769 38.2426 21.5655 38.2201 21.6559 38.2154C21.7463 38.2108 21.8368 38.2242 21.922 38.2548C22.0072 38.2854 22.0855 38.3326 22.1523 38.3937C22.2191 38.4548 22.2731 38.5286 22.3111 38.6107C22.3492 38.6928 22.3706 38.7817 22.374 38.8722C22.3768 38.9225 22.6341 43.9569 22.8715 48.9692C23.3587 59.2533 23.3004 59.4015 23.2198 59.6067C23.1695 59.7345 23.0819 59.8442 22.9684 59.9215C22.8549 59.9988 22.7208 60.0401 22.5835 60.0401ZM48.6884 60.0401C48.5511 60.0401 48.417 59.9987 48.3035 59.9214C48.19 59.844 48.1024 59.7343 48.0521 59.6066C47.9715 59.4013 47.9131 59.2531 48.4003 48.969C48.6377 43.9569 48.8951 38.9225 48.8979 38.8721C48.9024 38.7824 48.9245 38.6945 48.963 38.6134C49.0015 38.5323 49.0557 38.4595 49.1223 38.3994C49.189 38.3392 49.2669 38.2928 49.3515 38.2628C49.4361 38.2328 49.5258 38.2197 49.6155 38.2244C49.7052 38.229 49.793 38.2512 49.8741 38.2897C49.9552 38.3283 50.0279 38.3824 50.088 38.4491C50.1482 38.5157 50.1946 38.5935 50.2246 38.6781C50.2547 38.7627 50.2678 38.8524 50.2631 38.9421C49.8697 46.6292 49.3086 58.3076 49.3615 59.2363C49.379 59.3347 49.3747 59.4357 49.349 59.5323C49.3232 59.6289 49.2766 59.7186 49.2125 59.7952C49.1483 59.8718 49.0681 59.9335 48.9776 59.9758C48.8871 60.0181 48.7884 60.04 48.6884 60.0401Z" fill="black"/>
<path d="M64.9858 29.9561H63.561C62.9946 29.9561 62.5356 29.4971 62.5356 28.9307C62.5356 28.3642 62.9946 27.9053 63.561 27.9053H64.9858C65.5522 27.9053 66.0112 28.3642 66.0112 28.9307C66.0112 29.4971 65.5522 29.9561 64.9858 29.9561ZM60.068 29.9561H12.5901C12.0237 29.9561 11.5647 29.4971 11.5647 28.9307C11.5647 28.3642 12.0237 27.9053 12.5901 27.9053H60.0681C60.6346 27.9053 61.0935 28.3642 61.0935 28.9307C61.0935 29.4971 60.6344 29.9561 60.068 29.9561ZM8.51656 29.9561H6.55957C5.99314 29.9561 5.53418 29.4971 5.53418 28.9307C5.53418 28.3642 5.99314 27.9053 6.55957 27.9053H8.51643C9.08285 27.9053 9.54182 28.3642 9.54182 28.9307C9.54182 29.4971 9.08285 29.9561 8.51656 29.9561Z" fill="white"/>
</g>
<defs>
<clipPath id="clip0_66_156">
<rect width="70" height="70" fill="white" transform="translate(0.5 0.90332)"/>
</clipPath>
</defs>
</svg>
