<svg width="24" height="25" viewBox="0 0 24 25" fill="none" xmlns="http://www.w3.org/2000/svg">
<path d="M8 16.9017H15.2632C19.7508 16.9017 20.4333 14.0825 21.261 9.97077C21.4998 8.78481 21.6192 8.19183 21.3321 7.79676C21.1034 7.48209 20.7077 7.41806 20 7.40503" stroke="#141414" stroke-width="1.5" stroke-linecap="round"/>
<path d="M9 7.40173H17M13 11.4017V3.40173" stroke="#141414" stroke-width="1.5" stroke-linecap="round"/>
<path d="M8 16.9017L5.37873 4.41666C5.15615 3.52632 4.35618 2.90173 3.43845 2.90173H2.5" stroke="#141414" stroke-width="1.5" stroke-linecap="round"/>
<path d="M8.88 16.9017H8.46857C7.10522 16.9017 6 18.053 6 19.4731C6 19.7098 6.1842 19.9017 6.41143 19.9017H17.5" stroke="#141414" stroke-width="1.5" stroke-linecap="round" stroke-linejoin="round"/>
<path d="M10.5 22.9017C11.3284 22.9017 12 22.2302 12 21.4017C12 20.5733 11.3284 19.9017 10.5 19.9017C9.67157 19.9017 9 20.5733 9 21.4017C9 22.2302 9.67157 22.9017 10.5 22.9017Z" stroke="#141414" stroke-width="1.5"/>
<path d="M17.5 22.9017C18.3284 22.9017 19 22.2302 19 21.4017C19 20.5733 18.3284 19.9017 17.5 19.9017C16.6716 19.9017 16 20.5733 16 21.4017C16 22.2302 16.6716 22.9017 17.5 22.9017Z" stroke="#141414" stroke-width="1.5"/>
</svg>
