<svg width="24" height="25" viewBox="0 0 24 25" fill="none" xmlns="http://www.w3.org/2000/svg">
<path d="M8 16.5H15.2632C19.7508 16.5 20.4333 13.6808 21.261 9.56908C21.4998 8.38311 21.6192 7.79013 21.3321 7.39507C21.045 7 20.4947 7 19.3941 7H6" fill="#7AD03A"/>
<path d="M8 16.5H15.2632C19.7508 16.5 20.4333 13.6808 21.261 9.56908C21.4998 8.38311 21.6192 7.79013 21.3321 7.39507C21.045 7 20.4947 7 19.3941 7H6" stroke="#7AD03A" stroke-width="1.5" stroke-linecap="round"/>
<path d="M8 16.5L5.37873 4.01493C5.15615 3.12459 4.35618 2.5 3.43845 2.5H2.5" stroke="#7AD03A" stroke-width="1.5" stroke-linecap="round"/>
<path d="M8.88 16.5H8.46857C7.10522 16.5 6 17.6513 6 19.0714C6 19.3081 6.1842 19.5 6.41143 19.5H17.5" stroke="#7AD03A" stroke-width="1.5" stroke-linecap="round" stroke-linejoin="round"/>
<path d="M10.5 22.5C11.3284 22.5 12 21.8284 12 21C12 20.1716 11.3284 19.5 10.5 19.5C9.67157 19.5 9 20.1716 9 21C9 21.8284 9.67157 22.5 10.5 22.5Z" stroke="#7AD03A" stroke-width="1.5"/>
<path d="M17.5 22.5C18.3284 22.5 19 21.8284 19 21C19 20.1716 18.3284 19.5 17.5 19.5C16.6716 19.5 16 20.1716 16 21C16 21.8284 16.6716 22.5 17.5 22.5Z" stroke="#7AD03A" stroke-width="1.5"/>
</svg>
