<svg width="370" height="370" viewBox="0 0 370 370" fill="none" xmlns="http://www.w3.org/2000/svg">
<path d="M185.001 359.766C281.284 359.766 359.337 314.701 359.337 259.111C359.337 203.521 281.284 158.456 185.001 158.456C88.7172 158.456 10.6641 203.521 10.6641 259.111C10.6641 314.701 88.7172 359.766 185.001 359.766Z" fill="#F5F5F5"/>
<path d="M234.238 294.439L285.535 268.79L305.966 277.826L234.238 294.439Z" fill="#2EA2CC"/>
<g opacity="0.15">
<path d="M234.238 294.439L285.535 268.79L305.966 277.826L234.238 294.439Z" fill="white"/>
</g>
<path d="M234.238 294.439L279.43 264.239L271.334 252.606L234.238 294.439Z" fill="#2EA2CC"/>
<g opacity="0.15">
<path d="M234.238 294.439L279.43 264.239L271.334 252.606L234.238 294.439Z" fill="white"/>
</g>
<path d="M279.43 264.239L278.572 272.268L234.238 294.439L279.43 264.239Z" fill="#2EA2CC"/>
<g opacity="0.2">
<path d="M279.43 264.239L278.572 272.268L234.238 294.439L279.43 264.239Z" fill="black"/>
</g>
<path d="M286.741 262.7C286.618 262.702 286.499 262.657 286.408 262.574C286.353 262.531 286.307 262.477 286.274 262.416C286.241 262.354 286.221 262.286 286.216 262.216C286.211 262.146 286.221 262.076 286.245 262.01C286.27 261.944 286.307 261.884 286.357 261.834L287.341 260.68C287.384 260.625 287.438 260.579 287.499 260.546C287.56 260.513 287.628 260.493 287.698 260.487C287.767 260.482 287.837 260.491 287.903 260.514C287.969 260.537 288.03 260.573 288.081 260.621C288.137 260.663 288.183 260.716 288.217 260.778C288.251 260.839 288.271 260.907 288.277 260.977C288.283 261.047 288.273 261.118 288.25 261.184C288.226 261.25 288.189 261.31 288.14 261.361C287.814 261.753 287.481 262.138 287.148 262.53C287.097 262.586 287.034 262.63 286.964 262.66C286.893 262.689 286.817 262.703 286.741 262.7Z" fill="#E0E0E0"/>
<path d="M290.82 257.638C290.725 257.641 290.631 257.616 290.549 257.566C290.468 257.517 290.402 257.446 290.359 257.36C290.316 257.275 290.299 257.179 290.308 257.085C290.318 256.99 290.354 256.899 290.413 256.824C291.015 256.035 291.6 255.236 292.167 254.427C292.205 254.372 292.253 254.326 292.309 254.29C292.365 254.254 292.427 254.229 292.493 254.218C292.558 254.206 292.625 254.207 292.69 254.222C292.755 254.236 292.816 254.263 292.87 254.301C292.929 254.339 292.98 254.39 293.019 254.449C293.057 254.508 293.083 254.574 293.095 254.643C293.107 254.713 293.104 254.784 293.087 254.853C293.07 254.921 293.039 254.985 292.996 255.041C292.426 255.855 291.834 256.662 291.227 257.468C291.177 257.525 291.114 257.57 291.043 257.6C290.973 257.629 290.897 257.642 290.82 257.638ZM295.32 251.06C295.225 251.062 295.133 251.036 295.053 250.986C294.996 250.952 294.946 250.906 294.907 250.853C294.867 250.799 294.839 250.738 294.823 250.674C294.807 250.609 294.804 250.542 294.814 250.476C294.825 250.41 294.848 250.347 294.883 250.29C295.401 249.439 295.904 248.588 296.363 247.722C296.395 247.664 296.439 247.613 296.491 247.572C296.543 247.531 296.603 247.501 296.667 247.483C296.731 247.465 296.798 247.46 296.864 247.468C296.93 247.476 296.993 247.497 297.051 247.53C297.168 247.596 297.255 247.704 297.292 247.833C297.33 247.962 297.315 248.1 297.251 248.218C296.763 249.091 296.252 249.957 295.727 250.816C295.686 250.884 295.63 250.941 295.563 250.984C295.497 251.026 295.421 251.052 295.342 251.06H295.32ZM299.101 244.052C299.027 244.048 298.954 244.03 298.886 244C298.765 243.942 298.672 243.84 298.626 243.714C298.581 243.588 298.586 243.449 298.642 243.327C299.064 242.424 299.471 241.514 299.841 240.611C299.899 240.496 299.999 240.408 300.12 240.363C300.241 240.319 300.374 240.321 300.493 240.371C300.612 240.421 300.708 240.513 300.761 240.631C300.814 240.748 300.821 240.881 300.781 241.003C300.403 241.913 299.989 242.846 299.567 243.756C299.527 243.841 299.464 243.913 299.386 243.966C299.308 244.018 299.217 244.048 299.123 244.052H299.101ZM302.061 236.652C302.01 236.663 301.957 236.663 301.906 236.652C301.842 236.633 301.782 236.601 301.731 236.558C301.679 236.515 301.637 236.463 301.606 236.404C301.575 236.344 301.556 236.28 301.55 236.213C301.544 236.146 301.552 236.079 301.573 236.016C301.883 235.068 302.165 234.114 302.424 233.174C302.44 233.109 302.469 233.048 302.509 232.995C302.55 232.942 302.601 232.897 302.659 232.864C302.717 232.831 302.781 232.81 302.847 232.802C302.914 232.794 302.981 232.8 303.045 232.819C303.11 232.836 303.17 232.866 303.223 232.906C303.275 232.947 303.32 232.998 303.353 233.055C303.386 233.113 303.407 233.177 303.415 233.243C303.423 233.309 303.418 233.376 303.4 233.44C303.141 234.395 302.853 235.364 302.542 236.326C302.504 236.422 302.438 236.504 302.352 236.561C302.266 236.618 302.164 236.647 302.061 236.645V236.652ZM304.007 228.926H303.918C303.786 228.901 303.668 228.825 303.591 228.715C303.514 228.604 303.482 228.468 303.504 228.334C303.682 227.372 303.837 226.388 303.963 225.374C303.963 225.302 303.979 225.231 304.009 225.166C304.039 225.1 304.083 225.042 304.137 224.994C304.191 224.947 304.255 224.911 304.324 224.89C304.393 224.869 304.465 224.863 304.537 224.872C304.608 224.881 304.677 224.905 304.739 224.942C304.8 224.979 304.853 225.029 304.894 225.089C304.935 225.148 304.963 225.216 304.976 225.286C304.989 225.357 304.986 225.43 304.969 225.5C304.843 226.499 304.688 227.498 304.51 228.46C304.498 228.585 304.439 228.701 304.346 228.786C304.254 228.87 304.133 228.918 304.007 228.919V228.926ZM304.88 221.008C304.746 221.001 304.619 220.941 304.528 220.841C304.437 220.742 304.388 220.611 304.392 220.476C304.392 219.736 304.436 218.929 304.444 218.152V217.516C304.443 217.449 304.455 217.383 304.48 217.321C304.505 217.259 304.542 217.203 304.589 217.155C304.635 217.108 304.691 217.07 304.753 217.044C304.814 217.018 304.88 217.005 304.947 217.005C305.079 217.005 305.206 217.057 305.3 217.15C305.394 217.243 305.448 217.369 305.45 217.501V218.152C305.45 218.944 305.45 219.736 305.398 220.52C305.397 220.586 305.382 220.651 305.355 220.712C305.327 220.772 305.289 220.826 305.241 220.872C305.193 220.917 305.136 220.952 305.074 220.976C305.012 220.999 304.947 221.01 304.88 221.008ZM304.658 213.046C304.532 213.047 304.411 213 304.317 212.915C304.224 212.83 304.166 212.713 304.155 212.587C304.059 211.61 303.941 210.619 303.8 209.627C303.781 209.494 303.815 209.358 303.896 209.25C303.976 209.142 304.096 209.07 304.229 209.05C304.295 209.04 304.363 209.042 304.428 209.058C304.493 209.074 304.554 209.103 304.608 209.143C304.662 209.183 304.707 209.234 304.741 209.291C304.775 209.349 304.797 209.413 304.806 209.479C304.947 210.471 305.073 211.477 305.162 212.439C305.168 212.505 305.161 212.572 305.141 212.635C305.121 212.699 305.089 212.758 305.046 212.809C305.004 212.859 304.951 212.901 304.892 212.932C304.833 212.963 304.769 212.981 304.703 212.987L304.658 213.046ZM303.4 205.18C303.286 205.18 303.174 205.141 303.085 205.07C302.995 204.999 302.931 204.899 302.905 204.788C302.69 203.833 302.438 202.864 302.165 201.924C302.128 201.794 302.144 201.656 302.209 201.538C302.274 201.42 302.383 201.333 302.512 201.295C302.576 201.276 302.643 201.269 302.709 201.276C302.775 201.282 302.839 201.302 302.898 201.334C302.956 201.365 303.008 201.408 303.05 201.46C303.092 201.512 303.123 201.571 303.141 201.635C303.423 202.597 303.682 203.581 303.881 204.558C303.898 204.623 303.901 204.69 303.891 204.756C303.881 204.822 303.857 204.885 303.822 204.942C303.787 204.999 303.74 205.048 303.686 205.086C303.631 205.124 303.569 205.151 303.504 205.165L303.4 205.18ZM301.018 197.58C300.915 197.58 300.815 197.548 300.731 197.49C300.646 197.432 300.581 197.35 300.544 197.254C300.181 196.352 299.804 195.434 299.36 194.546C299.304 194.424 299.299 194.285 299.344 194.159C299.39 194.033 299.483 193.93 299.604 193.873C299.664 193.844 299.73 193.828 299.796 193.824C299.863 193.821 299.929 193.831 299.992 193.854C300.055 193.877 300.112 193.912 300.161 193.957C300.21 194.002 300.25 194.056 300.278 194.117C300.707 195.02 301.114 195.952 301.484 196.877C301.533 197.003 301.531 197.143 301.479 197.267C301.426 197.392 301.327 197.491 301.203 197.543C301.144 197.566 301.081 197.578 301.018 197.58ZM297.48 190.454C297.392 190.453 297.305 190.43 297.229 190.386C297.152 190.342 297.089 190.278 297.044 190.202C296.541 189.359 296 188.522 295.453 187.716C295.407 187.661 295.372 187.598 295.352 187.53C295.332 187.461 295.326 187.389 295.336 187.318C295.345 187.248 295.369 187.18 295.406 187.119C295.443 187.058 295.493 187.005 295.552 186.965C295.611 186.924 295.677 186.897 295.747 186.883C295.817 186.87 295.89 186.872 295.959 186.888C296.028 186.905 296.094 186.935 296.151 186.978C296.207 187.022 296.255 187.076 296.289 187.139C296.851 187.967 297.399 188.818 297.917 189.684C297.985 189.8 298.004 189.938 297.971 190.069C297.938 190.199 297.855 190.311 297.739 190.38C297.662 190.429 297.572 190.455 297.48 190.454ZM292.87 183.957C292.796 183.957 292.722 183.942 292.654 183.911C292.587 183.881 292.527 183.835 292.478 183.779C291.849 183.039 291.19 182.299 290.524 181.559C290.448 181.459 290.412 181.333 290.422 181.208C290.433 181.082 290.489 180.965 290.581 180.878C290.673 180.792 290.794 180.742 290.92 180.74C291.046 180.737 291.169 180.781 291.264 180.863C291.945 181.603 292.619 182.343 293.262 183.128C293.31 183.179 293.345 183.24 293.368 183.307C293.39 183.373 293.399 183.443 293.392 183.513C293.386 183.582 293.365 183.65 293.331 183.711C293.298 183.772 293.251 183.826 293.196 183.868C293.099 183.937 292.981 183.968 292.863 183.957H292.87ZM287.328 178.236C287.202 178.24 287.08 178.195 286.987 178.111C286.247 177.459 285.507 176.816 284.715 176.209C284.609 176.124 284.541 176.001 284.526 175.867C284.511 175.732 284.55 175.597 284.634 175.491C284.718 175.385 284.841 175.317 284.976 175.302C285.111 175.286 285.246 175.325 285.352 175.41C286.092 176.031 286.913 176.682 287.661 177.348C287.714 177.393 287.757 177.448 287.788 177.51C287.82 177.572 287.838 177.64 287.842 177.709C287.846 177.778 287.836 177.848 287.813 177.913C287.789 177.978 287.752 178.038 287.705 178.088C287.656 178.14 287.595 178.179 287.529 178.205C287.463 178.231 287.391 178.241 287.32 178.236H287.328ZM280.978 173.426C280.881 173.425 280.786 173.397 280.705 173.345C279.861 172.805 279.003 172.302 278.159 171.865C278.041 171.8 277.954 171.691 277.917 171.562C277.879 171.433 277.894 171.295 277.959 171.177C278.024 171.059 278.133 170.972 278.262 170.934C278.391 170.897 278.53 170.912 278.647 170.977C279.513 171.451 280.386 171.969 281.252 172.516C281.366 172.589 281.446 172.704 281.475 172.836C281.504 172.967 281.48 173.105 281.408 173.219C281.358 173.287 281.292 173.342 281.215 173.378C281.139 173.414 281.055 173.431 280.971 173.426H280.978Z" fill="#E0E0E0"/>
<path d="M273.835 169.86H273.679C273.237 169.691 272.781 169.558 272.318 169.46C272.194 169.43 272.085 169.355 272.014 169.25C271.942 169.144 271.913 169.015 271.931 168.889C271.95 168.763 272.015 168.648 272.114 168.567C272.213 168.487 272.338 168.446 272.466 168.454C272.996 168.541 273.518 168.67 274.027 168.838C274.091 168.859 274.149 168.891 274.2 168.934C274.251 168.977 274.292 169.03 274.323 169.089C274.353 169.148 274.371 169.212 274.376 169.279C274.382 169.345 274.374 169.412 274.353 169.475C274.327 169.59 274.26 169.692 274.165 169.763C274.07 169.834 273.953 169.868 273.835 169.86Z" fill="#E0E0E0"/>
<path d="M84.2715 319.325C112.949 319.325 136.197 305.903 136.197 289.347C136.197 272.791 112.949 259.37 84.2715 259.37C55.5937 259.37 32.3457 272.791 32.3457 289.347C32.3457 305.903 55.5937 319.325 84.2715 319.325Z" fill="#EBEBEB"/>
<path d="M56.6988 281.6C60.1324 283.035 66.1338 283.538 68.1688 281.008C68.3094 275.088 72.6088 249.084 72.6088 249.084H54.834L56.6988 281.6Z" fill="#FFBDA7"/>
<path d="M54.4551 285.943V283.612C54.4551 283.612 55.6465 282.991 56.0461 285.418C56.4457 287.845 55.3505 298.686 57.9553 302.157C60.5601 305.627 71.6749 301.047 71.8895 298.834C71.8895 299.759 72.0893 304.125 70.1061 307.137C68.1229 310.149 61.4555 309.061 59.0727 307.988C56.6899 306.915 55.4615 304.466 54.8695 301.868C54.2405 299.145 54.4107 296.955 54.9509 292.611C55.2586 290.378 55.0896 288.106 54.4551 285.943Z" fill="#F0F0F0"/>
<path d="M68.5366 279.365C68.5366 279.994 68.618 280.63 68.655 281.267C68.729 282.525 68.8178 283.79 69.0028 285.048C69.6762 289.525 71.7334 294.668 71.911 299.175C71.9171 300.918 71.5007 302.637 70.6974 304.184C69.6244 306.153 67.1158 308.047 65.177 308.121C61.2846 308.277 59.7232 307.152 58.2876 305.324C55.3276 301.52 54.4692 299.13 55.1648 294.816C55.6159 292.719 55.8073 290.574 55.7346 288.43C55.6754 287.327 54.521 284.234 54.4766 283.612C54.4997 282.116 54.6883 280.627 55.039 279.172C55.0982 278.906 55.298 278.077 55.3572 277.811C55.631 276.464 55.3572 275.687 55.7864 275.095C55.8452 275.008 55.9219 274.935 56.0112 274.88C56.1005 274.825 56.2004 274.79 56.3044 274.777L56.3932 276.375C56.482 277.359 56.8668 277.219 56.8964 277.974C56.9408 279.01 56.7336 280.142 56.852 280.423C56.9704 280.704 57.0518 280.467 57.3552 280.186C57.6586 279.905 57.9916 280.038 58.332 280.778C58.332 280.778 58.332 279.047 58.5984 278.691C59.257 277.87 62.5648 276.834 63.549 276.841C65.2658 276.841 68.4774 278.24 68.5366 279.365Z" fill="#37474F"/>
<path d="M56.0683 285.418C57.3041 288.163 56.1201 294.439 56.8083 294.135C57.4157 293.714 57.9379 293.182 58.3475 292.566L59.1985 294.594C59.1985 294.594 57.7999 297.554 57.8295 298.294C57.8591 299.034 58.8951 300.891 61.0559 301.772C63.2167 302.652 67.1239 302.083 68.4041 301.483C69.7463 300.633 70.7247 299.314 71.1495 297.783C71.2457 296.858 70.1579 295.371 70.1579 295.371L70.2615 292.692L70.8535 292.973C71.4002 294.992 71.7472 297.059 71.8895 299.145C71.8957 300.888 71.4793 302.607 70.6759 304.155C69.6029 306.123 67.0943 308.017 65.1555 308.091C61.2631 308.247 59.7017 307.122 58.2661 305.294C55.3061 301.491 54.4477 299.1 55.1433 294.786C55.5944 292.689 55.7858 290.544 55.7131 288.4C55.6539 287.298 54.4995 284.204 54.4551 283.583C54.4783 282.086 54.6669 280.597 55.0175 279.143C54.5957 281.711 54.8399 282.68 56.0683 285.418Z" fill="#2EA2CC"/>
<g opacity="0.25">
<path d="M56.0683 285.418C57.3041 288.163 56.1201 294.439 56.8083 294.135C57.4157 293.714 57.9379 293.182 58.3475 292.566L59.1985 294.594C59.1985 294.594 57.7999 297.554 57.8295 298.294C57.8591 299.034 58.8951 300.891 61.0559 301.772C63.2167 302.653 67.1239 302.083 68.4041 301.483C69.7463 300.633 70.7247 299.314 71.1495 297.783C71.2457 296.858 70.1579 295.371 70.1579 295.371L70.2615 292.692L70.8535 292.973C71.4002 294.992 71.7472 297.059 71.8895 299.145C71.8957 300.888 71.4793 302.607 70.6759 304.155C69.6029 306.123 67.0943 308.018 65.1555 308.092C61.2631 308.247 59.7017 307.122 58.2661 305.294C55.3061 301.491 54.4477 299.101 55.1433 294.786C55.5944 292.689 55.7858 290.544 55.7131 288.4C55.6539 287.298 54.4995 284.204 54.4551 283.583C54.4783 282.087 54.6669 280.597 55.0175 279.143C54.5957 281.711 54.8399 282.68 56.0683 285.418Z" fill="black"/>
</g>
<path d="M65.066 296.289C66.7236 296.141 69.025 295.985 68.9806 292.914C68.9362 289.843 69.1064 285.67 69.1064 285.67C69.4098 287.394 69.8464 289.199 70.357 291.02C70.357 291.02 71.3338 295.697 70.1794 297.243C69.025 298.79 61.6694 298.79 59.9822 297.635C58.295 296.481 57.9842 294.054 57.5994 289.762C57.2146 285.47 56.8594 280.386 56.8594 280.386C57 280.719 57.0592 280.43 57.3626 280.149C57.666 279.868 57.999 280.001 58.3394 280.741C58.591 283.553 59.5604 291.908 59.9082 293.662C60.256 295.415 63.3862 296.444 65.066 296.289Z" fill="#2EA2CC"/>
<path d="M69.8716 295.179L69.6496 296.429C66.5884 294.437 63.0009 293.406 59.3488 293.469L58.9492 291.989C66.6674 291.678 69.8716 295.179 69.8716 295.179Z" fill="#E0E0E0"/>
<path d="M69.4332 290.998L69.4998 292.729C64.7934 289.466 58.57 289.703 58.57 289.703L58.3184 287.993C66.0366 287.705 69.4332 290.998 69.4332 290.998Z" fill="#E0E0E0"/>
<path d="M69.1447 287.571V289.288C64.3421 285.544 58.1853 285.3 58.1853 285.3L57.9707 283.938C65.7259 283.657 69.1447 287.571 69.1447 287.571Z" fill="#E0E0E0"/>
<path d="M69.0866 283.516L69.1606 285.255C64.3802 281.511 57.7202 282.525 57.7202 282.525L57.5352 280.911C64.913 279.772 69.0866 283.516 69.0866 283.516Z" fill="#E0E0E0"/>
<path d="M68.8183 307.041C67.9895 307.374 68.5223 304.081 67.0645 303.925C65.6067 303.77 61.8031 303.245 61.5959 304.14C61.3887 305.035 60.9225 307.181 60.2491 306.945C59.5757 306.708 57.2077 306.56 56.0829 304.429C54.9989 302.348 54.4881 300.016 54.6029 297.672C54.6991 295.156 55.3429 290.413 55.1135 288.563C54.8027 286.454 54.3735 285.943 54.3735 285.943V287.423C54.3764 287.807 54.4676 288.184 54.6399 288.526C54.9655 289.518 54.7583 292.226 54.3735 295.075C53.8777 298.775 54.3735 302.416 55.1135 304.007C56.8303 307.773 57.7035 309.971 64.6225 310.252C70.7201 310.504 72.2593 303.888 71.8745 300.018C71.5489 302.297 71.4749 305.983 68.8183 307.041Z" fill="#455A64"/>
<path d="M69.6482 296.429C66.4396 296.285 63.2249 296.369 60.0282 296.681L59.6582 295.364C63.0007 294.466 66.5123 294.403 69.885 295.179L69.6482 296.429Z" fill="#F5F5F5"/>
<path d="M59.6445 295.364C59.6445 295.364 60.9025 291.56 69.4347 290.998C69.5656 291.266 69.6391 291.558 69.6506 291.856C69.662 292.154 69.6112 292.452 69.5013 292.729C69.5013 292.729 63.0115 293.144 60.0145 296.681L59.6445 295.364Z" fill="#F5F5F5"/>
<path d="M58.9492 291.967C58.9492 291.967 60.6142 288.134 69.1464 287.571C69.3055 287.829 69.3898 288.127 69.3898 288.43C69.3898 288.733 69.3055 289.03 69.1464 289.288C69.1464 289.288 62.3162 289.932 59.3118 293.469L58.9492 291.967Z" fill="#F5F5F5"/>
<path d="M58.3184 287.993C58.3184 287.993 60.5384 284.086 69.0854 283.516C69.3063 284.071 69.3324 284.684 69.1594 285.255C69.1594 285.255 61.567 286.165 58.57 289.695L58.3184 287.993Z" fill="#F5F5F5"/>
<path d="M58.0078 283.938C58.0078 283.938 60.2278 280.504 68.797 279.942C68.9205 280.185 68.9897 280.451 69 280.724C69.0102 280.996 68.9611 281.267 68.8562 281.518C68.8562 281.518 61.2268 281.762 58.2224 285.3L58.0078 283.938Z" fill="#F5F5F5"/>
<path d="M88.4723 263.196C90.6257 268.613 95.3247 267.355 100.616 264.328L101.94 229.659L84.2617 233.1L88.4723 263.196Z" fill="#FFBDA7"/>
<path d="M84.7972 275.347C86.4104 277.263 89.2965 277.174 92.6931 278.366C93.3041 278.591 93.8935 278.871 94.4542 279.202C97.4512 280.934 100.774 284.071 106.553 284.989C113.494 286.091 119.03 284.404 120.184 283.442C121.338 282.48 121.272 281.74 121.383 280.327C119.807 282.199 115.744 283.05 110.964 282.754C106.183 282.458 103.231 280.356 98.6575 276.893C94.8243 273.985 92.9372 273.785 90.9392 273.334C90.5618 273.245 90.1993 273.156 89.7627 273.023C87.3281 272.283 85.4114 271.41 84.9452 270.063C84.9248 270.018 84.9099 269.971 84.9009 269.922C84.6514 271.72 84.6166 273.541 84.7972 275.347Z" fill="#F0F0F0"/>
<path d="M97.8433 261.738C98.5491 261.044 99.4161 260.535 100.367 260.258C101.446 260.443 102.409 261.046 103.045 261.938C103.534 262.582 104.148 263.995 104.999 265.075C107.833 268.664 108.699 269.804 113.879 273.127C115.278 274.015 119.118 276.264 120.487 277.197C120.864 277.541 121.146 277.977 121.304 278.462C121.463 278.947 121.494 279.465 121.393 279.965C121.293 280.466 121.065 280.932 120.731 281.318C120.397 281.704 119.969 281.997 119.488 282.169C117.128 283.205 109.365 284.301 103.667 281.378C97.7989 278.381 96.0895 275.058 91.7383 274.259C88.9707 273.748 85.5001 272.298 84.9377 270.936C84.6935 267.873 84.9377 266.785 85.9145 264.358C86.3664 263.23 86.5781 262.02 86.5361 260.806C86.5361 259.955 86.5361 259.163 87.1133 258.667C87.308 258.508 87.5354 258.394 87.7793 258.334C87.7793 258.467 87.9717 259.681 87.9717 259.681C88.1983 259.929 88.4459 260.156 88.7117 260.362C89.2815 260.872 89.9475 261.102 89.3037 262.3C88.7117 263.366 89.4295 264.409 91.0279 263.891C91.8313 263.546 92.6145 263.156 93.3737 262.722C94.1109 262.364 94.9347 262.223 95.7491 262.315C96.7037 262.604 96.9701 263.847 97.7175 264.831C97.1995 263.817 96.6815 262.922 97.8433 261.738Z" fill="#37474F"/>
<path d="M103.682 281.385C97.8139 278.388 96.1045 275.065 91.7533 274.266C88.9857 273.756 85.5151 272.305 84.9527 270.944C84.7529 268.413 84.7233 267.118 85.4855 265.497C85.6631 268.331 88.1199 268.169 91.3315 268.568C94.5431 268.968 98.2135 274.488 100.211 274.533C102.209 274.577 106.812 273.297 106.812 273.297L108.862 274.851C107.907 276.22 103.682 276.331 105.088 277.263C106.494 278.196 108.048 277.9 112.962 278.706C115.922 279.195 119.355 277.559 118.719 276.094C119.459 276.531 120.058 276.93 120.465 277.204C120.842 277.548 121.124 277.984 121.282 278.469C121.441 278.954 121.472 279.472 121.371 279.973C121.271 280.473 121.042 280.939 120.709 281.325C120.375 281.712 119.947 282.005 119.466 282.177C117.143 283.213 109.38 284.308 103.682 281.385Z" fill="#2EA2CC"/>
<g opacity="0.25">
<path d="M103.682 281.385C97.8139 278.388 96.1045 275.065 91.7533 274.266C88.9857 273.756 85.5151 272.305 84.9527 270.944C84.7529 268.413 84.7233 267.118 85.4855 265.497C85.6631 268.331 88.1199 268.169 91.3315 268.568C94.5431 268.968 98.2135 274.488 100.211 274.533C102.209 274.577 106.812 273.297 106.812 273.297L108.862 274.851C107.907 276.22 103.682 276.331 105.088 277.263C106.494 278.196 108.048 277.9 112.962 278.706C115.922 279.195 119.355 277.559 118.719 276.094C119.459 276.531 120.058 276.93 120.465 277.204C120.842 277.548 121.124 277.984 121.282 278.469C121.441 278.954 121.472 279.472 121.371 279.973C121.271 280.473 121.042 280.939 120.709 281.325C120.375 281.712 119.947 282.005 119.466 282.177C117.143 283.213 109.38 284.308 103.682 281.385Z" fill="black"/>
</g>
<path d="M84.7958 275.347C86.409 277.263 89.2951 277.174 92.6917 278.366C93.3027 278.591 93.8921 278.871 94.4529 279.202C95.1929 279.587 95.1928 279.002 94.6008 278.048C93.5765 276.323 92.3328 274.739 90.9008 273.334C90.2824 272.731 89.5172 272.3 88.6808 272.083C85.928 271.491 85.2546 270.751 84.9808 270.041C84.9488 269.979 84.9216 269.915 84.8995 269.848C84.6573 271.671 84.6225 273.516 84.7958 275.347Z" fill="#E0E0E0"/>
<path d="M85.4536 274.118C85.3056 275.125 85.2982 275.31 86.1196 275.68C87.6974 276.33 89.3197 276.866 90.974 277.285C92.7204 277.7 92.454 277.13 92.4984 276.797C92.5428 276.464 89.6716 274.577 88.939 274.163C88.2064 273.748 85.4536 274.118 85.4536 274.118Z" fill="#2EA2CC"/>
<path d="M92.6906 278.366C93.3016 278.591 93.8911 278.871 94.4518 279.202C97.4488 280.934 100.771 284.071 106.551 284.989C107.661 285.165 108.78 285.276 109.903 285.322H111.117C113.174 285.396 114.942 285.078 116.297 283.901C116.918 283.368 116.245 280.482 116.889 280.201C118.462 280.265 120.028 279.95 121.454 279.283C121.454 279.283 122.135 282.732 120.944 284.079C118.724 286.299 111.664 286.987 106.144 285.988C100.327 284.937 97.2638 282.125 94.8144 280.541C92.0986 278.788 89.2866 278.884 86.8446 277.929C86.0688 277.632 85.3759 277.152 84.8244 276.531L84.7578 275.317C86.408 277.263 89.294 277.174 92.6906 278.366Z" fill="#455A64"/>
<path d="M97.3829 267.784C95.7715 266.2 94.0638 264.717 92.2695 263.344C92.6839 263.129 93.0983 262.892 93.4091 262.737C94.1463 262.379 94.9702 262.238 95.7845 262.33C96.7391 262.619 97.0055 263.862 97.7529 264.846C99.4697 267.488 106.877 272.727 108.794 273.726C110.71 274.725 113.508 272.912 113.508 272.912L113.559 272.949L113.892 273.164C114.499 273.548 115.565 274.192 116.682 274.866C115.642 275.777 114.375 276.391 113.015 276.641C111.655 276.891 110.253 276.768 108.957 276.286C104.339 274.607 99.6843 270.1 97.3829 267.784Z" fill="#2EA2CC"/>
<path d="M111.797 271.743C110.147 270.625 106.751 270.47 104.309 272.239L105.507 273.067C106.765 272.373 108.233 272.16 109.637 272.468C111.265 272.724 112.878 273.067 114.469 273.497L111.797 271.743Z" fill="#E0E0E0"/>
<path d="M109.068 269.671C107.418 268.561 102.941 268.272 101.246 269.412L102.319 270.566C103.708 270.068 105.206 269.953 106.655 270.233C108.117 270.453 109.565 270.757 110.992 271.143L109.068 269.671Z" fill="#E0E0E0"/>
<path d="M106.959 267.517C105.309 266.407 100.558 265.778 98.5234 266.962L99.6556 268.139C99.6556 268.139 100.521 267.584 103.311 267.739C105.054 267.871 106.764 268.286 108.373 268.968L106.959 267.517Z" fill="#E0E0E0"/>
<path d="M104.82 264.668C103.17 263.558 98.0787 262.448 95.6367 264.217C95.7329 264.772 96.3767 265.186 97.0501 265.416C97.0501 265.416 97.9085 264.876 100.698 265.031C102.534 265.188 104.334 265.63 106.034 266.341L104.82 264.668Z" fill="#E0E0E0"/>
<path d="M114.469 273.497C114.469 273.497 110.946 273.844 108.778 275.324C108.324 275.212 107.929 274.935 107.668 274.547C108.34 273.849 109.155 273.304 110.056 272.948C110.957 272.592 111.925 272.433 112.892 272.483C113.225 272.481 113.551 272.576 113.831 272.756C114.111 272.936 114.332 273.193 114.469 273.497Z" fill="#F5F5F5"/>
<path d="M111.798 271.743C111 271.977 110.278 272.416 109.704 273.018C109.129 273.619 108.724 274.361 108.527 275.169C108.527 275.169 107.595 274.903 107.336 274.34C107.336 274.34 108.357 271.691 110.481 270.818C110.755 270.865 111.016 270.972 111.244 271.132C111.471 271.292 111.661 271.501 111.798 271.743Z" fill="#F5F5F5"/>
<path d="M109.067 269.671C109.067 269.671 106.107 270.537 105.507 273.067C105.507 273.067 104.575 272.801 104.309 272.239C104.529 271.367 104.972 270.567 105.595 269.918C106.217 269.269 106.998 268.794 107.861 268.539C108.145 268.601 108.408 268.739 108.62 268.938C108.832 269.138 108.987 269.391 109.067 269.671Z" fill="#F5F5F5"/>
<path d="M106.5 266.97C106.5 266.97 103.377 267.747 102.319 270.566C102.319 270.566 101.394 270.13 101.246 269.412C101.246 269.412 102.467 266.452 105.42 265.623C105.718 265.706 105.983 265.881 106.177 266.123C106.37 266.364 106.484 266.661 106.5 266.97Z" fill="#F5F5F5"/>
<path d="M104.236 263.958C104.236 263.958 100.647 265.297 99.5964 268.117C99.5964 268.117 98.6714 267.68 98.5234 266.962C98.5234 266.962 100.41 263.262 103.363 262.441C103.635 262.588 103.861 262.808 104.015 263.076C104.169 263.343 104.246 263.649 104.236 263.958Z" fill="#F5F5F5"/>
<path d="M58.2653 149.724C55.1351 172.945 56.2303 207.096 55.5865 215.532C55.1795 220.875 54.1953 225.108 54.2397 236.067C54.2915 247.167 55.2239 259.747 55.2239 259.747C55.2239 259.747 64.2371 264.106 71.1265 260.317C71.1265 260.317 74.7007 235.897 77.1057 222.4C79.2147 210.56 82.2413 188.944 82.2413 188.944L84.2615 212.003C84.2615 212.003 83.1811 224.738 84.3651 235.157C85.4825 244.999 86.7701 251.052 86.7701 251.052C88.9071 252.368 91.3446 253.116 93.8517 253.226C96.3588 253.337 98.8525 252.805 101.097 251.681C101.097 251.681 104.19 216.339 104.427 210.582C104.708 204.025 103.605 143.242 103.605 143.242L58.2653 149.724Z" fill="#37474F"/>
<path d="M72.52 252.458C72.52 252.458 70.5738 254.035 63.6844 253.724C56.795 253.413 54.5898 251.718 54.5898 251.718L55.4556 263.055C57.8747 264.358 60.5896 265.013 63.3366 264.957C68.3094 265.001 70.892 263.07 70.892 263.07L72.52 252.458Z" fill="#455A64"/>
<path d="M85.0391 241.669C88.0359 242.557 91.1414 243.026 94.2669 243.06C99.9501 243.231 102.237 241.58 102.237 241.58L101.275 252.051C101.275 252.051 99.3951 253.99 94.4297 253.946C89.4643 253.901 86.7041 251.807 86.7041 251.807L85.0391 241.669Z" fill="#455A64"/>
<path d="M82.2441 188.937L84.3531 170.437C84.3531 170.437 93.2331 167.884 98.1245 161.268C98.1245 161.268 97.7989 168.491 87.8533 173.108L84.7527 189.499L84.2643 211.995L82.2441 188.937Z" fill="#263238"/>
<path d="M142.271 76.664C142.752 74.0814 143.011 73.0232 142.618 72.3202C142.337 71.7874 142.004 71.5802 141.649 71.5802C141.745 70.8402 141.76 69.523 140.465 69.2492L140.598 68.08C140.702 67.1032 140.243 66.4224 139.54 66.3188C140.169 64.639 140.102 63.2552 139.207 62.9222C138.911 62.8112 137.335 64.0544 136.41 64.9424C133.235 67.9838 133.25 66.6222 130.912 72.3424C130.112 74.3034 128.477 77.071 127.878 80.3344C127.537 82.1696 128.773 88.2672 126.871 92.9736C125.317 96.829 122.15 102.594 117.902 109.72C117.902 109.72 114.158 106.227 109.718 101.521C101.756 93.0846 101.171 91.3974 95.4582 90.28C89.664 92.9366 92.6758 105.82 96.1242 111.925C102.236 117.583 108.761 122.777 115.645 127.465C122.675 132.12 126.205 131.209 128.736 125.985C132.214 118.814 137.128 100.152 138.112 96.6514C139.007 93.4694 141.183 93.0698 141.812 89.8656C142.774 85.1814 141.124 82.1326 141.568 79.9792C141.753 79.1134 142.026 77.996 142.271 76.664Z" fill="#FFBDA7"/>
<path d="M117.888 109.698C115.668 113.531 114.499 115.995 115.032 120.146C113.382 116.446 114.506 112.199 116.778 108.639L117.888 109.698Z" fill="#F0997A"/>
<path d="M135.582 83.0281C137.839 85.2481 138.475 90.1173 136.892 92.7517C139.178 90.9165 139.704 86.0547 135.582 83.0281Z" fill="#F0997A"/>
<path d="M130.979 72.0686C130.979 72.1574 130.913 72.2314 130.883 72.3202C130.742 72.6532 130.58 73.0602 130.402 73.408L131.068 77.4632L129.817 78.7138C129.413 79.1031 129.092 79.5697 128.872 80.0858C128.652 80.602 128.538 81.1571 128.537 81.7182L132.008 79.0838L130.979 72.0686Z" fill="#F0997A"/>
<path d="M94.5724 89.8361C98.8422 90.7759 100.093 91.2125 102.513 93.4769C104.932 95.7413 115.263 106.878 115.263 106.878C115.263 106.878 111.851 107.537 108.84 112.191C105.828 116.846 106.035 120.672 106.035 120.672C102.35 118.09 98.9205 115.161 95.7934 111.925C95.7934 111.925 87.3796 96.8291 94.5724 89.8361Z" fill="#2EA2CC"/>
<path d="M141.901 56.1512L130.364 62.8112C130.19 62.905 130.047 63.0473 129.953 63.2206C129.858 63.394 129.816 63.5911 129.831 63.788L133.635 90.317C133.674 90.528 133.761 90.7271 133.889 90.8991C134.017 91.071 134.184 91.2111 134.375 91.3086C134.591 91.3863 134.822 91.4178 135.051 91.4012C135.28 91.3847 135.504 91.3204 135.707 91.2124L147.199 84.5524C147.382 84.4389 147.532 84.2778 147.631 84.0863C147.73 83.8947 147.775 83.6798 147.761 83.4646L144.002 57.0466C143.963 56.8356 143.876 56.6365 143.748 56.4645C143.619 56.2926 143.453 56.1524 143.262 56.055C143.041 55.973 142.806 55.9391 142.571 55.9557C142.336 55.9723 142.107 56.0389 141.901 56.1512Z" fill="#2EA2CC"/>
<g opacity="0.05">
<path d="M141.901 56.1512L130.364 62.8112C130.19 62.905 130.047 63.0473 129.953 63.2206C129.858 63.394 129.816 63.5911 129.831 63.788L133.635 90.317C133.674 90.528 133.761 90.7271 133.889 90.8991C134.017 91.071 134.184 91.2111 134.375 91.3086C134.591 91.3863 134.822 91.4178 135.051 91.4012C135.28 91.3847 135.504 91.3204 135.707 91.2124L147.199 84.5524C147.382 84.4389 147.532 84.2778 147.631 84.0863C147.73 83.8947 147.775 83.6798 147.761 83.4646L144.002 57.0466C143.963 56.8356 143.876 56.6365 143.748 56.4645C143.619 56.2926 143.453 56.1524 143.262 56.055C143.041 55.973 142.806 55.9391 142.571 55.9557C142.336 55.9723 142.107 56.0389 141.901 56.1512Z" fill="black"/>
</g>
<path d="M135.582 91.2938C135.203 91.4343 134.785 91.4343 134.406 91.2938C134.215 91.1963 134.048 91.0562 133.92 90.8843C133.792 90.7123 133.705 90.5132 133.666 90.3022L129.833 63.788C129.815 63.6041 129.851 63.419 129.936 63.2552L131.172 63.7732C131.086 63.875 131.022 63.993 130.983 64.12C130.943 64.2471 130.93 64.3808 130.943 64.5132L134.68 90.7758C134.684 90.8797 134.714 90.981 134.768 91.07C134.822 91.159 134.897 91.2328 134.988 91.2846C135.078 91.3364 135.18 91.3644 135.284 91.366C135.388 91.3676 135.491 91.3428 135.582 91.2938Z" fill="#2EA2CC"/>
<g opacity="0.3">
<path d="M135.582 91.2938C135.203 91.4343 134.785 91.4343 134.406 91.2938C134.215 91.1963 134.048 91.0562 133.92 90.8843C133.792 90.7123 133.705 90.5132 133.666 90.3022L129.833 63.788C129.815 63.6041 129.851 63.419 129.936 63.2552L131.172 63.7732C131.086 63.875 131.022 63.993 130.983 64.12C130.943 64.2471 130.93 64.3808 130.943 64.5132L134.68 90.7758C134.684 90.8797 134.714 90.981 134.768 91.07C134.822 91.159 134.897 91.2328 134.988 91.2846C135.078 91.3364 135.18 91.3644 135.284 91.366C135.388 91.3676 135.491 91.3428 135.582 91.2938Z" fill="black"/>
</g>
<path d="M131.438 63.5364C131.275 63.6348 131.141 63.777 131.054 63.9469C130.966 64.1169 130.928 64.3078 130.943 64.4984L134.68 90.7758C134.754 91.3012 135.22 91.5158 135.716 91.2124L147.208 84.5524C147.391 84.439 147.54 84.2779 147.639 84.0863C147.738 83.8947 147.784 83.6799 147.77 83.4646L144.004 57.0466C143.995 56.9651 143.965 56.8873 143.916 56.8211C143.868 56.7549 143.803 56.7027 143.728 56.6697C143.653 56.6366 143.57 56.624 143.489 56.633C143.407 56.642 143.33 56.6724 143.264 56.721L131.438 63.5364Z" fill="#2EA2CC"/>
<g opacity="0.15">
<path d="M131.438 63.5364C131.275 63.6348 131.141 63.777 131.054 63.9469C130.966 64.1169 130.928 64.3078 130.943 64.4984L134.68 90.7758C134.754 91.3012 135.22 91.5158 135.716 91.2124L147.208 84.5524C147.391 84.439 147.54 84.2779 147.639 84.0863C147.738 83.8947 147.784 83.6799 147.77 83.4646L144.004 57.0466C143.995 56.9651 143.965 56.8873 143.916 56.8211C143.868 56.7549 143.803 56.7027 143.728 56.6697C143.653 56.6366 143.57 56.624 143.489 56.633C143.407 56.642 143.33 56.6724 143.264 56.721L131.438 63.5364Z" fill="black"/>
</g>
<path d="M132.149 65.12C131.974 65.2276 131.832 65.381 131.738 65.5637C131.644 65.7463 131.602 65.9511 131.616 66.156L134.998 89.7472C135.05 90.1172 135.375 90.2504 135.738 90.0506L146.52 83.7902C146.693 83.6814 146.835 83.5278 146.928 83.3454C147.022 83.1631 147.065 82.9589 147.052 82.7542L143.685 59.2C143.682 59.116 143.654 59.0348 143.606 58.9658C143.558 58.8969 143.491 58.843 143.414 58.8104C143.336 58.7778 143.251 58.768 143.168 58.7819C143.085 58.7959 143.008 58.8331 142.945 58.8892L132.149 65.12Z" fill="#263238"/>
<path d="M132.325 66.4743V66.3263C132.319 66.3148 132.316 66.3021 132.316 66.2893C132.316 66.2764 132.319 66.2637 132.325 66.2523V66.4003C132.332 66.4115 132.335 66.4243 132.335 66.4373C132.335 66.4502 132.332 66.463 132.325 66.4743Z" fill="white"/>
<path d="M132.459 66.3929L132.422 66.1413C132.422 66.1413 132.422 66.0747 132.422 66.0673C132.422 66.0673 132.422 66.0673 132.459 66.1117V66.3633C132.459 66.3633 132.459 66.4299 132.459 66.4373C132.459 66.4373 132.459 66.4299 132.459 66.3929Z" fill="white"/>
<path d="M132.601 66.3188L132.549 65.9562C132.542 65.945 132.539 65.9322 132.539 65.9192C132.539 65.9062 132.542 65.8935 132.549 65.8822C132.549 65.8822 132.586 65.8822 132.586 65.9266L132.638 66.2818C132.638 66.2818 132.638 66.3484 132.638 66.3558C132.638 66.3558 132.608 66.3484 132.601 66.3188Z" fill="white"/>
<path d="M132.741 66.2375L132.652 65.6159C132.652 65.6159 132.652 65.5493 132.652 65.5419L132.741 66.1635C132.748 66.1761 132.751 66.19 132.751 66.2042C132.751 66.2183 132.748 66.2323 132.741 66.2449C132.741 66.2449 132.741 66.2671 132.741 66.2375Z" fill="white"/>
<path d="M133.118 66.0597V65.9709L132.963 66.0597L133.081 65.6379L133.126 65.9561V65.8599V65.9487C133.126 65.9487 133.118 66.0671 133.118 66.0597ZM133.118 65.8673V65.6379L133.037 65.9339L133.118 65.8673Z" fill="white"/>
<path d="M133.296 65.9044C133.25 65.8535 133.224 65.7879 133.222 65.7194C133.202 65.6417 133.202 65.5603 133.222 65.4826C133.23 65.4511 133.245 65.4217 133.265 65.3962C133.286 65.3708 133.311 65.3498 133.34 65.3346H133.399H133.458V65.3864C133.432 65.3761 133.403 65.3761 133.377 65.3864C133.339 65.4103 133.31 65.447 133.296 65.49C133.284 65.5486 133.284 65.609 133.296 65.6676C133.298 65.7186 133.316 65.7677 133.347 65.8082C133.361 65.8197 133.378 65.826 133.396 65.826C133.413 65.826 133.43 65.8197 133.444 65.8082H133.481V65.6602H133.421L133.525 65.5936V65.8008C133.5 65.8503 133.462 65.8915 133.414 65.9192C133.395 65.9274 133.374 65.9304 133.353 65.9278C133.332 65.9252 133.312 65.9171 133.296 65.9044Z" fill="white"/>
<path d="M143.087 59.7106C143.076 59.7041 143.063 59.7007 143.05 59.7007C143.037 59.7007 143.024 59.7041 143.013 59.7106L142.554 59.977C142.53 59.999 142.512 60.0272 142.503 60.0585C142.494 60.0898 142.494 60.1231 142.502 60.1546L142.547 60.4802C142.552 60.5158 142.568 60.5491 142.591 60.5764H142.628L143.094 60.31C143.117 60.2868 143.133 60.2585 143.142 60.2276C143.151 60.1966 143.152 60.164 143.146 60.1324L143.102 59.8142C143.106 59.779 143.101 59.7431 143.087 59.7106ZM142.606 60.5246C142.606 60.5246 142.606 60.5246 142.606 60.4728L142.561 60.1546C142.561 60.0954 142.561 60.0362 142.561 60.0214L143.028 59.755C143.033 59.7692 143.033 59.7852 143.028 59.7994L143.079 60.125C143.083 60.1491 143.081 60.1738 143.073 60.1969C143.065 60.22 143.052 60.241 143.035 60.2582L142.576 60.5246H142.606Z" fill="white"/>
<path d="M142.82 59.94L142.872 60.3174L142.628 60.4654L142.591 60.1768C142.583 60.1608 142.578 60.1431 142.578 60.125C142.578 60.1069 142.583 60.0892 142.591 60.0732L142.82 59.94Z" fill="white"/>
<path d="M143.152 59.8068C143.152 59.8068 143.189 59.8068 143.197 59.903V59.94C143.197 60.0066 143.197 60.0732 143.197 60.0806L143.16 59.7772L143.152 59.8068Z" fill="white"/>
<path d="M134.177 65.3419C134.182 65.3766 134.178 65.4119 134.165 65.4443C134.152 65.4768 134.13 65.5053 134.103 65.5269C134.051 65.5269 134.007 65.5269 133.992 65.4455C133.987 65.4121 133.992 65.378 134.005 65.3468C134.018 65.3157 134.039 65.2884 134.066 65.2679C134.118 65.2383 134.162 65.2753 134.177 65.3419Z" fill="white"/>
<path d="M134.035 65.0608C133.937 65.1317 133.871 65.2379 133.85 65.3568C133.85 65.3568 133.85 65.4086 133.85 65.416C133.85 65.416 133.894 65.416 133.894 65.3716C133.909 65.2856 133.957 65.2088 134.027 65.157C134.04 65.1479 134.056 65.1419 134.071 65.1393C134.087 65.1366 134.103 65.1374 134.119 65.1417C134.134 65.1459 134.149 65.1534 134.161 65.1637C134.173 65.174 134.183 65.1869 134.19 65.2014C134.19 65.2014 134.234 65.2014 134.249 65.2014C134.257 65.1798 134.257 65.1563 134.249 65.1348C134.23 65.0969 134.197 65.068 134.157 65.0542C134.117 65.0404 134.073 65.0427 134.035 65.0608Z" fill="white"/>
<path d="M134.006 64.8536C133.859 64.9568 133.758 65.1135 133.725 65.2902C133.725 65.2902 133.725 65.3494 133.725 65.3568C133.725 65.3568 133.769 65.3568 133.776 65.3124C133.789 65.2408 133.815 65.1725 133.855 65.1114C133.894 65.0504 133.946 64.9979 134.006 64.9572C134.028 64.9416 134.053 64.9306 134.08 64.9248C134.107 64.919 134.134 64.9185 134.161 64.9233C134.188 64.9281 134.213 64.9381 134.236 64.9528C134.259 64.9676 134.279 64.9866 134.294 65.009C134.294 65.009 134.339 65.009 134.354 65.009C134.359 64.9976 134.363 64.9849 134.363 64.972C134.363 64.9591 134.359 64.9465 134.354 64.935C134.316 64.8808 134.26 64.8424 134.195 64.8274C134.131 64.8123 134.064 64.8217 134.006 64.8536Z" fill="white"/>
<path d="M137.641 63.4328L137.574 62.9962L137.5 63.1516L137.596 62.9518L137.641 63.4328Z" fill="white"/>
<path d="M137.693 63.0036V63.0924H137.656V63.0036H137.693Z" fill="white"/>
<path d="M138.015 63.2256V63.1146L137.838 63.2182V63.1442L137.971 62.715L138.015 63.048H138.067V63.0924H138.023V63.2034L138.015 63.2256ZM137.971 63.0258V62.8038L137.882 63.0998L137.971 63.0258Z" fill="white"/>
<path d="M138.197 62.974H138.241C138.244 62.9594 138.244 62.9443 138.241 62.9296C138.245 62.9216 138.247 62.9127 138.247 62.9037C138.247 62.8948 138.245 62.8859 138.241 62.8778H138.204H138.16V62.826L138.241 62.6114L138.078 62.7076L138.3 62.5818L138.219 62.789H138.271H138.382C138.394 62.7864 138.406 62.7864 138.419 62.789C138.423 62.8086 138.423 62.8287 138.419 62.8482C138.426 62.8749 138.426 62.903 138.419 62.9296C138.426 62.9512 138.426 62.9747 138.419 62.9962C138.411 63.0184 138.398 63.0386 138.382 63.0554C138.37 63.0761 138.352 63.0919 138.33 63.0998H138.263H138.211C138.207 63.0829 138.207 63.065 138.211 63.048L138.197 62.974Z" fill="white"/>
<path d="M136.657 61.42L138.573 60.31C138.684 60.2508 138.788 60.31 138.81 60.3988C138.812 60.464 138.797 60.5287 138.766 60.586C138.735 60.6433 138.689 60.6911 138.632 60.7244L136.716 61.8344C136.597 61.901 136.494 61.8344 136.479 61.7456C136.476 61.6802 136.491 61.6152 136.522 61.5577C136.553 61.5003 136.6 61.4526 136.657 61.42Z" fill="#263238"/>
<path d="M139.941 59.4886C140.052 59.4294 140.148 59.4886 140.163 59.5848C140.17 59.648 140.158 59.7117 140.129 59.7683C140.1 59.8248 140.055 59.8717 140 59.903C139.896 59.9622 139.793 59.903 139.778 59.8068C139.774 59.7441 139.788 59.6817 139.816 59.6258C139.845 59.5699 139.888 59.5226 139.941 59.4886Z" fill="#263238"/>
<path d="M140.72 59.0372C140.831 58.978 140.927 59.0372 140.942 59.1334C140.95 59.1967 140.938 59.2608 140.909 59.3175C140.88 59.3743 140.835 59.421 140.779 59.4516C140.761 59.4683 140.738 59.4794 140.713 59.4838C140.689 59.4882 140.664 59.4856 140.64 59.4764C140.617 59.4671 140.597 59.4516 140.583 59.4315C140.568 59.4114 140.559 59.3876 140.557 59.3628C140.554 59.2991 140.567 59.2357 140.596 59.1786C140.624 59.1216 140.667 59.0729 140.72 59.0372Z" fill="#263238"/>
<path d="M134.501 62.6262C134.521 62.6099 134.545 62.5993 134.57 62.5956C134.595 62.5919 134.621 62.5952 134.645 62.6051C134.668 62.615 134.689 62.6311 134.704 62.6518C134.719 62.6725 134.728 62.6969 134.73 62.7224C134.735 62.786 134.721 62.8496 134.691 62.9059C134.661 62.9621 134.616 63.0088 134.56 63.0406C134.541 63.0575 134.518 63.0687 134.493 63.0728C134.468 63.0769 134.442 63.0736 134.418 63.0635C134.395 63.0534 134.375 63.0368 134.361 63.0157C134.347 62.9946 134.339 62.9698 134.338 62.9444C134.336 62.8818 134.349 62.8196 134.378 62.7638C134.406 62.708 134.449 62.6606 134.501 62.6262Z" fill="#263238"/>
<path d="M135.277 62.16C135.297 62.1438 135.32 62.1332 135.346 62.1295C135.371 62.1258 135.397 62.129 135.421 62.1389C135.444 62.1488 135.465 62.165 135.48 62.1857C135.495 62.2063 135.504 62.2307 135.506 62.2562C135.509 62.3196 135.495 62.3826 135.465 62.4385C135.435 62.4945 135.39 62.5414 135.336 62.5744C135.316 62.5888 135.293 62.5977 135.269 62.6003C135.245 62.603 135.22 62.5993 135.198 62.5896C135.175 62.5799 135.156 62.5645 135.141 62.545C135.126 62.5255 135.117 62.5024 135.114 62.4782C135.11 62.4154 135.123 62.3527 135.151 62.2966C135.18 62.2406 135.223 62.1934 135.277 62.16Z" fill="#263238"/>
<path d="M135.744 80.5047C135.712 80.5122 135.679 80.5122 135.648 80.5047C135.612 80.4865 135.582 80.4603 135.559 80.4281C135.536 80.396 135.52 80.3588 135.514 80.3197L134.449 72.8531C134.442 72.7698 134.458 72.6863 134.496 72.6118C134.534 72.5373 134.592 72.4748 134.663 72.4313L143.144 67.5325C143.181 67.511 143.223 67.4998 143.266 67.4998C143.309 67.4998 143.351 67.511 143.388 67.5325C143.424 67.5496 143.455 67.5756 143.478 67.6079C143.502 67.6402 143.516 67.6779 143.521 67.7175L144.587 75.1841C144.594 75.2674 144.577 75.3509 144.539 75.4253C144.501 75.4998 144.443 75.5623 144.372 75.6059L135.892 80.5047C135.843 80.5169 135.792 80.5169 135.744 80.5047ZM143.24 67.6731L134.76 72.5719C134.721 72.5964 134.691 72.6305 134.67 72.6708C134.649 72.711 134.639 72.756 134.641 72.8013L135.707 80.2679C135.707 80.2679 135.707 80.2679 135.773 80.2679L144.298 75.3987C144.336 75.3741 144.367 75.34 144.388 75.2998C144.409 75.2595 144.419 75.2145 144.417 75.1693L143.351 67.7027C143.351 67.7027 143.351 67.7027 143.284 67.7027L143.24 67.6731Z" fill="#2EA2CC"/>
<path d="M127.943 86.3876C127.943 82.5026 128.558 80.4676 130.467 78.847C132.983 76.7528 133.841 72.927 134.788 73.1194C135.928 73.3784 136.927 75.8204 135.425 78.958C133.723 82.51 132.85 84.878 133.123 86.765C133.442 88.9702 127.943 86.3876 127.943 86.3876Z" fill="#FFBDA7"/>
<path d="M74.1546 90.1246C66.8286 91.6564 63.7502 92.4112 60.6126 93.4546C56.1726 94.9346 55.292 111.555 56.439 119.266C56.9274 122.529 58.4814 130.003 58.326 133.799C58.0522 140.459 57.0532 152.914 56.846 158.626C62.5366 164.45 96.9836 163.066 104.162 152.618C104.162 136.819 104.065 121.33 103.422 109.513C102.748 96.5922 97.916 90.6204 94.0828 89.7472C87.4749 88.6258 80.7153 88.7538 74.1546 90.1246Z" fill="#F0F0F0"/>
<path d="M78.9502 157.368C66.792 153.668 62.7516 142.665 63.1438 134.169C63.536 125.674 65.608 115.122 65.1862 108.395L56.0028 110.438C55.916 113.387 56.062 116.339 56.4394 119.266C56.9278 122.529 58.4818 130.003 58.3264 133.799C58.0526 140.459 57.0536 152.914 56.8464 158.626C60.8794 162.748 79.335 163.259 92.3072 159.492C87.7733 159.461 83.2702 158.745 78.9502 157.368Z" fill="#E0E0E0"/>
<path d="M84.6022 69.6117L64.378 68.6793C60.5596 71.7355 53.4778 78.1587 53.5296 79.8755V81.0743C53.5188 81.1231 53.5188 81.1736 53.5296 81.2223C54.2696 82.5617 56.8818 83.3239 60.9296 83.2795C65.6878 83.2351 73.0508 82.5987 74.9452 80.8745C77.8016 78.2845 84.5652 70.7439 84.5652 70.7439L83.618 70.6995L84.6022 69.6117Z" fill="#2EA2CC"/>
<path d="M64.379 69.8116C60.3904 73.0084 52.8276 79.883 53.575 81.2224C54.3224 82.5618 56.9272 83.324 60.975 83.2796C65.7332 83.2352 73.0962 82.5988 74.9906 80.8746C77.847 78.2846 84.6106 70.744 84.6106 70.744L64.379 69.8116Z" fill="#2EA2CC"/>
<g opacity="0.3">
<path d="M64.3793 69.8116C60.4055 73.0084 52.8427 79.92 53.5975 81.2224C54.3523 82.5248 56.9423 83.324 60.9531 83.2796C65.7113 83.2352 73.0743 82.5988 74.9687 80.8746C77.8251 78.2846 84.5887 70.744 84.5887 70.744L64.3793 69.8116Z" fill="black"/>
</g>
<path d="M64.3796 69.8116C64.3352 70.3962 66.4294 71.558 66.4294 71.558L65.756 68.0356C65.3811 68.1695 65.0522 68.4078 64.8084 68.7225C64.5645 69.0372 64.4157 69.4151 64.3796 69.8116Z" fill="#263238"/>
<path d="M65.1547 60.8132C66.2499 58.4008 69.3875 57.8532 69.3875 57.8532C69.3875 57.8532 70.2977 56.1142 73.3983 54.1532C76.4989 52.1922 81.1091 51.7186 86.3261 51.5558C92.3793 51.3708 97.0487 55.7516 97.9811 61.5606C98.3606 62.4907 98.5928 63.4744 98.6693 64.4762C98.869 71.1362 93.7187 75.443 87.0661 75.6428C84.9101 75.7083 82.7762 75.1934 80.8873 74.152C78.9984 73.1106 77.424 71.5809 76.3287 69.7228C74.6802 71.1605 73.1138 72.6898 71.6371 74.3034L71.9997 78.7878L71.3189 84.4932C70.8709 83.1748 70.3268 81.8912 69.6909 80.6526C68.2603 78.3206 67.089 75.8392 66.1981 73.2526C64.3777 67.9838 64.2075 62.9 65.1547 60.8132Z" fill="#455A64"/>
<path d="M71.7791 73.6078C70.7209 74.5772 69.7663 72.1722 68.8191 71.2472C67.8719 70.3222 64.8749 69.116 63.4911 72.2832C62.1073 75.4504 64.9711 79.9052 67.3095 80.7192C67.9841 80.9875 68.7338 80.9986 69.416 80.7502C70.0981 80.5019 70.6653 80.0116 71.0095 79.3724L70.9207 93.24C74.5171 99.3228 81.2215 99.4338 84.4405 98.9972C87.6595 98.5606 88.3625 95.1788 85.9205 92.5296V88.0896C87.6513 88.253 89.3967 88.1607 91.1005 87.8158C93.9125 87.0758 95.5405 85.3738 96.3323 82.1474C97.6199 76.9674 97.9529 68.2724 95.6959 58.3268C92.3363 55.8848 80.8589 56.0476 73.9991 60.68C73.7179 70.6256 72.8521 72.6384 71.7791 73.6078Z" fill="#FFBDA7"/>
<path d="M97.0143 58.7264C98.8939 61.6124 98.2427 67.2586 94.9201 68.0356C95.6601 65.8156 94.7795 63.5956 93.8989 62.8556C94.0156 63.5257 93.998 64.2124 93.8471 64.8757C93.6821 65.7202 93.2639 66.4945 92.6483 67.0957C91.9601 67.6581 90.5689 68.5239 89.6217 68.4129C89.7269 67.877 89.7691 67.3307 89.7475 66.785C89.7207 66.0525 89.555 65.3318 89.2591 64.6611C88.9621 65.3655 88.5577 66.0195 88.0603 66.6C87.5236 67.1261 86.8851 67.5372 86.1841 67.8082C85.483 68.0792 84.734 68.2044 83.9829 68.1761C83.9705 67.6259 83.891 67.0792 83.7461 66.5482C83.6292 65.8044 83.332 65.1007 82.8803 64.4984C82.6167 65.6453 82.0344 66.6945 81.2005 67.525C80.1667 68.3521 78.9645 68.9431 77.6781 69.2565C76.8419 69.5081 75.9761 69.6636 75.1473 69.93C74.6549 70.0538 74.1764 70.2273 73.7191 70.4479C73.4183 70.6103 73.183 70.8718 73.0531 71.1879C71.4541 69.5046 70.5625 67.2715 70.5625 64.9497C70.5625 62.628 71.4541 60.3949 73.0531 58.7115L97.0143 58.7264Z" fill="#455A64"/>
<path d="M85.9305 88.1266C85.9305 88.1266 79.8329 87.6012 76.6953 85.84C75.3396 85.1371 74.2011 84.0779 73.4023 82.7764C73.675 84.1705 74.3458 85.4556 75.3337 86.4764C78.4047 89.503 85.9305 89.836 85.9305 89.836V88.1266Z" fill="#F0997A"/>
<path d="M81.7246 65.9266L78.809 67.34C78.6285 66.9402 78.6093 66.4861 78.7554 66.0725C78.9016 65.6589 79.2018 65.3177 79.5934 65.12C79.7854 65.0271 79.9943 64.9742 80.2073 64.9647C80.4204 64.9552 80.6332 64.9892 80.8326 65.0647C81.0321 65.1402 81.2141 65.2556 81.3674 65.4038C81.5208 65.552 81.6424 65.7299 81.7246 65.9266Z" fill="#263238"/>
<path d="M82.4123 78.7138L87.1557 80.327C87.0639 80.6453 86.9088 80.9417 86.6998 81.1987C86.4908 81.4557 86.2321 81.6679 85.9392 81.8226C85.6463 81.9774 85.3252 82.0715 84.9951 82.0993C84.6651 82.1271 84.3328 82.0881 84.0181 81.9846C83.3794 81.7529 82.8554 81.2827 82.556 80.6729C82.2566 80.063 82.2051 79.3608 82.4123 78.7138Z" fill="#B16668"/>
<path d="M84.017 81.9846C84.4371 82.1254 84.8882 82.1459 85.3194 82.0438C85.3046 81.6967 85.2086 81.358 85.0391 81.0548C84.8696 80.7516 84.6313 80.4924 84.3434 80.298C84.0555 80.1037 83.726 79.9796 83.3814 79.9358C83.0368 79.892 82.6868 79.9297 82.3594 80.0458C82.4435 80.4851 82.6406 80.8949 82.9313 81.2348C83.2219 81.5748 83.5961 81.8332 84.017 81.9846Z" fill="#F28F8F"/>
<path d="M95.6281 67.044L92.7051 65.564C92.7928 65.3713 92.9187 65.1985 93.0752 65.056C93.2318 64.9136 93.4156 64.8044 93.6156 64.7352C93.8157 64.666 94.0277 64.6382 94.2388 64.6534C94.4499 64.6687 94.6557 64.7267 94.8437 64.824C95.234 65.023 95.5331 65.3643 95.679 65.7774C95.825 66.1905 95.8068 66.6439 95.6281 67.044Z" fill="#263238"/>
<path d="M83.1084 70.411C83.1084 70.7037 83.0216 70.9899 82.859 71.2333C82.6964 71.4767 82.4652 71.6664 82.1948 71.7784C81.9244 71.8904 81.6268 71.9197 81.3397 71.8626C81.0526 71.8055 80.7889 71.6645 80.5819 71.4575C80.3749 71.2506 80.234 70.9869 80.1769 70.6998C80.1198 70.4127 80.1491 70.1151 80.2611 69.8447C80.3731 69.5742 80.5628 69.3431 80.8062 69.1805C81.0496 69.0178 81.3357 68.931 81.6284 68.931C82.021 68.931 82.3974 69.087 82.675 69.3645C82.9525 69.6421 83.1084 70.0185 83.1084 70.411Z" fill="#263238"/>
<path d="M94.3858 69.9152C94.3858 70.2079 94.299 70.494 94.1364 70.7374C93.9737 70.9808 93.7426 71.1705 93.4722 71.2825C93.2017 71.3945 92.9041 71.4238 92.617 71.3667C92.33 71.3096 92.0662 71.1687 91.8593 70.9617C91.6523 70.7547 91.5113 70.491 91.4542 70.2039C91.3971 69.9168 91.4264 69.6192 91.5384 69.3488C91.6505 69.0784 91.8402 68.8472 92.0835 68.6846C92.3269 68.522 92.6131 68.4352 92.9058 68.4352C93.2983 68.4352 93.6747 68.5911 93.9523 68.8687C94.2299 69.1462 94.3858 69.5227 94.3858 69.9152Z" fill="#263238"/>
<path d="M87.1562 68.043L88.022 77.2486L92.4325 75.9832L87.1562 68.043Z" fill="#F0997A"/>
<path d="M80.6592 48.2627C89.0064 47.1601 94.3418 50.5567 97.1242 57.2463C97.6674 58.6251 97.9703 60.0868 98.0196 61.5679C92.9284 57.9641 81.8728 58.9853 74.9094 62.0785C71.4461 63.6146 68.3011 65.7857 65.6371 68.4795C65.1451 68.8891 64.7205 69.3735 64.3792 69.9151C63.8067 68.3097 63.4702 66.6296 63.3802 64.9275C62.8992 55.2261 70.832 49.5799 80.6592 48.2627Z" fill="#37474F"/>
<path d="M95.1549 57.5054C91.4364 56.1881 87.4201 55.9545 83.5739 56.832C83.0707 54.0792 82.6785 51.2302 88.6947 51.652C93.5269 52.0294 95.1549 57.5054 95.1549 57.5054Z" fill="#455A64"/>
<path d="M101.891 152.033C101.739 151.718 101.475 151.473 101.151 151.345C98.1462 149.865 94.4906 150.923 91.279 150.805C90.243 150.76 87.4754 150.805 86.839 149.665C86.4246 148.881 88.8444 148.836 90.5908 147.771C92.3372 146.705 92.0708 143.967 90.687 144.722C89.3032 145.477 87.0832 145.24 83.768 145.647C80.4528 146.054 78.0108 147.127 75.628 146.786C73.2452 146.446 68.9236 144.374 63.3144 141.717C55.6258 138.084 54.8932 137.588 54.8932 137.588L61.1906 120.62C66.8294 108.395 64.2542 97.199 60.6134 93.9282C51.7334 95.6598 48.8548 101.276 46.287 108.647C44.067 115.077 39.8342 128.797 38.147 136.996C36.334 145.728 37.6216 146.572 44.992 150.102C52.3624 153.631 68.5388 157.361 72.2092 158.19C75.8796 159.019 78.3956 161.024 84.841 161.475C87.8528 161.69 91.6194 161.757 93.9504 159.455C94.4253 158.856 94.9806 158.326 95.6006 157.879C95.9956 157.698 96.4038 157.547 96.8216 157.428C97.3159 157.248 97.7819 156.999 98.2054 156.688C98.4409 156.524 98.6297 156.302 98.753 156.044C98.9084 155.622 98.753 155.141 98.901 154.719C98.999 154.496 99.1466 154.298 99.3325 154.14C99.5184 153.983 99.7378 153.869 99.974 153.809C100.449 153.69 100.908 153.516 101.343 153.291C101.56 153.171 101.732 152.983 101.831 152.755C101.93 152.528 101.951 152.274 101.891 152.033Z" fill="#FFBDA7"/>
<path d="M54.8764 137.588C50.6806 136.042 46.4256 137.64 44.1094 138.595C46.0852 136.286 50.5622 134.732 55.3722 136.301L54.8764 137.588Z" fill="#F0997A"/>
<path d="M61.3395 93.24C55.0051 94.5572 50.1507 97.162 47.2795 105.28C44.1641 114.027 41.2559 124.216 41.2559 124.216C41.2559 124.216 41.9959 125.852 48.0639 128.656C54.1319 131.461 57.4249 131.047 57.4249 131.047C57.4249 131.047 61.1249 122.344 63.1525 117.201C65.1801 112.058 67.5037 101.239 61.3395 93.24Z" fill="#2EA2CC"/>
<path d="M251.206 97.4875C248.246 95.7707 244.132 96.0075 239.603 98.6345L82.5382 189.314C73.4732 194.553 66.125 207.281 66.125 217.745V242.069C66.125 247.293 67.9602 250.949 70.9276 252.688C73.6804 254.279 78.1426 256.795 80.8806 258.393C83.8406 260.125 87.9624 259.873 92.506 257.261L249.578 166.581C258.643 161.342 265.992 148.614 265.992 138.151V113.827C265.992 108.595 264.149 104.947 261.182 103.208C258.429 101.617 253.959 99.0785 251.206 97.4875Z" fill="#1B6079"/>
<path d="M92.5015 195.034L249.581 104.34C258.646 99.1081 265.994 103.348 265.994 113.812V138.136C265.994 148.599 258.646 161.327 249.581 166.567L92.5015 257.261C83.4439 262.493 76.0957 258.253 76.0957 247.789V223.48C76.0957 212.994 83.4513 200.266 92.5015 195.034Z" fill="#1B6079"/>
<g opacity="0.15">
<path d="M92.5015 195.034L249.581 104.34C258.646 99.1081 265.994 103.348 265.994 113.812V138.136C265.994 148.599 258.646 161.327 249.581 166.567L92.5015 257.261C83.4439 262.493 76.0957 258.253 76.0957 247.789V223.48C76.0957 212.994 83.4513 200.266 92.5015 195.034Z" fill="white"/>
</g>
<path d="M80.8806 258.393C78.1352 256.795 73.6804 254.279 70.9276 252.688C67.9676 250.971 66.125 247.293 66.125 242.069V217.745C66.2591 212.885 67.4938 208.118 69.7362 203.803L79.6892 209.553C77.4598 213.866 76.233 218.627 76.1002 223.48V247.804C76.1002 252.999 77.9206 256.669 80.8806 258.393Z" fill="#1B6079"/>
<g opacity="0.3">
<path d="M80.8806 258.393C78.1352 256.795 73.6804 254.279 70.9276 252.688C67.9676 250.971 66.125 247.293 66.125 242.069V217.745C66.2591 212.885 67.4938 208.118 69.7362 203.803L79.6892 209.553C77.4598 213.866 76.233 218.627 76.1002 223.48V247.804C76.1002 252.999 77.9206 256.669 80.8806 258.393Z" fill="black"/>
</g>
<path d="M137.529 209.561V213.786C137.529 214.748 136.996 215.562 135.745 216.287L134.791 216.835C133.54 217.575 133 217.36 133 216.398V212.158C133 211.196 133.54 210.375 134.791 209.657L135.745 209.102C137.011 208.406 137.529 208.599 137.529 209.561ZM138.454 183.661C137.951 190.38 137.47 197.077 136.974 203.796C136.981 204.293 136.841 204.781 136.571 205.199C136.301 205.616 135.913 205.945 135.457 206.142L135.124 206.334C133.903 207.037 133.607 206.704 133.607 205.742V186.65C133.607 185.688 134.14 184.874 135.398 184.149L136.678 183.409C137.832 182.78 138.491 182.876 138.491 183.698L138.454 183.661Z" fill="#FAFAFA"/>
<path d="M289.163 142.258L281.253 137.64H281.201C277.353 135.464 272.069 135.797 266.231 139.164C254.465 145.958 244.934 162.474 244.934 176.053C244.934 182.832 247.309 187.597 251.15 189.832L259.164 194.428C263.041 196.892 268.517 196.648 274.593 193.17C286.351 186.376 295.89 169.86 295.89 156.281C295.868 149.228 293.285 144.359 289.163 142.258Z" fill="#37474F"/>
<path d="M245.68 168.89C245.165 171.241 244.897 173.639 244.881 176.046C244.881 182.824 247.256 187.59 251.097 189.825L259.133 194.442L261.013 191.29L266.296 180.797L245.68 168.89Z" fill="#263238"/>
<path d="M274.541 143.989C262.775 150.782 253.244 167.299 253.244 180.878C253.244 194.457 262.775 199.97 274.541 193.177C286.307 186.384 295.839 169.867 295.839 156.288C295.839 142.709 286.33 137.196 274.541 143.989Z" fill="#455A64"/>
<path d="M282.984 162.904V157.679C282.984 151.759 279.366 148.992 274.896 151.567C270.456 154.149 266.815 161.068 266.815 167.018V171.68C266.717 174.902 265.778 178.042 264.092 180.789C263.679 181.517 263.453 182.336 263.434 183.172C263.434 184.652 264.344 185.392 265.469 184.711L284.353 173.811C284.973 173.367 285.48 172.783 285.834 172.107C286.187 171.431 286.377 170.682 286.388 169.919C286.416 169.628 286.377 169.335 286.275 169.062C286.172 168.789 286.009 168.543 285.796 168.343C284.08 167.595 282.984 165.708 282.984 162.904Z" fill="white"/>
<path d="M278.782 178.658C278.782 181.515 277.043 184.83 274.897 186.058C272.751 187.287 271.02 185.977 271.02 183.098L278.782 178.658Z" fill="white"/>
<path d="M216.822 215.244C216.53 214.568 216.04 213.998 215.416 213.608L211.908 211.581C210.384 210.708 208.519 211.581 207.535 212.18L205.337 210.9C202.68 209.302 198.995 212.654 198.166 213.46L197.226 212.913C195.976 212.173 194.266 212.639 192.786 213.394V200.681C192.84 200.134 192.753 199.583 192.532 199.081C192.312 198.578 191.966 198.14 191.528 197.809H191.491H191.432L187.962 195.767C187.148 195.316 186.038 195.39 184.809 196.093C183.499 196.946 182.409 198.096 181.627 199.45C180.845 200.804 180.394 202.324 180.31 203.885V242.905L179.777 242.653C176.699 240.485 173.472 239.198 170.623 239.693C168.233 240.251 166.144 241.695 164.777 243.734C163.297 246.353 165.739 248.004 168.899 251.615C172.059 255.226 174.819 259.511 177.653 262.175C180.488 264.839 182.574 265.534 182.574 265.534V270.633L186.052 272.638L212.47 257.387V252.281C212.47 252.281 215.756 239.205 216.799 233.744C217.843 228.283 218.812 219.432 216.822 215.244Z" fill="#2EA2CC"/>
<g opacity="0.85">
<path d="M216.822 215.244C216.53 214.568 216.04 213.998 215.416 213.608L211.908 211.581C210.384 210.708 208.519 211.581 207.535 212.18L205.337 210.9C202.68 209.302 198.995 212.654 198.166 213.46L197.226 212.913C195.976 212.173 194.266 212.639 192.786 213.394V200.681C192.84 200.134 192.753 199.583 192.532 199.081C192.312 198.578 191.966 198.14 191.528 197.809H191.491H191.432L187.962 195.767C187.148 195.316 186.038 195.39 184.809 196.093C183.499 196.946 182.409 198.096 181.627 199.45C180.845 200.804 180.394 202.324 180.31 203.885V242.905L179.777 242.653C176.699 240.485 173.472 239.198 170.623 239.693C168.233 240.251 166.144 241.695 164.777 243.734C163.297 246.353 165.739 248.004 168.899 251.615C172.059 255.226 174.819 259.511 177.653 262.175C180.488 264.839 182.574 265.534 182.574 265.534V270.633L186.052 272.638L212.47 257.387V252.281C212.47 252.281 215.756 239.205 216.799 233.744C217.843 228.283 218.812 219.432 216.822 215.244Z" fill="white"/>
</g>
<g opacity="0.2">
<path d="M192.769 213.46V217.782C193.816 216.89 194.955 216.111 196.166 215.458L192.769 213.46ZM208.731 211.588C208.312 211.752 207.908 211.953 207.525 212.188L208.642 212.846C209.375 213.263 209.958 213.9 210.307 214.667C210.916 214.198 211.589 213.819 212.305 213.542L208.731 211.588ZM200.539 211.64C199.697 212.179 198.912 212.802 198.193 213.497L200.48 214.822L200.613 214.896C200.965 215.083 201.269 215.349 201.501 215.673C202.238 214.927 203.054 214.264 203.936 213.697L200.539 211.64ZM180.3 203.87V242.89C181.521 243.495 182.682 244.211 183.771 245.029V205.875L180.3 203.87ZM181.114 264.18C178.258 261.516 175.498 257.202 172.367 253.62C169.407 250.224 167.047 248.566 168.016 246.22L164.538 244.215C163.569 246.575 165.915 248.24 168.889 251.615C172.027 255.189 174.809 259.503 177.636 262.175C180.463 264.846 182.565 265.527 182.565 265.527V270.625L186.043 272.638V267.532C186.043 267.532 183.971 266.844 181.114 264.18Z" fill="#2EA2CC"/>
</g>
<path d="M186.042 272.638V267.54C186.042 267.54 183.97 266.844 181.113 264.18C178.257 261.516 175.497 257.202 172.367 253.62C169.236 250.039 166.75 248.359 168.237 245.739C169.606 243.699 171.698 242.255 174.091 241.699C177.103 241.159 180.544 242.631 183.77 245.029V205.875C183.856 204.315 184.308 202.796 185.09 201.442C185.871 200.089 186.96 198.938 188.269 198.083C190.756 196.655 192.768 197.817 192.768 200.681V217.782C192.768 217.782 198.962 212.276 201.471 215.658C201.471 215.658 207.554 209.279 210.306 214.667C210.306 214.667 214.746 211.055 216.789 215.244C218.831 219.432 217.84 228.283 216.789 233.744C215.738 239.205 212.46 252.281 212.46 252.281V257.387L186.042 272.638Z" fill="#2EA2CC"/>
<g opacity="0.7">
<path d="M186.042 272.638V267.54C186.042 267.54 183.97 266.844 181.113 264.18C178.257 261.516 175.497 257.202 172.367 253.62C169.236 250.039 166.75 248.359 168.237 245.739C169.606 243.699 171.698 242.255 174.091 241.699C177.103 241.159 180.544 242.631 183.77 245.029V205.875C183.856 204.315 184.308 202.796 185.09 201.442C185.871 200.089 186.96 198.938 188.269 198.083C190.756 196.655 192.768 197.817 192.768 200.681V217.782C192.768 217.782 198.962 212.276 201.471 215.658C201.471 215.658 207.554 209.279 210.306 214.667C210.306 214.667 214.746 211.055 216.789 215.244C218.831 219.432 217.84 228.283 216.789 233.744C215.738 239.205 212.46 252.281 212.46 252.281V257.387L186.042 272.638Z" fill="white"/>
</g>
<g opacity="0.3">
<path d="M172.367 253.62C169.407 250.224 167.047 248.566 168.016 246.22L164.538 244.215C163.569 246.575 165.915 248.24 168.889 251.615C172.027 255.189 174.809 259.503 177.636 262.175C180.463 264.846 182.565 265.527 182.565 265.527V270.625L186.043 272.638V267.532C186.043 267.532 183.971 266.837 181.114 264.173C178.258 261.509 175.498 257.202 172.367 253.62Z" fill="#2EA2CC"/>
<path d="M192.754 213.453L192.769 213.46V213.423L192.754 213.453Z" fill="#2EA2CC"/>
<path d="M183.773 205.875L180.303 203.87V242.89C181.523 243.495 182.685 244.211 183.773 245.029V205.875Z" fill="#2EA2CC"/>
<path d="M200.541 211.64C199.699 212.179 198.913 212.802 198.195 213.497L200.482 214.822L200.615 214.896C200.967 215.083 201.271 215.349 201.503 215.673V222.807C201.503 222.807 202.295 215.458 203.945 213.69L200.541 211.64Z" fill="#2EA2CC"/>
<path d="M212.308 213.542L208.734 211.588C208.315 211.752 207.911 211.953 207.527 212.188L208.645 212.846C209.378 213.263 209.96 213.9 210.31 214.667V221.83C210.31 221.83 210.746 214.622 212.293 213.549L212.308 213.542Z" fill="#2EA2CC"/>
<path d="M196.174 215.451L192.77 213.46V225.13C192.77 225.13 193.31 217.308 196.174 215.451Z" fill="#2EA2CC"/>
</g>
<path d="M215.918 103.903L212.38 101.876C212.312 101.845 212.255 101.793 212.218 101.728L211.566 100.596L213.653 99.3894L213.594 99.5744L215.918 103.903Z" fill="#E0E0E0"/>
<path d="M201.338 99.0194C201.367 99.6122 201.537 100.19 201.833 100.704C202.129 101.219 202.542 101.656 203.04 101.979L204.424 102.779C204.903 103.022 205.429 103.161 205.966 103.187C206.503 103.212 207.039 103.124 207.539 102.927C206.74 103.23 206.126 102.771 206.126 101.802V65.6454C206.147 65.0526 206.317 64.4747 206.622 63.9656L201.834 61.198C201.531 61.708 201.361 62.2854 201.338 62.8778V99.0194Z" fill="#E0E0E0"/>
<path d="M213.779 99.3302C213.713 99.219 213.607 99.137 213.483 99.1008H213.365C213.279 99.1001 213.194 99.1231 213.121 99.1674L207.593 102.364C207.522 102.407 207.448 102.444 207.371 102.475H207.312C207.228 102.503 207.141 102.518 207.053 102.52C206.653 102.52 206.594 102.061 206.594 101.78V65.6454C206.632 65.1377 206.784 64.6453 207.041 64.2055C207.297 63.7658 207.651 63.3901 208.074 63.1072L245.547 41.477C245.702 41.3763 245.881 41.3177 246.065 41.3068C246.147 41.3068 246.376 41.3068 246.472 41.6842C246.501 41.8004 246.516 41.9197 246.517 42.0394V78.181C246.517 79.2318 246.517 79.8608 245.222 80.5934L218.789 95.8744C218.689 95.9331 218.614 96.0247 218.574 96.1334L216.081 103.319L213.779 99.3302Z" fill="#FAFAFA"/>
<path d="M245.998 41.8026C246.009 41.8812 246.009 41.9608 245.998 42.0394V78.181C245.998 79.1726 245.998 79.5796 244.94 80.179L218.544 95.46C218.342 95.5733 218.189 95.758 218.115 95.978L215.969 102.164L214.193 99.086C214.131 98.9755 214.047 98.8785 213.946 98.801C213.846 98.7234 213.731 98.6669 213.608 98.6346C213.527 98.6237 213.445 98.6237 213.364 98.6346C213.196 98.635 213.03 98.6783 212.883 98.7604L207.341 101.972L207.207 102.031H207.2H207.148C207.137 101.95 207.137 101.868 207.148 101.787V65.6454C207.173 65.215 207.305 64.7976 207.533 64.4318C207.729 64.0659 208.014 63.7554 208.362 63.529L245.835 41.8988C245.904 41.8548 245.979 41.8223 246.057 41.8026M246.117 40.8258C245.853 40.8374 245.598 40.9192 245.377 41.0626L207.822 62.6928C207.321 63.007 206.911 63.4455 206.63 63.9656C206.321 64.4733 206.148 65.0516 206.127 65.6454V101.787C206.127 102.527 206.512 103.001 207.067 103.001C207.206 103 207.343 102.975 207.474 102.927H207.533C207.639 102.889 207.741 102.839 207.836 102.779L213.364 99.5818L215.791 103.792C215.823 103.849 215.869 103.896 215.925 103.928C215.981 103.961 216.045 103.978 216.11 103.977C216.185 103.978 216.258 103.955 216.32 103.911C216.381 103.867 216.426 103.805 216.45 103.733L219.025 96.3332L245.451 81.0522C246.982 80.1864 246.99 79.3132 246.99 78.218V42.0394C246.991 41.8772 246.971 41.7155 246.931 41.5584C246.896 41.3519 246.789 41.1644 246.629 41.029C246.469 40.8936 246.267 40.819 246.057 40.8184L246.117 40.8258Z" fill="#E0E0E0"/>
<path d="M246.937 41.5583C246.738 40.8183 246.079 40.6111 245.295 41.0625L207.828 62.7001C207.324 63.0091 206.911 63.4456 206.63 63.9655L201.842 61.2053C202.128 60.689 202.54 60.2537 203.041 59.9399L240.499 38.2949C241.028 38.0322 241.611 37.8955 242.201 37.8955C242.792 37.8955 243.374 38.0322 243.903 38.2949L245.295 39.1015C245.72 39.3788 246.085 39.7395 246.368 40.1617C246.65 40.584 246.844 41.0591 246.937 41.5583Z" fill="#F0F0F0"/>
<path d="M211.543 69.1012C211.553 68.917 211.606 68.7376 211.698 68.5781C211.791 68.4185 211.92 68.2833 212.076 68.1836L239.101 52.5844C239.264 52.5007 239.446 52.457 239.63 52.457C239.814 52.457 239.995 52.5007 240.159 52.5844L240.751 52.9248C240.906 53.0245 241.035 53.1597 241.128 53.3193C241.221 53.4788 241.274 53.6582 241.284 53.8424V74.5624C241.272 74.7463 241.218 74.925 241.126 75.0843C241.033 75.2436 240.905 75.3791 240.751 75.48L213.726 91.0792C213.562 91.163 213.381 91.2067 213.197 91.2067C213.013 91.2067 212.832 91.163 212.668 91.0792L212.076 90.7388C211.922 90.6379 211.793 90.5024 211.701 90.3431C211.608 90.1838 211.554 90.0051 211.543 89.8212V69.1012Z" fill="#2EA2CC"/>
<g opacity="0.24">
<path d="M211.543 69.1012C211.553 68.917 211.606 68.7376 211.698 68.5781C211.791 68.4185 211.92 68.2833 212.076 68.1836L239.101 52.5844C239.264 52.5007 239.446 52.457 239.63 52.457C239.814 52.457 239.995 52.5007 240.159 52.5844L240.751 52.9248C240.906 53.0245 241.035 53.1597 241.128 53.3193C241.221 53.4788 241.274 53.6582 241.284 53.8424V74.5624C241.272 74.7463 241.218 74.925 241.126 75.0843C241.033 75.2436 240.905 75.3791 240.751 75.48L213.726 91.0792C213.562 91.163 213.381 91.2067 213.197 91.2067C213.013 91.2067 212.832 91.163 212.668 91.0792L212.076 90.7388C211.922 90.6379 211.793 90.5024 211.701 90.3431C211.608 90.1838 211.554 90.0051 211.543 89.8212V69.1012Z" fill="white"/>
</g>
<path d="M214.022 69.9227L211.698 68.5833C211.602 68.7394 211.549 68.918 211.543 69.1012V89.8213C211.554 90.0051 211.608 90.1838 211.701 90.3431C211.793 90.5024 211.922 90.6379 212.076 90.7389L212.668 91.0793C212.832 91.163 213.013 91.2067 213.197 91.2067C213.381 91.2067 213.562 91.163 213.726 91.0793L214.022 90.909V69.9227Z" fill="#2EA2CC"/>
<g opacity="0.3">
<path d="M214.022 69.9227L211.698 68.5833C211.602 68.7394 211.549 68.918 211.543 69.1012V89.8213C211.554 90.0051 211.608 90.1838 211.701 90.3431C211.793 90.5024 211.922 90.6379 212.076 90.7389L212.668 91.0793C212.832 91.163 213.013 91.2067 213.197 91.2067C213.381 91.2067 213.562 91.163 213.726 91.0793L214.022 90.909V69.9227Z" fill="black"/>
</g>
<path d="M241.285 53.8424V74.5624C241.277 74.7545 241.219 74.941 241.114 75.1026C241.038 75.2356 240.934 75.3514 240.811 75.443H240.774L213.749 91.0422C213.693 91.072 213.631 91.0876 213.568 91.0876C213.505 91.0876 213.442 91.072 213.387 91.0422C213.329 91.0059 213.283 90.9538 213.254 90.8922C213.225 90.8305 213.215 90.7619 213.224 90.6944V69.9744C213.219 69.9005 213.233 69.8266 213.263 69.7591C213.294 69.6915 213.34 69.6323 213.398 69.5865C213.456 69.5407 213.525 69.5097 213.597 69.496C213.67 69.4824 213.745 69.4866 213.816 69.5082L225.182 72.2092L226.662 72.5644C226.838 72.5965 227.02 72.5796 227.187 72.5157C227.354 72.4517 227.5 72.3432 227.609 72.2018L229.334 69.8042L240.929 53.724C241.122 53.4502 241.285 53.502 241.285 53.8424Z" fill="#2EA2CC"/>
<path d="M240.752 75.4801H240.789C240.924 75.3766 241.036 75.2462 241.117 75.0971C241.199 74.948 241.248 74.7836 241.263 74.6143L229.297 69.9301L237.311 77.4929L240.752 75.4801Z" fill="#2EA2CC"/>
<g opacity="0.2">
<path d="M240.752 75.48H240.789C240.924 75.3766 241.036 75.2462 241.117 75.0971C241.199 74.948 241.248 74.7835 241.263 74.6142V74.1258L229.297 69.93L237.311 77.4928L240.752 75.48Z" fill="black"/>
</g>
<path d="M213.2 90.7684C213.191 90.8359 213.202 90.9046 213.231 90.9662C213.26 91.0279 213.306 91.0799 213.363 91.1162C213.419 91.146 213.481 91.1616 213.545 91.1616C213.608 91.1616 213.67 91.146 213.726 91.1162L223.035 85.7438L225.159 72.335L213.2 90.428V90.7684Z" fill="#2EA2CC"/>
<g opacity="0.2">
<path d="M213.2 90.7684C213.191 90.8359 213.202 90.9046 213.231 90.9662C213.26 91.0279 213.306 91.0799 213.363 91.1162C213.419 91.146 213.481 91.1616 213.545 91.1616C213.608 91.1616 213.67 91.146 213.726 91.1162L223.035 85.7438L225.159 72.335L213.2 89.1996V90.7684Z" fill="black"/>
</g>
<path d="M241.113 75.0952C241.036 75.2282 240.933 75.344 240.809 75.4356L213.747 91.057C213.692 91.0868 213.629 91.1024 213.566 91.1024C213.503 91.1024 213.441 91.0868 213.385 91.057L226.327 70.3962C226.594 69.9902 226.997 69.6927 227.464 69.5571C227.93 69.4215 228.43 69.4566 228.873 69.6562L241.113 75.0952Z" fill="#2EA2CC"/>
<g opacity="0.3">
<path d="M213.416 69.56L225.7 74.9842C226.138 75.185 226.634 75.2207 227.096 75.0847C227.559 74.9488 227.956 74.6502 228.216 74.2442L241.129 53.5834L213.416 69.56Z" fill="black"/>
</g>
<path d="M213.416 69.56L225.804 74.185C226.232 74.3425 226.701 74.3507 227.135 74.2083C227.569 74.066 227.942 73.7814 228.194 73.4006L241.144 53.5538L213.416 69.56Z" fill="#2EA2CC"/>
<path d="M265.423 66.9627C265.471 68.5242 265.981 70.0365 266.888 71.3081C267.796 72.5798 269.06 73.5537 270.521 74.1066C271.982 74.6594 273.575 74.7664 275.097 74.414C276.619 74.0616 278.002 73.2655 279.071 72.1267C280.141 70.9878 280.848 69.5573 281.104 68.0162C281.361 66.4751 281.154 64.8927 280.51 63.4691C279.867 62.0456 278.815 60.8449 277.489 60.0191C276.163 59.1934 274.622 58.7795 273.06 58.8301C270.97 58.8996 268.993 59.7946 267.562 61.3189C266.13 62.8431 265.362 64.8726 265.423 66.9627Z" fill="#455A64"/>
<path d="M269.404 67.8432L278.462 72.7198C277.03 73.9718 275.194 74.6647 273.291 74.6711C271.389 74.6775 269.548 73.9968 268.108 72.7544C266.668 71.512 265.724 69.7913 265.451 67.9087C265.178 66.0262 265.594 64.1083 266.622 62.5078C266 64.5428 266.489 66.2744 269.404 67.8432Z" fill="#37474F"/>
<path d="M275.034 72.1277L280.458 68.8199C278.867 76.3559 278.356 84.08 278.941 91.7599L276.78 93.0919C275.345 88.8813 274.797 80.3195 275.034 72.1277Z" fill="#37474F"/>
<path d="M268.348 72.2758L270.753 75.1618L271.071 83.7976C271.14 85.6994 271.701 87.5509 272.698 89.1718C273.696 90.7928 275.095 92.128 276.761 93.0476C275.281 88.0822 274.889 79.5796 275.037 72.1278L268.348 72.2758Z" fill="#455A64"/>
<path d="M275.956 81.9032L275.801 81.9994C275.655 82.0723 275.494 82.1103 275.331 82.1103C275.168 82.1103 275.007 82.0723 274.861 81.9994L273.581 81.3112C273.314 81.1632 273.107 81.3112 273.122 81.5924V81.7774C273.137 81.9399 273.189 82.0968 273.275 82.2355C273.361 82.3742 273.479 82.491 273.618 82.5766L274.92 83.3166C275.064 83.3912 275.224 83.4301 275.386 83.4301C275.549 83.4301 275.708 83.3912 275.852 83.3166L276 83.2204C276.133 83.1258 276.243 83.0018 276.32 82.858C276.397 82.7142 276.439 82.5546 276.444 82.3916V82.14C276.43 81.8588 276.215 81.7478 275.956 81.9032Z" fill="#2EA2CC"/>
<path d="M276.235 84.7226L276.079 84.8262C275.933 84.8992 275.773 84.9372 275.61 84.9372C275.446 84.9372 275.285 84.8992 275.14 84.8262L273.859 84.1306C273.593 83.99 273.393 84.1306 273.401 84.4192V84.6042C273.417 84.7665 273.47 84.9229 273.556 85.0615C273.642 85.2001 273.758 85.317 273.896 85.4034L275.199 86.1434C275.346 86.2124 275.507 86.245 275.67 86.2386C275.832 86.2321 275.99 86.1868 276.131 86.1064L276.279 86.0102C276.413 85.9145 276.522 85.7892 276.599 85.6442C276.676 85.4991 276.719 85.3382 276.723 85.174V84.989C276.708 84.6856 276.494 84.5672 276.235 84.7226Z" fill="#2EA2CC"/>
<path d="M276.523 87.5494L276.361 87.6456C276.215 87.7203 276.054 87.7592 275.891 87.7592C275.727 87.7592 275.566 87.7203 275.421 87.6456L274.141 86.9574C273.874 86.8168 273.674 86.9574 273.682 87.246V87.4236C273.694 87.586 273.745 87.7431 273.83 87.882C273.915 88.021 274.031 88.1378 274.17 88.2228L275.473 88.9258C275.617 89.0004 275.777 89.0394 275.939 89.0394C276.101 89.0394 276.261 89.0004 276.405 88.9258L276.553 88.8296C276.686 88.7339 276.796 88.6086 276.873 88.4635C276.95 88.3185 276.992 88.1576 276.997 87.9934V87.8084C276.99 87.505 276.76 87.394 276.523 87.5494Z" fill="#2EA2CC"/>
<path d="M283.464 61.6716C282.391 61.0944 280.97 61.161 279.408 61.9824C279.246 62.0638 279.083 62.16 278.913 62.2636C278.742 62.3672 278.528 62.5152 278.335 62.6558C278.016 62.8855 277.71 63.1326 277.418 63.3958C276.854 63.923 276.339 64.5001 275.879 65.12C274.589 66.7876 273.655 68.7016 273.133 70.744C272.886 71.7107 272.772 72.7065 272.793 73.704C272.852 75.7094 273.585 77.1154 274.724 77.774L270.676 75.6058C269.927 75.1479 269.306 74.5069 268.873 73.7432C268.439 72.9795 268.207 72.118 268.197 71.2398C268.179 70.2954 268.284 69.3526 268.508 68.4352C269.024 66.3446 269.969 64.3841 271.283 62.678C271.748 62.0777 272.263 61.5182 272.822 61.0056C273.115 60.7424 273.421 60.4953 273.74 60.2656C273.932 60.125 274.125 59.9992 274.325 59.8734C274.524 59.7476 274.658 59.681 274.82 59.5996C275.517 59.2456 276.285 59.0561 277.067 59.0459C277.848 59.0356 278.621 59.2048 279.327 59.5404L279.438 59.5996L279.579 59.6736L283.464 61.6716Z" fill="#2EA2CC"/>
<g opacity="0.1">
<path d="M270.676 75.5466C269.927 75.0887 269.306 74.4478 268.873 73.6841C268.439 72.9203 268.207 72.0589 268.197 71.1806C268.179 70.2363 268.284 69.2935 268.508 68.376L273.126 70.7144C272.879 71.6811 272.764 72.6769 272.785 73.6744C272.845 75.6798 273.577 77.0858 274.717 77.7444L270.676 75.5466Z" fill="black"/>
</g>
<path d="M285.486 65.8008C285.612 69.9226 282.874 75.0138 279.366 77.1746C277.605 78.2698 275.985 78.4104 274.793 77.7518H274.727C273.587 77.0932 272.854 75.6872 272.795 73.6818C272.669 69.56 275.415 64.4688 278.915 62.3006C280.669 61.2202 282.275 61.0722 283.466 61.7086C284.657 62.345 285.427 63.7362 285.486 65.8008Z" fill="#2EA2CC"/>
<g opacity="0.2">
<path d="M285.486 65.8008C285.612 69.9226 282.874 75.0138 279.366 77.1746C277.605 78.2698 275.985 78.4104 274.793 77.7518H274.727C273.587 77.0932 272.854 75.6872 272.795 73.6818C272.669 69.56 275.415 64.4688 278.915 62.3006C280.669 61.2202 282.275 61.0722 283.466 61.7086C284.657 62.345 285.427 63.7362 285.486 65.8008Z" fill="black"/>
</g>
<path d="M305.258 64.1432C305.258 64.1432 298.842 67.6804 293.566 77.4632C292.614 79.2218 291.786 81.0441 291.087 82.917C288.497 89.8508 288.867 94.572 288.867 94.572C286.78 89.873 284.219 85.0186 280.083 81.3704C278.461 79.9509 276.767 78.6171 275.006 77.3744C273.926 76.7824 273.26 75.4578 273.208 73.6078C273.19 72.309 273.398 71.0169 273.822 69.7894C274.098 68.9618 274.445 68.1596 274.858 67.3918C275.852 65.4548 277.324 63.8041 279.136 62.5966C280.712 61.6198 282.184 61.4422 283.272 62.0268C285.277 62.815 287.322 63.4968 289.399 64.0692C294.727 65.527 300.189 64.9942 305.258 64.1432Z" fill="#2EA2CC"/>
<g opacity="0.6">
<path d="M305.258 64.1432C305.258 64.1432 298.842 67.6804 293.566 77.4632C292.614 79.2218 291.786 81.0441 291.087 82.917C288.497 89.8508 288.867 94.572 288.867 94.572C286.78 89.873 284.219 85.0186 280.083 81.3704C278.461 79.9509 276.767 78.6171 275.006 77.3744C273.926 76.7824 273.26 75.4578 273.208 73.6078C273.19 72.309 273.398 71.0169 273.822 69.7894C274.098 68.9618 274.445 68.1596 274.858 67.3918C275.852 65.4548 277.324 63.8041 279.136 62.5966C280.712 61.6198 282.184 61.4422 283.272 62.0268C285.277 62.815 287.322 63.4968 289.399 64.0692C294.727 65.527 300.189 64.9942 305.258 64.1432Z" fill="white"/>
</g>
<g opacity="0.1">
<path d="M291.087 82.9392C288.497 89.8731 288.867 94.5942 288.867 94.5942C286.78 89.8953 284.219 85.0408 280.083 81.3926C278.461 79.9732 276.767 78.6394 275.006 77.3966C273.926 76.8046 273.26 75.48 273.208 73.63C273.19 72.3312 273.398 71.0391 273.822 69.8116C278.832 72.1352 286.957 76.4568 291.087 82.9392Z" fill="black"/>
</g>
<path d="M317.806 73.0751C317.808 77.7355 316.737 82.3339 314.675 86.5135C312.019 92.1597 307.912 97.2435 303.228 100.144C294.888 105.324 287.887 101.528 287.599 91.7231C287.552 89.3737 287.824 87.0289 288.405 84.7523C289.941 78.7353 292.984 73.2088 297.248 68.6943C297.826 68.0875 298.432 67.5103 299.047 66.9701C299.306 66.7481 299.565 66.5261 299.831 66.3189C300.201 66.0179 300.578 65.7293 300.963 65.4531C301.363 65.1719 301.762 64.9055 302.169 64.6539C310.509 59.5109 317.51 63.2701 317.806 73.0751Z" fill="#2EA2CC"/>
<g opacity="0.15">
<path d="M317.806 73.0751C317.808 77.7355 316.737 82.3339 314.675 86.5135C312.019 92.1597 307.912 97.2435 303.228 100.144C294.888 105.324 287.887 101.528 287.599 91.7231C287.552 89.3737 287.824 87.0289 288.405 84.7523C289.941 78.7353 292.984 73.2088 297.248 68.6943C297.826 68.0875 298.432 67.5103 299.047 66.9701C299.306 66.7481 299.565 66.5261 299.831 66.3189C300.201 66.0179 300.578 65.7293 300.963 65.4531C301.363 65.1719 301.762 64.9055 302.169 64.6539C310.509 59.5109 317.51 63.2701 317.806 73.0751Z" fill="white"/>
</g>
<g opacity="0.1">
<path d="M314.675 86.5208C312.019 92.167 307.912 97.2508 303.228 100.152C294.888 105.332 287.887 101.535 287.599 91.7304C287.552 89.3811 287.824 87.0363 288.405 84.7596C289.02 86.0102 291.136 87.7196 292.024 86.4616C291.502 88.4815 291.253 90.5621 291.284 92.648C291.373 95.4674 292.068 97.717 293.297 99.1674C293.806 99.7734 294.45 100.251 295.178 100.562C295.905 100.873 296.696 101.009 297.485 100.958C299.489 100.796 301.417 100.124 303.087 99.0046C307.076 96.5478 310.679 92.2262 313.173 87.3866C313.203 87.3866 313.758 87.8158 314.675 86.5208Z" fill="black"/>
</g>
<path d="M316.771 73.6522C316.897 77.9812 315.528 82.9096 313.204 87.3866C310.71 92.2262 307.107 96.5478 303.118 99.0046C301.448 100.124 299.52 100.796 297.516 100.958C296.727 101.009 295.936 100.873 295.208 100.562C294.481 100.251 293.837 99.7734 293.328 99.1674C292.099 97.6874 291.404 95.4674 291.315 92.648C291.284 90.5621 291.533 88.4814 292.055 86.4616C292.247 85.655 292.477 84.8484 292.743 84.0492C293.215 82.623 293.778 81.2288 294.43 79.8756L294.845 79.0468C295.082 78.588 295.326 78.1292 295.585 77.6778C296.443 76.156 297.415 74.7014 298.493 73.3266V73.2822C299.184 72.3972 299.926 71.5522 300.713 70.7514C301.268 70.189 301.838 69.6562 302.415 69.1604C302.659 68.9532 302.903 68.7534 303.155 68.561C303.407 68.3686 303.754 68.1096 304.065 67.895C304.376 67.6804 304.657 67.488 304.961 67.303C306.632 66.1817 308.564 65.5089 310.57 65.3494C314.292 65.2384 316.608 68.3464 316.771 73.6522Z" fill="#2EA2CC"/>
<g opacity="0.4">
<path d="M316.771 73.6522C316.897 77.9812 315.528 82.9096 313.204 87.3866C310.71 92.2262 307.107 96.5478 303.118 99.0046C301.448 100.124 299.52 100.796 297.516 100.958C296.727 101.009 295.936 100.873 295.208 100.562C294.481 100.251 293.837 99.7734 293.328 99.1674C292.099 97.6874 291.404 95.4674 291.315 92.648C291.284 90.5621 291.533 88.4814 292.055 86.4616C292.247 85.655 292.477 84.8484 292.743 84.0492C293.215 82.623 293.778 81.2288 294.43 79.8756L294.845 79.0468C295.082 78.588 295.326 78.1292 295.585 77.6778C296.443 76.156 297.415 74.7014 298.493 73.3266V73.2822C299.184 72.3972 299.926 71.5522 300.713 70.7514C301.268 70.189 301.838 69.6562 302.415 69.1604C302.659 68.9532 302.903 68.7534 303.155 68.561C303.407 68.3686 303.754 68.1096 304.065 67.895C304.376 67.6804 304.657 67.488 304.961 67.303C306.632 66.1817 308.564 65.5089 310.57 65.3494C314.292 65.2384 316.608 68.3464 316.771 73.6522Z" fill="black"/>
</g>
<path d="M305.77 77.7L300.805 87.1276C298.585 86.025 295.854 84.656 292.465 84.8336C292.546 84.5672 292.628 84.3008 292.716 84.0344C293.188 82.6105 293.751 81.2189 294.404 79.8682C294.544 79.587 294.677 79.3058 294.818 79.032C295.055 78.5732 295.299 78.1144 295.558 77.6704C296.414 76.1451 297.386 74.6879 298.466 73.3118L298.503 73.2674C298.659 73.0676 298.814 72.8752 298.977 72.6828C300.738 75.6502 305.77 77.7 305.77 77.7Z" fill="#37474F"/>
<path d="M301.537 87.2682C300.39 87.2682 299.687 86.4024 299.635 84.8558V84.804C299.669 83.4769 300.015 82.1765 300.645 81.0079C301.275 79.8393 302.171 78.8354 303.261 78.0775H303.298C303.769 77.7611 304.315 77.5724 304.881 77.5298C306.021 77.5298 306.731 78.403 306.776 79.9496V79.994C306.745 81.321 306.401 82.6219 305.772 83.7908C305.143 84.9597 304.247 85.9636 303.157 86.7207H303.12C302.647 87.0332 302.102 87.2191 301.537 87.2608V87.2682Z" fill="#2EA2CC"/>
<path d="M303.156 58.682C302.837 58.69 302.528 58.5715 302.297 58.3524C302.065 58.1333 301.93 57.8315 301.92 57.5128L301.572 45.88C301.585 45.5754 301.712 45.2869 301.929 45.0724C302.146 44.858 302.436 44.7336 302.74 44.7242C303.045 44.7148 303.342 44.8212 303.572 45.0219C303.801 45.2226 303.946 45.5028 303.977 45.806L304.325 57.4388C304.33 57.5972 304.304 57.7551 304.248 57.9033C304.191 58.0516 304.107 58.1873 303.998 58.3027C303.89 58.4182 303.759 58.5111 303.615 58.5762C303.47 58.6413 303.314 58.6772 303.156 58.682Z" fill="#E0E0E0"/>
<path d="M292.3 60.1694C292.089 60.1767 291.88 60.1278 291.694 60.0277C291.508 59.9276 291.352 59.7798 291.242 59.5996L285.129 49.7058C284.962 49.4349 284.908 49.1085 284.981 48.7984C285.054 48.4882 285.247 48.2197 285.518 48.0519C285.789 47.8841 286.115 47.8307 286.425 47.9036C286.735 47.9765 287.004 48.1695 287.172 48.4404L293.284 58.3342C293.368 58.4681 293.425 58.6174 293.451 58.7734C293.478 58.9294 293.473 59.089 293.437 59.2431C293.401 59.3972 293.335 59.5427 293.243 59.6712C293.151 59.7997 293.034 59.9086 292.899 59.9918C292.717 60.0996 292.511 60.1606 292.3 60.1694Z" fill="#E0E0E0"/>
<path d="M283.966 116.639C283.755 116.647 283.546 116.598 283.36 116.498C283.22 116.424 283.097 116.322 282.997 116.2C282.897 116.078 282.823 115.937 282.777 115.786C282.732 115.634 282.717 115.476 282.733 115.319C282.749 115.161 282.796 115.009 282.871 114.87L288.384 104.629C288.535 104.348 288.792 104.139 289.097 104.047C289.402 103.956 289.732 103.989 290.012 104.14C290.293 104.291 290.502 104.548 290.594 104.853C290.685 105.158 290.652 105.488 290.501 105.768L284.988 116.01C284.889 116.196 284.742 116.353 284.563 116.463C284.383 116.574 284.177 116.634 283.966 116.639Z" fill="#E0E0E0"/>
<path d="M305.738 119.036C305.582 119.059 305.422 119.051 305.269 119.012C305.115 118.973 304.971 118.904 304.845 118.809C304.718 118.714 304.611 118.595 304.531 118.459C304.451 118.323 304.398 118.172 304.376 118.015L302.741 106.501C302.707 106.339 302.706 106.172 302.739 106.01C302.772 105.849 302.838 105.695 302.932 105.56C303.027 105.424 303.148 105.31 303.289 105.223C303.43 105.137 303.587 105.08 303.75 105.057C303.914 105.033 304.081 105.044 304.24 105.087C304.399 105.131 304.548 105.207 304.677 105.311C304.805 105.414 304.912 105.543 304.988 105.689C305.065 105.835 305.111 105.996 305.124 106.16L306.759 117.66C306.784 117.818 306.778 117.979 306.74 118.134C306.702 118.289 306.633 118.435 306.538 118.563C306.443 118.691 306.323 118.799 306.186 118.88C306.048 118.962 305.896 119.015 305.738 119.036Z" fill="#E0E0E0"/>
<path d="M323.106 108.573C322.899 108.614 322.685 108.6 322.485 108.533C322.285 108.465 322.106 108.346 321.966 108.188L314.255 99.4783C314.138 99.362 314.045 99.2228 313.983 99.0693C313.922 98.9157 313.892 98.7511 313.897 98.5857C313.902 98.4203 313.94 98.2576 314.011 98.1078C314.081 97.9579 314.181 97.8242 314.305 97.7148C314.429 97.6054 314.575 97.5227 314.732 97.4719C314.89 97.4211 315.056 97.4032 315.221 97.4194C315.385 97.4355 315.545 97.4854 315.689 97.5659C315.834 97.6464 315.96 97.7558 316.061 97.8873L323.764 106.597C323.903 106.755 323.998 106.947 324.04 107.154C324.082 107.36 324.069 107.574 324.002 107.774C323.935 107.974 323.818 108.153 323.66 108.293C323.503 108.433 323.312 108.53 323.106 108.573Z" fill="#E0E0E0"/>
<path d="M332.676 95.386C332.465 95.3941 332.255 95.3456 332.069 95.2454L321.827 89.7324C321.547 89.5813 321.338 89.3249 321.246 89.0196C321.154 88.7143 321.188 88.3851 321.339 88.1044C321.49 87.8238 321.747 87.6146 322.052 87.523C322.357 87.4314 322.686 87.4649 322.967 87.616L333.209 93.129C333.443 93.2534 333.629 93.4517 333.738 93.693C333.847 93.9344 333.874 94.2051 333.813 94.463C333.752 94.7209 333.607 94.9513 333.402 95.1183C333.196 95.2853 332.941 95.3794 332.676 95.386Z" fill="#E0E0E0"/>
<path d="M336.573 78.8618L324.947 79.2096C324.643 79.197 324.354 79.0695 324.14 78.8528C323.925 78.6361 323.801 78.3462 323.792 78.0415C323.782 77.7368 323.889 77.4398 324.089 77.2103C324.29 76.9808 324.57 76.8359 324.873 76.8046L336.506 76.4568C336.824 76.4507 337.132 76.5699 337.363 76.7886C337.594 77.0073 337.73 77.308 337.742 77.626C337.747 77.784 337.721 77.9415 337.664 78.0893C337.608 78.2371 337.523 78.3723 337.415 78.4872C337.306 78.6021 337.176 78.6943 337.031 78.7586C336.887 78.8229 336.731 78.8579 336.573 78.8618Z" fill="#E0E0E0"/>
<path d="M321.803 68.7164C321.591 68.7221 321.382 68.6725 321.195 68.5726C321.008 68.4727 320.85 68.3259 320.738 68.1466C320.57 67.8747 320.517 67.5475 320.591 67.2368C320.665 66.9261 320.858 66.6572 321.13 66.489L331.023 60.3766C331.292 60.2576 331.595 60.2406 331.875 60.329C332.155 60.4173 332.394 60.6049 332.545 60.8566C332.697 61.1082 332.752 61.4065 332.699 61.6956C332.646 61.9846 332.49 62.2445 332.259 62.4264L322.366 68.5388C322.195 68.642 322.002 68.7029 321.803 68.7164Z" fill="#E0E0E0"/>
<path d="M313.818 61.198C313.61 61.2055 313.403 61.157 313.219 61.0574C313.08 60.9829 312.957 60.8815 312.857 60.7593C312.757 60.637 312.682 60.4962 312.636 60.3449C312.591 60.1936 312.576 60.0349 312.592 59.8777C312.608 59.7206 312.655 59.5682 312.731 59.4294L318.244 49.1878C318.318 49.0488 318.419 48.9259 318.541 48.8259C318.663 48.726 318.803 48.651 318.954 48.6053C319.105 48.5596 319.263 48.5441 319.42 48.5596C319.577 48.5751 319.729 48.6213 319.868 48.6957C320.007 48.77 320.13 48.871 320.23 48.9929C320.33 49.1147 320.405 49.2551 320.45 49.4059C320.496 49.5567 320.512 49.7151 320.496 49.8719C320.481 50.0288 320.434 50.181 320.36 50.32L314.847 60.5616C314.748 60.7498 314.6 60.9081 314.42 61.02C314.239 61.1319 314.031 61.1934 313.818 61.198Z" fill="#E0E0E0"/>
<path d="M168.609 173.274L167.105 191.411C167.012 192.535 166.575 193.724 165.795 194.978C165.146 196.01 164.421 196.793 163.62 197.329L149.561 206.723C148.197 207.634 147.103 207.825 146.278 207.296C145.401 206.801 145.032 205.716 145.171 204.041L145.504 200.027L147.658 196.765L149.601 195.467L149.108 201.411C149.062 201.962 149.176 202.34 149.449 202.543C149.725 202.706 150.076 202.645 150.502 202.36L162.797 194.145C162.934 194.054 163.04 193.934 163.117 193.787C163.175 193.671 163.208 193.562 163.216 193.46L164.672 175.904L168.609 173.274ZM154.713 192.051C154.573 191.797 154.478 191.484 154.429 191.112C154.396 190.922 154.385 190.669 154.395 190.353C154.397 190.333 154.398 190.312 154.4 190.292C154.497 189.128 154.87 188.02 155.521 186.967C156.19 185.883 157.045 184.994 158.084 184.3C158.63 183.935 159.135 183.665 159.6 183.489L159.428 185.573C159.063 185.701 158.718 185.873 158.395 186.089C157.389 186.761 156.839 187.669 156.744 188.813L156.737 188.904C156.701 189.333 156.747 189.65 156.875 189.854C157.104 190.203 157.559 190.149 158.241 189.694L160.516 188.174L160.442 189.062L159.407 191.056L152.736 195.514L152.924 193.247L154.713 192.051ZM177.253 174.907L176.412 185.048L177.69 184.194L177.362 188.146L176.033 189.035C175.651 191.509 174.644 193.937 173.014 196.319C171.643 198.296 170.097 199.86 168.376 201.01C168.188 201.135 167.891 201.324 167.483 201.577L166.074 200.233L166.208 198.609C166.258 198.595 166.35 198.553 166.484 198.482C166.919 198.288 167.307 198.078 167.648 197.85C169.065 196.864 170.149 195.735 170.898 194.462C171.667 193.158 172.122 191.648 172.264 189.932L173.29 177.554L177.253 174.907ZM181.266 165.858C181.811 165.494 182.26 165.416 182.613 165.624C182.966 165.831 183.116 166.262 183.061 166.916C183.007 167.569 182.765 168.262 182.334 168.994C181.903 169.725 181.415 170.273 180.869 170.638C180.307 171.014 179.849 171.098 179.496 170.89C179.16 170.67 179.02 170.234 179.074 169.58C179.13 168.906 179.364 168.219 179.776 167.519C180.207 166.788 180.703 166.234 181.266 165.858ZM185.841 162.801C186.387 162.437 186.836 162.358 187.189 162.566C187.542 162.774 187.691 163.205 187.637 163.859C187.583 164.512 187.34 165.205 186.909 165.936C186.478 166.668 185.99 167.216 185.445 167.581C184.883 167.956 184.425 168.04 184.072 167.832C183.736 167.613 183.595 167.177 183.649 166.523C183.705 165.849 183.939 165.162 184.351 164.462C184.782 163.73 185.279 163.177 185.841 162.801ZM186.893 168.465L186.075 178.331C186.068 178.413 186.069 178.499 186.078 178.59L187.33 177.753L187.002 181.705L186.21 182.234L185.202 181.577L185.151 181.611C184.425 182.983 183.551 184.011 182.529 184.694L177.186 188.264L177.514 184.311L181.604 181.579C181.758 181.476 181.882 181.335 181.977 181.156C182.088 180.985 182.151 180.808 182.166 180.624L182.956 171.096L186.893 168.465ZM207.185 144.459C207.696 144.117 208.104 144.047 208.41 144.248C208.734 144.418 208.87 144.809 208.819 145.422C208.77 146.014 208.549 146.644 208.156 147.312C207.781 147.948 207.338 148.437 206.827 148.779C206.333 149.109 205.923 149.19 205.599 149.02C205.294 148.819 205.166 148.422 205.215 147.83C205.266 147.217 205.479 146.593 205.853 145.956C206.247 145.288 206.691 144.789 207.185 144.459ZM204.577 150.282C205.123 149.918 205.563 149.845 205.899 150.064C206.254 150.252 206.403 150.683 206.347 151.357C206.291 152.031 206.048 152.734 205.617 153.465C205.205 154.165 204.726 154.697 204.181 155.062C203.619 155.437 203.161 155.521 202.808 155.313C202.455 155.106 202.305 154.675 202.36 154.021C202.414 153.368 202.656 152.675 203.087 151.943C203.518 151.212 204.015 150.658 204.577 150.282ZM209.102 147.259C209.664 146.883 210.113 146.805 210.449 147.024C210.802 147.232 210.952 147.663 210.897 148.316C210.843 148.97 210.601 149.663 210.17 150.394C209.756 151.115 209.268 151.663 208.705 152.038C208.16 152.403 207.711 152.481 207.358 152.273C207.005 152.065 206.856 151.635 206.91 150.981C206.966 150.307 207.208 149.614 207.637 148.903C208.068 148.171 208.556 147.623 209.102 147.259ZM217.592 147.953L216.738 158.247C216.652 159.289 216.262 160.398 215.569 161.576C214.894 162.721 214.123 163.584 213.254 164.164L207.502 168.007L206.548 167.285L206.471 167.336C205.761 168.717 204.895 169.75 203.872 170.433L198.121 174.276L197.167 173.553L197.09 173.604C196.38 174.986 195.513 176.018 194.491 176.701L186.822 181.825L187.15 177.873L193.694 173.5C193.932 173.341 194.064 173.118 194.087 172.832L194.6 166.643L198.537 164.013L198.138 168.823C198.113 169.13 198.082 169.604 198.044 170.246L198.014 170.614L203.075 167.232C203.314 167.073 203.445 166.85 203.469 166.564L204.129 158.598L208.066 155.968L207.476 163.076C207.448 163.423 207.421 163.846 207.395 164.346L212.457 160.964C212.695 160.804 212.826 160.582 212.85 160.296L213.655 150.583L217.592 147.953ZM225.723 135.111L224 155.884L221.846 159.147L219.904 160.445L221.786 137.742L225.723 135.111Z" fill="white"/>
</svg>
