<svg width="28" height="29" viewBox="0 0 28 29" fill="none" xmlns="http://www.w3.org/2000/svg">
<path d="M17.5 11C17.5 9.06701 15.933 7.5 14 7.5C12.0669 7.5 10.5 9.06701 10.5 11C10.5 12.933 12.0669 14.5 14 14.5C15.933 14.5 17.5 12.933 17.5 11Z" stroke="#4E4E4E" stroke-linecap="round" stroke-linejoin="round"/>
<path d="M25.6668 14.5C25.6668 8.05667 20.4434 2.83333 14.0002 2.83333C7.55684 2.83333 2.3335 8.05667 2.3335 14.5C2.3335 20.9433 7.55684 26.1667 14.0002 26.1667C20.4434 26.1667 25.6668 20.9433 25.6668 14.5Z" stroke="#4E4E4E" stroke-linecap="round" stroke-linejoin="round"/>
<path d="M19.8332 20.3333C19.8332 17.1117 17.2215 14.5 13.9998 14.5C10.7782 14.5 8.1665 17.1117 8.1665 20.3333" stroke="#4E4E4E" stroke-linecap="round" stroke-linejoin="round"/>
</svg>
